<svg width="80" height="80" viewBox="0 0 80 80" fill="none" xmlns="http://www.w3.org/2000/svg">
<mask id="mask0_3671_7725" style="mask-type:luminance" maskUnits="userSpaceOnUse" x="10" y="10" width="60" height="60">
<path d="M69.15 69.15V10.85H10.85V69.15H69.15Z" fill="white" stroke="white" stroke-width="1.7"/>
</mask>
<g mask="url(#mask0_3671_7725)">
<path d="M36.0214 30.9327V33.4839C36.0214 37.5399 32.7029 40.8584 28.647 40.8584C24.591 40.8584 21.2725 37.5399 21.2725 33.4839V32.0588C24.8401 32.0588 28.0324 30.4443 30.1518 27.9032C31.4572 29.7368 33.5998 30.9327 36.0214 30.9327Z" stroke="#007A65" stroke-width="1.7" stroke-miterlimit="10" stroke-linecap="round" stroke-linejoin="round"/>
<path d="M24.5137 44.1374V39.5834M32.7752 39.5834V44.1374L29.9117 46.4297" stroke="#007A65" stroke-width="1.7" stroke-miterlimit="10" stroke-linecap="round" stroke-linejoin="round"/>
<path d="M54.1377 53.917L58.1272 49.6518C59.3697 48.3095 59.2898 46.2135 57.9478 44.9711C56.6025 43.7255 54.5064 43.8086 53.2641 45.1505L47.3379 51.4786C44.7668 49.861 40.6343 47.2435 38.0666 45.6488C36.5252 44.6921 34.7115 44.1373 32.7749 44.1373M24.5134 44.1373C19.132 44.1373 14.4316 48.8378 14.4316 54.2225V65.7959C14.4316 67.9518 15.9564 69.1211 17.7534 69.1211H39.0598V54.1792L46.1254 58.5442C47.4973 59.4113 49.2612 59.1455 50.3242 57.9961L51.4171 56.827" stroke="#007A65" stroke-width="1.7" stroke-miterlimit="10" stroke-linecap="round" stroke-linejoin="round"/>
<path d="M33.8614 56.75V51.9266C33.8614 48.6348 27.7359 44.1368 24.5137 44.1368" stroke="#007A65" stroke-width="1.7" stroke-miterlimit="10" stroke-linecap="round" stroke-linejoin="round"/>
<path d="M26.8116 69.1211C28.6387 69.1211 30.1336 67.6263 30.1336 65.7959C30.1336 63.9687 28.6387 62.4739 26.8116 62.4739H21.0781V54.2225" stroke="#007A65" stroke-width="1.7" stroke-miterlimit="10" stroke-linecap="round" stroke-linejoin="round"/>
<path d="M21.4243 23.0467C23.4107 20.8444 26.1446 19.8144 28.6459 19.8144C32.4993 19.8144 36.8975 22.2593 38.2859 27.6607L40.8969 37.8255C41.7639 41.2038 40.2426 44.2334 37.2594 45.0938M19.9461 45.0671C17.0195 44.177 15.5346 41.1741 16.3949 37.8255L19.006 27.6607C19.1123 27.2354 19.2418 26.8335 19.3846 26.4449" stroke="#007A65" stroke-width="1.7" stroke-miterlimit="10" stroke-linecap="round" stroke-linejoin="round"/>
<path d="M65.5712 18.8147V13.7223C65.5712 12.1576 64.2923 10.8786 62.7276 10.8786H31.4891C29.9244 10.8786 28.6455 12.1576 28.6455 13.7223V19.8144M39.0761 30.7335H47.1084V38.3438L54.7187 30.7335H62.7276C64.2923 30.7335 65.5712 29.4545 65.5712 27.89V22.7977" stroke="#007A65" stroke-width="1.7" stroke-miterlimit="10" stroke-linecap="round" stroke-linejoin="round"/>
<path d="M24.4834 62.4739V58.7369C24.4834 57.5777 25.4302 56.6275 26.5928 56.6275H33.1568C34.316 56.6275 35.2628 57.5777 35.2628 58.7369V69.1211" stroke="#007A65" stroke-width="1.7" stroke-miterlimit="10" stroke-linecap="round" stroke-linejoin="round"/>
<path d="M51.7725 46.7417L56.4629 51.4287" stroke="#007A65" stroke-width="1.7" stroke-miterlimit="10" stroke-linecap="round" stroke-linejoin="round"/>
<path d="M24.4834 62.4739V69.1211" stroke="#007A65" stroke-width="1.7" stroke-miterlimit="10" stroke-linecap="round" stroke-linejoin="round"/>
</g>
</svg>
