<svg width="80" height="80" viewBox="0 0 80 80" fill="none" xmlns="http://www.w3.org/2000/svg">
<path d="M29.9336 65.2159L31.663 62.8812C32.1778 62.1862 32.4557 61.3442 32.4557 60.4793V54.623M47.5884 54.6232V60.4794C47.5884 61.3443 47.8663 62.1863 48.3811 62.8814L50.1104 65.2161" stroke="#007A65" stroke-width="1.7" stroke-miterlimit="10" stroke-linecap="round" stroke-linejoin="round"/>
<path d="M39.0756 65.2162H54.7763C55.3331 65.2162 55.785 65.6681 55.785 66.2249V67.9913C55.785 68.5481 55.3331 69 54.7763 69H25.2675C24.7107 69 24.2588 68.5481 24.2588 67.9913V66.2249C24.2588 65.6681 24.7107 65.2162 25.2675 65.2162H34.7063M69.026 12.0001C70.1408 12.0001 71.0438 12.9031 71.0438 14.0179V52.6061C71.0438 53.7209 70.1408 54.6238 69.026 54.6238H11.0177C9.90294 54.6238 9 53.7209 9 52.6061V14.0177C9 12.9029 9.90294 12 11.0177 12L69.026 12.0001Z" stroke="#007A65" stroke-width="1.7" stroke-miterlimit="10" stroke-linecap="round" stroke-linejoin="round"/>
<path d="M22.5748 15.2793H67.0079C67.4261 15.2793 67.7657 15.6176 67.7657 16.0358V50.5881C67.7657 51.0063 67.4261 51.3446 67.0079 51.3446H13.0361C12.6179 51.3446 12.2783 51.0063 12.2783 50.5881V16.0358C12.2783 15.6176 12.6179 15.2793 13.0361 15.2793H18.2056" stroke="#007A65" stroke-width="1.7" stroke-miterlimit="10" stroke-linecap="round" stroke-linejoin="round"/>
<path d="M52.6328 42.139H63.9823V24.4844H52.6328" stroke="#007A65" stroke-width="1.7" stroke-miterlimit="10" stroke-linecap="round" stroke-linejoin="round"/>
<path d="M42.207 44.6619H51.3713C52.0679 44.6619 52.6334 44.0964 52.6334 43.3998V23.2237C52.6334 22.5272 52.0679 21.9629 51.3713 21.9629H27.4114C24.278 21.9629 21.4405 23.2325 19.3869 25.2873C17.3321 27.3408 16.0625 30.1784 16.0625 33.3118C16.0625 39.5798 21.1433 44.6619 27.4114 44.6619H37.8377M56.416 27.6372H60.1992V31.4204H56.416V27.6372ZM56.416 35.2036H60.1992V38.9867H56.416V35.2036Z" stroke="#007A65" stroke-width="1.7" stroke-miterlimit="10" stroke-linecap="round" stroke-linejoin="round"/>
<path d="M23.8808 37.0947C25.9702 37.0947 27.664 35.4009 27.664 33.3115C27.664 31.2221 25.9702 29.5283 23.8808 29.5283C21.7914 29.5283 20.0977 31.2221 20.0977 33.3115C20.0977 35.4009 21.7914 37.0947 23.8808 37.0947Z" stroke="#007A65" stroke-width="1.7" stroke-miterlimit="10" stroke-linecap="round" stroke-linejoin="round"/>
<path d="M32.4551 33.3115H46.3267M45.0656 29.5283H41.9129L38.1299 33.3115M42.5435 37.0947H39.3909L35.6077 33.3115" stroke="#007A65" stroke-width="1.7" stroke-miterlimit="10" stroke-linecap="round" stroke-linejoin="round"/>
</svg>
