<svg width="62" height="54" viewBox="0 0 62 54" fill="none" xmlns="http://www.w3.org/2000/svg">
<path d="M6.49426 36.6129H6.95612L6.97388 36.5151L7.4313 36.5374L7.44018 36.4219L7.62226 36.3642L7.85764 36.4929L7.83987 36.7372L7.92869 36.8127L8.05304 36.7816L8.16406 36.8482L8.17294 36.7727L8.23956 36.9681L8.29729 36.9282V36.7727L8.44384 36.6795L8.51934 36.7194L8.46605 36.8615L8.56375 36.7505L8.87462 36.9148L9.19881 36.7283L9.28763 36.7505V36.9459L10.0071 36.9326L10.2602 36.7949L10.3224 36.8704L10.3268 36.6617L10.2424 36.4841L10.3668 36.1554L10.4156 36.151L10.4645 35.9289L10.3268 35.96L10.4023 35.8934L10.2868 35.7735L10.4956 35.4449L10.7309 35.3694L10.5977 35.2894L10.6199 35.2273L10.5045 35.1917L10.5311 35.0718L10.8597 34.8453L10.8731 34.7343L11.0551 34.6899L11.0907 34.5744L11.215 34.5878L11.175 34.9342L11.3616 35.0141L11.5614 34.9253L11.668 35.0407L11.8323 34.8587L11.8812 34.8809L11.8501 34.9875L11.9344 35.0185L11.9877 34.9564L12.2764 34.9875L12.4007 34.8453H12.494L12.5473 34.912L12.6006 34.8809L12.7693 35.1962L12.6716 35.3116L12.9115 35.5737L12.987 35.5426L13.1291 35.1873L13.2312 35.2228L13.2445 35.3871L13.1735 35.5737L13.2312 35.6403L13.1513 35.7913L13.2268 35.8801L13.1557 35.9867L13.2134 36.0888L13.2934 36.0711L13.3556 35.9023L13.511 36.0089L13.4977 35.9378L13.6753 35.8579L13.662 35.8002L13.7863 35.8046L13.8352 35.9689L13.9062 35.9378L14.0261 36.0222L14.0883 35.96L14.0483 35.9201L14.1372 35.7247L14.4569 35.5914L14.5324 35.9689L14.7545 36.0533L14.9321 35.8357L14.8921 35.7291L14.6878 35.7513L14.6479 35.5426L14.8477 35.3649L14.7278 35.245L14.6612 35.0319L14.9854 35.0363L14.9987 35.0896L15.354 35.0185L15.3362 34.6988L15.4206 34.6588L15.4872 34.4634L15.9091 34.2636L16.0468 34.0504L16.3443 33.9838L16.2955 33.9394L16.3177 33.855L16.4376 33.7129L16.2555 33.5441L16.2466 33.4464L16.3754 33.4109L16.4687 33.14H16.3932L16.4243 32.8514L16.2644 32.7581L16.1978 32.6337L16.3354 32.5138L16.3488 32.3096H16.4598L16.3532 32.0964L16.4243 31.8077L16.4864 31.7855L16.4065 31.6212L16.5353 31.6612L16.6552 31.5812L16.6063 31.5324L16.6508 31.3503L16.7529 31.3281L16.7262 31.1505L16.784 31.0794L16.744 30.8085L16.8284 30.8263L16.8728 30.6664L16.9572 30.6886L16.9971 30.5465L17.1703 30.5287L17.3036 30.5687L17.348 30.662L17.5656 30.6975L17.7299 30.5865L17.9475 30.662L18.0408 30.5021L18.2673 30.4799L18.2406 30.5909L18.3516 30.5509L18.4893 30.622H18.6536V30.7241H18.8801L18.9467 30.7641L18.9112 30.8307L19.0444 30.8796L19.1555 30.8618L19.2931 30.6753L19.2976 30.8263L19.3464 30.8574L19.5463 30.733L19.7017 30.8129L20.5188 30.8174L20.621 31.0083L20.7009 30.9151L20.8341 30.8662L20.883 30.9329L20.9096 30.8884L21.0384 31.3192L21.1539 31.337L21.0651 31.9232L20.8164 31.9321L20.8075 32.1142L20.6565 32.1497L20.581 32.2474L20.6165 32.3628L20.39 32.4206L20.4522 32.6426L20.6787 32.727L20.7586 32.838V32.9668L20.8919 32.9402L20.9985 33.029L21.0118 33.2022L21.1894 33.3221L21.558 33.3177L21.6291 33.6285L21.7978 33.6418L21.8955 33.9882L21.8556 34.0282L21.5625 33.9394L21.4648 34.0815L21.5136 34.1126L21.4648 34.1614L21.4958 34.4634L21.2649 34.4412L21.2072 34.5389L21.0917 34.5611L21.0384 34.6499L21.1717 34.9919L21.3182 35.1518L21.3715 35.3072L21.4692 35.3694L21.034 35.8046L21.0029 35.9334L21.0517 36.1021L21.3804 36.2887L21.3893 36.3952L21.7756 35.8312L21.8511 36.111L22.0332 36.0133L22.2153 35.5204L22.4773 35.7735L22.4462 35.8002L22.6327 35.8312L22.6727 35.7824L22.8148 36L22.9791 36.0444L22.948 35.9511L23.099 35.9556L23.1079 35.8979L23.1923 35.9289L23.2589 36.453L23.4765 36.7372L23.6941 36.7594L23.8851 36.6795L23.9961 36.8438L24.0627 36.8349L24.4269 37.0614L24.7466 36.6217L24.8799 36.977L24.8266 37.2346L24.9864 37.3101L25.0531 37.5987L24.8088 37.6742L24.7733 37.8119L24.8577 37.843L24.8754 38.2205L24.7067 38.2249L24.7155 38.4203L24.7866 38.518L24.8932 38.5091L24.9154 38.78L25.0131 38.7889L25.0175 39.1664L24.9554 39.1709L25.0264 39.233V39.4684L25.4172 39.4862L25.475 39.8414L25.6393 39.8237L25.6659 40.1567L26.039 40.1523L26.0478 40.3433L26.3232 40.4188L26.2255 40.7474L26.2654 41.0982L26.9005 41.0938L26.9094 41.2537L27.1181 41.4224L27.4734 41.4402L27.6155 41.6356L27.7443 41.6267L27.8598 41.7066L27.8642 41.8399L27.9264 41.8576L27.953 41.982L27.9308 42.1063L28.0063 42.1774L27.8109 42.4172L27.9352 42.6037L27.8775 42.6437L27.7487 43.1055L27.8065 43.2166L27.7754 43.5718L27.9219 43.6385L28.0685 43.6118L28.0418 43.6962L28.1218 43.8783H28.3261L28.3305 44.1225L28.2994 44.2247L27.8864 44.4956L27.7487 44.6999L27.882 44.953L27.8908 45.1884L27.8065 45.4193L27.6688 45.5836L27.8375 45.8367L28.0285 46.0055L27.8775 46.3697L27.9797 46.4762L27.9885 46.5739L27.8242 46.7782L27.6866 46.756L27.6111 46.8582L27.58 47.0491L27.6421 47.1912L27.5755 47.3689L27.7798 47.6176L27.7532 47.6797L27.7043 47.7464L27.7265 47.9595L27.8153 47.9551L27.6777 48.146L27.5267 48.0617L27.5844 47.9284L27.5489 47.8751L27.4379 47.9506L27.3712 47.8307L27.2247 47.9062L27.2158 47.9817L27.0115 47.9595L26.8294 47.8618L26.7095 47.9728L26.1322 47.9995L26.1367 47.8174L26.3099 47.511L26.1677 47.3866L25.9235 47.4133L25.8835 46.3697L24.6445 46.4185L24.3736 46.7383L24.1826 46.6184L23.965 46.605L23.7741 46.4407L23.4588 46.5251L23.4232 46.4318L23.2145 46.3297L23.2456 46.1565L23.1967 46.0766L22.9525 45.9877L22.8459 45.8678L22.3929 45.8812L22.2597 45.8279L22.2375 45.9078L22.0376 45.9744L21.9621 46.1254L21.5403 46.1076L21.5225 45.9744L21.3715 45.9344L21.2472 45.7435L21.1006 45.7657L21.0828 45.3793L20.9185 45.4948L20.5588 45.517L20.4655 45.4371L20.0659 45.406L19.8749 45.4992L19.8038 45.4459L19.6839 45.4726L19.6706 45.3438L19.5773 45.3616L19.302 45.0374L19.0444 44.993L19.0178 44.8953L18.8002 44.8286L18.285 45.0018L17.721 44.9086L17.7033 44.7309L17.4368 44.6643L17.3702 44.6865L17.4501 44.9352L17.3258 44.913L17.0238 44.9885L16.4109 44.9308L15.9624 44.7665L15.8647 44.9352L15.7093 44.8553L15.6471 44.9574H15.2652L15.2163 44.8864L14.8255 44.8064L14.3725 44.4956L14.1816 44.5711L13.9684 44.4822L13.6398 44.651H13.3822L12.9337 44.9663L12.8004 44.9841L12.605 45.175H12.4052L12.3297 45.0374L11.8856 45.1706L11.8456 45.0374L11.7746 45.0196L11.3793 45.3038H11.2905L11.1351 45.1795L10.8686 45.215L10.6155 45.1217L10.2646 45.2372L9.70508 45.3171L9.17216 45.3127L8.8835 45.5259L8.91014 45.6325L8.63036 46.0766L8.76359 46.5784L8.48381 46.8892L7.60006 47.3733L7.32916 47.8085L7.00941 47.9951L6.85842 48.1905L6.41876 48.0217L6.17451 48.0927L6.15674 47.9329L6.35659 47.7064L5.85476 47.5687L5.64603 47.6309L5.64159 47.4355L5.57942 47.3644L5.15309 47.5287L4.96657 47.4932L4.88663 47.6131L4.55356 47.7774L4.70011 48.075L4.88663 48.1816L4.86442 48.3148L4.72675 48.4658L4.96212 48.9054L4.89995 48.9676L4.64238 48.9188L4.56244 48.6878L4.29598 48.6212L4.28266 48.5191L4.36704 48.4125L4.29154 48.2882L4.31374 48.1993L4.23825 48.1638L4.15387 47.9773L4.1894 47.8085L4.14499 47.6753L4.19384 47.622L4.14055 47.582L4.16719 47.431L4.23825 47.3822L4.1894 47.1912L4.26489 47.058L4.19384 47.0092L4.23825 46.9736L4.18051 46.8049L4.12278 46.8315L4.07837 46.7649L4.09614 46.645L4.26489 46.4585L4.34039 46.5073L4.42921 46.4807L4.49138 46.3519L4.68679 46.2808L4.67346 46.1698H4.72231L4.74452 46.081L4.63793 45.8145L4.52691 45.7923L4.51359 45.6902L4.58908 45.5392L4.54023 45.3482L4.68679 45.3882L4.63349 45.2639L4.72675 45.1928L4.60241 45.0907L4.57132 44.9619L4.60241 44.9086L4.68234 44.9308L4.69123 44.8331L4.76672 44.8064L4.73564 44.6554H4.6557L4.81113 44.5089L4.91327 44.5178L4.88663 44.3845L5.01986 44.2424L4.8511 43.9893L4.86442 43.7806L4.81113 43.6296L4.74452 43.5985L4.82001 43.5807L4.7534 43.5274L4.80669 43.3809L4.59797 43.2654L4.56244 43.1766L4.62017 43.1278L4.48694 43.0256L4.24713 43.0123L4.1894 43.0922L4.14055 42.9279L3.98511 42.8302L3.97179 42.7281L3.82524 42.6837L3.85632 42.4749L3.93626 42.4883L3.90517 42.4261L3.81191 42.4039L3.70089 42.4749L3.64316 42.3728L3.4522 42.4927L3.3989 42.3994L3.30564 42.4438L3.27012 42.2218L3.15465 42.2706L3.09692 42.1507L2.77717 42.1374L2.71944 42.1108L2.72388 42.0131L2.50627 42.0797L2.15099 41.9687L2.08882 41.8354L2.14211 41.489L2 41.4091L2.37304 40.6897L2.75941 40.1745L2.8127 39.9791L3.43887 39.1042L3.76306 38.7756L4.39368 38.407L4.71787 38.2782L5.15309 38.2027L5.28632 38.2782L6.13898 37.5721L6.21892 37.5677L6.48982 37.2435L6.49426 36.6129Z" fill="#007A65" stroke="white" stroke-width="2.3476"/>
<path d="M33.4064 37.599L33.4863 37.6567L33.6551 37.4924L33.7084 37.5812L33.8638 37.5235L34.1081 37.5812L34.1703 37.4968L34.2902 37.5146L34.45 37.4214L34.7298 37.5279L34.8808 37.4169L35.094 37.5235L35.2805 37.3148L35.2761 37.2348H35.5869L35.578 37.0705L35.4715 37.0927L35.4493 36.9906L35.3693 36.9861L35.4226 36.7241L35.7024 36.8129L35.8312 36.6531L35.9644 36.6753L36.4351 36.0136L36.4041 35.7693L37.1679 35.6672L37.1946 35.7116L37.3322 35.6405L37.2523 35.2941L37.6031 34.739L37.723 34.6724L37.874 34.7657L38.1005 34.779L38.1938 34.9211L38.6334 34.9655L38.78 35.0188L38.7889 35.0854L38.8377 34.9655L38.9443 34.9788L38.9354 35.1076H39.042L39.1086 35.1964L39.3928 35.0676L39.6504 34.7879L39.7126 34.8323L39.9257 34.8145L39.9657 34.8634L40.1611 34.8012L40.3343 34.8234L40.4587 34.9344L40.472 34.8767L40.5208 34.9033L40.5697 34.9966L40.8983 34.89L40.845 34.7745L40.9649 34.6369L40.6407 34.4948L40.5608 34.4326L40.5164 34.2505L40.4365 34.2061L40.6852 33.8952L40.6141 33.7442L40.4365 33.8064L40.3032 33.5399L40.4587 33.4378L40.3787 33.2424L40.4009 33.1713L40.4853 33.1891L40.4897 33.1003L40.5475 33.0959L40.6141 33.2513L40.7829 33.2069L40.8672 33.2735L41.1959 33.1047L41.0937 33.0825L41.0715 32.9759L41.1959 32.856L41.1292 32.8694L41.107 32.7717L41.1914 32.705L41.0227 32.6207L41.3069 32.5185L41.1381 32.0611L41.1959 32.0433L41.1737 31.9368L41.0582 31.7991L41.0538 31.3905L41.3469 31.0974L41.6222 30.9597L41.6888 31.2751L41.862 31.204L41.8087 31.1329L41.8842 31.093L41.9997 31.1774L42.0219 31.2617L41.9375 31.3017L41.9064 31.4216L42.1862 31.4616L42.2795 31.3017L42.2706 31.1951L43.0122 31.3683L43.0877 31.4616L43.0744 31.5415L43.2254 31.6348L43.3986 32.1899L43.4874 32.2654L43.6384 32.1855L43.6828 32.2299L43.7983 32.1632L43.9182 32.1988L44.0825 31.9856L44.0869 32.0878L44.3712 32.0256L44.4733 31.919L44.7442 31.9634L44.762 31.8035L44.944 31.6614L45.2194 31.7458L45.3038 31.6392L45.286 31.5593L45.4325 31.5859L45.508 31.3772L45.7212 31.3994L45.85 31.1996L45.8766 31.0308L45.9743 31.0841L45.8589 31.3017L45.9699 31.3594L45.9211 31.4749L46.4851 31.5859L46.4007 31.7591L46.5561 31.9057L46.8004 31.8746L46.7959 31.7325L47.0002 31.7147L47.0535 31.6437L47.4665 31.7014L47.5731 31.6081L47.5464 31.4971L47.6708 31.4571L47.915 31.4083L47.9506 31.4793L48.4968 31.4349L48.5279 31.4927L48.4568 31.6525L48.2881 31.8124L48.3813 31.959L48.4968 31.879L48.5856 31.9723L48.6567 31.9279L48.7055 31.99L48.6522 32.1766L48.8077 32.2743L48.8166 32.5096L49.0164 32.4697L49.0653 32.634L49.1763 32.6651L49.1896 32.825L49.0608 32.9493L49.1496 33.1092L49.6692 33.0603L49.7714 33.3401L49.8158 33.2824L49.9046 33.3268L49.9357 33.2779V33.349L50.3931 33.3579L50.473 33.5399H50.5929L50.4331 33.5888L50.402 34.0773L50.2643 34.1262L50.0156 34.0684L49.8913 34.2017L50.2865 34.4592L50.362 34.5658L50.5619 34.6369L50.6107 34.8456L50.6951 34.9389L50.6729 35.2053L51.3257 35.8581L51.6499 35.8759L51.6543 36.0491L51.5433 36.1468L51.6144 36.2711L51.792 36.3822L51.8098 36.4799L51.943 36.5198L51.9563 36.844L52.0229 37.0083L51.8675 37.1549L51.792 37.3592L51.4056 37.4968L51.7787 37.9454L51.832 38.0742L51.8053 38.4428L51.8986 38.4694L52.2095 38.767L52.4537 38.7936L52.2361 38.989L52.1651 38.8735L52.0984 38.9002L52.0896 39.0201L51.9963 39.0734L51.9874 39.2377L51.7787 39.2111L51.8675 39.4198L52.0407 39.3399L52.1651 39.4775L52.054 39.7218L51.9119 39.7884L52.0673 39.8372L52.0762 39.9438L52.0052 39.9838L52.0451 40.1215L51.9874 40.197L52.1517 40.1836L52.2095 40.3746L52.1784 41.0319L51.9297 41.0541V41.1074L52.1828 41.4227L52.2139 41.3605L52.3471 41.5426L52.5381 41.5559L52.6935 41.6714L52.6091 41.7602L52.6802 41.9423L52.6758 42.1465L52.5514 42.3464L52.6669 42.4263L52.8179 42.373L53.1065 42.4263L53.1287 42.9326L53.2087 43.0614L52.7557 43.3012L52.7068 43.1902L52.4582 43.1147L52.0629 43.1191L51.5522 43.0081L51.3257 43.0925L51.2102 43.0525L51.1525 42.866L50.8594 42.8571L50.6995 42.9415L50.7484 43.0569L50.3842 43.2124L50.3132 43.39L50.3531 43.4433L50.2199 43.7186L49.9668 43.8163L49.8025 43.7364L49.7181 43.6298L49.727 43.5321L49.4161 43.4611L49.3095 43.2435L49.0475 43.3589L48.861 43.3545L48.3858 43.4788L48.2348 43.4255L48.2392 43.3545L48.1637 43.3678L48.1726 43.5099L48.0616 43.5277L48.1504 43.7497L48.0927 43.7453L48.0572 43.6476L48.0083 43.6698L48.0971 43.803L48.0039 43.8563L48.0749 43.9274L47.9994 43.9185L48.0438 44.0118L47.9461 44.0295L47.9861 44.0917L47.9461 44.1583L48.0483 44.1983L48.0527 44.296L47.9595 44.3182L47.8706 44.1983L47.8129 44.2826L47.915 44.3715L47.7685 44.4026L47.7907 44.5402L47.693 44.5669L47.6397 44.518L47.4976 44.6113L47.4932 44.6779L47.582 44.6823L47.5287 44.749L47.4043 44.669L47.3288 44.7356L47.4177 44.9976L47.2889 45.2153L46.9602 45.1797L46.9069 45.3574L46.7204 45.5172L46.6538 45.8103L46.3962 45.9258L46.5028 46.2011L46.4051 46.3077L46.4229 46.3877L46.2719 46.3832L46.1653 46.4498L46.1875 46.5209L46.3341 46.4809L46.3785 46.5253L46.2586 46.7563L46.2319 46.965L45.8766 47.0405L45.9521 47.3114L45.9166 47.4624L45.7923 47.4491L45.6724 47.3336L45.5924 47.3913L45.699 47.5112L45.5569 47.6844L45.5436 47.791L45.7034 47.8354L45.6946 47.8976L45.8278 47.9864L45.7701 48.0397L45.6102 47.9997L45.5525 48.0708L45.6635 48.1951L45.8189 48.2396L45.6724 48.3106L45.6679 48.3905L45.7789 48.5993L45.9122 48.506L45.9832 48.546L45.9033 48.8879L45.9877 48.9679L46.0276 49.2032L46.2186 49.3098L46.2097 49.372L45.9743 49.4608L46.001 49.6695L46.0543 49.7228L46.1964 49.6829L46.2053 49.785L46.4096 50.1181L46.3074 50.309L46.3874 50.5133L46.2275 50.5799L46.0498 50.7531L46.1609 50.8153L46.1076 50.8819L46.2275 50.8375L46.1387 51.0596L46.0498 51.0551L45.739 51.2461L45.5347 51.0684L45.2105 51.1351L45.2682 50.8242L44.9174 50.7975L44.4555 50.3224L44.6376 50.158L44.5444 49.7628L44.6065 49.7228L44.5044 49.7006L44.2424 49.3498L43.9892 49.1411L43.7272 49.0522L43.554 48.8924L43.4874 49.1055L43.2787 48.9323L43.2387 48.9501L43.2787 49.0878L43.2298 49.1144L42.6214 48.959L42.5948 49.0967L42.4704 49.1766L42.3905 49.1499L42.3283 49.2743L42.1018 49.0967L41.9109 49.1455L41.8398 49.2121L41.8798 49.2654L41.8087 49.5186L41.6 49.4075L41.4401 49.4786L41.3779 49.3853L41.3113 49.4075V49.5541L41.0227 49.4031L40.9161 49.1055L41.0271 49.0567L41.0182 48.8568L40.9738 48.7147H40.8495L40.8095 48.7947L40.5963 48.8924L40.5786 48.9679L40.5031 48.9412L40.4187 49.0034L40.361 48.9501L40.2943 49.0567L40.2144 49.0745L40.21 49.2299L40.0679 49.3454L39.8103 49.1766L39.6771 49.4919L39.6948 49.7139L39.5838 49.9493L39.0509 49.8205L38.8821 49.9094L38.7134 50.1003L38.5268 50.1447L38.5357 49.9094L38.4158 49.4208L38.2027 49.3498V49.221L38.0783 49.0212L38.1538 48.7014L38.1094 48.3506L37.8607 48.2884L37.8296 48.0619L37.6564 47.9198L37.6964 47.8177L37.5765 47.7644L37.652 47.5823L37.5942 47.5246L37.2478 47.5423L36.7815 48.1419L36.6039 48.2795L36.4662 48.2928L36.4263 48.133L36.071 48.1463L35.7468 48.3772L35.5736 48.4127L35.205 49.11L35.2938 49.2254L35.3249 49.4431L35.2761 49.4653L35.2538 49.6829L35.1473 49.7939L35.054 49.6029V49.3098L34.8453 49.5363L34.7343 49.4875L34.49 48.4838L34.5611 48.4127L34.4456 48.4572L34.4278 48.4172L34.5921 48.3372L33.9882 48.3195V48.2218L33.8061 48.1996L33.7617 48.1241L33.4775 48.1019L33.02 48.5016L32.7891 48.6126L32.7358 48.2795L32.3628 47.8132L32.2162 47.8354L32.2784 47.3114L32.2207 47.2537L31.7144 47.5956L31.6922 47.8043L31.5989 47.9598L31.4479 47.9864L31.3058 48.2351L31.1992 48.2795L31.0971 48.2396L30.9061 48.3683L30.3288 48.4394L30.5375 48.093L30.4176 48.0974L30.3421 48.2262L30.2134 48.2573L30.2222 47.9953L30.1556 47.8798L29.827 47.751L29.6627 47.831L29.6094 47.8843L29.7204 47.9687L29.6449 48.3106L29.7781 48.5904L29.6893 48.6614L29.485 48.6925L29.223 49.2388L29.112 49.2121L28.6723 48.8391L28.7478 48.808L28.7612 48.6215L29.0054 48.3861L29.0587 48.1552L29.0276 48.0086L28.8411 48.0042L28.7745 47.9331L28.5658 47.8932L28.4192 47.9953L27.9973 47.6978L27.9218 47.831L27.7975 47.7022L27.8241 47.64L27.6198 47.3913L27.6864 47.2137L27.6243 47.0716L27.6509 46.8806L27.7264 46.7785L27.8641 46.8007L28.0284 46.592L28.024 46.4942L27.9218 46.3877L28.0728 46.0235L27.8818 45.8592L27.7131 45.6061L27.8508 45.4417L27.9351 45.2108L27.9263 44.9754L27.7975 44.7223L27.9351 44.518L28.3481 44.2471L28.3792 44.145L28.3748 43.9052H28.1705L28.0906 43.7231L28.1172 43.6343L27.9707 43.6609L27.8241 43.5943L27.8552 43.239L27.7975 43.128L27.9263 42.6661L27.984 42.6262L27.8596 42.4396L28.055 42.1998L27.9795 42.1288L28.0018 42.0044L27.9751 41.8801L27.9129 41.8623L27.9085 41.7291L27.793 41.6492L27.6642 41.658L27.5221 41.4626L27.1668 41.4449L26.9581 41.2761L26.9492 41.1162L26.3142 41.1251L26.2742 40.7698L26.3719 40.4457L26.3764 40.3879L26.5496 40.3035L26.6206 40.1748L26.8826 39.9616L26.9359 39.8594L26.7849 39.4908L26.9137 39.4775L26.9182 39.3976L26.9803 39.3931L27.1047 39.0867L27.4733 39.1578L27.4955 39.069L27.8241 39.1222L27.944 39.0734L27.9618 38.9579L28.1128 39.1L28.2593 38.949L28.2904 39.0334L28.397 38.9801L28.3881 39.1267L28.5036 39.1311L28.4059 39.5797L28.5658 39.5841L29.0321 39.8728L29.0631 40.0593L29.5428 40.0104L30.0846 40.157L30.2533 40.0593H30.4176L30.4221 39.7928L30.5597 39.7129L30.4887 39.3399L30.6352 39.2599L31.3991 39.1622L31.4701 39.5219L31.8432 39.4509L31.8787 39.633L32.7225 39.4997L33.2643 38.9624L33.2732 37.9632L33.4064 37.599ZM51.6321 39.6107L51.6188 39.5086L51.832 39.5175L51.8942 39.5752L51.8542 39.7218L51.7831 39.6019L51.6321 39.6107Z" fill="#007A65" stroke="white" stroke-width="2.3476"/>
<path d="M19.9551 14.3326L20.0927 14.3592L20.2038 14.4569L20.3103 14.7278L20.2837 14.83L20.4347 14.9188L20.4125 14.9943L20.9187 15.4606L20.8166 15.5228L20.8122 15.6915L20.7233 15.7626L20.8033 16.0601L20.7633 16.1578L20.8788 16.0868L20.9765 16.1268L21.0786 16.0468L21.2785 16.0246L21.4028 16.1356L21.7492 16.713L22.0157 16.824L22.0556 16.9839L21.9846 17.2725L22.1445 17.5745L22.18 17.8276L22.2866 17.8854L22.3265 17.992L22.4376 17.8898L22.5441 17.912L22.5752 17.9786L22.7973 17.9253L22.7129 18.0763L22.7173 18.4183L22.9127 18.4938L22.8861 18.5959L22.6951 18.5915L22.6996 18.9246L22.4065 18.8047L22.4908 18.8979L22.4287 18.969L22.4198 19.1111L22.5175 19.1511L22.4864 19.2621L22.593 19.2443L22.5752 19.4442L22.6552 19.5463L22.5264 19.8305L22.5575 19.8838L22.4553 19.9327L22.6108 20.0215L22.3265 20.3945L22.1178 20.3856L22.0423 20.5677L21.949 20.5766L21.989 20.7587H21.8958L21.6782 21.2561L21.7004 21.447L21.5671 21.4692L21.505 21.5447L21.4339 21.5003L21.4028 21.5758L21.314 21.5803L21.203 21.8423L21.1497 21.8334L21.0164 22.0466L21.052 22.1398L20.9365 22.1576L20.9676 22.2153L20.8388 22.3841L20.7189 22.3441L20.6168 22.3974L20.3725 22.2775L20.3103 22.3263L20.2881 22.2153L20.1682 22.1043L20.0616 22.202L19.9595 22.1221L19.6842 22.3796L19.4665 22.4951L19.3733 22.6505L19.1912 22.6639L19.1068 22.5795L19.1379 22.4773L19.0846 22.4507L19.018 22.5173L18.9869 22.7083L18.7693 23.0014L18.8004 23.1124L19.3067 23.3966L19.3422 23.2945L19.1823 23.1479L19.2623 23.068L19.3688 23.1124L19.511 23.0191L19.6309 23.0236V23.1213L19.5154 23.1746L19.4799 23.4455L19.5776 23.5432L19.5287 23.5965L19.622 23.7785L19.5953 23.9207L19.7152 24.0539L19.7374 24.2138L19.9373 24.2893L20.1505 24.1338L20.2126 24.1605L20.3414 24.0361L20.6434 23.9473L20.6878 24.4225L20.559 24.7689L20.8255 24.7067L21.1053 24.4847L21.3318 25.0042L21.1586 25.2219L20.9942 25.284L20.8566 25.2618L21.0164 25.546L20.6834 25.666L20.5013 25.8569L20.4169 25.7548L20.3414 25.8702L20.1194 25.8836L20.2748 26.2433L20.1016 26.2655L20.1549 26.3898L20.0927 26.412L20.1904 26.5097L20.3059 26.4387L20.4036 26.5541L20.2837 26.6563L20.3903 26.8117L20.3148 26.8872L20.5812 27.3402L20.6034 27.4779L20.9587 27.58L20.8965 27.8553H21.0431L21.1497 27.9486L21.1408 28.0685L21.385 28.2817L21.4517 28.5082L21.6782 28.7169L21.6382 28.7657L21.9935 28.9434L21.9846 29.2143L21.7048 29.423L21.8069 29.5029L21.8558 29.3964H21.918L21.9579 29.5163L22.0468 29.4896L22.069 30.1735L22.2111 30.5066L21.8736 30.5732L21.8158 30.6532L21.4961 30.6132L21.2962 30.7287L21.2252 30.6709L21.0653 30.8619L20.9587 30.8308L20.8965 30.8841L20.8699 30.9285L20.821 30.8619L20.6878 30.9107L20.6079 31.004L20.5057 30.813L19.6886 30.8086L19.5332 30.7287L19.3333 30.853L19.2845 30.8219L19.28 30.6709L19.1424 30.8574L19.0313 30.8752L18.8981 30.8264L18.9336 30.7597L18.867 30.7198H18.6405V30.6132H18.4762L18.3385 30.5421L18.2275 30.5821L18.2542 30.4666L18.0277 30.4888L17.9344 30.6487L17.7168 30.5732L17.5525 30.6842L17.3349 30.6487L17.2905 30.5555L17.1572 30.5155L16.9841 30.5333L16.9441 30.6754L16.8597 30.6532L16.8153 30.813L16.7309 30.7953L16.7709 31.0662L16.7176 31.1372L16.7442 31.3149L16.6421 31.3371L16.5977 31.5191L16.6465 31.568L16.5266 31.6479L16.3978 31.608L16.4778 31.7723L16.4156 31.7945L16.3445 32.0832L16.4511 32.2963H16.3401L16.3268 32.5006L16.1891 32.6205L16.2557 32.7449L16.4156 32.8381L16.3845 33.1268H16.46L16.3668 33.3977L16.238 33.4332L16.2468 33.5309L16.4289 33.6997L16.309 33.8418L16.2868 33.9262L16.3357 33.9706L16.0381 34.0372L15.9005 34.2503L15.483 34.4502L15.4164 34.6456L15.332 34.6856L15.3498 35.0053L14.9945 35.0764L14.9856 35.0231L14.6614 35.0186L14.728 35.2318L14.8479 35.3517L14.6481 35.5293L14.6881 35.7381L14.8924 35.7159L14.9323 35.8224L14.7547 36.0401L14.5326 35.9557L14.4571 35.5782L14.1374 35.7114L14.0486 35.9068L14.0885 35.9468L14.0264 36.009L13.9065 35.9246L13.8354 35.9557L13.7866 35.7914L13.6622 35.7869L13.6755 35.8447L13.4979 35.9246L13.5112 35.9956L13.3558 35.8891L13.2936 36.0578L13.2092 36.0756L13.1515 35.9779L13.2226 35.8713L13.1471 35.7825L13.227 35.6315L13.1693 35.5649L13.2403 35.3783L13.227 35.214L13.1248 35.1785L12.9827 35.5338L12.9072 35.5649L12.6674 35.3029L12.7651 35.1874L12.5964 34.8721L12.5431 34.9032L12.4942 34.8366H12.401L12.2766 34.9787L11.9835 34.9476L11.9302 35.0097L11.8459 34.9787L11.8769 34.8721L11.8281 34.8499L11.6638 35.032L11.5572 34.9165L11.3573 35.0053L11.1708 34.9254L11.2108 34.579L11.0864 34.5656L11.0509 34.6811L10.8688 34.7255L10.8555 34.8366L10.5269 35.063L10.5002 35.1829L10.6157 35.2185L10.5935 35.2806L10.7267 35.3606L10.4914 35.4361L10.2826 35.7647L10.3981 35.8846L10.3226 35.9512L10.4603 35.9201L10.4114 36.1422H10.3626L10.2382 36.4708L10.3226 36.6485L10.3182 36.8572L10.256 36.7817L10.0029 36.9194L9.28341 36.9327V36.7373L9.19459 36.7151L8.8704 36.9016L8.55954 36.7373L8.46184 36.8483L8.51513 36.7062L8.43963 36.6662L8.29752 36.7595V36.9149L8.23979 36.9549L8.17317 36.7595L8.16429 36.835L8.05327 36.7728L7.92892 36.7995L7.8401 36.7284L7.85786 36.4841L7.62249 36.3554L7.4493 36.4264L7.44041 36.5419L6.98299 36.5197L6.96523 36.6174H6.50337V36.3154L6.41899 36.1466L6.37014 35.0941L6.54778 34.8898L6.45896 34.7166L6.42343 34.2415L6.25912 33.9972L6.27688 33.9039L6.18362 33.8773L6.10812 33.6908L6.37902 32.9358L6.2902 32.7582L6.06371 32.5672L6.01042 32.2031L5.78837 32.0743L4.85133 29.3298L4.41168 27.5045L4.38947 27.1093L4.18963 26.8428L4.21183 26.0257L4.04308 25.9102L3.96758 25.4173L3.98978 24.9643H4.06528L4.11413 25.0842L4.38059 25.0931L4.54935 25.2618L4.78028 25.173L5.10891 25.1819L5.15332 25.1286L5.49083 25.2885L5.57965 25.4128L5.53968 25.5194L5.6285 25.5327L5.79282 25.4261L5.68179 25.2441L5.69511 25.1686L5.96157 24.9687L6.16586 25.1019L6.25912 25.0797L6.37458 24.8355L6.6588 25.0042L6.69877 25.2485L6.81424 25.2618L7.46706 25.133L7.547 24.951L7.71575 24.982L7.80013 24.8888L8.07103 24.8177L8.14653 24.9421L8.12432 25.022L8.25311 25.0709L8.37302 24.9909L8.41299 25.1064L8.73718 25.4661L8.83932 25.4928L8.93258 25.3817L8.99475 25.4928L9.36779 25.435L9.34559 25.4839L9.40332 25.515L9.39444 25.4261L9.44773 25.4306L9.45217 25.4928L9.5854 25.4261L9.69198 25.213L9.96288 24.911L10.2649 24.649L10.4469 24.5824L10.5713 24.4047L10.7356 24.4491L10.9044 24.3115L11.0465 24.347L10.9754 24.8799L11.2685 24.8444L11.2508 24.7689L11.455 24.5779L11.6016 24.5246L11.7259 24.5602L11.7926 24.5202L11.797 24.4225L11.8769 24.4402L11.8547 24.2315L12.0368 24.236L12.0679 24.1605L12.019 24.1205L11.8903 24.1693L11.7704 24.0539L11.757 23.7919L11.4728 23.3789L11.4861 23.3256L11.5972 23.3522L11.8192 23.179L11.7437 23.0369L12.0546 23.0236L12.5786 22.7704L12.703 22.8415L12.6808 22.8992L12.7873 23.0635L12.9206 23.1346L13.1204 23.0991L13.2625 23.1479L13.5201 22.7971L14.0264 22.2775L14.0175 22.1087L14.1374 21.8822L14.204 21.8423L14.315 21.9577L14.4127 21.7401L14.6215 21.8556L14.6481 21.7934L14.7325 21.8556L14.8124 21.8023L14.919 21.8334L14.9767 21.7535L15.2521 21.6469L15.332 21.487L15.523 21.4959L15.5096 21.5669H15.5985L15.6873 21.5181L15.6784 21.4515L15.7717 21.447L15.7894 21.3582L15.8871 21.3982L15.9005 21.6291L16.1625 21.7357L16.1225 21.8068L16.2202 21.9133L16.2024 22.0022L16.3223 22.202L16.047 22.1798L16.0559 22.2819L16.1536 22.3397L16.1491 22.5129L15.8694 22.6283L15.8427 22.7349L15.9848 22.9259L16.1003 23.0103L16.1758 22.9703L16.3934 23.0724L16.5355 23.0458L16.5177 23.0991L16.6199 23.2012L16.7531 23.0813H16.8775L16.8863 22.917H16.9885L16.9974 22.8015L17.2017 22.9303L17.2949 22.8815L17.2994 22.7704L17.3615 22.8681L17.5258 22.9126L17.5614 22.8593L17.437 22.8104L17.3926 22.655L17.4459 22.5528L17.4104 22.4551L17.286 22.2775L17.2416 22.2908L17.5303 22.091L17.477 22.1309L17.3615 22.0554L17.2727 21.7668L17.104 21.7135L17.0507 21.7535L16.9885 21.6913L17.0329 21.4914L16.8997 21.2694L16.7576 21.2516L16.6377 21.3582L16.5577 21.296L16.4955 21.3715L16.3268 21.3182L16.3135 21.2472L16.0959 21.3271L16.0825 21.1539L15.9937 21.1406L16.0026 21.0473L16.1181 21.034L16.1669 20.8164L16.3312 20.7054L16.2957 20.5366L16.3357 20.4345L16.4112 20.4878L16.5577 20.2347L16.4955 19.9682L16.5444 19.8838L16.4112 19.8572L16.6066 19.7506L16.8686 19.0844L17.2816 18.7913L17.3438 18.6625L17.2994 18.2229L17.215 18.0852L17.2505 18.0097L17.175 17.5878L17.2283 17.5479L17.1928 17.3702L17.2727 16.895L17.1928 16.3488L17.286 16.1223L17.4326 16.1001L17.4681 15.7759L17.5925 15.7137L17.668 15.5494L17.8856 15.3585L17.9255 15.0432L18.0366 15.0387L18.0854 14.9677L18.2053 15.0165L18.3385 14.9677L18.4407 14.8478L18.6539 14.7501L18.7471 14.8478L19.1335 14.9144L19.0802 14.8478L19.2401 14.79L19.2223 14.639L19.4044 14.6168L19.471 14.4481L19.5687 14.4836L19.7064 14.3948L19.844 14.4259L19.9551 14.3326ZM15.6873 21.709L15.6029 21.6868L15.6562 21.6114L15.7717 21.6069L15.6873 21.709Z" fill="#007A65" stroke="white" stroke-width="2.3476"/>
<path d="M38.9179 22.0329L39.0867 21.993L39.1844 22.0818L39.2643 21.9574L39.3354 21.9841L39.3576 21.8908L39.4464 21.9352L39.5707 21.7443L39.553 21.6066L39.6684 21.5755L39.704 21.389L39.9615 21.4112L39.8949 21.1892L39.966 21.0515L40.2591 20.9405L40.2547 21.0559L40.5078 21.1492L40.6765 21.3268L40.8009 21.2513L41.1428 21.2913L41.4093 21.2291L41.5603 21.087L41.7335 21.2025L41.8401 21.0559L41.8134 21.0071L41.8845 20.9716L41.9511 21.0248L41.849 21.167L42.0088 21.3313L41.9422 21.4201L42.2087 21.5533L42.222 21.4956L42.3463 21.5089L42.4796 21.3979L42.3863 21.691H42.6039L42.675 21.651L42.5373 21.4245L42.5506 21.3046L42.826 21.3934V21.3002L42.9814 21.2469L42.8127 21.167L42.7372 21.0204L42.9326 21.0337L43.048 21.1892L43.199 20.9405L43.048 20.7806L43.0924 20.6474L43.3234 20.603L43.3367 20.674L43.2656 20.7539L43.1901 20.7495L43.199 20.825L43.4433 20.7406L43.5943 20.9494L43.5854 21.1225L43.7186 21.1137L43.803 20.9227L43.7408 20.8339L43.8119 20.7806L44.0073 20.9316L44.0606 20.8827L44.1627 20.9893L44.2382 20.9538L44.3181 20.5363L44.4736 20.6207L44.3803 20.825L44.4247 20.9627L44.1982 21.1625L44.0916 21.4911L44.5269 21.6066L44.7134 21.3091L44.9665 21.3313L44.931 21.1803L44.9843 21.0737L45.0376 21.1625H45.1131L45.1575 21.4556L45.2729 21.5489L45.3174 21.7665L45.4772 21.651L45.5083 21.8331L45.6193 21.8287L45.5661 21.8997L45.7215 21.9352L45.646 21.8331L45.6549 21.7176L45.8814 21.7132L45.6638 21.6377L45.9258 21.429L45.8281 21.3801L45.948 21.1181L46.0279 21.0648L46.0856 21.0959L46.1389 20.9849L46.0546 20.8516L45.9391 20.8428L45.8902 20.7717L46.0057 20.7007L46.1301 20.7184L46.3388 20.5896L46.3965 20.6296L46.623 20.5497L46.5342 20.3143L46.583 20.2255L46.7429 20.1722L46.9205 20.2388L46.9472 20.301H47.1604L47.2003 20.483L47.4268 20.412L47.68 20.4919L47.8309 20.4164L47.8176 20.2432L47.9064 20.1988L47.8976 20.0612L48.0441 19.9457L48.1596 20.1766L48.3106 20.1544L48.3727 20.2388L48.5282 20.2122L48.6303 20.4742L48.839 20.2521L48.879 20.1233L49.0611 20.0922L49.1055 20.0123L49.332 19.9102L49.2387 19.7325L49.3853 19.7103L49.4741 19.8036L49.6739 19.7503L49.8471 19.7947L49.8693 20.1056L49.936 20.1411L49.9626 20.3187L50.0692 20.4475L49.9626 20.6829L50.2513 20.8072L50.3756 21.0826L50.1625 21.2824L50.3667 21.3535L50.3046 21.6732L50.3356 22.0285L50.4556 22.0107L50.6021 22.1084L50.7087 21.9885L50.7531 22.2461L50.9085 22.2283L50.8908 22.326L50.7753 22.2905L50.7265 22.3793L51.0551 22.4104L51.2993 22.6902L51.4148 22.6769L51.4503 22.7391L51.3882 22.8856L51.6013 22.9833H51.7479L51.8056 23.1299L52.1786 23.1698L52.343 23.081L52.3252 23.1521L52.4673 23.3164L52.4718 23.4674L52.7604 23.3652L52.8137 23.4674L52.8892 23.3963L53.058 23.3741L53.0136 23.6361L52.9336 23.7294L53.1335 23.7427L53.3466 23.5695L53.4399 23.685L53.5376 23.6139L53.5953 23.7161L53.6708 23.645L53.7818 23.685L53.693 23.8227L53.7685 23.987L53.7419 24.1557L53.5376 24.4577L53.5998 24.5732L53.733 24.6131L53.7419 24.8663L53.5243 25.0173L53.542 25.1994L53.4887 25.2171L53.3822 25.5324L53.3955 25.6923L53.209 25.7634L53.28 25.8255L53.32 25.7989L53.3244 25.8744L53.2711 25.9588L53.1557 25.9721L53.1024 26.0964L53.1779 26.1275L53.1601 26.1852L52.9647 26.2075L53.0535 26.3185L52.9913 26.5805L53.0402 26.616L53.0846 26.4872L53.1423 26.5361L53.1645 26.4739L53.2445 26.4695L53.2711 26.5361L53.3422 26.5183L53.7952 26.7848L53.8396 26.6782L53.9684 26.6471L54.106 26.7004L54.3325 26.5006L54.6789 26.5538L54.6567 26.4828L54.8876 26.5094L54.9809 26.3984L55.1452 26.3584L55.274 26.5316L55.4161 26.545L55.4428 26.616L55.4961 26.5538H55.6293L55.7403 26.8736L55.9091 26.8869L55.9446 26.8159L56.0823 26.7848L56.1 26.847L56.0112 26.9447L56.3087 26.9313L56.4375 27.0557L56.4953 27.3266L56.5752 27.3754L56.7306 27.2511L56.9216 27.2644L57.117 27.1667L57.1348 27.331L57.3035 27.4021L57.3479 27.4865L57.3613 27.6863L57.0904 27.8684L56.9349 27.8462L56.8506 27.9083L56.8461 28.0105L56.8772 28.197L56.9482 28.237L56.9438 28.0371L57.0548 28.1748L56.9305 28.4901L57.1214 28.801L57.2458 28.872L57.2058 29.0497L57.4279 29.0896L57.6677 29.2628L57.6055 29.3694L57.9741 29.4138L57.9874 29.7602L58.1207 29.7869L58.2361 29.4982L58.2805 29.5915L58.4804 29.7069L58.3205 29.7513L58.2983 29.849L58.7779 29.9423L58.8445 29.8801L58.9644 29.9023L58.8445 30.0711L58.9334 30.3065L58.8001 30.3198L58.7957 30.4397L58.8534 30.5374L58.9511 30.5196L59 30.6307L58.9023 30.5685L58.7868 30.5862L58.809 30.6795L58.7024 30.795L58.8579 31.1725L58.5692 31.2257L58.4671 31.128L58.3472 31.208L58.2628 31.3901L58.0541 31.1369L58.0718 31.3812L57.9519 31.3856L57.8631 31.6166L57.6366 31.51L57.5211 31.5943L57.5078 31.4567L57.2946 31.4966L57.308 31.5544L57.459 31.6032L57.4501 31.692L57.0637 32.4337L56.9705 32.4603L56.8506 32.6513L56.6907 32.6158L56.5264 32.6646L56.4153 32.7845L56.4375 32.9178L56.3709 33.0599L56.1933 33.2242L55.8424 33.2286L55.7758 33.3574L55.8025 33.5128L55.5005 33.4285L55.4161 33.6239L54.9587 33.7393L54.5057 33.6061L54.4968 33.5173L54.3636 33.5839L54.337 33.6594L54.0039 33.6772L53.884 33.6283L53.9284 33.464L53.8618 33.424L53.7108 33.3618L53.622 33.4373L53.3955 33.4018L53.2001 33.1087L53.1468 32.7534L53.0402 32.7179L52.8892 32.5492L52.8004 32.5936L52.192 32.2427L51.9033 32.6024L51.6857 32.6247L51.6457 32.5403L51.4859 32.5358L51.4459 32.4825L50.8552 32.407L50.9352 32.7623L50.8197 32.8245L50.8108 32.971L50.6199 33.1087L50.6332 33.2508L50.7087 33.2553L50.8286 33.4151L50.7753 33.5395L50.611 33.5573H50.4911L50.4111 33.3752L49.9537 33.3663V33.2952L49.9182 33.3441L49.8294 33.2997L49.785 33.3574L49.6828 33.0776L49.1632 33.1265L49.0744 32.9666L49.2032 32.8423L49.1899 32.6824L49.0789 32.6513L49.03 32.4914L48.8302 32.5314L48.8213 32.296L48.6658 32.1983L48.7191 32.0118L48.6703 31.9496L48.5992 31.994L48.5104 31.9008L48.3949 31.9807L48.3017 31.8342L48.4704 31.6743L48.5415 31.5188L48.5104 31.4611L47.9642 31.5055L47.9286 31.4345L47.6844 31.4833L47.56 31.5233L47.5867 31.6343L47.4801 31.7276L47.0671 31.6698L47.0138 31.7409L46.8095 31.7587L46.814 31.9008L46.5697 31.9319L46.4143 31.7853L46.4987 31.6121L45.9347 31.5011L45.9879 31.3856L45.8769 31.3279L45.9924 31.1147L45.8947 31.0614L45.868 31.2302L45.7348 31.43L45.5216 31.4078L45.4461 31.6166L45.2996 31.5943L45.3174 31.6743L45.233 31.7809L44.9576 31.6965L44.7756 31.8386L44.7578 31.9985L44.4869 31.9541L44.3848 32.0606L44.1005 32.1228L44.0916 32.0207L43.9273 32.2338L43.8074 32.1983L43.692 32.2649L43.6476 32.2205L43.4966 32.3005L43.4077 32.225L43.239 31.6698L43.088 31.5766L43.1013 31.4966L43.0258 31.3989L42.2842 31.2257L42.2931 31.3323L42.1998 31.4922L41.92 31.4522L41.9511 31.3323L42.0355 31.2924L42.0133 31.208L41.8978 31.1236L41.8223 31.1636L41.8756 31.2346L41.7024 31.3057L41.6358 30.9904L41.3605 31.128L41.0674 31.4211L41.0718 31.8297L41.1873 31.9674L41.2095 32.074L41.1517 32.0917L41.3205 32.5492L41.0363 32.6513L41.205 32.7357L41.1206 32.8023L41.1428 32.9L41.2095 32.8867L41.0851 33.0066L41.1073 33.1132L41.2095 33.1354L40.8808 33.3086L40.792 33.2419L40.6233 33.2864L40.5566 33.1309L40.4989 33.1354L40.4945 33.2242L40.4101 33.2064L40.3879 33.2775L40.4678 33.4729L40.3168 33.575L40.4501 33.8415L40.6277 33.7793L40.6988 33.9303L40.4501 34.2412L40.53 34.2856L40.5744 34.4677L40.6543 34.5298L40.9785 34.6719L40.8586 34.8096L40.9119 34.9206L40.5833 35.0272L40.5344 34.934L40.4856 34.9073L40.4723 34.965L40.3479 34.854L40.1747 34.8318L39.9793 34.894L39.9393 34.8451L39.7262 34.8629L39.664 34.814L39.4064 35.0938L39.1222 35.2226L39.0556 35.1382H38.949L38.9579 35.0094L38.8513 34.9961L38.8025 35.116L38.7936 35.0494L38.647 34.9961L38.2074 34.9517L38.1141 34.8096L37.8876 34.7963L37.7366 34.703L37.6167 34.7696L37.2659 35.3248L37.3414 35.6712L37.2037 35.7422L37.1771 35.6978L36.4177 35.7999L36.4487 36.0442L35.978 36.7059L35.8448 36.6837L35.716 36.8436L35.4362 36.7547L35.3829 37.0168L35.4629 37.0212L35.4851 37.1233L35.5961 37.0923L35.605 37.2566L35.2941 37.261L35.2985 37.341L35.112 37.5497L34.8988 37.4431L34.7479 37.5541L34.4681 37.4475L34.3082 37.5408L34.1883 37.523L34.1261 37.6074L33.8819 37.5497L33.7264 37.6074L33.6731 37.5186L33.5044 37.6829L33.4244 37.6252L33.4555 37.5985L33.3267 37.4298L33.1047 37.2743L32.8116 37.1944L32.816 37.0256L32.8427 36.8747L33.1447 36.6704L33.3001 36.2929L33.1713 36.0087L33.1003 35.9776L33.1091 35.8621L33.3889 35.7866L33.3667 35.7156L33.4733 35.5735L33.4022 35.3248L33.349 35.3114L33.1846 34.965L33.269 34.7608L33.3223 34.7119L33.4067 34.7696L33.5488 34.6142L33.722 34.7385L33.8597 34.7519L33.9796 34.5121L33.8019 34.3078L33.7886 34.0546L33.7264 33.9969L33.8108 33.8237L33.7176 33.5128L33.8108 33.4107L33.722 33.3663L33.6509 33.1798L33.5577 33.2242L33.6598 33.0554L33.5399 32.8911L33.0603 33.0243L32.9537 33.0021L32.9493 32.94L33.0203 32.9311L32.8471 32.8511L32.8826 32.9977L32.6872 33.0599L32.6473 32.9444L32.6872 32.8778L32.4785 32.9355L32.6162 32.8556L32.6917 32.6469L32.6695 32.5714L32.4608 32.4914L32.3098 32.7357L32.1899 32.5802L32.0788 32.5936L32.0522 32.709L31.9767 32.6957L31.9367 32.5847L31.728 32.6735L31.688 32.4781L31.5859 32.5003L31.2706 32.3138L31.3017 32.1628L31.164 32.0695L31.1063 31.8031L31.2795 31.8652L31.4571 31.7498L31.5059 31.8297L31.7902 31.9274L32.3675 31.9807L32.5673 31.9674V31.812L33.0825 31.7942L33.1891 31.7409L33.1846 31.3368L32.9981 31.1147L32.7317 31.0126L32.7095 30.9016L32.7672 30.6751L32.8871 30.6973L32.8915 30.6129L33.0203 30.5374L33.0248 30.0134L32.8338 29.8357L32.6162 29.7647H32.7006L32.7317 29.6625L32.8338 29.6403L33.0159 29.7469L33.0914 29.6048L33.1891 29.6226L33.4111 29.3383L33.46 29.4094L33.531 29.3517V29.1962L33.5932 29.2229L33.6865 29.4272L33.7486 29.3206L33.9973 29.2984L34.0107 29.1918L33.9085 29.2184L33.8419 29.1163L33.8863 29.2628L33.5488 29.1785L33.7664 28.9742L34.095 28.9919L34.1172 28.7699L34.326 28.7788L34.2638 28.6811L34.3215 28.4324L34.8544 28.761L35.2541 28.7788L35.2319 28.6056L35.4762 28.5168L35.5739 28.7566L35.8137 28.7788L36.0269 29.0586L36.0357 29.2095L36.32 29.2584L36.3244 29.3383L36.3821 29.3561L36.2844 28.9031L36.4088 28.8765L36.2755 28.8276L36.2667 28.7521L36.5509 28.6145L36.582 28.6944L37.0216 28.7388L37.0927 28.61L36.9905 28.5256L37.0039 28.3214L36.9328 28.2681L36.9817 28.157L37.1149 28.2237L37.1859 28.1171L37.1415 27.8861L37.1771 27.6863L37.3192 27.6996L37.3325 27.8328L37.4746 27.7796L37.6167 28.0238L37.7366 27.9927L37.7944 27.8684L38.0253 27.8195L38.083 27.6819L38.3539 27.6019L38.4383 27.4642L38.425 27.2378L38.4783 27.0956H38.6026L38.7536 27.3266L38.8957 27.2866L38.8735 27.0024L38.9535 27.0157L39.0689 26.9269L38.8291 26.8514L38.878 26.6782L39.3753 26.7182L39.4686 26.6649L39.4908 26.5094L39.3176 26.4739L39.2688 26.3762L39.0822 26.4117L39.0245 26.2119L38.7403 26.2874L38.6692 26.2341L38.838 26.163L39.0556 25.8877L38.8469 26.0076L38.7358 25.9277L38.7403 25.8744L38.8735 25.8566L38.9312 25.7678L38.7669 25.7012L38.9224 25.377L38.7714 25.2882L38.7847 25.0128L38.6293 24.884L38.7403 24.7553L38.7092 24.6043L38.5138 24.4133L38.5937 24.2756L38.9046 24.1069L39.1178 24.1113L39.0467 24.0136L39.1799 22.8501L39.0956 22.7613L39.2421 22.6369L39.2732 22.4948L39.2155 22.4682L39.3043 22.4149L39.1977 22.3793L39.2199 22.3127L39.1444 22.3216L39.14 22.2195H38.949L38.9179 22.0329Z" fill="#007A65" stroke="white" stroke-width="2.3476"/>
<path d="M31.488 2.01332L31.5324 2.01776L31.5546 2.31087L31.7945 2.3686L32.0654 2.63506L32.0698 2.91484L32.1941 2.94593L32.2785 2.86155L32.3318 3.05251L32.4917 3.19462L32.6604 3.15021L32.8736 3.18574L32.9313 2.96813L32.847 2.79937L32.8647 2.68391L32.9225 2.6617L33.149 2.79049L33.1267 2.89263L33.4021 2.70167L33.7662 2.70611L33.7796 2.64394L33.8906 2.60841L34.2947 2.77717L34.4324 2.715L34.6633 2.74608L34.6678 2.83046L34.5656 2.95925L34.4679 2.92816L34.4235 3.04807L34.5434 3.21238L34.5479 3.34561L34.7921 3.55434L34.8188 3.85632L35.0186 4.17163L35.0541 4.12722L35.1563 4.17163L35.4094 4.12278L35.6537 4.3093L35.7336 3.96735L36.0622 3.90517L36.1288 3.843L36.2399 3.90073V3.72309L36.604 3.70533L36.6529 3.55878L37.0881 3.47884L37.2346 3.6698L37.3679 3.54102L37.5055 3.55878L37.8697 3.96735L38.0962 3.87409L38.2694 3.94958L38.3849 3.9185L38.6913 4.1361L38.8867 4.10502L39.0821 4.16719L39.2508 4.30486L39.1132 4.37148L39.091 4.45585L39.2952 4.51359L39.4152 4.70011L39.2331 4.80225L39.1265 4.79781L39.1132 4.86442L38.9178 4.89107L39.0998 5.18861H38.9755L38.8867 5.34849L38.9 5.71265L38.7357 5.93914L38.7757 6.17895L38.7002 6.3255L38.7312 6.41876L38.9533 6.45873L39.2642 6.68078L39.3041 6.82289L39.4507 6.93835L39.6505 6.97388L40.0147 6.64525L40.0635 6.38323L40.2545 6.17007L40.3522 6.21004L40.5876 6.04572L40.8096 6.0546L41.0272 5.93025L41.1249 6.06348L41.1116 6.15674L41.1915 6.19671L41.3337 6.15674L41.5646 5.90361L41.5557 5.76594L41.6179 5.79259L41.7778 5.52613L41.72 5.42398L41.8843 5.29964L42.1996 5.41066L42.3418 5.34849V5.22414L42.4883 5.21526L42.7903 5.34405L42.8969 5.4906L42.9679 5.45507L43.1367 5.61939L43.2966 5.61495L43.3587 5.42398L43.5053 5.41954L43.5142 5.25523L43.4609 5.17085L43.5008 5.122L43.5808 5.2952L43.7451 5.24635L43.865 5.27743L43.9538 5.21082L44.1537 5.29076L44.1714 5.23302L44.2247 5.62383L44.5267 5.5883L44.6955 5.84143L44.8909 5.7837L44.9575 5.87252L45.406 5.81923L45.4327 5.92137L45.5925 6.03684L45.4593 6.1523L45.6592 6.48537L45.9745 6.49426L46.2587 6.72519L46.383 7.01829L46.3164 7.14708L46.3342 7.28475L46.5118 7.29807L46.423 7.44906L46.5251 7.45795L46.5074 7.68L46.6006 7.68888L46.6584 7.46683L46.8582 7.4313L47.0225 8.00863L46.987 8.0708L47.0669 8.15962H47.329L47.3245 8.05748L47.44 8.0486L47.4755 7.88872L47.5821 7.84431L47.4977 7.74217L47.6665 7.72441L47.9329 7.91537L48.0484 7.80878L48.0706 8.18627L48.1905 8.65257L47.9551 8.75471L47.9418 8.82576L48.0484 8.89238L48.0395 8.96788L48.1372 8.95899L48.226 9.10999L47.9907 9.31427L47.853 9.33648L47.9374 9.50967L47.893 9.68731L48.075 10.1536L47.9951 10.3845L47.8663 10.4112L47.6931 10.6688L47.5332 10.7531L47.4311 10.8997L47.3822 10.9974L47.4 11.3926L47.7731 11.4859V11.628L47.9063 11.6857L48.004 12.192L48.226 12.2897L48.2882 12.5206L48.3859 12.5384L48.3104 12.7827L48.4525 12.8093L48.4037 13.0314L48.4525 13.1246L48.3681 13.3422L48.457 13.5865L48.4614 13.9773L48.3992 14.0306L48.3593 13.9684L48.0972 13.8973L47.924 14.0794L48.1417 14.2571L48.2616 14.4924L48.0972 14.5413L48.1106 14.71L47.9018 14.7145V14.8344L47.6176 14.8122L47.4045 14.9188L47.4 15.0609L47.4489 15.0698L47.4888 15.2518L47.3645 15.4117L47.4133 15.5272L47.2668 15.5627L46.987 16.2821L47.5244 16.4998L47.7775 16.7751L47.9374 16.8062L48.1905 17.0016L48.3282 17.2458L48.4525 17.1481L48.457 17.4235L48.3904 17.5212L48.4214 17.6722L48.6257 17.6455L49.0165 17.7832L49.1542 17.6633L49.2519 17.7432L49.5494 17.7166L49.6516 17.8765L49.7004 18.1385L49.4784 18.516L49.3096 18.6359L49.243 18.7869L49.2563 18.9867L49.0254 19.1022L49.0521 19.2443L48.9721 19.3509L49.0831 19.5018L49.2563 19.5285L49.4207 19.6839L49.5139 19.7061L49.6516 19.644L49.6649 19.7417L49.4651 19.795L49.3762 19.7017L49.2297 19.7239L49.323 19.9015L49.0965 20.0037L49.0521 20.0836L48.87 20.1147L48.83 20.2435L48.6213 20.4655L48.5191 20.2035L48.3637 20.2302L48.3015 20.1458L48.1505 20.168L48.0351 19.9371L47.8885 20.0525L47.8974 20.1902L47.8086 20.2346L47.8219 20.4078L47.6709 20.4833L47.4178 20.4034L47.1913 20.4744L47.1513 20.2923H46.9382L46.9115 20.2302L46.7339 20.1636L46.574 20.2168L46.5251 20.3057L46.614 20.541L46.3875 20.621L46.3297 20.581L46.121 20.7098L45.9967 20.692L45.8812 20.7631L45.9301 20.8341L46.0455 20.843L46.1299 20.9762L46.0766 21.0873L46.0189 21.0562L45.9389 21.1095L45.819 21.3715L45.9167 21.4203L45.6547 21.6291L45.8723 21.7046L45.6458 21.709L45.637 21.8245L45.7124 21.9266L45.557 21.8911L45.6103 21.82L45.4993 21.8245L45.4682 21.6424L45.3083 21.7579L45.2639 21.5402L45.1484 21.447L45.104 21.1539H45.0285L44.9752 21.0651L44.922 21.1717L44.9575 21.3226L44.7043 21.3004L44.5178 21.598L44.0826 21.4825L44.1892 21.1539L44.4157 20.954L44.3713 20.8164L44.4645 20.6121L44.3091 20.5277L44.2292 20.9452L44.1537 20.9807L44.0515 20.8741L43.9982 20.923L43.8028 20.772L43.7318 20.8253L43.794 20.9141L43.7096 21.105L43.5763 21.1139L43.5852 20.9407L43.4342 20.732L43.19 20.8164L43.1811 20.7409L43.2566 20.7453L43.3276 20.6654L43.3143 20.5943L43.0834 20.6387L43.039 20.772L43.19 20.9318L43.039 21.1805L42.9235 21.0251L42.7281 21.0118L42.8036 21.1583L42.9724 21.2383L42.8169 21.2916V21.3848L42.5416 21.296L42.5283 21.4159L42.6659 21.6424L42.5949 21.6824H42.3773L42.4705 21.3893L42.3373 21.5003L42.213 21.487L42.1996 21.5447L41.9332 21.4115L41.9998 21.3226L41.8399 21.1583L41.9421 21.0162L41.8755 20.9629L41.8044 20.9985L41.831 21.0473L41.7245 21.1939L41.5513 21.0784L41.4003 21.2205L41.1338 21.2827L40.7919 21.2427L40.6675 21.3182L40.4988 21.1406L40.2456 21.0473L40.2501 20.9318L39.957 21.0429L39.8859 21.1805L39.9525 21.4026L39.6949 21.3804L39.6594 21.5669L39.5439 21.598L39.5617 21.7357L39.4374 21.9266L39.3485 21.8822L39.3263 21.9755L39.2553 21.9488L39.1753 22.0732L39.0776 21.9843L38.9089 22.0243L38.7224 22.122L38.5447 22.011L38.6691 21.8378L38.6202 21.7579L38.6513 21.6735L38.7179 21.7889L38.8156 21.669L38.8201 21.3981L38.9133 21.2916L39.0155 21.2738L38.8023 21.2161L38.6824 21.0029L38.7357 20.8741L38.6069 20.8519L38.5891 20.7142L38.9178 20.7187L38.9799 20.6965L39.0377 20.5499L39.1665 20.5854L39.1976 20.541L39.051 20.3501L39.0643 20.1236L39.1531 20.1014L39.0288 19.9149L39.0466 19.8216L38.9888 19.8438L38.9355 19.7772L39.2286 19.3997L39.2375 19.2887L39.1665 19.2043L39.3041 18.9023L39.2819 18.6581L39.4684 18.5071L39.3086 18.1873L39.0821 18.2406L39.0954 18.365L39.0066 18.3916L38.9577 18.5648L38.7446 18.5204L38.8423 18.3738L38.6247 18.6359L38.5758 18.5337L38.4781 18.5204L38.3138 18.6891L38.145 18.6492L38.0607 18.698L38.0296 18.627L37.8875 18.6181L37.8608 18.3294L37.7942 18.2717L37.9097 18.1562L37.772 18.0896L37.8253 17.983L37.581 18.0097L37.51 18.0896L37.2791 18.0585L37.168 17.9697L36.755 18.2051L36.715 18.2717L36.7461 18.4538L36.6529 18.5515L36.5552 18.5204L36.5374 18.436L36.4752 18.4582L36.2798 18.3339L36.0533 18.325L35.9867 18.2362L35.7736 18.3161L35.8668 18.4271L35.8713 18.547L35.8491 18.627L35.7292 18.6803L35.4405 18.7114L35.3561 18.6847L35.3517 18.5959L35.1207 18.5382L35.1563 18.587L34.8632 18.6625L34.6589 18.6137L34.6766 18.5337L34.5967 18.436L34.6722 18.3472V18.1962L34.3924 17.7121L34.2503 17.7388L34.2015 17.6366L34.1126 17.6233L34.0594 17.7388L33.3577 17.7299L33.2955 18.2673L33.1978 18.5781L33.0557 18.8268H32.9358L32.656 18.4227L32.5095 18.3694L32.4606 18.1651L32.3407 18.2317L32.2918 18.0497L32.243 18.0896L32.2963 18.1696L32.2696 18.2761L32.1897 18.1518L32.2075 17.9431L31.9721 17.7876L31.8966 17.6633L31.7811 17.6366L31.4303 17.8054L31.4481 17.7299L31.3681 17.8409L31.4303 17.9875L31.2438 18.0408L31.1683 18.1651L31.1283 18.0763L31.0395 18.0719L30.7197 18.2495L30.6842 18.4982L30.5199 18.5648L30.36 18.2895L30.1025 18.325L29.9026 18.2095L29.9692 18.0541L29.8493 17.9608L29.6317 18.2051L29.574 18.214L29.5518 18.1474L29.3386 18.2806L29.2231 18.2761L29.1743 18.0896L29.0411 18.0008L29.0988 17.7965L28.8545 17.5789L28.8501 16.8906L28.5881 16.7662L28.4593 16.6374L28.3527 16.6863L27.8731 16.6641L27.9886 16.2377L27.8242 16.1756L27.6377 16.2644L27.6066 15.9358L27.4245 15.8469L27.389 15.7448L27.2691 15.7581L27.2291 15.6915L27.1048 15.7714L26.7984 15.5849L26.6651 15.3096L26.5053 15.2652L26.5719 14.901L26.3942 14.8344L26.3809 14.71L26.3365 14.6834L26.301 14.7367L26.2433 14.6479L26.2655 14.4969L26.3232 14.4613L26.2344 14.297L25.9324 14.3548L25.8791 14.2171L25.7681 14.3059L25.697 14.2082L25.5727 14.3859L25.5105 14.2215L25.2751 14.3059L25.1419 14.2526L25.0087 14.3148L25.0531 14.3814L25.1641 14.3637L25.1375 14.4791L24.7866 14.4836L24.7022 14.5813L24.5024 14.6257L24.4624 14.4036L24.2315 14.2304L24.1027 14.0439L24.005 14.1105L23.9384 14.0794L23.783 14.3059L23.7075 14.2215L23.7163 14.1238L23.592 14.1105L23.4987 14.1771L23.481 14.2926L23.5609 14.4169L23.6453 14.4214L23.6542 14.5635L23.6009 14.6123L23.5032 14.5191L23.4232 14.6168L23.2767 14.5457L23.1612 14.5857V14.7056L23.028 14.7145L22.9392 14.6834L22.8681 14.5058L22.7793 14.5413L22.6061 14.3947L22.4995 14.5058L22.2864 14.4658L22.2597 14.5058L22.3929 14.639L22.1265 14.8921L21.7712 14.6656L21.6557 14.7722L21.447 14.6168L21.3271 14.6656L21.2783 14.5457L21.1406 14.4658L20.8031 14.377L20.7231 14.5058L20.7853 14.5546L20.8386 14.5235L20.8253 14.639L20.7365 14.6923L20.6165 14.599L20.4389 14.9054L20.2924 14.8166L20.319 14.7145L20.2124 14.448L20.1014 14.3503L19.9637 14.3237L19.9993 14.1505L20.1636 13.8751L20.1947 13.6042L20.319 13.582L20.3057 13.5243L20.359 13.5021L20.1236 13.1735L20.3234 13.0402L20.5499 13.0003L20.6077 12.9559L20.5544 12.907L20.7054 12.8848L20.6876 12.7871L20.8786 12.7383L21.0873 12.8138L21.1273 12.907L21.2161 12.8315L21.5003 12.947L21.5936 12.867L21.6069 12.7516L21.82 12.6272L21.9755 12.8004L22.2286 12.6938L22.4507 12.7605L22.6416 12.6139L22.766 12.6539L22.7926 12.534L22.8859 12.5695L22.9392 12.4984L22.8415 12.4452L22.7749 12.2275L22.8814 12.1565L22.9436 12.2098L23.0946 12.0499L23.1035 11.7524L23.1879 11.6547L23.3788 11.5969L23.5032 11.4504L23.703 11.3793L23.6853 11.104L23.4499 10.9574L23.0324 10.9441L22.7082 10.762L22.6772 10.8642L22.5928 10.8153L22.5128 10.9485L22.4906 10.8153L22.4063 10.8464L22.4285 10.9086L22.3618 10.9796L22.2375 10.9708L22.2242 10.9041L22.0998 10.9752L21.9888 10.8686L21.447 10.7443L21.3848 10.6776L21.5447 10.5977L21.5758 10.4556L21.7312 10.4512L21.9044 10.2602L22.0421 10.2558L22.011 10.0648L22.0732 10.0115L21.9666 9.70508L22.0643 9.7184L21.9799 9.59849L22.1176 9.39421L22.0554 9.28318L21.9755 9.26542L21.8822 9.00784L21.9844 8.81244L22.2109 8.70586L22.3885 8.41276L22.4418 8.43496L22.5795 8.32394L22.575 8.02195L22.5217 7.94201L22.6239 7.76882L22.5839 7.48459L22.4995 7.47127V7.21369L22.6283 7.01385L22.6017 6.965L23.0236 7.00053L23.1834 7.20037L23.4188 7.24922L23.5209 7.0405L23.9428 6.86286L23.9739 6.64525L24.1071 6.47649L24.2493 6.06792L24.3914 6.08125L24.5468 5.81923L24.7911 5.65047L24.8976 5.70821L24.9865 5.64159L25.2796 5.67712L25.3284 5.49504L25.4483 5.43287L25.5505 5.46395L25.6126 5.40622L25.7192 5.5661L25.9146 5.61939L26.15 5.89917L26.1766 6.00575L26.372 6.10345L26.7673 5.9569L26.8739 5.79703L27.2647 6.01019L27.9486 6.11233L28.3616 6.07681L28.5037 5.44175L28.4149 4.97545L28.5836 4.7534V4.58908L29.081 4.13166L29.2809 4.1139L29.4452 4.02508L29.534 3.843L29.4541 3.74086L29.5207 3.73642L29.6406 3.58987L29.5074 3.4522L29.7738 3.38114L29.8848 3.27456L30.058 3.34561L30.2446 3.06139L30.3423 2.72832L30.4444 2.67503L30.4888 2.564L30.6087 2.50627L30.8885 2.59065L30.9063 2.49295L31.0484 2.3686L31.186 2.40413L31.2083 2.25758L31.4436 2L31.488 2.01332Z" fill="#FBC469" stroke="white" stroke-width="2.3476"/>
<path d="M28.2417 26.6339L28.184 26.6161L28.0996 26.4207L28.1573 26.3407L28.2195 26.363L28.2417 26.6339ZM30.0758 25.8967L30.0181 25.8922L30.0136 25.7501L30.1158 25.8078L30.0758 25.8967ZM30.9063 25.6657L31.035 25.8256L30.924 25.91L30.7197 25.6702L30.9063 25.6657ZM28.1973 24.8797L28.3971 24.9863L28.5215 24.9285L28.4948 25.0351L28.6103 25.1062L28.748 25.0795L28.8368 24.9863L29.0233 25.0173L29.0677 24.9507L29.1432 24.9729L29.081 25.266L28.748 25.4348L28.859 25.8078L28.779 26.0254L29.0411 26.2164L29.081 25.9455L29.4363 25.9633L29.5562 26.0921L29.3786 26.2297L29.3697 26.3674L29.2098 26.4029L28.9922 26.2519L28.9123 26.363L28.9389 26.4873L28.7435 26.5806L28.6991 26.5317L28.748 26.4473L28.6503 26.3807L28.748 26.3141L28.6991 26.2075L28.5703 26.3008L28.4016 26.323L27.5844 26.243L27.5134 26.2919L27.4734 26.2075L27.2958 26.1498L27.2291 25.9411L27.087 25.9899L27.0915 26.0476L26.936 25.9499L27.087 25.8078H27.167V25.4081L27.2824 25.1728L27.4556 24.9996L27.6466 24.933L28.1973 24.8797Z" fill="#007A65" stroke="white" stroke-width="2.3476"/>
<path d="M20.4301 14.9188L20.6078 14.6123L20.7277 14.7056L20.8165 14.6523L20.8298 14.5368L20.7765 14.5679L20.7143 14.5191L20.7943 14.3903L21.1318 14.4791L21.2695 14.559L21.3183 14.679L21.4382 14.6301L21.647 14.7855L21.7624 14.679L22.1177 14.9054L22.3842 14.6523L22.2509 14.5191L22.2776 14.4747L22.4907 14.5191L22.5929 14.4081L22.7661 14.5546L22.8549 14.5191L22.9259 14.6967L23.0148 14.7278L23.148 14.7189V14.599L23.2635 14.559L23.41 14.6301L23.49 14.5324L23.5877 14.6257L23.6409 14.5768L23.6321 14.4347H23.5477L23.4677 14.3104L23.4855 14.1949L23.5788 14.1283L23.7031 14.1416L23.6942 14.2393L23.7697 14.3237L23.9252 14.0972L23.9918 14.1283L24.0895 14.0617L24.2183 14.2482L24.4492 14.4214L24.4892 14.6434L24.689 14.599L24.7734 14.5013L25.1242 14.4969L25.1509 14.3814L25.0398 14.3992L24.9954 14.3326L25.1287 14.2704L25.2619 14.3237L25.4973 14.2393L25.5594 14.4036L25.6838 14.226L25.7548 14.3237L25.8659 14.2349L25.9192 14.3725L26.2211 14.3148L26.31 14.4791L26.2522 14.5146L26.2345 14.6656L26.2922 14.7545L26.3322 14.7012L26.3766 14.7278L26.3899 14.8522L26.5675 14.9188L26.5009 15.2829L26.6608 15.3273L26.794 15.6027L27.1005 15.7892L27.2248 15.7093L27.2648 15.7759L27.3847 15.7626L27.4202 15.8647L27.6023 15.9535L27.6334 16.2821L27.8199 16.1933L27.9842 16.2555L27.8687 16.6818L28.3484 16.704L28.455 16.6552L28.5837 16.784L28.8458 16.9083L28.8502 17.5967L29.0945 17.8143L29.0367 18.0186L29.1699 18.1074L29.2188 18.2939L29.3343 18.2983L29.5474 18.1651L29.5696 18.2317L29.6274 18.2228L29.845 17.9786L29.9649 18.0719L29.8983 18.2317L30.0981 18.3472L30.3557 18.3117L30.5156 18.587L30.6843 18.5204L30.7198 18.2717L31.0396 18.0941L31.1284 18.0985L31.1684 18.1873L31.2439 18.063L31.4304 18.0097L31.3682 17.8587L31.4482 17.7477L31.4304 17.8232L31.7812 17.6544L31.8967 17.681L31.9722 17.8054L32.2076 17.9608L32.1854 18.174L32.2653 18.2983L32.2919 18.1918L32.2387 18.1118L32.2875 18.0719L32.3364 18.2539L32.4563 18.1918L32.5051 18.396L32.6517 18.4493L32.9359 18.8535H33.0558L33.1979 18.6048L33.2956 18.2939L33.3578 17.7565L34.0595 17.7654L34.1127 17.65L34.2016 17.6633L34.2504 17.7654L34.3925 17.7343L34.6723 18.2184V18.3694L34.5968 18.4582L34.6767 18.5559L34.659 18.6359L34.8633 18.6847L35.1564 18.6092L35.1208 18.5604L35.3518 18.6181L35.3562 18.7069L35.4406 18.7336L35.7293 18.7025L35.8492 18.6492L35.8714 18.5692L35.8669 18.4538L35.7737 18.3428L35.9868 18.2628L36.0534 18.3516L36.2755 18.3605L36.4709 18.4849L36.5331 18.4627L36.5508 18.547L36.6485 18.5781L36.7418 18.4804L36.7107 18.2983L36.7507 18.2317L37.1637 17.9964L37.2747 18.0852L37.5056 18.1163L37.5767 18.0363L37.8209 18.0097L37.7677 18.1163L37.9053 18.1829L37.7899 18.2983L37.8565 18.3561L37.8831 18.6447L38.0252 18.6536L38.0563 18.7291L38.1407 18.6803L38.3095 18.7202L38.4738 18.5515L38.5715 18.5648L38.6203 18.6669L38.8379 18.4049L38.7402 18.5515L38.9534 18.5959L39.0022 18.4227L39.0911 18.396L39.0777 18.2673L39.3042 18.214L39.4641 18.5337L39.2776 18.6847L39.2998 18.929L39.1621 19.2265L39.2332 19.3109L39.2243 19.4219L38.9312 19.7994L38.9845 19.866L39.0422 19.8438L39.0245 19.9371L39.1488 20.1236L39.06 20.1458L39.0467 20.3723L39.1932 20.5632L39.1666 20.6076L39.0378 20.5721L38.9845 20.7187L38.9223 20.7409L38.5937 20.7364L38.6114 20.8741L38.7402 20.8963L38.6869 21.0251L38.8068 21.2383L39.02 21.296L38.9179 21.3138L38.8246 21.4203L38.8202 21.6912L38.7225 21.8111L38.6692 21.6824L38.6381 21.7667L38.6869 21.8467L38.5626 22.0199L38.7402 22.1309L38.9267 22.0332L38.9623 22.1753H39.1532L39.1577 22.2774L39.2332 22.2686L39.211 22.3352L39.3176 22.3707L39.2287 22.424L39.282 22.4506L39.2509 22.5928L39.1044 22.7171L39.1888 22.8059L39.0555 23.9695L39.1266 24.0672L38.9134 24.0627L38.6026 24.2315L38.5226 24.3691L38.718 24.5601L38.7491 24.7111L38.6381 24.8399L38.7935 24.9687L38.7802 25.244L38.9312 25.3328L38.7758 25.657L38.9401 25.7236L38.8823 25.8125L38.7491 25.8302L38.7447 25.8835L38.8557 25.9635L39.0644 25.8435L38.8468 26.1189L38.6781 26.1899L38.7491 26.2432L39.0333 26.1677L39.0911 26.3676L39.2776 26.3321L39.3264 26.4298L39.4996 26.4608L39.4774 26.6163L39.3797 26.6696L38.8823 26.6296L38.8335 26.8028L39.0733 26.8783L38.9578 26.9671L38.8779 26.9538L38.9001 27.238L38.758 27.278L38.607 27.047H38.4827L38.4294 27.1892L38.4427 27.4156L38.3583 27.5533L38.0918 27.6333L38.0341 27.7709L37.8032 27.8242L37.7455 27.9486L37.6255 27.9796L37.4834 27.7354L37.3413 27.7887L37.3324 27.6555L37.1903 27.6421L37.1548 27.842L37.1992 28.0729L37.1282 28.1795L36.9949 28.1129L36.9461 28.2239L37.0171 28.2772L37.0038 28.4815L37.106 28.5659L37.0349 28.6946L36.5952 28.6502L36.5642 28.5703L36.2799 28.708L36.2888 28.7835L36.422 28.8323L36.2977 28.859L36.3954 29.3119L36.3377 29.2942L36.3332 29.2142L36.049 29.1654L36.0401 29.0144L35.827 28.7346L35.5871 28.7124L35.4894 28.4726L35.2452 28.5614L35.2674 28.7346L34.8677 28.7169L34.3348 28.3882L34.2726 28.6547L34.3348 28.7524L34.1261 28.7435L34.1039 28.9655L33.7752 28.9478L33.5576 29.1521L33.8951 29.2364L33.8507 29.0899L33.9173 29.192L34.0195 29.1654L34.0062 29.272L33.7619 29.2942L33.6997 29.4008L33.6065 29.1965L33.5443 29.1698V29.3253L33.4732 29.383L33.4244 29.3119L33.2023 29.5962L33.1046 29.5784L33.0291 29.7249L32.8471 29.6184L32.7449 29.6406L32.7138 29.7427H32.6295L32.8471 29.8138L33.038 29.9914L33.0336 30.5154L32.9048 30.5909L32.9004 30.6709L32.7805 30.6487L32.7227 30.8752L32.7449 30.9862L33.0114 31.0883L33.1979 31.3104L33.2023 31.7145L33.0958 31.7678L32.5806 31.7856V31.941L32.3808 31.9543L31.8034 31.901L31.5192 31.8033L31.4748 31.7189L31.2972 31.8344L31.124 31.7722L31.1817 32.0431L31.3194 32.1364L31.2883 32.2874L31.6036 32.4739L31.7057 32.4517L31.7457 32.6471L31.9544 32.5583L31.9944 32.6693L32.0699 32.6826L32.0965 32.5672L32.2076 32.5538L32.3275 32.7093L32.4785 32.465L32.6872 32.545L32.7094 32.6205L32.6339 32.8292L32.4962 32.9091L32.705 32.8514L32.665 32.918L32.705 33.0335L32.9004 32.9713L32.8648 32.8247L33.0425 32.9047L32.9714 32.918L32.9759 32.9802L33.0824 33.0024L33.5621 32.8692L33.682 33.0335L33.5798 33.2022L33.6731 33.1578L33.7441 33.3443L33.833 33.3887L33.7397 33.4909L33.833 33.8018L33.7397 33.9838L33.8019 34.0416L33.8108 34.2947L33.9884 34.499L33.8685 34.7388L33.7308 34.7255L33.5576 34.6011L33.4155 34.7566L33.3311 34.6988L33.2778 34.7477L33.1935 34.952L33.3578 35.2984L33.4111 35.3117L33.4821 35.5559L33.3755 35.698L33.3977 35.7691L33.118 35.8446L33.1091 35.9556L33.1801 35.9867L33.3089 36.2709L33.1535 36.6484L32.8515 36.8527L32.8249 37.0037L32.8204 37.1725L33.1135 37.2524L33.3356 37.4078L33.4644 37.5766L33.4333 37.6032L33.2512 37.9407L33.2423 38.94L32.7005 39.4818L31.8567 39.615L31.8212 39.4329L31.4482 39.504L31.3771 39.1442L30.6133 39.2419L30.4667 39.3219L30.5378 39.6949L30.4001 39.7749L30.3957 40.0413H30.2313L30.0626 40.139L29.5208 39.9925L29.0412 40.0413L29.0101 39.8548L28.5438 39.5661L28.3839 39.5617L28.4816 39.1132L28.3661 39.1087L28.375 38.9622L28.2684 39.0155L28.2373 38.9311L28.0908 39.0821L27.9398 38.94L27.922 39.0554L27.8021 39.1043L27.4735 39.051L27.4513 39.1398L27.0827 39.0687L26.9583 39.3752L26.8962 39.3796L26.8917 39.4595L26.7629 39.4729L26.9139 39.8415L26.8606 39.9436L26.5986 40.1568L26.5276 40.2856L26.3544 40.3699L26.3499 40.4277L26.0746 40.3522L26.0657 40.1612L25.6927 40.1701L25.666 39.837L25.5017 39.8503L25.4395 39.4951L25.0487 39.4773V39.2419L24.9777 39.1798L25.0398 39.1753L25.0354 38.7978L24.9377 38.789L24.9155 38.5181L24.8089 38.5225L24.7379 38.4248L24.729 38.2294H24.8977L24.88 37.8519L24.7956 37.8208L24.8311 37.6832L25.0754 37.6077L25.0088 37.319L24.8489 37.2435L24.9022 36.9859L24.7689 36.6307L24.4492 37.0703L24.085 36.8438L24.014 36.8527L23.903 36.6839L23.712 36.7639L23.4944 36.7417L23.2768 36.4575L23.2102 35.9379L23.1258 35.9068L23.1169 35.9645L22.9659 35.9601L22.997 36.0533L22.8327 36.0089L22.6906 35.7913L22.6506 35.8402L22.4641 35.8091L22.4952 35.7824L22.2332 35.5293L22.0511 36.0222L21.869 36.1199L21.7935 35.8402L21.4071 36.4042L21.3983 36.2976L21.0696 36.1111L21.0208 35.9467L21.0519 35.818L21.4871 35.3827L21.3894 35.3206L21.3361 35.1651L21.1851 35.0053L21.0519 34.6633L21.0829 34.5567L21.1984 34.5345L21.2561 34.4368L21.4871 34.459L21.456 34.157L21.5048 34.1082L21.456 34.0727L21.5537 33.9305L21.8468 34.0194L21.8868 33.9794L21.7891 33.633L21.6203 33.6197L21.5492 33.3088L21.1806 33.3133L21.003 33.1933L20.9897 33.0201L20.8831 32.9313L20.7499 32.958V32.8292L20.6699 32.7182L20.4434 32.6338L20.3813 32.4117L20.6078 32.354L20.5722 32.2385L20.6477 32.1408L20.7987 32.1053L20.8076 31.9232L21.0563 31.9143L21.1451 31.3281L21.0297 31.3104L20.9053 30.8796L20.9675 30.8263L21.0741 30.8574L21.2339 30.6664L21.305 30.7242L21.5048 30.6087L21.8246 30.6487L21.8823 30.5687L22.2198 30.5021L22.0777 30.169L22.0555 29.4851L21.9667 29.5118L21.9267 29.3919H21.8646L21.8157 29.4985L21.6869 29.4052L21.9623 29.192L21.9711 28.9211L21.6159 28.7435L21.6558 28.6946L21.4293 28.4859L21.3627 28.2594L21.1185 28.0463L21.1274 27.9264L21.0208 27.8331H20.8742L20.9364 27.5578L20.5811 27.4556L20.5589 27.3179L20.2925 26.865L20.368 26.7895L20.2614 26.634L20.3813 26.5319L20.2836 26.4164L20.1681 26.4875L20.0704 26.3898L20.1326 26.3676L20.0793 26.2432L20.2525 26.221L20.0971 25.8613L20.3191 25.848L20.3946 25.7325L20.479 25.8347L20.6611 25.6437L20.9941 25.5238L20.8387 25.2396L20.9808 25.2618L21.1451 25.1996L21.3183 24.982L21.0918 24.4624L20.8121 24.6845L20.5456 24.7466L20.6744 24.4002L20.63 23.925L20.328 24.0139L20.1992 24.1382L20.137 24.1116L19.9239 24.267L19.724 24.1915L19.7018 24.0316L19.5819 23.8984L19.6085 23.7563L19.5153 23.5742L19.5641 23.5209L19.4664 23.4232L19.502 23.1523L19.6174 23.099V23.0013H19.4975L19.3554 23.0946L19.2488 23.0502L19.1689 23.1301L19.3288 23.2767L19.2932 23.3788L18.787 23.0946L18.7559 22.9836L18.9735 22.6905L19.0046 22.4995L19.0712 22.4329L19.1245 22.4595L19.0934 22.5617L19.1778 22.646L19.3599 22.6327L19.4531 22.4773L19.6707 22.3618L19.9461 22.1043L20.0482 22.1842L20.1548 22.0909L20.2747 22.202L20.2969 22.313L20.3591 22.2641L20.6033 22.384L20.7055 22.3307L20.8254 22.3707L20.9586 22.202L20.9275 22.1442L21.043 22.1265L21.0075 22.0332L21.1407 21.82L21.194 21.8289L21.305 21.5669L21.3938 21.5625L21.4249 21.487L21.496 21.5314L21.5581 21.4559L21.6914 21.4337L21.6692 21.2427L21.8868 20.7453H21.98L21.9401 20.5632L22.0333 20.5544L22.1088 20.3723L22.3175 20.3812L22.6018 20.0081L22.4463 19.9193L22.5485 19.8704L22.5174 19.8172L22.6462 19.5329L22.5662 19.4308L22.584 19.2309L22.4774 19.2487L22.5085 19.1377L22.4108 19.0977L22.4197 18.9556L22.4819 18.8846L22.3975 18.7913L22.6906 18.9112L22.6861 18.5781L22.8771 18.5826L22.9037 18.4804L22.7083 18.4049L22.7039 18.063L22.7883 17.912L22.5662 17.9653L22.5351 17.8987L22.4286 17.8765L22.3264 17.9964L22.2864 17.8898L22.1799 17.832L22.1443 17.5789L21.9845 17.2769L22.0555 16.9883L22.0156 16.8284L21.7491 16.7174L21.4027 16.14L21.2784 16.0334L21.0785 16.0557L20.9764 16.1356L20.8787 16.0956L20.7632 16.1667L20.8032 16.069L20.7232 15.7714L20.8121 15.7004L20.8165 15.5316L20.9186 15.4694L20.4124 15.0031L20.4301 14.9188ZM28.1974 24.8799L28.3972 24.9864L28.5216 24.9287L28.4949 25.0353L28.6104 25.1063L28.7481 25.0797L28.8369 24.9864L29.0234 25.0175L29.0678 24.9509L29.1433 24.9731L29.0811 25.2662L28.7481 25.435L28.8591 25.808L28.7791 26.0256L29.0412 26.2166L29.0811 25.9457L29.4364 25.9635L29.5563 26.0922L29.3787 26.2299L29.3698 26.3676L29.2099 26.4031L28.9923 26.2521L28.9124 26.3631L28.939 26.4875L28.7436 26.5807L28.6992 26.5319L28.7481 26.4475L28.6504 26.3809L28.7481 26.3143L28.6992 26.2077L28.5704 26.301L28.4017 26.3232L27.5845 26.2432L27.5135 26.2921L27.4735 26.2077L27.2959 26.15L27.2292 25.9412L27.0871 25.9901L27.0916 26.0478L26.9361 25.9501L27.0871 25.808H27.1671V25.4083L27.2825 25.173L27.4557 24.9998L27.6467 24.9331L28.1974 24.8799ZM30.9064 25.6659L31.0352 25.8258L30.9241 25.9102L30.7287 25.6437L30.9064 25.6659ZM30.0759 25.8968L30.0182 25.8924L30.0137 25.7503L30.1159 25.808L30.0759 25.8968ZM28.2151 26.6518L28.0997 26.4209L28.1574 26.3409L28.2196 26.3631L28.264 26.5896L28.2151 26.6518Z" fill="#007A65" stroke="white" stroke-width="2.3476"/>
</svg>
