<svg width="40" height="41" viewBox="0 0 40 41" fill="none" xmlns="http://www.w3.org/2000/svg">
<g clip-path="url(#clip0_1172_2484)">
<path d="M0.913086 39.9492L37.1745 39.9492" stroke="#007B64" stroke-width="0.957478" stroke-linecap="round" stroke-linejoin="round"/>
<path d="M30.8153 1.00391H6.07943C4.31668 1.00391 2.8877 2.43284 2.8877 4.19552V36.9095C2.8877 38.6722 4.31668 40.1011 6.07943 40.1011H30.8153C32.5781 40.1011 34.0071 38.6722 34.0071 36.9095V4.19552C34.0071 2.43284 32.5781 1.00391 30.8153 1.00391Z" fill="white"/>
<circle cx="30.4163" cy="18.4173" r="7.73333" fill="#007A65" stroke="#007A65" stroke-width="1.2"/>
<path d="M5.72559 5.00781L31.1757 5.03175" stroke="#007B64" stroke-width="0.957478" stroke-miterlimit="10" stroke-linecap="round"/>
<path d="M29.5381 2.63477H23.9366C23.7537 2.63477 23.6055 2.78302 23.6055 2.96589V3.0776C23.6055 3.26048 23.7537 3.40873 23.9366 3.40873H29.5381C29.721 3.40873 29.8692 3.26048 29.8692 3.0776V2.96589C29.8692 2.78302 29.721 2.63477 29.5381 2.63477Z" fill="#FFC463"/>
<path d="M8.06761 3.06442C8.06791 2.78349 7.8404 2.55551 7.55946 2.55522C7.27853 2.55493 7.05054 2.78242 7.05025 3.06335C7.04995 3.34428 7.27746 3.57225 7.5584 3.57255C7.83933 3.57284 8.06732 3.34534 8.06761 3.06442Z" fill="#C4C4C4"/>
<path d="M9.59886 3.06637C9.59916 2.78544 9.37165 2.55747 9.09071 2.55717C8.80978 2.55688 8.58179 2.78438 8.5815 3.0653C8.5812 3.34623 8.80871 3.5742 9.08965 3.5745C9.37058 3.57479 9.59857 3.34729 9.59886 3.06637Z" fill="#C4C4C4"/>
<path d="M11.1252 3.06637C11.1255 2.78544 10.898 2.55747 10.6171 2.55717C10.3361 2.55688 10.1082 2.78438 10.1079 3.0653C10.1076 3.34623 10.3351 3.5742 10.616 3.5745C10.897 3.57479 11.1249 3.34729 11.1252 3.06637Z" fill="#C4C4C4"/>
<path d="M34.1001 30.0937V37.211C34.1001 37.9379 33.8113 38.6351 33.2973 39.1491C32.7833 39.6631 32.0861 39.9518 31.3592 39.9518H5.52215C4.79554 39.9508 4.099 39.6617 3.58521 39.1479C3.07142 38.6341 2.78231 37.9376 2.78125 37.211V3.54353C2.78231 2.81695 3.07142 2.12043 3.58521 1.60666C4.099 1.09289 4.79554 0.80379 5.52215 0.802734H31.3592C32.0861 0.802734 32.7833 1.0915 33.2973 1.60549C33.8113 2.11949 34.1001 2.81663 34.1001 3.54353V8.38281" stroke="#007B64" stroke-width="0.957478" stroke-linecap="round" stroke-linejoin="round"/>
<path d="M7.55762 26.4141H18.4414" stroke="#007B64" stroke-width="0.957478" stroke-linecap="round" stroke-linejoin="round"/>
<path d="M7.55762 24.1797H18.4414" stroke="#007B64" stroke-width="0.957478" stroke-linecap="round" stroke-linejoin="round"/>
<path d="M7.55762 21.9434H18.4414" stroke="#007B64" stroke-width="0.957478" stroke-linecap="round" stroke-linejoin="round"/>
<path d="M7.55762 33.2891H18.4414" stroke="#007B64" stroke-width="0.957478" stroke-linecap="round" stroke-linejoin="round"/>
<path d="M7.55762 31.0508H18.4414" stroke="#007B64" stroke-width="0.957478" stroke-linecap="round" stroke-linejoin="round"/>
<path d="M7.55762 28.8184H18.4414" stroke="#007B64" stroke-width="0.957478" stroke-linecap="round" stroke-linejoin="round"/>
<path d="M7.55762 15.8848H15.3973" stroke="#FFC463" stroke-width="0.957478" stroke-linecap="round" stroke-linejoin="round"/>
<path d="M7.55762 13.6602H15.3973" stroke="#FFC463" stroke-width="0.957478" stroke-linecap="round" stroke-linejoin="round"/>
<path d="M7.55762 11.4414H15.3973" stroke="#FFC463" stroke-width="0.957478" stroke-linecap="round" stroke-linejoin="round"/>
<path d="M34.1453 15.9648L29.7771 21.6315L27.2871 19.1094" stroke="white" stroke-width="1.2" stroke-linecap="round" stroke-linejoin="round"/>
</g>
<defs>
<clipPath id="clip0_1172_2484">
<rect width="40" height="40" fill="white" transform="translate(0 0.5)"/>
</clipPath>
</defs>
</svg>
