<svg width="40" height="41" viewBox="0 0 40 41" fill="none" xmlns="http://www.w3.org/2000/svg">
<g clip-path="url(#clip0_1182_888)">
<path d="M32.5445 4.83789H16.3903C15.2536 4.83789 14.332 5.75942 14.332 6.89619V32.856C14.332 33.9928 15.2536 34.9143 16.3903 34.9143H32.5445C33.6812 34.9143 34.6027 33.9928 34.6027 32.856V6.89619C34.6027 5.75942 33.6812 4.83789 32.5445 4.83789Z" fill="white"/>
<path d="M30.5762 4.84007C30.5762 4.84007 30.9712 9.78235 32.6345 11.0189C33.8196 11.9118 34.5071 15.2856 34.6098 15.6254C34.7125 15.9651 34.349 5.8949 34.349 5.8949L33.6656 5.16797L31.066 4.64648L30.5762 4.84007Z" fill="#EBEBEB"/>
<path d="M34.6027 26.8154V32.8521C34.6027 33.399 34.3855 33.9235 33.9987 34.3103C33.612 34.697 33.0874 34.9143 32.5405 34.9143H16.3903C15.8441 34.9133 15.3205 34.6955 14.9346 34.3089C14.5488 33.9223 14.332 33.3983 14.332 32.8521V6.89619C14.332 6.35029 14.5489 5.82676 14.9349 5.44075C15.3209 5.05475 15.8444 4.83789 16.3903 4.83789H32.5405C33.0868 4.83789 33.6107 5.05462 33.9973 5.44051C34.384 5.8264 34.6017 6.34993 34.6027 6.89619V24.2317" stroke="#007B64" stroke-width="0.948156" stroke-linecap="round" stroke-linejoin="round"/>
<path d="M5.51465 22.2574V2.98212C5.51465 2.43623 5.7315 1.9127 6.11751 1.52669C6.50351 1.14068 7.02704 0.923828 7.57293 0.923828H28.9972C29.5435 0.923827 30.0674 1.14056 30.454 1.52645C30.8407 1.91234 31.0584 2.43587 31.0595 2.98212V36.7682C31.0595 37.3152 30.8422 37.8397 30.4554 38.2264C30.0687 38.6132 29.5442 38.8305 28.9972 38.8305H7.57293C7.02668 38.8294 6.50315 38.6117 6.11727 38.2251C5.73138 37.8384 5.51465 37.3145 5.51465 36.7682V28.3928" fill="white"/>
<path d="M5.51465 24.2328V2.98212C5.51465 2.43623 5.7315 1.9127 6.11751 1.52669C6.50351 1.14068 7.02704 0.923828 7.57293 0.923828H28.9972C29.5435 0.923827 30.0674 1.14056 30.454 1.52645C30.8407 1.91234 31.0584 2.43587 31.0595 2.98212V24.1774" stroke="#007B64" stroke-width="0.990823" stroke-linecap="round" stroke-linejoin="round"/>
<path d="M31.0595 27.082V36.7691C31.0595 37.316 30.8422 37.8405 30.4554 38.2273C30.0687 38.614 29.5442 38.8313 28.9972 38.8313H7.57293C7.02668 38.8303 6.50315 38.6125 6.11727 38.2259C5.73138 37.8393 5.51465 37.3153 5.51465 36.7691V28.0776" stroke="#007B64" stroke-width="0.990823" stroke-linecap="round" stroke-linejoin="round"/>
<path d="M26.9341 4.01562H9.63428C9.17826 4.01562 8.80859 4.3853 8.80859 4.84131V8.54704C8.80859 9.00305 9.17826 9.37273 9.63428 9.37273H26.9341C27.3901 9.37273 27.7598 9.00305 27.7598 8.54704V4.84131C27.7598 4.3853 27.3901 4.01562 26.9341 4.01562Z" fill="#FFC463"/>
<path d="M9.26367 11.9473H26.5674" stroke="#007B64" stroke-width="0.948156" stroke-linecap="round" stroke-linejoin="round"/>
<path d="M9.26367 14.6777H26.7926" stroke="#007B64" stroke-width="0.948156" stroke-linecap="round" stroke-linejoin="round"/>
<path d="M9.26367 17.4102H26.7926" stroke="#007B64" stroke-width="0.948156" stroke-linecap="round" stroke-linejoin="round"/>
<path d="M0.374023 39.2578L39.5903 39.2578" stroke="#007B64" stroke-width="0.948156" stroke-linecap="round" stroke-linejoin="round"/>
<path d="M25.1048 28.3384H14.3432L13.9482 27.9433L11.7793 26.209H3.08789V39.2462H36.7829L37.0633 26.209H27.5818L25.1048 28.3384Z" fill="white"/>
<path d="M21.0078 39.2438C21.0078 39.2438 24.4172 35.7711 28.6957 36.2492C32.9743 36.7272 36.6642 35.9924 36.9921 33.1953V39.2438H21.0078Z" fill="#EBEBEB"/>
<path d="M3.58234 26.1836H6.411H12.1039L14.3439 28.3367H25.1014L27.5074 26.1836H36.9731V39.2563H2.68555V26.1836H3.94975" stroke="#007B64" stroke-width="0.948156" stroke-linecap="round" stroke-linejoin="round"/>
<path d="M33.8599 31.3655C33.9528 31.5265 34.0018 31.709 34.0021 31.8949V35.1819C34.0021 35.4679 33.8885 35.7422 33.6862 35.9445C33.484 36.1468 33.2097 36.2604 32.9236 36.2604H6.90079C6.61475 36.2604 6.34042 36.1468 6.13816 35.9445C5.9359 35.7422 5.82227 35.4679 5.82227 35.1819V31.8949C5.82226 31.7535 5.85019 31.6134 5.90444 31.4828C5.95869 31.3521 6.0382 31.2335 6.1384 31.1337C6.2386 31.0338 6.35753 30.9548 6.48835 30.901C6.61918 30.8472 6.75934 30.8198 6.90079 30.8203H31.533" stroke="#007B64" stroke-width="0.948156" stroke-linecap="round" stroke-linejoin="round"/>
</g>
<defs>
<clipPath id="clip0_1182_888">
<rect width="40" height="40" fill="white" transform="translate(0 0.5)"/>
</clipPath>
</defs>
</svg>
