<svg width="40" height="41" viewBox="0 0 40 41" fill="none" xmlns="http://www.w3.org/2000/svg">
<g clip-path="url(#clip0_1172_2483)">
<path d="M0.31543 39.3027L39.2249 39.3027" stroke="#007B64" stroke-width="0.940434" stroke-linecap="round" stroke-linejoin="round"/>
<path d="M30.6889 1.04492H6.39452C4.66324 1.04492 3.25977 2.44842 3.25977 4.17972V36.3114C3.25977 38.0427 4.66324 39.4462 6.39452 39.4462H30.6889C32.4202 39.4462 33.8237 38.0427 33.8237 36.3114V4.17972C33.8237 2.44842 32.4202 1.04492 30.6889 1.04492Z" fill="white"/>
<circle cx="30.4163" cy="18.4154" r="7.73333" fill="#007A65" stroke="#007A65" stroke-width="1.2"/>
<path d="M29.1992 14.8318C29.2026 14.6846 29.2362 14.5397 29.298 14.4061C29.3598 14.2725 29.4485 14.1531 29.5584 14.0552C29.6684 13.9574 29.7973 13.8832 29.9371 13.8373C30.0691 13.794 30.2081 13.7768 30.3465 13.7865C30.363 13.7877 30.3796 13.7875 30.3962 13.7859C30.5324 13.773 30.67 13.7869 30.8011 13.8269C30.9401 13.8693 31.0688 13.9402 31.179 14.0349C31.2892 14.1297 31.3785 14.2464 31.4412 14.3775C31.504 14.5086 31.5388 14.6513 31.5435 14.7966C31.5458 14.9505 31.5178 15.1034 31.461 15.2465C31.4042 15.3896 31.3198 15.5201 31.2126 15.6306C31.1054 15.7411 30.9775 15.8293 30.8361 15.8904C30.6948 15.9514 30.5429 15.984 30.3889 15.9863C30.0781 15.991 29.7781 15.872 29.555 15.6554C29.3318 15.4389 29.2039 15.1426 29.1992 14.8318ZM29.4278 17.2477C29.4278 16.9881 29.6383 16.7775 29.898 16.7775H30.8271C31.0868 16.7775 31.2973 16.9881 31.2973 17.2477V22.7541C31.2973 23.0138 31.0868 23.2243 30.8271 23.2243H29.898C29.6383 23.2243 29.4278 23.0138 29.4278 22.7541V17.2477Z" fill="white"/>
<path d="M6.0498 4.97656L31.0456 5.00007" stroke="#007B64" stroke-width="0.940434" stroke-miterlimit="10" stroke-linecap="round"/>
<path d="M29.4351 2.64844H23.9336C23.754 2.64844 23.6084 2.79405 23.6084 2.97367V3.08339C23.6084 3.26301 23.754 3.40863 23.9336 3.40863H29.4351C29.6148 3.40863 29.7604 3.26301 29.7604 3.08339V2.97367C29.7604 2.79405 29.6148 2.64844 29.4351 2.64844Z" fill="#FFC463"/>
<path d="M8.34927 3.07292C8.34956 2.79699 8.12611 2.57308 7.85019 2.57279C7.57427 2.5725 7.35035 2.79595 7.35006 3.07187C7.34977 3.3478 7.57322 3.57172 7.84914 3.57201C8.12506 3.57229 8.34898 3.34885 8.34927 3.07292Z" fill="#C4C4C4"/>
<path d="M9.85122 3.07487C9.85151 2.79895 9.62806 2.57503 9.35214 2.57474C9.07622 2.57445 8.8523 2.7979 8.85202 3.07383C8.85173 3.34975 9.07517 3.57367 9.35109 3.57396C9.62702 3.57425 9.85093 3.3508 9.85122 3.07487Z" fill="#C4C4C4"/>
<path d="M11.3512 3.07487C11.3515 2.79895 11.1281 2.57503 10.8521 2.57474C10.5762 2.57445 10.3523 2.7979 10.352 3.07383C10.3517 3.34975 10.5752 3.57367 10.8511 3.57396C11.127 3.57425 11.3509 3.3508 11.3512 3.07487Z" fill="#C4C4C4"/>
<path d="M33.918 29.6192V36.6098C33.918 37.3238 33.6344 38.0085 33.1296 38.5134C32.6247 39.0182 31.94 39.3018 31.226 39.3018H5.85018C5.13654 39.3008 4.45243 39.0169 3.94781 38.5122C3.44319 38.0076 3.15924 37.3235 3.1582 36.6098V3.54162C3.15924 2.82797 3.44319 2.14385 3.94781 1.63923C4.45243 1.1346 5.13654 0.850646 5.85018 0.849609H31.226C31.94 0.849609 32.6247 1.13323 33.1296 1.63808C33.6344 2.14293 33.918 2.82765 33.918 3.54162V8.29476" stroke="#007B64" stroke-width="0.940434" stroke-linecap="round" stroke-linejoin="round"/>
<path d="M7.84766 26.0059H18.5372" stroke="#007B64" stroke-width="0.940434" stroke-linecap="round" stroke-linejoin="round"/>
<path d="M7.84766 23.8086H18.5372" stroke="#007B64" stroke-width="0.940434" stroke-linecap="round" stroke-linejoin="round"/>
<path d="M7.84766 21.6133H18.5372" stroke="#007B64" stroke-width="0.940434" stroke-linecap="round" stroke-linejoin="round"/>
<path d="M7.84766 32.7578H18.5372" stroke="#007B64" stroke-width="0.940434" stroke-linecap="round" stroke-linejoin="round"/>
<path d="M7.84766 30.5625H18.5372" stroke="#007B64" stroke-width="0.940434" stroke-linecap="round" stroke-linejoin="round"/>
<path d="M7.84766 28.3652H18.5372" stroke="#007B64" stroke-width="0.940434" stroke-linecap="round" stroke-linejoin="round"/>
<path d="M7.84766 15.6621H15.5474" stroke="#FFC463" stroke-width="0.940434" stroke-linecap="round" stroke-linejoin="round"/>
<path d="M7.84766 13.4805H15.5474" stroke="#FFC463" stroke-width="0.940434" stroke-linecap="round" stroke-linejoin="round"/>
<path d="M7.84766 11.2969H15.5474" stroke="#FFC463" stroke-width="0.940434" stroke-linecap="round" stroke-linejoin="round"/>
</g>
<defs>
<clipPath id="clip0_1172_2483">
<rect width="40" height="40" fill="white" transform="translate(0 0.5)"/>
</clipPath>
</defs>
</svg>
