<svg width="56" height="56" viewBox="0 0 56 56" fill="none" xmlns="http://www.w3.org/2000/svg">
<path d="M51.7665 12.0142H38.107V8.0607C38.107 7.2522 37.7232 6.47684 37.0802 5.98641C36.9213 5.86522 36.0512 5.22964 34.5277 4.61736C33.8834 4.35847 33.2011 4.13677 32.4994 3.95859C32.3942 3.93034 32.2845 3.92326 32.1766 3.93777C32.0686 3.95228 31.9647 3.98809 31.8707 4.04312C31.7768 4.09814 31.6947 4.17129 31.6292 4.25831C31.5637 4.34533 31.5162 4.44449 31.4894 4.55003C31.4626 4.65557 31.4571 4.76538 31.473 4.87309C31.489 4.9808 31.5263 5.08426 31.5826 5.17746C31.6389 5.27066 31.7132 5.35174 31.8011 5.41599C31.889 5.48025 31.9888 5.52639 32.0947 5.55175C32.7258 5.71209 33.3382 5.91094 33.9148 6.14259C35.293 6.69647 36.052 7.26948 36.0836 7.29355C36.2013 7.38385 36.2968 7.49995 36.3626 7.63293C36.4284 7.76591 36.4629 7.91221 36.4633 8.06059V12.0142H34.5343V9.07242C34.5343 8.92092 34.4924 8.77236 34.4133 8.64316C34.3342 8.51396 34.2209 8.40913 34.086 8.34027C33.0897 7.832 30.9745 6.9792 27.9998 6.9792C25.0251 6.9792 22.9099 7.83189 21.9136 8.34027C21.7787 8.40912 21.6654 8.51394 21.5862 8.64315C21.5071 8.77236 21.4653 8.92092 21.4653 9.07242V12.0143H19.5361V8.0607C19.5365 7.91231 19.571 7.76598 19.6368 7.633C19.7027 7.50002 19.7982 7.38392 19.916 7.29366C19.9476 7.26948 20.7061 6.69669 22.0847 6.14259C23.8633 5.42783 25.9088 5.05005 27.9998 5.05005C28.349 5.05005 28.703 5.06077 29.0518 5.08209C29.2671 5.09154 29.4776 5.01598 29.6378 4.87171C29.7981 4.72745 29.8952 4.52601 29.9083 4.31081C29.9214 4.09561 29.8494 3.88388 29.7079 3.72122C29.5664 3.55857 29.3667 3.45803 29.1517 3.44125C28.7698 3.41806 28.3822 3.40625 27.9998 3.40625C25.7007 3.40625 23.4433 3.82505 21.4716 4.61736C19.9477 5.22986 19.078 5.86533 18.919 5.98652C18.2761 6.47673 17.8923 7.25209 17.8923 8.06059V12.0142H4.23347C1.89908 12.0142 0 13.9133 0 16.2475V27.751C0 28.9618 0.510453 30.0983 1.40634 30.9014V48.3596C1.40634 50.6939 3.30542 52.593 5.6397 52.593H38.1145C38.2224 52.593 38.3293 52.5717 38.429 52.5304C38.5287 52.4891 38.6193 52.4285 38.6957 52.3522C38.772 52.2759 38.8325 52.1853 38.8738 52.0855C38.9151 51.9858 38.9364 51.8789 38.9364 51.771C38.9364 51.6631 38.9151 51.5562 38.8738 51.4565C38.8325 51.3567 38.772 51.2661 38.6957 51.1898C38.6193 51.1135 38.5287 51.0529 38.429 51.0116C38.3293 50.9703 38.2224 50.949 38.1145 50.949H5.63981C4.21192 50.949 3.05025 49.7874 3.05025 48.3595V32.1235C4.24145 32.912 5.86294 33.8156 7.98777 34.6691C8.1896 34.7482 8.41451 34.7444 8.61354 34.6585C8.81256 34.5725 8.96957 34.4114 9.05039 34.2103C9.1312 34.0091 9.12928 33.7842 9.04504 33.5844C8.9608 33.3847 8.80105 33.2263 8.60059 33.1438C5.59027 31.9346 3.67544 30.6364 2.59919 29.76C2.3002 29.5177 2.05923 29.2114 1.89394 28.8638C1.72864 28.5162 1.64321 28.1361 1.64391 27.7512V16.2475C1.64391 14.8196 2.80558 13.658 4.23347 13.658H51.7666C53.1945 13.658 54.3562 14.8196 54.3562 16.2475V27.751C54.3569 28.1359 54.2715 28.5161 54.1062 28.8637C53.9409 29.2113 53.6999 29.5175 53.4009 29.7599C52.1719 30.7605 49.9617 32.2254 46.4119 33.5221C42.3311 35.0127 37.4911 35.9139 32.0171 36.2063V34.3295C32.0171 33.2492 31.1383 32.3704 30.0581 32.3704H25.9412C24.8609 32.3704 23.9821 33.2492 23.9821 34.3295V36.2075C19.5566 35.9707 15.5246 35.3315 11.9862 34.3048C11.7768 34.2441 11.5519 34.269 11.3609 34.374C11.17 34.4791 11.0285 34.6558 10.9678 34.8651C10.9071 35.0745 10.932 35.2994 11.037 35.4904C11.1421 35.6814 11.3188 35.8228 11.5281 35.8835C15.2102 36.9519 19.3969 37.6133 23.9821 37.853V38.2396C23.9821 40.4548 25.7844 42.257 27.9997 42.257C30.2148 42.257 32.0171 40.4548 32.0171 38.2396V37.8534C43.1316 37.2744 49.5645 34.3779 52.9497 32.1268V48.3596C52.9497 49.7875 51.7881 50.9492 50.3602 50.9492H41.4022C41.2942 50.9492 41.1873 50.9704 41.0876 51.0117C40.9879 51.053 40.8973 51.1136 40.8209 51.1899C40.7446 51.2662 40.6841 51.3568 40.6428 51.4566C40.6015 51.5563 40.5802 51.6632 40.5802 51.7711C40.5802 51.879 40.6015 51.9859 40.6428 52.0857C40.6841 52.1854 40.7446 52.276 40.8209 52.3523C40.8973 52.4286 40.9879 52.4892 41.0876 52.5305C41.1873 52.5718 41.2942 52.5931 41.4022 52.5931H50.3602C52.6945 52.5931 54.5935 50.694 54.5935 48.3597V30.9014C55.4895 30.0983 55.9999 28.9618 55.9999 27.7512V16.2475C56 13.9133 54.1009 12.0142 51.7665 12.0142ZM23.1091 9.59195C24.0892 9.16003 25.7588 8.623 27.9997 8.623C30.2405 8.623 31.9102 9.16003 32.8903 9.59195V12.0142H23.109V9.59195H23.1091ZM30.3733 38.2397C30.3733 39.5486 29.3086 40.6133 27.9997 40.6133C26.6908 40.6133 25.6259 39.5486 25.6259 38.2397V34.3295C25.626 34.2459 25.6593 34.1658 25.7184 34.1067C25.7775 34.0476 25.8576 34.0143 25.9412 34.0142H30.0581C30.1417 34.0143 30.2218 34.0476 30.2809 34.1067C30.34 34.1658 30.3732 34.2459 30.3733 34.3295V38.2397Z" fill="#007A65"/>
</svg>
