<svg width="36" height="36" fill="none" xmlns="http://www.w3.org/2000/svg"><path d="M32.238 25.37h-10.87A4.05 4.05 0 0018 27.171a4.049 4.049 0 00-3.369-1.8H3.761a2.95 2.95 0 00-2.948 2.942v5.204a1.664 1.664 0 001.663 1.67h31.048a1.664 1.664 0 001.663-1.663v-5.211a2.95 2.95 0 00-2.949-2.943zm-10.87 1.375h10.87a1.581 1.581 0 011.575 1.568v.412h-10.67a.687.687 0 100 1.375h10.67v1.018H18.687v-1.692a2.688 2.688 0 012.682-2.68zm-17.606 0h10.87a2.688 2.688 0 012.68 2.681v1.699H2.188v-1.018h10.67a.687.687 0 100-1.375H2.188v-.42a1.575 1.575 0 011.574-1.567zm-1.574 6.779v-1.025h15.125v1.314H2.476a.289.289 0 01-.288-.29zm31.625 0a.29.29 0 01-.29.289H18.688v-1.314h15.125v1.025zm-23.802-20.22a.688.688 0 00-.832.42 7.178 7.178 0 001.018 6.648A9.053 9.053 0 0018 24.325c4.063 0 8.539-2.063 9.102-6.07.86-6.037-2.193-7.446-2.323-7.501a.688.688 0 00-.88.948 2.56 2.56 0 01.172 1.884 1.49 1.49 0 01-.468.578c-.048-1.733-1.375-3.7-3.781-5.68-1.863-1.519-.103-4.09 0-4.2a.688.688 0 00-.729-1.058c-2.832.687-7.879 3.499-6.724 9.033.413 2.008.145 3.005-.247 3.273a.907.907 0 01-.928-.138 1.375 1.375 0 01-.688-1.285.687.687 0 00-.495-.805zm10.189 8.71c-.151.503-.688.805-1.574.902h-.867c-.687 0-1.519-.152-1.835-.633-.537-.811.261-2.695.845-4.07.214-.495.406-.949.557-1.375 1.698 1.478 3.245 3.912 2.874 5.177zm-7.356-5.341c.687-.488 1.444-1.691.818-4.696-.818-3.966 2.227-5.995 4.187-6.875a3.85 3.85 0 001.086 4.442c2.537 2.062 3.706 4.125 3.121 5.5a.688.688 0 00.811.935 3.437 3.437 0 002.441-1.85c.067-.15.118-.306.151-.467a8.87 8.87 0 01.262 4.393c-.241 1.712-1.623 3.437-4.194 4.297.646-2.33-2.063-5.83-4.235-7.233a.688.688 0 00-1.059.516 9.147 9.147 0 01-.729 2.062c-.639 1.506-1.375 3.177-1.072 4.517a7.706 7.706 0 01-3.1-2.626 6.526 6.526 0 01-1.183-3.224l.234.171a2.193 2.193 0 002.46.138zM2.229 5.027c-.853.433-1.417.687-1.417 1.34 0 .654.564.908 1.417 1.32a6.38 6.38 0 012.798 2.805c.433.846.687 1.375 1.34 1.375.654 0 .908-.563 1.334-1.375a6.36 6.36 0 012.805-2.805c.846-.426 1.375-.687 1.375-1.333 0-.647-.563-.908-1.375-1.34a6.345 6.345 0 01-2.819-2.785C7.276 1.376 7 .812 6.367.812c-.632 0-.907.564-1.34 1.417a6.366 6.366 0 01-2.798 2.798zm4.029-2.152c0-.062.068-.138.11-.213l.103.213a7.728 7.728 0 003.437 3.438l.213.11-.213.103a7.783 7.783 0 00-3.437 3.437c0 .062-.07.13-.104.213-.04-.082-.082-.151-.11-.213A7.803 7.803 0 002.82 6.526l-.22-.103.22-.11a7.748 7.748 0 003.438-3.438zM34.04 8.45a4.537 4.537 0 01-2.001-2c-.323-.64-.578-1.148-1.148-1.148-.571 0-.825.509-1.148 1.148a4.538 4.538 0 01-2.001 2c-.64.324-1.148.578-1.148 1.149 0 .57.508.832 1.148 1.155a4.524 4.524 0 012 1.993c.324.647.578 1.149 1.149 1.149.57 0 .825-.502 1.148-1.149a4.523 4.523 0 012-1.993c.64-.317 1.148-.578 1.148-1.155 0-.578-.508-.825-1.148-1.148zm-3.15 3.534A5.974 5.974 0 0028.513 9.6a5.953 5.953 0 002.379-2.38 5.933 5.933 0 002.385 2.38 5.947 5.947 0 00-2.385 2.385z" fill="#FBC469"/></svg>