<svg width="27" height="27" fill="none" xmlns="http://www.w3.org/2000/svg"><path d="M1.794 23.625h14.412c.989 0 1.794-.805 1.794-1.796V6.188a.568.568 0 00-.165-.398L12.21.165A.568.568 0 0011.813 0H1.793C.805 0 0 .805 0 1.794v20.037c0 .989.805 1.794 1.794 1.794zM12.375 1.92l3.705 3.705h-3.705V1.92zm-11.25-.126c0-.369.3-.669.67-.669h9.455v5.063c0 .31.252.562.563.562h5.062v15.08c0 .369-.3.67-.67.67H1.796a.671.671 0 01-.67-.67V1.793z" fill="#007A65"/><path d="M5.484 10.555h7.032a.563.563 0 000-1.125H5.484a.563.563 0 000 1.125zm0 3.805h7.032a.563.563 0 000-1.126H5.484a.563.563 0 000 1.125zm0 3.803h7.032a.563.563 0 000-1.125H5.484a.563.563 0 000 1.125z" fill="#007A65"/><path d="M25.482 3.375h-5.236a.563.563 0 000 1.125h5.236c.216 0 .393.176.393.393v20.59a.393.393 0 01-.393.392H10.518a.393.393 0 01-.393-.393.563.563 0 00-1.125 0C9 26.32 9.68 27 10.518 27h14.964A1.52 1.52 0 0027 25.482V4.892a1.52 1.52 0 00-1.518-1.517z" fill="#007A65"/></svg>