<svg width="244" height="266" fill="none" xmlns="http://www.w3.org/2000/svg"><path d="M222.626 1.448H101.007c-10.645 0-19.275 8.63-19.275 19.275v224.292c0 10.645 8.63 19.275 19.275 19.275h121.619c10.646 0 19.275-8.63 19.275-19.275V20.723c0-10.645-8.629-19.275-19.275-19.275z" fill="#fff"/><path d="M242.75 34.851h-34.361v196.83h34.361V34.851z" fill="#EBEBEB"/><path d="M81.54 48.376V22.941a21.493 21.493 0 0121.493-21.493h118.334a21.465 21.465 0 0121.493 21.493v220.321a21.479 21.479 0 01-6.287 15.206 21.455 21.455 0 01-15.206 6.287H103.033a21.49 21.49 0 01-21.492-21.493V149.57" stroke="#007B64" stroke-width="2" stroke-miterlimit="10" stroke-linecap="round"/><path d="M115.984 34.851H242.75m-161.21 0H99.2" stroke="#007B64" stroke-width="2" stroke-linecap="round" stroke-linejoin="round"/><path d="M81.54 231.681h161.21" stroke="#007B64" stroke-width="2" stroke-miterlimit="10"/><path d="M146.019 17.41h32.253" stroke="#007B64" stroke-width="2" stroke-linecap="round" stroke-linejoin="round"/><path d="M162.145 255.172a6.708 6.708 0 100-13.415 6.708 6.708 0 000 13.415z" fill="#007B64"/><path d="M123.951 183.986h-16.126a5.367 5.367 0 00-5.367 5.366v16.127a5.366 5.366 0 005.367 5.366h16.126a5.366 5.366 0 005.367-5.366v-16.127a5.367 5.367 0 00-5.367-5.366zm46.271 0h-16.126a5.366 5.366 0 00-5.366 5.366v16.127a5.365 5.365 0 005.366 5.366h16.126a5.366 5.366 0 005.367-5.366v-16.127a5.367 5.367 0 00-5.367-5.366zm46.244 0H200.34a5.367 5.367 0 00-5.367 5.366v16.127a5.366 5.366 0 005.367 5.366h16.126a5.365 5.365 0 005.366-5.366v-16.127a5.366 5.366 0 00-5.366-5.366z" fill="#FFB02A"/><path d="M82.253 63.517H13.147c-6.623 0-11.992 5.37-11.992 11.992v46.928c0 6.623 5.37 11.993 11.992 11.993h69.106c6.623 0 11.992-5.37 11.992-11.993V75.509c0-6.623-5.37-11.992-11.992-11.992z" fill="#fff" stroke="#007B64" stroke-width="2" stroke-miterlimit="10"/><path d="M18.787 84.517h57.825M18.787 98.973h57.825M18.787 113.43h57.825" stroke="#FFB02A" stroke-width="2" stroke-linecap="round" stroke-linejoin="round"/></svg>