<svg width="41" height="40" fill="none" xmlns="http://www.w3.org/2000/svg"><path d="M3.182 35h13.287a.834.834 0 000-1.667H3.182a.582.582 0 01-.582-.581V2.248c0-.321.262-.581.582-.581h22.17c.32 0 .582.26.582.581v6.737a.834.834 0 001.666 0V2.248A2.25 2.25 0 0025.352 0H3.182A2.25 2.25 0 00.934 2.248v30.505A2.25 2.25 0 003.182 35z" fill="#FEFEFE"/><path d="M40.691 18.578l-6.665-6.665a.84.84 0 00-.59-.245H21.563a2.295 2.295 0 00-2.293 2.293v23.747A2.295 2.295 0 0021.563 40h17.08a2.295 2.295 0 002.293-2.293v-18.54a.842.842 0 00-.245-.59zm-6.422-4.066l3.822 3.822H34.27v-3.822zm5 23.196c0 .345-.28.626-.626.626h-17.08a.627.627 0 01-.627-.627V13.962c0-.345.28-.627.627-.627h11.04v5.834c0 .46.373.833.833.833h5.834v17.707z" fill="#FEFEFE"/><path d="M25.098 23.675c0 .46.373.833.833.833h8.333a.834.834 0 000-1.667h-8.333a.834.834 0 00-.833.834zm9.166 3.678h-8.333a.834.834 0 000 1.666h8.333a.834.834 0 000-1.666zm0 4.507h-8.333a.834.834 0 000 1.666h8.333a.834.834 0 000-1.667z" fill="#FEFEFE"/></svg>