<svg width="56" height="50" viewBox="0 0 56 50" fill="none" xmlns="http://www.w3.org/2000/svg">
<path d="M34.4585 36.5547H31.3887C31.1711 36.5547 30.9625 36.6411 30.8086 36.795C30.6548 36.9488 30.5684 37.1574 30.5684 37.375C30.5684 37.5926 30.6548 37.8012 30.8086 37.955C30.9625 38.1089 31.1711 38.1953 31.3887 38.1953H34.4585C34.6761 38.1953 34.8847 38.1089 35.0385 37.955C35.1924 37.8012 35.2788 37.5926 35.2788 37.375C35.2788 37.1574 35.1924 36.9488 35.0385 36.795C34.8847 36.6411 34.6761 36.5547 34.4585 36.5547Z" fill="#007A65"/>
<path d="M52.5273 27.7743L48.0603 26.0513L45.7827 23.7738C45.6419 23.6328 45.4544 23.5483 45.2556 23.536V21.7237C46.359 20.5481 47.1035 19.0817 47.4014 17.4971C47.5928 17.5058 47.7861 17.4904 47.9767 17.4514C49.0682 17.228 49.8604 16.2153 49.8604 15.0436V14.4455C49.8609 14.1214 49.7973 13.8004 49.6734 13.501C49.5494 13.2015 49.3674 12.9296 49.1379 12.7007C49.8623 8.761 49.2657 5.55039 47.4048 3.40149C45.6048 1.32303 42.7048 0.329575 39.0187 0.528967C35.6132 0.713045 33.4148 2.27996 32.7183 2.85319C32.337 2.89848 31.6875 3.03235 31.0302 3.42676C30.1191 3.97342 29.0331 5.12175 29.0331 7.48787C29.0331 9.552 29.363 11.2753 29.6018 12.253C28.8012 12.6431 28.2656 13.4883 28.2656 14.4546V15.0435C28.2656 16.2152 29.0578 17.2279 30.1493 17.4513C30.3399 17.4904 30.5333 17.5057 30.7246 17.497C31.0225 19.0816 31.767 20.548 32.8704 21.7236V23.5359C32.6716 23.5481 32.4841 23.6327 32.3432 23.7737L30.0657 26.0512L25.5987 27.7742C25.2123 27.9231 24.8443 28.1158 24.5017 28.3484C24.3239 28.4715 24.2019 28.6599 24.1623 28.8725C24.1227 29.0852 24.1687 29.3048 24.2902 29.4837C24.4118 29.6626 24.599 29.7863 24.8113 29.8278C25.0235 29.8693 25.2436 29.8253 25.4236 29.7054C25.6627 29.5432 25.9195 29.4087 26.1891 29.3048L30.3348 27.7057L33.5045 32.4604C33.6973 32.7507 33.9524 32.9945 34.2513 33.1739C34.5501 33.3533 34.8851 33.4639 35.2321 33.4977C35.7144 33.5458 36.1998 33.4431 36.6212 33.2037L35.941 48.633C35.9362 48.7438 35.9538 48.8543 35.9928 48.958C36.0318 49.0618 36.0915 49.1565 36.1681 49.2365C36.2448 49.3166 36.3368 49.3802 36.4388 49.4237C36.5407 49.4672 36.6504 49.4896 36.7612 49.4895C36.9724 49.4893 37.1754 49.4077 37.328 49.2616C37.4805 49.1155 37.5708 48.9162 37.5801 48.7052L38.2114 34.3835H39.9144L40.5457 48.7052C40.5505 48.8129 40.5764 48.9185 40.6219 49.0161C40.6675 49.1137 40.7318 49.2014 40.8113 49.2742C40.8907 49.3469 40.9838 49.4033 41.085 49.4401C41.1862 49.4769 41.2938 49.4934 41.4014 49.4887C41.509 49.484 41.6146 49.4581 41.7123 49.4125C41.8099 49.3669 41.8976 49.3026 41.9703 49.2231C42.0431 49.1437 42.0995 49.0507 42.1363 48.9494C42.1731 48.8482 42.1896 48.7407 42.1848 48.633L41.5046 33.2037C41.9261 33.4431 42.4115 33.5459 42.8938 33.4977C43.2407 33.4639 43.5758 33.3533 43.8746 33.1739C44.1734 32.9944 44.4285 32.7507 44.6214 32.4604L47.7911 27.7057L51.9368 29.3048C52.5042 29.5237 53.0104 29.8765 53.4122 30.3331L50.576 33.1693C49.5513 34.1941 48.987 35.5564 48.987 37.0055V48.6693C48.987 48.8868 49.0734 49.0955 49.2273 49.2493C49.3811 49.4031 49.5898 49.4896 49.8073 49.4896C50.0249 49.4896 50.2335 49.4031 50.3874 49.2493C50.5412 49.0955 50.6276 48.8868 50.6276 48.6693V37.0055C50.6276 35.9947 51.0213 35.0442 51.736 34.3295L54.2252 31.8403C54.3273 32.2135 54.3714 32.6002 54.3561 32.9868L53.7208 48.636C53.7163 48.7465 53.7342 48.8567 53.7734 48.9601C53.8126 49.0635 53.8723 49.1579 53.9489 49.2377C54.0255 49.3174 54.1175 49.3808 54.2192 49.4241C54.321 49.4674 54.4304 49.4897 54.541 49.4897C54.7527 49.4895 54.9561 49.4075 55.1087 49.2609C55.2613 49.1142 55.3514 48.9142 55.36 48.7027L55.9956 33.0531C56.0886 30.7317 54.6949 28.6103 52.5273 27.7743ZM32.3304 17.1588C32.1857 16.3712 31.4564 15.7988 30.6692 15.8571C30.6053 15.8614 30.5411 15.857 30.4784 15.844C30.1522 15.7773 29.9062 15.4331 29.9062 15.0436V14.4545C29.9062 14.074 30.1605 13.7312 30.4851 13.6743C30.7589 13.6261 31.0212 13.7266 31.1871 13.9431C31.3377 14.1394 31.5387 14.2799 31.768 14.349C32.104 14.4505 32.4745 14.3909 32.7593 14.1898C33.2745 13.8255 33.7286 13.3816 34.1045 12.8747C34.2328 12.7 34.2867 12.4817 34.2545 12.2674C34.2223 12.0531 34.1067 11.8602 33.9328 11.7309C33.7588 11.6016 33.5408 11.5464 33.3264 11.5773C33.1119 11.6082 32.9183 11.7227 32.788 11.8958C32.6006 12.1483 32.3864 12.3797 32.1492 12.5861C31.8906 12.3651 31.5871 12.2031 31.2597 12.1111C31.0489 11.3037 30.6737 9.57388 30.6737 7.48765C30.6737 6.23126 31.061 5.34849 31.8248 4.86395C32.4208 4.48584 33.0515 4.47075 33.0511 4.47064C33.2617 4.46982 33.4641 4.38878 33.6171 4.24401C33.6371 4.2252 35.6537 2.35379 39.1071 2.16708C42.2683 1.99646 44.7087 2.79446 46.1644 4.47534C47.6315 6.16957 48.1201 8.77063 47.5901 12.0262C47.3703 12.0184 47.1298 12.035 46.8904 12.075L46.1197 10.2241C46.0435 10.0415 45.9039 9.89256 45.7266 9.80467C45.5494 9.71679 45.3463 9.69589 45.1548 9.74582C45.0786 9.76572 37.5031 11.6861 34.3268 7.73156C34.2597 7.64638 34.1764 7.57533 34.0818 7.52252C33.9871 7.46971 33.8829 7.43619 33.7752 7.4239C33.6675 7.41161 33.5584 7.42079 33.4543 7.45091C33.3501 7.48103 33.253 7.53149 33.1685 7.59938C33.0839 7.66727 33.0137 7.75123 32.9619 7.84643C32.91 7.94162 32.8775 8.04615 32.8663 8.15397C32.855 8.26179 32.8653 8.37077 32.8964 8.47461C32.9276 8.57845 32.979 8.67508 33.0477 8.75892C36.2914 12.7973 42.7274 11.9188 44.8699 11.4904L45.4659 12.9215C45.7222 13.5368 46.3777 13.8728 47.0239 13.7204C47.2892 13.658 47.5426 13.6565 47.6378 13.6753C47.9695 13.7414 48.2196 14.0723 48.2196 14.4452V15.0435C48.2196 15.4331 47.9736 15.7772 47.6475 15.8439C47.5848 15.857 47.5205 15.8614 47.4566 15.857C46.6696 15.7996 45.9402 16.371 45.7954 17.1588C45.1987 20.4077 42.3673 22.7659 39.0629 22.7659C35.7586 22.7659 32.9272 20.4077 32.3304 17.1588ZM35.9695 31.6594C35.7614 31.8674 35.5196 31.8776 35.3938 31.8651C35.2682 31.8528 35.0329 31.7952 34.8697 31.5505L31.6765 26.7607L32.9607 25.4765L37.8629 29.766L35.9695 31.6594ZM38.2837 32.743L38.3334 31.6155L39.0628 30.8861L39.7922 31.6155L39.8419 32.743H38.2837ZM39.0629 28.6359L34.5111 24.653V23.0831C35.8345 23.9247 37.4003 24.4065 39.0629 24.4065C40.7255 24.4065 42.2915 23.9247 43.6149 23.0831V24.653L39.0629 28.6359ZM43.2564 31.5505C43.0931 31.7954 42.8578 31.8528 42.7323 31.8651C42.6064 31.8776 42.3645 31.8674 42.1565 31.6593L40.2631 29.7659L45.1653 25.4764L46.4495 26.7606L43.2564 31.5505Z" fill="#007A65"/>
<path d="M26.0144 32.0736L22.0088 30.3252L19.8192 28.1356C19.6784 27.9946 19.4909 27.9101 19.292 27.8979V26.6073C21.1633 25.3776 22.5327 23.4219 22.9727 21.0914C23.1904 21.1009 23.4082 21.0801 23.6201 21.0297C24.6698 20.7813 25.4316 19.7754 25.4316 18.6379V18.0399C25.4316 17.2088 25.0193 16.4612 24.3804 16.0226C24.5685 15.2797 24.6638 14.5164 24.6641 13.75C24.6641 10.3515 22.8271 7.35814 20.058 5.63941C20.0285 2.80298 17.6074 0.503906 14.6343 0.503906C11.6611 0.503906 9.24011 2.80298 9.21058 5.63941C6.44163 7.35814 4.60456 10.3516 4.60456 13.75C4.60456 14.5144 4.69972 15.2737 4.88653 16.0161C4.248 16.4525 3.83707 17.2036 3.83707 18.0488V18.6379C3.83707 19.7754 4.59887 20.7813 5.64855 21.0297C5.86292 21.0805 6.08036 21.1011 6.29594 21.0914C6.73596 23.4219 8.10545 25.3776 9.97675 26.6073V27.8979C9.77788 27.9101 9.59034 27.9946 9.44956 28.1356L7.25998 30.3252L3.25454 32.0736C1.21655 32.9633 -0.089396 35.0536 0.00477627 37.2754L0.4892 48.7044C0.501423 48.9196 0.597843 49.1213 0.757617 49.266C0.917391 49.4107 1.12768 49.4866 1.34304 49.4775C1.55839 49.4684 1.7615 49.3749 1.90846 49.2172C2.05542 49.0595 2.13443 48.8504 2.12841 48.6349L1.64388 37.2058C1.6127 36.4694 1.80411 35.7548 2.16396 35.1398L4.31701 37.7235C4.9981 38.5419 5.37134 39.5728 5.37205 40.6376V48.6697C5.37205 48.8872 5.45847 49.0959 5.61231 49.2497C5.76615 49.4036 5.9748 49.49 6.19236 49.49C6.40992 49.49 6.61857 49.4036 6.77241 49.2497C6.92625 49.0959 7.01268 48.8872 7.01268 48.6697V40.6376C7.01166 39.1891 6.50388 37.7866 5.57734 36.6733L3.28845 33.9265C3.48425 33.7904 3.6927 33.6734 3.9109 33.5772L7.40173 32.0534L9.86858 36.0575C10.0106 36.2885 10.2096 36.4792 10.4464 36.6114C10.6832 36.7436 10.9499 36.8128 11.2211 36.8125C11.5962 36.8125 11.9615 36.6796 12.2511 36.4324L13.8143 35.0986V48.6696C13.8143 48.8871 13.9007 49.0958 14.0546 49.2496C14.2084 49.4035 14.4171 49.4899 14.6346 49.4899C14.8522 49.4899 15.0608 49.4035 15.2147 49.2496C15.3685 49.0958 15.4549 48.8871 15.4549 48.6696V35.0988L17.018 36.4326C17.1922 36.5815 17.3967 36.6909 17.6172 36.7531C17.8377 36.8154 18.0692 36.8291 18.2955 36.7934C18.5219 36.7579 18.738 36.6737 18.9287 36.5467C19.1195 36.4197 19.2805 36.2529 19.4005 36.0577L21.8674 32.0535L25.3582 33.5773C25.5764 33.6735 25.7849 33.7905 25.9807 33.9266L23.6918 36.6734C22.7652 37.7867 22.2574 39.1892 22.2564 40.6377V48.6698C22.2564 48.8873 22.3429 49.096 22.4967 49.2498C22.6505 49.4037 22.8592 49.4901 23.0768 49.4901C23.2943 49.4901 23.503 49.4037 23.6568 49.2498C23.8106 49.096 23.8971 48.8873 23.8971 48.6698V40.6377C23.8978 39.573 24.2711 38.542 24.9521 37.7236L27.1052 35.1399C27.465 35.755 27.6564 36.4695 27.6252 37.2059L27.1408 48.635C27.1363 48.7426 27.1529 48.8501 27.1899 48.9513C27.2269 49.0525 27.2834 49.1454 27.3563 49.2247C27.4292 49.3041 27.517 49.3683 27.6147 49.4137C27.7124 49.4591 27.8181 49.4848 27.9257 49.4893C28.1431 49.4986 28.3552 49.421 28.5154 49.2738C28.6756 49.1266 28.7708 48.9218 28.78 48.7045L29.2645 37.2755C29.3585 35.0537 28.0525 32.9633 26.0144 32.0736ZM14.6345 2.14454C16.3797 2.14454 17.8521 3.25787 18.2875 4.76638C17.1551 4.33894 15.9228 4.10389 14.6345 4.10389C13.3462 4.10389 12.1139 4.33894 10.9815 4.76638C11.4169 3.25787 12.8892 2.14454 14.6345 2.14454ZM7.9019 20.7533C7.75731 19.9655 7.02679 19.3933 6.24082 19.4515C6.16888 19.4563 6.09663 19.4501 6.02655 19.4332C5.71374 19.3591 5.47781 19.0172 5.47781 18.6379V18.0488C5.47781 17.6683 5.73211 17.3255 6.05663 17.2685C6.3305 17.2204 6.59268 17.321 6.75849 17.5373C6.9091 17.7337 7.11002 17.8741 7.3396 17.9435C7.67549 18.045 8.04617 17.9854 8.33076 17.7842C8.83805 17.4256 9.28605 16.9898 9.65847 16.4925C9.78721 16.3184 9.8419 16.1005 9.81061 15.8862C9.77932 15.672 9.66459 15.4788 9.49143 15.3488C9.31828 15.2188 9.10075 15.1625 8.88627 15.1922C8.6718 15.222 8.47778 15.3353 8.34651 15.5075C8.16225 15.7533 7.95246 15.9789 7.72067 16.1805C7.37034 15.8814 6.93988 15.6919 6.48275 15.6355C6.32542 15.0194 6.24561 14.386 6.24519 13.7501C6.24519 9.33597 10.0086 5.74463 14.6345 5.74463C19.2603 5.74463 23.0237 9.33586 23.0237 13.7501C23.0237 14.3845 22.9438 15.0151 22.7871 15.6318C22.5712 15.649 22.3518 15.6843 22.1487 15.7371L21.532 15.23C21.2222 14.9752 20.8322 14.8476 20.4374 14.8711C19.2317 14.9423 13.0565 15.1054 9.88838 11.3138C9.74829 11.1488 9.54867 11.0459 9.33301 11.0274C9.11736 11.009 8.90315 11.0765 8.73706 11.2153C8.57098 11.3541 8.46647 11.5529 8.44632 11.7684C8.42616 11.9839 8.49199 12.1986 8.62947 12.3658C10.192 14.2358 12.4837 15.5003 15.4409 16.1241C17.7051 16.6018 19.7178 16.5554 20.5064 16.5105L21.4685 17.3016C21.5976 17.408 21.7562 17.4723 21.9229 17.4859C22.0897 17.4995 22.2566 17.4616 22.4011 17.3775C22.5403 17.3017 23.0062 17.2293 23.2095 17.2698C23.5413 17.3358 23.7913 17.6668 23.7913 18.0399V18.6379C23.7913 19.0173 23.5554 19.3592 23.2426 19.4332C23.1725 19.4502 23.1002 19.4563 23.0283 19.4513C22.2428 19.3942 21.5118 19.9655 21.3671 20.7532C20.7704 24.0022 17.939 26.3604 14.6346 26.3604C11.3302 26.3604 8.49865 24.0022 7.9019 20.7533ZM11.233 35.1445L8.76575 31.1396L10.0297 29.8757L13.4267 33.2727L11.233 35.1445ZM14.6345 32.1602L11.6175 29.1432V27.4461C12.581 27.8133 13.6034 28.0013 14.6345 28.001C15.6656 28.0013 16.688 27.8133 17.6515 27.4462V29.1432L14.6345 32.1602ZM18.036 35.1445L15.8423 33.2727L19.2393 29.8757L20.5033 31.1396L18.036 35.1445Z" fill="#007A65"/>
<path d="M11.5646 40.1719H9.26221C9.04465 40.1719 8.836 40.2583 8.68216 40.4121C8.52832 40.566 8.44189 40.7746 8.44189 40.9922C8.44189 41.2097 8.52832 41.4184 8.68216 41.5722C8.836 41.7261 9.04465 41.8125 9.26221 41.8125H11.5646C11.7821 41.8125 11.9908 41.7261 12.1446 41.5722C12.2984 41.4184 12.3849 41.2097 12.3849 40.9922C12.3849 40.7746 12.2984 40.566 12.1446 40.4121C11.9908 40.2583 11.7821 40.1719 11.5646 40.1719Z" fill="#007A65"/>
</svg>
