<svg width="336" height="277" fill="none" xmlns="http://www.w3.org/2000/svg"><path fill-rule="evenodd" clip-rule="evenodd" d="M154.41 11.168c27.948 2.339 57.065-4.497 81.566 9.153 26.208 14.601 41.335 41.429 56.103 67.547 18.506 32.729 54.152 67.642 40.044 102.494-14.329 35.397-66.617 31.207-100.938 47.939-26.407 12.874-47.399 38.853-76.775 38.698-29.324-.154-53.08-21.45-76.19-39.504-22.293-17.415-42.891-36.595-54.34-62.467-12.421-28.075-19.454-59.014-12.66-88.954 7.195-31.708 22.26-65.219 51.066-80.288 27.94-14.617 60.702 2.753 92.124 5.382z" fill="#CCC"/><path d="M79.648 266.063s-.282-2.353 4.236-3.576c8.093-2.165 12.893 2.447 12.987 2.447 1.882 1.694.941 4.517-1.506 4.517H90.19l-10.54-3.388z" fill="#fff" stroke="#263238" stroke-miterlimit="10" stroke-linecap="round" stroke-linejoin="round"/><path d="M88.495 269.357H81.25c-.941 0-1.6-.753-1.6-1.6v-2.353h10.446v2.353c0 .847-.753 1.6-1.6 1.6zm-8.846-3.953c0-1.506 2.353-2.729 5.27-2.729 2.918 0 5.27 1.223 5.27 2.729H79.65z" fill="#fff" stroke="#263238" stroke-miterlimit="10" stroke-linecap="round" stroke-linejoin="round"/><path d="M90.095 265.404c0-1.506-2.353-2.729-5.27-2.729v2.729h5.27z" fill="#fff" stroke="#263238" stroke-miterlimit="10" stroke-linecap="round" stroke-linejoin="round"/><path d="M146.694 79.482L99.587 183.76m-46.326-22.47l-8.849 24.465m199.257-80.91L129.762 186.48m108.197 12.808l-123.016 24.638" stroke="#263238" stroke-linecap="round" stroke-linejoin="round" stroke-dasharray="3 3"/><path d="M145.393 207.964h67.928v-90.05H175.41l-30.017 30.016v60.034z" fill="#fff"/><mask id="a" style="mask-type:luminance" maskUnits="userSpaceOnUse" x="145" y="117" width="69" height="91"><path d="M145.393 207.964h67.928v-90.05H175.41l-30.017 30.016v60.034z" fill="#fff"/></mask><g mask="url(#a)"><path d="M145.307 148.104v11.538c3.123-8.241 30.016-11.538 30.016-11.538h-30.016z" fill="#007A65"/><path d="M145.307 148.104v11.538c3.123-8.241 30.016-11.538 30.016-11.538h-30.016z" fill="#fff"/></g><path d="M145.393 207.964h67.928v-90.05H175.41l-30.017 30.016v60.034z" stroke="#263238" stroke-miterlimit="10" stroke-linecap="round" stroke-linejoin="round"/><path d="M145.394 147.93h30.017v-30.016l-30.017 30.016z" fill="#fff" stroke="#263238" stroke-miterlimit="10" stroke-linecap="round" stroke-linejoin="round"/><path d="M196.145 159.208h-33.661m33.661 9.283h-33.661m33.661 9.283h-33.661" stroke="#263238" stroke-width="3" stroke-miterlimit="10" stroke-linecap="round" stroke-linejoin="round"/><path d="M156.812 188.273h58.43v21.641h-58.43v-21.641z" fill="#007A65" stroke="#263238" stroke-miterlimit="10" stroke-linecap="round" stroke-linejoin="round"/><path d="M247.068 198.334h50.404v-66.887h-28.108l-22.296 22.296v44.591z" fill="#fff"/><mask id="b" style="mask-type:luminance" maskUnits="userSpaceOnUse" x="247" y="131" width="51" height="68"><path d="M247.068 198.334h50.404v-66.887h-28.108l-22.296 22.296v44.591z" fill="#fff"/></mask><g mask="url(#b)"><path d="M246.981 153.916v8.589c2.256-6.16 22.296-8.589 22.296-8.589h-22.296z" fill="#007A65"/><path opacity=".6" d="M246.981 153.916v8.589c2.256-6.16 22.296-8.589 22.296-8.589h-22.296z" fill="#fff"/></g><path d="M247.068 198.334h50.404v-66.887h-28.108l-22.296 22.296v44.591z" stroke="#263238" stroke-miterlimit="10" stroke-linecap="round" stroke-linejoin="round"/><path d="M247.068 153.743h22.296v-22.296l-22.296 22.296z" fill="#fff" stroke="#263238" stroke-miterlimit="10" stroke-linecap="round" stroke-linejoin="round"/><path d="M284.806 162.158h-25.072m25.072 6.854h-25.072m25.072 6.853h-25.072" stroke="#263238" stroke-width="3" stroke-miterlimit="10" stroke-linecap="round" stroke-linejoin="round"/><path d="M259.605 183.499h40.036v16.657h-40.036v-16.657z" fill="#007A65" stroke="#263238" stroke-miterlimit="10" stroke-linecap="round" stroke-linejoin="round"/><path d="M149.991 71.327h50.491V4.353h-28.108L149.991 26.65v44.678z" fill="#fff"/><mask id="c" style="mask-type:luminance" maskUnits="userSpaceOnUse" x="149" y="4" width="52" height="68"><path d="M149.991 71.327h50.491V4.353h-28.108L149.991 26.65v44.678z" fill="#fff"/></mask><g mask="url(#c)"><path d="M149.991 26.823v8.588c2.343-6.16 22.296-8.588 22.296-8.588h-22.296z" fill="#007A65"/><path opacity=".6" d="M149.991 26.823v8.588c2.343-6.16 22.296-8.588 22.296-8.588h-22.296z" fill="#fff"/></g><path d="M149.991 71.327h50.491V4.353h-28.108L149.991 26.65v44.678z" stroke="#263238" stroke-miterlimit="10" stroke-linecap="round" stroke-linejoin="round"/><path d="M149.991 26.649h22.383V4.353L149.991 26.65z" fill="#fff" stroke="#263238" stroke-miterlimit="10" stroke-linecap="round" stroke-linejoin="round"/><path d="M187.729 35.064h-24.985m24.985 6.94h-24.985m24.985 6.854h-24.985" stroke="#263238" stroke-width="3" stroke-miterlimit="10" stroke-linecap="round" stroke-linejoin="round"/><path d="M156.813 56.319h45.404v16.656h-45.404V56.32z" fill="#007A65" stroke="#263238" stroke-miterlimit="10" stroke-linecap="round" stroke-linejoin="round"/><path d="M254.6 104.845h50.49V37.871h-28.195L254.6 60.167v44.678z" fill="#fff"/><mask id="d" style="mask-type:luminance" maskUnits="userSpaceOnUse" x="254" y="37" width="52" height="68"><path d="M254.6 104.845h50.49V37.871h-28.195L254.6 60.167v44.678z" fill="#fff"/></mask><g mask="url(#d)"><path d="M254.6 60.34v8.589c2.256-6.16 22.296-8.589 22.296-8.589H254.6z" fill="#007A65"/><path opacity=".6" d="M254.6 60.34v8.589c2.256-6.16 22.296-8.589 22.296-8.589H254.6z" fill="#fff"/></g><path d="M254.6 104.845h50.49V37.871h-28.195L254.6 60.167v44.678z" stroke="#263238" stroke-miterlimit="10" stroke-linecap="round" stroke-linejoin="round"/><path d="M254.6 60.167h22.296V37.87L254.6 60.167z" fill="#fff" stroke="#263238" stroke-miterlimit="10" stroke-linecap="round" stroke-linejoin="round"/><path d="M292.337 68.582h-24.985m24.985 6.94h-24.985m24.985 6.854h-24.985" stroke="#263238" stroke-width="3" stroke-miterlimit="10" stroke-linecap="round" stroke-linejoin="round"/><path d="M265.727 89.837h41.098v16.656h-41.098V89.837z" fill="#007A65" stroke="#263238" stroke-miterlimit="10" stroke-linecap="round" stroke-linejoin="round"/><path d="M55.69 155.391h50.491V88.418H77.986L55.69 110.8v44.591z" fill="#fff"/><mask id="e" style="mask-type:luminance" maskUnits="userSpaceOnUse" x="55" y="88" width="52" height="68"><path d="M55.69 155.391h50.491V88.418H77.986L55.69 110.8v44.591z" fill="#fff"/></mask><g mask="url(#e)"><path d="M55.69 110.887v8.588c2.256-6.159 22.296-8.588 22.296-8.588H55.691z" fill="#007A65"/><path opacity=".6" d="M55.69 110.887v8.588c2.256-6.159 22.296-8.588 22.296-8.588H55.691z" fill="#fff"/></g><path d="M55.69 155.391h50.491V88.418H77.986L55.69 110.8v44.591z" stroke="#263238" stroke-miterlimit="10" stroke-linecap="round" stroke-linejoin="round"/><path d="M55.69 110.8h22.296V88.418L55.691 110.8z" fill="#fff" stroke="#263238" stroke-miterlimit="10" stroke-linecap="round" stroke-linejoin="round"/><path d="M93.428 119.215H68.443m24.985 6.854H68.443m24.985 6.853H68.443" stroke="#263238" stroke-width="3" stroke-miterlimit="10" stroke-linecap="round" stroke-linejoin="round"/><path d="M60.512 140.664h47.609v16.231h-47.61v-16.231z" fill="#007A65" stroke="#263238" stroke-miterlimit="10" stroke-linecap="round" stroke-linejoin="round"/><path d="M79.12 194.766h-5.835l5.929 56.467h5.835c1.317 0 2.258-1.129 2.164-2.447l-5.458-51.573c-.094-1.412-1.318-2.447-2.635-2.447z" fill="#fff" stroke="#263238" stroke-miterlimit="10" stroke-linecap="round" stroke-linejoin="round"/><path d="M82.32 251.233H9.1c-1.317 0-2.54-1.129-2.635-2.447l-5.458-51.573c-.094-1.318.847-2.447 2.164-2.447h73.22c1.317 0 2.54 1.129 2.635 2.447l5.458 51.573c.189 1.318-.752 2.447-2.164 2.447z" fill="#fff" stroke="#263238" stroke-miterlimit="10" stroke-linecap="round" stroke-linejoin="round"/><path d="M56.909 199.001h-5.93m26.258 19.104l-1.505-12.422c-.471-3.765-3.67-6.682-7.53-6.682h-7.999" stroke="#263238" stroke-miterlimit="10" stroke-linecap="round" stroke-linejoin="round"/><path d="M56.965 268.625H20.543v-5.834h36.422v5.834z" fill="#5C5C5C" stroke="#263238" stroke-miterlimit="10" stroke-linecap="round" stroke-linejoin="round"/><path d="M67.592 268.625H56.957v-5.834h10.635v5.834z" fill="#999" stroke="#263238" stroke-miterlimit="10" stroke-linecap="round" stroke-linejoin="round"/><path d="M38.369 238.245c.282-2.729 2.353-4.893 4.894-5.552-.47-.094-.847-.188-1.318-.188-3.2 0-6.023 2.541-6.305 5.74-.377 3.2 1.976 5.741 5.082 5.741.47 0 .94-.094 1.411-.188-2.352-.659-4.047-2.917-3.764-5.553z" fill="#263238" stroke="#263238" stroke-miterlimit="10" stroke-linecap="round" stroke-linejoin="round"/><path d="M51.356 228.364l-3.576 34.445h2.73l3.576-34.445c.094-.847-.471-1.506-1.318-1.506h-2.73c.848 0 1.412.659 1.318 1.506z" fill="#999" stroke="#263238" stroke-miterlimit="10" stroke-linecap="round" stroke-linejoin="round"/><path d="M51.356 228.364l-3.576 34.445H29.804l3.576-34.445c.095-.847.848-1.506 1.695-1.506h14.963c.847 0 1.412.659 1.318 1.506z" fill="#5C5C5C" stroke="#263238" stroke-miterlimit="10" stroke-linecap="round" stroke-linejoin="round"/><path d="M272.376 95.39c-.493 0-.875.187-1.145.558-.271.37-.406.885-.406 1.548 0 1.377.517 2.066 1.551 2.066.434 0 .96-.108 1.577-.325v1.099a4.39 4.39 0 01-1.7.317c-.898 0-1.586-.272-2.062-.816-.476-.547-.714-1.33-.714-2.35 0-.642.117-1.205.35-1.686a2.53 2.53 0 011.006-1.112c.44-.26.954-.389 1.543-.389.6 0 1.203.145 1.809.436l-.423 1.065a6.967 6.967 0 00-.697-.288 2.084 2.084 0 00-.689-.122zm5.279 5.178h-1.31v-5.089h-1.678v-1.09h4.666v1.09h-1.678v5.089zm6.412 0l-.448-1.47h-2.253l-.448 1.47h-1.412l2.181-6.204h1.602l2.19 6.204h-1.412zm-.761-2.57a850.761 850.761 0 01-.701-2.26 6.521 6.521 0 01-.11-.415c-.093.36-.36 1.253-.799 2.676h1.61zm2.955-3.609h1.923c.876 0 1.512.125 1.906.376.397.248.596.644.596 1.188 0 .369-.087.672-.262.909a1.032 1.032 0 01-.689.426v.043c.392.087.674.25.845.49.175.24.262.558.262.955 0 .564-.204 1.003-.612 1.319-.406.315-.958.473-1.657.473h-2.312v-6.18zm1.31 2.447h.761c.355 0 .611-.055.769-.165.161-.11.241-.291.241-.545 0-.237-.087-.406-.262-.507-.172-.104-.445-.157-.82-.157h-.689v1.374zm0 1.04v1.61h.854c.36 0 .627-.069.799-.207.172-.138.257-.35.257-.634 0-.513-.366-.77-1.098-.77h-.812zm9.544 2.692h-1.488l-2.24-3.132v3.132h-1.31v-6.18h1.31v2.993l2.215-2.992h1.395l-2.253 2.967 2.371 3.212zm4.56 0l-.448-1.47h-2.252l-.448 1.47h-1.412l2.181-6.204h1.602l2.189 6.204h-1.412zm-.76-2.57c-.415-1.332-.648-2.086-.702-2.26a7.286 7.286 0 01-.11-.415c-.093.36-.359 1.253-.799 2.676h1.611zM64.882 149.312h.478c.409-.817.731-1.633.968-2.447.236-.818.413-1.698.528-2.642h3.601v5.089h.825v2.891h-1.264v-1.801h-3.872v1.801h-1.264v-2.891zm3.014-3.999a14.39 14.39 0 01-.452 2.05 14.397 14.397 0 01-.706 1.949h2.413v-3.999h-1.255zm9.95 1.991c0 1.023-.254 1.809-.761 2.359-.507.549-1.234.824-2.181.824-.947 0-1.674-.275-2.181-.824-.507-.55-.761-1.339-.761-2.367 0-1.029.254-1.814.76-2.355.51-.543 1.24-.815 2.19-.815s1.675.273 2.177.82c.504.546.757 1.333.757 2.358zm-4.51 0c0 .691.13 1.21.393 1.56.262.349.653.524 1.175.524 1.045 0 1.568-.695 1.568-2.084 0-1.392-.52-2.088-1.56-2.088-.521 0-.914.176-1.179.529-.265.349-.397.869-.397 1.559zm10.786 3.098h-1.496l-1.437-2.337-1.437 2.337h-1.403l2.05-3.187-1.92-2.992h1.446l1.332 2.223 1.305-2.223h1.412l-1.94 3.064 2.088 3.115zm6.387-3.098c0 1.023-.254 1.809-.761 2.359-.507.549-1.234.824-2.181.824-.947 0-1.674-.275-2.181-.824-.507-.55-.76-1.339-.76-2.367 0-1.029.253-1.814.76-2.355.51-.543 1.24-.815 2.19-.815.949 0 1.675.273 2.176.82.505.546.757 1.333.757 2.358zm-4.51 0c0 .691.13 1.21.393 1.56.262.349.654.524 1.175.524 1.045 0 1.568-.695 1.568-2.084 0-1.392-.52-2.088-1.56-2.088-.52 0-.914.176-1.179.529-.265.349-.397.869-.397 1.559zm5.055 2.008h.478c.408-.817.73-1.633.968-2.447a16.87 16.87 0 00.528-2.642h3.601v5.089h.824v2.891H96.19v-1.801h-3.871v1.801h-1.264v-2.891zm3.014-3.999c-.09.646-.241 1.329-.453 2.05a14.411 14.411 0 01-.706 1.949h2.414v-3.999h-1.255zm8.567 3.158c0 .642-.214 1.125-.642 1.45-.426.321-1.057.481-1.894.481h-1.69v-6.179h1.31v2.371h.422c.792 0 1.405.165 1.839.495.437.327.655.787.655 1.382zm-2.916.858h.342c.431 0 .747-.071.947-.212.2-.143.3-.359.3-.646 0-.288-.097-.493-.292-.617-.191-.124-.529-.186-1.014-.186h-.283v1.661zm4.974 1.073h-1.306v-6.179h1.306v6.179zm62.115-83.316h-1.306v-5.089h-1.513l-.067.566c-.175 1.44-.33 2.452-.465 3.035-.133.58-.327.99-.584 1.226-.256.237-.603.352-1.039.347-.237 0-.446-.032-.626-.094v-1.073c.163.056.317.084.461.084a.405.405 0 00.355-.202c.087-.138.169-.392.245-.761.079-.372.182-.98.308-1.822.13-.845.24-1.644.33-2.396h3.901v6.179zm5.913-1.932c0 1.288-.85 1.932-2.552 1.932h-1.801v-6.18h1.31v2.372h.516c.806 0 1.429.163 1.868.49.44.327.659.789.659 1.386zm-3.043.858h.44c.442 0 .766-.07.972-.211.206-.144.309-.36.309-.647 0-.284-.105-.489-.313-.612-.209-.127-.567-.19-1.074-.19h-.334v1.66zm8.124-5.105v1.082h-2.595v5.097h-1.31v-6.18h3.905zm6.564 3.081c0 1.023-.254 1.809-.761 2.358-.507.55-1.234.825-2.181.825-.947 0-1.674-.275-2.181-.825-.507-.55-.761-1.338-.761-2.367 0-1.028.254-1.813.761-2.354.51-.544 1.24-.816 2.19-.816.949 0 1.675.274 2.176.82.505.547.757 1.333.757 2.359zm-4.51 0c0 .69.131 1.21.393 1.56.262.349.654.523 1.175.523 1.046 0 1.568-.694 1.568-2.083 0-1.392-.52-2.088-1.559-2.088-.522 0-.915.176-1.18.528-.264.35-.397.87-.397 1.56zm8.175 3.098h-1.311v-5.089h-1.678v-1.09h4.667v1.09h-1.678v5.089zm6.855-1.932c0 .643-.214 1.126-.642 1.45-.426.321-1.057.482-1.894.482h-1.69v-6.18h1.31v2.372h.422c.792 0 1.405.165 1.839.494.437.327.655.788.655 1.382zm-2.916.858h.342c.431 0 .747-.07.947-.211.2-.144.3-.36.3-.647 0-.287-.097-.493-.292-.617-.191-.124-.529-.186-1.014-.186h-.283v1.661zm4.975 1.074h-1.306v-6.18h1.306v6.18zm-34.67 133.891h.597a18.207 18.207 0 001.21-3.059c.296-1.022.516-2.122.661-3.302h4.501v6.361h1.03v3.614h-1.579v-2.251h-4.84v2.251h-1.58v-3.614zm3.767-4.998c-.112.806-.301 1.66-.565 2.562a18.13 18.13 0 01-.882 2.436h3.017v-4.998h-1.57zm10.155 6.361l-.56-1.839h-2.816l-.56 1.839h-1.765l2.727-7.756h2.002l2.737 7.756h-1.765zm-.951-3.212c-.518-1.666-.81-2.609-.877-2.827a8.89 8.89 0 01-.137-.518c-.117.451-.449 1.566-.999 3.345h2.013zm10.023 3.212h-1.633v-3.334h-3.059v3.334h-1.638v-7.724h1.638v3.027h3.059v-3.027h1.633v7.724zm8.284 0h-1.633v-3.334h-3.059v3.334h-1.638v-7.724h1.638v3.027h3.059v-3.027h1.633v7.724zm7.238-2.415c0 .803-.268 1.407-.803 1.813-.532.401-1.321.602-2.367.602h-2.113v-7.724h1.638v2.964h.528c.99 0 1.756.206 2.298.618.546.408.819.984.819 1.727zm-3.645 1.073h.427c.539 0 .934-.088 1.184-.264.25-.18.375-.449.375-.809 0-.359-.121-.616-.364-.771-.24-.155-.663-.233-1.268-.233h-.354v2.077zm6.218 1.342h-1.633v-7.724h1.633v7.724zm6.398 0h-4.448v-7.724h4.448v1.342h-2.811v1.695h2.616v1.342h-2.616v1.992h2.811v1.353zm56.492-13.834c-.493 0-.875.186-1.145.558-.271.369-.406.885-.406 1.547 0 1.378.517 2.067 1.551 2.067.434 0 .959-.109 1.577-.326v1.099a4.39 4.39 0 01-1.7.317c-.898 0-1.586-.272-2.062-.816-.476-.546-.715-1.33-.715-2.35 0-.642.117-1.204.351-1.686.234-.485.57-.855 1.006-1.112.44-.259.954-.389 1.543-.389.6 0 1.203.146 1.809.436l-.423 1.065a7.02 7.02 0 00-.697-.288 2.1 2.1 0 00-.689-.122zm7.769-1.002l-1.911 4.371c-.239.549-.465.944-.676 1.183-.209.24-.457.418-.744.537-.287.115-.637.173-1.048.173a3.65 3.65 0 01-.985-.127v-1.124c.248.101.556.152.926.152.234 0 .422-.053.566-.16.144-.11.263-.299.359-.567l-2.138-4.438h1.386l1.522 3.445h.042l.076-.211 1.276-3.234h1.349zm3.398 6.18l-1.488-4.848h-.038c.054.986.08 1.644.08 1.973v2.875h-1.17v-6.18h1.783l1.463 4.726h.025l1.551-4.726h1.784v6.18h-1.222v-2.925c0-.138.002-.298.005-.478.005-.18.025-.659.059-1.437h-.038l-1.594 4.84h-1.2zm8.166 0l-1.488-4.848h-.038c.054.986.08 1.644.08 1.973v2.875h-1.17v-6.18h1.783l1.463 4.726h.025l1.551-4.726h1.784v6.18h-1.222v-2.925c0-.138.002-.298.005-.478.005-.18.025-.659.059-1.437h-.038l-1.594 4.84h-1.2zm9.332 0l-.448-1.471h-2.252l-.449 1.471h-1.411l2.181-6.205h1.602l2.189 6.205h-1.412zm-.76-2.57a636.781 636.781 0 01-.702-2.262 7.008 7.008 0 01-.11-.414c-.093.361-.359 1.253-.799 2.676h1.611z" fill="#fff"/></svg>