<svg width="336" height="277" viewBox="0 0 336 277" fill="none" xmlns="http://www.w3.org/2000/svg">
<path fill-rule="evenodd" clip-rule="evenodd" d="M154.41 11.1683C182.358 13.507 211.475 6.67055 235.976 20.3208C262.184 34.9223 277.311 61.7497 292.079 87.8681C310.585 120.597 346.231 155.51 332.123 190.362C317.794 225.759 265.506 221.569 231.185 238.301C204.778 251.175 183.786 277.154 154.41 276.999C125.086 276.845 101.33 255.549 78.2196 237.495C55.9266 220.08 35.3288 200.9 23.881 175.028C11.4586 146.953 4.42567 116.014 11.2197 86.074C18.4151 54.3657 33.4794 20.8552 62.2858 5.78596C90.2269 -8.83062 122.988 8.53878 154.41 11.1683Z" fill="#CCCCCC"/>
<path d="M79.6484 266.063C79.6484 266.063 79.3661 263.71 83.8835 262.487C91.9771 260.322 96.7769 264.934 96.871 264.934C98.7532 266.628 97.8121 269.451 95.3652 269.451C94.0476 269.451 92.3536 269.451 90.189 269.451L79.6484 266.063Z" fill="white" stroke="#263238" stroke-miterlimit="10" stroke-linecap="round" stroke-linejoin="round"/>
<path d="M88.4953 269.357H81.2487C80.3075 269.357 79.6487 268.604 79.6487 267.757V265.404H90.0952V267.757C90.0952 268.604 89.3423 269.357 88.4953 269.357Z" fill="white" stroke="#263238" stroke-miterlimit="10" stroke-linecap="round" stroke-linejoin="round"/>
<path d="M79.6489 265.404C79.6489 263.898 82.0017 262.675 84.9192 262.675C87.8366 262.675 90.1895 263.898 90.1895 265.404H79.6489Z" fill="white" stroke="#263238" stroke-miterlimit="10" stroke-linecap="round" stroke-linejoin="round"/>
<path d="M90.0952 265.404C90.0952 263.898 87.7424 262.675 84.8249 262.675V265.404H90.0952Z" fill="white" stroke="#263238" stroke-miterlimit="10" stroke-linecap="round" stroke-linejoin="round"/>
<path d="M146.694 79.4819L99.5872 183.76" stroke="#263238" stroke-linecap="round" stroke-linejoin="round" stroke-dasharray="3 3"/>
<path d="M53.2612 161.29L44.4124 185.755" stroke="#263238" stroke-linecap="round" stroke-linejoin="round" stroke-dasharray="3 3"/>
<path d="M243.669 104.845L129.762 186.48" stroke="#263238" stroke-linecap="round" stroke-linejoin="round" stroke-dasharray="3 3"/>
<path d="M237.959 199.288L114.943 223.926" stroke="#263238" stroke-linecap="round" stroke-linejoin="round" stroke-dasharray="3 3"/>
<path d="M145.393 207.964H213.321V117.914H175.41L145.393 147.93V207.964Z" fill="white"/>
<mask id="mask0_59_237" style="mask-type:luminance" maskUnits="userSpaceOnUse" x="145" y="117" width="69" height="91">
<path d="M145.393 207.964H213.321V117.914H175.41L145.393 147.93V207.964Z" fill="white"/>
</mask>
<g mask="url(#mask0_59_237)">
<path d="M145.307 148.104V159.642C148.43 151.401 175.323 148.104 175.323 148.104H145.307Z" fill="#007A65"/>
<path d="M145.307 148.104V159.642C148.43 151.401 175.323 148.104 175.323 148.104H145.307Z" fill="white"/>
</g>
<path d="M145.393 207.964H213.321V117.914H175.41L145.393 147.93V207.964Z" stroke="#263238" stroke-miterlimit="10" stroke-linecap="round" stroke-linejoin="round"/>
<path d="M145.394 147.93H175.411V117.914L145.394 147.93Z" fill="white" stroke="#263238" stroke-miterlimit="10" stroke-linecap="round" stroke-linejoin="round"/>
<path d="M196.145 159.208H162.484" stroke="#263238" stroke-width="3" stroke-miterlimit="10" stroke-linecap="round" stroke-linejoin="round"/>
<path d="M196.145 168.491H162.484" stroke="#263238" stroke-width="3" stroke-miterlimit="10" stroke-linecap="round" stroke-linejoin="round"/>
<path d="M196.145 177.774H162.484" stroke="#263238" stroke-width="3" stroke-miterlimit="10" stroke-linecap="round" stroke-linejoin="round"/>
<path d="M156.812 188.273H215.242V209.914H156.812V188.273Z" fill="#007A65" stroke="#263238" stroke-miterlimit="10" stroke-linecap="round" stroke-linejoin="round"/>
<path d="M247.068 198.334H297.472V131.447H269.364L247.068 153.743V198.334Z" fill="white"/>
<mask id="mask1_59_237" style="mask-type:luminance" maskUnits="userSpaceOnUse" x="247" y="131" width="51" height="68">
<path d="M247.068 198.334H297.472V131.447H269.364L247.068 153.743V198.334Z" fill="white"/>
</mask>
<g mask="url(#mask1_59_237)">
<path d="M246.981 153.916V162.505C249.237 156.345 269.277 153.916 269.277 153.916H246.981Z" fill="#007A65"/>
<path opacity="0.6" d="M246.981 153.916V162.505C249.237 156.345 269.277 153.916 269.277 153.916H246.981Z" fill="white"/>
</g>
<path d="M247.068 198.334H297.472V131.447H269.364L247.068 153.743V198.334Z" stroke="#263238" stroke-miterlimit="10" stroke-linecap="round" stroke-linejoin="round"/>
<path d="M247.068 153.743H269.364V131.447L247.068 153.743Z" fill="white" stroke="#263238" stroke-miterlimit="10" stroke-linecap="round" stroke-linejoin="round"/>
<path d="M284.806 162.158H259.734" stroke="#263238" stroke-width="3" stroke-miterlimit="10" stroke-linecap="round" stroke-linejoin="round"/>
<path d="M284.806 169.012H259.734" stroke="#263238" stroke-width="3" stroke-miterlimit="10" stroke-linecap="round" stroke-linejoin="round"/>
<path d="M284.806 175.865H259.734" stroke="#263238" stroke-width="3" stroke-miterlimit="10" stroke-linecap="round" stroke-linejoin="round"/>
<path d="M259.605 183.499H299.641V200.156H259.605V183.499Z" fill="#007A65" stroke="#263238" stroke-miterlimit="10" stroke-linecap="round" stroke-linejoin="round"/>
<path d="M149.991 71.3271H200.482V4.35336H172.374L149.991 26.649V71.3271Z" fill="white"/>
<mask id="mask2_59_237" style="mask-type:luminance" maskUnits="userSpaceOnUse" x="149" y="4" width="52" height="68">
<path d="M149.991 71.3271H200.482V4.35336H172.374L149.991 26.649V71.3271Z" fill="white"/>
</mask>
<g mask="url(#mask2_59_237)">
<path d="M149.991 26.8225V35.4111C152.334 29.2516 172.287 26.8225 172.287 26.8225H149.991Z" fill="#007A65"/>
<path opacity="0.6" d="M149.991 26.8225V35.4111C152.334 29.2516 172.287 26.8225 172.287 26.8225H149.991Z" fill="white"/>
</g>
<path d="M149.991 71.3271H200.482V4.35336H172.374L149.991 26.649V71.3271Z" stroke="#263238" stroke-miterlimit="10" stroke-linecap="round" stroke-linejoin="round"/>
<path d="M149.991 26.649H172.374V4.35336L149.991 26.649Z" fill="white" stroke="#263238" stroke-miterlimit="10" stroke-linecap="round" stroke-linejoin="round"/>
<path d="M187.729 35.0641H162.744" stroke="#263238" stroke-width="3" stroke-miterlimit="10" stroke-linecap="round" stroke-linejoin="round"/>
<path d="M187.729 42.0044H162.744" stroke="#263238" stroke-width="3" stroke-miterlimit="10" stroke-linecap="round" stroke-linejoin="round"/>
<path d="M187.729 48.8579H162.744" stroke="#263238" stroke-width="3" stroke-miterlimit="10" stroke-linecap="round" stroke-linejoin="round"/>
<path d="M156.813 56.3187H202.217V72.9754H156.813V56.3187Z" fill="#007A65" stroke="#263238" stroke-miterlimit="10" stroke-linecap="round" stroke-linejoin="round"/>
<path d="M254.6 104.845H305.09V37.8711H276.895L254.6 60.1667V104.845Z" fill="white"/>
<mask id="mask3_59_237" style="mask-type:luminance" maskUnits="userSpaceOnUse" x="254" y="37" width="52" height="68">
<path d="M254.6 104.845H305.09V37.8711H276.895L254.6 60.1667V104.845Z" fill="white"/>
</mask>
<g mask="url(#mask3_59_237)">
<path d="M254.6 60.3402V68.9288C256.856 62.7693 276.896 60.3402 276.896 60.3402H254.6Z" fill="#007A65"/>
<path opacity="0.6" d="M254.6 60.3402V68.9288C256.856 62.7693 276.896 60.3402 276.896 60.3402H254.6Z" fill="white"/>
</g>
<path d="M254.6 104.845H305.09V37.8711H276.895L254.6 60.1667V104.845Z" stroke="#263238" stroke-miterlimit="10" stroke-linecap="round" stroke-linejoin="round"/>
<path d="M254.6 60.1667H276.896V37.8711L254.6 60.1667Z" fill="white" stroke="#263238" stroke-miterlimit="10" stroke-linecap="round" stroke-linejoin="round"/>
<path d="M292.337 68.5818H267.352" stroke="#263238" stroke-width="3" stroke-miterlimit="10" stroke-linecap="round" stroke-linejoin="round"/>
<path d="M292.337 75.5221H267.352" stroke="#263238" stroke-width="3" stroke-miterlimit="10" stroke-linecap="round" stroke-linejoin="round"/>
<path d="M292.337 82.3756H267.352" stroke="#263238" stroke-width="3" stroke-miterlimit="10" stroke-linecap="round" stroke-linejoin="round"/>
<path d="M265.727 89.8365H306.825V106.493H265.727V89.8365Z" fill="#007A65" stroke="#263238" stroke-miterlimit="10" stroke-linecap="round" stroke-linejoin="round"/>
<path d="M55.6901 155.391H106.181V88.4175H77.9858L55.6901 110.8V155.391Z" fill="white"/>
<mask id="mask4_59_237" style="mask-type:luminance" maskUnits="userSpaceOnUse" x="55" y="88" width="52" height="68">
<path d="M55.6901 155.391H106.181V88.4175H77.9858L55.6901 110.8V155.391Z" fill="white"/>
</mask>
<g mask="url(#mask4_59_237)">
<path d="M55.6907 110.887V119.475C57.9463 113.316 77.9863 110.887 77.9863 110.887H55.6907Z" fill="#007A65"/>
<path opacity="0.6" d="M55.6907 110.887V119.475C57.9463 113.316 77.9863 110.887 77.9863 110.887H55.6907Z" fill="white"/>
</g>
<path d="M55.6901 155.391H106.181V88.4175H77.9858L55.6901 110.8V155.391Z" stroke="#263238" stroke-miterlimit="10" stroke-linecap="round" stroke-linejoin="round"/>
<path d="M55.6907 110.8H77.9863V88.4175L55.6907 110.8Z" fill="white" stroke="#263238" stroke-miterlimit="10" stroke-linecap="round" stroke-linejoin="round"/>
<path d="M93.4282 119.215H68.4432" stroke="#263238" stroke-width="3" stroke-miterlimit="10" stroke-linecap="round" stroke-linejoin="round"/>
<path d="M93.4282 126.069H68.4432" stroke="#263238" stroke-width="3" stroke-miterlimit="10" stroke-linecap="round" stroke-linejoin="round"/>
<path d="M93.4282 132.922H68.4432" stroke="#263238" stroke-width="3" stroke-miterlimit="10" stroke-linecap="round" stroke-linejoin="round"/>
<path d="M60.5117 140.664H108.121V156.895H60.5117V140.664Z" fill="#007A65" stroke="#263238" stroke-miterlimit="10" stroke-linecap="round" stroke-linejoin="round"/>
<path d="M79.1196 194.766H73.2846L79.2137 251.233H85.0486C86.3662 251.233 87.3074 250.104 87.2132 248.786L81.7547 197.213C81.6606 195.801 80.4372 194.766 79.1196 194.766Z" fill="white" stroke="#263238" stroke-miterlimit="10" stroke-linecap="round" stroke-linejoin="round"/>
<path d="M82.3198 251.233H9.10043C7.78287 251.233 6.55939 250.104 6.46528 248.786L1.00677 197.213C0.912666 195.895 1.85378 194.766 3.17135 194.766H76.3907C77.7083 194.766 78.9317 195.895 79.0258 197.213L84.4844 248.786C84.6726 250.104 83.7315 251.233 82.3198 251.233Z" fill="white" stroke="#263238" stroke-miterlimit="10" stroke-linecap="round" stroke-linejoin="round"/>
<path d="M56.9087 199.001H50.9796" stroke="#263238" stroke-miterlimit="10" stroke-linecap="round" stroke-linejoin="round"/>
<path d="M77.2373 218.105L75.7315 205.683C75.2609 201.918 72.0611 199.001 68.2025 199.001H60.203" stroke="#263238" stroke-miterlimit="10" stroke-linecap="round" stroke-linejoin="round"/>
<path d="M56.9649 268.625H20.5435V262.791H56.9649V268.625Z" fill="#5C5C5C" stroke="#263238" stroke-miterlimit="10" stroke-linecap="round" stroke-linejoin="round"/>
<path d="M67.5917 268.625H56.957V262.791H67.5917V268.625Z" fill="#999999" stroke="#263238" stroke-miterlimit="10" stroke-linecap="round" stroke-linejoin="round"/>
<path d="M38.3689 238.245C38.6512 235.516 40.7217 233.352 43.2627 232.693C42.7921 232.599 42.4157 232.505 41.9451 232.505C38.7453 232.505 35.9219 235.046 35.6396 238.245C35.2631 241.445 37.616 243.986 40.7217 243.986C41.1922 243.986 41.6628 243.892 42.1334 243.798C39.7806 243.139 38.0865 240.881 38.3689 238.245Z" fill="#263238" stroke="#263238" stroke-miterlimit="10" stroke-linecap="round" stroke-linejoin="round"/>
<path d="M51.3562 228.364L47.78 262.809H50.5092L54.0855 228.364C54.1796 227.517 53.6149 226.858 52.7679 226.858H50.0387C50.8857 226.858 51.4503 227.517 51.3562 228.364Z" fill="#999999" stroke="#263238" stroke-miterlimit="10" stroke-linecap="round" stroke-linejoin="round"/>
<path d="M51.356 228.364L47.7797 262.809H29.8043L33.3805 228.364C33.4746 227.517 34.2276 226.858 35.0746 226.858H50.0384C50.8854 226.858 51.4501 227.517 51.356 228.364Z" fill="#5C5C5C" stroke="#263238" stroke-miterlimit="10" stroke-linecap="round" stroke-linejoin="round"/>
<path d="M272.376 95.3906C271.883 95.3906 271.501 95.5766 271.231 95.9485C270.96 96.3176 270.825 96.8333 270.825 97.4955C270.825 98.8734 271.342 99.5623 272.376 99.5623C272.81 99.5623 273.336 99.4538 273.953 99.2369V100.336C273.445 100.547 272.879 100.653 272.253 100.653C271.355 100.653 270.667 100.381 270.191 99.8371C269.715 99.2904 269.477 98.5071 269.477 97.487C269.477 96.8446 269.594 96.2824 269.827 95.8006C270.061 95.3159 270.397 94.9454 270.833 94.689C271.273 94.4297 271.787 94.3001 272.376 94.3001C272.976 94.3001 273.579 94.4452 274.185 94.7355L273.762 95.8006C273.531 95.6907 273.299 95.5949 273.065 95.5132C272.831 95.4315 272.601 95.3906 272.376 95.3906Z" fill="white"/>
<path d="M277.655 100.568H276.345V95.4794H274.667V94.3889H279.333V95.4794H277.655V100.568Z" fill="white"/>
<path d="M284.067 100.568L283.619 99.0974H281.366L280.918 100.568H279.506L281.687 94.3635H283.289L285.479 100.568H284.067ZM283.306 97.9985C282.892 96.6656 282.658 95.9119 282.605 95.7372C282.554 95.5625 282.517 95.4244 282.495 95.323C282.402 95.6836 282.135 96.5755 281.696 97.9985H283.306Z" fill="white"/>
<path d="M286.261 94.3889H288.184C289.06 94.3889 289.696 94.5143 290.09 94.765C290.487 95.013 290.686 95.4089 290.686 95.9527C290.686 96.3219 290.599 96.6248 290.424 96.8615C290.252 97.0982 290.022 97.2405 289.735 97.2884V97.3306C290.127 97.418 290.409 97.5814 290.58 97.8209C290.755 98.0605 290.842 98.3789 290.842 98.7762C290.842 99.3397 290.638 99.7793 290.23 100.095C289.824 100.41 289.272 100.568 288.573 100.568H286.261V94.3889ZM287.571 96.8361H288.332C288.687 96.8361 288.943 96.7812 289.101 96.6713C289.262 96.5614 289.342 96.3796 289.342 96.126C289.342 95.8893 289.255 95.7203 289.08 95.6188C288.908 95.5146 288.635 95.4624 288.26 95.4624H287.571V96.8361ZM287.571 97.8759V99.4863H288.425C288.785 99.4863 289.052 99.4172 289.224 99.2791C289.396 99.1411 289.481 98.9297 289.481 98.6451C289.481 98.1323 289.115 97.8759 288.383 97.8759H287.571Z" fill="white"/>
<path d="M297.115 100.568H295.627L293.387 97.4363V100.568H292.077V94.3889H293.387V97.3814L295.602 94.3889H296.997L294.744 97.356L297.115 100.568Z" fill="white"/>
<path d="M301.675 100.568L301.227 99.0974H298.975L298.527 100.568H297.115L299.296 94.3635H300.898L303.087 100.568H301.675ZM300.915 97.9985C300.5 96.6656 300.267 95.9119 300.213 95.7372C300.162 95.5625 300.126 95.4244 300.103 95.323C300.01 95.6836 299.744 96.5755 299.304 97.9985H300.915Z" fill="white"/>
<path d="M64.8823 149.312H65.3599C65.7685 148.495 66.0912 147.679 66.3279 146.865C66.5645 146.047 66.7407 145.167 66.8562 144.223H70.4573V149.312H71.2815V152.203H70.0177V150.402H66.1461V152.203H64.8823V149.312ZM67.896 145.313C67.8058 145.959 67.655 146.642 67.4437 147.363C67.2352 148.085 66.9999 148.734 66.7378 149.312H69.1513V145.313H67.896Z" fill="white"/>
<path d="M77.8456 147.304C77.8456 148.327 77.592 149.113 77.0848 149.663C76.5776 150.212 75.8506 150.487 74.9038 150.487C73.957 150.487 73.23 150.212 72.7228 149.663C72.2156 149.113 71.962 148.324 71.962 147.296C71.962 146.267 72.2156 145.482 72.7228 144.941C73.2328 144.398 73.9627 144.126 74.9122 144.126C75.8618 144.126 76.5874 144.399 77.089 144.946C77.5934 145.492 77.8456 146.279 77.8456 147.304ZM73.3357 147.304C73.3357 147.995 73.4667 148.514 73.7288 148.864C73.9908 149.213 74.3825 149.388 74.9038 149.388C75.9492 149.388 76.4719 148.693 76.4719 147.304C76.4719 145.912 75.952 145.216 74.9122 145.216C74.391 145.216 73.9979 145.392 73.733 145.745C73.4681 146.094 73.3357 146.614 73.3357 147.304Z" fill="white"/>
<path d="M84.1222 150.402H82.6259L81.1889 148.065L79.7518 150.402H78.3485L80.3985 147.215L78.4796 144.223H79.9251L81.2565 146.446L82.5625 144.223H83.9743L82.0342 147.287L84.1222 150.402Z" fill="white"/>
<path d="M90.5087 147.304C90.5087 148.327 90.2551 149.113 89.7479 149.663C89.2407 150.212 88.5137 150.487 87.5669 150.487C86.6202 150.487 85.8932 150.212 85.386 149.663C84.8788 149.113 84.6252 148.324 84.6252 147.296C84.6252 146.267 84.8788 145.482 85.386 144.941C85.896 144.398 86.6258 144.126 87.5754 144.126C88.525 144.126 89.2506 144.399 89.7521 144.946C90.2565 145.492 90.5087 146.279 90.5087 147.304ZM85.9988 147.304C85.9988 147.995 86.1299 148.514 86.3919 148.864C86.654 149.213 87.0456 149.388 87.5669 149.388C88.6123 149.388 89.135 148.693 89.135 147.304C89.135 145.912 88.6152 145.216 87.5754 145.216C87.0541 145.216 86.661 145.392 86.3961 145.745C86.1313 146.094 85.9988 146.614 85.9988 147.304Z" fill="white"/>
<path d="M91.054 149.312H91.5316C91.9401 148.495 92.2628 147.679 92.4995 146.865C92.7362 146.047 92.9123 145.167 93.0278 144.223H96.629V149.312H97.4532V152.203H96.1894V150.402H92.3177V152.203H91.054V149.312ZM94.0676 145.313C93.9774 145.959 93.8267 146.642 93.6153 147.363C93.4068 148.085 93.1715 148.734 92.9095 149.312H95.3229V145.313H94.0676Z" fill="white"/>
<path d="M102.635 148.471C102.635 149.113 102.421 149.596 101.993 149.921C101.567 150.242 100.936 150.402 100.099 150.402H98.4084V144.223H99.7187V146.594H100.141C100.933 146.594 101.546 146.759 101.98 147.089C102.417 147.416 102.635 147.876 102.635 148.471ZM99.7187 149.329H100.061C100.492 149.329 100.808 149.258 101.008 149.117C101.208 148.974 101.308 148.758 101.308 148.471C101.308 148.183 101.211 147.978 101.016 147.854C100.825 147.73 100.487 147.668 100.002 147.668H99.7187V149.329ZM104.693 150.402H103.387V144.223H104.693V150.402Z" fill="white"/>
<path d="M166.808 67.086H165.502V61.997H163.989L163.922 62.5634C163.747 64.0033 163.592 65.0149 163.457 65.5982C163.324 66.1786 163.13 66.5872 162.873 66.8239C162.617 67.0606 162.27 67.1761 161.834 67.1705C161.597 67.1705 161.388 67.1395 161.208 67.0775V66.0039C161.371 66.0603 161.525 66.0885 161.669 66.0885C161.818 66.0885 161.936 66.0208 162.024 65.8856C162.111 65.7475 162.193 65.4939 162.269 65.1248C162.348 64.7528 162.451 64.1456 162.577 63.3031C162.707 62.4577 162.817 61.6589 162.907 60.9065H166.808V67.086Z" fill="white"/>
<path d="M172.721 65.1544C172.721 66.4421 171.871 67.086 170.169 67.086H168.368V60.9065H169.678V63.2777H170.194C171 63.2777 171.623 63.4411 172.062 63.768C172.502 64.0949 172.721 64.557 172.721 65.1544ZM169.678 66.0124H170.118C170.56 66.0124 170.884 65.9419 171.09 65.801C171.296 65.6573 171.399 65.4418 171.399 65.1544C171.399 64.8698 171.294 64.6655 171.086 64.5415C170.877 64.4147 170.519 64.3513 170.012 64.3513H169.678V66.0124Z" fill="white"/>
<path d="M177.802 60.9065V61.9886H175.207V67.086H173.897V60.9065H177.802Z" fill="white"/>
<path d="M184.366 63.9878C184.366 65.0107 184.112 65.7968 183.605 66.3463C183.098 66.8958 182.371 67.1705 181.424 67.1705C180.477 67.1705 179.75 66.8958 179.243 66.3463C178.736 65.7968 178.482 65.0078 178.482 63.9793C178.482 62.9508 178.736 62.1661 179.243 61.6251C179.753 61.0812 180.483 60.8093 181.433 60.8093C182.382 60.8093 183.108 61.0827 183.609 61.6293C184.114 62.176 184.366 62.9621 184.366 63.9878ZM179.856 63.9878C179.856 64.6782 179.987 65.198 180.249 65.5474C180.511 65.8968 180.903 66.0715 181.424 66.0715C182.47 66.0715 182.992 65.377 182.992 63.9878C182.992 62.5958 182.472 61.8998 181.433 61.8998C180.911 61.8998 180.518 62.0759 180.253 62.4281C179.989 62.7776 179.856 63.2974 179.856 63.9878Z" fill="white"/>
<path d="M188.031 67.086H186.72V61.997H185.042V60.9065H189.709V61.997H188.031V67.086Z" fill="white"/>
<path d="M194.886 65.1544C194.886 65.7968 194.672 66.2801 194.244 66.6041C193.818 66.9253 193.187 67.086 192.35 67.086H190.66V60.9065H191.97V63.2777H192.392C193.184 63.2777 193.797 63.4426 194.231 63.7722C194.668 64.0991 194.886 64.5598 194.886 65.1544ZM191.97 66.0124H192.312C192.743 66.0124 193.059 65.9419 193.259 65.801C193.459 65.6573 193.559 65.4418 193.559 65.1544C193.559 64.8669 193.462 64.6612 193.267 64.5373C193.076 64.4133 192.738 64.3513 192.253 64.3513H191.97V66.0124ZM196.945 67.086H195.639V60.9065H196.945V67.086Z" fill="white"/>
<path d="M162.275 200.977H162.872C163.383 199.955 163.786 198.936 164.082 197.918C164.378 196.896 164.598 195.796 164.743 194.616H169.244V200.977H170.274V204.591H168.695V202.34H163.855V204.591H162.275V200.977ZM166.042 195.979C165.93 196.785 165.741 197.639 165.477 198.541C165.216 199.443 164.922 200.255 164.595 200.977H167.612V195.979H166.042Z" fill="white"/>
<path d="M176.197 202.34L175.637 200.501H172.821L172.261 202.34H170.496L173.223 194.584H175.225L177.962 202.34H176.197ZM175.246 199.128C174.728 197.462 174.436 196.519 174.369 196.301C174.306 196.083 174.26 195.91 174.232 195.783C174.115 196.234 173.783 197.349 173.233 199.128H175.246Z" fill="white"/>
<path d="M185.269 202.34H183.636V199.006H180.577V202.34H178.939V194.616H180.577V197.643H183.636V194.616H185.269V202.34Z" fill="white"/>
<path d="M193.553 202.34H191.92V199.006H188.861V202.34H187.223V194.616H188.861V197.643H191.92V194.616H193.553V202.34Z" fill="white"/>
<path d="M200.791 199.925C200.791 200.728 200.523 201.332 199.988 201.738C199.456 202.139 198.667 202.34 197.621 202.34H195.508V194.616H197.146V197.58H197.674C198.664 197.58 199.43 197.786 199.972 198.198C200.518 198.606 200.791 199.182 200.791 199.925ZM197.146 200.998H197.573C198.112 200.998 198.507 200.91 198.757 200.734C199.007 200.554 199.132 200.285 199.132 199.925C199.132 199.566 199.011 199.309 198.768 199.154C198.528 198.999 198.105 198.921 197.5 198.921H197.146V200.998ZM203.364 202.34H201.731V194.616H203.364V202.34Z" fill="white"/>
<path d="M209.762 202.34H205.314V194.616H209.762V195.958H206.951V197.653H209.567V198.995H206.951V200.987H209.762V202.34Z" fill="white"/>
<path d="M266.254 188.506C265.761 188.506 265.379 188.692 265.109 189.064C264.838 189.433 264.703 189.949 264.703 190.611C264.703 191.989 265.22 192.678 266.254 192.678C266.688 192.678 267.213 192.569 267.831 192.352V193.451C267.323 193.662 266.757 193.768 266.131 193.768C265.233 193.768 264.545 193.496 264.069 192.952C263.593 192.406 263.354 191.622 263.354 190.602C263.354 189.96 263.471 189.398 263.705 188.916C263.939 188.431 264.275 188.061 264.711 187.804C265.151 187.545 265.665 187.415 266.254 187.415C266.854 187.415 267.457 187.561 268.063 187.851L267.64 188.916C267.409 188.806 267.177 188.71 266.943 188.628C266.709 188.547 266.479 188.506 266.254 188.506Z" fill="white"/>
<path d="M274.023 187.504L272.112 191.875C271.873 192.424 271.647 192.819 271.436 193.058C271.227 193.298 270.979 193.476 270.692 193.595C270.405 193.71 270.055 193.768 269.644 193.768C269.292 193.768 268.963 193.726 268.659 193.641V192.517C268.907 192.618 269.215 192.669 269.585 192.669C269.819 192.669 270.007 192.616 270.151 192.509C270.295 192.399 270.414 192.21 270.51 191.942L268.372 187.504H269.758L271.28 190.949H271.322L271.398 190.738L272.674 187.504H274.023Z" fill="white"/>
<path d="M277.421 193.684L275.933 188.836H275.895C275.949 189.822 275.975 190.48 275.975 190.809V193.684H274.805V187.504H276.588L278.051 192.23H278.076L279.627 187.504H281.411V193.684H280.189V190.759C280.189 190.621 280.191 190.461 280.194 190.281C280.199 190.101 280.219 189.622 280.253 188.844H280.215L278.621 193.684H277.421Z" fill="white"/>
<path d="M285.587 193.684L284.099 188.836H284.061C284.115 189.822 284.141 190.48 284.141 190.809V193.684H282.971V187.504H284.754L286.217 192.23H286.242L287.793 187.504H289.577V193.684H288.355V190.759C288.355 190.621 288.357 190.461 288.36 190.281C288.365 190.101 288.385 189.622 288.419 188.844H288.381L286.787 193.684H285.587Z" fill="white"/>
<path d="M294.919 193.684L294.471 192.213H292.219L291.77 193.684H290.359L292.54 187.479H294.142L296.331 193.684H294.919ZM294.159 191.114C293.744 189.781 293.51 189.027 293.457 188.852C293.406 188.678 293.37 188.54 293.347 188.438C293.254 188.799 292.988 189.691 292.548 191.114H294.159Z" fill="white"/>
</svg>
