<svg width="68" height="68" fill="none" xmlns="http://www.w3.org/2000/svg"><path d="M62.438.094H31.811a5.475 5.475 0 00-5.468 5.468v21.536a20.66 20.66 0 00-5.469-.754c-11.459 0-20.78 9.322-20.78 20.781 0 11.46 9.322 20.781 20.781 20.781 7.9 0 14.78-4.432 18.295-10.937h23.267a5.475 5.475 0 005.47-5.469V5.562a5.475 5.475 0 00-5.47-5.468zM39.413 48.219a18.547 18.547 0 01-4.658 11.24l-3.826-3.826-1.547 1.547 3.82 3.82a18.472 18.472 0 01-11.233 4.668V60.25H19.78v5.413a18.547 18.547 0 01-11.24-4.658l3.826-3.826-1.547-1.547-3.818 3.82a18.466 18.466 0 01-4.67-11.233H7.75V46.03H2.337c.252-4.3 1.971-8.21 4.658-11.24l3.826 3.826 1.547-1.547-3.82-3.818a18.472 18.472 0 0111.233-4.67V34h2.188v-5.415c4.301.252 8.2 1.982 11.226 4.673l-3.25 3.25 1.547 1.546 3.25-3.249c2.69 3.025 4.42 6.925 4.672 11.226H34v2.188h5.413zm-6.507-18.007v-7.15c0-.603.49-1.093 1.094-1.093h8.75c.604 0 1.094.49 1.094 1.093v8.75c0 .604-.49 1.094-1.094 1.094h-6.762a20.895 20.895 0 00-3.082-2.694zM65.72 51.5a3.285 3.285 0 01-3.281 3.281H40.175c.284-.71.522-1.441.726-2.187h1.848a3.285 3.285 0 003.281-3.282v-8.75a3.285 3.285 0 00-3.281-3.28h-3.58a20.771 20.771 0 00-1.382-2.188h4.962a3.285 3.285 0 003.281-3.282v-8.75a3.285 3.285 0 00-3.281-3.28H34a3.285 3.285 0 00-3.281 3.28v5.768a20.64 20.64 0 00-2.188-1.006V5.562a3.285 3.285 0 013.282-3.28h30.625a3.285 3.285 0 013.28 3.28V51.5zM40.176 39.469h2.574c.604 0 1.094.49 1.094 1.093v8.75c0 .604-.49 1.094-1.094 1.094h-1.38c.172-1.072.286-2.162.286-3.281 0-2.705-.535-5.284-1.48-7.656z" fill="#FAFAFA"/><path d="M60.25 19.781H51.5a3.285 3.285 0 00-3.281 3.282v8.75a3.285 3.285 0 003.281 3.28h8.75a3.285 3.285 0 003.281-3.28v-8.75a3.285 3.285 0 00-3.281-3.282zm1.094 12.032c0 .603-.49 1.093-1.094 1.093H51.5c-.604 0-1.094-.49-1.094-1.093v-8.75c0-.604.49-1.094 1.094-1.094h8.75c.604 0 1.094.49 1.094 1.093v8.75zm-1.094 5.468H51.5a3.285 3.285 0 00-3.281 3.282v8.75a3.285 3.285 0 003.281 3.28h8.75a3.285 3.285 0 003.281-3.28v-8.75a3.285 3.285 0 00-3.281-3.282zm1.094 12.032c0 .603-.49 1.093-1.094 1.093H51.5c-.604 0-1.094-.49-1.094-1.093v-8.75c0-.604.49-1.094 1.094-1.094h8.75c.604 0 1.094.49 1.094 1.093v8.75z" fill="#FAFAFA"/><path d="M20.875 61.344c-7.84 0-14.219-6.379-14.219-14.219s6.379-14.219 14.219-14.219 14.219 6.379 14.219 14.219-6.379 14.219-14.219 14.219z" fill="#007A65"/><path d="M13.534 52.91l13.123-13.123 1.547 1.546L15.08 54.456l-1.546-1.546zm2.966-6.879a3.285 3.285 0 01-3.281-3.281 3.285 3.285 0 013.281-3.281 3.285 3.285 0 013.281 3.281 3.285 3.285 0 01-3.281 3.281zm0-4.375a1.094 1.094 0 10.001 2.189 1.094 1.094 0 00-.001-2.189zm8.75 13.125a3.285 3.285 0 01-3.281-3.281 3.285 3.285 0 013.281-3.281 3.285 3.285 0 013.281 3.281 3.285 3.285 0 01-3.281 3.281zm0-4.375a1.094 1.094 0 10.001 2.189 1.094 1.094 0 00-.001-2.189z" fill="#FAFAFA"/><path d="M60.25 17.594H34a3.285 3.285 0 01-3.281-3.282V7.75A3.285 3.285 0 0134 4.469h26.25a3.285 3.285 0 013.281 3.281v6.563a3.285 3.285 0 01-3.281 3.28z" fill="#007A65"/></svg>