<svg width="71" height="67" fill="none" xmlns="http://www.w3.org/2000/svg"><path d="M39.766.406c-1.248 0-2.258.973-2.258 2.174V9.1c0 1.2 1.01 2.173 2.258 2.173s2.258-.973 2.258-2.173V2.58c0-1.201-1.01-2.174-2.258-2.174zm-9.032 0c-1.248 0-2.258.973-2.258 2.174V9.1c0 1.2 1.01 2.173 2.258 2.173 1.247 0 2.258-.973 2.258-2.173V2.58c0-1.201-1.01-2.174-2.258-2.174zm18.064 0c-1.248 0-2.258.973-2.258 2.174V9.1c0 1.2 1.01 2.173 2.258 2.173s2.258-.973 2.258-2.173V2.58c0-1.201-1.01-2.174-2.258-2.174zm9.032 0c-1.247 0-2.258.973-2.258 2.174V9.1c0 1.2 1.01 2.173 2.258 2.173s2.258-.973 2.258-2.173V2.58c0-1.201-1.01-2.174-2.258-2.174zM37.508 36.267H1.378v-6.52h36.13v6.52z" fill="#007A65"/><path d="M32.992 5.84h4.516v2.173h-4.516V5.839zm9.032 0h4.517v2.173h-4.517V5.839zm9.033 0h4.516v2.173h-4.516V5.839z" fill="#000"/><path d="M64.605 5.84h-4.516v2.173h4.516c1.867 0 3.387 1.463 3.387 3.26v3.26h-47.42v-3.26c0-1.797 1.52-3.26 3.388-3.26h4.516V5.84H23.96c-3.113 0-5.646 2.437-5.646 5.433V25.4H3.637C1.77 25.4.25 26.863.25 28.66v17.387c0 1.798 1.52 3.26 3.387 3.26h14.677v11.954c0 2.996 2.533 5.433 5.646 5.433h44.032c1.245 0 2.258-.974 2.258-2.173V11.273c0-2.996-2.532-5.433-5.645-5.433zM27.347 49.307h6.774v4.347h-6.774v-4.347zm9.032-.2a3.323 3.323 0 002.05-1.973h4.724v6.52H36.38v-4.547zm2.258-19.36h4.516v6.52h-4.516v-6.52zm22.58 6.52h-6.773v-6.52h6.774v6.52zm-9.032 0h-6.774v-6.52h6.774v6.52zM38.637 38.44h4.516v6.52h-4.516v-6.52zm6.774 0h6.774v6.52h-6.774v-6.52zm9.033 0h6.774v6.52h-6.774v-6.52zm6.774-10.866h-6.774v-6.52h6.774v6.52zm-9.033 0h-6.774v-6.52h6.774v6.52zm-9.032 0H38.43a3.323 3.323 0 00-2.05-1.974v-4.547h6.774v6.52zM34.121 25.4h-6.774v-4.347h6.774V25.4zm11.29 21.734h6.774v6.52h-6.774v-6.52zm9.033 0h6.774v6.52h-6.774v-6.52zm4.516 8.694h7.435l-7.435 7.156v-7.157zM20.573 16.706h47.419v36.948h-4.516V18.88H25.089v6.52h-4.516v-8.694zM2.508 46.047V28.66c0-.6.506-1.087 1.13-1.087H35.25c.623 0 1.129.487 1.129 1.087v17.387c0 .6-.506 1.087-1.129 1.087H3.637c-.623 0-1.129-.487-1.129-1.087zm18.065 15.214V49.307h4.516v6.52h31.613v8.694H23.96c-1.868 0-3.387-1.463-3.387-3.26zm39.983 3.26l7.436-7.157v7.157h-7.436z" fill="#000"/><path d="M25.089 58h14.677v2.174H25.09v-2.173zm19.193 0h10.162v2.174H44.282v-2.173zM30.734 38.44c-.87 0-1.658.327-2.258.848a3.433 3.433 0 00-2.258-.848c-1.868 0-3.387 1.463-3.387 3.26 0 1.798 1.52 3.26 3.387 3.26.87 0 1.657-.327 2.258-.847.6.522 1.387.848 2.258.848 1.867 0 3.387-1.463 3.387-3.26 0-1.798-1.52-3.26-3.387-3.26zm-4.516 4.347c-.624 0-1.13-.487-1.13-1.087s.506-1.086 1.13-1.086c.623 0 1.129.486 1.129 1.086 0 .6-.506 1.087-1.13 1.087zm4.516 0c-.623 0-1.13-.487-1.13-1.087s.507-1.086 1.13-1.086c.623 0 1.129.486 1.129 1.086 0 .6-.506 1.087-1.13 1.087zm-25.968 0h9.032v2.173H4.766v-2.173zm0-4.347h4.516v2.174H4.766V38.44z" fill="#000"/></svg>