<svg width="71" height="67" fill="none" xmlns="http://www.w3.org/2000/svg"><path d="M65.717 19.64h-1.124v-2.15h1.316c2.375 0 4.305-1.846 4.305-4.117a4 4 0 00-1.261-2.911l-9.38-8.97a4.374 4.374 0 00-3.04-1.207c-2.374 0-4.304 1.846-4.304 4.117v1.26c-6.863-.001-11.94 2.15-16.959 7.173a3.263 3.263 0 00-1.027 2.373c0 1.367.86 2.54 2.088 3.064l-1.06 1.015c-.115.11-.208.232-.304.352H5.015c-2.48 0-4.497 1.93-4.497 4.302v38.71c0 2.371 2.017 4.3 4.497 4.3h60.702c2.48 0 4.497-1.929 4.497-4.3v-38.71c0-2.372-2.017-4.302-4.497-4.302zM56.532 2.436a2.09 2.09 0 011.454.577l9.378 8.97c.388.371.602.865.602 1.39 0 1.085-.922 1.966-2.056 1.966h-1.976l-9.458-9.047v-1.89c0-1.084.922-1.966 2.056-1.966zM37.75 16.415c-.694 0-1.26-.541-1.26-1.206 0-.322.131-.624.387-.87 4.631-4.635 9.08-6.526 15.35-6.526h.66l9.458 9.047v2.78c0 3.874-1.577 7.514-4.44 10.254l-6.336 6.06a1.28 1.28 0 01-.891.353c-.695 0-1.26-.54-1.26-1.205 0-.323.131-.625.368-.853l5.349-5.116a3.263 3.263 0 001.027-2.373c0-1.85-1.574-3.356-3.508-3.356-.938 0-1.819.35-2.481.983l-11.531 11.03a1.28 1.28 0 01-.892.353c-.694 0-1.26-.541-1.26-1.206 0-.322.131-.624.369-.852l10.543-10.085-1.59-1.52-6.415 6.136h-.523c-.694 0-1.26-.541-1.26-1.206 0-.322.132-.624.369-.852l7.17-6.86-1.589-1.52-5.291 5.061h-.523c-.694 0-1.26-.54-1.26-1.205 0-.323.131-.625.369-.853l6.046-5.784-1.59-1.52-3.042 2.91h-.523zM67.966 62.65c0 1.186-1.009 2.15-2.249 2.15H5.015c-1.24 0-2.249-.964-2.249-2.15V23.94c0-1.185 1.009-2.15 2.249-2.15h29.24c.054 1.313.89 2.433 2.083 2.937a3.255 3.255 0 00-.972 2.31c0 1.366.861 2.54 2.089 3.063l-2.186 2.09a3.263 3.263 0 00-1.027 2.373c0 .678.215 1.307.576 1.835l-9.57-5.085-11.24 5.973v4.934h2.248v7.527h-2.248v2.15H36.49v-2.15h-2.248V42.22h2.248v-4.534c.392.145.815.233 1.26.233a3.56 3.56 0 002.481-.983l11.531-11.03c.239-.227.555-.352.892-.352.694 0 1.26.54 1.26 1.205 0 .322-.132.625-.369.853l-5.348 5.116a3.263 3.263 0 00-1.028 2.373c0 1.85 1.574 3.356 3.509 3.356.937 0 1.818-.349 2.48-.983l6.336-6.06c2.75-2.631 4.45-5.993 4.938-9.624h1.285c1.24 0 2.249.965 2.249 2.15v38.71zm-38.22-12.903V42.22h2.248v7.527h-2.249zm-8.994-7.527v7.527h-2.248V42.22h2.248zm2.248 0h4.497v7.527H23V42.22zm-6.744-2.15v-1.518l8.993-4.78 8.993 4.78v1.518H16.256z" fill="#000"/><path d="M5.015 42.22h2.248v2.151H5.015v-2.15zm58.452-6.45h2.248v15.053h-2.248V35.77zM14.012 54.049h22.482v2.15H14.012v-2.15zm26.972 0h15.738v2.15H40.984v-2.15zm0-4.302h15.738v2.15H40.984v-2.15zm0-4.3h6.745v2.15h-6.745v-2.15zm8.997 0h6.745v2.15h-6.745v-2.15z" fill="#000"/></svg>