<svg width="70" height="70" fill="none" xmlns="http://www.w3.org/2000/svg"><path d="M45.161 5.645h20.323v18.064H45.16V5.645z" fill="#007A65"/><path d="M70 0H15.806v4.516H4.517A4.521 4.521 0 000 9.032v53.065C0 66.455 3.545 70 7.903 70H47.42v-4.516H70V0zM18.064 2.258h49.678V58.71H18.064v-2.258h22.581a4.521 4.521 0 004.516-4.517V41.671a4.5 4.5 0 00-.758-2.505l-1.5-2.25V9.032a4.521 4.521 0 00-4.516-4.516H18.064V2.258zM2.258 9.032a2.26 2.26 0 012.258-2.258h33.871a2.26 2.26 0 012.258 2.258V37.6l1.879 2.818c.248.372.38.806.38 1.253v10.264a2.26 2.26 0 01-2.259 2.259H7.903a7.88 7.88 0 00-5.645 2.377V9.032zm42.903 58.71H7.903a5.652 5.652 0 01-5.645-5.645 5.652 5.652 0 015.645-5.645h7.904v9.032H45.16v2.258zm-27.097-4.516v-2.258h49.678v2.258H18.064z" fill="#000"/><path d="M38.387 9.032H4.517v20.323h33.87V9.032zm-19.194 9.033a2.26 2.26 0 012.259-2.259 2.26 2.26 0 012.258 2.259 2.26 2.26 0 01-2.258 2.258 2.26 2.26 0 01-2.259-2.258zm2.259 4.516a5.655 5.655 0 015.531 4.516H15.92a5.655 5.655 0 015.532-4.516zm14.677 4.516h-6.856a7.924 7.924 0 00-4.46-6.021 4.497 4.497 0 001.155-3.011 4.521 4.521 0 00-4.516-4.517 4.521 4.521 0 00-4.517 4.517c0 1.155.437 2.211 1.154 3.01a7.924 7.924 0 00-4.459 6.022H6.774V11.29H36.13v15.807zm2.258 4.515H4.517v6.774h33.87v-6.774zm-2.258 4.516H6.774V33.87H36.13v2.258zm-4.516 15.808h6.774V45.16h-6.774v6.775zm2.258-4.516h2.258v2.258H33.87V47.42zM22.58 51.936h6.775V45.16H22.58v6.775zm2.259-4.516h2.258v2.258h-2.258V47.42zm-11.291 4.516h6.775V45.16h-6.775v6.775zm2.258-4.516h2.258v2.258h-2.258V47.42zm-11.29-6.775h2.258v2.258H4.516v-2.258zm4.516 0h29.355v2.258H9.032v-2.258zM47.42 56.452h18.064V42.903H47.419v13.549zm2.258-11.29h13.548v9.032H49.678V45.16zm-2.258-4.517h18.064V27.097H47.419v13.548zm2.258-11.29h13.548v9.032H49.678v-9.032zM45.161 4.516h20.323v2.258H45.16V4.516zm18.065 4.516h2.258v2.258h-2.258V9.032zm-18.065 0h15.807v2.258H45.16V9.032zm0 4.516h4.516v2.258h-4.516v-2.258zm6.774 0h13.549v2.258H51.936v-2.258zm9.033 4.517h4.516v2.258h-4.516v-2.258zm-4.516 0h2.258v2.258h-2.258v-2.258zm-11.291 0h9.032v2.258h-9.032v-2.258zm0 4.515h20.323v2.258H45.16V22.58z" fill="#000"/></svg>