<svg width="70" height="70" fill="none" xmlns="http://www.w3.org/2000/svg"><path d="M4.516 15.806h14.677v4.517H4.517v-4.517zM48.548 5.645v4.516H30.484v9.032h13.548v-4.516H59.84V5.645H48.55z" fill="#007A65"/><path d="M64.355 25.644V0H25.968v25.644l-5.645 9.032v8.227h-3.27a7.94 7.94 0 00-4.937 1.732l-3.48 2.784H0v15.807h8.636l3.48 2.784a7.93 7.93 0 004.937 1.732h3.27V70H70V34.676l-5.645-9.032zm3.14 9.286l-3.14 4.037v-9.062l3.14 5.025zM62.098 2.258V41.87l-6.45 8.292-.601-.08a11.816 11.816 0 01-4.971-1.873l-4.914-3.276-4.913 3.277a11.846 11.846 0 01-4.972 1.873l-.6.08-3.164-4.067c.065-.302.1-.614.1-.935a2.26 2.26 0 00-2.257-2.258h-.325l-.804-1.033V2.258h33.87zM22.58 49.678h4.516c1.28 0 2.43-.541 3.254-1.4l1.747 2.247c-4.013.654-7.416 3-9.516 6.245v-7.093h-.001zm3.387-10.71l-3.141-4.038 3.14-5.025v9.062zm-3.387-.678l3.589 4.613h-3.59V38.29zm-5.528 27.194a5.667 5.667 0 01-3.527-1.237l-4.097-3.28h-7.17v-11.29h7.17l4.098-3.278a5.666 5.666 0 013.526-1.238h12.302a2.26 2.26 0 01-2.258 2.258h-6.113l-1.734 1.735a5.608 5.608 0 01-3.991 1.652h-1.71v2.259h1.71a7.84 7.84 0 005.064-1.84v14.259h-3.27zm50.689 2.258H22.58v-3.387c0-5.873 4.39-10.887 10.21-11.664l2.783-.372a14.111 14.111 0 005.926-2.232l3.661-2.44 3.662 2.441a14.096 14.096 0 005.926 2.233l2.782.37c5.821.777 10.21 5.79 10.21 11.664v3.387zm-9.518-17.218l9.518-12.234v18.479c-2.1-3.245-5.503-5.591-9.518-6.245z" fill="#000"/><path d="M51.935 63.226h2.259v2.258h-2.259v-2.258zm9.033 0h2.258v2.258h-2.258v-2.258zm-4.516 0h2.258v2.258h-2.258v-2.258zm-9.032 0h2.258v2.258h-2.259v-2.258zM3.387 25.968h3.818l1.56 3.122a2.514 2.514 0 002.259 1.394 2.527 2.527 0 002.524-2.524v-1.992h6.775a3.391 3.391 0 003.387-3.387v-9.032a3.391 3.391 0 00-3.387-3.387H3.387A3.391 3.391 0 000 13.549v9.032a3.391 3.391 0 003.387 3.387zm-1.129-12.42a1.13 1.13 0 011.13-1.128h16.935a1.13 1.13 0 011.129 1.129v9.032a1.13 1.13 0 01-1.13 1.129H11.29v4.25c0 .247-.395.34-.504.118L8.6 23.71H3.387a1.13 1.13 0 01-1.129-1.129v-9.032z" fill="#000"/><path d="M4.516 14.677h14.677v2.258H4.517v-2.258zm0 4.517h14.677v2.258H4.517v-2.258zm51.935 18.064v2.258a1.13 1.13 0 011.13 1.129 1.13 1.13 0 01-1.13 1.129 2.51 2.51 0 01-2.258-1.396 2.147 2.147 0 00-2.167-1.182c-.91.1-1.64.737-1.862 1.625l-.16.635c-.089.355-.66.394-.796.054l-1.49-3.723a2.627 2.627 0 00-2.45-1.659c-1.252 0-2.34.892-2.586 2.12l-.642 3.206c-.069.342-.617.4-.755.08l-2.46-5.742a3.166 3.166 0 00-2.913-1.922 3.174 3.174 0 00-3.17 3.17v1.346H35v-1.345a.913.913 0 011.75-.36l2.461 5.74a2.652 2.652 0 002.441 1.61 2.662 2.662 0 002.604-2.134l.64-3.206c.068-.33.6-.378.726-.066l1.489 3.722a2.662 2.662 0 002.486 1.685c1.23 0 2.3-.835 2.598-2.028l.098-.392a4.752 4.752 0 004.158 2.42 3.391 3.391 0 003.388-3.387 3.391 3.391 0 00-3.388-3.388zM48.548 4.515h11.29v2.258h-11.29V4.515zM30.484 9.032h29.355v2.258H30.484V9.032zM35 13.547h24.839v2.258H35v-2.258zm-4.516 0h2.258v2.258h-2.258v-2.258zm0 4.517h13.548v2.258H30.484v-2.258zM48.548 35h11.29v-6.774h-11.29V35zm2.258-4.516h6.775v2.258h-6.775v-2.258z" fill="#000"/></svg>