<svg width="70" height="70" fill="none" xmlns="http://www.w3.org/2000/svg"><path d="M64.355 6.774H39.516a5.652 5.652 0 00-5.645 5.646v25.967h-2.62a3.821 3.821 0 00.362-1.609 3.867 3.867 0 00-2.296-3.532l-4.535-2.016a21.644 21.644 0 00-8.839-1.875 6.87 6.87 0 00-4.886 2.024 6.862 6.862 0 00-2.025 4.887v2.121H3.387A3.391 3.391 0 000 41.774v4.517a3.391 3.391 0 003.387 3.387h5.645v.954c0 1.01.19 1.998.565 2.935l1.304 3.26a3.378 3.378 0 00-1.869 3.012V70h20.323V59.84c0-1.28-.723-2.385-1.774-2.96l.339-.676a13.686 13.686 0 001.435-6.082c0-.149-.018-.294-.024-.443h4.54v12.419a5.652 5.652 0 005.645 5.645h24.839A5.652 5.652 0 0070 62.097V12.42a5.652 5.652 0 00-5.645-5.646zm3.387 5.646v3.387h-11.32a5.587 5.587 0 001.159-3.387V9.032h6.774a3.391 3.391 0 013.387 3.388zm-19.194 0V9.032h6.775v3.388a3.391 3.391 0 01-3.388 3.387 3.391 3.391 0 01-3.387-3.387zm-9.032-3.388h6.774v3.388a5.59 5.59 0 001.159 3.387h-11.32V12.42a3.391 3.391 0 013.387-3.388zM27.413 42.903l-1.026-2.258h9.742v2.258h-8.716zm10.974-1.758l6.448 2.418a.502.502 0 01.001.938l-6.449 2.418v-5.773zm-27.097-4.88a4.62 4.62 0 011.363-3.29 4.689 4.689 0 013.29-1.362c2.746 0 5.412.566 7.923 1.681L28.4 35.31a1.608 1.608 0 01-.653 3.077H25.36l-1.149-2.529a3.393 3.393 0 00-3.084-1.987c-2.66 0-4.849 1.966-5.24 4.516H11.29v-2.121zm-2.258 8.896h8.9l1.128 2.259H9.032v-2.26zm0-2.258v-2.258h6.876c.091.481.24.952.46 1.39l.434.868h-7.77zm-6.774 3.388v-4.517a1.13 1.13 0 011.13-1.129h3.386v6.775H3.387a1.13 1.13 0 01-1.129-1.13zm16.936 3.387v2.258h2.258v-4.783l-3.064-6.127a3.07 3.07 0 01-.324-1.37v-.465a3.066 3.066 0 013.063-3.062c.44 0 .844.259 1.027.663l3.925 8.636a11.264 11.264 0 011.017 4.692 11.4 11.4 0 01-1.198 5.072l-.628 1.26H13.184l-1.49-3.724a5.63 5.63 0 01-.404-2.096v-.954h7.904zm7.903 18.064H11.29V59.84a1.13 1.13 0 011.13-1.13h13.548c.622 0 1.129.507 1.129 1.13v7.903zm1.3-22.58h7.732v2.258h-7.052c-.156-.77-.39-1.521-.68-2.259zm9.065 4.516l8.168-3.063a2.772 2.772 0 001.79-2.583c0-1.142-.72-2.18-1.79-2.583l-8.168-3.062H36.13V18.065h31.613v33.87H36.129v-2.257h1.333zm26.893 15.806H39.516a3.391 3.391 0 01-3.387-3.387v-7.903h31.613v7.903a3.391 3.391 0 01-3.387 3.387z" fill="#000"/><path d="M56.452 56.453h-9.033a2.26 2.26 0 00-2.258 2.258v2.258a2.26 2.26 0 002.258 2.258h9.033a2.26 2.26 0 002.258-2.258v-2.258a2.26 2.26 0 00-2.258-2.258zm-9.033 4.516v-2.258h9.033v2.258H47.42zm4.517-47.419a1.129 1.129 0 100-2.259 1.129 1.129 0 000 2.258zm2.258 6.773H38.387V36.13h15.807V20.323zm-2.258 13.549h-11.29v-11.29h11.29v11.29zm4.516-13.549h9.032v2.258h-9.032v-2.258zm0 4.515h9.032v2.258h-9.032v-2.258zm0 4.517h9.032v2.258h-9.032v-2.258zm0 4.515h9.032v2.258h-9.032V33.87zm-6.774 4.517h15.806v2.258H49.678v-2.258zm0 4.515h15.806v2.258H49.678v-2.258zm0 4.518h15.806v2.257H49.678V47.42zM7.903 20.323h6.307l3.718 3.719c.508.505 1.21.797 1.927.797a2.729 2.729 0 002.726-2.726v-1.79h5.645a3.391 3.391 0 003.387-3.387V3.387A3.391 3.391 0 0028.226 0H7.903a3.391 3.391 0 00-3.387 3.387v13.549a3.391 3.391 0 003.387 3.387zM6.774 3.387a1.13 1.13 0 011.13-1.129h20.322a1.13 1.13 0 011.129 1.13v13.548a1.13 1.13 0 01-1.13 1.128h-7.902v4.05c0 .38-.529.599-.799.33l-4.38-4.38h-7.24a1.13 1.13 0 01-1.13-1.128V3.387z" fill="#000"/><path d="M9.032 4.515h18.065v2.258H9.032V4.515zM22.58 9.032h4.517v2.258H22.58V9.032zm-13.548 0h11.29v2.258H9.033V9.032zm0 4.515h18.065v2.258H9.032v-2.258z" fill="#000"/></svg>