<svg width="167" height="32" fill="none" xmlns="http://www.w3.org/2000/svg"><path d="M1.706 29.596a.5.5 0 10.588.808l-.588-.808zM165 30l-2.397-5.252-3.35 4.702L165 30zm-162.706.404a170.65 170.65 0 012.542-1.81l-.573-.82c-.856.598-1.708 1.205-2.557 1.822l.588.808zm7.724-5.29a159.747 159.747 0 015.31-3.276l-.508-.861a160.585 160.585 0 00-5.343 3.297l.541.84zm10.747-6.338c1.84-.987 3.691-1.932 5.556-2.834l-.436-.9c-1.877.908-3.742 1.86-5.593 2.853l.473.881zm11.229-5.43a139.697 139.697 0 015.78-2.342l-.354-.935a140.374 140.374 0 00-5.822 2.36l.396.918zm11.66-4.42a133.236 133.236 0 015.97-1.802l-.267-.964a133.61 133.61 0 00-6.014 1.816l.31.95zm12.018-3.319c2.028-.457 4.066-.864 6.114-1.222l-.173-.985c-2.064.36-4.118.771-6.161 1.232l.22.975zm12.28-2.144a125.93 125.93 0 016.203-.616l-.074-.997c-2.093.155-4.178.363-6.253.62l.123.993zm12.43-.925A126.22 126.22 0 0183.5 2.5v-1c-1.05 0-2.097.013-3.142.039l.024 1zM83.5 2.5c1.041 0 2.08.013 3.118.038l.025-1A127.181 127.181 0 0083.5 1.5v1zm9.345.347c2.077.154 4.145.36 6.204.616l.123-.992c-2.075-.258-4.16-.466-6.253-.621l-.074.997zm12.37 1.538c2.047.358 4.086.765 6.113 1.222l.22-.975c-2.043-.46-4.097-.872-6.161-1.232l-.172.985zm12.161 2.74c2.001.552 3.991 1.153 5.97 1.802l.311-.95a133.417 133.417 0 00-6.014-1.817l-.267.964zm11.85 3.88a140.02 140.02 0 015.78 2.342l.396-.918a140.22 140.22 0 00-5.822-2.36l-.354.935zm11.453 4.937c1.865.902 3.717 1.847 5.557 2.834l.472-.88a148.515 148.515 0 00-5.594-2.854l-.435.9zm10.992 5.896a159.656 159.656 0 015.311 3.277l.541-.841a159.097 159.097 0 00-5.344-3.297l-.508.861zM1.412 29.191a1 1 0 001.176 1.618l-1.176-1.618zM165 30l-4.794-10.505-6.7 9.404L165 30zm-162.412.81c.841-.612 1.686-1.214 2.534-1.807l-1.145-1.64c-.859.6-1.713 1.21-2.565 1.828l1.176 1.618zm7.7-5.275a159.018 159.018 0 015.295-3.266l-1.017-1.723a161.056 161.056 0 00-5.36 3.308l1.083 1.681zm10.713-6.318c1.833-.984 3.68-1.926 5.538-2.825l-.871-1.8a150.057 150.057 0 00-5.613 2.863l.946 1.762zm11.191-5.411a139.145 139.145 0 015.76-2.334l-.71-1.87c-1.96.743-3.907 1.533-5.842 2.367l.792 1.837zM43.81 9.402a132.167 132.167 0 015.947-1.796l-.533-1.928c-2.024.56-4.036 1.167-6.037 1.823l.623 1.9zm11.972-3.307c2.02-.455 4.05-.861 6.09-1.218l-.345-1.97c-2.072.362-4.134.775-6.185 1.237l.44 1.951zM68.013 3.96c2.05-.255 4.11-.46 6.18-.614l-.15-1.994c-2.1.156-4.193.364-6.277.623l.247 1.985zm12.382-.92C81.428 3.012 82.463 3 83.5 3V1c-1.054 0-2.105.013-3.155.039l.05 2zM83.5 3c1.037 0 2.072.013 3.105.038l.05-1.999C85.605 1.013 84.554 1 83.5 1v2zm9.308.345c2.068.154 4.128.36 6.179.614l.247-1.985a127.253 127.253 0 00-6.278-.623l-.148 1.994zm12.32 1.532c2.04.357 4.07.763 6.09 1.218l.44-1.95a129.424 129.424 0 00-6.185-1.238l-.345 1.97zm12.115 2.729c1.993.55 3.976 1.15 5.947 1.796l.623-1.9a134.034 134.034 0 00-6.037-1.824l-.533 1.928zm11.805 3.866a136.58 136.58 0 015.76 2.334l.792-1.837a141.295 141.295 0 00-5.842-2.367l-.71 1.87zm11.413 4.92a146.47 146.47 0 015.538 2.825l.946-1.762a149.991 149.991 0 00-5.613-2.863l-.871 1.8zm10.956 5.877a158.808 158.808 0 015.294 3.266l1.083-1.681a160.918 160.918 0 00-5.36-3.308l-1.017 1.723z" fill="#007A65"/></svg>