<svg width="167" height="32" fill="none" xmlns="http://www.w3.org/2000/svg"><path d="M1.706 2.405a.5.5 0 11.588-.81l-.588.81zM165 2l-2.397 5.252-3.35-4.702L165 2zM2.294 1.595a166.29 166.29 0 002.542 1.812l-.573.82a171.522 171.522 0 01-2.557-1.822l.588-.81zm7.724 5.29a159.713 159.713 0 005.31 3.277l-.508.861a160.601 160.601 0 01-5.343-3.297l.541-.84zm10.747 6.339c1.84.987 3.691 1.932 5.556 2.834l-.436.9a149.586 149.586 0 01-5.593-2.853l.473-.881zm11.229 5.43a142.29 142.29 0 005.78 2.342l-.354.935a140.662 140.662 0 01-5.822-2.36l.396-.918zm11.66 4.42a132.75 132.75 0 005.97 1.802l-.267.964a133.7 133.7 0 01-6.014-1.816l.31-.95zm12.018 3.319c2.028.457 4.066.864 6.114 1.222l-.173.985c-2.064-.36-4.118-.771-6.161-1.232l.22-.975zm12.28 2.144c2.058.256 4.126.462 6.203.616l-.074.998a126.941 126.941 0 01-6.253-.622l.123-.992zm12.43.925c1.037.025 2.077.038 3.118.038v1c-1.05 0-2.097-.013-3.142-.039l.024-1zm3.118.038c1.041 0 2.08-.013 3.118-.038l.025 1c-1.046.025-2.094.038-3.143.038v-1zm9.345-.347a125.82 125.82 0 006.204-.616l.123.992c-2.075.259-4.16.466-6.253.622l-.074-.998zm12.37-1.538c2.047-.358 4.086-.765 6.113-1.222l.22.975c-2.043.46-4.097.872-6.161 1.232l-.172-.985zm12.161-2.74a132.72 132.72 0 005.97-1.802l.311.95a133.507 133.507 0 01-6.014 1.817l-.267-.964zm11.85-3.88a140.02 140.02 0 005.78-2.342l.396.919a140.22 140.22 0 01-5.822 2.359l-.354-.935zm11.453-4.937a148.676 148.676 0 005.557-2.834l.472.88a148.515 148.515 0 01-5.594 2.854l-.435-.9zm10.992-5.896a159.589 159.589 0 005.311-3.277l.541.841a160.114 160.114 0 01-5.344 3.297l-.508-.861zM1.412 2.809a1 1 0 011.176-1.618L1.412 2.809zM165 2l-4.794 10.505-6.7-9.404L165 2zM2.588 1.19c.841.612 1.686 1.214 2.534 1.807l-1.145 1.64c-.859-.6-1.713-1.21-2.565-1.828l1.176-1.618zm7.7 5.275a159.018 159.018 0 005.295 3.266l-1.017 1.723a160.99 160.99 0 01-5.36-3.308l1.083-1.681zm10.713 6.318c1.833.984 3.68 1.926 5.538 2.825l-.871 1.8a150.057 150.057 0 01-5.613-2.863l.946-1.762zm11.191 5.411c1.908.823 3.828 1.602 5.76 2.334l-.71 1.87a141.019 141.019 0 01-5.842-2.367l.792-1.837zm11.618 4.404c1.971.646 3.954 1.245 5.947 1.796l-.533 1.928a134.059 134.059 0 01-6.037-1.823l.623-1.9zm11.972 3.307c2.02.455 4.05.861 6.09 1.218l-.345 1.97a129.676 129.676 0 01-6.185-1.237l.44-1.951zm12.231 2.136c2.05.255 4.11.46 6.18.614l-.15 1.994a127.331 127.331 0 01-6.277-.623l.247-1.985zm12.382.92c1.033.026 2.068.039 3.105.039v2c-1.054 0-2.105-.013-3.155-.039l.05-2zM83.5 29c1.037 0 2.072-.013 3.105-.038l.05 2c-1.05.025-2.101.038-3.155.038v-2zm9.308-.345a127.03 127.03 0 006.179-.614l.247 1.985c-2.084.259-4.176.467-6.278.623l-.148-1.994zm12.32-1.532c2.04-.357 4.07-.763 6.09-1.218l.44 1.95a129.56 129.56 0 01-6.185 1.238l-.345-1.97zm12.115-2.73a131.96 131.96 0 005.947-1.795l.623 1.9a134.008 134.008 0 01-6.037 1.824l-.533-1.928zm11.805-3.865a136.58 136.58 0 005.76-2.334l.792 1.837a141.337 141.337 0 01-5.842 2.367l-.71-1.87zm11.413-4.92a146.47 146.47 0 005.538-2.825l.946 1.762a149.991 149.991 0 01-5.613 2.863l-.871-1.8zm10.956-5.877a158.825 158.825 0 005.294-3.266l1.083 1.681a160.852 160.852 0 01-5.36 3.308l-1.017-1.723z" fill="#007A65"/></svg>