<svg width="72" height="80" fill="none" xmlns="http://www.w3.org/2000/svg"><path d="M35.86 69.317c.614.436 1.322.57 2.048.386a2.94 2.94 0 00.66-.262c.161.361.42.708.81 1.028 1.584 1.303 4.06.863 5.475-.487.22-.209.41-.434.572-.672 1.345.702 3.728 1.105 7.877-.101a1.172 1.172 0 10-.655-2.252c-5.274 1.533-6.528.045-6.676-.17-.16-.556-.688-.853-1.267-.773-.591.082-1.006.659-.99 1.255.011.475-.296.841-.48 1.017-.436.417-1.06.65-1.624.61-.32-.022-.584-.107-.743-.238-.31-.256-.193-.725.548-2.181.235-.46.477-.937.659-1.42a1.173 1.173 0 00-2.15-.93c-.453.92-.993 1.847-1.688 2.608-.4.438-1.313 1.127-1.191-.017.113-1.067.816-1.93 1.392-2.79.401-.597.856-1.275 1.307-1.635a1.173 1.173 0 10-1.464-1.831c-.683.545-1.36 1.09-2.033 1.634-2.566 2.072-4.99 4.028-7.683 5.863a1.172 1.172 0 001.32 1.938c1.68-1.145 3.288-2.36 4.849-3.586a5.106 5.106 0 00-.02.159c-.13 1.219.277 2.23 1.146 2.847zM7.908 11.1h34.808a1.172 1.172 0 100-2.345H7.908a1.172 1.172 0 100 2.345zm0 6.227h31.934a1.173 1.173 0 000-2.345H7.908a1.172 1.172 0 100 2.345zm0 6.227h31.934a1.173 1.173 0 000-2.345H7.908a1.173 1.173 0 000 2.345zm0 6.227h34.808a1.173 1.173 0 000-2.345H7.908a1.173 1.173 0 000 2.345zm0 6.227H45.42a1.173 1.173 0 000-2.345H7.908a1.172 1.172 0 100 2.345zm0 6.227H50.54a1.172 1.172 0 100-2.345H7.908a1.172 1.172 0 100 2.345zm0 6.227H50.54a1.172 1.172 0 100-2.345H7.908a1.173 1.173 0 000 2.345zm0 6.228H50.54a1.172 1.172 0 100-2.345H7.908a1.173 1.173 0 000 2.345z" fill="#007A65"/><path d="M60.537 9.442V2.636A2.64 2.64 0 0057.901 0H2.981A2.64 2.64 0 00.345 2.636v74.728A2.64 2.64 0 002.98 80h15.956a1.172 1.172 0 100-2.345H2.981a.292.292 0 01-.291-.292V2.636c0-.16.13-.291.291-.291h54.92c.16 0 .291.13.291.291v6.806a12.158 12.158 0 00-6.25 2.437 1.172 1.172 0 101.417 1.868 9.854 9.854 0 016.006-2.017c5.483 0 9.945 4.46 9.945 9.944 0 5.484-4.462 9.945-9.945 9.945-5.484 0-9.945-4.46-9.945-9.945a9.86 9.86 0 01.91-4.162 1.173 1.173 0 00-2.129-.983 12.19 12.19 0 00-1.126 5.145c0 6.381 4.89 11.64 11.117 12.233v43.457c0 .16-.13.291-.291.291H24.382a1.172 1.172 0 100 2.345h33.519a2.64 2.64 0 002.636-2.636V33.907c6.229-.593 11.117-5.852 11.117-12.233 0-6.38-4.888-11.64-11.117-12.232z" fill="#007A65"/><path d="M53.432 24.228c1.6 1.923 2.588 3.03 3.222 3.378.443.243.953.36 1.471.36.8 0 1.619-.279 2.241-.812.09-.077.275-.236 5.332-6.233a3.33 3.33 0 00.797-2.44 3.333 3.333 0 00-1.162-2.29 3.359 3.359 0 00-4.73.364l-2.45 2.86a3.46 3.46 0 00-2.368-1.177 3.295 3.295 0 00-2.436.824 3.372 3.372 0 00-.317 4.689c.094.11.232.276.4.477zm1.476-3.414a.97.97 0 01.719-.236c.293.02.57.157.757.376l.58.677a1.564 1.564 0 002.377 0l3.042-3.55a1.011 1.011 0 011.424-.11c.423.363.472 1.002.104 1.432-1.783 2.114-4.69 5.546-5.102 5.996-.276.21-.762.287-1.018.156-.462-.31-2.038-2.203-2.557-2.827-.177-.212-.322-.387-.422-.503a1.015 1.015 0 01.096-1.411z" fill="#007A65"/></svg>