<svg width="80" height="80" fill="none" xmlns="http://www.w3.org/2000/svg"><g clip-path="url(#clip0_247_1127)" fill="#007A65"><path d="M59.184 32.713c-.17-.35-.242-.74-.21-1.129L60.1 17.968a5.018 5.018 0 00-1.557-4.076 5.02 5.02 0 00-4.153-1.336 9.452 9.452 0 00-3.333 1.12 5.994 5.994 0 00-8.687-1.072l-9.164 7.67v-1.716c0-.128.038-.251.11-.357l1.9-2.781a1.17 1.17 0 00-1.932-1.32l-1.9 2.78a2.96 2.96 0 00-.518 1.678v3.674l-7.293 6.104V17.314a6.21 6.21 0 011.088-3.52l6.693-9.796a3.622 3.622 0 012.337-1.526 3.622 3.622 0 012.73.573 3.622 3.622 0 011.527 2.336 3.622 3.622 0 01-.573 2.732L36.147 9.91a1.17 1.17 0 001.933 1.32l1.228-1.797a5.947 5.947 0 00.94-4.484 5.948 5.948 0 00-2.506-3.836 5.947 5.947 0 00-4.484-.94 5.948 5.948 0 00-3.836 2.505l-6.694 9.795a8.546 8.546 0 00-1.495 4.841v12.98l-3.51 2.938a10.202 10.202 0 00-3.617 8.608l.745 9.472a1.17 1.17 0 102.334-.183l-.745-9.472a7.858 7.858 0 012.785-6.63l24.647-20.628a3.65 3.65 0 015.137.452 3.65 3.65 0 01-.453 5.137L35.726 30.74a5.262 5.262 0 00-2.22 1.151l-6.272 5.459a1.17 1.17 0 001.537 1.765l6.27-5.458a2.883 2.883 0 013.785-.022l9.484 8.067a3.622 3.622 0 011.272 2.484 3.621 3.621 0 01-.857 2.656 3.646 3.646 0 01-1.747 1.132l-6.636-5.644a5.21 5.21 0 00-6.837.039l-6.27 5.458a1.17 1.17 0 001.536 1.766l6.271-5.459a2.883 2.883 0 013.784-.022l9.484 8.068a3.623 3.623 0 011.272 2.484 3.622 3.622 0 01-.857 2.656 3.622 3.622 0 01-2.484 1.272 3.622 3.622 0 01-2.656-.858l-5.87-4.993a1.17 1.17 0 00-1.586.064l-1.743 1.742a1.17 1.17 0 001.655 1.655l.98-.98 5.048 4.295a5.94 5.94 0 004.36 1.407 5.948 5.948 0 004.079-2.088 5.947 5.947 0 001.407-4.36 5.948 5.948 0 00-2.089-4.08l-.872-.741a5.986 5.986 0 001.554-1.297 5.994 5.994 0 00-.682-8.439l-4.205-3.577 2.542-12.971 1.897-1.59a5.948 5.948 0 002.118-4.063 6 6 0 00-.137-1.905 7.096 7.096 0 012.667-.939 2.689 2.689 0 012.226.716 2.69 2.69 0 01.834 2.184l-1.126 13.617a4.524 4.524 0 00.435 2.34l2.084 4.31a20.314 20.314 0 01.243 17.202l-1.34 2.984a1.17 1.17 0 102.136.959l1.34-2.984a22.649 22.649 0 00-.272-19.18l-2.084-4.309zm-15.607 1.891l-3.235-2.752a5.309 5.309 0 00-1.317-.823l6.284-5.266-1.732 8.841zm13.981 27.609a1.17 1.17 0 00-1.547.588l-2.997 6.674a1.17 1.17 0 00-.103.48v8.875a1.17 1.17 0 102.34 0v-8.625l2.895-6.446a1.17 1.17 0 00-.588-1.546zM50.764 7.282a1.17 1.17 0 001.17-1.17V1.17a1.17 1.17 0 10-2.34 0v4.942c0 .646.524 1.17 1.17 1.17zm4.996 1.164a1.17 1.17 0 001.592-.453l2.404-4.317a1.17 1.17 0 00-2.045-1.14l-2.405 4.318a1.17 1.17 0 00.453 1.592zm9.988-.386a1.17 1.17 0 00-1.61-.38l-4.202 2.603a1.17 1.17 0 001.232 1.99L65.37 9.67c.55-.34.719-1.061.378-1.61zM20.985 64.063a16.22 16.22 0 01-3.389-8.003 1.171 1.171 0 00-2.32.302 18.56 18.56 0 003.878 9.158l4.828 6.068v7.166a1.17 1.17 0 102.34 0v-7.575c0-.265-.09-.522-.254-.729l-5.083-6.387z"/></g><defs><clipPath id="clip0_247_1127"><path fill="#fff" d="M0 0h80v80H0z"/></clipPath></defs></svg>