<svg width="72" height="80" fill="none" xmlns="http://www.w3.org/2000/svg"><path d="M70.771 53.724c-.647 0-1.172.525-1.172 1.173v13.495a2.311 2.311 0 01-2.309 2.309H33.513v-3.447c0-.353-.07-.802-.305-1.296 1.452-.533 2.65-1.183 3.477-1.95h2.364a3.417 3.417 0 003.413-3.413 3.417 3.417 0 00-3.413-3.413h-1.116v-2.257c0-.026 0-.053-.002-.08h1.118a3.417 3.417 0 003.413-3.413 3.417 3.417 0 00-3.413-3.412h-2.904c-1.06 0-2.01.486-2.636 1.248.002-.041.004-.082.004-.124V44.44a3.408 3.408 0 002.632 1.243h2.904a3.417 3.417 0 003.413-3.413 3.417 3.417 0 00-3.413-3.413h-1.116V34.28h1.116a3.417 3.417 0 003.413-3.413 3.417 3.417 0 00-3.413-3.413h-2.904c-.929 0-1.81.384-2.445 1.035-3.221-1.296-7.874-1.96-12.496-1.96-1.467 0-2.938.067-4.365.2V4.654a2.311 2.311 0 012.309-2.309h9.49a1.173 1.173 0 000-2.345h-9.49a4.66 4.66 0 00-4.654 4.654v22.36c-5.598.846-10.018 2.794-10.018 5.77v5.439C.834 39.63.056 41.369.056 42.596v6.548c0 1.938 1.873 3.44 4.725 4.485a2.996 2.996 0 00-.305 1.296v6.548c0 .456.104.887.3 1.294-3.86 1.405-4.72 3.183-4.72 4.487v6.548c0 3.902 7.354 5.756 13.652 6.158a1.173 1.173 0 00.15-2.34C5.86 77.109 2.4 74.844 2.4 73.802v-3.19c3.078 1.912 8.754 2.897 14.383 2.897 5.63 0 11.305-.985 14.383-2.897v3.19c0 1.169-4.043 3.456-12.098 3.854A1.173 1.173 0 1019.184 80c7.132-.352 14.329-2.405 14.329-6.197v-.755H67.29a4.66 4.66 0 004.654-4.654V54.897c0-.648-.525-1.173-1.173-1.173zm-32.838 7.749v-1.945h1.116a1.068 1.068 0 010 2.135h-1.122a2.91 2.91 0 00.006-.19zm-1.788-11.108h2.904a1.068 1.068 0 010 2.135h-2.237c-.418-.416-.979-.831-1.72-1.232.08-.51.52-.903 1.053-.903zm-.557 4.56c0 .466-.79 1.513-3.748 2.48-2.824.922-6.6 1.43-10.635 1.43-9.307 0-14.383-2.583-14.383-3.91 0-.203.13-.416.28-.594 2.854.708 6.276 1.069 9.682 1.069 5.804 0 11.658-1.048 14.663-3.078 3.265.989 4.14 2.127 4.14 2.603zm3.46-13.723a1.068 1.068 0 010 2.135h-2.903c-.362 0-.681-.181-.874-.457.867-.494 1.554-1.053 2.013-1.678h1.765zM36.146 29.8h2.904a1.068 1.068 0 010 2.135h-1.243c-.242-.798-.822-1.51-1.665-2.135h.004zm-25.576.506c2.824-.923 6.6-1.431 10.635-1.431 9.307 0 14.384 2.583 14.384 3.91 0 .466-.79 1.513-3.748 2.48-2.824.922-6.6 1.43-10.636 1.43-9.306 0-14.383-2.583-14.383-3.91 0-.466.79-1.513 3.748-2.48zm-3.748 5.838c3.079 1.911 8.754 2.897 14.383 2.897 5.63 0 11.305-.986 14.383-2.897v3.19c0 .366-.488 1.091-2.136 1.855l-.013.005a14.7 14.7 0 01-1.598.619c-2.824.922-6.6 1.43-10.636 1.43-9.306 0-14.383-2.583-14.383-3.91v-3.19zm-2.042 4.49c1.575 3.258 9.04 4.954 16.424 4.954 1.916 0 3.836-.115 5.658-.34-2.755.811-6.331 1.258-10.078 1.258-9.306 0-14.383-2.583-14.383-3.91 0-.485.744-1.244 2.379-1.962zm-2.38 8.51v-3.19c3.078 1.912 8.754 2.898 14.383 2.898 5.309 0 11.202-.92 14.383-2.894v3.186c0 .466-.79 1.513-3.748 2.48-2.823.922-6.6 1.43-10.635 1.43-9.306 0-14.383-2.583-14.383-3.91zm25.018 20.589c-2.823.923-6.6 1.43-10.635 1.43-9.306 0-14.383-2.582-14.383-3.91 0-.657 1.298-1.74 4.141-2.603 3.005 2.03 8.858 3.078 14.663 3.078 3.405 0 6.828-.36 9.683-1.069.148.177.28.39.28.594 0 .467-.79 1.513-3.748 2.48zm4.42-5.78c-2.823.922-6.6 1.43-10.635 1.43-9.306 0-14.383-2.583-14.383-3.91v-3.19c3.079 1.912 8.754 2.897 14.383 2.897 5.63 0 11.305-.985 14.383-2.897v3.19c0 .466-.789 1.513-3.747 2.48zM67.29 0H33.981a1.173 1.173 0 000 2.345h33.31a2.311 2.311 0 012.308 2.309v44.899a1.173 1.173 0 102.345 0v-44.9A4.66 4.66 0 0067.29 0z" fill="#007A65"/><path d="M65.192 9.581c0-.648-.524-1.173-1.172-1.173H22.418c-.648 0-1.173.525-1.173 1.173v11.527c0 .648.525 1.172 1.173 1.172H64.02c.648 0 1.173-.524 1.173-1.172V9.58zm-2.345 10.354H23.59v-9.181h39.257v9.181zm-12.554 7.519h-2.904a3.417 3.417 0 00-3.412 3.412 3.417 3.417 0 003.412 3.413h2.904a3.417 3.417 0 003.413-3.413 3.417 3.417 0 00-3.413-3.412zm0 4.48h-2.904a1.069 1.069 0 010-2.135h2.904a1.068 1.068 0 010 2.135zm11.244-4.48h-2.904a3.417 3.417 0 00-3.412 3.412 3.417 3.417 0 003.413 3.413h2.903a3.417 3.417 0 003.413-3.413 3.417 3.417 0 00-3.413-3.412zm0 4.48h-2.904a1.068 1.068 0 010-2.135h2.904a1.068 1.068 0 010 2.135zm-11.244 6.922h-2.904a3.417 3.417 0 00-3.412 3.413 3.417 3.417 0 003.412 3.413h2.904a3.417 3.417 0 003.413-3.413 3.417 3.417 0 00-3.413-3.413zm0 4.48h-2.904a1.069 1.069 0 010-2.134h2.904a1.068 1.068 0 010 2.135zm11.244-4.48h-2.904a3.417 3.417 0 00-3.412 3.413 3.417 3.417 0 003.413 3.413h2.903a3.417 3.417 0 003.413-3.413 3.417 3.417 0 00-3.413-3.413zm0 4.48h-2.904a1.068 1.068 0 010-2.134h2.904a1.068 1.068 0 010 2.135zM50.293 48.02h-2.904a3.417 3.417 0 00-3.412 3.412 3.417 3.417 0 003.412 3.413h2.904a3.417 3.417 0 003.413-3.413 3.417 3.417 0 00-3.413-3.413zm0 4.48h-2.904a1.069 1.069 0 010-2.135h2.904a1.068 1.068 0 010 2.135zm11.244-4.48h-2.904a3.417 3.417 0 00-3.412 3.412 3.417 3.417 0 003.413 3.413h2.903a3.417 3.417 0 003.413-3.413 3.417 3.417 0 00-3.413-3.413zm0 4.48h-2.904a1.069 1.069 0 010-2.135h2.904a1.068 1.068 0 010 2.135zm-11.244 4.682h-2.904a3.417 3.417 0 00-3.412 3.413 3.417 3.417 0 003.412 3.413h2.904a3.417 3.417 0 003.413-3.413 3.417 3.417 0 00-3.413-3.413zm0 4.48h-2.904a1.069 1.069 0 010-2.135h2.904a1.068 1.068 0 010 2.136zm11.244-4.48h-2.904a3.417 3.417 0 00-3.412 3.413 3.417 3.417 0 003.413 3.413h2.903a3.417 3.417 0 003.413-3.413 3.417 3.417 0 00-3.413-3.413zm0 4.48h-2.904a1.069 1.069 0 010-2.134h2.904a1.068 1.068 0 010 2.135zM10.696 23.153H6.731a1.173 1.173 0 100 2.345h3.965a1.173 1.173 0 100-2.345zm0-3.633H6.731a1.173 1.173 0 100 2.345h3.965a1.173 1.173 0 100-2.346zm-.008-4.032a1.173 1.173 0 100 2.345h.016c.648 0 1.165-.525 1.165-1.173a1.18 1.18 0 00-1.18-1.172z" fill="#007A65"/></svg>