<svg width="56" height="56" viewBox="0 0 56 56" fill="none" xmlns="http://www.w3.org/2000/svg">
<g clip-path="url(#clip0_4024_6871)">
<path d="M3.49609 5.12734V55.1674" stroke="#007A65" stroke-width="1.6" stroke-miterlimit="10" stroke-linecap="round" stroke-linejoin="round"/>
<path d="M6.10254 4.4757L3.84932 1.01224C3.68307 0.756628 3.30868 0.756628 3.14243 1.01224L0.8892 4.4757C0.706763 4.75624 0.908013 5.12735 1.2427 5.12735H5.74904C6.08362 5.12735 6.28498 4.75624 6.10254 4.4757Z" stroke="#007A65" stroke-width="1.6" stroke-miterlimit="10" stroke-linecap="round" stroke-linejoin="round"/>
<path d="M51.5247 55.1108L54.9882 52.8576C55.2438 52.6913 55.2438 52.3169 54.9882 52.1507L51.5247 49.8975C51.2442 49.715 50.873 49.9164 50.873 50.251V54.7573C50.873 55.092 51.2442 55.2932 51.5247 55.1108Z" stroke="#007A65" stroke-width="1.6" stroke-miterlimit="10" stroke-linecap="round" stroke-linejoin="round"/>
<path d="M1.72461 10.0131H3.49549" stroke="#007A65" stroke-width="1.6" stroke-miterlimit="10" stroke-linecap="round" stroke-linejoin="round"/>
<path d="M1.72461 16.0044H3.49549" stroke="#007A65" stroke-width="1.6" stroke-miterlimit="10" stroke-linecap="round" stroke-linejoin="round"/>
<path d="M1.72461 21.9958H3.49549" stroke="#007A65" stroke-width="1.6" stroke-miterlimit="10" stroke-linecap="round" stroke-linejoin="round"/>
<path d="M1.72461 27.9872H3.49549" stroke="#007A65" stroke-width="1.6" stroke-miterlimit="10" stroke-linecap="round" stroke-linejoin="round"/>
<path d="M1.72461 33.9785H3.49549" stroke="#007A65" stroke-width="1.6" stroke-miterlimit="10" stroke-linecap="round" stroke-linejoin="round"/>
<path d="M1.72461 39.9701H3.49549" stroke="#007A65" stroke-width="1.6" stroke-miterlimit="10" stroke-linecap="round" stroke-linejoin="round"/>
<path d="M1.72461 45.9614H3.49549" stroke="#007A65" stroke-width="1.6" stroke-miterlimit="10" stroke-linecap="round" stroke-linejoin="round"/>
<path d="M50.8731 52.5041H0.833008" stroke="#007A65" stroke-width="1.6" stroke-miterlimit="10" stroke-linecap="round" stroke-linejoin="round"/>
<path d="M45.9873 54.2752V52.5042" stroke="#007A65" stroke-width="1.6" stroke-miterlimit="10" stroke-linecap="round" stroke-linejoin="round"/>
<path d="M39.9951 54.2752V52.5042" stroke="#007A65" stroke-width="1.6" stroke-miterlimit="10" stroke-linecap="round" stroke-linejoin="round"/>
<path d="M34.0039 54.2752V52.5042" stroke="#007A65" stroke-width="1.6" stroke-miterlimit="10" stroke-linecap="round" stroke-linejoin="round"/>
<path d="M28.0127 54.2752V52.5042" stroke="#007A65" stroke-width="1.6" stroke-miterlimit="10" stroke-linecap="round" stroke-linejoin="round"/>
<path d="M22.0215 54.2752V52.5042" stroke="#007A65" stroke-width="1.6" stroke-miterlimit="10" stroke-linecap="round" stroke-linejoin="round"/>
<path d="M16.0303 54.2752V52.5042" stroke="#007A65" stroke-width="1.6" stroke-miterlimit="10" stroke-linecap="round" stroke-linejoin="round"/>
<path d="M10.0391 54.2752V52.5042" stroke="#007A65" stroke-width="1.6" stroke-miterlimit="10" stroke-linecap="round" stroke-linejoin="round"/>
<path d="M35.2267 23.2852H32.782C32.7318 23.2852 32.682 23.2951 32.6356 23.3143C32.5892 23.3335 32.547 23.3617 32.5115 23.3972C32.4759 23.4328 32.4478 23.4749 32.4285 23.5214C32.4093 23.5678 32.3994 23.6175 32.3994 23.6678V26.3153C32.3994 26.4168 32.4397 26.5141 32.5115 26.5859C32.5832 26.6576 32.6805 26.698 32.782 26.698H35.2267C35.277 26.698 35.3268 26.6881 35.3732 26.6689C35.4196 26.6496 35.4618 26.6214 35.4973 26.5859C35.5329 26.5504 35.561 26.5082 35.5803 26.4617C35.5995 26.4153 35.6094 26.3655 35.6093 26.3153V23.6678C35.6094 23.6175 35.5995 23.5678 35.5802 23.5213C35.561 23.4749 35.5328 23.4327 35.4973 23.3972C35.4618 23.3617 35.4196 23.3335 35.3732 23.3143C35.3268 23.2951 35.277 23.2852 35.2267 23.2852Z" stroke="#007A65" stroke-width="1.6" stroke-miterlimit="10" stroke-linecap="round" stroke-linejoin="round"/>
<path d="M47.2092 11.2573H44.7644C44.663 11.2573 44.5657 11.2976 44.4939 11.3693C44.4222 11.4411 44.3819 11.5384 44.3818 11.6398V20.2553C44.3819 20.3567 44.4222 20.454 44.4939 20.5258C44.5657 20.5975 44.663 20.6378 44.7644 20.6379H47.2092C47.2594 20.6379 47.3092 20.628 47.3556 20.6088C47.402 20.5895 47.4442 20.5613 47.4797 20.5258C47.5152 20.4903 47.5434 20.4481 47.5626 20.4017C47.5819 20.3553 47.5918 20.3055 47.5918 20.2553V11.6398C47.5918 11.5896 47.5819 11.5398 47.5626 11.4934C47.5434 11.447 47.5152 11.4048 47.4797 11.3693C47.4442 11.3338 47.402 11.3056 47.3556 11.2864C47.3092 11.2671 47.2594 11.2573 47.2092 11.2573Z" stroke="#007A65" stroke-width="1.6" stroke-miterlimit="10" stroke-linecap="round" stroke-linejoin="round"/>
<path d="M41.218 17.3357H38.7732C38.6718 17.3358 38.5745 17.3761 38.5027 17.4478C38.431 17.5196 38.3907 17.6169 38.3906 17.7183V26.3338C38.3907 26.4352 38.431 26.5325 38.5027 26.6042C38.5745 26.676 38.6718 26.7163 38.7732 26.7164H41.218C41.3194 26.7163 41.4167 26.676 41.4885 26.6043C41.5602 26.5325 41.6005 26.4352 41.6006 26.3338V17.7183C41.6006 17.6681 41.5907 17.6183 41.5714 17.5719C41.5522 17.5255 41.524 17.4833 41.4885 17.4478C41.453 17.4123 41.4108 17.3841 41.3644 17.3649C41.318 17.3456 41.2682 17.3357 41.218 17.3357Z" stroke="#007A65" stroke-width="1.6" stroke-miterlimit="10" stroke-linecap="round" stroke-linejoin="round"/>
<path d="M29.2354 23.2852H26.7908C26.7405 23.2852 26.6908 23.295 26.6444 23.3143C26.5979 23.3335 26.5558 23.3617 26.5202 23.3972C26.4847 23.4327 26.4565 23.4749 26.4373 23.5213C26.4181 23.5678 26.4082 23.6175 26.4082 23.6678V32.2832C26.4082 32.3847 26.4486 32.482 26.5203 32.5537C26.592 32.6255 26.6893 32.6658 26.7908 32.6658H29.2354C29.3369 32.6658 29.4342 32.6255 29.506 32.5538C29.5778 32.482 29.6181 32.3847 29.6181 32.2832V23.6678C29.6181 23.6175 29.6083 23.5677 29.589 23.5213C29.5698 23.4749 29.5416 23.4327 29.5061 23.3972C29.4705 23.3616 29.4283 23.3335 29.3819 23.3142C29.3355 23.295 29.2857 23.2851 29.2354 23.2852Z" stroke="#007A65" stroke-width="1.6" stroke-miterlimit="10" stroke-linecap="round" stroke-linejoin="round"/>
<path d="M17.2521 29.4959H14.8074C14.7059 29.4959 14.6086 29.5363 14.5369 29.608C14.4651 29.6798 14.4248 29.7771 14.4248 29.8786V38.1619C14.4248 38.2633 14.4652 38.3606 14.5369 38.4324C14.6086 38.5041 14.7059 38.5444 14.8074 38.5445H17.2521C17.3536 38.5445 17.4509 38.5042 17.5227 38.4324C17.5944 38.3607 17.6347 38.2633 17.6347 38.1619V29.8786C17.6347 29.8283 17.6249 29.7786 17.6056 29.7322C17.5864 29.6857 17.5582 29.6435 17.5227 29.608C17.4872 29.5725 17.445 29.5443 17.3986 29.525C17.3522 29.5058 17.3024 29.4959 17.2521 29.4959Z" stroke="#007A65" stroke-width="1.6" stroke-miterlimit="10" stroke-linecap="round" stroke-linejoin="round"/>
<path d="M10.0386 35.6574H8.81619C8.71473 35.6574 8.61743 35.6978 8.54568 35.7695C8.47394 35.8412 8.43362 35.9385 8.43359 36.04V44.3233C8.43359 44.4247 8.4739 44.5221 8.54565 44.5938C8.6174 44.6656 8.71472 44.7059 8.81619 44.7059H11.2609C11.3112 44.7059 11.3609 44.696 11.4073 44.6767C11.4538 44.6575 11.4959 44.6293 11.5315 44.5938C11.567 44.5583 11.5952 44.5161 11.6144 44.4697C11.6336 44.4233 11.6435 44.3735 11.6435 44.3233V36.04C11.6435 35.9385 11.6032 35.8412 11.5314 35.7695C11.4597 35.6978 11.3624 35.6574 11.2609 35.6574H10.0386Z" stroke="#007A65" stroke-width="1.6" stroke-miterlimit="10" stroke-linecap="round" stroke-linejoin="round"/>
<path d="M34.0039 23.2852V21.9958" stroke="#007A65" stroke-width="1.6" stroke-miterlimit="10" stroke-linecap="round" stroke-linejoin="round"/>
<path d="M34.0039 27.9872V26.6979" stroke="#007A65" stroke-width="1.6" stroke-miterlimit="10" stroke-linecap="round" stroke-linejoin="round"/>
<path d="M10.0391 35.6574V33.9784" stroke="#007A65" stroke-width="1.6" stroke-miterlimit="10" stroke-linecap="round" stroke-linejoin="round"/>
<path d="M10.0391 45.9614V44.8168" stroke="#007A65" stroke-width="1.6" stroke-miterlimit="10" stroke-linecap="round" stroke-linejoin="round"/>
<path d="M16.0303 29.496V27.9872" stroke="#007A65" stroke-width="1.6" stroke-miterlimit="10" stroke-linecap="round" stroke-linejoin="round"/>
<path d="M16.0303 39.9701V38.5446" stroke="#007A65" stroke-width="1.6" stroke-miterlimit="10" stroke-linecap="round" stroke-linejoin="round"/>
<path d="M28.0127 23.2852V21.9959" stroke="#007A65" stroke-width="1.6" stroke-miterlimit="10" stroke-linecap="round" stroke-linejoin="round"/>
<path d="M28.0127 33.9785V32.6657" stroke="#007A65" stroke-width="1.6" stroke-miterlimit="10" stroke-linecap="round" stroke-linejoin="round"/>
<path d="M39.9951 17.3358V16.0044" stroke="#007A65" stroke-width="1.6" stroke-miterlimit="10" stroke-linecap="round" stroke-linejoin="round"/>
<path d="M39.9951 27.9872V26.6979" stroke="#007A65" stroke-width="1.6" stroke-miterlimit="10" stroke-linecap="round" stroke-linejoin="round"/>
<path d="M45.9873 11.257V10.013" stroke="#007A65" stroke-width="1.6" stroke-miterlimit="10" stroke-linecap="round" stroke-linejoin="round"/>
<path d="M45.9873 21.9957V20.6377" stroke="#007A65" stroke-width="1.6" stroke-miterlimit="10" stroke-linecap="round" stroke-linejoin="round"/>
<path d="M22.0215 23.285V21.9958" stroke="#007A65" stroke-width="1.6" stroke-miterlimit="10" stroke-linecap="round" stroke-linejoin="round"/>
<path d="M22.0215 45.9614V44.8168" stroke="#007A65" stroke-width="1.6" stroke-miterlimit="10" stroke-linecap="round" stroke-linejoin="round"/>
<path d="M23.6261 32.1369V23.6676C23.6261 23.5662 23.5857 23.4688 23.514 23.397C23.4422 23.3253 23.3449 23.2849 23.2434 23.2849H20.7986C20.6971 23.285 20.5998 23.3253 20.5281 23.3971C20.4564 23.4689 20.416 23.5662 20.416 23.6676V44.4341C20.416 44.5355 20.4564 44.6328 20.5281 44.7046C20.5998 44.7764 20.6971 44.8167 20.7986 44.8168H23.2434C23.3449 44.8168 23.4422 44.7765 23.514 44.7047C23.5857 44.6329 23.6261 44.5356 23.6261 44.4341V35.965" stroke="#007A65" stroke-width="1.6" stroke-miterlimit="10" stroke-linecap="round" stroke-linejoin="round"/>
</g>
<defs>
<clipPath id="clip0_4024_6871">
<rect width="56" height="56" fill="white"/>
</clipPath>
</defs>
</svg>
