<svg width="56" height="56" viewBox="0 0 56 56" fill="none" xmlns="http://www.w3.org/2000/svg">
<g clip-path="url(#clip0_4024_6968)">
<path d="M47.799 8.20094C42.5105 2.91255 35.4791 0 28 0C23.8907 0 19.9313 0.870078 16.2317 2.58606C16.1329 2.63072 16.044 2.69451 15.97 2.77374C15.8961 2.85297 15.8385 2.94607 15.8008 3.04767C15.763 3.14926 15.7457 3.25733 15.75 3.36564C15.7542 3.47395 15.7799 3.58034 15.8255 3.67867C15.8711 3.77699 15.9357 3.86531 16.0157 3.93851C16.0956 4.01171 16.1893 4.06834 16.2912 4.10513C16.3932 4.14192 16.5014 4.15814 16.6097 4.15285C16.7179 4.14757 16.8241 4.12088 16.922 4.07433C20.4037 2.45941 24.1309 1.64062 28 1.64062C42.5346 1.64062 54.3594 13.4654 54.3594 28C54.3594 34.491 51.9792 40.7279 47.6572 45.5619C47.5849 45.6421 47.5292 45.7358 47.4933 45.8377C47.4573 45.9395 47.4418 46.0474 47.4477 46.1552C47.4535 46.263 47.4805 46.3686 47.5273 46.4659C47.574 46.5633 47.6395 46.6504 47.72 46.7224C47.8005 46.7943 47.8944 46.8497 47.9963 46.8853C48.0983 46.9209 48.2062 46.936 48.314 46.9298C48.4218 46.9236 48.5273 46.8962 48.6245 46.8491C48.7216 46.802 48.8086 46.7362 48.8802 46.6554C53.4715 41.5202 56 34.8949 56 28C56 20.5209 53.0876 13.4894 47.799 8.20094ZM44.9943 48.1505C40.2519 52.1544 34.2164 54.3594 28 54.3594C13.4654 54.3594 1.64062 42.5346 1.64062 28C1.64062 19.0302 6.13944 10.757 13.675 5.86895C13.7654 5.81034 13.8434 5.7345 13.9044 5.64576C13.9655 5.55702 14.0085 5.45711 14.0309 5.35176C14.0534 5.2464 14.0549 5.13765 14.0353 5.03172C14.0157 4.9258 13.9754 4.82477 13.9168 4.73441C13.8581 4.64402 13.7823 4.56607 13.6935 4.505C13.6048 4.44393 13.5049 4.40094 13.3995 4.37848C13.2942 4.35603 13.1854 4.35455 13.0795 4.37412C12.9735 4.3937 12.8725 4.43395 12.7821 4.49258C4.77837 9.68428 0 18.4721 0 28C0 35.4791 2.91244 42.5106 8.20105 47.7991C13.4895 53.0875 20.5209 56 28 56C34.6034 56 41.0146 53.6575 46.0527 49.404C46.1353 49.3346 46.2033 49.2496 46.253 49.1538C46.3027 49.0581 46.333 48.9535 46.3422 48.846C46.3514 48.7385 46.3393 48.6302 46.3066 48.5274C46.2739 48.4246 46.2213 48.3293 46.1517 48.2468C46.0821 48.1644 45.9969 48.0965 45.901 48.0471C45.8051 47.9976 45.7005 47.9675 45.5929 47.9586C45.4854 47.9496 45.3772 47.962 45.2745 47.9949C45.1717 48.0278 45.0765 48.0807 44.9943 48.1505Z" fill="#007A65"/>
<path d="M3.82812 28C3.82812 34.4565 6.34244 40.5266 10.9079 45.0921C15.4734 49.6576 21.5435 52.1719 28 52.1719C34.4565 52.1719 40.5266 49.6576 45.0921 45.0921C49.6576 40.5266 52.1719 34.4565 52.1719 28C52.1719 14.6717 41.3284 3.82812 28 3.82812C14.6716 3.82812 3.82812 14.6717 3.82812 28ZM28 5.46875C40.4238 5.46875 50.5312 15.5762 50.5312 28C50.5312 34.0182 48.1876 39.6764 43.932 43.932C39.6763 48.1876 34.0182 50.5312 28 50.5312C21.9818 50.5312 16.3237 48.1876 12.068 43.932C7.81244 39.6764 5.46875 34.0182 5.46875 28C5.46875 15.5762 15.5762 5.46875 28 5.46875Z" fill="#007A65"/>
<path d="M32.209 27.5567C32.209 26.2508 32.4229 25.0364 32.9001 23.9528L32.902 23.9481C33.4025 22.8203 34.1818 21.9129 35.2267 21.2735C36.304 20.6125 37.5782 20.3357 38.9545 20.3357V21.8843C37.7797 21.8843 36.8065 22.1213 36.035 22.5952L35.7561 22.7805C35.1283 23.2327 34.649 23.8314 34.3182 24.5768C33.9451 25.4239 33.7585 26.4172 33.7585 27.5567L33.7632 27.8725C33.7864 28.6016 33.8908 29.2729 34.0762 29.8862C34.2879 30.587 34.6056 31.1896 35.0291 31.6938C35.4577 32.198 35.9947 32.5863 36.6401 32.8585C37.2905 33.1308 38.057 33.2669 38.9393 33.2669C39.698 33.2669 40.3717 33.1624 40.9606 32.954L41.2083 32.8585C41.7729 32.6203 42.2542 32.2948 42.6529 31.8829L42.8193 31.7014C43.2478 31.1972 43.568 30.5971 43.7798 29.9013C43.9695 29.288 44.0757 28.6167 44.0993 27.8876L44.105 27.5718C44.105 26.5616 43.9578 25.6692 43.6645 24.8944L43.5302 24.5692C43.1993 23.8236 42.7212 23.2252 42.097 22.7729L41.8209 22.5876C41.1547 22.1773 40.3396 21.9469 39.3761 21.8956L38.9545 21.8843V20.3357C40.3102 20.3357 41.5669 20.6122 42.633 21.2688C43.6692 21.907 44.4411 22.8105 44.9406 23.9306C44.9407 23.9309 44.9409 23.9311 44.9412 23.9311C44.9415 23.9311 44.9418 23.9312 44.9419 23.9315C45.4348 25.0214 45.6536 26.2491 45.6536 27.5718C45.6536 28.5546 45.5287 29.4881 45.2594 30.3589C44.992 31.2346 44.5766 32.0251 43.9991 32.7044L43.9944 32.7101C43.3997 33.4028 42.662 33.9268 41.8105 34.2861C40.9351 34.6554 39.9656 34.8155 38.9393 34.8155C37.9022 34.8155 36.924 34.6561 36.0434 34.2878C36.0423 34.2873 36.041 34.2869 36.0398 34.2866C36.0385 34.2863 36.0373 34.2858 36.0361 34.2853C35.1816 33.9246 34.4425 33.396 33.8483 32.6969L33.8426 32.6903C33.2697 32.0082 32.8585 31.2136 32.5928 30.3343C32.3307 29.4666 32.209 28.5364 32.209 27.5567ZM40.6496 27.5718C40.6496 26.4604 40.424 25.8045 40.157 25.4286L40.1504 25.4182C40.0006 25.2038 39.7239 24.9758 38.9545 24.9757C38.4256 24.9757 38.1294 25.0901 37.9599 25.2045C37.7716 25.335 37.5972 25.5387 37.4626 25.8985L37.4617 25.9022C37.3125 26.2977 37.213 26.8413 37.213 27.5718C37.213 28.2887 37.3115 28.8366 37.4645 29.249C37.6006 29.6111 37.7767 29.8199 37.9665 29.9552C38.1292 30.0635 38.4178 30.1755 38.9393 30.1755C39.4785 30.1754 39.7629 30.0577 39.914 29.9533C40.1007 29.8195 40.2727 29.614 40.4038 29.2556C40.5538 28.8403 40.6496 28.2898 40.6496 27.5718ZM42.1934 27.8857C42.1686 28.6066 42.0573 29.2407 41.8587 29.7879L41.768 30.0138C41.5419 30.5256 41.219 30.9293 40.7999 31.2249L40.6136 31.3421C40.1637 31.5969 39.6055 31.724 38.9393 31.724C38.1831 31.724 37.5628 31.5576 37.0788 31.2249C36.6596 30.9293 36.335 30.5256 36.105 30.0138L36.0124 29.7879C35.8094 29.2407 35.6955 28.6066 35.6701 27.8857L35.6644 27.5718C35.6644 26.8173 35.7534 26.1575 35.931 25.5921L36.0124 25.3558C36.2443 24.7356 36.6023 24.2591 37.0863 23.9263C37.5754 23.5936 38.1982 23.4272 38.9545 23.4272L39.1624 23.4319C40.1852 23.475 40.9379 23.8413 41.4201 24.5314C41.9394 25.2625 42.1991 26.276 42.1991 27.5718L42.1934 27.8857Z" fill="#007A65"/>
<path d="M19.2949 27.587C19.2949 26.6066 19.4308 25.6723 19.7222 24.798C19.9772 24.033 20.3428 23.3356 20.8274 22.7219L21.042 22.4648C21.6465 21.7728 22.3879 21.2475 23.2429 20.8888L23.5757 20.7592C24.3615 20.4784 25.2069 20.3508 26.0924 20.3508C26.7596 20.3508 27.4178 20.4257 28.0645 20.5768C28.0668 20.5773 28.0698 20.5772 28.0721 20.5777C28.0753 20.5785 28.0783 20.5798 28.0815 20.5806C28.726 20.7263 29.3368 20.9382 29.9099 21.2215C30.6457 21.5857 30.9699 22.4603 30.6494 23.2161L30.0145 24.713C29.6708 25.5237 28.7212 25.885 27.9255 25.508C27.6093 25.3582 27.2749 25.227 26.9225 25.1166C26.6574 25.0336 26.3801 24.9909 26.0848 24.9909C25.7473 24.9909 25.4998 25.0515 25.3124 25.1365C25.1234 25.2244 24.9655 25.3476 24.8265 25.5231L24.8199 25.5317C24.6785 25.7078 24.5435 25.9547 24.4398 26.3069L24.4389 26.3116C24.3379 26.6518 24.2753 27.0741 24.2753 27.5945C24.2753 28.3095 24.3773 28.8464 24.5315 29.2433L24.5854 29.37C24.7158 29.6483 24.8764 29.8228 25.0543 29.9439C25.2336 30.0615 25.5384 30.1755 26.0697 30.1755C26.438 30.1755 26.7905 30.1397 27.1286 30.0705C27.5075 29.993 27.9079 29.8855 28.3302 29.7463C29.3319 29.4156 30.3637 30.1616 30.3637 31.2165V32.7605C30.3637 33.397 29.9745 33.9687 29.3824 34.202C28.8406 34.415 28.2867 34.5726 27.7223 34.6718C27.1539 34.7718 26.5312 34.8155 25.8655 34.8155C24.5255 34.8155 23.2814 34.537 22.2276 33.8749L22.2238 33.873C21.2036 33.2275 20.4502 32.317 19.9662 31.1965L19.9633 31.189C19.5017 30.1054 19.2949 28.8924 19.2949 27.587ZM20.852 28.0096C20.8917 28.979 21.0704 29.8365 21.388 30.582C21.7561 31.4341 22.3108 32.0947 23.052 32.5636C23.7982 33.0325 24.736 33.267 25.8655 33.267C26.4655 33.267 26.9949 33.2266 27.4538 33.1459C27.7497 33.0939 28.0435 33.022 28.3352 32.9301C28.6282 32.8378 28.8152 32.5582 28.8152 32.251C28.8152 31.7417 28.3168 31.3825 27.8219 31.5023C27.6929 31.5335 27.5652 31.562 27.4386 31.5879C26.9949 31.6787 26.5386 31.7241 26.0697 31.7241C25.4078 31.7241 24.8461 31.5988 24.385 31.3478L24.194 31.2324C23.7616 30.9412 23.4256 30.542 23.1862 30.0346L23.0898 29.8106C22.878 29.2679 22.7589 28.6344 22.7324 27.9103L22.7267 27.5945C22.7267 27.0341 22.7848 26.5239 22.9007 26.0639L22.9536 25.8701C23.086 25.4202 23.2702 25.03 23.5067 24.6997L23.6116 24.5617C23.899 24.1986 24.2495 23.9213 24.6629 23.7297C25.0814 23.5381 25.5554 23.4423 26.0848 23.4423C26.5336 23.4423 26.9672 23.5079 27.3857 23.639C27.526 23.6829 27.6643 23.7297 27.8007 23.7793C28.2383 23.9386 28.7398 23.7507 28.9217 23.322C29.0912 22.9225 28.9207 22.455 28.511 22.3118C28.2596 22.2239 27.998 22.1495 27.726 22.0885C27.1916 21.9624 26.647 21.8994 26.0924 21.8994C25.2503 21.8994 24.5016 22.0381 23.8461 22.3154L23.6069 22.4232C23.0605 22.6873 22.5931 23.0421 22.2049 23.4877L22.0432 23.6815C21.6782 24.1436 21.3943 24.679 21.1914 25.2877L21.1101 25.5525C20.9326 26.1766 20.8435 26.8547 20.8435 27.587L20.852 28.0096Z" fill="#007A65"/>
<path d="M15.355 22.9658C15.355 22.4646 14.9486 22.0582 14.4474 22.0582C13.9461 22.0582 13.5398 22.4646 13.5398 22.9658V32.2081C13.5398 32.7093 13.9461 33.1157 14.4474 33.1157C14.9486 33.1157 15.355 32.7093 15.355 32.2081V22.9658ZM16.9045 32.6643C16.9045 33.7688 16.0091 34.6643 14.9045 34.6643H13.9912C12.8866 34.6643 11.9912 33.7688 11.9912 32.6643V22.5096C11.9912 21.4051 12.8866 20.5096 13.9912 20.5096H14.9045C16.0091 20.5096 16.9045 21.4051 16.9045 22.5096V32.6643Z" fill="#007A65"/>
</g>
<defs>
<clipPath id="clip0_4024_6968">
<rect width="56" height="56" fill="white"/>
</clipPath>
</defs>
</svg>
