<svg width="56" height="56" viewBox="0 0 56 56" fill="none" xmlns="http://www.w3.org/2000/svg">
<path d="M35.0615 5.47456V50.5254C35.0615 51.4824 34.2857 52.2582 33.3286 52.2582H2.55314C1.59611 52.2582 0.820312 51.4824 0.820312 50.5254V11.35L8.42855 3.74173H33.3288C34.2857 3.74184 35.0615 4.51764 35.0615 5.47456Z" stroke="#007A65" stroke-width="1.64062" stroke-miterlimit="10" stroke-linecap="round" stroke-linejoin="round"/>
<path d="M26.277 18.4559C28.2645 20.5297 29.4847 23.3423 29.4847 26.4417C29.4847 32.8176 24.3169 37.9852 17.941 37.9852C11.5651 37.9852 6.39746 32.8176 6.39746 26.4417C6.39746 20.0658 11.5651 14.898 17.941 14.898C18.8155 14.898 19.6668 14.9955 20.4855 15.1793" stroke="#007A65" stroke-width="1.64062" stroke-miterlimit="10" stroke-linecap="round" stroke-linejoin="round"/>
<path d="M25.5681 18.5004C28.6331 18.5004 31.1177 16.0157 31.1177 12.9508C31.1177 9.88585 28.6331 7.40121 25.5681 7.40121C22.5032 7.40121 20.0186 9.88585 20.0186 12.9508C20.0186 16.0157 22.5032 18.5004 25.5681 18.5004Z" stroke="#007A65" stroke-width="1.64062" stroke-miterlimit="10" stroke-linecap="round" stroke-linejoin="round"/>
<path d="M25.5681 15.5203C24.1513 15.5203 22.9986 14.3676 22.9986 12.9508C22.9986 11.5338 24.1513 10.3811 25.5681 10.3811C26.985 10.3811 28.1377 11.5338 28.1377 12.9508C28.1378 14.3676 26.985 15.5203 25.5681 15.5203ZM25.1615 22.3316V30.5516L17.9402 34.0546L10.7197 30.5516V22.3316L17.9402 18.8286L25.1615 22.3316Z" stroke="#007A65" stroke-width="1.64062" stroke-miterlimit="10" stroke-linecap="round" stroke-linejoin="round"/>
<path d="M25.1615 22.3316L17.9402 25.8351L10.7197 22.3316L17.9402 18.8286L25.1615 22.3316Z" stroke="#007A65" stroke-width="1.64062" stroke-miterlimit="10" stroke-linecap="round" stroke-linejoin="round"/>
<path d="M5.16819 41.5643H13.4251M5.16819 44.6915H30.7137M26.2467 47.8189H30.7137M5.16819 47.8189H22.4137M17.9406 25.8351V34.0546L25.1618 30.5516V22.3316L17.9406 25.8351ZM8.42855 3.74185V9.61726C8.42855 10.5743 7.65275 11.3501 6.69572 11.3501H0.820312L8.42855 3.74185Z" stroke="#007A65" stroke-width="1.64062" stroke-miterlimit="10" stroke-linecap="round" stroke-linejoin="round"/>
<path d="M51.1531 32.0273C53.3771 32.0273 55.1801 30.2243 55.1801 28.0003C55.1801 25.7762 53.3771 23.9732 51.1531 23.9732C48.929 23.9732 47.126 25.7762 47.126 28.0003C47.126 30.2243 48.929 32.0273 51.1531 32.0273Z" stroke="#007A65" stroke-width="1.64062" stroke-miterlimit="10" stroke-linecap="round" stroke-linejoin="round"/>
<path d="M35.0615 29.4775V26.5226H47.4051M47.4051 29.4775H38.9031" stroke="#007A65" stroke-width="1.64062" stroke-miterlimit="10" stroke-linecap="round" stroke-linejoin="round"/>
<path d="M48.0173 48.0957C50.2414 48.0957 52.0444 46.2927 52.0444 44.0686C52.0444 41.8445 50.2414 40.0416 48.0173 40.0416C45.7932 40.0416 43.9902 41.8445 43.9902 44.0686C43.9902 46.2927 45.7932 48.0957 48.0173 48.0957Z" stroke="#007A65" stroke-width="1.64062" stroke-miterlimit="10" stroke-linecap="round" stroke-linejoin="round"/>
<path d="M44.5848 41.9611L39.0527 36.4301H35.0615V33.4752H39.6657C40.0574 33.4752 40.4328 33.6306 40.7098 33.9075L46.9795 40.1772" stroke="#007A65" stroke-width="1.64062" stroke-miterlimit="10" stroke-linecap="round" stroke-linejoin="round"/>
<path d="M48.0173 15.9585C50.2414 15.9585 52.0444 14.1555 52.0444 11.9314C52.0444 9.70734 50.2414 7.90436 48.0173 7.90436C45.7932 7.90436 43.9902 9.70734 43.9902 11.9314C43.9902 14.1555 45.7932 15.9585 48.0173 15.9585Z" stroke="#007A65" stroke-width="1.64062" stroke-miterlimit="10" stroke-linecap="round" stroke-linejoin="round"/>
<path d="M44.5849 14.039L39.0528 19.57H35.0605L35.0627 22.5248H39.6658C40.0576 22.5248 40.4329 22.3694 40.7099 22.0926L46.9796 15.8229" stroke="#007A65" stroke-width="1.64062" stroke-miterlimit="10" stroke-linecap="round" stroke-linejoin="round"/>
</svg>
