<svg width="57" height="56" viewBox="0 0 57 56" fill="none" xmlns="http://www.w3.org/2000/svg">
<path d="M33.5468 3H17.6002C17.2682 3 16.9395 3.06539 16.6328 3.19243C16.3261 3.31947 16.0474 3.50568 15.8127 3.74042L9.9421 9.61092C9.46805 10.085 9.20174 10.728 9.20176 11.3984V35.2423M9.20166 38.7633V45.4818C9.20166 46.8779 10.3334 48.0096 11.7295 48.0096H40.7823C42.1784 48.0096 43.3102 46.8779 43.3102 45.4818V5.52777C43.3102 4.13175 42.1784 3 40.7823 3H37.068" stroke="#007A65" stroke-width="1.50902" stroke-miterlimit="10" stroke-linecap="round" stroke-linejoin="round"/>
<path d="M9.4292 10.35H14.0252C15.4212 10.35 16.553 9.21829 16.553 7.82227V3.22656" stroke="#007A65" stroke-width="1.50902" stroke-miterlimit="10" stroke-linejoin="round"/>
<path d="M15.4329 35.327H17.9858M15.4329 40.3225H17.9858M26.6935 15.0446H37.0791M26.6935 20.0402H37.0791M15.4329 25.3358H37.0791M15.4329 30.3314H17.9858M21.8087 35.327H37.0791M21.8087 40.3225H37.0791M21.8087 30.3314H37.0791M32.3025 8.4131H37.0791M14.1904 48.0133V50.474C14.1904 51.8701 15.3222 53.0018 16.7183 53.0018H45.7711C47.1672 53.0018 48.299 51.8701 48.299 50.474V28.6063M48.299 25.0853V10.52C48.299 9.12394 47.1672 7.99219 45.7711 7.99219H43.3103M22.2814 21.2181H15.936C15.8026 21.2181 15.6746 21.1651 15.5803 21.0707C15.486 20.9764 15.433 20.8485 15.433 20.7151V14.3698C15.433 14.2364 15.486 14.1085 15.5803 14.0141C15.6746 13.9198 15.8026 13.8668 15.936 13.8668H22.2814C22.4149 13.8668 22.5428 13.9198 22.6371 14.0141C22.7315 14.1085 22.7845 14.2364 22.7845 14.3698V20.7151C22.7845 20.8485 22.7315 20.9764 22.6371 21.0707C22.5428 21.1651 22.4149 21.2181 22.2814 21.2181Z" stroke="#007A65" stroke-width="1.50902" stroke-miterlimit="10" stroke-linecap="round" stroke-linejoin="round"/>
</svg>
