<svg width="56" height="56" viewBox="0 0 56 56" fill="none" xmlns="http://www.w3.org/2000/svg">
<path d="M32.6508 32.3373V47.0627H29.6758C29.3448 47.0627 29.1749 47.4593 29.4034 47.6989L36.4267 55.0617C36.4619 55.0985 36.5041 55.1278 36.5509 55.1479C36.5977 55.1679 36.6481 55.1782 36.699 55.1782C36.7499 55.1782 36.8003 55.1679 36.8471 55.1479C36.8939 55.1278 36.9362 55.0985 36.9713 55.0617L43.9946 47.6989C44.2231 47.4593 44.0533 47.0627 43.7223 47.0627H40.7473V37.6235M40.7474 33.7953V24.707M14.4869 40.3577V47.0626H11.5119C11.1809 47.0626 11.011 47.4592 11.2395 47.6988L18.2628 55.0615C18.298 55.0984 18.3402 55.1277 18.387 55.1478C18.4338 55.1678 18.4842 55.1781 18.5351 55.1781C18.586 55.1781 18.6364 55.1678 18.6832 55.1478C18.73 55.1277 18.7723 55.0984 18.8074 55.0615L25.8307 47.6988C26.0592 47.4592 25.8894 47.0626 25.5584 47.0626H22.5834V40.3577" stroke="#007A65" stroke-width="1.64062" stroke-miterlimit="10" stroke-linecap="round" stroke-linejoin="round"/>
<path d="M25.1296 13.009C25.1296 12.1688 25.2147 11.3484 25.3766 10.5561C23.3036 9.56884 20.9841 9.01562 18.5351 9.01562C9.7363 9.01562 2.60352 16.1484 2.60352 24.9472C2.60352 33.746 9.7363 40.8788 18.5351 40.8788C27.3339 40.8788 34.4666 33.746 34.4666 24.9472C34.4666 24.9185 34.4657 24.8901 34.4655 24.8614C29.1103 23.5769 25.1296 18.7582 25.1296 13.009Z" stroke="#007A65" stroke-width="1.64062" stroke-miterlimit="10" stroke-linecap="round" stroke-linejoin="round"/>
<path d="M27.8106 31.9702C29.2931 30.0168 30.1743 27.5833 30.1743 24.9476C30.1743 24.1885 30.1004 23.4462 29.9609 22.7272C27.6709 20.9907 26.014 18.4634 25.3961 15.552C23.4709 14.1424 21.0988 13.3086 18.5353 13.3086C12.1175 13.3086 6.89624 18.5298 6.89624 24.9476C6.89624 31.3654 12.1175 36.5867 18.5353 36.5867C20.938 36.5867 23.1729 35.8547 25.029 34.6023" stroke="#007A65" stroke-width="1.64062" stroke-miterlimit="10" stroke-linecap="round" stroke-linejoin="round"/>
<path d="M49.3127 10.8281C48.2845 5.13723 43.3058 0.820312 37.3186 0.820312C30.5868 0.820312 25.1296 6.27747 25.1296 13.0093C25.1296 19.7411 30.5868 25.1983 37.3186 25.1983C43.4917 25.1983 48.5923 20.609 49.3965 14.6562" stroke="#007A65" stroke-width="1.64062" stroke-miterlimit="10" stroke-linecap="round" stroke-linejoin="round"/>
<path d="M33.287 10.4885C34.3307 10.4885 35.1768 9.64246 35.1768 8.59877C35.1768 7.55507 34.3307 6.70898 33.287 6.70898C32.2433 6.70898 31.3972 7.55507 31.3972 8.59877C31.3972 9.64246 32.2433 10.4885 33.287 10.4885Z" stroke="#007A65" stroke-width="1.64062" stroke-miterlimit="10" stroke-linecap="round" stroke-linejoin="round"/>
<path d="M13.8898 22.5921C14.9335 22.5921 15.7796 21.746 15.7796 20.7023C15.7796 19.6586 14.9335 18.8125 13.8898 18.8125C12.8461 18.8125 12 19.6586 12 20.7023C12 21.746 12.8461 22.5921 13.8898 22.5921Z" stroke="#007A65" stroke-width="1.64062" stroke-miterlimit="10" stroke-linecap="round" stroke-linejoin="round"/>
<path d="M41.3505 19.3069C42.3942 19.3069 43.2403 18.4608 43.2403 17.4171C43.2403 16.3734 42.3942 15.5273 41.3505 15.5273C40.3068 15.5273 39.4607 16.3734 39.4607 17.4171C39.4607 18.4608 40.3068 19.3069 41.3505 19.3069Z" stroke="#007A65" stroke-width="1.64062" stroke-miterlimit="10" stroke-linecap="round" stroke-linejoin="round"/>
<path d="M21.9528 31.4104C22.9965 31.4104 23.8426 30.5643 23.8426 29.5206C23.8426 28.4769 22.9965 27.6309 21.9528 27.6309C20.9091 27.6309 20.063 28.4769 20.063 29.5206C20.063 30.5643 20.9091 31.4104 21.9528 31.4104Z" stroke="#007A65" stroke-width="1.64062" stroke-miterlimit="10" stroke-linecap="round" stroke-linejoin="round"/>
<path d="M40.3422 6.70898L34.2949 19.3075" stroke="#007A65" stroke-width="1.64062" stroke-miterlimit="10" stroke-linecap="round" stroke-linejoin="round"/>
<path d="M20.9449 18.8125L14.8977 31.411" stroke="#007A65" stroke-width="1.64062" stroke-miterlimit="10" stroke-linecap="round" stroke-linejoin="round"/>
</svg>
