<svg width="57" height="56" viewBox="0 0 57 56" fill="none" xmlns="http://www.w3.org/2000/svg">
<g clip-path="url(#clip0_1086_337)">
<mask id="mask0_1086_337" style="mask-type:luminance" maskUnits="userSpaceOnUse" x="0" y="0" width="57" height="56">
<path d="M0.95 55.3V0.7H55.55V55.3H0.95Z" fill="white" stroke="black" stroke-width="1.4"/>
</mask>
<g mask="url(#mask0_1086_337)">
<mask id="mask1_1086_337" style="mask-type:luminance" maskUnits="userSpaceOnUse" x="0" y="0" width="57" height="56">
<path d="M55.5498 55.3V0.700165H0.95V55.3H55.5498Z" fill="white" stroke="white" stroke-width="1.4"/>
</mask>
<g mask="url(#mask1_1086_337)">
<path d="M6.34521 21.1758C7.25768 18.7993 8.54577 16.6091 10.1367 14.6776" stroke="#007A65" stroke-width="1.28586" stroke-miterlimit="10" stroke-linecap="round" stroke-linejoin="round"/>
<path d="M49.8435 20.4085C51.0419 23.2259 51.7048 26.3259 51.7048 29.5807C51.7048 42.5343 41.2036 53.0352 28.2497 53.0352C15.2958 53.0352 4.79443 42.5343 4.79443 29.5807C4.79443 27.7321 5.00831 25.9335 5.41276 24.2082" stroke="#007A65" stroke-width="1.28586" stroke-miterlimit="10" stroke-linecap="round" stroke-linejoin="round"/>
<path d="M17.4399 8.75919C20.6747 7.07645 24.3511 6.12543 28.2495 6.12543C33.8253 6.12543 38.9468 8.07096 42.9719 11.3203" stroke="#007A65" stroke-width="1.28586" stroke-miterlimit="10" stroke-linecap="round" stroke-linejoin="round"/>
<path d="M39.1599 35.9883L39.7096 35.2119C40.6722 33.8522 40.3503 31.9696 38.9904 31.0072L34.5723 27.8795" stroke="#007A65" stroke-width="1.28586" stroke-miterlimit="10" stroke-linecap="round" stroke-linejoin="round"/>
<path d="M22.1329 42.0893L21.9577 46.8524C21.9413 47.297 22.0491 47.7375 22.269 48.1243C22.4889 48.5111 22.8122 48.8291 23.2027 49.0425C23.5931 49.2559 24.0353 49.3563 24.4797 49.3325C24.924 49.3087 25.3529 49.1616 25.7184 48.9077L32.6537 44.0897C33.6584 43.3917 34.5338 42.524 35.2407 41.5255L37.3344 38.568" stroke="#007A65" stroke-width="1.28586" stroke-miterlimit="10" stroke-linecap="round" stroke-linejoin="round"/>
<path d="M26.1472 22.3788C24.4962 22.0489 22.7303 22.6876 21.6948 24.1503L19.1632 27.7262C18.2486 29.0183 18.2494 30.6831 19.0337 31.9492" stroke="#007A65" stroke-width="1.28586" stroke-miterlimit="10" stroke-linecap="round" stroke-linejoin="round"/>
<path d="M10.9321 15.8072C10.9077 15.9979 10.8955 16.19 10.8955 16.3823V20.0431C10.8955 20.9937 11.9639 21.5524 12.7448 21.0104L15.4453 19.1356C16.3235 18.5257 17.3672 18.199 18.4365 18.199H21.9119C22.4758 18.199 23.034 18.088 23.5549 17.8722C24.0758 17.6564 24.5491 17.3402 24.9478 16.9415L28.3774 13.5119C29.2543 12.6352 29.3022 11.2291 28.4872 10.2944L26.817 8.37954C26.2741 7.75671 26.1984 6.88034 26.5719 6.18719" stroke="#007A65" stroke-width="1.28586" stroke-miterlimit="10" stroke-linecap="round" stroke-linejoin="round"/>
<path d="M42.2646 17.8484C42.0535 19.3572 42.2726 20.8949 42.8968 22.2846L44.3628 25.5481C44.6087 26.0955 44.9711 26.5826 45.4248 26.9753C45.8785 27.368 46.4125 27.6569 46.9895 27.8218C47.5665 27.9867 48.1725 28.0236 48.7652 27.9299C49.358 27.8362 49.9231 27.6142 50.4211 27.2794L51.5095 26.5477" stroke="#007A65" stroke-width="1.28586" stroke-miterlimit="10" stroke-linecap="round" stroke-linejoin="round"/>
<path d="M51.6468 15.096C51.4979 18.668 48.7748 21.7916 47.4321 23.1223C47.0242 23.5265 46.368 23.5272 45.9602 23.123C44.5796 21.755 41.7383 18.4902 41.7383 14.7914C41.7383 12.0353 43.9874 9.80457 46.7503 9.83431C49.5688 9.86465 51.7644 12.2798 51.6468 15.096Z" stroke="#007A65" stroke-width="1.28586" stroke-miterlimit="10" stroke-linecap="round" stroke-linejoin="round"/>
<path d="M49.121 14.9767C49.121 16.3163 48.0348 17.4023 46.6953 17.4023C45.3556 17.4023 44.2695 16.3163 44.2695 14.9767C44.2695 13.6371 45.3556 12.5511 46.6953 12.5511C48.0348 12.5511 49.121 13.6371 49.121 14.9767Z" stroke="#007A65" stroke-width="1.28586" stroke-miterlimit="10" stroke-linecap="round" stroke-linejoin="round"/>
<path d="M36.0555 22.9983C35.9066 26.5704 33.1835 29.6939 31.8408 31.0246C31.4329 31.4288 30.7767 31.4296 30.3689 31.0253C28.9883 29.6573 26.147 26.3925 26.147 22.6937C26.147 19.9376 28.396 17.7069 31.159 17.7366C33.9774 17.767 36.1731 20.1822 36.0555 22.9983Z" stroke="#007A65" stroke-width="1.28586" stroke-miterlimit="10" stroke-linecap="round" stroke-linejoin="round"/>
<path d="M33.5302 22.883C33.5302 24.2226 32.444 25.3086 31.1045 25.3086C29.7648 25.3086 28.6787 24.2226 28.6787 22.883C28.6787 21.5433 29.7648 20.4574 31.1045 20.4574C31.2688 20.4574 31.4295 20.4737 31.5848 20.5049" stroke="#007A65" stroke-width="1.28586" stroke-miterlimit="10" stroke-linecap="round" stroke-linejoin="round"/>
<path d="M28.3691 34.6312C28.2201 38.2032 25.4971 41.3267 24.1543 42.6574C23.7465 43.0616 23.0902 43.0623 22.6824 42.6581C21.3017 41.2902 18.4604 38.0254 18.4604 34.3265C18.4604 31.5705 20.7095 29.3398 23.4724 29.3694C26.2909 29.3997 28.4866 31.815 28.3691 34.6312Z" stroke="#007A65" stroke-width="1.28586" stroke-miterlimit="10" stroke-linecap="round" stroke-linejoin="round"/>
<path d="M25.8432 34.5119C25.8432 35.8516 24.7571 36.9375 23.4175 36.9375C22.0778 36.9375 20.9917 35.8516 20.9917 34.5119C20.9917 33.1722 22.0778 32.0863 23.4175 32.0863C24.7571 32.0863 25.8432 33.1722 25.8432 34.5119Z" stroke="#007A65" stroke-width="1.28586" stroke-miterlimit="10" stroke-linecap="round" stroke-linejoin="round"/>
<path d="M17.4154 8.29521C17.2664 11.8672 14.5434 14.9908 13.2006 16.3215C12.7928 16.7257 12.1366 16.7264 11.7287 16.3223C10.3481 14.9542 7.50684 11.6894 7.50684 7.99063C7.50684 5.23452 9.75591 3.00379 12.5188 3.03353C15.3373 3.06376 17.5329 5.47903 17.4154 8.29521Z" stroke="#007A65" stroke-width="1.28586" stroke-miterlimit="10" stroke-linecap="round" stroke-linejoin="round"/>
<path d="M14.89 8.17986C14.89 9.51944 13.8039 10.6055 12.4644 10.6055C11.1246 10.6055 10.0386 9.51944 10.0386 8.17986C10.0386 6.84018 11.1246 5.75425 12.4644 5.75425C13.8039 5.75425 14.89 6.84018 14.89 8.17986Z" stroke="#007A65" stroke-width="1.28586" stroke-miterlimit="10" stroke-linecap="round" stroke-linejoin="round"/>
</g>
</g>
</g>
<defs>
<clipPath id="clip0_1086_337">
<rect width="56" height="56" fill="white" transform="translate(0.25)"/>
</clipPath>
</defs>
</svg>
