<svg width="56" height="56" viewBox="0 0 56 56" fill="none" xmlns="http://www.w3.org/2000/svg">
<mask id="mask0_949_6756" style="mask-type:luminance" maskUnits="userSpaceOnUse" x="1" y="1" width="54" height="54">
<path d="M54.2 54.2V1.8H1.8V54.2H54.2Z" fill="white" stroke="white" stroke-width="1.6"/>
</mask>
<g mask="url(#mask0_949_6756)">
<path d="M4.66406 54.2109H51.3352" stroke="#007A65" stroke-width="1.6" stroke-miterlimit="10" stroke-linecap="round" stroke-linejoin="round"/>
<path d="M30.0153 43.6058H21.2725V54.2109H30.5665V44.157C30.5665 44.0846 30.5522 44.013 30.5245 43.9461C30.4968 43.8792 30.4562 43.8185 30.405 43.7673C30.3539 43.7161 30.2931 43.6755 30.2262 43.6478C30.1593 43.6201 30.0877 43.6058 30.0153 43.6058Z" stroke="#007A65" stroke-width="1.6" stroke-miterlimit="10" stroke-linecap="round" stroke-linejoin="round"/>
<path d="M21.2724 43.6058H12.5296C12.4572 43.6058 12.3855 43.6201 12.3187 43.6478C12.2518 43.6755 12.1911 43.7161 12.1399 43.7673C12.0887 43.8185 12.0481 43.8792 12.0204 43.9461C11.9927 44.013 11.9785 44.0846 11.9785 44.157V54.2109H21.2724V43.6058Z" stroke="#007A65" stroke-width="1.6" stroke-miterlimit="10" stroke-linecap="round" stroke-linejoin="round"/>
<path d="M23.1016 14.1504H19.444C19.3264 14.1504 19.2135 14.1971 19.1304 14.2803C19.0472 14.3635 19.0005 14.4763 19.0005 14.594V17.2206C19.0005 17.3382 19.0472 17.451 19.1304 17.5342C19.2136 17.6173 19.3264 17.6641 19.444 17.6641H23.1016C23.2193 17.6641 23.3321 17.6173 23.4153 17.5342C23.4985 17.451 23.5452 17.3382 23.5452 17.2206V14.594C23.5452 14.4763 23.4985 14.3635 23.4153 14.2803C23.3321 14.1971 23.2193 14.1504 23.1016 14.1504Z" stroke="#007A65" stroke-width="1.6" stroke-miterlimit="10" stroke-linecap="round" stroke-linejoin="round"/>
<path d="M31.1027 14.1504H27.445C27.3273 14.1504 27.2145 14.1971 27.1314 14.2803C27.0482 14.3635 27.0015 14.4763 27.0015 14.594V17.2206C27.0015 17.3382 27.0482 17.451 27.1314 17.5342C27.2145 17.6173 27.3273 17.6641 27.445 17.6641H31.1027C31.2203 17.6641 31.3332 17.6173 31.4163 17.5342C31.4995 17.451 31.5462 17.3382 31.5462 17.2206V14.594C31.5462 14.4763 31.4995 14.3635 31.4163 14.2803C31.3332 14.1971 31.2204 14.1504 31.1027 14.1504Z" stroke="#007A65" stroke-width="1.6" stroke-miterlimit="10" stroke-linecap="round" stroke-linejoin="round"/>
<path d="M15.1002 14.1504H11.4425C11.3249 14.1504 11.2121 14.1971 11.1289 14.2803C11.0457 14.3635 10.999 14.4763 10.999 14.594V17.2206C10.999 17.3382 11.0457 17.451 11.1289 17.5342C11.2121 17.6173 11.3249 17.6641 11.4425 17.6641H15.1002C15.2178 17.6641 15.3306 17.6173 15.4138 17.5342C15.497 17.451 15.5437 17.3382 15.5438 17.2206V14.594C15.5438 14.4763 15.497 14.3635 15.4138 14.2803C15.3307 14.1971 15.2178 14.1504 15.1002 14.1504Z" stroke="#007A65" stroke-width="1.6" stroke-miterlimit="10" stroke-linecap="round" stroke-linejoin="round"/>
<path d="M23.1016 35.8144H19.444C19.3264 35.8145 19.2135 35.8612 19.1304 35.9444C19.0472 36.0276 19.0005 36.1404 19.0005 36.258V38.8846C19.0005 39.0023 19.0472 39.1151 19.1304 39.1982C19.2136 39.2814 19.3264 39.3281 19.444 39.3281H23.1016C23.1599 39.3281 23.2176 39.3167 23.2714 39.2944C23.3252 39.2721 23.3741 39.2394 23.4153 39.1983C23.4565 39.1571 23.4892 39.1082 23.5115 39.0544C23.5338 39.0006 23.5452 38.9429 23.5452 38.8846V36.258C23.5452 36.1404 23.4985 36.0276 23.4153 35.9444C23.3321 35.8612 23.2193 35.8144 23.1016 35.8144Z" stroke="#007A65" stroke-width="1.6" stroke-miterlimit="10" stroke-linecap="round" stroke-linejoin="round"/>
<path d="M31.1027 35.8144H27.445C27.3273 35.8145 27.2145 35.8612 27.1314 35.9444C27.0482 36.0276 27.0015 36.1404 27.0015 36.258V38.8846C27.0015 39.0023 27.0482 39.1151 27.1314 39.1982C27.2145 39.2814 27.3273 39.3281 27.445 39.3281H31.1027C31.2203 39.3281 31.3332 39.2814 31.4163 39.1982C31.4995 39.1151 31.5462 39.0023 31.5462 38.8846V36.258C31.5462 36.1404 31.4995 36.0276 31.4163 35.9444C31.3332 35.8612 31.2204 35.8145 31.1027 35.8144Z" stroke="#007A65" stroke-width="1.6" stroke-miterlimit="10" stroke-linecap="round" stroke-linejoin="round"/>
<path d="M15.1002 35.8144H11.4425C11.3249 35.8145 11.2121 35.8612 11.1289 35.9444C11.0457 36.0276 10.999 36.1404 10.999 36.258V38.8846C10.999 39.0023 11.0457 39.1151 11.1289 39.1982C11.2121 39.2814 11.3249 39.3281 11.4425 39.3281H15.1002C15.1584 39.3281 15.2161 39.3167 15.2699 39.2944C15.3237 39.2721 15.3726 39.2394 15.4138 39.1983C15.455 39.1571 15.4877 39.1082 15.51 39.0544C15.5323 39.0006 15.5438 38.9429 15.5438 38.8846V36.258C15.5438 36.1404 15.497 36.0276 15.4138 35.9444C15.3307 35.8612 15.2178 35.8144 15.1002 35.8144Z" stroke="#007A65" stroke-width="1.6" stroke-miterlimit="10" stroke-linecap="round" stroke-linejoin="round"/>
<path d="M23.1016 28.5957H19.444C19.3264 28.5957 19.2135 28.6425 19.1304 28.7256C19.0472 28.8088 19.0005 28.9217 19.0005 29.0393V31.6659C19.0005 31.7835 19.0472 31.8963 19.1304 31.9795C19.2136 32.0626 19.3264 32.1094 19.444 32.1094H23.1016C23.1599 32.1094 23.2176 32.0979 23.2714 32.0756C23.3252 32.0534 23.3741 32.0207 23.4153 31.9795C23.4565 31.9383 23.4892 31.8894 23.5115 31.8356C23.5338 31.7818 23.5452 31.7241 23.5452 31.6659V29.0393C23.5452 28.9216 23.4985 28.8088 23.4153 28.7256C23.3321 28.6424 23.2193 28.5957 23.1016 28.5957Z" stroke="#007A65" stroke-width="1.6" stroke-miterlimit="10" stroke-linecap="round" stroke-linejoin="round"/>
<path d="M31.1027 28.5957H27.445C27.3273 28.5957 27.2145 28.6425 27.1314 28.7256C27.0482 28.8088 27.0015 28.9217 27.0015 29.0393V31.6659C27.0015 31.7835 27.0482 31.8963 27.1314 31.9795C27.2145 32.0626 27.3273 32.1094 27.445 32.1094H31.1027C31.2203 32.1094 31.3332 32.0626 31.4163 31.9795C31.4995 31.8963 31.5462 31.7835 31.5462 31.6659V29.0393C31.5462 28.9217 31.4995 28.8088 31.4163 28.7256C31.3332 28.6425 31.2204 28.5957 31.1027 28.5957Z" stroke="#007A65" stroke-width="1.6" stroke-miterlimit="10" stroke-linecap="round" stroke-linejoin="round"/>
<path d="M15.1002 28.5957H11.4425C11.3249 28.5957 11.2121 28.6425 11.1289 28.7256C11.0457 28.8088 10.999 28.9217 10.999 29.0393V31.6659C10.999 31.7835 11.0457 31.8963 11.1289 31.9795C11.2121 32.0626 11.3249 32.1094 11.4425 32.1094H15.1002C15.1584 32.1094 15.2161 32.0979 15.2699 32.0756C15.3237 32.0534 15.3726 32.0207 15.4138 31.9795C15.455 31.9383 15.4877 31.8894 15.51 31.8356C15.5323 31.7818 15.5438 31.7241 15.5438 31.6659V29.0393C15.5438 28.9216 15.497 28.8088 15.4138 28.7256C15.3307 28.6424 15.2178 28.5957 15.1002 28.5957Z" stroke="#007A65" stroke-width="1.6" stroke-miterlimit="10" stroke-linecap="round" stroke-linejoin="round"/>
<path d="M23.1016 21.373H19.444C19.3264 21.3731 19.2135 21.4198 19.1304 21.503C19.0472 21.5862 19.0005 21.699 19.0005 21.8166V24.4432C19.0005 24.5608 19.0472 24.6737 19.1304 24.7568C19.2136 24.84 19.3264 24.8867 19.444 24.8867H23.1016C23.1599 24.8867 23.2176 24.8753 23.2714 24.853C23.3252 24.8307 23.3741 24.798 23.4153 24.7569C23.4565 24.7157 23.4892 24.6668 23.5115 24.613C23.5338 24.5592 23.5452 24.5015 23.5452 24.4432V21.8166C23.5452 21.699 23.4985 21.5861 23.4153 21.503C23.3321 21.4198 23.2193 21.373 23.1016 21.373Z" stroke="#007A65" stroke-width="1.6" stroke-miterlimit="10" stroke-linecap="round" stroke-linejoin="round"/>
<path d="M31.1027 21.373H27.445C27.3273 21.3731 27.2145 21.4198 27.1314 21.503C27.0482 21.5862 27.0015 21.699 27.0015 21.8166V24.4432C27.0015 24.5608 27.0482 24.6737 27.1314 24.7568C27.2145 24.84 27.3273 24.8867 27.445 24.8867H31.1027C31.2203 24.8867 31.3332 24.84 31.4163 24.7568C31.4995 24.6737 31.5462 24.5608 31.5462 24.4432V21.8166C31.5462 21.699 31.4995 21.5862 31.4163 21.503C31.3332 21.4198 31.2204 21.3731 31.1027 21.373Z" stroke="#007A65" stroke-width="1.6" stroke-miterlimit="10" stroke-linecap="round" stroke-linejoin="round"/>
<path d="M45.857 25.2402H42.1994C42.0817 25.2402 41.9689 25.287 41.8857 25.3702C41.8026 25.4534 41.7559 25.5662 41.7559 25.6838V28.3104C41.7559 28.428 41.8026 28.5408 41.8858 28.624C41.9689 28.7072 42.0817 28.7539 42.1994 28.7539H45.857C45.9746 28.7539 46.0874 28.7072 46.1706 28.624C46.2538 28.5408 46.3005 28.428 46.3005 28.3104V25.6838C46.3005 25.5662 46.2538 25.4534 46.1706 25.3702C46.0874 25.287 45.9746 25.2402 45.857 25.2402Z" stroke="#007A65" stroke-width="1.6" stroke-miterlimit="10" stroke-linecap="round" stroke-linejoin="round"/>
<path d="M45.857 46.9042H42.1994C42.0817 46.9042 41.9689 46.9509 41.8857 47.0341C41.8026 47.1173 41.7559 47.2301 41.7559 47.3478V49.9744C41.7559 50.092 41.8026 50.2048 41.8857 50.288C41.9689 50.3712 42.0817 50.4179 42.1994 50.418H45.857C45.9746 50.4179 46.0874 50.3712 46.1706 50.288C46.2538 50.2048 46.3005 50.092 46.3005 49.9744V47.3478C46.3005 47.2301 46.2538 47.1173 46.1706 47.0341C46.0874 46.9509 45.9746 46.9042 45.857 46.9042Z" stroke="#007A65" stroke-width="1.6" stroke-miterlimit="10" stroke-linecap="round" stroke-linejoin="round"/>
<path d="M45.857 39.6816H42.1994C42.0817 39.6816 41.9689 39.7284 41.8857 39.8116C41.8026 39.8948 41.7559 40.0076 41.7559 40.1252V42.7518C41.7559 42.8694 41.8026 42.9822 41.8858 43.0654C41.9689 43.1486 42.0817 43.1953 42.1994 43.1953H45.857C45.9746 43.1953 46.0874 43.1486 46.1706 43.0654C46.2538 42.9822 46.3005 42.8694 46.3005 42.7518V40.1252C46.3005 40.0076 46.2538 39.8948 46.1706 39.8116C46.0874 39.7284 45.9746 39.6816 45.857 39.6816Z" stroke="#007A65" stroke-width="1.6" stroke-miterlimit="10" stroke-linecap="round" stroke-linejoin="round"/>
<path d="M45.857 32.4629H42.1994C42.0817 32.4629 41.9689 32.5096 41.8857 32.5928C41.8026 32.676 41.7559 32.7888 41.7559 32.9065V35.5331C41.7559 35.6507 41.8026 35.7635 41.8858 35.8467C41.9689 35.9298 42.0817 35.9766 42.1994 35.9766H45.857C45.9746 35.9766 46.0874 35.9298 46.1706 35.8467C46.2538 35.7635 46.3005 35.6507 46.3005 35.5331V32.9065C46.3005 32.7888 46.2538 32.676 46.1706 32.5928C46.0874 32.5096 45.9746 32.4629 45.857 32.4629Z" stroke="#007A65" stroke-width="1.6" stroke-miterlimit="10" stroke-linecap="round" stroke-linejoin="round"/>
<path d="M15.1002 21.373H11.4425C11.3249 21.3731 11.2121 21.4198 11.1289 21.503C11.0457 21.5862 10.999 21.699 10.999 21.8166V24.4432C10.999 24.5608 11.0457 24.6737 11.1289 24.7568C11.2121 24.84 11.3249 24.8867 11.4425 24.8867H15.1002C15.1584 24.8867 15.2161 24.8753 15.2699 24.853C15.3237 24.8307 15.3726 24.798 15.4138 24.7569C15.455 24.7157 15.4877 24.6668 15.51 24.613C15.5323 24.5592 15.5438 24.5015 15.5438 24.4432V21.8166C15.5438 21.699 15.497 21.5861 15.4138 21.503C15.3307 21.4198 15.2178 21.373 15.1002 21.373Z" stroke="#007A65" stroke-width="1.6" stroke-miterlimit="10" stroke-linecap="round" stroke-linejoin="round"/>
<path d="M23.1016 6.93542H19.444C19.3264 6.93545 19.2135 6.9822 19.1304 7.06539C19.0472 7.14858 19.0005 7.26139 19.0005 7.37902V10.0056C19.0005 10.1232 19.0472 10.2361 19.1304 10.3193C19.2135 10.4024 19.3264 10.4492 19.444 10.4492H23.1016C23.2193 10.4492 23.3321 10.4025 23.4153 10.3193C23.4985 10.2361 23.5452 10.1233 23.5452 10.0056V7.37902C23.5452 7.32077 23.5338 7.26308 23.5115 7.20926C23.4892 7.15544 23.4565 7.10654 23.4153 7.06535C23.3741 7.02416 23.3252 6.99148 23.2714 6.96919C23.2176 6.9469 23.1599 6.93542 23.1016 6.93542Z" stroke="#007A65" stroke-width="1.6" stroke-miterlimit="10" stroke-linecap="round" stroke-linejoin="round"/>
<path d="M31.1027 6.93542H27.445C27.3273 6.93545 27.2145 6.9822 27.1314 7.06539C27.0482 7.14858 27.0015 7.26139 27.0015 7.37902V10.0056C27.0015 10.1232 27.0482 10.2361 27.1314 10.3193C27.2145 10.4024 27.3273 10.4492 27.445 10.4492H31.1027C31.2204 10.4492 31.3332 10.4024 31.4163 10.3193C31.4995 10.2361 31.5462 10.1232 31.5462 10.0056V7.37902C31.5462 7.26139 31.4995 7.14858 31.4163 7.06539C31.3332 6.9822 31.2204 6.93545 31.1027 6.93542Z" stroke="#007A65" stroke-width="1.6" stroke-miterlimit="10" stroke-linecap="round" stroke-linejoin="round"/>
<path d="M15.1002 6.93542H11.4425C11.3249 6.93545 11.2121 6.9822 11.1289 7.06539C11.0457 7.14858 10.999 7.26139 10.999 7.37902V10.0056C10.999 10.1232 11.0457 10.2361 11.1289 10.3193C11.2121 10.4024 11.3249 10.4492 11.4425 10.4492H15.1002C15.2178 10.4492 15.3307 10.4025 15.4138 10.3193C15.497 10.2361 15.5438 10.1233 15.5438 10.0056V7.37902C15.5438 7.32077 15.5323 7.26308 15.51 7.20926C15.4877 7.15544 15.455 7.10654 15.4138 7.06535C15.3727 7.02416 15.3238 6.99148 15.2699 6.96919C15.2161 6.9469 15.1584 6.93542 15.1002 6.93542Z" stroke="#007A65" stroke-width="1.6" stroke-miterlimit="10" stroke-linecap="round" stroke-linejoin="round"/>
<path d="M19.5375 1.79297H6.21707C6.09244 1.79297 5.96903 1.81752 5.85388 1.86522C5.73873 1.91292 5.63411 1.98283 5.54599 2.07096C5.45786 2.1591 5.38796 2.26373 5.34028 2.37888C5.29259 2.49403 5.26805 2.61745 5.26807 2.74208V54.2109H37.2774V2.74208C37.2774 2.49036 37.1774 2.24895 36.9994 2.07096C36.8214 1.89296 36.58 1.79297 36.3283 1.79297H23.2289" stroke="#007A65" stroke-width="1.6" stroke-miterlimit="10" stroke-linecap="round" stroke-linejoin="round"/>
<path d="M50.7786 35.751V21.7315C50.7786 21.5328 50.6996 21.3423 50.5591 21.2018C50.4186 21.0613 50.2281 20.9824 50.0294 20.9824H37.2773V54.2109H50.7786V39.4424" stroke="#007A65" stroke-width="1.6" stroke-miterlimit="10" stroke-linecap="round" stroke-linejoin="round"/>
</g>
</svg>
