<svg width="57" height="56" viewBox="0 0 57 56" fill="none" xmlns="http://www.w3.org/2000/svg">
<path d="M39.4219 2H17.0781C14.978 2 13.2695 3.70848 13.2695 5.80859V50.1914C13.2695 52.2915 14.978 54 17.0781 54H39.4219C41.522 54 43.2305 52.2915 43.2305 50.1914V5.80859C43.2305 3.70848 41.522 2 39.4219 2ZM41.707 43.3359H20.125C19.923 43.3359 19.7292 43.4162 19.5864 43.559C19.4435 43.7019 19.3633 43.8956 19.3633 44.0977C19.3633 44.2997 19.4435 44.4934 19.5864 44.6363C19.7292 44.7791 19.923 44.8594 20.125 44.8594H41.707V50.1914C41.707 51.4515 40.682 52.4766 39.4219 52.4766H17.0781C15.818 52.4766 14.793 51.4515 14.793 50.1914V44.8594H17.0781C17.2801 44.8594 17.4739 44.7791 17.6167 44.6363C17.7596 44.4934 17.8398 44.2997 17.8398 44.0977C17.8398 43.8956 17.7596 43.7019 17.6167 43.559C17.4739 43.4162 17.2801 43.3359 17.0781 43.3359H14.793V9.61719H41.707V43.3359ZM41.707 8.09375H14.793V5.80859C14.793 4.54851 15.818 3.52344 17.0781 3.52344H39.4219C40.682 3.52344 41.707 4.54851 41.707 5.80859V8.09375Z" fill="#007A65"/>
<path d="M31.2969 5.04688H28.25C28.048 5.04688 27.8542 5.12713 27.7114 5.26998C27.5685 5.41283 27.4883 5.60657 27.4883 5.80859C27.4883 6.01061 27.5685 6.20436 27.7114 6.34721C27.8542 6.49006 28.048 6.57031 28.25 6.57031H31.2969C31.4989 6.57031 31.6926 6.49006 31.8355 6.34721C31.9783 6.20436 32.0586 6.01061 32.0586 5.80859C32.0586 5.60657 31.9783 5.41283 31.8355 5.26998C31.6926 5.12713 31.4989 5.04688 31.2969 5.04688ZM28.25 46.3828C26.9899 46.3828 25.9648 47.4079 25.9648 48.668C25.9648 49.9281 26.9899 50.9531 28.25 50.9531C29.5101 50.9531 30.5352 49.9281 30.5352 48.668C30.5352 47.4079 29.5101 46.3828 28.25 46.3828ZM28.25 49.4297C27.8299 49.4297 27.4883 49.088 27.4883 48.668C27.4883 48.2479 27.8299 47.9062 28.25 47.9062C28.6701 47.9062 29.0117 48.2479 29.0117 48.668C29.0117 49.088 28.6701 49.4297 28.25 49.4297Z" fill="#007A65"/>
<path d="M25.2031 6.57031C25.6238 6.57031 25.9648 6.22928 25.9648 5.80859C25.9648 5.38791 25.6238 5.04688 25.2031 5.04688C24.7824 5.04688 24.4414 5.38791 24.4414 5.80859C24.4414 6.22928 24.7824 6.57031 25.2031 6.57031Z" fill="#007A65"/>
</svg>
