<svg width="180" height="170" fill="none" xmlns="http://www.w3.org/2000/svg"><path fill-rule="evenodd" clip-rule="evenodd" d="M156.049 66.452c2.101 18.892 1.87 38.033-8.014 54.263-10.659 17.503-26.937 31.503-46.931 35.961-21.026 4.689-43.621.82-61.027-11.886-17.266-12.605-27.692-32.891-29.5-54.2-1.684-19.835 6.035-39.886 20.342-53.715C43.337 24.87 62.38 28.47 79.14 24.315c19.592-4.858 38.969-23.153 56.675-13.452 17.971 9.846 17.967 35.215 20.233 55.59z" fill="#C4C4C4"/><path d="M104.851 7.272l-85.69 9.548 13.257 119.274 85.689-9.548L104.851 7.272z" fill="#fff" stroke="#263238" stroke-linecap="round" stroke-linejoin="round"/><path d="M104.85 7.273l-85.689 9.548 1.834 16.503 85.689-9.548-1.834-16.503z" fill="#FCC466" stroke="#263238" stroke-linecap="round" stroke-linejoin="round"/><path d="M81.042 14.877l-36.991 4.12a1.266 1.266 0 00-1.042 1.887 1.269 1.269 0 001.306.632l36.991-4.12A1.266 1.266 0 0082.375 16a1.268 1.268 0 00-1.35-1.124h.017z" fill="url(#paint0_linear_1135_9108)"/><path d="M72.368 21.075l-18.491 2.06a.623.623 0 00-.559.696.634.634 0 00.695.563l18.496-2.06a.633.633 0 00-.141-1.26z" fill="url(#paint1_linear_1135_9108)"/><path opacity=".3" d="M94.7 35.347l-48.471 5.397a.471.471 0 00.105.937l48.458-5.397a.471.471 0 00-.106-.937h.013zm.373 3.368l-55.729 6.207a.47.47 0 00-.24.837.47.47 0 00.346.1l55.729-6.207a.471.471 0 10-.106-.937zm-14.17 4.986l-41.185 4.587a.47.47 0 00.105.938l41.181-4.587a.472.472 0 10-.1-.938zM96.47 51.3l-48.456 5.397a.47.47 0 00.105.937l48.457-5.397a.471.471 0 00-.105-.937zm.375 3.367l-55.73 6.207a.47.47 0 00-.359.697.472.472 0 00.465.24l55.73-6.206a.471.471 0 00-.106-.938zm-14.17 4.987L41.49 64.241a.471.471 0 00.105.938l41.181-4.587a.47.47 0 00.258-.843.475.475 0 00-.359-.095zm15.568 7.6L49.786 72.65a.47.47 0 00.105.934l48.457-5.406a.469.469 0 00.416-.522.472.472 0 00-.521-.416v.014zm.377 3.367l-55.733 6.207a.46.46 0 00-.413.52.473.473 0 00.519.418l55.729-6.207a.474.474 0 00.257-.847.47.47 0 00-.358-.091zm-14.173 4.988L43.26 80.196a.47.47 0 00.106.937l41.18-4.591a.47.47 0 00-.1-.938v.005z" fill="#000"/><path opacity=".3" d="M102.025 65.457l-4.915.548a1.206 1.206 0 00-1.064 1.332l.547 4.922c.073.662.67 1.14 1.33 1.066l4.916-.548a1.206 1.206 0 001.064-1.332l-.547-4.922a1.205 1.205 0 00-1.331-1.066z" stroke="#263238" stroke-linecap="round" stroke-linejoin="round"/><path d="M97.986 69.247l1.613 1.527 2.133-3.266" stroke="url(#paint2_linear_1135_9108)" stroke-width="3" stroke-linecap="round" stroke-linejoin="round"/><path opacity=".3" d="M100.014 83.206l-48.457 5.397a.47.47 0 00.106.933l48.457-5.397a.472.472 0 10-.106-.933zm.379 3.368l-55.734 6.207a.462.462 0 00-.413.52.471.471 0 00.519.418l55.729-6.207a.474.474 0 00.243-.838.47.47 0 00-.344-.1zM86.236 91.56L45.05 96.149a.459.459 0 00-.4.336.462.462 0 00-.013.183.47.47 0 00.519.418L86.337 92.5a.47.47 0 00.418-.52.469.469 0 00-.52-.418zm15.555 7.596l-48.457 5.397a.465.465 0 00-.401.336.472.472 0 00.502.601l48.457-5.397a.453.453 0 00.175-.055.461.461 0 00.242-.464.473.473 0 00-.518-.418zm.373 3.358l-55.733 6.206a.467.467 0 00-.34.164.466.466 0 00-.05.543.48.48 0 00.303.224.48.48 0 00.192.003l55.729-6.207a.481.481 0 00.438-.329.486.486 0 00-.041-.377.468.468 0 00-.498-.227zm-14.169 5.001l-41.186 4.587a.47.47 0 00-.241.838.471.471 0 00.347.1l41.185-4.587a.477.477 0 00.359-.699.478.478 0 00-.282-.225.49.49 0 00-.182-.014zm15.145 3.803l-48.457 5.406a.471.471 0 00.106.938l48.457-5.397a.458.458 0 00.316-.173.46.46 0 00.097-.347.463.463 0 00-.17-.322.465.465 0 00-.349-.105zm.374 3.381l-55.73 6.206a.472.472 0 10.102.934l55.733-6.207a.47.47 0 00.379-.516.47.47 0 00-.484-.417zm-14.174 4.983l-41.181 4.587a.454.454 0 00-.176.055.464.464 0 00-.242.464.474.474 0 00.523.418l41.181-4.587a.472.472 0 00-.105-.937z" fill="#000"/><path d="M112.145 69.991l-6.731 1.224-9.355 1.704-12.253 2.231a1.814 1.814 0 01-2.115-1.466l-2.69-14.813a1.829 1.829 0 011.464-2.117l7.126-1.32 10.367-1.885 10.846-1.976a1.813 1.813 0 012.114 1.466l2.691 14.813a1.823 1.823 0 01-.797 1.877c-.203.13-.43.22-.667.262z" fill="url(#paint3_linear_1135_9108)"/><mask id="a" style="mask-type:luminance" maskUnits="userSpaceOnUse" x="78" y="51" width="36" height="25"><path d="M112.145 69.991l-6.731 1.224-9.355 1.704-12.253 2.231a1.814 1.814 0 01-2.115-1.466l-2.69-14.813a1.829 1.829 0 011.464-2.117l7.126-1.32 10.367-1.885 10.846-1.976a1.813 1.813 0 012.114 1.466l2.691 14.813a1.823 1.823 0 01-.797 1.877c-.203.13-.43.22-.667.262z" fill="#fff"/></mask><g mask="url(#a)" fill="#000" fill-opacity=".7"><path opacity=".3" d="M107.384 60.157l-1.97 11.058-9.355 1.704c-2.709-1.193-7.175-3.27-8.068-4.402-1.064-1.32-.914-9.104-.4-13.083l10.367-1.884c3.653 2.522 9.426 6.607 9.426 6.607zM85.665 74.812l-1.86.34a1.812 1.812 0 01-1.854-.805 1.818 1.818 0 01-.26-.662l-2.69-14.813a1.829 1.829 0 011.464-2.117l1.855-.339a1.82 1.82 0 00-1.46 2.117l2.69 14.813a1.818 1.818 0 002.115 1.466z"/></g><path d="M112.145 69.991l-6.731 1.224-9.355 1.704-12.253 2.231a1.814 1.814 0 01-2.115-1.466l-2.69-14.813a1.829 1.829 0 011.464-2.117l7.126-1.32 10.367-1.885 10.846-1.976a1.813 1.813 0 012.114 1.466l2.691 14.813a1.823 1.823 0 01-.797 1.877c-.203.13-.43.22-.667.262z" stroke="#263238" stroke-linecap="round" stroke-linejoin="round"/><path d="M110.146 50.79l-28.225 5.191a1.816 1.816 0 00-1.456 2.115l2.706 14.75a1.814 1.814 0 002.11 1.457l28.226-5.19a1.816 1.816 0 001.456-2.115l-2.706-14.75a1.813 1.813 0 00-2.111-1.457z" stroke="#263238" stroke-width=".996" stroke-linecap="round" stroke-linejoin="round"/><path d="M109.356 52.572l-26.598 4.84a.88.88 0 00-.707 1.024L84.7 73.03a.88.88 0 001.022.71l26.598-4.84a.88.88 0 00.708-1.024l-2.649-14.596a.88.88 0 00-1.023-.709z" stroke="#263238" stroke-linecap="round" stroke-linejoin="round"/><path d="M114.005 69.652l-1.847.335a1.816 1.816 0 001.451-2.113l-2.691-14.813a1.816 1.816 0 00-2.114-1.466l1.859-.339a1.825 1.825 0 012.115 1.466l2.691 14.813a1.828 1.828 0 01-1.464 2.117z" stroke="#263238" stroke-linecap="round" stroke-linejoin="round"/><path d="M167.478 117.103l-18.205 48.898s-7.615-14.527-14.649-27.971c-5.619-10.749-10.868-20.83-11.576-22.314-1.587-3.341-7.008-10.34-7.008-10.34s-5.561-3.187-8.107-8.738c-2.545-5.551-5.346-25.41-5.346-25.41s-7.31-2.755-9.056-3.961c-1.746-1.206-3.337-12.352-3.337-13.624 0-1.273 1.758-3.822 1.758-3.822s-.39-1.866 1.843-3.75c.73-.6 1.539-1.096 2.404-1.475h.044s-.29-4.213 1.9-5.44a2.42 2.42 0 01.325-.155c1.952-.753 8.353-1.725 8.353-1.725a9.12 9.12 0 013.1-1.792c1.134-.313 7.359 1.136 10.837 1.994a224.1 224.1 0 012.352.59s5.882.268 6.994.933c.776.51 1.485 1.114 2.111 1.8l.11.128s5.245 1.092 6.357 3.016c1.112 1.923 1.587 11.467.796 17.67-.792 6.202.628 16.728.628 16.728s1.64 8.13 2.911 11.216c1.27 3.086 24.461 27.544 24.461 27.544z" fill="#fff"/><path opacity=".4" d="M111.824 45.772s2.344 1.76 3.038 0c.399-.942.652-1.94.752-2.958 0 0 .901-.414 1.758 1.76.858 2.175 9.453 2.73 11.466 3.843 2.014 1.114 2.814 0 2.814 0a2.642 2.642 0 01.659 3.271c-.976 2.02 1.79 2.201 2.863.713 1.072-1.488.241 4.257-2.41 4.843 0 0 .075 2.509-1.631 4.23h1.447s-3.852 3.06-4.876 3.227c-1.024.167 3.812 1.88 2.915 2.24-.897.361-3.438.33-3.438.33s1.644 1.14 1.657 1.894c.014.752-.778 1.32-1.134.69-.356-.629-3.196-9.644-4.612-12.977-1.415-3.332-7.263-5.969-11.268-11.106z" fill="url(#paint4_linear_1135_9108)"/><path opacity=".4" d="M132.21 40.77c-4.933-1.35-11.549-3.274-11.549-3.274l.092-.049c1.398.344 2.352.59 2.352.59s5.883.269 6.995.933a11.07 11.07 0 012.11 1.8z" fill="url(#paint5_linear_1135_9108)"/><path d="M125.273 48.54c-4.291-.88-7.356 2.792-7.356 2.792s4.265 3.865 5.21 5.524c.945 1.66 2.515 7.255 2.515 7.255 1.798.29 5.113-1.567 5.909-6.498.795-4.93-2.009-8.196-6.278-9.072z" fill="url(#paint6_linear_1135_9108)"/><path d="M149.273 166.001s-24.62-46.944-26.225-50.285c-1.604-3.341-7.008-10.34-7.008-10.34s-5.561-3.187-8.107-8.738c-2.545-5.552-5.346-25.41-5.346-25.41s-7.31-2.755-9.056-3.961c-1.746-1.206-3.337-12.352-3.337-13.625 0-1.272 1.758-3.82 1.758-3.82s-.633-3.016 4.291-5.248c0 0-.316-4.618 2.225-5.595 1.952-.753 8.353-1.726 8.353-1.726a9.117 9.117 0 013.1-1.791c1.587-.44 13.189 2.584 13.189 2.584s5.882.268 6.994.933a11.262 11.262 0 012.203 1.906s5.245 1.092 6.357 3.016c1.113 1.923 1.587 11.467.796 17.67-.791 6.202.629 16.728.629 16.728s1.64 8.13 2.91 11.216c1.271 3.086 24.479 27.588 24.479 27.588" stroke="#263238" stroke-linecap="round" stroke-linejoin="round"/><path d="M128.429 70.582s-1.112-.238-2.541-5.49c-1.429-5.252-1.807-7.708-4.77-10.82-2.101-2.201-6.911-5.798-9.294-8.5-2.383-2.703-5.016-4.887-7.074-3.214-1.644 1.32-2.717 4.75-1.27 10.041 1.859 6.797 7.724 10.032 7.724 10.032l1.433 8.55s-6.22 12.475.792 24.25" stroke="#263238" stroke-linecap="round" stroke-linejoin="round"/><path d="M117.896 51.331s3.077-3.667 7.355-2.79c4.277.876 7.056 4.138 6.278 9.072-.778 4.935-4.111 6.788-5.909 6.498m-18.812-26.867a28.699 28.699 0 00-1.477 4.996m-1.126 12.242s.369 5.437 1.134 7.105c.765 1.669 2.036 3.025 2.59 5.173.554 2.148.637 5.49.796 5.97.158.479 1.077.602 1.077.602 1.319.031 1.851-.656 2.611-1.703" stroke="#263238" stroke-linecap="round" stroke-linejoin="round"/><path d="M96.257 44.565s1.191 11.613 2.145 16.548c.954 4.935 2.638 5.648 5.403 7.241 2.766 1.594 4.291 4.843 4.533 5.331.242.489 1.147.542 1.147.542a3.206 3.206 0 002.559-1.678" stroke="#263238" stroke-linecap="round" stroke-linejoin="round"/><path d="M91.957 49.813c-.3.462 2.25 12.255 3.578 15.675 1.328 3.42 1.478 3.962 4.99 4.93 3.513.97 6.182 2.58 7.131 2.012m8.697-29.14s1.824 4.375.619 7.254m6.133-12.508a62.792 62.792 0 009.202 2.848m2.88 12.274s-1.398 2.558-3.518 3.108m-.004-5.895s-.501 1.32-1.033 1.686m2.792 8.818s-3.179 2.408-6.23 3.033m-1.306 1.189s1.319 1.668 4.744 1.827m-15.031-9.13s3.112-2.994 4.888-2.58m1.205 3.187s-2.356 1.761-2.787 1.761M97.43 67.738s.783.145 1.394-.802m1.389-3.486s1.891-1.17 3.126-1.395m13.528 41.102c.391-.347 4.044-3.306 6.304-4.353m-1.565 2.953c-.259-.079-2.334 2.095-3.429 2.967m4.458 3.483s6.959 13.206 8.524 18.489m11.858-37.164c.589 3.245 2.501 5.635 3.548 6.93" stroke="#263238" stroke-linecap="round" stroke-linejoin="round"/><path opacity=".4" d="M121.079 49.812c-1.012.626.052 2.668.615 3.711.563 1.044 3.078 2.703 3.601 4.27.523 1.568 3.829 1.523 4.836 0 1.007-1.523.879-4.565-1.864-6.88-2.744-2.316-5.751-1.981-7.188-1.1z" fill="#fff"/><defs><linearGradient id="paint0_linear_1135_9108" x1="42.097" y1="14.748" x2="44.319" y2="27.942" gradientUnits="userSpaceOnUse"><stop stop-color="#007A65"/><stop offset="1" stop-color="#014A37"/></linearGradient><linearGradient id="paint1_linear_1135_9108" x1="52.939" y1="21.01" x2="54.049" y2="27.598" gradientUnits="userSpaceOnUse"><stop stop-color="#007A65"/><stop offset="1" stop-color="#014A37"/></linearGradient><linearGradient id="paint2_linear_1135_9108" x1="97.915" y1="67.446" x2="101.212" y2="71.227" gradientUnits="userSpaceOnUse"><stop stop-color="#007A65"/><stop offset="1" stop-color="#014A37"/></linearGradient><linearGradient id="paint3_linear_1135_9108" x1="78.314" y1="51.094" x2="100.735" y2="83.981" gradientUnits="userSpaceOnUse"><stop stop-color="#007A65"/><stop offset="1" stop-color="#014A37"/></linearGradient><linearGradient id="paint4_linear_1135_9108" x1="111.372" y1="42.263" x2="138.97" y2="66.288" gradientUnits="userSpaceOnUse"><stop stop-color="#007A65"/><stop offset="1" stop-color="#014A37"/></linearGradient><linearGradient id="paint5_linear_1135_9108" x1="120.442" y1="37.384" x2="122.242" y2="43.639" gradientUnits="userSpaceOnUse"><stop stop-color="#007A65"/><stop offset="1" stop-color="#014A37"/></linearGradient><linearGradient id="paint6_linear_1135_9108" x1="117.656" y1="48.106" x2="133.549" y2="62.011" gradientUnits="userSpaceOnUse"><stop stop-color="#007A65"/><stop offset="1" stop-color="#014A37"/></linearGradient></defs></svg>