<svg width="180" height="170" fill="none" xmlns="http://www.w3.org/2000/svg"><g clip-path="url(#clip0_1178_4525)"><path fill-rule="evenodd" clip-rule="evenodd" d="M7.084 104.702c-.039-20.286 9.423-39.315 24.031-53.36 14.289-13.74 33.574-18.294 53.206-20.903 23.878-3.173 52.375-12.5 69.358 4.615 16.973 17.107 10.741 46.282 4.169 69.488-4.92 17.37-21.251 26.819-34.812 38.71-12.069 10.582-22.731 23.1-38.568 25.632-18.568 2.969-38.663 1.047-53.147-10.966-15.584-12.925-24.198-32.946-24.237-53.216z" fill="#C4C4C4"/><path d="M20.582 3.58a4.25 4.25 0 00-4.232-.843c-2.536.844-4.965 4.508-4.352 7.61.429 2.149 2.42 5.315 3.024 6.523.604 1.208-.244 3.25-2.162 7.49-1.918 4.241-2.66 8.22 2.9 11.723 5.56 3.503 11.852-2.056 15.08-6.043 3.226-3.988-2.421-13.17-2.905-17.056-.484-3.886-1.314-11.335-7.353-9.403z" fill="#263238"/><path d="M33.651 30.307a13.314 13.314 0 01-10.649 3.844l-1.332 5.554 2.535 12.681 16.555-8.578-3.748-9.68-3.36-3.821z" fill="#FCC466" stroke="#263238" stroke-linecap="round" stroke-linejoin="round"/><path d="M33.651 30.307L31.115 13.51l-7.514 1.54-3.748 2.415s-4.472 3.508-4.472 3.867c0 .36 7.566 13.018 7.566 13.018a14.026 14.026 0 0010.704-4.043z" fill="#fff"/><path d="M33.651 30.307L31.115 13.51l-7.514 1.54-3.748 2.415s-4.472 3.508-4.472 3.867c0 .36 7.566 13.018 7.566 13.018a14.026 14.026 0 0010.704-4.043z" stroke="#263238" stroke-linecap="round" stroke-linejoin="round"/><path opacity=".5" d="M23.569 29.588s5.297-3.927 4.808-2.766c-.489 1.162-4.15 4.061-5.131 4.149-.982.087.323-1.383.323-1.383z" fill="#FCC466"/><path d="M23.73 22.13l.208.216 1.29 1.364.333 5.241 1.58-.249-1.248-4.909 2 4.158 1.665-1.664-3.578-3.245-.087-2.577-1.83-.917" fill="#263238"/><path d="M20.822 15.907s-1.572.723-1.572 2.17c0 1.448 1.7 4.891 2.766 5.615 1.065.724 2.89-2.59 2.89-2.59s2.766 1.327 3.504.12c.737-1.208-1.692-5.196-3.26-6.283-1.567-1.088-4.328.968-4.328.968z" fill="#fff" stroke="#263238" stroke-linecap="round" stroke-linejoin="round"/><path d="M19.494 14.455a28.702 28.702 0 011.088 3.383c.24 1.208 3.503 3.264 3.863 3.384.36.12.604-3.867.604-3.867l-.964-4.711-4.591 1.811z" fill="#fff"/><mask id="a" style="mask-type:luminance" maskUnits="userSpaceOnUse" x="19" y="12" width="7" height="10"><path d="M19.494 14.455a28.702 28.702 0 011.088 3.383c.24 1.208 3.503 3.264 3.863 3.384.36.12.604-3.867.604-3.867l-.964-4.711-4.591 1.811z" fill="#fff"/></mask><g mask="url(#a)"><path d="M24.187 13.146c-.203-.057-.41-.1-.618-.13l-3.333 1.176-.438 1.143c.221.618.502 1.448.673 2.12a3.704 3.704 0 001.904.798c1 .07 1.88-.705 2.503-1.655l-.691-3.452z" fill="#FCC466" opacity=".5"/></g><path d="M19.494 14.455a28.702 28.702 0 011.088 3.383c.24 1.208 3.503 3.264 3.863 3.384.36.12.604-3.867.604-3.867l-.964-4.711-4.591 1.811z" stroke="#263238" stroke-linecap="round" stroke-linejoin="round"/><path d="M17.318 12.398s-1.333-1.083-1.333 0c0 1.084 1.213 1.692 2.176 1.692" fill="#fff"/><path d="M17.318 12.398s-1.333-1.083-1.333 0c0 1.084 1.213 1.692 2.176 1.692" stroke="#263238" stroke-linecap="round" stroke-linejoin="round"/><path d="M24.445 8.896s.848-1.328 1.088.124a3.687 3.687 0 01-.724 2.655l-.364-2.78z" fill="#fff" stroke="#263238" stroke-linecap="round" stroke-linejoin="round"/><g opacity=".5"><path d="M17.318 12.398s-1.333-1.083-1.333 0c0 1.084 1.213 1.692 2.176 1.692" fill="#FCC466"/><path d="M17.318 12.398s-1.333-1.083-1.333 0c0 1.084 1.213 1.692 2.176 1.692" stroke="#263238" stroke-linecap="round" stroke-linejoin="round"/></g><path opacity=".5" d="M24.445 8.896s.848-1.328 1.088.124a3.687 3.687 0 01-.724 2.655l-.364-2.78z" fill="#FCC466" stroke="#263238" stroke-linecap="round" stroke-linejoin="round"/><path d="M15.82 8.905s1.037 4.32 3.263 6.454c2.227 2.134 4.61 2.152 5.436-1.65.677-3.135-1.005-7.316-1.005-7.316s-5.431-4.471-7.695 2.512z" fill="#fff"/><mask id="b" style="mask-type:luminance" maskUnits="userSpaceOnUse" x="15" y="4" width="10" height="13"><path d="M15.82 8.905s1.037 4.32 3.263 6.454c2.227 2.134 4.61 2.152 5.436-1.65.677-3.135-1.005-7.316-1.005-7.316s-5.431-4.471-7.695 2.512z" fill="#fff"/></mask><g mask="url(#b)"><path d="M19.688 4.986l.843 2.12s1.328-.294 2.075 1.31c.746 1.604 1.498 3.955 1.07 5.776-.411 1.733-1.384 2.304-2.882 2.346 1.632.696 3.112 0 3.725-2.84.678-3.134-1.005-7.315-1.005-7.315s-1.84-1.507-3.826-1.397z" fill="#FCC466" opacity=".5"/></g><path d="M15.82 8.905s1.037 4.32 3.263 6.454c2.227 2.134 4.61 2.152 5.436-1.65.677-3.135-1.005-7.316-1.005-7.316s-5.431-4.471-7.695 2.512z" stroke="#263238" stroke-linecap="round" stroke-linejoin="round"/><path d="M19.941 11.186c.13.245.106.507-.05.59-.157.083-.388-.05-.512-.295-.125-.244-.107-.502.05-.585.157-.083.388.05.512.29zm2.407-.746c.092.259.032.517-.134.572-.166.055-.378-.101-.46-.36-.084-.258-.033-.516.133-.571.166-.055.369.11.46.36z" fill="#263238"/><path d="M22.514 9.057a1.038 1.038 0 00-1.255.074c-.663.516.59 3.102.59 3.102s.024.816-1.023.438m1.688.839a1.189 1.189 0 01-1.845.46m-.963-4.227s-1.18-1.111-1.697 1.032" stroke="#263238" stroke-width=".5" stroke-linecap="round" stroke-linejoin="round"/><path d="M23.583 5.023c-1.295-1.124-2.342-1.11-2.798-.963a3.093 3.093 0 00-1.416-.46c-3.623-.485-4.107 2.304-4.107 4.954s-2.305 5.8-.724 6.163a1.89 1.89 0 002.176-1.088s1.692-2.765 1.692-4.715c0-1.95 2.107-1.766 2.107-1.766a1.123 1.123 0 011.696-.193c.96.82 1.07 1.784 1.844 2.033.775.249 2.07-.996 2.07-.996a18.238 18.238 0 00-2.54-2.969z" fill="#263238"/><path d="M20.614 5.747s-1.457-1.17-2.766.143c-1.31 1.314-1.166 3.798-1.604 5.407-.438 1.609-1.61 1.9-1.61 1.9" stroke="#fff" stroke-width=".5" stroke-linecap="round" stroke-linejoin="round"/><path d="M19.595 5.31s-1.572-1.558-3.55.415c-1.507 1.512-.834 2.503-1.129 4.987m6.431-5.698S24.113 3.7 25.293 7.06" stroke="#fff" stroke-width=".5" stroke-linecap="round" stroke-linejoin="round"/><path d="M15.382 21.342L11.2 38.167l12.263 3.475.604-2.175-8.054-3.716 2.734-9.68s-.36-1.811-2.305-3.863" fill="#fff"/><mask id="c" style="mask-type:luminance" maskUnits="userSpaceOnUse" x="11" y="21" width="14" height="21"><path d="M15.382 21.342L11.2 38.167l12.263 3.475.604-2.175-8.054-3.716 2.734-9.68s-.36-1.811-2.305-3.863" fill="#fff"/></mask><g mask="url(#c)"><path d="M24.085 39.48l-8.053-3.715 2.733-9.68a7.433 7.433 0 00-1.028-2.254l-.262-.198v2.673c0 1.71-2.14 7.164-2.891 8.445-.751 1.282-1.922 2.886-1.922 2.886l2.35-1.07 8.912 3.568.161-.654z" fill="#FCC466" opacity=".5"/></g><path d="M15.382 21.342L11.2 38.167l12.263 3.475.604-2.175-8.054-3.716 2.734-9.68s-.36-1.811-2.305-3.863" stroke="#263238" stroke-linecap="round" stroke-linejoin="round"/><path d="M49.86 26.393l-9.284-1.95-9.483-10.957 1.401 8.814 5.818 5.54 11.691.535-.143-1.982z" fill="#fff"/><mask id="d" style="mask-type:luminance" maskUnits="userSpaceOnUse" x="31" y="13" width="20" height="16"><path d="M49.86 26.393l-9.284-1.95-9.483-10.957 1.401 8.814 5.818 5.54 11.691.535-.143-1.982z" fill="#fff"/></mask><g mask="url(#d)"><path d="M31.093 13.486l1.13 7.034.718 2.2.093.082c.272-.28 1.807-1.876 2.199-1.876.392 0 4.813 3.85 4.172 4.149l-.646.318 11.014 1.816.078-.844-9.266-1.945-9.492-10.934z" fill="#FCC466" opacity=".5"/></g><path d="M49.86 26.393l-9.284-1.95-9.483-10.957 1.401 8.814 5.818 5.54 11.691.535-.143-1.982z" stroke="#263238" stroke-linecap="round" stroke-linejoin="round"/><path d="M136.534 119.686L18.3 102.363a1.43 1.43 0 01-1.208-1.627l9.847-67.166a1.43 1.43 0 011.623-1.207l2.24.327a1.425 1.425 0 001.448-.7l2.973-5.14c.09-.162.213-.303.36-.415a3.296 3.296 0 012.411-.59l29.804 4.37a3.291 3.291 0 011.784.857c.132.131.235.288.305.46l2.65 6.565a1.425 1.425 0 001.12.88l73.14 10.723a1.433 1.433 0 011.213 1.623l-9.847 67.161a1.436 1.436 0 01-1.628 1.203z" fill="#263238" stroke="#263238" stroke-miterlimit="10"/><path d="M137.793 119.359H20.6a2.594 2.594 0 01-2.394-1.599 2.593 2.593 0 01-.197-.992V51.202a2.59 2.59 0 012.591-2.59h.318a2.605 2.605 0 002.411-1.632l1.784-4.485a2.52 2.52 0 011.038-1.245 3.32 3.32 0 011.678-.46H57.95a3.31 3.31 0 011.185.216c.525.212.964.595 1.244 1.088l3.066 5.222a2.59 2.59 0 002.236 1.282h72.111a2.591 2.591 0 012.591 2.59v65.58a2.59 2.59 0 01-2.591 2.591z" fill="#FCC466"/><mask id="e" style="mask-type:luminance" maskUnits="userSpaceOnUse" x="18" y="40" width="123" height="80"><path d="M137.793 119.359H20.6a2.594 2.594 0 01-2.394-1.599 2.593 2.593 0 01-.197-.992V51.202a2.59 2.59 0 012.591-2.59h.318a2.605 2.605 0 002.411-1.632l1.784-4.485a2.52 2.52 0 011.038-1.245 3.32 3.32 0 011.678-.46H57.95a3.31 3.31 0 011.185.216c.525.212.964.595 1.244 1.088l3.066 5.222a2.59 2.59 0 002.236 1.282h72.111a2.591 2.591 0 012.591 2.59v65.58a2.59 2.59 0 01-2.591 2.591z" fill="#fff"/></mask><g mask="url(#e)"><path opacity=".1" d="M137.793 119.359H20.6a2.594 2.594 0 01-2.394-1.599 2.593 2.593 0 01-.197-.992V51.202a2.59 2.59 0 012.591-2.59h.318a2.605 2.605 0 002.411-1.632l1.784-4.485a2.52 2.52 0 011.038-1.245 3.32 3.32 0 011.678-.46H57.95a3.31 3.31 0 011.185.216c.525.212.964.595 1.244 1.088l3.066 5.222a2.59 2.59 0 002.236 1.282h72.111a2.591 2.591 0 012.591 2.59v65.58a2.59 2.59 0 01-2.591 2.591z" fill="#263238"/></g><path d="M51.123 48.39H32.37a1.687 1.687 0 01-1.56-2.334 1.689 1.689 0 011.56-1.044h18.754a1.692 1.692 0 011.196 2.886 1.687 1.687 0 01-1.196.492z" fill="#fff"/><path d="M137.793 130.801H20.6a2.59 2.59 0 01-2.59-2.591V62.644a2.59 2.59 0 012.59-2.59h.318a2.6 2.6 0 002.411-1.633l1.784-4.48a2.503 2.503 0 011.038-1.245 3.278 3.278 0 011.678-.46H57.95a3.31 3.31 0 011.185.216 2.49 2.49 0 011.244 1.093l3.066 5.227a2.59 2.59 0 002.236 1.281h72.111a2.591 2.591 0 012.591 2.59v65.567a2.59 2.59 0 01-2.591 2.591z" fill="#263238" stroke="#263238" stroke-miterlimit="10"/><path d="M60.108 34.87l-18.606-2.304a1.696 1.696 0 01-1.47-1.886 1.692 1.692 0 011.89-1.465l18.602 2.304a1.692 1.692 0 011.263 2.511 1.686 1.686 0 01-1.678.84zm-8.984 24.966H32.37a1.687 1.687 0 01-1.687-1.692 1.692 1.692 0 011.687-1.692h18.754a1.692 1.692 0 010 3.384z" fill="#FCC466"/><path d="M141.624 79.772H16.764a2.43 2.43 0 00-2.429 2.429v75.546a2.43 2.43 0 002.43 2.429h124.859a2.43 2.43 0 002.429-2.429V82.201a2.43 2.43 0 00-2.429-2.43z" fill="#fff"/><mask id="f" style="mask-type:luminance" maskUnits="userSpaceOnUse" x="14" y="79" width="131" height="82"><path d="M141.624 79.772H16.764a2.43 2.43 0 00-2.429 2.429v75.546a2.43 2.43 0 002.43 2.429h124.859a2.43 2.43 0 002.429-2.429V82.201a2.43 2.43 0 00-2.429-2.43z" fill="#fff"/></mask><g mask="url(#f)"><path d="M144.053 101.413a194.349 194.349 0 01-48.452 33.143c-26.208 12.533-56.164 21.172-73.618 25.62h119.636a2.438 2.438 0 002.249-1.499c.122-.295.185-.611.185-.93v-56.334z" fill="#007A65"/><path opacity=".2" d="M144.053 101.413a194.349 194.349 0 01-48.452 33.143c-26.208 12.533-56.164 21.172-73.618 25.62h119.636a2.438 2.438 0 002.249-1.499c.122-.295.185-.611.185-.93v-56.334z" fill="#fff"/></g><path d="M141.624 79.772H16.764a2.43 2.43 0 00-2.429 2.429v75.546a2.43 2.43 0 002.43 2.429h124.859a2.43 2.43 0 002.429-2.429V82.201a2.43 2.43 0 00-2.429-2.43z" stroke="#263238" stroke-miterlimit="10"/><path d="M16.211 86.835v-3.227a2.434 2.434 0 012.434-2.43h5.28m-7.714 54.66V90.766m125.961 60.45v5.103a2.422 2.422 0 01-1.498 2.248 2.439 2.439 0 01-.931.185h-4.255m6.684-73.052v61.721" stroke="#263238" stroke-miterlimit="10"/><path d="M98.478 109.172H59.906c-.696 0-1.259.563-1.259 1.258v19.678c0 .695.563 1.259 1.259 1.259h38.572a1.26 1.26 0 001.259-1.259V110.43c0-.695-.564-1.258-1.259-1.258z" fill="#263238" stroke="#263238" stroke-miterlimit="10"/><path d="M98.478 109.172H59.906c-.696 0-1.259.563-1.259 1.258v4.232c0 .695.563 1.258 1.259 1.258h38.572c.695 0 1.259-.563 1.259-1.258v-4.232c0-.695-.564-1.258-1.259-1.258zm-75.015-67.53l.843 1.572 1.794 1.29a.696.696 0 00.784.028l.156-.101a.549.549 0 00.217-.692l-1.019-2.341.687.534a.53.53 0 00.733-.083.535.535 0 000-.668l-1.6-2.024-2 .31-.595 2.175z" fill="#fff" stroke="#263238" stroke-miterlimit="10"/><path d="M27.059 44.43l-1.604-2.106m.663 2.18l-1.258-1.669" stroke="#263238" stroke-width=".5" stroke-linecap="round" stroke-linejoin="round"/><path d="M49.86 26.394l2.508.147 3.052 1.95s.17.595-.253.678c-.425.082-2.716-.761-2.716-.761l-2.448-.032-.143-1.982z" fill="#fff" stroke="#263238" stroke-miterlimit="10"/><path d="M49.99 28.066l2.632 1.19s.424-.595-.171-.849l-.867-.595" fill="#fff"/><path d="M49.99 28.066l2.632 1.19s.424-.595-.171-.849l-.867-.595" stroke="#263238" stroke-linejoin="round"/><path d="M142.988 73.019l-1.088-3.254-1.221-1.674a.17.17 0 00-.085-.065.164.164 0 00-.106 0 .17.17 0 00-.086.064.17.17 0 00-.028.103v4.821l.922 1.213 1.692-1.208z" fill="#fff"/><path d="M160.718 87.25l-9.127.322a1.776 1.776 0 01-1.642-.963l-6.961-13.59s-1.567.849-1.687 1.208c-.12.36 5.154 13.585 6.772 17.646a1.78 1.78 0 001.72 1.115l10.202-.433" fill="#fff"/><path d="M160.718 87.25l-9.127.322a1.776 1.776 0 01-1.642-.963l-6.961-13.59s-1.567.849-1.687 1.208c-.12.36 5.154 13.585 6.772 17.646a1.78 1.78 0 001.72 1.115l10.202-.433" stroke="#263238" stroke-miterlimit="10"/><path d="M143.656 74.71l-1.429.59" stroke="#263238" stroke-width=".75" stroke-miterlimit="10"/><g opacity=".5"><path d="M160.718 87.25l-9.127.322a1.776 1.776 0 01-1.642-.963l-6.961-13.59s-1.567.849-1.687 1.208c-.12.36 5.154 13.585 6.772 17.646a1.78 1.78 0 001.72 1.115l10.202-.433" fill="#fff"/><path d="M160.718 87.25l-9.127.322a1.776 1.776 0 01-1.642-.963l-6.961-13.59s-1.567.849-1.687 1.208c-.12.36 5.154 13.585 6.772 17.646a1.78 1.78 0 001.72 1.115l10.202-.433" stroke="#263238" stroke-miterlimit="10"/><path d="M143.657 74.71l-1.429.591" stroke="#263238" stroke-width=".75" stroke-miterlimit="10"/></g><path d="M142.988 73.019l-1.088-3.254-1.221-1.674a.17.17 0 00-.085-.065.164.164 0 00-.106 0 .17.17 0 00-.086.064.17.17 0 00-.028.103v4.821l.922 1.213 1.692-1.208z" fill="#fff"/><mask id="g" style="mask-type:luminance" maskUnits="userSpaceOnUse" x="140" y="68" width="3" height="7"><path d="M142.988 73.019l-1.088-3.254-1.221-1.674a.17.17 0 00-.085-.065.164.164 0 00-.106 0 .17.17 0 00-.086.064.17.17 0 00-.028.103v4.821l.922 1.213 1.692-1.208z" fill="#fff"/></mask><g mask="url(#g)"><path opacity=".5" d="M142.988 73.019l-1.088-3.254-1.221-1.674a.17.17 0 00-.085-.065.164.164 0 00-.106 0 .17.17 0 00-.086.064.17.17 0 00-.028.103v4.821l.922 1.213 1.692-1.208z" fill="#fff"/></g><path d="M142.988 73.019l-1.088-3.254-1.221-1.674a.17.17 0 00-.085-.065.164.164 0 00-.106 0 .17.17 0 00-.086.064.17.17 0 00-.028.103v4.821l.922 1.213 1.692-1.208z" stroke="#263238" stroke-miterlimit="10"/><path d="M163.545 78.661a4.945 4.945 0 00-.922 1.885c-.134.885.078 4.292.078 4.292l-4.748.535s.359-3.462.378-4.038a5.123 5.123 0 012.512-3.411c1.632-.803 3.02-.41 2.702.737z" fill="#fff"/><path d="M163.545 78.661a4.945 4.945 0 00-.922 1.885c-.134.885.078 4.292.078 4.292l-4.748.535s.359-3.462.378-4.038a5.123 5.123 0 012.512-3.411c1.632-.803 3.02-.41 2.702.737z" stroke="#263238" stroke-width="1.004" stroke-miterlimit="10"/><path d="M164.531 79.247c3.937-5.2-5.555-10.602-8.049-5.434a9.726 9.726 0 00-.821 2.01c-.378.23-1.383.848-1.567 1.018-.185.17.461.609.816.825-.678 1.664-.577 3.416-.383 3.812.336.683 1.996.692 3.089.489 1.092-.203 1.526-1.25 1.844-1.535.318-.286 1.904.078 2.461.244.558.166 1.844-.4 2.61-1.429z" fill="#fff"/><mask id="h" style="mask-type:luminance" maskUnits="userSpaceOnUse" x="154" y="71" width="12" height="12"><path d="M164.531 79.247c3.937-5.2-5.555-10.602-8.049-5.434a9.726 9.726 0 00-.821 2.01c-.378.23-1.383.848-1.567 1.018-.185.17.461.609.816.825-.678 1.664-.577 3.416-.383 3.812.336.683 1.996.692 3.089.489 1.092-.203 1.526-1.25 1.844-1.535.318-.286 1.904.078 2.461.244.558.166 1.844-.4 2.61-1.429z" fill="#fff"/></mask><g mask="url(#h)"><path d="M160.635 78.749s.083.392-.71.71c-.793.318-.95.078-1.185.631a1.976 1.976 0 01-1.581 1.425c-.751.142-1.51.24-2.273.29.627.35 1.872.323 2.766.161 1.088-.198 1.526-1.249 1.844-1.534.318-.286 1.904.078 2.462.244.131.026.266.026.397 0 .208-.463.332-.96.368-1.466l-2.088-.461z" fill="#FCC466" opacity=".5"/></g><path d="M164.531 79.247c3.937-5.2-5.555-10.602-8.049-5.434a9.726 9.726 0 00-.821 2.01c-.378.23-1.383.848-1.567 1.018-.185.17.461.609.816.825-.678 1.664-.577 3.416-.383 3.812.336.683 1.996.692 3.089.489 1.092-.203 1.526-1.25 1.844-1.535.318-.286 1.904.078 2.461.244.558.166 1.844-.4 2.61-1.429z" stroke="#263238" stroke-miterlimit="10"/><path d="M156.841 76.278c-.101.221-.272.36-.382.309-.111-.05-.12-.272 0-.493.119-.221.272-.36.382-.31.111.052.102.273 0 .494z" fill="#263238"/><path d="M156.749 74.858s.461-.383.553.498m-2.484 3.204s0 .462.83.462" stroke="#263238" stroke-width=".5" stroke-linecap="round" stroke-linejoin="round"/><path d="M153.693 108.725l-.365 4.508s-2.521 17.949-2.401 20.01c.119 2.06.391 23.347.391 23.347l3.038.484 3.412-23.61 4.79-23.993-8.865-.746z" fill="#FCC466" stroke="#263238" stroke-miterlimit="10"/><path d="M157.537 125.121s-1.166 6.864-2.046 10.229c-.881 3.365-.876 6.72-.876 10.371 0 3.651-1.314 10.381-1.314 10.381" stroke="#263238" stroke-width=".75" stroke-miterlimit="10"/><path d="M159.856 107.618c2.001-1.051 4.149-1.747 4.762-.35 1.218 2.793-.239 7.039-.239 7.039l1.111 19.581 2.033 23.624-3.038-.488s-4.666-19.937-5.394-21.154c-.728-1.217-1.876-18.286-1.876-18.286l-2.305-2.097" fill="#FCC466"/><path d="M159.856 107.618c2.001-1.051 4.149-1.747 4.762-.35 1.218 2.793-.239 7.039-.239 7.039l1.111 19.581 2.033 23.624-3.038-.488s-4.666-19.937-5.394-21.154c-.728-1.217-1.876-18.286-1.876-18.286l-2.305-2.097" stroke="#263238" stroke-miterlimit="10"/><path d="M162.226 122.451c.069 4.541.53 6.726.89 7.924.438 1.461.29 4.236.29 5.531 0 1.296-.585-.29.733 5.702 1.319 5.993 2.19 14.318 2.19 14.318m-4.103-43.371s.143-.295 0 6.573v1.069" stroke="#263238" stroke-width=".75" stroke-miterlimit="10"/><path d="M155.481 111.251l-.096 2.056-.475 1.429.71.83m-1.07-3.089s1.19 1.189 4.278.829" stroke="#263238" stroke-width=".75" stroke-linecap="round" stroke-linejoin="round"/><path d="M161.848 111.449c2.305-.461 2.453-1.097 3.25-1.632a6.632 6.632 0 00-.461-2.549c-.604-1.383-2.766-.701-4.762.35l-.968 1.531-5.196-.424-.166 2.037a16.98 16.98 0 008.303.687z" fill="#263238"/><path d="M154.214 110.135l-.051.811 1.319.304.101-1.065-1.369-.05z" fill="#fff" stroke="#263238" stroke-width=".75" stroke-miterlimit="10"/><path d="M163.415 111.338l-.221-2.019.668-.221.337 1.793" fill="#FCC466"/><path d="M163.415 111.338l-.221-2.019.668-.221.337 1.793" stroke="#263238" stroke-miterlimit="10"/><path d="M158.261 112.012l-.447-2.356h1.12l.447 2.019" fill="#FCC466"/><path d="M158.261 112.012l-.447-2.356h1.12l.447 2.019" stroke="#263238" stroke-miterlimit="10"/><path d="M163.415 111.338l-.221-2.019.668-.221.337 1.793m-5.938 1.12l-.447-2.356h1.12l.447 2.019" opacity=".2" fill="#263238"/><path d="M153.098 90.858s-.383 2.559-1.531 6.915-2.305 9.578-2.305 9.578l.641 2.683 1.913-2.812 1.282-16.364zm3.194-3.702s-2.683.636-2.936 1.913a10.581 10.581 0 00-.258 1.789l4.089-3.32 5.112-2.046-6.007 1.664z" fill="#263238" stroke="#263238" stroke-miterlimit="10"/><path d="M157.026 86.169s-2.181 2.466-3.048 3.48c-.866 1.014-.871 11.897-.871 13.497 0 1.599-.867 5.942.581 6.813 1.447.871 10.303.581 11.175-.871.871-1.452 1.447-18.858 1.304-20.453a4.429 4.429 0 00-2.471-3.337c-1.009-.466-6.67.87-6.67.87z" fill="#fff"/><path d="M157.026 86.169s-2.181 2.466-3.048 3.48c-.866 1.014-.871 11.897-.871 13.497 0 1.599-.867 5.942.581 6.813 1.447.871 10.303.581 11.175-.871.871-1.452 1.447-18.858 1.304-20.453a4.429 4.429 0 00-2.471-3.337c-1.009-.466-6.67.87-6.67.87z" stroke="#263238" stroke-miterlimit="10"/><path d="M161.484 97.21c-2.338-.728-4.384-2.766-4.384-2.766a9.883 9.883 0 003.946 5.993" fill="#fff"/><path d="M161.484 97.21c-2.338-.728-4.384-2.766-4.384-2.766a9.883 9.883 0 003.946 5.993" stroke="#263238" stroke-width=".75" stroke-linecap="round" stroke-linejoin="round"/><path d="M163.263 83.703l-6.966 1.595-.433 2.033 7.832-2.033-.433-1.595z" fill="#fff" stroke="#263238" stroke-miterlimit="10"/><path d="M154.762 160.117l-.405-3.061-3.038-.484-2.531 1.803-2.268 1.244v.498h8.242zm13.139.239l-.378-2.844-3.038-.489-2.531 1.803-2.268 1.249v.281h8.215z" fill="#263238" stroke="#263238" stroke-miterlimit="10"/><path d="M141.66 70.363l-1.871-1.083s-.729-.088-.415.724l1.871 1.443" fill="#fff"/><path d="M141.66 70.363l-1.871-1.083s-.729-.088-.415.724l1.871 1.443" stroke="#263238" stroke-linecap="round" stroke-linejoin="round"/><path d="M141.384 73.18a1.864 1.864 0 00-.383-.6l-.35-.377-1.904-2.36s-.59-.397-.461.46l1.18 2.305-2.098-1.968s-.396-.327-.396.134c0 .46 1.904 2.493 1.904 2.493l-2.102-.986s-.461.327-.129.654c.332.328 2.097.987 2.097.987l-1.572-.065s-.461.392-.134.526c.328.134 2.167.52 2.167.52.234.2.501.355.788.462l.461.853 1.766-.89-.834-2.148z" fill="#fff" stroke="#263238" stroke-linecap="round" stroke-linejoin="round"/><path d="M160.235 93.642l-10.521 2.466a2.366 2.366 0 01-2.614-1.47l-6.638-18.439 1.766-.89 7.334 13.585a1.642 1.642 0 001.77.834l8.045-2.272" fill="#fff"/><path d="M160.235 93.642l-10.521 2.466a2.366 2.366 0 01-2.614-1.47l-6.638-18.439 1.766-.89 7.334 13.585a1.642 1.642 0 001.77.834l8.045-2.272" stroke="#263238" stroke-miterlimit="10"/><path d="M143.219 77.047l-2.047 1.023" stroke="#263238" stroke-width=".75" stroke-miterlimit="10"/><path d="M158.925 73.867s-1.12 1.12-.562 1.959c.33.485.582 1.018.746 1.581 0 0-.461 1.12-.092 1.12s.185-.839.839-.65c.655.19 1.305 1.305.747 1.678-.417.233-.86.419-1.318.553a.312.312 0 00-.065.572c.607.41 1.305.663 2.033.737a7.12 7.12 0 001.77-.184s1.844-2.517 3.172-3.171c1.328-.655.747-3.637.747-4.01 0-.374-1.305-1.213-1.305-1.213s.374-.839-1.304-2.701c-1.678-1.863-4.85-2.24-4.942-1.586a.918.918 0 00.373.922s-2.798-1.212-4.103.092c-1.305 1.305 3.264 4.3 3.264 4.3z" fill="#263238" stroke="#263238" stroke-miterlimit="10"/><path d="M158.925 73.867s2.268 2.766 5.629 3.033m-6.431-2.19s1.056 3.07 5.421 3.946" stroke="#fff" stroke-width=".5" stroke-linecap="round" stroke-linejoin="round"/></g><defs><clipPath id="clip0_1178_4525"><path fill="#fff" d="M0 0h180v170H0z"/></clipPath></defs></svg>