<svg width="180" height="170" fill="none" xmlns="http://www.w3.org/2000/svg"><g clip-path="url(#clip0_1135_9052)"><path fill-rule="evenodd" clip-rule="evenodd" d="M172.593 99.435c-4.524 20.189-18.218 36.991-35.909 47.678-17.305 10.453-37.515 10.646-57.632 8.826-24.468-2.215-54.915.654-67.96-20.193-13.037-20.836-.274-48.458 11.484-70.065 8.801-16.174 27.173-21.9 43.338-30.678 14.387-7.813 27.81-17.867 44.135-16.824 19.139 1.223 38.697 7.655 50.404 22.865 12.595 16.363 16.66 38.218 12.14 58.391z" fill="#C4C4C4"/><path d="M96.698 85.718s-43.214-1.463-47.621 8.316c-4.407 9.778 0 39.12 0 39.12h67.272s9.618-36.348 4.253-41.244c-5.366-4.896-23.904-6.192-23.904-6.192z" fill="#263238" stroke="#263238" stroke-miterlimit="10"/><path d="M101.956 15.259s-2.347-1.082-3.716.294c-1.368 1.376-2.501 2.09-3.561 2.15-1.06.06-3.615-.7-4.347 1.243-.73 1.944-2.112 1.797-3.018 2.044-.905.247-3.803 1.122-3.923 2.284-.121 1.162.073 2.672-1.006 2.919-1.08.247-3.703.127-4.065 1.937a4.94 4.94 0 01-.975 2.129 4.968 4.968 0 01-1.849 1.444c-1.093.394-3.353 0-3.541 2.004a65.582 65.582 0 00-.235 4.008l-1.247 1.883s-2.053 1.136-1.556 3.2c.496 2.063 2.461 3.44.167 5.223s-3.782 2.671-2.723 4.254c1.06 1.583 2.824 1.63 2.462 3.44-.362 1.81-2.878 4.074-.161 5.016 2.716.942 3.46.521 3.119 2.164-.342 1.643 1.59 3.34 2.461 3.44.872.1.483.388 1.154 2.465a3.86 3.86 0 001.224 1.811 3.885 3.885 0 002.015.86c.671.074 1.597-.173 2.683 1.116 1.087 1.289 11.778 10.26 23.475 11.274a41.125 41.125 0 0021.087-3.4c2.381-.934 4.843-2.671 4.823-4.207-.02-1.537 3.145-1.53 4.326-2.752 1.18-1.222 1.402-1.703 1.402-3.38 0-1.676.161-3.34.804-4.455.644-1.115 1.402-1.703 1.228-3.4-.175-1.696 1.1-3.914 1.898-4.842.798-.928 1.63-2.184.127-4.675-1.502-2.492-2.146-3.073-1.589-5.03.556-1.957 1.449-3.88.208-5.517a6.427 6.427 0 01-1.275-4.675c.135-1.336 1.107-2.238-.878-3.447-1.986-1.209-1.972-3.052-2.24-3.92-.269-.869.207-2.004-2.127-3.24a7.095 7.095 0 01-3.454-4.008c-.416-1.048-1.623-3.019-3.675-3.56-2.053-.54-3.112-.487-4.507-2.304-1.396-1.817-2.683-3.293-4.568-3.486-1.885-.194-1.757 0-4.588.207a9.178 9.178 0 01-4.695-.668c-.677-.248-2.77-2.138-5.144 2.157z" fill="#263238" stroke="#263238" stroke-linecap="round" stroke-linejoin="round"/><path d="M71.439 48.588c1.421-1.008-.61-4.856.61-7.28 1.22-2.425 1.422-2.224 2.434-4.676 1.013-2.45.61-3.039 2.643-3.44 2.032-.4 3.454-2.224 5.688-4.855 2.233-2.632 3.856-.808 5.687-3.64 1.831-2.832.812-3.44 3.247-3.841 2.434-.4 5.486-1.015 7.11-2.23a8.258 8.258 0 014.875-1.617 7.254 7.254 0 002.435-.401 7.67 7.67 0 013.655-1.015c2.012 0 2.012.808 5.487 0m-9.142 3.64s-5.48 2.832-6.09 4.675c-.61 1.844-3.656 0-5.889 2.425s-1.422 5.056-3.863 6.071c-2.442 1.016-7.512 1.009-7.713 4.248-.202 3.24-.41 5.257-2.013 6.873-1.603 1.617-3.655 2.004-2.233 4.248 1.422 2.244 2.233 3.44.201 6.072-2.032 2.631-5.486 3.433-2.434 6.265 3.051 2.832 5.077 3.039 3.856 5.056-1.22 2.017 1.824 3.04 2.643 3.44" stroke="#F4F4F4" stroke-miterlimit="10"/><path d="M85.658 48.795s4.467 0 5.889-1.215c1.422-1.216 2.843-3.033 4.695-2.004 1.85 1.029 3.655.608 4.695-1.824 1.039-2.43-1.624-3.433 2.012-3.433 3.635 0 3.856-.808 5.479-3.64 1.624-2.832-.402-2.832 4.474-3.039 4.876-.207 5.279-3.433 7.11-3.233 1.831.2 2.635.608.811 4.449-1.824 3.84-3.454 4.248-1.019 6.272 2.434 2.023 4.876 1.416 3.454 6.064-1.422 4.65-.201 5.056.409 6.88.61 1.823 1.422 2.424-1.221 4.856-2.642 2.431-3.454 2.224-2.844 5.056.611 2.832 1.221 4.007-1.012 5.056-2.234 1.049-4.065 2.425-3.052 3.44 1.013 1.015 1.422 1.209.818 2.004" stroke="#F4F4F4" stroke-miterlimit="10"/><path d="M93.398 68.032s-12.073 1.67-21.128 3.006c-9.054 1.336-15.426 2.839-15.594 5.844-.167 3.006-13.246 34.732-14.755 35.734a7.877 7.877 0 00-3.521 5.844 23.469 23.469 0 01-1.677 6.012s5.868-.668 8.384 1.336a422.81 422.81 0 004.024 3.172s7.042-4.508 8.048-6.846c1.006-2.338-2.18-7.347-1.173-9.017 1.006-1.67 5.03-7.18 5.03-7.18s5.366 16.698 6.036 20.205a15.713 15.713 0 01-.503 7.013h47.118v-13.86c0-2.504 1.844-10.352 1.844-10.352s4.528 13.024 5.701 16.531a74.815 74.815 0 012.013 7.681h16.097s-5.534-16.531-7.546-21.708c-2.012-5.176-4.36-25.882-5.366-28.386-1.006-2.505-15.258-10.353-22.301-12.023a108.53 108.53 0 01-10.731-3.006z" fill="#007A65"/><mask id="a" style="mask-type:luminance" maskUnits="userSpaceOnUse" x="36" y="68" width="104" height="66"><path d="M93.398 68.032s-12.073 1.67-21.128 3.006c-9.054 1.336-15.426 2.839-15.594 5.844-.167 3.006-13.246 34.732-14.755 35.734a7.877 7.877 0 00-3.521 5.844 23.469 23.469 0 01-1.677 6.012s5.868-.668 8.384 1.336a422.81 422.81 0 004.024 3.172s7.042-4.508 8.048-6.846c1.006-2.338-2.18-7.347-1.173-9.017 1.006-1.67 5.03-7.18 5.03-7.18s5.366 16.698 6.036 20.205a15.713 15.713 0 01-.503 7.013h47.118v-13.86c0-2.504 1.844-10.352 1.844-10.352s4.528 13.024 5.701 16.531a74.815 74.815 0 012.013 7.681h16.097s-5.534-16.531-7.546-21.708c-2.012-5.176-4.36-25.882-5.366-28.386-1.006-2.505-15.258-10.353-22.301-12.023a108.53 108.53 0 01-10.731-3.006z" fill="#fff"/></mask><g mask="url(#a)"><path opacity=".3" d="M45.107 125.808a422.81 422.81 0 004.024 3.172s7.042-4.508 8.048-6.846c1.006-2.338-2.18-7.347-1.173-9.017 1.006-1.67 5.03-7.18 5.03-7.18l.114.354 3.407-4.008s1.342.334 3.354 7.348c2.012 7.013 10.731 11.354 8.719 15.028-1.301 2.378-2.462 6.145-3.119 8.516h40.176v-13.88c0-2.504 1.844-10.352 1.844-10.352s4.528 13.024 5.701 16.531a74.815 74.815 0 012.013 7.681h16.097s-5.534-16.531-7.546-21.708c-1.71-4.395-3.662-19.997-4.829-26.129a14.26 14.26 0 00-2.046-2.09c-4.695-3.674-16.097-7.682-18.78-8.016-2.682-.334-9.39-4.675-16.767-1.67 0 0-5.03 4.342-8.72 5.344-3.689 1.002-11.066-6.345-11.737-2.672a23.227 23.227 0 000 7.347s-4.024-9.35-3.69-5.677c.336 3.674.336 7.013.336 7.013s-3.689-8.015-3.689-4.675c0 3.34 1.677 7.681 1.342 10.353-.336 2.671-9.726 19.369-10.732 21.039-1.006 1.67-.67 4.743-1.844 7.047a6.236 6.236 0 01-3.521 2.972s1.006-4.341-2.683-4.007c-3.69.334-7.713 6.846-7.713 6.846s5.868-.668 8.384 1.336z" fill="#000"/></g><path d="M93.398 68.032s-12.073 1.67-21.128 3.006c-9.054 1.336-15.426 2.839-15.594 5.844-.167 3.006-13.246 34.732-14.755 35.734a7.877 7.877 0 00-3.521 5.844 23.469 23.469 0 01-1.677 6.012s5.868-.668 8.384 1.336a422.81 422.81 0 004.024 3.172s7.042-4.508 8.048-6.846c1.006-2.338-2.18-7.347-1.173-9.017 1.006-1.67 5.03-7.18 5.03-7.18s5.366 16.698 6.036 20.205a15.713 15.713 0 01-.503 7.013h47.118v-13.86c0-2.504 1.844-10.352 1.844-10.352s4.528 13.024 5.701 16.531a74.815 74.815 0 012.013 7.681h16.097s-5.534-16.531-7.546-21.708c-2.012-5.176-4.36-25.882-5.366-28.386-1.006-2.505-15.258-10.353-22.301-12.023a108.53 108.53 0 01-10.731-3.006z" stroke="#263238" stroke-linecap="round" stroke-linejoin="round"/><path d="M96.75 96.418s1.476 14.915.853 21.106c-.624 6.192-2.797 10.841-1.865 15.176m21.135-34.112l2.682-5.677" stroke="#263238" stroke-linecap="round" stroke-linejoin="round"/><path d="M91.888 66.696s-1.844 1.169-2.18 2.337c-.335 1.17-3.018 4.342-4.192 9.017-1.173 4.676-.503 13.192.336 11.188.838-2.004 3.018-6.345 3.856-7.347.839-1.002 1.007.334 1.677 3.173.67 2.838 5.366 11.354 5.366 11.354s3.521-7.848 5.533-9.017c2.012-1.169 2.851-5.01 2.851-5.01s2.012 10.02 3.186 10.02c1.173 0 1.676-7.681 1.173-12.357-.503-4.675-2.682-10.353-4.024-12.19-1.341-1.836-7.042-8.015-13.582-1.168z" fill="#fff" stroke="#263238" stroke-linecap="round" stroke-linejoin="round"/><path d="M92.056 65.693s-.67 13.025.335 18.702c1.006 5.678 3.521 14.027 4.36 12.023.838-2.004 6.204-11.856 7.042-16.364a48.323 48.323 0 013.019-9.351s-10.061 1.169-14.756-5.01z" fill="#fff" stroke="#263238" stroke-linecap="round" stroke-linejoin="round"/><path d="M116.456 36.205s-2.924.835-3.655 2.458c-.731 1.623-1.342 1.75-3.193 3.447-1.851 1.696-2.421 1.449-3.883 2.812-1.462 1.362-2.589 1.242-4.313 1.442-1.724.2-3.226.054-4.024.535-.77.413-1.569.775-2.388 1.082 0 0-1.066-.668-1.891 1.876-.825 2.545-1.818 8.49-1.208 11.756.61 3.266 3.039 11.054 6.822 12.95 3.782 1.898 12.917-4.16 15.265-6.745 2.347-2.585 7.19-14.734 7.378-16.785.188-2.05-2.992-5.958-3.589-7.528-.596-1.57.249-2.424-.925-3.867-1.174-1.442-.396-3.433-.396-3.433z" fill="#fff" stroke="#263238" stroke-linecap="round" stroke-linejoin="round"/><path d="M107.047 62.027s-.537.928-2.395.741c-1.858-.187-2.589-1.583-2.374-2.671m-2.428 3.286a9.883 9.883 0 006.265 2.391m-2.717-13.344l-.711 1.576s-2.428 1.069-4.634-2.117m16.512 4.855l-.59 1.476s-3.045.668-4.024-1.83m1.26-4.816s5.044-1.903 6.446 2.745m-11.985-4.729s-1.778-4.134-6.707-2.33" stroke="#263238" stroke-linecap="round" stroke-linejoin="round"/><path d="M61.036 105.935s5.7-9.184 8.719-15.529l-8.72 15.529z" fill="#fff"/><path d="M61.036 105.935s5.7-9.184 8.719-15.529m-4.36 8.85a20.866 20.866 0 006.372-6.512" stroke="#263238" stroke-linecap="round" stroke-linejoin="round"/><path d="M29.68 138.664h34.655l18.888 12.804H43.429l-13.75-12.804z" fill="#fff" stroke="#263238" stroke-linecap="round" stroke-linejoin="round"/><path d="M74.282 148.683H46.447m25.153-2.671H43.764m25.153-2.672H41.082" stroke="#263238" stroke-linecap="round" stroke-linejoin="round"/><path d="M5.534 146.68H40.19l18.887 12.804H19.284L5.534 146.68z" fill="#fff" stroke="#263238" stroke-linecap="round" stroke-linejoin="round"/><path d="M50.136 156.698H22.302m25.152-2.672H19.619m25.152-2.671H16.936" stroke="#263238" stroke-linecap="round" stroke-linejoin="round"/><path d="M54.275 132.206s-3.132-4.676-5.03-7.568c-1.898-2.892-6.037-4.896-9.726-4.007-3.689.888-5.48 4.227-5.48 7.794 0 3.567.336 6.452 4.246 8.57 3.91 2.117 12.636 3.226 12.636 3.226s6.593 2.451 3.354-8.015z" fill="#fff" stroke="#263238" stroke-linecap="round" stroke-linejoin="round"/><path d="M51.016 131.157s-4.286 1.336-4.581 2.939c-.296 1.603-.738 5.156-.443 6.773.295 1.616 4.138 1.476 6.8 1.476 2.664 0 3.992-2.672 3.401-3.533-.59-.862-2.957-1.336-3.843-3.387a25.054 25.054 0 01-1.334-4.268z" fill="#fff" stroke="#263238" stroke-linecap="round" stroke-linejoin="round"/><path d="M54.59 132.553c-.63-1.409-1.428-2.732-1.784-3.5-.959-2.057-3.052-2.144-3.166.461-.067 1.476 2.683 10.099 5.07 8.115 1.295-1.069.739-3.159-.12-5.076z" fill="#fff" stroke="#263238" stroke-linecap="round" stroke-linejoin="round"/><path d="M46.581 134.69s.148 1.764 3.696 3.828 4.581 1.335 5.768 1.335" fill="#fff"/><path d="M46.581 134.69s.148 1.764 3.696 3.828 4.581 1.335 5.768 1.335" stroke="#263238" stroke-linecap="round" stroke-linejoin="round"/><path d="M45.992 138.224s.436 2.898 8.565 3.486l-8.565-3.486z" fill="#fff"/><path d="M45.992 138.224s.436 2.898 8.565 3.486" stroke="#263238" stroke-linecap="round" stroke-linejoin="round"/><path d="M57.018 140l-7.002-20.038a1 1 0 01.623-1.276 1.01 1.01 0 011.281.621l6.976 20.058-1.878.635z" fill="#263238"/><path d="M57.018 140.021l1.892 2.411.006-3.066-1.898.655z" fill="#fff"/><path d="M58.225 141.557l.67.875v-1.095c-.23.047-.456.12-.67.22z" fill="#263238"/><path d="M51.92 119.295a1.005 1.005 0 00-.516-.573 1.012 1.012 0 00-1.347.472c-.115.241-.13.517-.041.769l.67 2.003 1.879-.714-.644-1.957z" fill="#fff"/><path d="M54.497 127.196s2.012-.775 3.018 0c1.006.775 1.563 2.785 1.563 5.123s1.12 5.343-.893 5.23c-2.012-.114-3.688-10.353-3.688-10.353zm44.333 17.927l-15.272-9.578h58.352l21.751 9.578h-64.83z" fill="#fff" stroke="#263238" stroke-linecap="round" stroke-linejoin="round"/><path d="M163.662 145.124H98.831l7.465-46.087h64.837l-7.471 46.087z" fill="#fff" stroke="#263238" stroke-linecap="round" stroke-linejoin="round"/><path d="M167.324 122.541c-10.98 2.485-20.45 0-39.244 3.039-18.411 2.952-25.856 11.308-28.84 16.992l-.41 2.552h64.832l3.662-22.583z" fill="#FCC466" stroke="#263238" stroke-miterlimit="10"/><path d="M167.391 128.219s-3.676.467-4.997 1.97c-1.322 1.503-.282 2.071.851 2.071 1.134 0 4.903 0 6.6-2.004 1.375-1.576.47-2.224-2.454-2.037zm-1.228 10.706s-3.675.467-4.997 1.97c-1.321 1.503-.281 2.064.852 2.064 1.134 0 4.903 0 6.6-1.97 1.382-1.603.469-2.251-2.455-2.064z" fill="#fff" stroke="#263238" stroke-linecap="round" stroke-linejoin="round"/><path d="M166.546 136.106s-3.683.468-5.004 1.971c-1.321 1.502-.282 2.07.852 2.07 1.133 0 4.903 0 6.6-2.004 1.381-1.569.469-2.224-2.448-2.037z" fill="#fff" stroke="#263238" stroke-linecap="round" stroke-linejoin="round"/><path d="M166.639 132.913s-3.682.468-4.997 1.97c-1.314 1.503-.288 2.071.846 2.071 1.133 0 4.902 0 6.599-2.004 1.382-1.576.477-2.224-2.448-2.037z" fill="#fff" stroke="#263238" stroke-linecap="round" stroke-linejoin="round"/></g><defs><clipPath id="clip0_1135_9052"><path fill="#fff" d="M0 0h180v170H0z"/></clipPath></defs></svg>