<svg width="68" height="68" viewBox="0 0 68 68" fill="none" xmlns="http://www.w3.org/2000/svg">
<path d="M62.4375 0.09375H31.8125C28.797 0.09375 26.3438 2.54703 26.3438 5.5625V27.0984C24.5981 26.6205 22.7705 26.3438 20.875 26.3438C9.41578 26.3438 0.09375 35.6658 0.09375 47.125C0.09375 58.5842 9.41578 67.9062 20.875 67.9062C28.7741 67.9062 35.6559 63.4744 39.1702 56.9688H62.4375C65.453 56.9688 67.9062 54.5155 67.9062 51.5V5.5625C67.9062 2.54703 65.453 0.09375 62.4375 0.09375ZM39.413 48.2188C39.1614 52.5183 37.442 56.4284 34.7547 59.4592L30.9287 55.6333L29.3822 57.1798L33.2016 60.9992C30.1763 63.6975 26.2705 65.4136 21.9688 65.6684V60.25H19.7812V65.663C15.4817 65.4114 11.5716 63.692 8.54078 61.0047L12.3667 57.1788L10.8202 55.6322L7.00187 59.4516C4.30359 56.4263 2.58641 52.5205 2.33266 48.2188H7.75V46.0312H2.33703C2.58859 41.7317 4.30797 37.8216 6.99531 34.7908L10.8212 38.6167L12.3678 37.0702L8.54844 33.2519C11.5737 30.5536 15.4795 28.8375 19.7812 28.5827V34H21.9688V28.5848C26.2705 28.8375 30.1686 30.5667 33.195 33.2584L29.9455 36.508L31.492 38.0545L34.7416 34.805C37.4322 37.8303 39.1614 41.7295 39.4141 46.0312H34V48.2188H39.413ZM32.9062 30.2123V23.0625C32.9062 22.4587 33.3963 21.9688 34 21.9688H42.75C43.3537 21.9688 43.8438 22.4587 43.8438 23.0625V31.8125C43.8438 32.4162 43.3537 32.9062 42.75 32.9062H35.9884C35.0522 31.9109 34.0219 31.0086 32.9062 30.2123ZM65.7188 51.5C65.7188 53.3091 64.2466 54.7812 62.4375 54.7812H40.1764C40.4597 54.0703 40.6981 53.3397 40.9016 52.5938H42.75C44.5591 52.5938 46.0312 51.1216 46.0312 49.3125V40.5625C46.0312 38.7534 44.5591 37.2812 42.75 37.2812H39.1702C38.7578 36.5189 38.2886 35.7948 37.7877 35.0938H42.75C44.5591 35.0938 46.0312 33.6216 46.0312 31.8125V23.0625C46.0312 21.2534 44.5591 19.7812 42.75 19.7812H34C32.1909 19.7812 30.7188 21.2534 30.7188 23.0625V28.8298C30.0155 28.4492 29.2805 28.1222 28.5312 27.8236V5.5625C28.5312 3.75344 30.0034 2.28125 31.8125 2.28125H62.4375C64.2466 2.28125 65.7188 3.75344 65.7188 5.5625V51.5ZM40.1764 39.4688H42.75C43.3537 39.4688 43.8438 39.9588 43.8438 40.5625V49.3125C43.8438 49.9162 43.3537 50.4062 42.75 50.4062H41.3708C41.5425 49.3344 41.6562 48.2439 41.6562 47.125C41.6562 44.4202 41.1214 41.8411 40.1764 39.4688Z" fill="#FAFAFA"/>
<path d="M60.25 19.7812H51.5C49.6909 19.7812 48.2188 21.2534 48.2188 23.0625V31.8125C48.2188 33.6216 49.6909 35.0938 51.5 35.0938H60.25C62.0591 35.0938 63.5312 33.6216 63.5312 31.8125V23.0625C63.5312 21.2534 62.0591 19.7812 60.25 19.7812ZM61.3438 31.8125C61.3438 32.4163 60.8538 32.9062 60.25 32.9062H51.5C50.8963 32.9062 50.4062 32.4163 50.4062 31.8125V23.0625C50.4062 22.4588 50.8963 21.9688 51.5 21.9688H60.25C60.8538 21.9688 61.3438 22.4588 61.3438 23.0625V31.8125Z" fill="#FAFAFA"/>
<path d="M60.25 37.2812H51.5C49.6909 37.2812 48.2188 38.7534 48.2188 40.5625V49.3125C48.2188 51.1216 49.6909 52.5938 51.5 52.5938H60.25C62.0591 52.5938 63.5312 51.1216 63.5312 49.3125V40.5625C63.5312 38.7534 62.0591 37.2812 60.25 37.2812ZM61.3438 49.3125C61.3438 49.9163 60.8538 50.4062 60.25 50.4062H51.5C50.8963 50.4062 50.4062 49.9163 50.4062 49.3125V40.5625C50.4062 39.9588 50.8963 39.4688 51.5 39.4688H60.25C60.8538 39.4688 61.3438 39.9588 61.3438 40.5625V49.3125Z" fill="#FAFAFA"/>
<path d="M20.875 61.3438C13.035 61.3438 6.65625 54.965 6.65625 47.125C6.65625 39.285 13.035 32.9062 20.875 32.9062C28.715 32.9062 35.0938 39.285 35.0938 47.125C35.0938 54.965 28.715 61.3438 20.875 61.3438Z" fill="#007A65"/>
<path d="M13.5337 52.9099L26.657 39.7865L28.2036 41.3331L15.0803 54.4564L13.5337 52.9099Z" fill="#FAFAFA"/>
<path d="M16.5 46.0312C14.6909 46.0312 13.2188 44.5591 13.2188 42.75C13.2188 40.9409 14.6909 39.4688 16.5 39.4688C18.3091 39.4688 19.7812 40.9409 19.7812 42.75C19.7812 44.5591 18.3091 46.0312 16.5 46.0312ZM16.5 41.6562C15.8963 41.6562 15.4062 42.1463 15.4062 42.75C15.4062 43.3537 15.8963 43.8438 16.5 43.8438C17.1037 43.8438 17.5938 43.3537 17.5938 42.75C17.5938 42.1463 17.1037 41.6562 16.5 41.6562Z" fill="#FAFAFA"/>
<path d="M25.25 54.7812C23.4409 54.7812 21.9688 53.3091 21.9688 51.5C21.9688 49.6909 23.4409 48.2188 25.25 48.2188C27.0591 48.2188 28.5312 49.6909 28.5312 51.5C28.5312 53.3091 27.0591 54.7812 25.25 54.7812ZM25.25 50.4062C24.6463 50.4062 24.1562 50.8963 24.1562 51.5C24.1562 52.1037 24.6463 52.5938 25.25 52.5938C25.8537 52.5938 26.3438 52.1037 26.3438 51.5C26.3438 50.8963 25.8537 50.4062 25.25 50.4062Z" fill="#FAFAFA"/>
<path d="M60.25 17.5938H34C32.1909 17.5938 30.7188 16.1216 30.7188 14.3125V7.75C30.7188 5.94094 32.1909 4.46875 34 4.46875H60.25C62.0591 4.46875 63.5312 5.94094 63.5312 7.75V14.3125C63.5312 16.1216 62.0591 17.5938 60.25 17.5938Z" fill="#007A65"/>
</svg>
