<svg width="80" height="80" viewBox="0 0 80 80" fill="none" xmlns="http://www.w3.org/2000/svg">
<path d="M49.2331 31.0882C49.1571 31.0945 49.0811 31.1099 49.007 31.1346L46.7102 31.9001C46.471 31.9804 46.2098 31.9632 45.9833 31.8521C45.4568 31.5923 44.9139 31.3672 44.358 31.1782C44.1196 31.0965 43.923 30.9241 43.8109 30.6984L42.7285 28.5339C42.6483 28.3735 42.5251 28.2385 42.3725 28.1442C42.2199 28.0499 42.0441 28 41.8647 28H38.1355C37.9561 28 37.7803 28.0499 37.6277 28.1442C37.4752 28.2385 37.3519 28.3735 37.2717 28.5339L36.1893 30.6984C36.0772 30.9241 35.8806 31.0965 35.6422 31.1782C35.0863 31.3671 34.5434 31.5922 34.017 31.8521C33.7904 31.9632 33.5292 31.9804 33.29 31.9001L30.9932 31.1346C30.8231 31.0779 30.6405 31.0697 30.4659 31.1109C30.2914 31.1521 30.1317 31.2411 30.0049 31.3679L27.3679 34.0049C27.2411 34.1317 27.1521 34.2914 27.1109 34.4659C27.0697 34.6405 27.0779 34.8231 27.1346 34.9932L27.9001 37.29C27.9805 37.5292 27.9632 37.7904 27.8521 38.017C27.5923 38.5435 27.3672 39.0864 27.1782 39.6422C27.0965 39.8806 26.9241 40.0772 26.6984 40.1893L24.5339 41.2717C24.3735 41.3519 24.2385 41.4752 24.1442 41.6277C24.0499 41.7803 24 41.9561 24 42.1355V45.8647C24 46.0441 24.0499 46.2199 24.1442 46.3725C24.2385 46.5251 24.3735 46.6483 24.5339 46.7285L26.6984 47.8109C26.9241 47.923 27.0965 48.1196 27.1782 48.358C27.3671 48.9139 27.5922 49.4568 27.8521 49.9833C27.9632 50.2098 27.9804 50.471 27.9001 50.7102L27.1346 53.007C27.0779 53.1771 27.0697 53.3597 27.1109 53.5343C27.1521 53.7088 27.2411 53.8685 27.3679 53.9953L30.0049 56.6323C30.1317 56.7591 30.2914 56.8481 30.4659 56.8894C30.6405 56.9306 30.8231 56.9224 30.9932 56.8656L33.29 56.1001C33.5292 56.0197 33.7904 56.037 34.017 56.1481C34.5435 56.4079 35.0864 56.633 35.6422 56.822C35.8806 56.9037 36.0772 57.0761 36.1893 57.3018L37.2717 59.4663C37.3519 59.6268 37.4752 59.7617 37.6277 59.856C37.7803 59.9503 37.9561 60.0002 38.1355 60.0002H41.8647C42.0441 60.0002 42.2199 59.9503 42.3725 59.856C42.5251 59.7617 42.6483 59.6268 42.7285 59.4663L43.8109 57.3018C43.923 57.0761 44.1196 56.9037 44.358 56.822C44.9139 56.6331 45.4568 56.408 45.9833 56.1481C46.2098 56.037 46.471 56.0198 46.7102 56.1001L49.007 56.8656C49.1771 56.9224 49.3597 56.9306 49.5343 56.8894C49.7088 56.8481 49.8685 56.7591 49.9953 56.6323L52.6323 53.9953C52.7591 53.8685 52.8481 53.7088 52.8894 53.5343C52.9306 53.3597 52.9224 53.1771 52.8656 53.007L52.1001 50.7102C52.0197 50.471 52.037 50.2098 52.1481 49.9833C52.4079 49.4568 52.633 48.9139 52.822 48.358C52.9037 48.1196 53.0761 47.923 53.3018 47.8109L55.4663 46.7285C55.6268 46.6483 55.7617 46.5251 55.856 46.3725C55.9503 46.2199 56.0002 46.0441 56.0002 45.8647V42.1355C56.0002 41.9561 55.9503 41.7803 55.856 41.6277C55.7617 41.4752 55.6268 41.3519 55.4663 41.2717L53.3018 40.1893C53.0761 40.0772 52.9037 39.8806 52.822 39.6422C52.6331 39.0863 52.408 38.5434 52.1481 38.017C52.037 37.7904 52.0198 37.5292 52.1001 37.29L52.8656 34.9932C52.9224 34.8231 52.9306 34.6405 52.8894 34.4659C52.8481 34.2914 52.7591 34.1317 52.6323 34.0049" stroke="#007A65" stroke-width="1.93159" stroke-miterlimit="10" stroke-linecap="round" stroke-linejoin="round"/>
<path d="M33.9999 40L30 43.9999L33.9999 48M46 40L49.9999 43.9999L46 48M41.9999 40L38 48" stroke="#007A65" stroke-width="1.93159" stroke-miterlimit="10" stroke-linecap="round" stroke-linejoin="round"/>
<path d="M23.3067 65.9999H68.7806C70.5586 65.9999 71.9999 64.5585 71.9999 62.7806V22M71.9999 22H8M71.9999 22V17.2193C71.9999 15.4414 70.5586 14 68.7806 14H18.7078M8 22V62.7807C8 64.5586 9.44135 66 11.2193 66H18.7996M8 22V17.2193C8 15.4414 9.44135 14 11.2193 14H14.2008" stroke="#007A65" stroke-width="1.93159" stroke-miterlimit="10" stroke-linecap="round" stroke-linejoin="round"/>
</svg>
