<svg width="80" height="80" viewBox="0 0 80 80" fill="none" xmlns="http://www.w3.org/2000/svg">
<g clip-path="url(#clip0_3733_142)">
<path d="M26.4733 69.8831H31.536C32.7047 69.8831 33.6523 68.9356 33.6523 67.7668V63.6304C33.6523 62.4617 32.7047 61.5141 31.536 61.5141H11.1817C10.013 61.5141 9.06543 62.4617 9.06543 63.6304V67.7668C9.06543 68.9356 10.013 69.8831 11.1817 69.8831H22.0982M51.8636 43.8923L49.1987 41.8969C49.3287 41.2732 49.3939 40.6377 49.3935 40.0005C49.3939 39.363 49.3286 38.7271 49.1987 38.103L51.8636 36.1075C52.3393 35.752 52.4733 35.0965 52.1764 34.5815L50.8452 32.2753C50.7017 32.0266 50.472 31.8392 50.1995 31.7486C49.9271 31.6579 49.6308 31.6704 49.367 31.7837L46.3042 33.0948C45.3526 32.2422 44.2347 31.5958 43.0211 31.1963L42.6252 27.8908C42.591 27.6058 42.4536 27.3431 42.2389 27.1525C42.0242 26.9619 41.7471 26.8566 41.4599 26.8564H38.7963C38.2024 26.8564 37.7022 27.3013 37.631 27.8908L37.2362 31.1963C36.0222 31.5956 34.9039 32.242 33.952 33.0948L30.8903 31.7837C30.6265 31.6704 30.3302 31.6579 30.0578 31.7485C29.7853 31.8391 29.5556 32.0266 29.4122 32.2753L28.0798 34.5815C27.7829 35.0966 27.917 35.7522 28.3926 36.1075L31.0584 38.103C30.9286 38.7271 30.8633 39.363 30.8637 40.0005C30.8637 40.6508 30.9307 41.285 31.0584 41.8969L28.3926 43.8923C28.1629 44.0645 28.0042 44.3148 27.9466 44.596C27.8889 44.8772 27.9363 45.1698 28.0798 45.4184L29.4122 47.7256C29.5557 47.9742 29.7855 48.1615 30.0579 48.2521C30.3303 48.3427 30.6264 48.3303 30.8903 48.2172L33.952 46.906C34.9039 47.7589 36.0221 48.4053 37.2362 48.8046L37.631 52.11C37.6654 52.3949 37.8029 52.6573 38.0176 52.8477C38.2323 53.0381 38.5093 53.1433 38.7963 53.1434H41.4599C42.0538 53.1434 42.555 52.6997 42.6252 52.11L43.0211 48.8046C44.2347 48.405 45.3525 47.7586 46.3042 46.906L49.367 48.2172C49.6309 48.3302 49.927 48.3425 50.1994 48.2519C50.4718 48.1613 50.7015 47.9741 50.8452 47.7256L52.1764 45.4184C52.32 45.1698 52.3674 44.8772 52.3097 44.596C52.2521 44.3147 52.0933 44.0644 51.8636 43.8923ZM40.1285 44.8289C37.4616 44.8289 35.3002 42.6663 35.3002 40.0005C35.3002 37.3336 37.4616 35.1721 40.1285 35.1721C42.7943 35.1721 44.9558 37.3336 44.9558 40.0005C44.9558 42.6664 42.7943 44.8289 40.1285 44.8289ZM31.5357 61.5135H11.182C10.0131 61.5135 9.06555 60.566 9.06555 59.3971V55.26C9.06555 54.0911 10.0131 53.1436 11.182 53.1436H31.5357C32.7046 53.1436 33.6521 54.0911 33.6521 55.26V59.3971C33.6521 60.566 32.7046 61.5135 31.5357 61.5135Z" stroke="#007A65" stroke-width="1.87504" stroke-miterlimit="10" stroke-linecap="round" stroke-linejoin="round"/>
<path d="M13.7411 59.094C14.7161 59.094 15.5066 58.3035 15.5066 57.3285C15.5066 56.3534 14.7161 55.563 13.7411 55.563C12.766 55.563 11.9756 56.3534 11.9756 57.3285C11.9756 58.3035 12.766 59.094 13.7411 59.094Z" stroke="#007A65" stroke-width="1.87504" stroke-miterlimit="10" stroke-linecap="round" stroke-linejoin="round"/>
<path d="M19.5936 59.0945C20.5687 59.0945 21.3591 58.304 21.3591 57.329C21.3591 56.3539 20.5687 55.5635 19.5936 55.5635C18.6186 55.5635 17.8281 56.3539 17.8281 57.329C17.8281 58.304 18.6186 59.0945 19.5936 59.0945Z" stroke="#007A65" stroke-width="1.87504" stroke-miterlimit="10" stroke-linecap="round" stroke-linejoin="round"/>
<path d="M13.7411 67.4641C14.7161 67.4641 15.5066 66.6737 15.5066 65.6986C15.5066 64.7235 14.7161 63.9331 13.7411 63.9331C12.766 63.9331 11.9756 64.7235 11.9756 65.6986C11.9756 66.6737 12.766 67.4641 13.7411 67.4641Z" stroke="#007A65" stroke-width="1.87504" stroke-miterlimit="10" stroke-linecap="round" stroke-linejoin="round"/>
<path d="M19.5936 67.4641C20.5687 67.4641 21.3591 66.6737 21.3591 65.6986C21.3591 64.7235 20.5687 63.9331 19.5936 63.9331C18.6186 63.9331 17.8281 64.7235 17.8281 65.6986C17.8281 66.6737 18.6186 67.4641 19.5936 67.4641Z" stroke="#007A65" stroke-width="1.87504" stroke-miterlimit="10" stroke-linecap="round" stroke-linejoin="round"/>
<path d="M24.9224 57.3286H30.4601M24.9224 65.6986H30.4601M66.5216 30.9048H69.3754C70.2367 30.9048 70.9342 30.2072 70.9342 29.346V10.4955C70.9342 9.6355 70.2367 8.93799 69.3754 8.93799H63.8903C62.5865 8.93799 61.3352 9.4555 60.4127 10.378L55.0488 15.7431C54.1272 16.6654 53.6093 17.9157 53.6088 19.2195V29.346C53.6088 30.2072 54.3063 30.9048 55.1676 30.9048H62.1465" stroke="#007A65" stroke-width="1.87504" stroke-miterlimit="10" stroke-linecap="round" stroke-linejoin="round"/>
<path d="M64.3343 8.9375C62.9641 8.9375 61.8535 10.0482 61.8535 11.4183V15.6252C61.8535 16.4857 61.1558 17.1833 60.2953 17.1833H56.09C54.7198 17.1833 53.6092 18.294 53.6092 19.6641M58.365 21.6755H66.1782M58.365 25.582H66.1782M26.6619 17.9432C28.0244 17.1069 29.462 16.3982 30.9545 15.8294L31.272 17.7095C31.397 18.452 32.2795 18.7795 32.8595 18.3007L38.8222 13.3719C39.4022 12.8918 39.2459 11.9643 38.5409 11.7018L31.292 9.0005C30.5857 8.738 29.8607 9.33801 29.9857 10.0793L30.3257 12.0993C24.8919 14.0144 20.0355 17.552 16.5392 22.1708C12.6278 27.3384 10.5615 33.5036 10.5615 40C10.5615 41.2313 10.6378 42.4675 10.789 43.6738C10.9065 44.6138 11.7078 45.3026 12.6316 45.3026C12.7078 45.3026 12.7866 45.2976 12.8653 45.2876C13.8841 45.1601 14.6066 44.2301 14.4791 43.2113C14.3466 42.1588 14.2804 41.0775 14.2804 40C14.2804 34.3198 16.0867 28.931 19.5042 24.4159C20.5775 22.9995 21.7944 21.6979 23.1356 20.532M69.4669 36.3268C69.3393 35.3079 68.4109 34.5852 67.3909 34.7129C66.372 34.8405 65.6493 35.77 65.7769 36.7889C65.9096 37.8542 65.976 38.9267 65.9757 40.0002C65.9757 45.6804 64.169 51.0695 60.7511 55.585C57.8231 59.4532 53.8062 62.4534 49.3007 64.171L48.9838 62.2914C48.8587 61.5489 47.9765 61.2204 47.3961 61.7001L41.4334 66.6285C40.853 67.1081 41.0095 68.0361 41.715 68.299L48.9639 70.9997C49.6696 71.2626 50.3951 70.6631 50.27 69.9206L49.9294 67.9009C55.3636 65.9856 60.2201 62.4484 63.7163 57.8295C67.6272 52.6627 69.6945 46.4974 69.6945 40.0004C69.6946 38.7723 69.6186 37.5454 69.4669 36.3268Z" stroke="#007A65" stroke-width="1.87504" stroke-miterlimit="10" stroke-linecap="round" stroke-linejoin="round"/>
</g>
<defs>
<clipPath id="clip0_3733_142">
<rect width="64" height="64" fill="white" transform="translate(8 8)"/>
</clipPath>
</defs>
</svg>
