<svg width="80" height="80" viewBox="0 0 80 80" fill="none" xmlns="http://www.w3.org/2000/svg">
<path d="M65.281 61.4688V71H15.7185V61.4688M66.1835 35.8319L66.9524 37.1637C67.4608 38.0443 67.1591 39.1702 66.2786 39.6786L59.5622 43.5564C58.6817 44.0647 57.5557 43.763 57.0473 42.8825L54.1228 37.817C53.6144 36.9364 53.9161 35.8105 54.7966 35.3021L61.513 31.4243C62.3935 30.916 63.5195 31.2177 64.0278 32.0982M50.4705 33.3973L62.0265 26.7255M22.334 41.8729L13.5487 53.4787C13.4133 53.6576 13.2172 53.7809 12.9973 53.8254C12.7774 53.8699 12.5488 53.8326 12.3545 53.7204L10.4603 52.6268C10.2659 52.5146 10.1193 52.3353 10.0479 52.1226C9.97646 51.9099 9.98518 51.6785 10.0724 51.4717L15.7307 38.0605M28.8781 32.4443L29.9536 27.1886C29.9924 26.9993 29.9706 26.8026 29.8913 26.6264C29.812 26.4502 29.6794 26.3034 29.512 26.2068L25.7087 24.0109C25.5413 23.9144 25.3479 23.8729 25.1557 23.8923C24.9634 23.9118 24.7822 23.9913 24.6377 24.1194L20.6238 27.6787L19.4154 33.5844M24.3679 36.4438L28.8782 32.4443M29.7036 32.9209L19.7984 27.2021M35.7341 28.1485V26.4122C35.7341 24.7175 37.1079 23.3438 38.8026 23.3438H42.197C43.8916 23.3438 45.2654 24.7175 45.2654 26.4122V37.4316C45.2654 39.1262 43.8916 40.5 42.197 40.5H38.8026C37.1079 40.5 35.7341 39.1262 35.7341 37.4316V32.4443M38.5935 50.0312H42.406M23.1877 42.3657L14.8769 37.5674C14.6655 37.4454 14.5112 37.2443 14.4481 37.0085C14.3849 36.7727 14.418 36.5214 14.54 36.31L16.4789 32.9518C16.601 32.7404 16.802 32.5861 17.0378 32.5229C17.2736 32.4597 17.5249 32.4928 17.7363 32.6149L26.0471 37.4131C26.2585 37.5352 26.4127 37.7363 26.4759 37.9721C26.5391 38.2079 26.506 38.4592 26.384 38.6706L24.4451 42.0288C24.323 42.2402 24.122 42.3945 23.8862 42.4576C23.6503 42.5208 23.3991 42.4877 23.1877 42.3657Z" stroke="#007A65" stroke-width="1.7" stroke-miterlimit="10" stroke-linecap="round" stroke-linejoin="round"/>
<path d="M19.482 61.4688H13.6821C11.6485 61.4688 10 59.8203 10 57.7867V53.8438H71V57.7867C71 59.8203 69.3515 61.4688 67.3179 61.4688H23.7778M34.1765 13.8118C32.6643 14.8164 31.3679 16.1128 30.3633 17.625C29.3593 16.1128 28.0633 14.8164 26.5515 13.8118C28.0626 12.8069 29.3584 11.5111 30.3633 10C31.3679 11.5118 32.6643 12.8078 34.1765 13.8118ZM23.3438 17.6245C22.2096 18.3779 21.2373 19.3502 20.4839 20.4844C19.7309 19.3503 18.7589 18.378 17.6251 17.6245C18.7585 16.8709 19.7303 15.899 20.4839 14.7656C21.2373 15.8995 22.2096 16.8715 23.3438 17.6245ZM53.8438 14.7651C52.7096 15.5185 51.7373 16.4908 50.9839 17.625C50.2309 16.4909 49.2589 15.5186 48.1251 14.7651C49.2585 14.0115 50.2303 13.0396 50.9839 11.9062C51.7373 13.0401 52.7096 14.0121 53.8438 14.7651ZM61.4688 18.5776C60.3346 19.331 59.3623 20.3033 58.6089 21.4374C57.8559 20.3033 56.8839 19.331 55.7501 18.5776C56.8835 17.8239 57.8553 16.852 58.6089 15.7187C59.3623 16.8526 60.3346 17.8246 61.4688 18.5776ZM42.1972 40.5H38.8028C38.7326 40.5 38.6629 40.4975 38.5938 40.4929V52.3094C38.5938 53.1568 39.2806 53.8437 40.128 53.8437H40.872C41.7194 53.8437 42.4062 53.1568 42.4062 52.3094V40.4929C42.3371 40.4975 42.2675 40.5 42.1972 40.5Z" stroke="#007A65" stroke-width="1.7" stroke-miterlimit="10" stroke-linecap="round" stroke-linejoin="round"/>
<path d="M59.8252 43.4047L67.451 53.4787C67.5864 53.6576 67.7825 53.7809 68.0024 53.8254C68.2223 53.8699 68.4509 53.8326 68.6452 53.7204L70.5394 52.6268C70.7337 52.5146 70.8804 52.3353 70.9518 52.1226C71.0232 51.9099 71.0145 51.6785 70.9273 51.4718L66.0157 39.8304M61.8368 31.2767C62.1289 29.9352 61.9419 28.4848 61.2013 27.2021C59.622 24.4669 56.1245 23.5297 53.3893 25.1089C50.6542 26.6882 49.717 30.1857 51.2961 32.9209C52.0367 34.2036 53.1991 35.0909 54.5071 35.5087M39.5468 27.1562H41.4531M39.5468 30.9688H41.4531M25.2499 53.8438V40.6351M21.4375 43.0574V53.8438M59.5624 53.8438V43.5564M55.7499 40.6351V53.8438" stroke="#007A65" stroke-width="1.7" stroke-miterlimit="10" stroke-linecap="round" stroke-linejoin="round"/>
</svg>
