<svg width="80" height="80" viewBox="0 0 80 80" fill="none" xmlns="http://www.w3.org/2000/svg">
<g clip-path="url(#clip0_3668_7566)">
<path d="M31.5293 16.0254H39.7023C39.9624 16.0254 40.2119 16.1287 40.3959 16.3127C40.5798 16.4966 40.6832 16.7461 40.6832 17.0063V23.9101C40.6832 24.1703 40.5798 24.4198 40.3959 24.6037C40.2119 24.7877 39.9624 24.891 39.7023 24.891H23.3959C23.1358 24.891 22.8863 24.7877 22.7023 24.6037C22.5184 24.4198 22.415 24.1703 22.415 23.9101V17.0063C22.415 16.7461 22.5184 16.4966 22.7023 16.3127C22.8863 16.1287 23.1358 16.0254 23.3959 16.0254H27.7011" stroke="#007A65" stroke-width="1.7" stroke-miterlimit="10" stroke-linecap="round" stroke-linejoin="round"/>
<path d="M55.0169 51.1356V54.5007C55.0169 55.498 54.2084 56.3064 53.2112 56.3064H26.7893C25.792 56.3064 24.9836 55.4979 24.9836 54.5007V50.9346M25.6619 24.8906H37.6158V29.4331H25.6619V24.8906ZM25.1634 38.6216H22.6162C22.4294 38.6216 22.2504 38.5474 22.1183 38.4154C21.9863 38.2833 21.9121 38.1042 21.9121 37.9175V35.3703C21.9121 35.1836 21.9863 35.0045 22.1183 34.8724C22.2504 34.7404 22.4294 34.6662 22.6162 34.6662H25.1634C25.3501 34.6662 25.5292 34.7404 25.6612 34.8724C25.7933 35.0045 25.8674 35.1836 25.8674 35.3703V37.9175C25.8674 38.1042 25.7933 38.2833 25.6612 38.4154C25.5292 38.5474 25.3501 38.6216 25.1634 38.6216ZM32.5993 38.6216H30.052C29.9596 38.6216 29.868 38.6034 29.7826 38.568C29.6972 38.5326 29.6196 38.4807 29.5542 38.4154C29.4888 38.35 29.4369 38.2724 29.4016 38.1869C29.3662 38.1015 29.348 38.01 29.348 37.9175V35.3703C29.348 35.2778 29.3662 35.1863 29.4016 35.1009C29.4369 35.0154 29.4888 34.9378 29.5542 34.8724C29.6196 34.8071 29.6972 34.7552 29.7826 34.7198C29.868 34.6844 29.9596 34.6662 30.052 34.6662H32.5993C32.6917 34.6662 32.7833 34.6844 32.8687 34.7198C32.9541 34.7552 33.0317 34.8071 33.0971 34.8724C33.1625 34.9378 33.2143 35.0154 33.2497 35.1009C33.2851 35.1863 33.3033 35.2778 33.3033 35.3703V37.9175C33.3033 38.01 33.2851 38.1015 33.2497 38.1869C33.2143 38.2724 33.1625 38.35 33.0971 38.4154C33.0317 38.4807 32.9541 38.5326 32.8687 38.568C32.7833 38.6034 32.6917 38.6216 32.5993 38.6216ZM25.1634 45.696H22.6162C22.4294 45.696 22.2504 45.6219 22.1183 45.4898C21.9863 45.3578 21.9121 45.1787 21.9121 44.992V42.4448C21.9121 42.258 21.9863 42.079 22.1183 41.9469C22.2504 41.8149 22.4294 41.7407 22.6162 41.7407H25.1634C25.3501 41.7407 25.5292 41.8149 25.6612 41.9469C25.7933 42.079 25.8674 42.258 25.8674 42.4448V44.992C25.8674 45.1787 25.7933 45.3578 25.6612 45.4898C25.5292 45.6219 25.3501 45.696 25.1634 45.696ZM32.5993 45.696H30.052C29.9596 45.696 29.868 45.6778 29.7826 45.6425C29.6972 45.6071 29.6196 45.5552 29.5542 45.4898C29.4888 45.4245 29.4369 45.3468 29.4016 45.2614C29.3662 45.176 29.348 45.0845 29.348 44.992V42.4448C29.348 42.3523 29.3662 42.2608 29.4016 42.1753C29.4369 42.0899 29.4888 42.0123 29.5542 41.9469C29.6196 41.8816 29.6972 41.8297 29.7826 41.7943C29.868 41.7589 29.9596 41.7407 30.052 41.7407H32.5993C32.6917 41.7407 32.7833 41.7589 32.8687 41.7943C32.9541 41.8297 33.0317 41.8816 33.0971 41.9469C33.1625 42.0123 33.2143 42.0899 33.2497 42.1753C33.2851 42.2608 33.3033 42.3523 33.3033 42.4448V44.992C33.3033 45.0845 33.2851 45.176 33.2497 45.2614C33.2143 45.3468 33.1625 45.4245 33.0971 45.4898C33.0317 45.5552 32.9541 45.6071 32.8687 45.6425C32.7833 45.6778 32.6917 45.696 32.5993 45.696ZM40.1015 38.6216H37.5543C37.3675 38.6216 37.1885 38.5474 37.0564 38.4154C36.9244 38.2833 36.8502 38.1042 36.8502 37.9175V35.3703C36.8502 35.1836 36.9244 35.0045 37.0564 34.8724C37.1885 34.7404 37.3675 34.6662 37.5543 34.6662H40.1015C40.2882 34.6662 40.4673 34.7404 40.5993 34.8724C40.7314 35.0045 40.8055 35.1836 40.8055 35.3703V37.9175C40.8055 38.1042 40.7314 38.2833 40.5993 38.4154C40.4673 38.5474 40.2882 38.6216 40.1015 38.6216ZM40.1015 45.696H37.5543C37.3675 45.696 37.1885 45.6219 37.0564 45.4898C36.9244 45.3578 36.8502 45.1787 36.8502 44.992V42.4448C36.8502 42.258 36.9244 42.079 37.0564 41.9469C37.1885 41.8149 37.3675 41.7407 37.5543 41.7407H40.1015C40.2882 41.7407 40.4673 41.8149 40.5993 41.9469C40.7314 42.079 40.8055 42.258 40.8055 42.4448V44.992C40.8055 45.1787 40.7314 45.3578 40.5993 45.4898C40.4673 45.6219 40.2882 45.696 40.1015 45.696Z" stroke="#007A65" stroke-width="1.7" stroke-miterlimit="10" stroke-linecap="round" stroke-linejoin="round"/>
<path d="M51.1885 63.9744H14.5536C13.5963 63.9744 12.8203 63.1984 12.8203 62.2412V52.3669C12.8203 51.4097 13.5963 50.6336 14.5536 50.6336H65.4463C66.4036 50.6336 67.1796 51.4097 67.1796 52.3669V62.2412C67.1796 63.1984 66.4036 63.9744 65.4463 63.9744H55.0166M46.7195 29.4336H20.9836C19.6541 29.4336 18.5188 30.3936 18.2979 31.7047L15.1084 50.6335H64.8916L61.7021 31.7047C61.4811 30.3936 60.3459 29.4336 59.0164 29.4336H56.9436M17.8544 59.2993H20.851M59.149 59.2993H62.1456" stroke="#007A65" stroke-width="1.7" stroke-miterlimit="10" stroke-linecap="round" stroke-linejoin="round"/>
<path d="M45.7109 34.6278H57.7726M56.5012 34.6278H46.9824V16.8008C46.9824 16.4436 47.3572 16.2103 47.6777 16.3681L48.3125 16.6806C48.8843 16.9621 49.5431 17.0103 50.1497 16.815L52.4945 16.0603C52.5652 16.0376 52.6401 16.0314 52.7136 16.0424L54.5017 16.3096C54.6974 16.3388 54.8967 16.3346 55.091 16.2972L55.9278 16.1361C55.9975 16.1227 56.0694 16.1248 56.1383 16.1424C56.2071 16.16 56.2713 16.1926 56.3261 16.2378C56.3809 16.2831 56.425 16.3399 56.4553 16.4042C56.4855 16.4685 56.5012 16.5386 56.5012 16.6097V34.6278ZM57.1091 45.4581H48.0869C47.4769 45.4581 46.9823 44.9637 46.9823 44.3536V41.0311C46.9823 40.4211 47.4768 39.9265 48.0869 39.9265H57.1091C57.7191 39.9265 58.2137 40.421 58.2137 41.0311V44.3536C58.2137 44.9637 57.7192 45.4581 57.1091 45.4581Z" stroke="#007A65" stroke-width="1.7" stroke-miterlimit="10" stroke-linecap="round" stroke-linejoin="round"/>
</g>
<defs>
<clipPath id="clip0_3668_7566">
<rect width="56" height="56" fill="white" transform="translate(12 12)"/>
</clipPath>
</defs>
</svg>
