<svg width="80" height="80" viewBox="0 0 80 80" fill="none" xmlns="http://www.w3.org/2000/svg">
<path d="M19.1628 19.332H14.8306C12.4379 19.332 10.4983 21.2716 10.4983 23.6643V56.4447C10.4983 58.8374 12.4379 60.777 14.8306 60.777M69.2722 37.8884V23.6643C69.2722 21.2716 67.3326 19.332 64.9399 19.332H60.6077M64.9399 60.777C67.3326 60.777 69.2722 58.8374 69.2722 56.4447V42.2206M33.3869 60.777V65.1092M46.3836 60.777V65.1092M4 60.777C4 63.1696 5.93954 65.1092 8.33222 65.1092H71.4383C73.831 65.1092 75.7705 63.1696 75.7705 60.777H4Z" stroke="#007A65" stroke-width="1.7" stroke-miterlimit="10" stroke-linecap="round" stroke-linejoin="round"/>
<path d="M14.8301 37.8882V23.6641H19.1623M60.6072 23.6641H64.9395V56.4445H14.8301V42.2204" stroke="#007A65" stroke-width="1.7" stroke-miterlimit="10" stroke-linecap="round" stroke-linejoin="round"/>
<path d="M44.2178 15C41.8251 15 39.8856 16.9395 39.8856 19.3322C39.8856 16.9395 37.946 15 35.5533 15H19.1631V52.1127H60.608V15H44.2178Z" stroke="#007A65" stroke-width="1.7" stroke-miterlimit="10" stroke-linecap="round" stroke-linejoin="round"/>
<path d="M60.608 47.7809H44.2178C41.8251 47.7809 39.8856 49.7204 39.8856 52.1131M39.8856 52.1131C39.8856 49.7204 37.946 47.7809 35.5533 47.7809H19.1631M39.8856 52.1131V19.3326M60.608 43.4486H44.2178C41.8251 43.4486 39.8856 45.3882 39.8856 47.7809C39.8856 45.3882 37.946 43.4486 35.5533 43.4486H19.1631M35.5533 34.7842H23.4953M35.5533 39.1164H23.4953M44.2178 19.332H56.2758V39.1164H44.2178V19.332ZM23.4953 19.332H35.5533V30.452H23.4953V19.332Z" stroke="#007A65" stroke-width="1.7" stroke-miterlimit="10" stroke-linecap="round" stroke-linejoin="round"/>
</svg>
