<svg width="80" height="80" viewBox="0 0 80 80" fill="none" xmlns="http://www.w3.org/2000/svg">
<mask id="mask0_3668_7574" style="mask-type:luminance" maskUnits="userSpaceOnUse" x="7" y="10" width="61" height="61">
<path d="M67.1498 70.15V10.8502H7.85V70.15H67.1498Z" fill="white" stroke="white" stroke-width="1.7"/>
</mask>
<g mask="url(#mask0_3668_7574)">
<path d="M56.6395 10.8937H47.29V65.0615H56.6395C57.6264 65.0615 58.4266 64.2613 58.4266 63.2744V12.6808C58.4266 11.6938 57.6264 10.8937 56.6395 10.8937Z" stroke="#007A65" stroke-width="1.7" stroke-miterlimit="10" stroke-linecap="round" stroke-linejoin="round"/>
<path d="M16.5732 12.6808V63.2744C16.5732 64.2614 17.3734 65.0615 18.3603 65.0615H56.6398C57.6267 65.0615 58.4269 64.2614 58.4269 63.2744V12.6808C58.4269 11.6938 57.6267 10.8937 56.6398 10.8937H18.3603C17.3734 10.8937 16.5732 11.6938 16.5732 12.6808Z" stroke="#007A65" stroke-width="1.7" stroke-miterlimit="10" stroke-linecap="round" stroke-linejoin="round"/>
<path d="M52.0527 70.1064C51.0026 70.1064 50.1514 69.2551 50.1514 68.2051V65.0616H53.9541V68.2051C53.9541 69.2551 53.1028 70.1064 52.0527 70.1064Z" stroke="#007A65" stroke-width="1.7" stroke-miterlimit="10" stroke-linecap="round" stroke-linejoin="round"/>
<path d="M22.9463 70.1064C21.8962 70.1064 21.0449 69.2551 21.0449 68.2051V65.0616H24.8476V68.2051C24.8476 69.2551 23.9964 70.1064 22.9463 70.1064Z" stroke="#007A65" stroke-width="1.7" stroke-miterlimit="10" stroke-linecap="round" stroke-linejoin="round"/>
<path d="M50.6006 21.6769V27.5537C50.6006 27.7117 50.6633 27.8632 50.7751 27.9749C50.8868 28.0867 51.0383 28.1494 51.1963 28.1494H54.5213C54.6792 28.1494 54.8308 28.0867 54.9425 27.9749C55.0542 27.8632 55.117 27.7117 55.117 27.5537V21.6769C55.117 21.5189 55.0542 21.3674 54.9425 21.2557C54.8308 21.1439 54.6792 21.0812 54.5213 21.0812H51.1963C51.0383 21.0812 50.8868 21.1439 50.7751 21.2557C50.6633 21.3674 50.6006 21.5189 50.6006 21.6769Z" stroke="#007A65" stroke-width="1.7" stroke-miterlimit="10" stroke-linecap="round" stroke-linejoin="round"/>
<path d="M51.4736 30.9688V31.6836" stroke="#007A65" stroke-width="1.7" stroke-miterlimit="10" stroke-linecap="round" stroke-linejoin="round"/>
<path d="M54.2432 30.9688V31.6836" stroke="#007A65" stroke-width="1.7" stroke-miterlimit="10" stroke-linecap="round" stroke-linejoin="round"/>
<path d="M51.4736 34.5039V35.2188" stroke="#007A65" stroke-width="1.7" stroke-miterlimit="10" stroke-linecap="round" stroke-linejoin="round"/>
<path d="M54.2432 34.5029V35.2178" stroke="#007A65" stroke-width="1.7" stroke-miterlimit="10" stroke-linecap="round" stroke-linejoin="round"/>
<path d="M50.6006 38.3555H55.117" stroke="#007A65" stroke-width="1.7" stroke-miterlimit="10" stroke-linecap="round" stroke-linejoin="round"/>
<path d="M26.2998 59.3525V58.0818C26.2998 57.0948 27.1 56.2947 28.0869 56.2947H35.8874C36.8745 56.2947 37.6745 57.0948 37.6745 58.0818V59.3525C37.6745 60.3395 36.8745 61.1396 35.8874 61.1396H28.0869C27.1 61.1396 26.2998 60.3395 26.2998 59.3525Z" stroke="#007A65" stroke-width="1.7" stroke-miterlimit="10" stroke-linecap="round" stroke-linejoin="round"/>
<path d="M20.8623 31.327V50.5879C20.8623 51.575 21.6625 52.375 22.6494 52.375H41.3256C42.3126 52.375 43.1127 51.575 43.1127 50.5879V16.9706C43.1127 15.9836 42.3126 15.1835 41.3256 15.1835H22.6494C21.6625 15.1835 20.8623 15.9836 20.8623 16.9706V27.7528" stroke="#007A65" stroke-width="1.7" stroke-miterlimit="10" stroke-linecap="round" stroke-linejoin="round"/>
<path d="M20.8623 25.1309H43.1127" stroke="#007A65" stroke-width="1.7" stroke-miterlimit="10" stroke-linecap="round" stroke-linejoin="round"/>
<path d="M24.2725 19.8887V25.1309H27.1914V19.8887C27.1914 19.7307 27.1286 19.5792 27.0169 19.4675C26.9052 19.3557 26.7537 19.293 26.5957 19.293H24.8682C24.7102 19.293 24.5587 19.3557 24.4469 19.4675C24.3352 19.5792 24.2725 19.7307 24.2725 19.8887Z" stroke="#007A65" stroke-width="1.7" stroke-miterlimit="10" stroke-linecap="round" stroke-linejoin="round"/>
<path d="M30.5273 19.8887V25.1309H33.4463V19.8887C33.4463 19.7307 33.3835 19.5792 33.2718 19.4675C33.1601 19.3557 33.0086 19.293 32.8506 19.293H31.123C30.9651 19.293 30.8135 19.3557 30.7018 19.4675C30.5901 19.5792 30.5273 19.7307 30.5273 19.8887Z" stroke="#007A65" stroke-width="1.7" stroke-miterlimit="10" stroke-linecap="round" stroke-linejoin="round"/>
<path d="M36.7822 19.8887V25.1309H39.7012V19.8887C39.7012 19.7307 39.6384 19.5792 39.5267 19.4675C39.415 19.3557 39.2635 19.293 39.1055 19.293H37.3779C37.2199 19.293 37.0684 19.3557 36.9567 19.4675C36.845 19.5792 36.7822 19.7307 36.7822 19.8887Z" stroke="#007A65" stroke-width="1.7" stroke-miterlimit="10" stroke-linecap="round" stroke-linejoin="round"/>
<path d="M20.8623 36.5781H43.1127" stroke="#007A65" stroke-width="1.7" stroke-miterlimit="10" stroke-linecap="round" stroke-linejoin="round"/>
<path d="M24.2725 31.3369V36.5791H27.1914V31.3369C27.1914 31.1789 27.1286 31.0274 27.0169 30.9157C26.9052 30.804 26.7537 30.7412 26.5957 30.7412H24.8682C24.7102 30.7412 24.5587 30.804 24.4469 30.9157C24.3352 31.0274 24.2725 31.1789 24.2725 31.3369Z" stroke="#007A65" stroke-width="1.7" stroke-miterlimit="10" stroke-linecap="round" stroke-linejoin="round"/>
<path d="M30.5273 31.3369V36.5791H33.4463V31.3369C33.4463 31.1789 33.3835 31.0274 33.2718 30.9157C33.1601 30.804 33.0086 30.7412 32.8506 30.7412H31.123C30.9651 30.7412 30.8135 30.804 30.7018 30.9157C30.5901 31.0274 30.5273 31.1789 30.5273 31.3369Z" stroke="#007A65" stroke-width="1.7" stroke-miterlimit="10" stroke-linecap="round" stroke-linejoin="round"/>
<path d="M36.7822 31.3369V36.5791H39.7012V31.3369C39.7012 31.1789 39.6384 31.0274 39.5267 30.9157C39.415 30.804 39.2635 30.7412 39.1055 30.7412H37.3779C37.2199 30.7412 37.0684 30.804 36.9567 30.9157C36.845 31.0274 36.7822 31.1789 36.7822 31.3369Z" stroke="#007A65" stroke-width="1.7" stroke-miterlimit="10" stroke-linecap="round" stroke-linejoin="round"/>
<path d="M20.8623 48.0264H43.1127" stroke="#007A65" stroke-width="1.7" stroke-miterlimit="10" stroke-linecap="round" stroke-linejoin="round"/>
<path d="M24.2725 42.7832V48.0254H27.1914V42.7832C27.1914 42.6252 27.1286 42.4737 27.0169 42.362C26.9052 42.2503 26.7537 42.1875 26.5957 42.1875H24.8682C24.7102 42.1875 24.5587 42.2503 24.4469 42.362C24.3352 42.4737 24.2725 42.6252 24.2725 42.7832Z" stroke="#007A65" stroke-width="1.7" stroke-miterlimit="10" stroke-linecap="round" stroke-linejoin="round"/>
<path d="M30.5273 42.7832V48.0254H33.4463V42.7832C33.4463 42.6252 33.3835 42.4737 33.2718 42.362C33.1601 42.2503 33.0086 42.1875 32.8506 42.1875H31.123C30.9651 42.1875 30.8135 42.2503 30.7018 42.362C30.5901 42.4737 30.5273 42.6252 30.5273 42.7832Z" stroke="#007A65" stroke-width="1.7" stroke-miterlimit="10" stroke-linecap="round" stroke-linejoin="round"/>
<path d="M36.7822 42.7832V48.0254H39.7012V42.7832C39.7012 42.6252 39.6384 42.4737 39.5267 42.362C39.415 42.2503 39.2635 42.1875 39.1055 42.1875H37.3779C37.2199 42.1875 37.0684 42.2503 36.9567 42.362C36.845 42.4737 36.7822 42.6252 36.7822 42.7832Z" stroke="#007A65" stroke-width="1.7" stroke-miterlimit="10" stroke-linecap="round" stroke-linejoin="round"/>
</g>
</svg>
