<svg width="28" height="28" viewBox="0 0 28 28" fill="none" xmlns="http://www.w3.org/2000/svg">
<rect width="28" height="28" rx="4" fill="#007A65"/>
<path fill-rule="evenodd" clip-rule="evenodd" d="M7.88355 18.9398C7.60896 18.8585 7.35843 18.714 7.15307 18.5184C6.94772 18.3228 6.79359 18.0818 6.70367 17.8159C6.18985 16.4412 6.03761 10.7009 7.02718 9.56765C7.35653 9.19901 7.82153 8.97205 8.32124 8.93603C10.976 8.65738 19.178 8.69453 20.12 9.02892C20.385 9.11283 20.6271 9.25418 20.8281 9.44239C21.0291 9.63059 21.1839 9.86077 21.2809 10.1157C21.8423 11.5368 21.8613 16.7012 21.2048 18.0666C21.0306 18.4221 20.739 18.71 20.3769 18.884C19.3874 19.367 9.19664 19.3578 7.88355 18.9398V18.9398ZM12.0988 16.2461L16.8563 13.8311L12.0988 11.3975V16.2461Z" fill="white"/>
</svg>
