<svg width="56" height="56" viewBox="0 0 56 56" fill="none" xmlns="http://www.w3.org/2000/svg">
<path d="M17.1645 44.8067L11.3879 40.2638M36.8456 26.1952L33.0154 28.1991M26.2909 29.9157C25.7502 28.8659 25.04 28.2353 23.3202 27.7213L19.0153 26.449M29.0937 51.0599C30.0783 51.5001 31.2333 51.0589 31.6735 50.0743L32.6416 48.0177C33.0818 47.0331 32.6406 45.8781 31.656 45.4379C30.6714 44.9976 29.5164 45.4389 29.0762 46.4235L28.1081 48.48C27.6679 49.4646 28.1091 50.6196 29.0937 51.0599Z" stroke="#007A65" stroke-width="1.64062" stroke-miterlimit="10" stroke-linecap="round" stroke-linejoin="round"/>
<path d="M24.8127 51.0658C25.7973 51.506 26.9523 51.0648 27.3925 50.0802L29.0762 46.4233C29.5164 45.4387 29.0752 44.2837 28.0906 43.8435C27.106 43.4033 25.951 43.8445 25.5108 44.8291L23.8271 48.4859C23.3869 49.4705 23.8281 50.6255 24.8127 51.0658Z" stroke="#007A65" stroke-width="1.64062" stroke-miterlimit="10" stroke-linecap="round" stroke-linejoin="round"/>
<path d="M21.2473 49.4715C22.2319 49.9117 23.3869 49.4705 23.8271 48.4859L25.5107 44.8291C25.951 43.8445 25.5097 42.6895 24.5251 42.2493C23.5406 41.809 22.3856 42.2502 21.9453 43.2348L20.2617 46.8917C19.8215 47.8763 20.2627 49.0313 21.2473 49.4715Z" stroke="#007A65" stroke-width="1.64062" stroke-miterlimit="10" stroke-linecap="round" stroke-linejoin="round"/>
<path d="M40.0775 43.0245L44.8201 40.6407M33.0154 28.1991H29.6985C27.7791 28.1991 26.0986 29.4875 25.6004 31.3411L24.5201 35.3604C24.2046 36.5345 24.9059 37.741 26.0825 38.0477C27.1631 38.3295 28.2826 37.7528 28.6807 36.7094L30.0558 33.1051L32.1233 33.8968C33.5494 34.443 35.099 34.085 36.1415 33.1053M32.7352 46.6778L34.4724 47.3428C35.4798 47.7274 35.9849 48.8562 35.6003 49.8636C35.2165 50.8711 34.0877 51.3771 33.0804 50.9924L31.4987 50.3867M18.316 46.4594C19.3005 46.8997 20.4555 46.4585 20.8958 45.4739L21.9455 43.2347C22.3857 42.2501 21.9445 41.0951 20.9599 40.6549C19.9753 40.2147 18.8203 40.6559 18.38 41.6405L17.3304 43.8796C16.8901 44.8642 17.3314 46.0192 18.316 46.4594Z" stroke="#007A65" stroke-width="1.64062" stroke-miterlimit="10" stroke-linecap="round" stroke-linejoin="round"/>
<path d="M27.2711 40.4031L37.5018 44.3187C38.5102 44.7034 39.0153 45.8322 38.6306 46.8396C38.3331 47.6179 37.5917 48.0969 36.8045 48.0969C36.5735 48.0969 36.339 48.0555 36.1098 47.9684L34.4723 47.3432" stroke="#007A65" stroke-width="1.64062" stroke-miterlimit="10" stroke-linecap="round" stroke-linejoin="round"/>
<path d="M28.6636 36.754L38.8943 40.6699C39.902 41.0543 40.4072 42.1829 40.0227 43.1905C39.6383 44.1982 38.5098 44.7034 37.5021 44.319L27.2715 40.4031" stroke="#007A65" stroke-width="1.64062" stroke-miterlimit="10" stroke-linecap="round" stroke-linejoin="round"/>
<path d="M30.0558 33.1051L38.8356 36.4674C39.8432 36.8518 40.3484 37.9804 39.964 38.988C39.5795 39.9957 38.451 40.5009 37.4433 40.1165L28.6636 36.7542M6.5741 25.2195L1.05263 35.2202C0.555518 36.1205 0.88244 37.2533 1.78281 37.7505L8.5773 41.5018C9.47767 41.9989 10.6105 41.672 11.1076 40.7716L19.136 26.2303C19.6331 25.3299 19.3062 24.1971 18.4058 23.7L11.6114 19.9487C10.711 19.4516 9.57819 19.7785 9.08108 20.6789L8.45753 21.8083M30.5065 4.76361C33.8518 5.61345 36.3336 8.65058 36.3336 12.2563C36.3336 16.5186 32.8661 19.9861 28.6039 19.9861C24.3416 19.9861 20.8741 16.5186 20.8741 12.2563C20.8741 8.66469 23.3366 5.63719 26.6619 4.77367M54.2172 37.7505L47.4227 41.5018C46.5223 41.9989 45.3895 41.672 44.8924 40.7716L36.8641 26.2303C36.367 25.3299 36.6939 24.1971 37.5943 23.7L44.3888 19.9487C45.2891 19.4516 46.4219 19.7785 46.919 20.6789L54.9474 35.2202C55.4445 36.1205 55.1176 37.2533 54.2172 37.7505Z" stroke="#007A65" stroke-width="1.64062" stroke-miterlimit="10" stroke-linecap="round" stroke-linejoin="round"/>
<rect x="28" y="10.3652" width="1.7" height="6.56775" rx="0.3" fill="#007A65"/>
<rect x="28" y="7.5913" width="1.7" height="1.7" rx="0.3" fill="#007A65"/>
</svg>
