<svg width="56" height="56" viewBox="0 0 56 56" fill="none" xmlns="http://www.w3.org/2000/svg">
<path d="M45.5342 4.38356H38.4657V4.32877C38.4657 3.39211 37.7038 2.63014 36.7671 2.63014H32.3287V2.57534C32.3287 1.15529 31.1735 0 29.7534 0H26.2466C24.8265 0 23.6712 1.15529 23.6712 2.57534V2.63014H19.2329C18.2962 2.63014 17.5342 3.39211 17.5342 4.32877V4.38356H10.4657C8.07888 4.38356 6.13696 6.32548 6.13696 8.71233V51.6712C6.13696 54.0581 8.07888 56 10.4657 56H45.5342C47.9211 56 49.863 54.0581 49.863 51.6712V8.71233C49.863 6.32548 47.9211 4.38356 45.5342 4.38356ZM37.6436 9.53425H44.6575C44.672 9.53425 44.686 9.54002 44.6963 9.5503C44.7065 9.56057 44.7123 9.57451 44.7123 9.58904V50.7945C44.7123 50.8091 44.7065 50.823 44.6963 50.8333C44.686 50.8435 44.672 50.8493 44.6575 50.8493H11.3424C11.3279 50.8493 11.314 50.8435 11.3037 50.8333C11.2934 50.823 11.2876 50.8091 11.2876 50.7945V9.58904C11.2876 9.57451 11.2934 9.56057 11.3037 9.5503C11.314 9.54002 11.3279 9.53425 11.3424 9.53425H18.3563C18.366 9.53425 18.3754 9.53315 18.3851 9.53282C19.1744 10.5967 20.4394 11.2877 21.863 11.2877H34.137C35.5605 11.2877 36.8255 10.5967 37.6149 9.53282C37.6245 9.53315 37.6339 9.53425 37.6436 9.53425ZM25.315 2.57534C25.315 2.0617 25.7329 1.64384 26.2466 1.64384H29.7534C30.267 1.64384 30.6849 2.0617 30.6849 2.57534V2.63014H25.315V2.57534ZM19.1781 4.32877C19.1781 4.31423 19.1838 4.3003 19.1941 4.29002C19.2044 4.27975 19.2183 4.27397 19.2329 4.27397H36.7671C36.7816 4.27397 36.7956 4.27975 36.8058 4.29002C36.8161 4.3003 36.8219 4.31423 36.8219 4.32877V5.19912C36.8219 5.20132 36.8216 5.2034 36.8216 5.20548L36.8219 5.21184V6.9589C36.8219 8.43934 35.6174 9.64384 34.137 9.64384H21.863C20.3826 9.64384 19.1781 8.43934 19.1781 6.9589V4.32877ZM48.2192 51.6712C48.2192 53.1517 47.0147 54.3562 45.5342 54.3562H10.4657C8.98529 54.3562 7.7808 53.1517 7.7808 51.6712V8.71233C7.7808 7.23189 8.98529 6.0274 10.4657 6.0274H17.5342V6.9589C17.5342 7.27869 17.5702 7.59014 17.6363 7.89041H11.3424C10.4058 7.89041 9.64381 8.65238 9.64381 9.58904V50.7945C9.64381 51.7312 10.4058 52.4931 11.3424 52.4931H44.6575C45.5942 52.4931 46.3561 51.7312 46.3561 50.7945V9.58904C46.3561 8.65238 45.5942 7.89041 44.6575 7.89041H38.3637C38.4299 7.59014 38.4657 7.27869 38.4657 6.9589V6.0274H45.5342C47.0147 6.0274 48.2192 7.23189 48.2192 8.71233V51.6712Z" fill="#007A65"/>
<path d="M15.8356 23.5616H22.6301C23.1438 23.5616 23.5616 23.1438 23.5616 22.6301V15.8356C23.5616 15.322 23.1438 14.9041 22.6301 14.9041H15.8356C15.322 14.9041 14.9041 15.322 14.9041 15.8356V22.6301C14.9041 23.1438 15.322 23.5616 15.8356 23.5616ZM16.5479 16.5479H21.9178V21.9178H16.5479V16.5479ZM22.6301 37.6986H15.8356C15.322 37.6986 14.9041 38.1165 14.9041 38.6301V45.4247C14.9041 45.9383 15.322 46.3562 15.8356 46.3562H22.6301C23.1438 46.3562 23.5616 45.9383 23.5616 45.4247V38.6301C23.5616 38.1165 23.1438 37.6986 22.6301 37.6986ZM21.9178 44.7123H16.5479V39.3425H21.9178V44.7123ZM23.912 26.5421L23.3211 27.133C23.0244 26.6361 22.4827 26.3014 21.863 26.3014H16.6027C15.6661 26.3014 14.9041 27.0633 14.9041 28V33.2603C14.9041 34.1969 15.6661 34.9589 16.6027 34.9589H21.863C22.7997 34.9589 23.5616 34.1969 23.5616 33.2603V32.3836C23.5616 32.1656 23.4751 31.9565 23.3209 31.8024C23.1668 31.6482 22.9577 31.5616 22.7397 31.5616C22.5217 31.5616 22.3127 31.6482 22.1585 31.8024C22.0044 31.9565 21.9178 32.1656 21.9178 32.3836V33.2603C21.9178 33.2748 21.912 33.2887 21.9018 33.299C21.8915 33.3093 21.8776 33.3151 21.863 33.3151H16.6027C16.5882 33.3151 16.5743 33.3093 16.564 33.299C16.5537 33.2887 16.5479 33.2748 16.5479 33.2603V28C16.5479 27.9855 16.5537 27.9715 16.564 27.9613C16.5743 27.951 16.5882 27.9452 16.6027 27.9452H21.863C21.8776 27.9452 21.8915 27.951 21.9018 27.9613C21.912 27.9715 21.9178 27.9855 21.9178 28V28.5363L20.1096 30.3446L18.9373 29.1723C18.7832 29.0182 18.5741 28.9316 18.3562 28.9316C18.1382 28.9316 17.9292 29.0182 17.775 29.1723C17.6209 29.3264 17.5343 29.5355 17.5343 29.7534C17.5343 29.9714 17.6209 30.1804 17.775 30.3346L19.5284 32.088C19.6889 32.2486 19.8993 32.3288 20.1096 32.3288C20.3199 32.3288 20.5303 32.2486 20.6907 32.088L23.3208 29.458L23.321 29.4578L25.0743 27.7044C25.2284 27.5503 25.315 27.3413 25.315 27.1233C25.315 26.9053 25.2284 26.6963 25.0743 26.5421C24.9202 26.388 24.7111 26.3014 24.4932 26.3014C24.2752 26.3014 24.0661 26.388 23.912 26.5421ZM26.2466 17.4247H28.8767C29.0947 17.4247 29.3038 17.3381 29.4579 17.1839C29.612 17.0298 29.6986 16.8207 29.6986 16.6027C29.6986 16.3848 29.612 16.1757 29.4579 16.0216C29.3038 15.8674 29.0947 15.7808 28.8767 15.7808H26.2466C26.0286 15.7808 25.8195 15.8674 25.6654 16.0216C25.5113 16.1757 25.4247 16.3848 25.4247 16.6027C25.4247 16.8207 25.5113 17.0298 25.6654 17.1839C25.8195 17.3381 26.0286 17.4247 26.2466 17.4247ZM25.4247 20.1096C25.4247 20.3276 25.5113 20.5366 25.6654 20.6908C25.8195 20.8449 26.0286 20.9315 26.2466 20.9315H39.3973C39.6153 20.9315 39.8243 20.8449 39.9785 20.6908C40.1326 20.5366 40.2192 20.3276 40.2192 20.1096C40.2192 19.8916 40.1326 19.6825 39.9785 19.5284C39.8243 19.3743 39.6153 19.2877 39.3973 19.2877H26.2466C26.0286 19.2877 25.8195 19.3743 25.6654 19.5284C25.5113 19.6825 25.4247 19.8916 25.4247 20.1096ZM26.2466 29.6986H35.0137C35.2317 29.6986 35.4408 29.612 35.5949 29.4579C35.749 29.3038 35.8356 29.0947 35.8356 28.8767C35.8356 28.6587 35.749 28.4497 35.5949 28.2955C35.4408 28.1414 35.2317 28.0548 35.0137 28.0548H26.2466C26.0286 28.0548 25.8195 28.1414 25.6654 28.2955C25.5113 28.4497 25.4247 28.6587 25.4247 28.8767C25.4247 29.0947 25.5113 29.3038 25.6654 29.4579C25.8195 29.612 26.0286 29.6986 26.2466 29.6986ZM39.3973 31.5616H26.2466C26.0286 31.5616 25.8195 31.6482 25.6654 31.8024C25.5113 31.9565 25.4247 32.1656 25.4247 32.3836C25.4247 32.6016 25.5113 32.8106 25.6654 32.9648C25.8195 33.1189 26.0286 33.2055 26.2466 33.2055H39.3973C39.6153 33.2055 39.8243 33.1189 39.9785 32.9648C40.1326 32.8106 40.2192 32.6016 40.2192 32.3836C40.2192 32.1656 40.1326 31.9565 39.9785 31.8024C39.8243 31.6482 39.6153 31.5616 39.3973 31.5616ZM26.2466 41.0959H29.7534C29.9714 41.0959 30.1805 41.0093 30.3346 40.8552C30.4888 40.701 30.5753 40.492 30.5753 40.274C30.5753 40.056 30.4888 39.8469 30.3346 39.6928C30.1805 39.5387 29.9714 39.4521 29.7534 39.4521H26.2466C26.0286 39.4521 25.8195 39.5387 25.6654 39.6928C25.5113 39.8469 25.4247 40.056 25.4247 40.274C25.4247 40.492 25.5113 40.701 25.6654 40.8552C25.8195 41.0093 26.0286 41.0959 26.2466 41.0959ZM39.3973 42.9589H26.2466C26.0286 42.9589 25.8195 43.0455 25.6654 43.1996C25.5113 43.3538 25.4247 43.5628 25.4247 43.7808C25.4247 43.9988 25.5113 44.2079 25.6654 44.362C25.8195 44.5162 26.0286 44.6027 26.2466 44.6027H39.3973C39.6153 44.6027 39.8243 44.5162 39.9785 44.362C40.1326 44.2079 40.2192 43.9988 40.2192 43.7808C40.2192 43.5628 40.1326 43.3538 39.9785 43.1996C39.8243 43.0455 39.6153 42.9589 39.3973 42.9589Z" fill="#007A65"/>
</svg>
