<svg width="56" height="56" viewBox="0 0 56 56" fill="none" xmlns="http://www.w3.org/2000/svg">
<path d="M10.2744 39.9473H1.27162C0.991797 39.9473 0.723438 40.0585 0.525575 40.2563C0.327711 40.4542 0.216553 40.7226 0.216553 41.0024V54.5066C0.216553 54.7865 0.327711 55.0548 0.525575 55.2527C0.723438 55.4506 0.991797 55.5617 1.27162 55.5617H10.2744C10.5542 55.5617 10.8226 55.4506 11.0205 55.2527C11.2183 55.0548 11.3295 54.7865 11.3295 54.5066V41.0024C11.3295 40.8638 11.3022 40.7266 11.2492 40.5986C11.1962 40.4706 11.1185 40.3543 11.0205 40.2563C10.9225 40.1583 10.8062 40.0806 10.6782 40.0276C10.5502 39.9746 10.413 39.9473 10.2744 39.9473ZM9.21935 53.4516H2.32654V42.0573H9.21935V53.4516ZM54.1633 39.9473H45.1605C45.0219 39.9473 44.8847 39.9746 44.7567 40.0276C44.6287 40.0806 44.5124 40.1583 44.4144 40.2563C44.3164 40.3543 44.2387 40.4706 44.1857 40.5986C44.1327 40.7266 44.1054 40.8638 44.1054 41.0024V54.5066C44.1054 54.6452 44.1327 54.7824 44.1857 54.9104C44.2387 55.0384 44.3164 55.1548 44.4144 55.2527C44.5124 55.3507 44.6287 55.4284 44.7567 55.4814C44.8847 55.5345 45.0219 55.5617 45.1605 55.5617H54.1633C54.3018 55.5617 54.439 55.5345 54.5671 55.4814C54.6951 55.4284 54.8114 55.3507 54.9094 55.2527C55.0074 55.1548 55.0851 55.0384 55.1381 54.9104C55.1911 54.7824 55.2184 54.6452 55.2184 54.5066V41.0024C55.2184 40.8638 55.1911 40.7266 55.1381 40.5986C55.0851 40.4706 55.0074 40.3543 54.9094 40.2563C54.8114 40.1583 54.6951 40.0806 54.5671 40.0276C54.439 39.9746 54.3018 39.9473 54.1633 39.9473ZM53.1082 53.4516H46.2154V42.0573H53.1082V53.4516ZM24.9041 44.3789C25.0426 44.3789 25.1799 44.3516 25.3079 44.2986C25.4359 44.2456 25.5522 44.1679 25.6502 44.0699C25.7481 43.9719 25.8259 43.8556 25.8789 43.7276C25.9319 43.5996 25.9592 43.4624 25.9592 43.3238V27.4981C25.9592 27.3595 25.9319 27.2223 25.8789 27.0943C25.8259 26.9663 25.7481 26.85 25.6502 26.752C25.5522 26.654 25.4359 26.5763 25.3079 26.5233C25.1799 26.4703 25.0426 26.443 24.9041 26.443H15.9011C15.6213 26.443 15.353 26.5542 15.1551 26.7521C14.9572 26.9499 14.8461 27.2183 14.8461 27.4981V54.5066C14.8461 54.7865 14.9572 55.0548 15.1551 55.2527C15.353 55.4506 15.6213 55.5617 15.9011 55.5617H24.9039C25.0425 55.5617 25.1797 55.5345 25.3077 55.4814C25.4357 55.4284 25.5521 55.3507 25.65 55.2527C25.748 55.1548 25.8257 55.0384 25.8787 54.9104C25.9318 54.7824 25.959 54.6452 25.959 54.5066V48.2472C25.959 48.1086 25.9318 47.9714 25.8787 47.8434C25.8257 47.7154 25.748 47.599 25.65 47.5011C25.5521 47.4031 25.4357 47.3254 25.3077 47.2724C25.1797 47.2193 25.0425 47.1921 24.9039 47.1921C24.7654 47.1921 24.6282 47.2193 24.5002 47.2724C24.3722 47.3254 24.2558 47.4031 24.1579 47.5011C24.0599 47.599 23.9822 47.7154 23.9292 47.8434C23.8761 47.9714 23.8489 48.1086 23.8489 48.2472V53.4516H16.9561V28.553H23.8489V43.3237C23.8489 43.6035 23.9601 43.8719 24.1579 44.0698C24.3558 44.2677 24.6242 44.3789 24.9041 44.3789ZM39.5336 33.1952H30.5308C30.3923 33.1952 30.2551 33.2224 30.127 33.2754C29.999 33.3285 29.8827 33.4062 29.7847 33.5042C29.6868 33.6021 29.609 33.7184 29.556 33.8465C29.503 33.9745 29.4757 34.1117 29.4758 34.2502V54.5066C29.4757 54.6452 29.503 54.7824 29.556 54.9104C29.609 55.0384 29.6868 55.1548 29.7847 55.2527C29.8827 55.3507 29.999 55.4284 30.127 55.4814C30.2551 55.5345 30.3923 55.5617 30.5308 55.5617H39.5336C39.6722 55.5617 39.8094 55.5345 39.9374 55.4814C40.0654 55.4284 40.1817 55.3507 40.2797 55.2527C40.3777 55.1548 40.4554 55.0384 40.5084 54.9104C40.5614 54.7824 40.5887 54.6452 40.5887 54.5066V34.2502C40.5887 34.1117 40.5614 33.9745 40.5084 33.8465C40.4554 33.7184 40.3777 33.6021 40.2797 33.5042C40.1817 33.4062 40.0654 33.3285 39.9374 33.2754C39.8094 33.2224 39.6722 33.1952 39.5336 33.1952ZM38.4787 53.4516H31.5859V35.3052H38.4787V53.4516Z" fill="#007A65"/>
<circle cx="6" cy="30" r="5.15" stroke="#007A65" stroke-width="1.7"/>
<circle cx="20" cy="7" r="5.15" stroke="#007A65" stroke-width="1.7"/>
<circle cx="49" cy="22" r="5.15" stroke="#007A65" stroke-width="1.7"/>
<line x1="7.285" y1="24.5404" x2="16.285" y2="10.5404" stroke="#007A65" stroke-width="1.7"/>
<line x1="44.5741" y1="19.7356" x2="25.5741" y2="8.73561" stroke="#007A65" stroke-width="1.7"/>
</svg>
