<svg width="56" height="56" viewBox="0 0 56 56" fill="none" xmlns="http://www.w3.org/2000/svg">
<path d="M0.820312 8.75V50.4756C0.820312 51.0797 1.30998 51.5693 1.91406 51.5693H28.4313C29.0353 51.5693 29.525 51.0797 29.525 50.4756V8.75H0.820312Z" stroke="#007A65" stroke-width="1.64062" stroke-miterlimit="10" stroke-linecap="round" stroke-linejoin="round"/>
<path d="M6.328 43.658L9.01141 46.3414L13.1707 42.1821M19.5781 38.3005H5.95634M24.389 38.3005H22.5273M5.95634 34.3437H24.389M15.1727 21.5756L21.6896 28.0926M15.1727 21.5756V12.3594M15.1727 21.5756H24.389M29.525 8.85937H0.820312V5.52442C0.820312 4.92034 1.30998 4.43067 1.91406 4.43067H28.4313C29.0353 4.43067 29.525 4.92034 29.525 5.52442V8.85937Z" stroke="#007A65" stroke-width="1.64062" stroke-miterlimit="10" stroke-linecap="round" stroke-linejoin="round"/>
<path d="M15.1727 30.7919C20.2627 30.7919 24.389 26.6656 24.389 21.5756C24.389 16.4856 20.2627 12.3594 15.1727 12.3594C10.0827 12.3594 5.95642 16.4856 5.95642 21.5756C5.95642 26.6656 10.0827 30.7919 15.1727 30.7919Z" stroke="#007A65" stroke-width="1.64062" stroke-miterlimit="10" stroke-linecap="round" stroke-linejoin="round"/>
<path d="M16.7344 42.1821H24.389M16.7344 46.3414H24.389M43.1441 16.6285L46.2625 19.7469L51.096 14.9134" stroke="#007A65" stroke-width="1.64062" stroke-miterlimit="10" stroke-linecap="round" stroke-linejoin="round"/>
<path d="M47.0922 25.1117C51.5588 25.1117 55.1797 21.4908 55.1797 17.0242C55.1797 12.5576 51.5588 8.9367 47.0922 8.9367C42.6255 8.9367 39.0046 12.5576 39.0046 17.0242C39.0046 21.4908 42.6255 25.1117 47.0922 25.1117Z" stroke="#007A65" stroke-width="1.64062" stroke-miterlimit="10" stroke-linecap="round" stroke-linejoin="round"/>
<path d="M47.0922 47.0633C51.5588 47.0633 55.1797 43.4424 55.1797 38.9758C55.1797 34.5092 51.5588 30.8883 47.0922 30.8883C42.6255 30.8883 39.0046 34.5092 39.0046 38.9758C39.0046 43.4424 42.6255 47.0633 47.0922 47.0633Z" stroke="#007A65" stroke-width="1.64062" stroke-miterlimit="10" stroke-linecap="round" stroke-linejoin="round"/>
<path d="M39.0047 17.0242H29.525M39.0047 38.9758H29.525M50.193 35.875L43.9914 42.0766M43.9914 35.875L50.193 42.0766" stroke="#007A65" stroke-width="1.64062" stroke-miterlimit="10" stroke-linecap="round" stroke-linejoin="round"/>
</svg>
