<svg width="57" height="56" viewBox="0 0 57 56" fill="none" xmlns="http://www.w3.org/2000/svg">
<path d="M33.7148 0.820313H16.3778C16.0169 0.820312 15.6595 0.891402 15.326 1.02952C14.9926 1.16765 14.6896 1.3701 14.4344 1.62531L8.05195 8.00789C7.53657 8.52332 7.24704 9.22237 7.24706 9.95127V35.875M7.24695 39.7031V47.0077C7.24695 48.5255 8.47742 49.756 9.99521 49.756H41.5812C43.099 49.756 44.3294 48.5255 44.3294 47.0077V3.56858C44.3294 2.05078 43.099 0.820313 41.5812 0.820313H37.5429" stroke="#007A65" stroke-width="1.64062" stroke-miterlimit="10" stroke-linecap="round" stroke-linejoin="round"/>
<path d="M7.49463 8.81278H12.4913C14.0091 8.81278 15.2396 7.58231 15.2396 6.06451V1.06793" stroke="#007A65" stroke-width="1.64062" stroke-miterlimit="10" stroke-linejoin="round"/>
<path d="M26.2639 13.9116H37.555M26.2639 19.343H37.555M14.0214 25.1005H37.555M14.0214 30.5318H16.7969M20.9532 30.5318H37.555M32.362 6.70163H37.555M12.6707 49.756V52.4314C12.6707 53.9492 13.9011 55.1797 15.4189 55.1797H47.0049C48.5227 55.1797 49.7532 53.9492 49.7532 52.4314V28.6563M49.7532 24.8281V8.99227C49.7532 7.47447 48.5227 6.244 47.0049 6.244H44.3295M21.4671 20.6235H14.5684C14.4234 20.6235 14.2843 20.5659 14.1817 20.4634C14.0792 20.3608 14.0215 20.2217 14.0215 20.0767V13.1779C14.0215 13.0329 14.0792 12.8938 14.1817 12.7912C14.2843 12.6887 14.4234 12.6311 14.5684 12.6311H21.4671C21.6122 12.6311 21.7513 12.6887 21.8538 12.7912C21.9564 12.8938 22.014 13.0329 22.014 13.1779V20.0767C22.014 20.2217 21.9564 20.3608 21.8538 20.4634C21.7513 20.5659 21.6122 20.6235 21.4671 20.6235Z" stroke="#007A65" stroke-width="1.64062" stroke-miterlimit="10" stroke-linecap="round" stroke-linejoin="round"/>
<path d="M15.9534 44V35.7905H22.2593V44H20.9229V36.936H17.301V44H15.9534ZM24.4324 35.7905H26.875C27.9344 35.7905 28.7337 35.944 29.2727 36.251C29.8118 36.5579 30.0813 37.0876 30.0813 37.8401C30.0813 38.1545 30.0252 38.439 29.9129 38.6936C29.8043 38.9444 29.6452 39.1522 29.4356 39.3169C29.2259 39.4779 28.9676 39.5864 28.6607 39.6426V39.6987C28.9789 39.7549 29.2615 39.8541 29.5086 39.9963C29.7594 40.1386 29.9559 40.3426 30.0982 40.6084C30.2442 40.8742 30.3172 41.2186 30.3172 41.6416C30.3172 42.1432 30.1974 42.57 29.9578 42.9219C29.7219 43.2738 29.3832 43.5414 28.9414 43.7249C28.5034 43.9083 27.9831 44 27.3804 44H24.4324V35.7905ZM25.78 39.1765H27.0715C27.6817 39.1765 28.1047 39.0773 28.3406 38.8789C28.5764 38.6805 28.6943 38.3904 28.6943 38.0085C28.6943 37.6192 28.554 37.3385 28.2732 37.1663C27.9962 36.9941 27.5545 36.908 26.948 36.908H25.78V39.1765ZM25.78 40.2659V42.8713H27.2007C27.8296 42.8713 28.2713 42.7497 28.5259 42.5063C28.7804 42.263 28.9077 41.9336 28.9077 41.5181C28.9077 41.2635 28.8497 41.0426 28.7337 40.8555C28.6214 40.6683 28.436 40.5242 28.1777 40.4231C27.9194 40.3183 27.5713 40.2659 27.1333 40.2659H25.78ZM34.8599 44H33.5066V36.936H31.1033V35.7905H37.2576V36.936H34.8599V44Z" fill="#007A65"/>
</svg>
