<svg width="56" height="56" viewBox="0 0 56 56" fill="none" xmlns="http://www.w3.org/2000/svg">
<g clip-path="url(#clip0_1415_2645)">
<path d="M44.5842 50.8156L47.3608 54.1173C48.4854 55.4553 50.5148 55.5417 51.7499 54.3055L54.3055 51.7499C55.5417 50.5147 55.4553 48.4854 54.1173 47.3607L39.5583 35.1133M35.1133 39.5583L42.1281 47.8968" stroke="#007A65" stroke-width="1.64101" stroke-miterlimit="10" stroke-linecap="round" stroke-linejoin="round"/>
<path d="M42.3918 14.6652C39.3121 6.57171 31.4801 0.820507 22.3058 0.820507C10.4402 0.820507 0.820546 10.4401 0.820546 22.3057C0.820546 34.1714 10.4402 43.791 22.3058 43.791C34.1714 43.791 43.791 34.1714 43.791 22.3057C43.791 20.9339 43.6619 19.5926 43.4169 18.2918" stroke="#007A65" stroke-width="1.64101" stroke-miterlimit="10" stroke-linecap="round" stroke-linejoin="round"/>
<path d="M22.3058 38.8955C13.1434 38.8955 5.71588 31.468 5.71588 22.3056C5.71588 13.1433 13.1434 5.71576 22.3058 5.71576C31.4681 5.71576 38.8956 13.1433 38.8956 22.3056C38.8956 31.468 31.4681 38.8955 22.3058 38.8955Z" stroke="#007A65" stroke-width="1.64101" stroke-miterlimit="10" stroke-linecap="round" stroke-linejoin="round"/>
<path d="M29.1393 15.9627C29.2497 16.3784 29.3209 16.804 29.3515 17.2361C29.5692 20.2753 27.8286 23.1033 25.0225 24.2739C24.5346 24.4773 24.2195 24.962 24.2195 25.5068C24.2195 26.5636 23.3629 27.4213 22.305 27.4213C21.2482 27.4213 20.3905 26.5636 20.3905 25.5068C20.3905 23.4118 21.63 21.541 23.5478 20.7402C24.8343 20.2042 25.6319 18.9056 25.5323 17.5107C25.4207 15.9649 24.1779 14.6849 22.6397 14.5339C20.8948 14.3621 19.3413 15.5765 19.1006 17.2985C19.0798 17.4472 19.07 17.6004 19.07 17.7525C19.07 18.8093 18.2123 19.667 17.1555 19.667C16.0976 19.667 15.241 18.8093 15.241 17.7525C15.241 17.4243 15.2639 17.0939 15.3088 16.7701C15.8339 13.0056 19.2166 10.3504 23.0139 10.7224C24.5991 10.8788 26.0935 11.5801 27.2411 12.7047M22.3051 33.9239C21.2477 33.9239 20.3906 33.0667 20.3906 32.0094V31.9933C20.3906 30.9359 21.2477 30.0788 22.3051 30.0788C23.3624 30.0788 24.2196 30.9359 24.2196 31.9933V32.0094C24.2196 33.0667 23.3624 33.9239 22.3051 33.9239Z" stroke="#007A65" stroke-width="1.64101" stroke-miterlimit="10" stroke-linecap="round" stroke-linejoin="round"/>
</g>
<defs>
<clipPath id="clip0_1415_2645">
<rect width="56" height="56" fill="white"/>
</clipPath>
</defs>
</svg>
