<svg width="56" height="56" viewBox="0 0 56 56" fill="none" xmlns="http://www.w3.org/2000/svg">
<g clip-path="url(#clip0_1419_2726)">
<path d="M52.1854 49.6762L48.2997 45.7904C48.1458 45.6366 47.9372 45.5502 47.7196 45.5502C47.5021 45.5502 47.2935 45.6366 47.1396 45.7904C46.9858 45.9442 46.8994 46.1529 46.8994 46.3704C46.8994 46.588 46.9858 46.7966 47.1396 46.9504L51.0254 50.8362C51.1148 50.9251 51.1857 51.031 51.234 51.1475C51.2823 51.2641 51.307 51.389 51.3066 51.5152C51.3069 51.6413 51.2823 51.7663 51.234 51.8828C51.1857 51.9993 51.1148 52.1051 51.0254 52.1941L49.1412 54.0782C48.9598 54.2595 48.7188 54.3594 48.4623 54.3594C48.2058 54.3594 47.9647 54.2595 47.7833 54.0782L38.4248 44.7197L41.6668 41.4777L44.4327 44.2436C44.5865 44.3974 44.7952 44.4838 45.0127 44.4838C45.2303 44.4838 45.4389 44.3974 45.5927 44.2436C45.7466 44.0898 45.833 43.8811 45.833 43.6636C45.833 43.446 45.7466 43.2374 45.5927 43.0836L40.2832 37.7741C39.6865 37.1773 38.8048 37.0371 38.0725 37.3504L33.2635 32.5414C35.1926 29.8557 36.3301 26.565 36.3301 23.0134C36.3301 22.8522 36.3269 22.6917 36.3221 22.5316H38.0625C38.8164 22.5316 39.4297 21.9183 39.4297 21.1644V13.4531C39.4297 13.2356 39.3432 13.0269 39.1894 12.8731C39.0356 12.7192 38.8269 12.6328 38.6094 12.6328C38.3918 12.6328 38.1831 12.7192 38.0293 12.8731C37.8755 13.0269 37.789 13.2356 37.789 13.4531V20.8907H28.2548C27.8897 20.8907 27.5464 21.0329 27.2881 21.2912L23.8294 24.7499V22.2579C23.8294 21.504 23.2161 20.8907 22.4622 20.8907H18.5388V1.64062H37.789V9.625C37.789 9.84256 37.8755 10.0512 38.0293 10.205C38.1831 10.3589 38.3918 10.4453 38.6094 10.4453C38.8269 10.4453 39.0356 10.3589 39.1894 10.205C39.3432 10.0512 39.4297 9.84256 39.4297 9.625V1.36719C39.4297 0.613266 38.8164 0 38.0625 0H18.2655C17.5116 0 16.8983 0.613266 16.8983 1.36719V6.93273C9.33065 8.3708 3.59065 15.0335 3.59065 23.0133C3.59065 24.4949 3.78983 25.9305 4.16083 27.2962C3.54647 27.3177 3.05286 27.823 3.05286 28.4425V44.2556C3.05286 44.8889 3.56801 45.4041 4.20129 45.4041H9.95311C10.1707 45.4041 10.3793 45.3177 10.5332 45.1638C10.687 45.01 10.7734 44.8013 10.7734 44.5838C10.7734 44.3662 10.687 44.1576 10.5332 44.0037C10.3793 43.8499 10.1707 43.7635 9.95311 43.7635H4.69348V28.9347H13.5979L16.2283 31.5651V43.7635H13.7812C13.5637 43.7635 13.355 43.8499 13.2012 44.0037C13.0473 44.1576 12.9609 44.3662 12.9609 44.5838C12.9609 44.8013 13.0473 45.01 13.2012 45.1638C13.355 45.3177 13.5637 45.4041 13.7812 45.4041H16.7205C17.3537 45.4041 17.8689 44.8889 17.8689 44.2556V39.249C18.5625 39.3381 19.2611 39.3829 19.9604 39.383C23.512 39.383 26.8027 38.2455 29.4884 36.3164L34.2962 41.1242C34.1884 41.3746 34.1329 41.6442 34.1331 41.9168C34.1331 42.4529 34.3419 42.9569 34.721 43.3361L46.6232 55.2383C47.1144 55.7295 47.7674 56.0001 48.4622 56.0001C49.1569 56.0001 49.81 55.7295 50.3012 55.2383L52.1853 53.3542C52.4276 53.1133 52.6196 52.8267 52.7504 52.5111C52.8811 52.1954 52.9479 51.857 52.947 51.5153C52.948 51.1736 52.8812 50.8351 52.7505 50.5194C52.6198 50.2037 52.4277 49.9171 52.1854 49.6762ZM16.8983 8.6053V10.5748C11.3092 11.951 7.15168 17.0055 7.15168 23.0133C7.15168 24.5141 7.41243 25.9548 7.88898 27.2942H5.86675C5.44455 25.9065 5.2304 24.4638 5.23128 23.0133C5.23128 15.9414 10.2413 10.0185 16.8983 8.6053ZM14.6139 27.6305C14.5075 27.5235 14.3809 27.4387 14.2415 27.381C14.1021 27.3232 13.9527 27.2937 13.8018 27.2941H9.64631C9.08122 25.9377 8.79095 24.4826 8.79231 23.0132C8.79231 17.9167 12.2245 13.6085 16.8983 12.274V21.1642C16.8983 21.9181 17.5116 22.5314 18.2655 22.5314H22.1889V25.41C22.1889 25.965 22.5202 26.4608 23.0328 26.6732C23.2826 26.7771 23.5576 26.8045 23.8229 26.7517C24.0882 26.6989 24.3318 26.5685 24.5227 26.3769L28.368 22.5315H31.1167C31.1237 22.6914 31.1284 22.8517 31.1284 23.0133C31.1284 29.1714 26.1184 34.1814 19.9604 34.1814C19.2455 34.1814 18.5467 34.1123 17.8689 33.983V31.3613C17.8693 31.2104 17.8398 31.061 17.782 30.9216C17.7243 30.7822 17.6395 30.6556 17.5325 30.5492L14.6139 27.6305ZM17.8689 37.5928V35.65C18.5602 35.7644 19.2597 35.8219 19.9604 35.8221C27.0232 35.8221 32.7691 30.076 32.7691 23.0133C32.7691 22.8518 32.765 22.6914 32.7591 22.5315H34.6804C34.6857 22.6915 34.6895 22.8519 34.6895 23.0133C34.6895 31.1349 28.082 37.7424 19.9604 37.7424C19.2504 37.7424 18.5523 37.6906 17.8689 37.5928ZM30.7792 35.287C31.2939 34.8327 31.7799 34.3468 32.2341 33.8321L36.8102 38.4082L35.3553 39.8631L30.7792 35.287ZM35.8811 42.176C35.8124 42.1072 35.7739 42.0139 35.7739 41.9167C35.7739 41.8195 35.8124 41.7263 35.8811 41.6574L38.6045 38.934C38.6734 38.8653 38.7666 38.8268 38.8638 38.8268C38.961 38.8268 39.0543 38.8653 39.1231 38.934L40.5067 40.3176L37.2647 43.5596L35.8811 42.176Z" fill="#007A65"/>
<path d="M39.3506 24.1042C38.7173 24.1042 38.2022 24.6193 38.2022 25.2526V32.6678C38.2022 33.3011 38.7173 33.8162 39.3506 33.8162H46.7658C47.3991 33.8162 47.9142 33.3011 47.9142 32.6678V25.2526C47.9142 24.6193 47.3991 24.1042 46.7658 24.1042H39.3506ZM46.2736 32.1756H39.8428V25.7448H46.2736V32.1756ZM26.7059 41.5528H21.7833C21.1501 41.5528 20.6349 42.0679 20.6349 42.7012V47.6237C20.6349 48.257 21.1501 48.7722 21.7833 48.7722H26.7059C27.3392 48.7722 27.8543 48.257 27.8543 47.6237V42.7012C27.8543 42.0679 27.3392 41.5528 26.7059 41.5528ZM26.2137 47.1315H22.2755V43.1934H26.2137V47.1315ZM6.89062 8.2017H10.9908C11.624 8.2017 12.1392 7.68655 12.1392 7.05327V2.95312C12.1392 2.31984 11.624 1.80469 10.9908 1.80469H6.89062C6.25734 1.80469 5.74219 2.31984 5.74219 2.95312V7.05327C5.74219 7.68655 6.25734 8.2017 6.89062 8.2017ZM7.38281 3.44531H10.4986V6.56108H7.38281V3.44531ZM7.82578 40.8586H13.096C13.3136 40.8586 13.5222 40.7721 13.6761 40.6183C13.8299 40.4645 13.9163 40.2558 13.9163 40.0382C13.9163 39.8207 13.8299 39.612 13.6761 39.4582C13.5222 39.3044 13.3136 39.2179 13.096 39.2179H7.82578C7.60822 39.2179 7.39957 39.3044 7.24573 39.4582C7.09189 39.612 7.00547 39.8207 7.00547 40.0382C7.00547 40.2558 7.09189 40.4645 7.24573 40.6183C7.39957 40.7721 7.60822 40.8586 7.82578 40.8586ZM7.82578 37.1695H13.096C13.3136 37.1695 13.5222 37.083 13.6761 36.9292C13.8299 36.7754 13.9163 36.5667 13.9163 36.3491C13.9163 36.1316 13.8299 35.9229 13.6761 35.7691C13.5222 35.6153 13.3136 35.5288 13.096 35.5288H7.82578C7.60822 35.5288 7.39957 35.6153 7.24573 35.7691C7.09189 35.9229 7.00547 36.1316 7.00547 36.3491C7.00547 36.5667 7.09189 36.7754 7.24573 36.9292C7.39957 37.083 7.60822 37.1695 7.82578 37.1695ZM7.82578 33.4802H10.8122C11.0297 33.4802 11.2384 33.3938 11.3922 33.24C11.546 33.0861 11.6325 32.8775 11.6325 32.6599C11.6325 32.4424 11.546 32.2337 11.3922 32.0799C11.2384 31.926 11.0297 31.8396 10.8122 31.8396H7.82578C7.60822 31.8396 7.39957 31.926 7.24573 32.0799C7.09189 32.2337 7.00547 32.4424 7.00547 32.6599C7.00547 32.8775 7.09189 33.0861 7.24573 33.24C7.39957 33.3938 7.60822 33.4802 7.82578 33.4802ZM42.4367 20.4776H51.2407C51.8739 20.4776 52.3891 19.9625 52.3891 19.3292V10.2015C52.3895 10.0507 52.36 9.90121 52.3023 9.76183C52.2445 9.62245 52.1597 9.4959 52.0528 9.38952L50.0113 7.34803C49.9049 7.24105 49.7783 7.15622 49.6389 7.09848C49.4995 7.04073 49.3501 7.0112 49.1992 7.01159H42.4366C41.8033 7.01159 41.2882 7.52675 41.2882 8.16003V19.3291C41.2883 19.9624 41.8036 20.4776 42.4367 20.4776ZM42.9289 8.65233H48.9954L50.7485 10.4054V18.8369H42.9289V8.65233Z" fill="#007A65"/>
<path d="M48.7308 15.5731H44.9468C44.7292 15.5731 44.5206 15.6596 44.3667 15.8134C44.2129 15.9672 44.1264 16.1759 44.1264 16.3935C44.1264 16.611 44.2129 16.8197 44.3667 16.9735C44.5206 17.1273 44.7292 17.2138 44.9468 17.2138H48.7308C48.9484 17.2138 49.157 17.1273 49.3109 16.9735C49.4647 16.8197 49.5511 16.611 49.5511 16.3935C49.5511 16.1759 49.4647 15.9672 49.3109 15.8134C49.157 15.6596 48.9484 15.5731 48.7308 15.5731ZM48.7308 12.9243H44.9468C44.7292 12.9243 44.5206 13.0107 44.3667 13.1646C44.2129 13.3184 44.1264 13.527 44.1264 13.7446C44.1264 13.9622 44.2129 14.1708 44.3667 14.3247C44.5206 14.4785 44.7292 14.5649 44.9468 14.5649H48.7308C48.9484 14.5649 49.157 14.4785 49.3109 14.3247C49.4647 14.1708 49.5511 13.9622 49.5511 13.7446C49.5511 13.527 49.4647 13.3184 49.3109 13.1646C49.157 13.0107 48.9484 12.9243 48.7308 12.9243ZM44.9467 11.9161H47.091C47.3085 11.9161 47.5172 11.8297 47.671 11.6758C47.8248 11.522 47.9113 11.3133 47.9113 11.0958C47.9113 10.8782 47.8248 10.6696 47.671 10.5157C47.5172 10.3619 47.3085 10.2755 47.091 10.2755H44.9467C44.7291 10.2755 44.5204 10.3619 44.3666 10.5157C44.2128 10.6696 44.1263 10.8782 44.1263 11.0958C44.1263 11.3133 44.2128 11.522 44.3666 11.6758C44.5204 11.8297 44.7291 11.9161 44.9467 11.9161Z" fill="#007A65"/>
<path d="M21 7L35 7" stroke="#007A65" stroke-width="1.8" stroke-linecap="round"/>
<path d="M21 11L35 11" stroke="#007A65" stroke-width="1.8" stroke-linecap="round"/>
<path d="M21 15L35 15" stroke="#007A65" stroke-width="1.8" stroke-linecap="round"/>
</g>
<defs>
<clipPath id="clip0_1419_2726">
<rect width="56" height="56" fill="white"/>
</clipPath>
</defs>
</svg>
