<svg width="56" height="56" viewBox="0 0 56 56" fill="none" xmlns="http://www.w3.org/2000/svg">
<g clip-path="url(#clip0_1431_3746)">
<path d="M23.0193 50.6912L28 48.1527V31.6138L14.4111 38.5418V54.8452C14.7088 54.8452 15.0078 54.7751 15.2817 54.6349L19.5344 52.4674M14.4108 38.5417V54.8456C14.1124 54.8456 13.8142 54.7754 13.5394 54.6352L1.92161 48.7123C1.24764 48.369 0.820312 47.658 0.820312 46.8801V32.8551C0.820312 32.4628 0.928922 32.0878 1.12317 31.7676L14.4108 38.5417Z" stroke="#007A65" stroke-width="1.64062" stroke-miterlimit="10" stroke-linecap="round" stroke-linejoin="round"/>
<path d="M28 31.6138L14.4111 38.5418L1.12262 31.7672C1.30648 31.4656 1.56712 31.2116 1.88464 31.0423L14.4112 24.31L28 31.6138ZM28 31.6138V48.1527L40.7183 54.6349C40.9922 54.7751 41.2912 54.8452 41.5889 54.8452V38.5418L28 31.6138ZM41.5892 38.5417V54.8456C41.8876 54.8456 42.1858 54.7755 42.4606 54.6352L54.0784 48.7125C54.7524 48.3691 55.1797 47.6581 55.1797 46.8802V32.8551C55.1797 32.4628 55.0711 32.0878 54.8769 31.7677L41.5892 38.5417Z" stroke="#007A65" stroke-width="1.64062" stroke-miterlimit="10" stroke-linecap="round" stroke-linejoin="round"/>
<path d="M34.5735 28.0806L28 31.6138M28 31.6138L41.5889 38.5418L54.8774 31.7672C54.6935 31.4655 54.4329 31.2116 54.1154 31.0423L48.6051 28.0808M28 31.6138V15.1236M28 31.6138L14.4112 24.31L14.4108 9.43753C14.4108 9.04532 14.5194 8.67027 14.7136 8.35024M28 15.1236L14.7136 8.35024M28 15.1236L41.2858 8.35024M14.7136 8.35024C14.8975 8.04803 15.1575 7.7945 15.4749 7.62453L27.091 1.38414C27.0942 1.38283 27.0968 1.38086 27.1 1.37955C27.3783 1.23096 27.6892 1.15361 28.0047 1.15441C28.3203 1.15521 28.6308 1.23414 28.9084 1.38414L40.5244 7.62453C40.8418 7.79461 41.1025 8.04803 41.2858 8.35024M41.2858 8.35024C41.4842 8.67818 41.5889 9.05424 41.5885 9.43753L41.5887 12.434" stroke="#007A65" stroke-width="1.64062" stroke-miterlimit="10" stroke-linecap="round" stroke-linejoin="round"/>
<path d="M47.4683 18.9382C46.0122 17.3455 43.9174 16.3464 41.5892 16.3464C37.191 16.3464 33.6256 19.9118 33.6256 24.31C33.6256 28.7082 37.191 32.2736 41.5892 32.2736C45.9874 32.2736 49.5528 28.7082 49.5528 24.31C49.5528 23.6343 49.4687 22.9783 49.3102 22.3518" stroke="#007A65" stroke-width="1.64062" stroke-miterlimit="10" stroke-linecap="round" stroke-linejoin="round"/>
<path d="M37.8535 24.6454L40.5066 27.1037L45.1834 22.187" stroke="#007A65" stroke-width="1.64062" stroke-miterlimit="10" stroke-linecap="round" stroke-linejoin="round"/>
</g>
<defs>
<clipPath id="clip0_1431_3746">
<rect width="56" height="56" fill="white"/>
</clipPath>
</defs>
</svg>
