<svg width="97" height="100" fill="none" xmlns="http://www.w3.org/2000/svg"><path d="M48.475 50.13C22.245 50.13.903 71.57.903 97.921.903 99.07 1.83 100 2.97 100c1.142 0 2.069-.93 2.069-2.078 0-24.063 19.484-43.637 43.436-43.637 23.951 0 43.436 19.575 43.436 43.637 0 1.147.926 2.078 2.068 2.078s2.069-.93 2.069-2.078c0-26.357-21.342-47.793-47.574-47.793zM48.478 0C35.935 0 25.726 10.253 25.726 22.858s10.21 22.857 22.752 22.857c12.543 0 22.752-10.252 22.752-22.857C71.23 10.253 61.02 0 48.478 0zm0 41.56c-10.263 0-18.615-8.391-18.615-18.702 0-10.31 8.352-18.702 18.615-18.702 10.264 0 18.616 8.391 18.616 18.702 0 10.31-8.352 18.702-18.616 18.702z" fill="#007A65"/></svg>