<svg width="182" height="143" fill="none" xmlns="http://www.w3.org/2000/svg"><path d="M152.553 119.262H26.263c-4.518 0-8.206-3.685-8.206-8.218V26.438c0-4.533 3.669-8.218 8.205-8.218h93.826a1.3 1.3 0 110 2.601H26.262c-3.077 0-5.582 2.503-5.582 5.598v84.605c0 3.075 2.505 5.598 5.582 5.598h126.291c3.077 0 5.601-2.503 5.601-5.598V94.352a1.3 1.3 0 011.302-1.301 1.3 1.3 0 011.302 1.3v16.693c0 4.533-3.689 8.218-8.205 8.218z" fill="#FAFAFA"/><path d="M157.661 103.397H21.528a1.3 1.3 0 110-2.601h136.133a1.3 1.3 0 110 2.601z" fill="#FAFAFA"/><path d="M149.634 111.714c-.73 0-1.401-.591-1.401-1.301 0-.729.493-1.3 1.223-1.3h.178a1.3 1.3 0 011.302 1.3c0 .71-.592 1.301-1.302 1.301zm-10.277 0c-.729 0-1.4-.591-1.4-1.301 0-.729.493-1.3 1.223-1.3h.177a1.3 1.3 0 011.302 1.3c0 .71-.592 1.301-1.302 1.301zm-10.275 0c-.73 0-1.401-.591-1.401-1.301 0-.729.493-1.3 1.223-1.3h.178a1.3 1.3 0 110 2.601z" fill="#F8C244"/><path d="M120.956 133.531l-8.758-3.311c-3.964-1.498-6.528-5.499-6.213-9.736l.257-3.429h-2.623l-.237 3.252c-.395 5.38 2.86 10.465 7.909 12.376l8.757 3.311a2.435 2.435 0 011.559 2.247v2.05H57.228v-2.05c0-.985.632-1.892 1.559-2.247l8.757-3.311c5.05-1.911 8.304-6.996 7.91-12.376l-.237-3.252h-2.624l.257 3.429c.315 4.237-2.249 8.238-6.213 9.736l-8.758 3.311a5.03 5.03 0 00-3.254 4.69v3.351a1.3 1.3 0 001.302 1.3h66.981a1.3 1.3 0 001.302-1.3v-3.351a5.031 5.031 0 00-3.254-4.69zM56.301 92.834a1.3 1.3 0 01-1.302-1.3V81.147a1.3 1.3 0 011.302-1.3 1.3 1.3 0 011.302 1.3v10.367c.02.749-.572 1.32-1.302 1.32z" fill="#FAFAFA"/><path d="M51.824 90.254a1.35 1.35 0 01-1.144-.65 1.334 1.334 0 01.474-1.794l8.994-5.183a1.337 1.337 0 011.794.473c.355.63.139 1.419-.473 1.793l-8.994 5.183a1.35 1.35 0 01-.65.178z" fill="#FAFAFA"/><path d="M60.798 90.252c-.217 0-.453-.06-.65-.177l-8.995-5.184a1.295 1.295 0 01-.473-1.793 1.297 1.297 0 011.795-.473l8.994 5.183c.631.355.848 1.163.473 1.794-.236.413-.69.65-1.144.65zm12.209 2.583a1.3 1.3 0 01-1.301-1.301V81.148c0-.73.591-1.3 1.301-1.3a1.3 1.3 0 011.302 1.3v10.366c.02.75-.572 1.32-1.302 1.32z" fill="#FAFAFA"/><path d="M68.51 90.254a1.35 1.35 0 01-1.144-.65 1.335 1.335 0 01.474-1.794l8.994-5.183a1.337 1.337 0 011.794.473c.356.63.139 1.419-.473 1.794l-8.994 5.183a1.242 1.242 0 01-.65.177z" fill="#FAFAFA"/><path d="M77.504 90.252c-.217 0-.453-.059-.65-.177l-8.994-5.183a1.295 1.295 0 01-.474-1.794 1.297 1.297 0 011.795-.473l8.994 5.184c.631.354.848 1.162.473 1.793-.236.414-.69.65-1.144.65zm12.209 2.583a1.3 1.3 0 01-1.301-1.301V81.148c0-.73.591-1.3 1.301-1.3a1.3 1.3 0 011.302 1.3v10.366c.02.75-.572 1.32-1.302 1.32z" fill="#FAFAFA"/><path d="M85.216 90.254a1.35 1.35 0 01-1.144-.65 1.335 1.335 0 01.474-1.794l8.994-5.183a1.337 1.337 0 011.795.473c.355.63.138 1.419-.474 1.794l-8.994 5.183a1.242 1.242 0 01-.65.177z" fill="#FAFAFA"/><path d="M94.21 90.252c-.216 0-.453-.059-.65-.177l-8.994-5.183a1.295 1.295 0 01-.474-1.794 1.297 1.297 0 011.795-.473l8.994 5.184c.631.354.848 1.162.474 1.793-.257.414-.69.65-1.145.65zm12.209 2.583a1.3 1.3 0 01-1.301-1.301V81.148c0-.73.591-1.3 1.301-1.3.711 0 1.302.59 1.302 1.3v10.366c.02.75-.572 1.32-1.302 1.32z" fill="#FAFAFA"/><path d="M101.922 90.252a1.35 1.35 0 01-1.144-.65 1.334 1.334 0 01.474-1.794l8.994-5.183c.631-.374 1.42-.138 1.795.473.355.63.138 1.42-.474 1.794l-8.994 5.183a1.294 1.294 0 01-.651.177z" fill="#FAFAFA"/><path d="M110.917 90.252c-.217 0-.454-.059-.651-.177l-8.994-5.183a1.296 1.296 0 01-.474-1.794 1.297 1.297 0 011.795-.473l8.994 5.184c.631.354.848 1.162.474 1.793a1.35 1.35 0 01-1.144.65z" fill="#FAFAFA"/><path d="M102.81 73.088H76.005a4.754 4.754 0 01-4.753-4.75v-16.81c0-2.622 2.13-4.75 4.753-4.75h26.805a4.754 4.754 0 014.753 4.75v16.81c0 2.621-2.13 4.75-4.753 4.75zm-26.805-23.71c-1.183 0-2.15.967-2.15 2.15v16.81c0 1.182.967 2.148 2.15 2.148h26.805c1.183 0 2.15-.966 2.15-2.148v-16.81a2.154 2.154 0 00-2.15-2.15H76.005z" fill="#F8C244"/><path d="M100.975 49.38a1.3 1.3 0 01-1.301-1.302v-5.577c0-5.617-4.556-10.17-10.178-10.17-5.621 0-10.177 4.573-10.177 10.17v5.577a1.3 1.3 0 01-1.302 1.301 1.3 1.3 0 01-1.302-1.3V42.5c0-7.055 5.74-12.79 12.801-12.79s12.801 5.735 12.801 12.79v5.577c-.04.71-.612 1.301-1.342 1.301zM89.397 63.51a1.3 1.3 0 01-1.301-1.301v-2.937c0-.729.591-1.3 1.301-1.3a1.3 1.3 0 011.302 1.3v2.917c.02.73-.572 1.32-1.302 1.32z" fill="#F8C244"/><path d="M120.087 77.62a1.3 1.3 0 01-1.301-1.302V13.47c0-3.961 3.234-7.193 7.199-7.193h38.126c3.964 0 7.199 3.232 7.199 7.193v14.9a1.3 1.3 0 01-1.302 1.3c-.71 0-1.302-.591-1.302-1.3v-14.9a4.577 4.577 0 00-4.576-4.572h-38.145a4.577 4.577 0 00-4.576 4.572v62.849c0 .729-.592 1.3-1.322 1.3z" fill="#FAFAFA"/><path d="M164.111 95.652h-38.126c-3.965 0-7.199-3.232-7.199-7.193V74.112a1.3 1.3 0 011.301-1.301 1.3 1.3 0 011.302 1.3V88.46a4.577 4.577 0 004.576 4.572h38.146a4.578 4.578 0 004.576-4.572V69.914c0-.73.591-1.3 1.301-1.3s1.302.59 1.302 1.3v18.565c.02 3.961-3.215 7.173-7.179 7.173zm-14.261-81.06h-9.605a3.435 3.435 0 01-3.254-2.345l-1.361-4a1.3 1.3 0 01.828-1.656c.69-.237 1.42.138 1.657.828l1.361 4a.83.83 0 00.789.552h9.605a.83.83 0 00.789-.552l1.361-4a1.318 1.318 0 011.657-.828c.69.236 1.045.985.828 1.655l-1.361 4.001c-.513 1.4-1.814 2.345-3.294 2.345z" fill="#FAFAFA"/><path d="M130.482 77.6a1.43 1.43 0 01-.631-.158 1.318 1.318 0 01-.671-1.143V48.885c0-14.545 11.854-26.389 26.41-26.389 14.556 0 26.41 11.825 26.41 26.389s-11.854 26.389-26.41 26.389a26.294 26.294 0 01-14.28-4.198l-10.138 6.326a1.268 1.268 0 01-.69.197zm25.088-52.483c-13.116 0-23.786 10.662-23.786 23.768v25.049l8.816-5.538a1.318 1.318 0 011.44.04 23.63 23.63 0 0013.511 4.217c13.116 0 23.786-10.662 23.786-23.768s-10.65-23.768-23.767-23.768z" fill="#FAFAFA"/><path d="M155.215 67.252c-.177 0-.335-.04-.513-.098l-2.939-1.222a1.285 1.285 0 01-.808-1.202V52.255a10.158 10.158 0 01-5.622-9.125c0-5.637 4.596-10.229 10.237-10.229s10.237 4.592 10.237 10.229c0 3.922-2.19 7.41-5.622 9.125v10.307c0 .355-.157.71-.414.966l-3.649 3.37a1.389 1.389 0 01-.907.354zm-1.637-3.41l1.361.572 2.603-2.424V51.407c0-.532.336-1.025.829-1.222 2.919-1.162 4.812-3.922 4.812-7.075 0-4.198-3.412-7.607-7.613-7.607-4.201 0-7.613 3.41-7.613 7.607 0 3.134 1.873 5.913 4.793 7.056.493.197.828.69.828 1.222v12.455z" fill="#F8C244"/><path d="M155.842 41.234a1.676 1.676 0 10-.535-3.31 1.676 1.676 0 00.535 3.31zM47.919 9.568a1.308 1.308 0 010-1.852L55.256.384a1.31 1.31 0 111.854 1.853l-7.337 7.331c-.513.513-1.361.513-1.854 0z" fill="#F8C244"/><path d="M47.919.384a1.31 1.31 0 011.854 0l7.337 7.332a1.31 1.31 0 11-1.854 1.853l-7.337-7.332a1.308 1.308 0 010-1.853zm54.318 12.181h-8.303c-.71 0-1.341.552-1.361 1.261-.02.75.572 1.34 1.302 1.34h8.362a1.3 1.3 0 001.302-1.3c.02-.73-.572-1.3-1.302-1.3zm5.937 0h-.612a1.3 1.3 0 100 2.6h.671c.73 0 1.341-.61 1.302-1.34-.02-.709-.631-1.26-1.361-1.26zM34.19 126.614h8.305c.71 0 1.34-.552 1.36-1.262a1.297 1.297 0 00-1.301-1.34H34.19a1.3 1.3 0 100 2.602zm-5.936 0h.612a1.3 1.3 0 100-2.601h-.67c-.73 0-1.342.611-1.303 1.34.02.71.632 1.261 1.361 1.261zm149.88-48.896v8.297c0 .71.553 1.34 1.263 1.36a1.297 1.297 0 001.341-1.3v-8.357a1.3 1.3 0 00-1.302-1.3c-.71 0-1.302.59-1.302 1.3zm0-5.932v.611c0 .73.592 1.3 1.302 1.3a1.3 1.3 0 001.302-1.3v-.67c0-.73-.612-1.34-1.341-1.3-.71.02-1.263.65-1.263 1.36zM10.05 52.946v8.297c0 .71.552 1.34 1.262 1.36.75.02 1.34-.572 1.34-1.301v-8.356a1.3 1.3 0 00-1.3-1.3c-.711-.02-1.303.57-1.303 1.3zm0-5.932v.611c0 .73.591 1.3 1.301 1.3a1.3 1.3 0 001.302-1.3v-.67c0-.73-.612-1.34-1.341-1.3-.71 0-1.263.63-1.263 1.36zM.385 36.43a1.308 1.308 0 010-1.852l7.337-7.332A1.31 1.31 0 119.576 29.1l-7.337 7.33a1.31 1.31 0 01-1.854 0z" fill="#F8C244"/><path d="M.385 27.246a1.31 1.31 0 011.854 0l7.337 7.332a1.31 1.31 0 11-1.854 1.853L.385 29.098a1.308 1.308 0 010-1.853zM160.422 133.59a1.308 1.308 0 010-1.853l7.337-7.331a1.31 1.31 0 011.854 0c.513.512.513 1.34 0 1.852l-7.337 7.332a1.31 1.31 0 01-1.854 0z" fill="#F8C244"/><path d="M160.422 124.406a1.31 1.31 0 011.854 0l7.337 7.331a1.31 1.31 0 01-1.854 1.853l-7.337-7.332a1.307 1.307 0 010-1.852z" fill="#F8C244"/></svg>