<svg width="100" height="100" fill="none" xmlns="http://www.w3.org/2000/svg"><g clip-path="url(#clip0)" fill="#007A65"><path d="M38.333 33.334H35v3.333h3.333v-3.334zm0 6.666H35v3.334h3.333V40zm0 6.667H35V50h3.333v-3.333zm0 6.667H35v3.333h3.333v-3.333zm6.667-20h-3.333v3.333H45v-3.334zM45 40h-3.333v3.334H45V40zm0 6.667h-3.333V50H45v-3.333zm0 6.667h-3.333v3.333H45v-3.333zm6.667-20h-3.334v3.333h3.334v-3.334zm0 6.666h-3.334v3.334h3.334V40zm0 6.667h-3.334V50h3.334v-3.333zm0 6.667h-3.334v3.333h3.334v-3.333zm6.666-20H55v3.333h3.333v-3.334zM45 26.667h-3.333V30H45v-3.333zm6.667 0h-3.334V30h3.334v-3.333zm6.666 0H55V30h3.333v-3.333zm0 13.333H55v3.334h3.333V40zm0 6.667H55V50h3.333v-3.333zm0 6.667H55v3.333h3.333v-3.333zm6.667-20h-3.334v3.333H65v-3.334zM65 40h-3.334v3.334H65V40zm0 6.667h-3.334V50H65v-3.333zm0 6.667h-3.334v3.333H65v-3.333z"/><path d="M98.335 25H73.333V1.667A1.666 1.666 0 0071.668 0H28.333c-.92 0-1.666.745-1.666 1.665V25h-25C.747 25 0 25.745 0 26.665v60.002c0 .92.745 1.666 1.665 1.667H5.15A10 10 0 005 90v8.334c0 .92.745 1.666 1.665 1.666h86.668A1.665 1.665 0 0095 98.336V90a9.951 9.951 0 00-.15-1.666h3.483c.92 0 1.666-.745 1.667-1.665V26.667A1.665 1.665 0 0098.335 25zM71.667 71.667a3.333 3.333 0 11-6.667 0 3.333 3.333 0 016.667 0zm-40-3.333a3.333 3.333 0 110 6.666 3.333 3.333 0 010-6.666zm-10 28.333H8.333V90a6.667 6.667 0 1113.334 0v6.667zm-10-20a3.333 3.333 0 116.666 0 3.333 3.333 0 01-6.666 0zm10.252 6.13a10.049 10.049 0 00-2.096-1.552 6.667 6.667 0 10-9.646 0A10.064 10.064 0 006.354 85h-3.02V28.334h23.334v38.97a6.576 6.576 0 00.177 8.941 10.028 10.028 0 00-4.925 6.552zm16.414 13.87H25V85a6.667 6.667 0 0113.333 0v11.667zm20 0H41.667V85a8.333 8.333 0 0116.666 0v11.667zM45 68.334a5 5 0 1110 0 5 5 0 01-10 0zM60.15 79.27a11.739 11.739 0 00-4.782-4.617 8.334 8.334 0 10-10.736 0 11.739 11.739 0 00-4.782 4.617 10.067 10.067 0 00-3.36-3.025A6.619 6.619 0 0030 65.237V3.334h40v61.903A6.59 6.59 0 0068.333 65a6.649 6.649 0 00-4.822 11.245 10.067 10.067 0 00-3.36 3.025zM75 90v6.667H61.667V85A6.667 6.667 0 0175 85v5zm16.667 6.667H78.333V90a6.667 6.667 0 0113.334 0v6.667zm-10-20a3.333 3.333 0 116.666 0 3.333 3.333 0 01-6.666 0zm15 8.333h-3.02a10.065 10.065 0 00-3.825-3.755 6.667 6.667 0 10-9.645 0c-.763.424-1.468.946-2.096 1.552a10.027 10.027 0 00-4.925-6.552 6.576 6.576 0 00.177-8.942v-38.97h23.334V85z"/><path d="M81.667 38.334h-3.334V65h3.334V38.335zm10 0h-3.334V65h3.334V38.335zm-80.001 0H8.333V65h3.333V38.335zm10.001 0h-3.334V65h3.334V38.335zM60.002 6.667H40c-.92 0-1.666.745-1.666 1.665v13.335a1.665 1.665 0 001.664 1.667H60c.92 0 1.666-.745 1.667-1.665V8.334c0-.92-.745-1.666-1.665-1.667zm-1.669 13.334H41.668V10h16.666v10z"/></g><defs><clipPath id="clip0"><path fill="#fff" d="M0 0h100v100H0z"/></clipPath></defs></svg>