<svg id="_1_Онлайн-тест" data-name="1 Онлайн-тест" xmlns="http://www.w3.org/2000/svg" viewBox="0 0 145 145"><defs><style>.cls-1{fill:none;stroke-linecap:round;stroke:#007b64;stroke-miterlimit:10;stroke-width:2px}.cls-2{fill:#fff}.cls-4{fill:#ffc463}.cls-5{fill:#c4c4c4}.cls-6{fill:#007b64}</style></defs><path class="cls-1" d="M5.43 139.03l135 .05"/><path class="cls-2" d="M59.35 126.52h73.06a1 1 0 011 1 11.44 11.44 0 01-11.39 11.49H23.74a11.44 11.44 0 01-11.37-11.5 1 1 0 011-1h38.48"/><rect class="cls-2" x="23" y="47" width="100" height="79" rx="6.97"/><path d="M63.36 126.52s7.52-11.61 26.25-12.12c19.16-.53 12-13.12 32.73-16.24l1 2.09v15.85s1 9.4-6.21 10.44-53.77-.02-53.77-.02z" fill="#ebebeb"/><path class="cls-1" d="M22.76 119.34v-65.1a7.15 7.15 0 017.1-7.16h80.06"/><path class="cls-1" d="M106.46 47.12H116a7.15 7.15 0 017.09 7.17v65.09a7.13 7.13 0 01-1.47 4.35 7.06 7.06 0 01-5.62 2.81h-7.5"/><path class="cls-1" d="M59.35 126.52h73.06a1 1 0 011 1 11.44 11.44 0 01-11.39 11.49H23.74a11.44 11.44 0 01-11.37-11.5 1 1 0 011-1h38.48M31.27 57.54l82.76.03"/><rect class="cls-4" x="90.98" y="51.64" width="20.69" height="1.88" rx=".94"/><rect class="cls-5" x="32.93" y="51.25" width="2.59" height="2.61" rx="1.29"/><rect class="cls-5" x="36.81" y="51.25" width="2.59" height="2.61" rx="1.29"/><rect class="cls-5" x="40.69" y="51.25" width="2.59" height="2.61" rx="1.29"/><rect class="cls-4" x="32.28" y="69.05" width="76.55" height="14.63" rx="3.03"/><rect class="cls-6" x="32.28" y="89.31" width="7.98" height="8.06" rx="1.87"/><rect class="cls-6" x="32.28" y="101.55" width="7.98" height="8.06" rx="1.87"/><rect class="cls-6" x="59.55" y="101.55" width="7.98" height="8.06" rx="1.87"/><rect class="cls-6" x="59.55" y="89.31" width="7.98" height="8.06" rx="1.87"/><path class="cls-4" d="M86.08 96.53l1.22 7.56a.78.78 0 001.24.51l5.49-4a.79.79 0 00-.09-1.33l-6.71-3.58a.79.79 0 00-1.15.84z"/><path stroke="#ebebeb" stroke-linejoin="round" stroke-width="1.64" fill="none" stroke-linecap="round" d="M67.62 90.41l-4.07 5.28-2.32-2.35"/></svg>