<svg xmlns="http://www.w3.org/2000/svg" viewBox="0 0 145 145"><defs><style>.cls-1,.cls-5{fill:none;stroke-linecap:round;stroke-width:2px;stroke:#007b64}.cls-1{stroke-linejoin:round}.cls-2{fill:#fff}.cls-3{fill:#ebebeb}.cls-4{fill:#ffc463}.cls-5{stroke-miterlimit:10}</style></defs><g id="_10_Индивидуальные_предприниматели" data-name="10 Индивидуальные предприниматели"><path class="cls-1" d="M125.12 139.55H9.69m130.97 0h-8.19"/><path class="cls-2" d="M97.73 139.55h-62a7.2 7.2 0 01-7.2-7.21V123c0-17.39 7.72-31.53 24.93-31.81a2.07 2.07 0 011 .23l10.29 5.14a4.38 4.38 0 003.93 0L79 91.42a2.07 2.07 0 011-.23c17.2.28 24.93 14.42 24.93 31.81v9.34a7.21 7.21 0 01-7.2 7.21z"/><path class="cls-3" d="M102.86 108.68a19.11 19.11 0 01-5.55 11.58c-3.12 3.12-2.64 15.84-4.4 18.48l1.86.81 5.13-.42 2.64-1.76 1.76-2.64.92-7.43-.49-9.15-.7-4.92z"/><path class="cls-4" d="M64.35 98.87h5.39a.74.74 0 01.72.59l3.48 17.28a.71.71 0 01-.19.65l-6.17 6.44a.72.72 0 01-1.06 0l-6.17-6.44a.71.71 0 01-.19-.65l3.47-17.28a.74.74 0 01.72-.59z"/><path class="cls-4" d="M70.39 99.54h-6.68a.48.48 0 01-.48-.4l-.85-5a.49.49 0 01.69-.52l3.77 1.79a.45.45 0 00.42 0L71 93.64a.49.49 0 01.69.52l-.85 5a.48.48 0 01-.45.38z"/><path class="cls-1" d="M28.66 119.81c.06-1 .14-2 .26-3a42.4 42.4 0 011-5.56c2.85-11.46 10.31-19.64 23.14-20a2.28 2.28 0 011.17.28 28.86 28.86 0 0013.16 3.27 22.11 22.11 0 0011.84-3.17 2.32 2.32 0 011.33-.38c16.82.57 24.38 14.59 24.38 31.8v7.82a8.73 8.73 0 01-8.73 8.73H37.29a8.73 8.73 0 01-8.72-8.73v-3"/><path class="cls-5" d="M43.37 124.28v15.27m47.09-15.27v15.27"/><path class="cls-2" d="M84.92 49.57a23.15 23.15 0 011.66 2.27A22.77 22.77 0 0188 54.3a23.5 23.5 0 11-14-12.16 24.81 24.81 0 013.45 1.43c.53.27 1 .56 1.55.87"/><path class="cls-3" d="M89.9 57.27s-1.53 0-3.15 4.92c-.88 2.64-6.16 11.44-10.56 13.2-6.62 2.61-7.54 11.41-7.92 12.32-.68 1.62 4.4 0 4.4 0l3.22-1.46L80 84l4.92-4.48 2.52-3.71 2-4 .88-7z"/><path class="cls-1" d="M84.92 49.57a23.15 23.15 0 011.66 2.27A22.77 22.77 0 0188 54.3a23.5 23.5 0 11-14-12.16 24.81 24.81 0 013.45 1.43c.53.27 1 .56 1.55.87"/><path d="M104.87 105.49a3.6 3.6 0 01-3.57 3.62h-9.93a3.6 3.6 0 01-3.57-3.62V101a3.59 3.59 0 013.57-3.61h9.93a3.59 3.59 0 013.57 3.61z" stroke="#ffc463" stroke-linejoin="round" fill="none" stroke-linecap="round" stroke-width="2"/><path class="cls-2" d="M121.72 133.36a6.15 6.15 0 01-6.11 6.19H77.05a6.14 6.14 0 01-6.1-6.19v-24a6.14 6.14 0 016.1-6.19h38.56a6.15 6.15 0 016.11 6.19z"/><path class="cls-3" d="M71.45 121.87s3 7.68 6.84 9.13c4.57 1.71 12.35 5.69 12.74 8.55H76.44l-3.2-1.32-1.9-2.67-.46-1.68v-13.15z"/><path class="cls-5" d="M121.72 119.41v14a6.15 6.15 0 01-6.11 6.19h-13.74"/><path class="cls-1" d="M102.45 139.55h-25.4a6.14 6.14 0 01-6.1-6.19v-24a6.14 6.14 0 016.1-6.19h38.56a6.15 6.15 0 016.11 6.19v5.81"/><path class="cls-2" d="M115.61 103.22H77.06a6.15 6.15 0 00-6.06 6.19V119a6.15 6.15 0 006.11 6.19h38.55a6.15 6.15 0 006.11-6.19v-9.59a6.15 6.15 0 00-6.16-6.19z"/><path class="cls-1" d="M103 125.19h12.66a6.12 6.12 0 005.88-4.51 6.2 6.2 0 00.23-1.68m-.05-3.65v-5.94a6.15 6.15 0 00-6.11-6.19H77.06a6.15 6.15 0 00-6.06 6.19V119a6.15 6.15 0 006.11 6.19h20.54"/><path class="cls-4" d="M84.54 126.81a2.4 2.4 0 01-2.39 2.42H82a2.4 2.4 0 01-2.39-2.42v-3a2.4 2.4 0 012.39-2.42h.16a2.4 2.4 0 012.39 2.42zm28.53 0a2.4 2.4 0 01-2.4 2.42h-.15a2.4 2.4 0 01-2.39-2.42v-3a2.4 2.4 0 012.39-2.42h.16a2.4 2.4 0 012.39 2.42z"/></g></svg>