<svg xmlns="http://www.w3.org/2000/svg" viewBox="0 0 145 145"><defs><clipPath id="clip-path"><circle cx="71.55" cy="89.16" r="36.41" fill="none"/></clipPath><style>.cls-2,.cls-7,.cls-8{fill:none}.cls-2,.cls-7,.cls-8,.cls-9{stroke:#007b64}.cls-2,.cls-7{stroke-linecap:round}.cls-2{stroke-linejoin:round}.cls-2,.cls-7,.cls-8,.cls-9{stroke-width:2px}.cls-9{fill:#fff}.cls-5{fill:#ebebeb}.cls-6{fill:#ffc463}.cls-7,.cls-8,.cls-9{stroke-miterlimit:10}</style></defs><g id="_11_Организации" data-name="11 Организации"><path class="cls-2" d="M126.61 137.18H28.18m-4.93 0h-12m130.9 0h-8.19"/><g clip-path="url(#clip-path)"><circle cx="71.55" cy="89.16" r="36.41" fill="#fff"/><path class="cls-5" d="M92.65 108.38a11.12 11.12 0 01-3.25 6.76c-1.82 1.82-1.54 9.26-2.57 10.8l1.09.47 3.41-.47 1-.51 1-2.06.13-4.11.23-5.35-.36-2.91z"/><path class="cls-6" d="M70.15 102.64h3.15a.44.44 0 01.42.35l2 10.09a.41.41 0 01-.11.38L72 117.23a.42.42 0 01-.62 0l-3.6-3.77a.41.41 0 01-.11-.38l2-10.09a.44.44 0 01.48-.35z"/><path class="cls-6" d="M73.68 103h-3.91a.29.29 0 01-.28-.24L69 99.89a.28.28 0 01.4-.3l2.2 1a.28.28 0 00.25 0l2.2-1a.28.28 0 01.4.3L74 102.8a.3.3 0 01-.32.2z"/><path class="cls-2" d="M49.29 117.42c0-.6.09-3.73.16-4.31a25.44 25.44 0 01.58-3.24c1.67-6.7 6-11.48 13.52-11.71a1.29 1.29 0 01.69.17 16.88 16.88 0 007.68 1.9 13 13 0 006.92-1.84 1.35 1.35 0 01.78-.23c9.82.34 14.24 8.53 14.24 18.58v4.57a5.1 5.1 0 01-5.1 5.1H54.34a5.1 5.1 0 01-5.1-5.1v-1.75"/><path class="cls-7" d="M57.89 117.49v8.92m27.51-8.92v8.92"/><path class="cls-5" d="M85.08 77.28s-.9 0-1.85 2.87c-.51 1.54-3.6 6.68-6.17 7.71-3.86 1.55-4.4 6.67-4.62 7.2-.4 1 2.57 0 2.57 0l1.88-.85 2.4-1.31 2.87-2.61 1.47-2.18 1.14-2.31.52-4.11z"/><path class="cls-2" d="M82.17 72.77a13.56 13.56 0 011 1.33 12.67 12.67 0 01.81 1.44 13.7 13.7 0 11-8.15-7.11 13.85 13.85 0 012 .84c.31.16.61.33.91.51"/></g><circle class="cls-8" cx="71.55" cy="89.16" r="36.41"/><circle class="cls-9" cx="19.45" cy="88.99" r="5.34"/><circle class="cls-9" cx="112.41" cy="124.25" r="4.38"/><circle class="cls-9" cx="128.71" cy="89.16" r="10.59"/><circle class="cls-9" cx="35.32" cy="47.67" r="8.35"/><circle class="cls-9" cx="32.42" cy="123.04" r="5.89"/><path stroke-width="2.13" stroke-miterlimit="10" stroke-linecap="round" stroke="#007b64" fill="none" d="M40.84 53.92l3.9 4.23"/><path d="M109.72 44.52a8.39 8.39 0 11-2.49-8.65 8.19 8.19 0 011.61 1.93" stroke-miterlimit="10" fill="#fff" stroke-width="2" stroke-linecap="round" stroke="#007b64"/><path class="cls-8" d="M96.77 48.91l-6.84 9.14M24.52 89.01h10.64m73.44 32.03l-9.58-8.61"/><path class="cls-7" d="M37.39 119.88l3.09-2.13m77.67-27.86h-5.93"/></g></svg>