<svg xmlns="http://www.w3.org/2000/svg" viewBox="0 0 145 145"><defs><style>.cls-1,.cls-2{fill:none;stroke:#007b64;stroke-linecap:round;stroke-width:2px}.cls-1{stroke-linejoin:round}.cls-2{stroke-miterlimit:10}.cls-4{fill:#fff}.cls-5{fill:#ebebeb}</style></defs><g id="_12_Физические_лица" data-name="12 Физические лица"><path class="cls-1" d="M139.56 139.97H24.37m-5.77 0H4.56m88.03.03H32.82a8.85 8.85 0 01-8.82-8.88v-3.05m69.43-29.89a24.72 24.72 0 013.32 4.58M24.06 120c.06-1 .14-2.06.26-3.07a44.91 44.91 0 011-5.63c2.9-11.63 10.47-19.93 23.48-20.33a2.46 2.46 0 011.19.29 29.34 29.34 0 0013.35 3.31 23 23 0 0011.33-2.8"/><path class="cls-2" d="M38.98 124.48v15.49"/><path d="M81.13 48.69A22.18 22.18 0 0182.81 51a21.87 21.87 0 011.4 2.5 23.87 23.87 0 11-10.64-10.89c.54.27 1.06.57 1.57.88" fill="#ffc463"/><path class="cls-4" d="M59.17 124.25c0-.81.12-1.62.21-2.41a36 36 0 01.79-4.42c2.27-9.13 8.22-15.65 18.43-16a1.92 1.92 0 01.94.23A23.06 23.06 0 0090 104.29a17.65 17.65 0 009.43-2.52 1.88 1.88 0 011.06-.31c13.39.46 19.41 11.63 19.41 25.33V133a7 7 0 01-7 6.95H66.05A7 7 0 0159.1 133v-2.39"/><path class="cls-5" d="M118.27 115.39s-5.17 2.33-4.43 9.22c.38 3.49-2.1 12.62-3.5 14.72l1.48.64 4-.83 1.79-.89 1.78-1.79.8-6.24-.4-7.29-.59-3.93z"/><path class="cls-1" d="M59.17 124.25c0-.81.12-1.62.21-2.41a36 36 0 01.79-4.42c2.27-9.13 8.22-15.65 18.43-16a1.92 1.92 0 01.94.23A23.06 23.06 0 0090 104.29a17.65 17.65 0 009.43-2.52 1.88 1.88 0 011.06-.31c13.39.46 19.41 11.63 19.41 25.33V133a7 7 0 01-7 6.95H66.05A7 7 0 0159.1 133v-2.39"/><path class="cls-2" d="M108.39 127.81v12.16"/><path fill="#ff0" stroke-miterlimit="10" stroke="#007b64" stroke-linecap="round" stroke-width="2" d="M70.01 127.81v12.16"/><path class="cls-4" d="M104 68.31a16.63 16.63 0 011.32 1.8 20.9 20.9 0 011.1 2 18.73 18.73 0 11-11.1-9.68 18.38 18.38 0 012.68 1.1c.42.22.84.45 1.24.69"/><path class="cls-5" d="M108 74.44a12.57 12.57 0 00-3.77 4.89c-.9 1.79-3.57 8-8 10.72C91.28 93 91 98 90.72 98.68c-.55 1.29 3.5 0 3.5 0l2.57-1.16 3.27-1.77 3.94-3.57 2-3 1.56-3.15.7-5.61z"/><path class="cls-1" d="M104 68.31a16.63 16.63 0 011.32 1.8 20.9 20.9 0 011.1 2 18.73 18.73 0 11-11.1-9.68 18.38 18.38 0 012.68 1.1c.42.22.84.45 1.24.69"/></g></svg>