<svg xmlns="http://www.w3.org/2000/svg" viewBox="0 0 145 145"><defs><style>.cls-1,.cls-2{fill:none;}.cls-1,.cls-2,.cls-6{stroke:#007b64;stroke-linecap:round;stroke-width:2px;}.cls-1{stroke-linejoin:round;}.cls-2,.cls-6{stroke-miterlimit:10;}.cls-3{fill:#ffc463;}.cls-4{fill:#fff;}.cls-5{fill:#ebebeb;}.cls-6{fill:#ff0;}</style></defs><title>12 Физические лица</title><g id="_12_Физические_лица" data-name="12 Физические лица"><line class="cls-1" x1="139.56" y1="139.97" x2="24.37" y2="139.97"/><line class="cls-1" x1="18.6" y1="139.97" x2="4.56" y2="139.97"/><path class="cls-1" d="M92.59,140H32.82A8.85,8.85,0,0,1,24,131.12h0v-3.05"/><path class="cls-1" d="M93.43,98.18a24.72,24.72,0,0,1,3.32,4.58"/><path class="cls-1" d="M24.06,120c.06-1,.14-2.06.26-3.07a44.91,44.91,0,0,1,1-5.63c2.9-11.63,10.47-19.93,23.48-20.33a2.46,2.46,0,0,1,1.19.29,29.34,29.34,0,0,0,13.35,3.31,23,23,0,0,0,11.33-2.8"/><line class="cls-2" x1="38.98" y1="124.48" x2="38.98" y2="139.97"/><path class="cls-3" d="M81.13,48.69A22.18,22.18,0,0,1,82.81,51a21.87,21.87,0,0,1,1.4,2.5A23.87,23.87,0,1,1,73.57,42.61c.54.27,1.06.57,1.57.88"/><path class="cls-4" d="M59.17,124.25c0-.81.12-1.62.21-2.41a36,36,0,0,1,.79-4.42c2.27-9.13,8.22-15.65,18.43-16a1.92,1.92,0,0,1,.94.23A23.06,23.06,0,0,0,90,104.29a17.65,17.65,0,0,0,9.43-2.52,1.88,1.88,0,0,1,1.06-.31c13.39.46,19.41,11.63,19.41,25.33V133a7,7,0,0,1-7,6.95H66.05A7,7,0,0,1,59.1,133h0v-2.39"/><path class="cls-5" d="M118.27,115.39s-5.17,2.33-4.43,9.22c.38,3.49-2.1,12.62-3.5,14.72l1.48.64,4-.83,1.79-.89,1.78-1.79.8-6.24-.4-7.29L119.2,119Z"/><path class="cls-1" d="M59.17,124.25c0-.81.12-1.62.21-2.41a36,36,0,0,1,.79-4.42c2.27-9.13,8.22-15.65,18.43-16a1.92,1.92,0,0,1,.94.23A23.06,23.06,0,0,0,90,104.29a17.65,17.65,0,0,0,9.43-2.52,1.88,1.88,0,0,1,1.06-.31c13.39.46,19.41,11.63,19.41,25.33V133a7,7,0,0,1-7,6.95H66.05A7,7,0,0,1,59.1,133h0v-2.39"/><line class="cls-2" x1="108.39" y1="127.81" x2="108.39" y2="139.97"/><line class="cls-6" x1="70.01" y1="127.81" x2="70.01" y2="139.97"/><path class="cls-4" d="M104,68.31a16.63,16.63,0,0,1,1.32,1.8,20.9,20.9,0,0,1,1.1,2,18.73,18.73,0,1,1-11.1-9.68A18.38,18.38,0,0,1,98,63.53c.42.22.84.45,1.24.69"/><path class="cls-5" d="M108,74.44a12.57,12.57,0,0,0-3.77,4.89c-.9,1.79-3.57,8-8,10.72C91.28,93,91,98,90.72,98.68c-.55,1.29,3.5,0,3.5,0l2.57-1.16,3.27-1.77L104,92.18l2-3,1.56-3.15.7-5.61Z"/><path class="cls-1" d="M104,68.31a16.63,16.63,0,0,1,1.32,1.8,20.9,20.9,0,0,1,1.1,2,18.73,18.73,0,1,1-11.1-9.68A18.38,18.38,0,0,1,98,63.53c.42.22.84.45,1.24.69"/></g></svg>