<svg width="145" height="145" fill="none" xmlns="http://www.w3.org/2000/svg"><path d="M5 121.14l135 .15" stroke="#007B64" stroke-width="2" stroke-miterlimit="10" stroke-linecap="round"/><path d="M114.78 29h-85a8 8 0 00-8 8v64a8 8 0 008 8h85a8 8 0 008-8V37a8 8 0 00-8-8z" fill="#fff"/><path d="M62.84 108.69s7.59-11.59 26.5-12.1c19.35-.51 12.16-13.09 33.05-16.2l1 2.09v15.83s1 9.4-6.28 10.44c-7.28 1.04-54.27-.06-54.27-.06z" fill="#EBEBEB"/><path d="M21.85 101.49l.07-65a7.17 7.17 0 017.16-7.15l80.83.08" stroke="#007B64" stroke-width="2" stroke-miterlimit="10" stroke-linecap="round"/><path d="M106.4 29.37h9.67a7.17 7.17 0 017.15 7.16l-.06 65.06a7.183 7.183 0 01-7.17 7.15h-7.57" stroke="#007B64" stroke-width="2" stroke-miterlimit="10" stroke-linecap="round"/><path d="M58.78 108.69l73.76.08a.997.997 0 011 1 11.492 11.492 0 01-11.5 11.48l-99.21-.11a11.484 11.484 0 01-11.48-11.5 1.002 1.002 0 011.05-1h38.84" fill="#fff"/><path d="M58.78 108.69l73.76.08a.997.997 0 011 1 11.492 11.492 0 01-11.5 11.48l-99.21-.11a11.484 11.484 0 01-11.48-11.5v0a1.002 1.002 0 011.05-1h38.84M30.48 39.73l83.55.09" stroke="#007B64" stroke-width="2" stroke-miterlimit="10" stroke-linecap="round"/><path d="M110.77 33.79H91.76a.94.94 0 100 1.88h19.01a.94.94 0 000-1.88z" fill="#FFC463"/><path d="M34.776 34.758a1.305 1.305 0 10-2.61-.002 1.305 1.305 0 002.61.002zm3.91.005a1.305 1.305 0 10-2.61-.003 1.305 1.305 0 002.61.003zm3.92.004a1.305 1.305 0 10-2.61-.003 1.305 1.305 0 002.61.003z" fill="#C4C4C4"/><path d="M54.78 63.76a20.09 20.09 0 0126-8.89 20.071 20.071 0 11-17.867 35.913A20.07 20.07 0 0152.58 70.87" stroke="#FFC463" stroke-width="2" stroke-linecap="round" stroke-linejoin="round"/><path d="M83.29 73.17c0 .74 0 1.47-.07 2.19 0 .42-.06.83-.09 1.24-.89 9.45-5.31 16.63-10.62 16.62-6 0-10.77-9-10.76-20.07.01-11.07 4.83-20.06 10.78-20.06 3.79 0 7.11 3.65 9 9.15.27.79.52 1.61.73 2.47a35.23 35.23 0 011.03 8.46v0zM72.53 53.09l-.02 40.12M55.87 61.83l33.15.02m-33.16 22.5l33.14.02M52.86 73.09l39.15.02" stroke="#FFC463" stroke-width="2" stroke-miterlimit="10"/></svg>