<svg width="145" height="145" viewBox="0 0 145 145" fill="none" xmlns="http://www.w3.org/2000/svg">
<path d="M5 121.14L140 121.29" stroke="#007B64" stroke-width="2" stroke-miterlimit="10" stroke-linecap="round"/>
<path d="M114.78 29H29.78C25.3618 29 21.78 32.5817 21.78 37V101C21.78 105.418 25.3618 109 29.78 109H114.78C119.198 109 122.78 105.418 122.78 101V37C122.78 32.5817 119.198 29 114.78 29Z" fill="white"/>
<path d="M62.8401 108.69C62.8401 108.69 70.4301 97.1 89.3401 96.59C108.69 96.08 101.5 83.5 122.39 80.39L123.39 82.48V98.31C123.39 98.31 124.39 107.71 117.11 108.75C109.83 109.79 62.8401 108.69 62.8401 108.69Z" fill="#EBEBEB"/>
<path d="M21.8501 101.49L21.9201 36.49C21.9254 34.5936 22.6818 32.7765 24.0237 31.4365C25.3656 30.0964 27.1837 29.3426 29.0801 29.34L109.91 29.42" stroke="#007B64" stroke-width="2" stroke-miterlimit="10" stroke-linecap="round"/>
<path d="M106.4 29.37H116.07C117.966 29.3753 119.783 30.1317 121.123 31.4736C122.463 32.8155 123.217 34.6336 123.22 36.53L123.16 101.59C123.152 103.487 122.393 105.304 121.05 106.644C119.706 107.984 117.887 108.737 115.99 108.74H108.42" stroke="#007B64" stroke-width="2" stroke-miterlimit="10" stroke-linecap="round"/>
<path d="M58.7801 108.69L132.54 108.77C132.805 108.77 133.06 108.875 133.247 109.063C133.435 109.25 133.54 109.505 133.54 109.77C133.539 111.279 133.24 112.773 132.662 114.166C132.083 115.56 131.236 116.826 130.168 117.892C129.1 118.958 127.832 119.803 126.438 120.379C125.043 120.955 123.549 121.251 122.04 121.25L22.8301 121.14C21.3209 121.14 19.8264 120.842 18.4323 120.264C17.0382 119.686 15.7717 118.839 14.7055 117.771C13.6392 116.702 12.794 115.435 12.2182 114.039C11.6425 112.644 11.3475 111.149 11.3501 109.64V109.64C11.3499 109.504 11.3774 109.37 11.4307 109.245C11.4841 109.121 11.5622 109.008 11.6605 108.915C11.7587 108.821 11.8749 108.749 12.0021 108.701C12.1292 108.654 12.2646 108.633 12.4001 108.64H51.2401" fill="white"/>
<path d="M58.7801 108.69L132.54 108.77C132.805 108.77 133.06 108.875 133.247 109.063C133.435 109.25 133.54 109.505 133.54 109.77C133.539 111.279 133.24 112.773 132.662 114.166C132.083 115.56 131.236 116.826 130.168 117.892C129.1 118.958 127.832 119.803 126.438 120.379C125.043 120.955 123.549 121.251 122.04 121.25L22.8301 121.14C21.3209 121.14 19.8264 120.842 18.4323 120.264C17.0382 119.686 15.7717 118.839 14.7055 117.771C13.6392 116.702 12.794 115.435 12.2182 114.039C11.6425 112.644 11.3475 111.149 11.3501 109.64V109.64C11.3499 109.504 11.3774 109.37 11.4307 109.245C11.4841 109.121 11.5622 109.008 11.6605 108.915C11.7587 108.821 11.8749 108.749 12.0021 108.701C12.1292 108.654 12.2646 108.633 12.4001 108.64H51.2401" stroke="#007B64" stroke-width="2" stroke-miterlimit="10" stroke-linecap="round"/>
<path d="M30.48 39.73L114.03 39.82" stroke="#007B64" stroke-width="2" stroke-miterlimit="10" stroke-linecap="round"/>
<path d="M110.77 33.79H91.7601C91.2409 33.79 90.8201 34.2109 90.8201 34.73C90.8201 35.2492 91.2409 35.67 91.7601 35.67H110.77C111.289 35.67 111.71 35.2492 111.71 34.73C111.71 34.2109 111.289 33.79 110.77 33.79Z" fill="#FFC463"/>
<path d="M34.7759 34.7585C34.7766 34.0378 34.193 33.4529 33.4722 33.4522C32.7515 33.4514 32.1666 34.0351 32.1659 34.7558C32.1651 35.4765 32.7488 36.0614 33.4695 36.0622C34.1902 36.0629 34.7751 35.4793 34.7759 34.7585Z" fill="#C4C4C4"/>
<path d="M38.6858 34.7626C38.6865 34.0418 38.1029 33.457 37.3821 33.4562C36.6614 33.4554 36.0765 34.0391 36.0758 34.7598C36.075 35.4806 36.6587 36.0654 37.3794 36.0662C38.1001 36.067 38.685 35.4833 38.6858 34.7626Z" fill="#C4C4C4"/>
<path d="M42.6057 34.7667C42.6065 34.046 42.0228 33.4611 41.3021 33.4604C40.5813 33.4596 39.9965 34.0433 39.9957 34.764C39.9949 35.4847 40.5786 36.0696 41.2993 36.0704C42.0201 36.0711 42.6049 35.4874 42.6057 34.7667Z" fill="#C4C4C4"/>
<path d="M54.78 63.7599C57.174 59.253 61.1935 55.826 66.0224 54.1749C70.8513 52.5238 76.1276 52.7723 80.78 54.8699C84.0683 56.3549 86.8956 58.6989 88.9642 61.6552C91.0327 64.6115 92.2661 68.0708 92.5344 71.6689C92.8027 75.2671 92.0961 78.871 90.4889 82.1014C88.8816 85.3318 86.4333 88.0692 83.4015 90.0254C80.3697 91.9817 76.8667 93.0845 73.261 93.2177C69.6553 93.3509 66.0804 92.5097 62.9125 90.7825C59.7447 89.0553 57.101 86.506 55.2598 83.403C53.4186 80.3 52.4479 76.7581 52.45 73.1499C52.4528 72.3882 52.4962 71.6271 52.58 70.8699" stroke="#FFC463" stroke-width="2" stroke-linecap="round" stroke-linejoin="round"/>
<path d="M83.29 73.17C83.29 73.91 83.29 74.64 83.22 75.36C83.22 75.78 83.16 76.19 83.13 76.6C82.24 86.05 77.82 93.23 72.51 93.22C66.51 93.22 61.74 84.22 61.75 73.15C61.76 62.08 66.58 53.09 72.53 53.09C76.32 53.09 79.64 56.74 81.53 62.24C81.8 63.03 82.05 63.85 82.26 64.71C82.9444 67.4779 83.2903 70.3187 83.29 73.17V73.17Z" stroke="#FFC463" stroke-width="2" stroke-miterlimit="10"/>
<path d="M72.53 53.09L72.51 93.21" stroke="#FFC463" stroke-width="2" stroke-miterlimit="10"/>
<path d="M55.8701 61.83L89.0201 61.85" stroke="#FFC463" stroke-width="2" stroke-miterlimit="10"/>
<path d="M55.8601 84.35L89.0001 84.37" stroke="#FFC463" stroke-width="2" stroke-miterlimit="10"/>
<path d="M52.8601 73.09L92.0101 73.11" stroke="#FFC463" stroke-width="2" stroke-miterlimit="10"/>
</svg>
