<svg width="145" height="145" viewBox="0 0 145 145" fill="none" xmlns="http://www.w3.org/2000/svg">
<path d="M5 120.96H124.62" stroke="#007B64" stroke-width="2" stroke-linecap="round" stroke-linejoin="round"/>
<path d="M129.13 120.96H140" stroke="#007B64" stroke-width="2" stroke-linecap="round" stroke-linejoin="round"/>
<path d="M30.83 30.13C30.83 30.13 28.2 47.13 28.32 53.9C28.44 60.67 22.87 68.64 22.87 68.64L21.27 34.81L22.49 32L24.38 30.71L30.83 30.13Z" fill="#EBEBEB"/>
<path d="M32.54 117.3C31.7105 117.353 30.8787 117.242 30.0923 116.973C29.3059 116.703 28.5802 116.282 27.957 115.732C27.3337 115.182 26.825 114.515 26.46 113.768C26.095 113.021 25.881 112.21 25.83 111.38L21.18 37.38C21.1272 36.55 21.2384 35.7177 21.5073 34.9306C21.7763 34.1436 22.1977 33.4173 22.7475 32.7932C23.2973 32.1691 23.9646 31.6595 24.7115 31.2935C25.4583 30.9275 26.27 30.7122 27.1 30.66L31.23 30.4" stroke="#007B64" stroke-width="2" stroke-linecap="round" stroke-linejoin="round"/>
<path d="M104.44 103V114.85C104.444 115.656 104.289 116.455 103.983 117.201C103.677 117.947 103.227 118.625 102.658 119.197C102.09 119.768 101.414 120.222 100.669 120.531C99.9246 120.841 99.1263 121 98.3201 121H43.2201C42.4156 121 41.6189 120.841 40.8758 120.533C40.1326 120.225 39.4575 119.773 38.8891 119.204C38.3206 118.635 37.8701 117.959 37.5631 117.215C37.2561 116.471 37.0988 115.675 37.1001 114.87V29.12C37.1001 27.4969 37.7449 25.9402 38.8926 24.7925C40.0403 23.6448 41.597 23 43.2201 23H86.6001L104.44 41.88" fill="white"/>
<path d="M37.1001 85.48C37.1001 85.48 41.3301 95.39 57.0201 100C68.1901 103.29 74.5101 108.35 77.5201 121L40.9601 120.83L37.9001 118.9L37.1101 116.53L37.1001 85.48Z" fill="#F1F1F1"/>
<path d="M104.44 105.81V114.81C104.449 115.62 104.298 116.423 103.994 117.174C103.691 117.924 103.242 118.607 102.673 119.183C102.103 119.759 101.426 120.216 100.678 120.528C99.9313 120.839 99.1297 121 98.3201 121H43.2201C42.4156 121 41.6189 120.841 40.8758 120.533C40.1326 120.225 39.4575 119.773 38.8891 119.204C38.3206 118.635 37.8701 117.959 37.5631 117.215C37.2561 116.471 37.0988 115.675 37.1001 114.87V29.12C37.1001 27.4969 37.7449 25.9403 38.8926 24.7925C40.0403 23.6448 41.597 23 43.2201 23H86.1601C86.2989 22.9991 86.4364 23.027 86.5638 23.0821C86.6912 23.1372 86.8057 23.2182 86.9001 23.32L104.44 41.88" stroke="#007B64" stroke-width="2.04" stroke-linecap="round" stroke-linejoin="round"/>
<path d="M104.44 42.14V51.27V54.42" stroke="#007B64" stroke-width="2" stroke-linecap="round" stroke-linejoin="round"/>
<path d="M96.2801 41.88H91.18C89.5543 41.88 87.9951 41.2342 86.8455 40.0846C85.6959 38.935 85.05 37.3758 85.05 35.75V30.65" stroke="#007B64" stroke-width="2" stroke-linecap="round" stroke-linejoin="round"/>
<path d="M46.28 53.17H72.81" stroke="#007B64" stroke-width="2" stroke-linecap="round" stroke-linejoin="round"/>
<path d="M46.28 46.21H72.81" stroke="#007B64" stroke-width="2" stroke-linecap="round" stroke-linejoin="round"/>
<path d="M105.48 60.76H85.07C83.38 60.76 82.01 62.13 82.01 63.82C82.01 65.51 83.38 66.88 85.07 66.88H105.48C107.17 66.88 108.54 65.51 108.54 63.82C108.54 62.13 107.17 60.76 105.48 60.76Z" fill="white" stroke="#FFC463" stroke-width="2" stroke-miterlimit="10"/>
<path d="M115.68 66.88H95.27C93.58 66.88 92.21 68.25 92.21 69.94C92.21 71.63 93.58 73 95.27 73H115.68C117.37 73 118.74 71.63 118.74 69.94C118.74 68.25 117.37 66.88 115.68 66.88Z" fill="white" stroke="#FFC463" stroke-width="2" stroke-miterlimit="10"/>
<path d="M110.58 73H90.1701C88.4801 73 87.1101 74.37 87.1101 76.06C87.1101 77.75 88.4801 79.12 90.1701 79.12H110.58C112.27 79.12 113.64 77.75 113.64 76.06C113.64 74.37 112.27 73 110.58 73Z" fill="white" stroke="#FFC463" stroke-width="2" stroke-miterlimit="10"/>
<path d="M110.58 79.12H90.1701C88.4801 79.12 87.1101 80.49 87.1101 82.18C87.1101 83.87 88.4801 85.24 90.1701 85.24H110.58C112.27 85.24 113.64 83.87 113.64 82.18C113.64 80.49 112.27 79.12 110.58 79.12Z" fill="white" stroke="#FFC463" stroke-width="2" stroke-miterlimit="10"/>
<path d="M110.58 85.25H90.1701C88.4801 85.25 87.1101 86.62 87.1101 88.31C87.1101 90 88.4801 91.37 90.1701 91.37H110.58C112.27 91.37 113.64 90 113.64 88.31C113.64 86.62 112.27 85.25 110.58 85.25Z" fill="white" stroke="#FFC463" stroke-width="2" stroke-miterlimit="10"/>
<path d="M110.58 91.37H90.1701C88.4801 91.37 87.1101 92.74 87.1101 94.43C87.1101 96.12 88.4801 97.49 90.1701 97.49H110.58C112.27 97.49 113.64 96.12 113.64 94.43C113.64 92.74 112.27 91.37 110.58 91.37Z" fill="white" stroke="#FFC463" stroke-width="2" stroke-miterlimit="10"/>
<path d="M110.96 102.34C118.074 102.34 123.84 96.5735 123.84 89.4601C123.84 82.3466 118.074 76.5801 110.96 76.5801C103.847 76.5801 98.0801 82.3466 98.0801 89.4601C98.0801 96.5735 103.847 102.34 110.96 102.34Z" fill="#FFC463"/>
</svg>
