<svg width="145" height="145" fill="none" xmlns="http://www.w3.org/2000/svg"><path d="M5 120.96h119.62m4.51 0H140" stroke="#007B64" stroke-width="2" stroke-linecap="round" stroke-linejoin="round"/><path d="M30.83 30.13s-2.63 17-2.51 23.77c.12 6.77-5.45 14.74-5.45 14.74l-1.6-33.83L22.49 32l1.89-1.29 6.45-.58z" fill="#EBEBEB"/><path d="M32.54 117.3a6.318 6.318 0 01-6.71-5.92l-4.65-74a6.333 6.333 0 015.92-6.72l4.13-.26" stroke="#007B64" stroke-width="2" stroke-linecap="round" stroke-linejoin="round"/><path d="M104.44 103v11.85a6.115 6.115 0 01-3.771 5.681 6.11 6.11 0 01-2.349.469h-55.1a6.123 6.123 0 01-6.12-6.13V29.12A6.12 6.12 0 0143.22 23H86.6l17.84 18.88" fill="#fff"/><path d="M37.1 85.48s4.23 9.91 19.92 14.52c11.17 3.29 17.49 8.35 20.5 21l-36.56-.17-3.06-1.93-.79-2.37-.01-31.05z" fill="#F1F1F1"/><path d="M104.44 105.81v9a6.116 6.116 0 01-3.762 5.718 6.134 6.134 0 01-2.358.472h-55.1a6.123 6.123 0 01-6.12-6.13V29.12A6.12 6.12 0 0143.22 23h42.94a1 1 0 01.74.32l17.54 18.56" stroke="#007B64" stroke-width="2.04" stroke-linecap="round" stroke-linejoin="round"/><path d="M104.44 42.14v12.28m-8.16-12.54h-5.1a6.13 6.13 0 01-6.13-6.13v-5.1M46.28 53.17h26.53m-26.53-6.96h26.53" stroke="#007B64" stroke-width="2" stroke-linecap="round" stroke-linejoin="round"/><path d="M105.48 60.76H85.07a3.06 3.06 0 100 6.12h20.41a3.06 3.06 0 100-6.12zm10.2 6.12H95.27a3.06 3.06 0 100 6.12h20.41a3.06 3.06 0 100-6.12zm-5.1 6.12H90.17a3.06 3.06 0 100 6.12h20.41a3.06 3.06 0 100-6.12zm0 6.12H90.17a3.06 3.06 0 100 6.12h20.41a3.06 3.06 0 100-6.12zm0 6.13H90.17a3.06 3.06 0 100 6.12h20.41a3.06 3.06 0 100-6.12zm0 6.12H90.17a3.06 3.06 0 100 6.12h20.41a3.06 3.06 0 100-6.12z" fill="#fff" stroke="#FFC463" stroke-width="2" stroke-miterlimit="10"/><path d="M110.96 102.34c7.114 0 12.88-5.767 12.88-12.88s-5.766-12.88-12.88-12.88c-7.113 0-12.88 5.767-12.88 12.88 0 7.114 5.767 12.88 12.88 12.88z" fill="#FFC463"/></svg>