<svg width="145" height="145" fill="none" xmlns="http://www.w3.org/2000/svg"><path d="M5 121.13h122.08m7.38 0H140" stroke="#007B64" stroke-width="2" stroke-linecap="round" stroke-linejoin="round"/><path d="M89.93 23.5h-62a8 8 0 00-8 8v82a8 8 0 008 8h62a8 8 0 008-8v-82a8 8 0 00-8-8z" fill="#fff"/><path d="M99.489 81.082l-2.894 2.209a1.59 1.59 0 00-.3 2.228l19.293 25.279a1.59 1.59 0 002.229.3l2.894-2.209c.698-.532.832-1.53.299-2.228l-19.293-25.28a1.59 1.59 0 00-2.228-.299z" fill="#fff" stroke="#007B64" stroke-width="2" stroke-miterlimit="10"/><path d="M87.28 90.26c12.25 0 22.18-9.93 22.18-22.18S99.53 45.9 87.28 45.9 65.1 55.83 65.1 68.08s9.93 22.18 22.18 22.18z" fill="#FFC463"/><path d="M87.28 85.57c9.66 0 17.49-7.83 17.49-17.49 0-9.66-7.83-17.49-17.49-17.49-9.66 0-17.49 7.83-17.49 17.49 0 9.66 7.83 17.49 17.49 17.49z" fill="#fff"/><path d="M93.54 77c-1.51 5.27-7 8.54-7 8.54a17.49 17.49 0 0017.33-23.08C98.66 63 95.43 68.23 93.54 77z" fill="#EBEBEB"/><path d="M27.05 33.54l63.79.06" stroke="#007B64" stroke-width="2" stroke-miterlimit="10" stroke-linecap="round"/><path d="M86.73 27.59H72.69a.83.83 0 00-.83.83v.28c0 .458.372.83.83.83h14.04a.83.83 0 00.83-.83v-.28a.83.83 0 00-.83-.83z" fill="#FFC463"/><path d="M32.921 28.667a1.275 1.275 0 10-2.55-.002 1.275 1.275 0 002.55.002zm3.83.014a1.275 1.275 0 10-2.55-.002 1.275 1.275 0 002.55.003zm3.83-.006a1.275 1.275 0 10-2.55-.002 1.275 1.275 0 002.55.003z" fill="#C4C4C4"/><path d="M98.17 96.42v17.84a6.871 6.871 0 01-6.87 6.87H26.54a6.88 6.88 0 01-6.87-6.87V29.87A6.88 6.88 0 0126.54 23H91.3a6.87 6.87 0 016.87 6.87V42M31.64 87.2h27.28m-27.28-5.61h27.28m-27.28-5.6h27.28m-27.28 28.44h27.28m-27.28-5.6h27.28m-27.28-5.61h27.28" stroke="#007B64" stroke-width="2" stroke-linecap="round" stroke-linejoin="round"/><path d="M31.64 60.8h19.65m-19.65-5.57h19.65m-19.65-5.57h19.65" stroke="#FFC463" stroke-width="2" stroke-linecap="round" stroke-linejoin="round"/></svg>