<svg width="145" height="145" fill="none" xmlns="http://www.w3.org/2000/svg"><path d="M5 121.17h119.62m4.51 0H140" stroke="#007B64" stroke-width="2" stroke-linecap="round" stroke-linejoin="round"/><path d="M118.68 121.17H98.14l2.94-4.18V78.2h11.71a5.889 5.889 0 015.89 5.88v37.09z" fill="#007B64"/><path d="M93.73 25H49.31a7.04 7.04 0 00-7.04 7.04v81.92a7.04 7.04 0 007.04 7.04h44.42a7.04 7.04 0 007.04-7.04V32.04A7.04 7.04 0 0093.73 25z" fill="#fff"/><path d="M101.08 37.2H88.53v71.89h12.55V37.2z" fill="#EBEBEB"/><path d="M42.2 42.14v-9.29A7.85 7.85 0 0150.05 25h43.22a7.84 7.84 0 017.85 7.85v80.47a7.85 7.85 0 01-2.296 5.554 7.841 7.841 0 01-5.554 2.296H50.05a7.85 7.85 0 01-7.85-7.85V79.1" stroke="#007B64" stroke-width="2" stroke-miterlimit="10" stroke-linecap="round"/><path d="M54.78 37.2h46.3m-58.88 0h6.45" stroke="#007B64" stroke-width="2" stroke-linecap="round" stroke-linejoin="round"/><path d="M42.2 109.09h58.88" stroke="#007B64" stroke-width="2" stroke-miterlimit="10"/><path d="M65.75 30.83h11.78" stroke="#007B64" stroke-width="2" stroke-linecap="round" stroke-linejoin="round"/><path d="M71.64 117.67a2.45 2.45 0 100-4.9 2.45 2.45 0 000 4.9z" fill="#007B64"/><path d="M57.69 91.67H51.8a1.96 1.96 0 00-1.96 1.96v5.89a1.96 1.96 0 001.96 1.96h5.89a1.96 1.96 0 001.96-1.96v-5.89a1.96 1.96 0 00-1.96-1.96zm16.9 0H68.7a1.96 1.96 0 00-1.96 1.96v5.89a1.96 1.96 0 001.96 1.96h5.89a1.96 1.96 0 001.96-1.96v-5.89a1.96 1.96 0 00-1.96-1.96zm16.89 0h-5.89a1.96 1.96 0 00-1.96 1.96v5.89a1.96 1.96 0 001.96 1.96h5.89a1.96 1.96 0 001.96-1.96v-5.89a1.96 1.96 0 00-1.96-1.96z" fill="#FFB02A"/><path d="M42.46 47.67H17.22a4.38 4.38 0 00-4.38 4.38v17.14a4.38 4.38 0 004.38 4.38h25.24a4.38 4.38 0 004.38-4.38V52.05a4.38 4.38 0 00-4.38-4.38z" fill="#fff" stroke="#007B64" stroke-width="2" stroke-miterlimit="10"/><path d="M19.28 55.34H40.4m-21.12 5.28H40.4M19.28 65.9H40.4" stroke="#FFB02A" stroke-width="2" stroke-linecap="round" stroke-linejoin="round"/></svg>