<svg width="145" height="145" fill="none" xmlns="http://www.w3.org/2000/svg"><path d="M115 121.03H5m135 0h-15" stroke="#007B64" stroke-width="2" stroke-linecap="round" stroke-linejoin="round"/><path d="M96.58 23h-63a7 7 0 00-7 7v84a7 7 0 007 7h63a7 7 0 007-7V30a7 7 0 00-7-7z" fill="#fff"/><path d="M41.2 120.21s14.88-10.39 33.23-10.68c18.35-.29 17.86-6.72 29.39-10.23V115l-1.17 3.57-2.8 2.12-59.16.31.51-.79z" fill="#EBEBEB"/><path d="M26.61 34.2v-5.13A6.07 6.07 0 0132.68 23h65.07a6.069 6.069 0 016.07 6.07V115a6.068 6.068 0 01-6.07 6H32.68a6.072 6.072 0 01-6.07-6V40m20.41 30.02H90m-42.98 8.75H90m-42.98 8.47H90" stroke="#007B64" stroke-width="2" stroke-linecap="round" stroke-linejoin="round"/><path d="M30.95 39.92h-8.68a2.6 2.6 0 00-2.6 2.6v2.61a2.6 2.6 0 002.6 2.6h8.68a2.6 2.6 0 002.6-2.6v-2.61a2.6 2.6 0 00-2.6-2.6zm0 14.09h-8.68a2.6 2.6 0 00-2.6 2.6v2.61a2.6 2.6 0 002.6 2.6h8.68a2.6 2.6 0 002.6-2.6v-2.61a2.6 2.6 0 00-2.6-2.6zm0 14.1h-8.68a2.6 2.6 0 00-2.6 2.6v2.61a2.6 2.6 0 002.6 2.6h8.68a2.6 2.6 0 002.6-2.6v-2.61a2.6 2.6 0 00-2.6-2.6zm0 14.1h-8.68a2.6 2.6 0 00-2.6 2.6v2.61a2.6 2.6 0 002.6 2.6h8.68a2.6 2.6 0 002.6-2.6v-2.61a2.6 2.6 0 00-2.6-2.6zm0 14.1h-8.68a2.6 2.6 0 00-2.6 2.6v2.61a2.6 2.6 0 002.6 2.6h8.68a2.6 2.6 0 002.6-2.6v-2.61a2.6 2.6 0 00-2.6-2.6z" fill="#fff" stroke="#007B64" stroke-width="2" stroke-miterlimit="10"/><path d="M86.97 43.55H49.15a3.02 3.02 0 00-3.02 3.02V56.7a3.02 3.02 0 003.02 3.02h37.82a3.02 3.02 0 003.02-3.02V46.57a3.02 3.02 0 00-3.02-3.02z" fill="#FFC463"/><path d="M114.15 34.09a5.16 5.16 0 012.93-.9h3a5.2 5.2 0 015.2 5.2v58.37l-6.2 12.12-7.18-12.12V40.25" fill="#fff"/><path d="M124.83 51.17h-5.14v45.59h5.14V51.17z" fill="#EBEBEB"/><path d="M114.15 34.09a5.16 5.16 0 012.93-.9h3a5.2 5.2 0 015.2 5.2v58.37l-6.2 12.12-7.18-12.12V40.25" stroke="#FFC463" stroke-width="2" stroke-linecap="round" stroke-linejoin="round"/><path d="M111.88 96.76h13.45" stroke="#FFC463" stroke-width="2" stroke-miterlimit="10" stroke-linecap="round"/><path d="M111.88 45.04h13.45m0 6.13h-13.45" stroke="#FFC463" stroke-width="2" stroke-linecap="round" stroke-linejoin="round"/></svg>