<svg width="145" height="145" fill="none" xmlns="http://www.w3.org/2000/svg"><path d="M5 121.34h135" stroke="#007B64" stroke-width="2" stroke-miterlimit="10" stroke-linecap="round"/><path d="M93.63 23h-57a6 6 0 00-6 6v86a6 6 0 006 6h57a6 6 0 006-6V29a6 6 0 00-6-6z" fill="#fff"/><path d="M31.05 112.26h68.93v4.15a4.928 4.928 0 01-4.93 4.93H35.97a4.928 4.928 0 01-4.93-4.93v-4.15h.01z" fill="#EBEBEB"/><path d="M99.98 76.15v39.53a5.66 5.66 0 01-5.66 5.66H36.71a5.658 5.658 0 01-5.66-5.66v-87A5.658 5.658 0 0136.71 23h57.61a5.66 5.66 0 015.66 5.66v8.94" stroke="#007B64" stroke-width="2" stroke-linecap="round" stroke-linejoin="round"/><path d="M39.52 35.55h34.01" stroke="#FFC463" stroke-width="2" stroke-linecap="round" stroke-linejoin="round"/><path d="M79.01 35.55h9.44M39.94 91.13h38.35m-38.35 6.41h38.35m-38.77 6.41h38.35" stroke="#007B64" stroke-width="2" stroke-linecap="round" stroke-linejoin="round"/><path d="M100.77 70.09c7.285 0 13.19-5.905 13.19-13.19 0-7.285-5.905-13.19-13.19-13.19-7.285 0-13.19 5.905-13.19 13.19 0 7.285 5.905 13.19 13.19 13.19z" fill="#fff" stroke="#007B64" stroke-width="2" stroke-linecap="round" stroke-linejoin="round"/><path d="M99.18 60.46v-.63a5.58 5.58 0 011.45-4.23c1.09-1.29 1.7-2.24 1.7-3.34 0-1.25-.78-2.08-2.31-2.1a4.31 4.31 0 00-2.47.76l-.59-1.54a6.39 6.39 0 013.5-1c2.8 0 4.07 1.74 4.07 3.59 0 1.66-.93 2.86-2.1 4.25a4.855 4.855 0 00-1.39 3.59v.63l-1.86.02zm-.55 3.42a1.45 1.45 0 011.47-1.54 1.535 1.535 0 011.454.9 1.527 1.527 0 01-1.067 2.123 1.53 1.53 0 01-1.857-1.483v0z" fill="#FFC463" stroke="#FFC463" stroke-width=".41" stroke-linecap="round" stroke-linejoin="round"/><path d="M38.55 63.34c0-7.54 4.13-11.81 9.58-11.81s9.61 4.27 9.61 11.81c0 7.54-4.11 11.81-9.61 11.81-5.5 0-9.58-4.26-9.58-11.81zm14.89 0c0-5.54-2.16-8.1-5.31-8.1-3.15 0-5.28 2.56-5.28 8.1 0 5.54 2.16 8.11 5.28 8.11s5.31-2.56 5.31-8.11zM68.4 51.86v23h-4.26V55.44h-4.86v-3.58h9.12z" fill="#FFC463"/></svg>