<svg xmlns="http://www.w3.org/2000/svg" viewBox="0 0 145 145"><defs><style>.cls-1{fill:none;stroke-miterlimit:10;stroke:#007b64;stroke-linecap:round;stroke-width:2px}.cls-2{fill:#fff}.cls-6{fill:#ffc463}</style></defs><g id="_19_Предварительная_регистрация_электронная_очередь_" data-name="19 Предварительная регистрация (электронная очередь)"><path class="cls-1" d="M4.43 139.26h135"/><path class="cls-2" d="M50 92h44v47H50z"/><rect class="cls-2" x="33" y="40" width="79" height="51.5" rx="7.03"/><path d="M38 40v51.64a5.72 5.72 0 01-5.72-5.72v-40.2A5.72 5.72 0 0138 40zm56.57 71.83s-7.18 9.66-11.67 11.07c-4.9 1.54-8.29 16.36-11.67 16.36l23.34-.2z" fill="#ebebeb"/><path class="cls-1" d="M94.14 91.64v47.42H50.2V95.41M103 40h1.6a6.89 6.89 0 016.89 6.89v37.48a6.88 6.88 0 01-6.89 6.89H39.7a6.88 6.88 0 01-6.89-6.89V46.89A6.89 6.89 0 0139.7 40h57.44"/><path stroke-linejoin="round" fill="#fff" stroke-linecap="round" stroke-width="2" stroke="#007b64" d="M46.47 84.78h28.28"/><path stroke="#ffc463" stroke-linejoin="round" fill="#fff" stroke-linecap="round" stroke-width="2" d="M85.05 84.78h12.82"/><rect class="cls-6" x="43.68" y="57.48" width="10.82" height="10.82" rx="1.84"/><rect class="cls-6" x="59.07" y="57.48" width="10.82" height="10.82" rx="1.84"/><rect class="cls-6" x="74.46" y="57.48" width="10.82" height="10.82" rx="1.84"/><rect class="cls-6" x="89.85" y="57.48" width="10.82" height="10.82" rx="1.84"/></g></svg>