<svg xmlns="http://www.w3.org/2000/svg" viewBox="0 0 145 145"><defs><style>.cls-1{fill:none;stroke-miterlimit:10;}.cls-1,.cls-4{stroke:#007b64;}.cls-1,.cls-4,.cls-5{stroke-linecap:round;stroke-width:2px;}.cls-2,.cls-4,.cls-5{fill:#fff;}.cls-3{fill:#ebebeb;}.cls-4,.cls-5{stroke-linejoin:round;}.cls-5{stroke:#ffc463;}.cls-6{fill:#ffc463;}</style></defs><title>19 Предварительная регистрация (электронная очередь)</title><g id="_19_Предварительная_регистрация_электронная_очередь_" data-name="19 Предварительная регистрация (электронная очередь)"><line class="cls-1" x1="4.43" y1="139.26" x2="139.43" y2="139.26"/><rect class="cls-2" x="50" y="92" width="44" height="47"/><rect class="cls-2" x="33" y="40" width="79" height="51.5" rx="7.03"/><path class="cls-3" d="M38,40h0a0,0,0,0,1,0,0V91.64a0,0,0,0,1,0,0h0a5.72,5.72,0,0,1-5.72-5.72V45.72A5.72,5.72,0,0,1,38,40Z"/><path class="cls-3" d="M94.57,111.83s-7.18,9.66-11.67,11.07c-4.9,1.54-8.29,16.36-11.67,16.36l23.34-.2Z"/><polyline class="cls-1" points="94.14 91.64 94.14 139.06 50.2 139.06 50.2 95.41"/><path class="cls-1" d="M103,40h1.6a6.89,6.89,0,0,1,6.89,6.89V84.37a6.88,6.88,0,0,1-6.89,6.89H39.7a6.88,6.88,0,0,1-6.89-6.89V46.89A6.89,6.89,0,0,1,39.7,40H97.14"/><line class="cls-4" x1="46.47" y1="84.78" x2="74.75" y2="84.78"/><line class="cls-5" x1="85.05" y1="84.78" x2="97.87" y2="84.78"/><rect class="cls-6" x="43.68" y="57.48" width="10.82" height="10.82" rx="1.84"/><rect class="cls-6" x="59.07" y="57.48" width="10.82" height="10.82" rx="1.84"/><rect class="cls-6" x="74.46" y="57.48" width="10.82" height="10.82" rx="1.84"/><rect class="cls-6" x="89.85" y="57.48" width="10.82" height="10.82" rx="1.84"/></g></svg>