<svg xmlns="http://www.w3.org/2000/svg" viewBox="0 0 145 145"><defs><style>.cls-1{fill:none}.cls-1,.cls-6{stroke:#007b64;stroke-linecap:round;stroke-linejoin:round;stroke-width:2px}.cls-2{fill:#ebebeb}.cls-6{fill:#fff}.cls-7{fill:#007b64}</style></defs><g id="_2_Постановка_на_учет" data-name="2 Постановка на учет"><path class="cls-1" d="M7.07 139.17h9.77m4.04 0h107.39m4.04 0h9.76"/><path class="cls-2" d="M37 55s1.36 8.33 3 18c1.2 7.11-2.07 17.49-5.36 19.67l-3-31v-3L33 56.8"/><path d="M48.41 138.58l-1.67.19a6.17 6.17 0 01-6.85-5.4L31.5 61.6a6.16 6.16 0 015.4-6.84" stroke-width="1.9" stroke="#007b64" stroke-linecap="round" stroke-linejoin="round" fill="none"/><path class="cls-2" d="M43.64 93.67s6 4 9 24 6 21 8 21l-10.88.4-3.16-1.53-1.9-2.87-2.06-41z"/><path class="cls-1" d="M55.68 139l-4.46.19a6.58 6.58 0 01-6.85-6.29l-3.29-77a6.57 6.57 0 016.29-6.85"/><path d="M117.7 61.93v71.24a6 6 0 01-6 6h-54a6 6 0 01-6-6v-84a6 6 0 016-6h42.51l17.49 18.5" fill="#fff"/><path d="M51.64 130.67h66v1a7 7 0 01-7 7h-52a7 7 0 01-7-7v-1z" fill="#f1f1f1"/><path class="cls-1" d="M117.7 61.93v71.24a6 6 0 01-6 6h-54a6 6 0 01-6-6v-84a6 6 0 016-6h42.08a1 1 0 01.72.32l17.2 18.18"/><path class="cls-1" d="M109.7 61.67h-5a6 6 0 01-6-6v-5"/><path class="cls-6" d="M64.7 99.92h42"/><circle class="cls-7" cx="60.7" cy="99.92" r=".95"/><path class="cls-6" d="M64.7 106.56h42"/><circle class="cls-7" cx="60.7" cy="106.56" r=".95"/><path class="cls-6" d="M64.7 113.19h42"/><circle class="cls-7" cx="60.7" cy="113.19" r=".95"/><path class="cls-6" d="M64.7 119.82h42"/><circle class="cls-7" cx="60.7" cy="119.82" r=".95"/><rect x="59.7" y="60.67" width="26" height="31" rx="3" fill="#ffc463"/></g></svg>