<svg xmlns="http://www.w3.org/2000/svg" viewBox="0 0 145 145"><defs><style>.cls-1{fill:none;stroke:#007b64;stroke-linecap:round;stroke-linejoin:round;stroke-width:2px}.cls-2{fill:#fff}.cls-3{fill:#ebebeb}.cls-5{fill:#ffc463}</style></defs><g id="_20_База_данных_контролирующих_надзорных_органов" data-name="20 База данных контролирующих (надзорных) органов"><path class="cls-1" d="M5.4 139.07h10.94m3.12 0h109.37m6.6 0h4.97"/><rect class="cls-2" x="58.46" y="49.91" width="51.31" height="76.13" rx="5.21"/><path class="cls-3" d="M99.58 49.91s1 12.51 5.21 15.64c3 2.26 4.74 10.8 5 11.66s-.66-24.63-.66-24.63l-1.73-1.84-6.58-1.32z"/><path class="cls-1" d="M109.77 89.54v31.28a5.22 5.22 0 01-5.22 5.22H63.67a5.22 5.22 0 01-5.21-5.22v-65.7a5.21 5.21 0 015.21-5.21h40.88a5.22 5.22 0 015.22 5.21v31.2"/><rect class="cls-2" x="36.14" y="40" width="64.66" height="95.95" rx="5.21"/><path d="M100.8 92.21v38.52a5.22 5.22 0 01-5.22 5.27H41.35a5.22 5.22 0 01-5.21-5.22V45.21A5.21 5.21 0 0141.35 40h54.23a5.22 5.22 0 015.22 5.21v39.65" stroke-width="2.09" stroke="#007b64" stroke-linecap="round" stroke-linejoin="round" fill="none"/><rect class="cls-5" x="44.48" y="47.82" width="47.97" height="13.56" rx="2.09"/><path d="M45.63 67.9h43.8m-43.8 6.91h37.54m-37.54 6.92h27.12" fill="#fff" stroke="#007b64" stroke-linecap="round" stroke-linejoin="round" stroke-width="2"/><path class="cls-2" d="M113.57 139.07H32.23a4.17 4.17 0 01-4.17-4.17V85.37a4.18 4.18 0 014.17-4.18h26.3l9.94 8.35h45.1a4.17 4.17 0 014.18 4.17v41.19a4.17 4.17 0 01-4.18 4.17z"/><path class="cls-3" d="M73.5 138.55s7.3-9.38 17.73-10.43c4.59-.46 7.3 0 11.47-2.08 4-2 8.18-8.8 14.61-9.39v17.73l-.45 3.09-2.18 1.45z"/><path class="cls-1" d="M113.57 139.07H32.23a4.17 4.17 0 01-4.17-4.17V85.37a4.18 4.18 0 014.17-4.18h26.3l9.94 8.35h45.1a4.17 4.17 0 014.18 4.17v41.19a4.17 4.17 0 01-4.18 4.17z"/><rect class="cls-5" x="34.05" y="127.99" width="26.07" height="5.21" rx="1.04"/></g></svg>