<svg xmlns="http://www.w3.org/2000/svg" viewBox="0 0 145 145"><defs><style>.cls-1{fill:none;stroke:#007b64;stroke-width:2px;stroke-linecap:round;stroke-linejoin:round}.cls-3{fill:#ebebeb}.cls-4{fill:#ffc463}</style></defs><g id="_21_Реестр_коммерческих_организаций_и_индивидуальных_предпринимателей_с_повышенным_риском_совершения_нарушений_в_экономической_сфере" data-name="21 Реестр коммерческих организаций и индивидуальных предпринимателей с повышенным риском совершения нарушений в экономической сфере"><path class="cls-1" d="M19.44 139.03h115.43m-135 0H9.91"/><path d="M108.75 105.94l.71-.18V44.65A4.66 4.66 0 00104.8 40H91.39a3.26 3.26 0 00-.45 0h-.18a4.59 4.59 0 00-3.14 2 4.61 4.61 0 00-.87 2.68A4.65 4.65 0 0082.08 40H68.66a4.49 4.49 0 00-2 .46 4.56 4.56 0 00-1.45 1.12l-.08.06-.08.14a4.45 4.45 0 00-.52.83v.09a4.61 4.61 0 00-.53 1.95A4.65 4.65 0 0059.36 40H45.94a4.64 4.64 0 00-2.41.69 4.38 4.38 0 00-1.29 1.21 4.66 4.66 0 00-.85 2.67v61.11l.71.18H32V139h86.79v-33.06zM64 111.29l22.72.1 2.74-.68-.75.68H61.49l-1-1z" fill="#fff"/><path class="cls-3" d="M55.15 40S50 48.41 49.81 57.35 41.29 86.7 41.29 86.7V44.65l.86-2.65 1.34-1.27 2.45-.7zm19.14 1a42.2 42.2 0 00-2.16 13c.08 6.73-7.73 13.62-8.12 13.39V45.43l.42-2.69.65-1.06 1.58-1.22 4.93-.46h3.09zm23.29-1a24.31 24.31 0 01-2.24 14c-3.56 7.2-.73 11.68-8.61 19V44.65L87.6 42l3.16-1.9z"/><path class="cls-1" d="M41.29 105.76V44.65A4.65 4.65 0 0145.94 40h13.42A4.65 4.65 0 0164 44.65v66.64"/><rect class="cls-4" x="45.83" y="46.38" width="13.63" height="43.63" rx="2.73"/><path class="cls-1" d="M46.29 105.76a6.36 6.36 0 1112.13 2.68m28.31 2.95V44.65A4.66 4.66 0 0191.39 40h13.41a4.66 4.66 0 014.66 4.65v61.11"/><rect class="cls-4" x="91.28" y="46.38" width="13.63" height="43.63" rx="2.73"/><path class="cls-1" d="M92.23 108.24a6.37 6.37 0 1112.23-2.48"/><path d="M64 111.29V44.65A4.65 4.65 0 0168.66 40h13.42a4.65 4.65 0 014.65 4.65v66.74" stroke-miterlimit="10" stroke="#007b64" stroke-width="2" fill="none"/><rect class="cls-4" x="68.56" y="46.38" width="13.63" height="43.63" rx="2.73"/><path d="M72.28 111.32a6.21 6.21 0 01-3-3.66 6.29 6.29 0 01-.29-1.9 6.37 6.37 0 119.76 5.38" fill="#fff" stroke-linecap="round" stroke-linejoin="round" stroke="#007b64" stroke-width="2"/><path class="cls-3" d="M78.36 139s8.63-8.79 19.46-7.58 20.17-.65 21-7.73V139z"/><path class="cls-1" d="M41.25 105.94h14.57l5.67 5.45h27.23l6.09-5.45h23.96v33.09H31.98v-33.09h3.2"/><path class="cls-1" d="M110.89 119.06a2.69 2.69 0 01.36 1.34v8.32a2.73 2.73 0 01-2.73 2.73H42.65a2.73 2.73 0 01-2.73-2.73v-8.32a2.72 2.72 0 012.73-2.72H105"/></g></svg>