<svg xmlns="http://www.w3.org/2000/svg" viewBox="0 0 145 145"><defs><style>.cls-1{fill:none;stroke-miterlimit:10;stroke-width:2px;stroke:#007b64;stroke-linecap:round}.cls-2{fill:#fff}</style></defs><g id="_22_Заявка_на_доступ_к_личному_кабинету" data-name="22 Заявка на доступ к личному кабинету"><path class="cls-1" d="M.71 139h135"/><path class="cls-2" d="M23 134V83l27-25h35l27 23 1 3v52l-2 3H25l-2-3v-2z"/><path class="cls-2" d="M55.46 108.88L23.3 83.44l2.72-3.52L61 51h16l35.18 30.69 1.13 2.42.13 50.62-2.44 3.4-85.04.44"/><path d="M73.15 101.17a19.56 19.56 0 0112.79-7.32c8.79-1.37 14.83-12.07 14.83-12.74v12.07l-19.83 15.69zM61.4 139s17.7-20.46 32.35-19.27 19.76-13.18 19.76-14.52l-.07 29.52-1.68 3-2.42 1.27z" fill="#ebebeb"/><path class="cls-1" d="M104.07 74.58l7 5.92a6.84 6.84 0 012.43 5.23v48.17a5.1 5.1 0 01-5.1 5.1H28a5.1 5.1 0 01-5.11-5.1V85.73a6.84 6.84 0 012.43-5.23l6.91-5.83"/><path class="cls-2" d="M36.08 93.54v-48A5.55 5.55 0 0141.63 40h53.59a5.55 5.55 0 015.55 5.55v48.3"/><path d="M36.08 93.54v-48A5.55 5.55 0 0141.63 40h53.59a5.55 5.55 0 015.55 5.55v48.3" stroke="#fabf6b" fill="none" stroke-miterlimit="10" stroke-width="2"/><path d="M109.34 139H27.08a1.66 1.66 0 01-1.14-2.86l41.13-38a1.65 1.65 0 012.28 0l41.13 38a1.66 1.66 0 01-1.14 2.86zm-53.88-30.13L23.3 83.43m57.64 25.44l32.16-25.44" fill="none" stroke-miterlimit="10" stroke-width="2" stroke="#007b64"/><path d="M60.79 64.15c0-.21 0-.41.05-.61a9.5 9.5 0 01.2-1.11 4.77 4.77 0 014.64-4 .53.53 0 01.24.06 5.81 5.81 0 002.63.65 4.52 4.52 0 002.38-.63.5.5 0 01.26-.08c3.37.12 4.89 2.93 4.89 6.38v1.56a1.75 1.75 0 01-1.75 1.75H62.52a1.75 1.75 0 01-1.75-1.75v-.6m11.3-15.7a3.72 3.72 0 01.33.45c.1.16.19.32.28.5a4.68 4.68 0 01.47 2 4.92 4.92 0 01-.21 1.39 4.72 4.72 0 11-3.06-5.88 4.19 4.19 0 01.69.29 3.07 3.07 0 01.31.17" fill="#ffc463"/><path class="cls-1" d="M49.39 76.02h38.07m-38.07 5.09h38.07m-38.07 5.08h38.07"/></g></svg>