<svg xmlns="http://www.w3.org/2000/svg" viewBox="0 0 145 145"><defs><style>.cls-1,.cls-9{fill:none;stroke-miterlimit:10;stroke-width:2px}.cls-1{stroke:#007b64}.cls-1,.cls-9{stroke-linecap:round}.cls-2{fill:#007b64}.cls-7{fill:#c4c4c4}.cls-9{stroke:#fabf6b}</style></defs><g id="_23_Система_контроля_торговых_автоматов" data-name="23 Система контроля торговых автоматов"><path class="cls-1" d="M143.6 134.39l-135 .16"/><path class="cls-2" d="M124 124.38h12.6a5.35 5.35 0 015.35 5.35v5h-23.27v-5a5.35 5.35 0 015.32-5.35z"/><path stroke="#007b64" fill="none" stroke-miterlimit="10" stroke-width="2" d="M130.33 125.13v-22.46"/><circle class="cls-2" cx="130.33" cy="100.86" r="5.09"/><rect x="18" y="48" width="107.5" height="86" rx="6.98" fill="#fff"/><path d="M18 123.92h108v2.47a8 8 0 01-8 8H26a8 8 0 01-8-8v-2.47z" fill="#ebebeb"/><path class="cls-1" d="M27.03 60.04l89.94.1"/><rect x="91.93" y="53.76" width="22.48" height="2.02" rx="1.01" transform="rotate(.07 98.251 49.05)" fill="#ffc463"/><rect class="cls-7" x="28.84" y="53.28" width="2.81" height="2.81" rx="1.41" transform="rotate(.07 24.585 49.096)"/><rect class="cls-7" x="33.06" y="53.29" width="2.81" height="2.81" rx="1.41" transform="rotate(.07 32.77 49.09)"/><rect class="cls-7" x="37.27" y="53.29" width="2.81" height="2.81" rx="1.41" transform="rotate(.07 32.77 49.09)"/><path class="cls-1" d="M18 66.84V55.69a7.56 7.56 0 017.56-7.56h92.88a7.56 7.56 0 017.56 7.56V127a7.55 7.55 0 01-7.56 7.56H25.56A7.55 7.55 0 0118 127V77.73"/><rect x="80.39" y="90.62" width="29.87" height="20.88" rx="2.52" fill="#fabf6b"/><path class="cls-9" d="M85.06 92v-4.7a10.27 10.27 0 0110.27-10.23 10.27 10.27 0 0110.19 9v.45"/><path class="cls-9" d="M89.32 92v-4.17a6 6 0 016-6 6 6 0 015.37 3.33 5.84 5.84 0 01.53 1.59"/><path class="cls-1" d="M33.74 90.25h29.22m-29.22 6.19h29.22m-29.22 6.2h29.22"/></g></svg>