<svg xmlns="http://www.w3.org/2000/svg" viewBox="0 0 145 145"><defs><style>.cls-1{fill:none;stroke-linecap:round;stroke:#007b64;stroke-miterlimit:10;stroke-width:2px}.cls-2{fill:#fff}.cls-3{fill:#ebebeb}.cls-4{fill:#ffc463}.cls-5{fill:#c4c4c4}</style></defs><g id="_24_Поиск_заявления_в_базе_данных_МНС_Республики_Беларусь_ЕАЭС_" data-name="24 Поиск заявления в базе данных МНС Республики Беларусь (ЕАЭС)"><path class="cls-1" d="M1.54 139.19l135 .15"/><path class="cls-2" d="M94.61 126.78l40.65.08a1 1 0 011 1 11.48 11.48 0 01-11.5 11.48l-99.21-.1a11.5 11.5 0 01-11.48-11.5 1 1 0 011.05-1h72"/><path class="cls-3" d="M105.89 139.34s2.94-12.34 5.75-12.61H136s1.56 6.73-7.76 12.36z"/><rect class="cls-2" x="24.5" y="48" width="101.5" height="79" rx="7"/><path class="cls-1" d="M24.63 66.67V54.53a7.18 7.18 0 017.17-7.15l80.83.08m-88.06 79.15l.01-10.33"/><path class="cls-1" d="M109.11 47.46h9.68a7.18 7.18 0 017.15 7.16l-.07 65.06a7.18 7.18 0 01-7.17 7.15h-7.57"/><path class="cls-1" d="M94.61 126.78l40.65.08a1 1 0 011 1 11.48 11.48 0 01-11.5 11.48l-99.21-.1a11.5 11.5 0 01-11.48-11.5 1 1 0 011.05-1h72M33.2 57.82l83.55.09"/><rect class="cls-4" x="93.48" y="51.98" width="20.89" height="1.88" rx=".94" transform="rotate(.06 105.067 47.691)"/><rect class="cls-5" x="34.88" y="51.54" width="2.61" height="2.61" rx="1.31" transform="rotate(.06 38.222 47.726)"/><rect class="cls-5" x="38.8" y="51.55" width="2.61" height="2.61" rx="1.31" transform="rotate(.06 38.222 47.726)"/><rect class="cls-5" x="42.71" y="51.55" width="2.61" height="2.61" rx="1.31" transform="rotate(.06 47.771 47.721)"/><rect x="13.28" y="94.63" width="6.95" height="35.64" rx="1.62" transform="rotate(-131.55 16.758 112.446)" fill="#fff" stroke="#007b64" stroke-miterlimit="10" stroke-width="2"/><circle class="cls-4" cx="43.63" cy="88.64" r="22.6"/><circle class="cls-2" cx="43.63" cy="88.64" r="17.82"/><path class="cls-3" d="M39.31 98.86c-5.38 1.49-11.15-1.55-11.15-1.55a17.84 17.84 0 0029.29 2.75c-3.2-4.26-9.45-4.25-18.14-1.2z"/><path class="cls-1" d="M102.52 78.46h9.82M88.25 84.4h24.09m-31.33 5.94h31.33m-34.08 5.93h34.08m-34.08 5.94h34.08"/></g></svg>