<svg xmlns="http://www.w3.org/2000/svg" viewBox="0 0 145 145"><defs><style>.cls-4{fill:none;stroke:#007b64;stroke-miterlimit:10;stroke-width:2px}</style></defs><g id="_25_Налоговый_калькулятор" data-name="25 Налоговый калькулятор"><path d="M6.76 138.29h135M110 52.56a19 19 0 01.25 37.54" stroke-linecap="round" fill="none" stroke="#007b64" stroke-miterlimit="10" stroke-width="2"/><path d="M99.14 138.29H34.69a6.86 6.86 0 01-6.86-6.86V47.86A6.86 6.86 0 0134.69 41h64.45a6.86 6.86 0 016.86 6.86v83.57a6.86 6.86 0 01-6.86 6.86z" fill="#fff" stroke="#007b64" stroke-miterlimit="10" stroke-width="2"/><path d="M95 70.93H38.85a2.69 2.69 0 01-2.7-2.69V54.51a2.7 2.7 0 012.7-2.7H95a2.7 2.7 0 012.7 2.7v13.73a2.69 2.69 0 01-2.7 2.69z" fill="#ffc463"/><rect class="cls-4" x="36.25" y="79.25" width="9.98" height="9.98" rx=".79"/><rect class="cls-4" x="53.35" y="79.25" width="9.98" height="9.98" rx=".79"/><rect class="cls-4" x="70.44" y="79.25" width="9.98" height="9.98" rx=".79"/><rect class="cls-4" x="87.53" y="79.25" width="9.98" height="9.98" rx=".79"/><rect class="cls-4" x="36.25" y="97.54" width="9.98" height="9.98" rx=".79"/><rect class="cls-4" x="53.35" y="97.54" width="9.98" height="9.98" rx=".79"/><rect class="cls-4" x="70.44" y="97.54" width="9.98" height="9.98" rx=".79"/><rect class="cls-4" x="87.53" y="97.54" width="9.98" height="9.98" rx=".79"/><rect class="cls-4" x="36.25" y="115.84" width="9.98" height="9.98" rx=".79"/><rect class="cls-4" x="53.35" y="115.84" width="9.98" height="9.98" rx=".79"/><rect class="cls-4" x="70.44" y="115.84" width="9.98" height="9.98" rx=".79"/><rect class="cls-4" x="87.53" y="115.84" width="9.98" height="9.98" rx=".79"/></g></svg>