<svg xmlns="http://www.w3.org/2000/svg" viewBox="0 0 145 145"><defs><style>.cls-1,.cls-4{fill:none;stroke:#007b64;}.cls-1,.cls-4,.cls-5{stroke-linecap:round;}.cls-1{stroke-linejoin:round;stroke-width:1.76px;}.cls-2,.cls-5,.cls-6{fill:#fff;}.cls-3{fill:#ebebeb;}.cls-4,.cls-5,.cls-6{stroke-miterlimit:10;stroke-width:2px;}.cls-5,.cls-6{stroke:#ffc463;}.cls-7{fill:#ffc463;}</style></defs><title>26 Сервис для поиска информации о ставках</title><g id="_26_Сервис_для_поиска_информации_о_ставках" data-name="26 Сервис для поиска информации о ставках"><line class="cls-1" x1="11.52" y1="138.82" x2="130.35" y2="138.82"/><path class="cls-2" d="M100.65,133.54V58.89a4.58,4.58,0,0,1,4.58-4.58h10.21A4.58,4.58,0,0,1,120,58.89v74.65"/><path class="cls-3" d="M113.58,54.31s-5.92,9.34-2.33,23-.52,21.95,8.77,34.46V60.43l-.71-4-1.56-1.51Z"/><path class="cls-4" d="M100.65,133.54V58.89a4.58,4.58,0,0,1,4.58-4.58h10.21A4.58,4.58,0,0,1,120,58.89v74.65"/><path class="cls-2" d="M67.48,133.54V54.63a4.69,4.69,0,0,0-4.7-4.7h-10a4.69,4.69,0,0,0-4.7,4.7v78.91"/><path class="cls-3" d="M54,49.93S50.23,61.37,57.8,70.25s3.59,30,9.68,38v-51l-.56-4.81-1.78-2.19Z"/><path class="cls-4" d="M67.48,133.54V54.63a4.69,4.69,0,0,0-4.7-4.7h-10a4.69,4.69,0,0,0-4.7,4.7v78.91"/><path class="cls-5" d="M74.38,133.54V73.48a4.12,4.12,0,0,1,4.12-4.11H89.63a4.11,4.11,0,0,1,4.12,4.11v60.06"/><path class="cls-5" d="M21.85,133.54V73.48A4.11,4.11,0,0,1,26,69.37H37.1a4.11,4.11,0,0,1,4.11,4.11v60.06"/><circle class="cls-6" cx="117.73" cy="53.8" r="12.8"/><path class="cls-7" d="M115.74,46.9a1.83,1.83,0,0,1,2-1.78,1.79,1.79,0,0,1,2,1.72,2,2,0,0,1-4,.06Zm.39,3.32h3.19v11h-3.19Z"/></g></svg>