<svg xmlns="http://www.w3.org/2000/svg" viewBox="0 0 145 145"><defs><style>.cls-4{fill:none;stroke:#007b64;stroke-linecap:round}.cls-2{fill:#fff}.cls-3{fill:#ebebeb}.cls-4{stroke-miterlimit:10;stroke-width:2px}</style></defs><g id="_26_Сервис_для_поиска_информации_о_ставках" data-name="26 Сервис для поиска информации о ставках"><path stroke-linejoin="round" stroke-width="1.76" stroke-linecap="round" fill="none" stroke="#007b64" d="M11.52 138.82h118.83"/><path class="cls-2" d="M100.65 133.54V58.89a4.58 4.58 0 014.58-4.58h10.21a4.58 4.58 0 014.56 4.58v74.65"/><path class="cls-3" d="M113.58 54.31s-5.92 9.34-2.33 23-.52 21.95 8.77 34.46V60.43l-.71-4-1.56-1.51z"/><path class="cls-4" d="M100.65 133.54V58.89a4.58 4.58 0 014.58-4.58h10.21a4.58 4.58 0 014.56 4.58v74.65"/><path class="cls-2" d="M67.48 133.54V54.63a4.69 4.69 0 00-4.7-4.7h-10a4.69 4.69 0 00-4.7 4.7v78.91"/><path class="cls-3" d="M54 49.93s-3.77 11.44 3.8 20.32 3.59 30 9.68 38v-51l-.56-4.81-1.78-2.19z"/><path class="cls-4" d="M67.48 133.54V54.63a4.69 4.69 0 00-4.7-4.7h-10a4.69 4.69 0 00-4.7 4.7v78.91"/><path d="M74.38 133.54V73.48a4.12 4.12 0 014.12-4.11h11.13a4.11 4.11 0 014.12 4.11v60.06m-71.9 0V73.48A4.11 4.11 0 0126 69.37h11.1a4.11 4.11 0 014.11 4.11v60.06" stroke="#ffc463" stroke-miterlimit="10" stroke-width="2" fill="#fff" stroke-linecap="round"/><circle cx="117.73" cy="53.8" r="12.8" stroke="#ffc463" stroke-miterlimit="10" stroke-width="2" fill="#fff"/><path d="M115.74 46.9a1.83 1.83 0 012-1.78 1.79 1.79 0 012 1.72 2 2 0 01-4 .06zm.39 3.32h3.19v11h-3.19z" fill="#ffc463"/></g></svg>