<svg xmlns="http://www.w3.org/2000/svg" viewBox="0 0 145 145"><defs><style>.cls-4{fill:none}.cls-4,.cls-5{stroke:#007b64;stroke-linecap:round;stroke-linejoin:round}.cls-2,.cls-5{fill:#fff}.cls-3{fill:#ebebeb}.cls-4,.cls-5{stroke-width:2px}</style></defs><g id="_27_Представление_нотариусами_сообщений_о_выдаче_свидетельств_о_праве_на_наследство_и_об_удостоверении_договоров_отчуждения_дарения_мены_купли-продажи_ренты_" data-name="27 Представление нотариусами сообщений о выдаче свидетельств о праве на наследство и об удостоверении договоров отчуждения (дарения, мены, купли-продажи, ренты)"><path d="M7.48 138.55H127.1m4.51 0h10.87" stroke-width="2.09" stroke="#007b64" stroke-linecap="round" stroke-linejoin="round" fill="none"/><rect class="cls-2" x="27.28" y="53.97" width="58.15" height="84.59" rx="6.17"/><path class="cls-3" d="M41.14 54.78s1 9.51-5 16.54c-4.67 5.49-5.86 18.25-9.39 20l.62-31.14.35-3 1.59-1.7 3.15-1.49 9.25.01z"/><path class="cls-4" d="M27.28 111.66V60.13A6.17 6.17 0 0133.45 54h45.82a6.16 6.16 0 016.17 6.16v72.26a6.16 6.16 0 01-6.17 6.16H33.45a6.17 6.17 0 01-6.17-6.16v-13.37"/><rect class="cls-5" x="34.49" y="48.37" width="62" height="90.18" rx="6.58"/><path class="cls-3" d="M35.43 92.77s5.82 4.25 8 24.36 5.1 21.24 7.1 21.32l-10.89-.06-3.09-1.67-1.78-2.94-.31-41z"/><rect class="cls-4" x="34.49" y="48.37" width="62" height="90.18" rx="6.58"/><path class="cls-2" d="M109.48 120.94v11.61a6 6 0 01-6 6h-54a6 6 0 01-6-6v-84a6 6 0 016-6H92l17.49 18.5"/><path d="M43.42 130.05h66v1a7 7 0 01-7 7h-52a7 7 0 01-7-7v-1z" fill="#f1f1f1"/><path class="cls-4" d="M109.48 119.71v12.84a6 6 0 01-6 6h-54a6 6 0 01-6-6v-84a6 6 0 016-6h42.08a1 1 0 01.73.31l17.19 18.19m0 20.7v32.68m0-53.12v12.03"/><path class="cls-4" d="M101.48 61.05h-5a6 6 0 01-6-6v-5"/><path class="cls-5" d="M52.48 112.75H88.5"/><path stroke-width="1.91" fill="#fff" stroke-linecap="round" stroke-linejoin="round" stroke="#007b64" d="M52.48 105.94H85.5"/><path stroke-width="1.8" fill="#fff" stroke-linecap="round" stroke-linejoin="round" stroke="#007b64" d="M52.48 99.12H81.5"/><path class="cls-5" d="M52.48 92.3H78.5m-26.02 27.27H88.5"/><rect x="51.48" y="61.56" width="33.02" height="19" rx="2.65" fill="#ffc463"/><path d="M115.62 118l-5.9-2.24a.63.63 0 00-.43 0l-5.9 2.24a.51.51 0 01-.25 0 1.37 1.37 0 01-1.42-1.18v-15.1c0-.16.19-.29.42-.29h14.73c.23 0 .42.13.42.29v15.1a1.37 1.37 0 01-1.42 1.18.51.51 0 01-.25 0z" fill="#007b64"/><circle class="cls-5" cx="109.51" cy="92.23" r="13.67"/><path stroke="#ffc463" stroke-width=".5" fill="#ffc463" stroke-linecap="round" stroke-linejoin="round" d="M109.5 84.35l2.57 5.19 5.72.83-4.14 4.04.98 5.7-5.13-2.69-5.12 2.69.98-5.7-4.14-4.04 5.72-.83 2.56-5.19z"/></g></svg>