<svg xmlns="http://www.w3.org/2000/svg" viewBox="0 0 145 145"><defs><style>.cls-1,.cls-4{fill:none;stroke-linecap:round;stroke:#007b64}.cls-1,.cls-8{stroke-miterlimit:10}.cls-1,.cls-4,.cls-8{stroke-width:2px}.cls-8{fill:#fff}.cls-3{fill:#ebebeb}.cls-4{stroke-linejoin:round}.cls-8{stroke:#ffc463}.cls-6{fill:#ffc463}.cls-7{fill:#c4c4c4}</style></defs><g id="_28_Предоставление_заявлений_в_электронном_виде_на_лицензию_по_игорному_бизнесу" data-name="28 Предоставление заявлений в электронном виде на лицензию по игорному бизнесу"><path class="cls-1" d="M3.24 139.64h135"/><rect x="42.5" y="41" width="69" height="98" rx="5.96" fill="#fff"/><path class="cls-3" d="M32.89 50.55s4.87 6-2.34 16.1c-3.07 4.35-4.49 12.76-4.49 19.72 0 5-5.69 8.51-6.51 12L17.61 59v-4.58l2.1-2.05 3-1.1z"/><path class="cls-4" d="M36.35 133.09l-8.76.52a5.56 5.56 0 01-5.87-5.22L17.5 57.14a5.56 5.56 0 015.22-5.87l13.18-.84"/><path class="cls-3" d="M41.72 130.52H111v4.17a4.95 4.95 0 01-4.95 4.95H46.67a4.95 4.95 0 01-4.95-4.95v-4.17z"/><path class="cls-4" d="M50.54 96.58h21.39m-21.39-5.95h17.75m-17.75 11.89h29.32m-29.32 5.95h35.47m-35.47 5.95h35.47"/><path stroke="#ffc463" stroke-linejoin="round" stroke-width="2" fill="none" stroke-linecap="round" d="M50.54 72.42h9.95"/><path class="cls-4" d="M111.44 89.74V133a6.64 6.64 0 01-6.64 6.64H47.89a6.64 6.64 0 01-6.64-6.64V47.64A6.64 6.64 0 0147.89 41h56.91a6.65 6.65 0 016.12 4 6.76 6.76 0 01.52 2.59v7.87"/><path class="cls-1" d="M46.85 50.51l59.75.07"/><rect class="cls-6" x="88.76" y="44.87" width="15.18" height="1.88" rx=".8" transform="translate(.07 -.14)"/><rect class="cls-7" x="48.73" y="44.57" width="2.47" height="2.47" rx="1.23" transform="rotate(.06 47.771 47.721)"/><rect class="cls-7" x="52.43" y="44.58" width="2.47" height="2.47" rx="1.23" transform="rotate(.06 57.32 47.716)"/><rect class="cls-7" x="56.13" y="44.58" width="2.47" height="2.47" rx="1.23" transform="rotate(.06 57.32 47.716)"/><rect class="cls-8" x="101.67" y="61.18" width="22.33" height="22.33" rx="2.47"/><circle class="cls-6" cx="112.83" cy="72.34" r="3.08"/><rect class="cls-8" x="84.22" y="77.33" width="22.33" height="22.33" rx="2.47"/><circle class="cls-6" cx="95.37" cy="88.45" r="2.47"/><circle class="cls-6" cx="89.48" cy="82.63" r="2.47"/><circle class="cls-6" cx="101.37" cy="82.54" r="2.38"/><circle class="cls-6" cx="101.37" cy="94.44" r="2.38"/><circle class="cls-6" cx="89.48" cy="94.35" r="2.47"/></g></svg>