<svg xmlns="http://www.w3.org/2000/svg" viewBox="0 0 145 145"><defs><style>.cls-1,.cls-5{fill:#fff;}.cls-2,.cls-4,.cls-7{fill:none;}.cls-2,.cls-4,.cls-5{stroke:#007b64;}.cls-2,.cls-4,.cls-5,.cls-7{stroke-linecap:round;stroke-linejoin:round;}.cls-2,.cls-5,.cls-7{stroke-width:2px;}.cls-3{fill:#ebebeb;}.cls-4{stroke-width:1.91px;}.cls-6{fill:#ffc463;}.cls-7{stroke:#ffc463;}</style></defs><title>29 Нормативные и методические материалы налоговых органов для организаций и ИП</title><g id="_29_Нормативные_и_методические_материалы_налоговых_органов_для_организаций_и_ИП" data-name="29 Нормативные и методические материалы налоговых органов для организаций и ИП"><rect class="cls-1" x="52.5" y="48" width="63" height="90" rx="5"/><line class="cls-2" x1="139.24" y1="138.86" x2="19.62" y2="138.86"/><line class="cls-2" x1="15.12" y1="138.86" x2="4.24" y2="138.86"/><path class="cls-3" d="M105.34,47.7s0,5.36,3.2,13.75c3,7.91,3.62,7.44,2.58,14.78-1,6.88,4.66,13.72,4.66,13.72l0-37.86-1.52-3.28L110,47Z"/><path class="cls-3" d="M80.67,138.86s1.52-9.09,13.71-11.45S98.78,115,106.58,113v20.13l-2,4.4-4.65,1.34Z"/><rect class="cls-1" x="48" y="48" width="63" height="90" rx="5"/><path class="cls-4" d="M59.36,138.86H49.17a5.74,5.74,0,0,1-5.74-5.74"/><path class="cls-2" d="M92,47h8.86a5.74,5.74,0,0,1,5.74,5.74v80.37a5.74,5.74,0,0,1-5.74,5.74H96.41"/><path class="cls-2" d="M56.46,47H110a5.74,5.74,0,0,1,5.74,5.74v80.37a5.74,5.74,0,0,1-5.74,5.74H58.38"/><rect class="cls-1" x="34.5" y="47" width="63" height="80" rx="5"/><path class="cls-2" d="M34.22,120.49V52.4a5.4,5.4,0,0,1,3.17-4.91A5.33,5.33,0,0,1,39.61,47h3.75"/><path class="cls-5" d="M56.88,47H92a5.39,5.39,0,0,1,5.39,5.39v70.19A5.39,5.39,0,0,1,92,128H60.56"/><path class="cls-1" d="M79.74,122.1v-1.61H29.32a1.61,1.61,0,0,0-1.61,1.61A5.88,5.88,0,0,0,33.59,128h52a5.25,5.25,0,0,1-.56,0A5.88,5.88,0,0,1,79.74,122.1Z"/><path class="cls-2" d="M79.74,122.1v-1.61H29.32a1.61,1.61,0,0,0-1.61,1.61A5.88,5.88,0,0,0,33.59,128h52a5.25,5.25,0,0,1-.56,0A5.88,5.88,0,0,1,79.74,122.1Z"/><line class="cls-5" x1="42.89" y1="81.93" x2="85.83" y2="81.93"/><line class="cls-5" x1="42.89" y1="75.41" x2="85.83" y2="75.41"/><line class="cls-5" x1="42.89" y1="68.88" x2="85.83" y2="68.88"/><line class="cls-5" x1="42.89" y1="62.36" x2="85.83" y2="62.36"/><line class="cls-5" x1="42.89" y1="88.45" x2="85.83" y2="88.45"/><rect class="cls-6" x="41.93" y="95.54" width="45.02" height="14.5" rx="2.7"/><path class="cls-7" d="M52.46,51.16V52a2.4,2.4,0,0,1-2.39,2.4h0A2.4,2.4,0,0,1,47.66,52V43.39A2.39,2.39,0,0,1,50.05,41h0a2.39,2.39,0,0,1,2.39,2.39V46a1.75,1.75,0,0,1-1.75,1.75h0"/></g></svg>