<svg xmlns="http://www.w3.org/2000/svg" viewBox="0 0 145 145"><defs><style>.cls-1,.cls-5{fill:#fff}.cls-2{fill:none}.cls-2,.cls-5{stroke:#007b64;stroke-linecap:round;stroke-linejoin:round;stroke-width:2px}</style></defs><g id="_29_Нормативные_и_методические_материалы_налоговых_органов_для_организаций_и_ИП" data-name="29 Нормативные и методические материалы налоговых органов для организаций и ИП"><rect class="cls-1" x="52.5" y="48" width="63" height="90" rx="5"/><path class="cls-2" d="M139.24 138.86H19.62m-4.5 0H4.24"/><path d="M105.34 47.7s0 5.36 3.2 13.75c3 7.91 3.62 7.44 2.58 14.78-1 6.88 4.66 13.72 4.66 13.72V52.09l-1.52-3.28L110 47zm-24.67 91.16s1.52-9.09 13.71-11.45 4.4-12.41 12.2-14.41v20.13l-2 4.4-4.65 1.34z" fill="#ebebeb"/><rect class="cls-1" x="48" y="48" width="63" height="90" rx="5"/><path d="M59.36 138.86H49.17a5.74 5.74 0 01-5.74-5.74" stroke-width="1.91" stroke-linecap="round" stroke-linejoin="round" stroke="#007b64" fill="none"/><path class="cls-2" d="M92 47h8.86a5.74 5.74 0 015.74 5.74v80.37a5.74 5.74 0 01-5.74 5.74h-4.45"/><path class="cls-2" d="M56.46 47H110a5.74 5.74 0 015.74 5.74v80.37a5.74 5.74 0 01-5.74 5.74H58.38"/><rect class="cls-1" x="34.5" y="47" width="63" height="80" rx="5"/><path class="cls-2" d="M34.22 120.49V52.4a5.4 5.4 0 013.17-4.91 5.33 5.33 0 012.22-.49h3.75"/><path class="cls-5" d="M56.88 47H92a5.39 5.39 0 015.39 5.39v70.19A5.39 5.39 0 0192 128H60.56"/><path class="cls-1" d="M79.74 122.1v-1.61H29.32a1.61 1.61 0 00-1.61 1.61 5.88 5.88 0 005.88 5.9h52a5.25 5.25 0 01-.56 0 5.88 5.88 0 01-5.29-5.9z"/><path class="cls-2" d="M79.74 122.1v-1.61H29.32a1.61 1.61 0 00-1.61 1.61 5.88 5.88 0 005.88 5.9h52a5.25 5.25 0 01-.56 0 5.88 5.88 0 01-5.29-5.9z"/><path class="cls-5" d="M42.89 81.93h42.94m-42.94-6.52h42.94m-42.94-6.53h42.94m-42.94-6.52h42.94M42.89 88.45h42.94"/><rect x="41.93" y="95.54" width="45.02" height="14.5" rx="2.7" fill="#ffc463"/><path d="M52.46 51.16V52a2.4 2.4 0 01-2.39 2.4h0a2.4 2.4 0 01-2.41-2.4v-8.61A2.39 2.39 0 0150.05 41h0a2.39 2.39 0 012.39 2.39V46a1.75 1.75 0 01-1.75 1.75h0" stroke="#ffc463" stroke-width="2" stroke-linecap="round" stroke-linejoin="round" fill="none"/></g></svg>