<svg xmlns="http://www.w3.org/2000/svg" viewBox="0 0 145 145"><defs><style>.cls-1{fill:none;stroke:#007b64;stroke-linecap:round;stroke-linejoin:round;stroke-width:2px}.cls-2{fill:#fff}.cls-3{fill:#ebebeb}.cls-4{fill:#ffc463}</style></defs><g id="_3_Личный_кабинет" data-name="3 Личный кабинет"><path class="cls-1" d="M125.53 139.36H24.02m-5.08 0H6.56m135 0h-8.45"/><path class="cls-2" d="M106.25 139.36H41.44a6.48 6.48 0 01-6.44-6.48v-10.37c0-17.79 7.93-32.23 25.59-32.41a1.35 1.35 0 01.62.15l11 5.53a3.69 3.69 0 003.24 0l11.05-5.53a1.35 1.35 0 01.62-.15c17.67.18 25.6 14.62 25.6 32.41v10.37a6.48 6.48 0 01-6.47 6.48z"/><path class="cls-3" d="M110.61 107.92a19.45 19.45 0 01-5.66 11.8c-3.16 3.17-2.68 16.13-4.48 18.82l1.9.82 4.64-1.15 2.69-.9 1.79-2.68 1.53-7.74-.51-9.32-.71-5z"/><path class="cls-4" d="M71.4 97.93h5.49a.75.75 0 01.73.6l3.54 17.6a.72.72 0 01-.19.66l-6.29 6.56a.74.74 0 01-1.08 0l-6.28-6.56a.72.72 0 01-.19-.66l3.53-17.6a.75.75 0 01.74-.6z"/><path class="cls-4" d="M77.54 98.62h-6.8a.5.5 0 01-.49-.41l-.86-5.07a.5.5 0 01.7-.53l3.84 1.82a.47.47 0 00.43 0l3.83-1.82a.49.49 0 01.7.53L78 98.21a.5.5 0 01-.46.41z"/><path d="M35.05 119.26c.06-1 .14-2.07.26-3.08a45.39 45.39 0 011-5.66c2.9-11.67 10.5-20 23.56-20.4a2.39 2.39 0 011.2.29 29.36 29.36 0 0013.4 3.32 22.47 22.47 0 0012.05-3.22 2.45 2.45 0 011.36-.39c17.13.59 24.83 14.86 24.83 32.39v8a8.89 8.89 0 01-8.89 8.89h-60a8.88 8.88 0 01-8.82-8.93h0v-3.06" stroke-width="1.79" stroke-linejoin="round" fill="none" stroke="#007b64" stroke-linecap="round"/><path d="M50.02 123.8v15.56m47.96-15.56v15.56" stroke-miterlimit="10" stroke-width="2" fill="none" stroke="#007b64" stroke-linecap="round"/><path class="cls-2" d="M92.51 47.82a23.75 23.75 0 011.68 2.3A23.65 23.65 0 0196.92 70 24 24 0 1174 39.15a24.43 24.43 0 017.4 1.15 25.27 25.27 0 013.52 1.45c.54.28 1.06.57 1.58.88"/><path class="cls-3" d="M97.58 55.62s-1.56.05-3.22 5C93.47 63.27 88.09 72.17 83.6 74c-6.74 2.68-7.68 11.55-8.07 12.47-.69 1.64 4.49 0 4.49 0L83.3 85l4.18-2.26 5-4.53 2.57-3.77 2-4 .95-7.17z"/><path class="cls-1" d="M92.51 47.82a23.75 23.75 0 011.68 2.3A23.65 23.65 0 0196.92 70 24 24 0 1174 39.15a24.43 24.43 0 017.4 1.15 25.27 25.27 0 013.52 1.45c.54.28 1.06.57 1.58.88"/></g></svg>