<svg xmlns="http://www.w3.org/2000/svg" viewBox="0 0 145 145"><defs><style>.cls-1,.cls-3{fill:none;stroke:#007b64;stroke-linecap:round;stroke-linejoin:round;stroke-width:2px}.cls-3{stroke:#ffc463}.cls-4{fill:#ebebeb}</style></defs><g id="_30_Создай_свой_бизнес" data-name="30 Создай свой бизнес"><path class="cls-1" d="M141.05 138.39h-135"/><rect x="13" y="58" width="111" height="80" rx="15" fill="#fff"/><path class="cls-3" d="M49.52 58.36v-5a7.92 7.92 0 017.86-8h21.87a7.92 7.92 0 017.87 8v5"/><path class="cls-4" d="M19.09 104.9a48.21 48.21 0 0110.48 18.67c3.21 11.23 14.12 14.8 14.12 14.8H22.52l-6.11-3.89-4-5.62v-29z"/><path d="M124.26 80.89l-.05 20v23.92a13.54 13.54 0 01-13.45 13.62H92.1" stroke-miterlimit="10" stroke-width="2" stroke="#007b64" fill="none"/><path class="cls-1" d="M94.8 138.39H25.85a13.54 13.54 0 01-13.46-13.62V72a13.54 13.54 0 0113.45-13.64"/><path class="cls-4" d="M12.39 93.12s6.92-10 7.88-15.76 10.51-11.55 9.35-19l-9.35 1-6.1 5.14-1.78 4.2z"/><path class="cls-1" d="M82.89 106.75h27.89a13.49 13.49 0 0013-9.93c.33-1.17.5-17.24.5-18.53m-21.39-19.93h-77A13.56 13.56 0 0012.39 72v21.12a13.55 13.55 0 0013.46 13.63h45.37"/><path d="M42.34 110.32a5.31 5.31 0 01-5.27 5.34h-.35a5.31 5.31 0 01-5.27-5.34v-6.61a5.3 5.3 0 015.27-5.33h.35a5.3 5.3 0 015.27 5.33zm62.84 0a5.3 5.3 0 01-5.26 5.34h-.35a5.3 5.3 0 01-5.27-5.33v-6.62a5.3 5.3 0 015.26-5.33h.36a5.29 5.29 0 015.26 5.33z" fill="#ffc463"/><circle cx="121.05" cy="60.13" r="13.65" stroke="#ffc463" fill="#fff" stroke-width="2" stroke-linecap="round" stroke-linejoin="round"/><path class="cls-3" d="M115.82 56l5.26-4.36 5.19 4.36m-5.22 12.54v-16.9"/></g></svg>