<svg xmlns="http://www.w3.org/2000/svg" viewBox="0 0 145 145"><defs><style>.cls-1,.cls-3,.cls-5{fill:none;}.cls-1,.cls-5{stroke:#007b64;}.cls-1,.cls-3,.cls-7{stroke-linecap:round;stroke-linejoin:round;}.cls-1,.cls-3,.cls-5,.cls-7{stroke-width:2px;}.cls-2,.cls-7{fill:#fff;}.cls-3,.cls-7{stroke:#ffc463;}.cls-4{fill:#ebebeb;}.cls-5{stroke-miterlimit:10;}.cls-6{fill:#ffc463;}</style></defs><title>30 Создай свой бизнес</title><g id="_30_Создай_свой_бизнес" data-name="30 Создай свой бизнес"><line class="cls-1" x1="141.05" y1="138.39" x2="6.05" y2="138.39"/><rect class="cls-2" x="13" y="58" width="111" height="80" rx="15"/><path class="cls-3" d="M49.52,58.36v-5a7.92,7.92,0,0,1,7.86-8H79.25a7.92,7.92,0,0,1,7.87,8v5"/><path class="cls-4" d="M19.09,104.9a48.21,48.21,0,0,1,10.48,18.67c3.21,11.23,14.12,14.8,14.12,14.8H22.52l-6.11-3.89-4-5.62v-29Z"/><path class="cls-5" d="M124.26,80.89l-.05,20v23.92a13.54,13.54,0,0,1-13.45,13.62H92.1"/><path class="cls-1" d="M94.8,138.39H25.85a13.54,13.54,0,0,1-13.46-13.62V72A13.54,13.54,0,0,1,25.84,58.36"/><path class="cls-4" d="M12.39,93.12s6.92-10,7.88-15.76,10.51-11.55,9.35-19l-9.35,1-6.1,5.14L12.39,68.7Z"/><path class="cls-1" d="M82.89,106.75h27.89a13.49,13.49,0,0,0,13-9.93c.33-1.17.5-17.24.5-18.53"/><path class="cls-1" d="M102.89,58.36h-77A13.56,13.56,0,0,0,12.39,72V93.12a13.55,13.55,0,0,0,13.46,13.63H71.22"/><path class="cls-6" d="M42.34,110.32a5.31,5.31,0,0,1-5.27,5.34h-.35a5.31,5.31,0,0,1-5.27-5.34v-6.61a5.3,5.3,0,0,1,5.27-5.33h.35a5.3,5.3,0,0,1,5.27,5.33Z"/><path class="cls-6" d="M105.18,110.32a5.3,5.3,0,0,1-5.26,5.34h-.35a5.3,5.3,0,0,1-5.27-5.33v-6.62a5.3,5.3,0,0,1,5.26-5.33h.36a5.29,5.29,0,0,1,5.26,5.33Z"/><circle class="cls-7" cx="121.05" cy="60.13" r="13.65"/><path class="cls-3" d="M115.82,56l5.26-4.36L126.27,56m-5.22,12.54,0-16.9"/></g></svg>