<svg xmlns="http://www.w3.org/2000/svg" viewBox="0 0 145 145"><defs><style>.cls-1,.cls-3{fill:none;stroke:#007b64;stroke-width:2px;}.cls-1,.cls-3,.cls-6{stroke-linecap:round;}.cls-1{stroke-miterlimit:10;}.cls-2{fill:#ebebeb;}.cls-3,.cls-6{stroke-linejoin:round;}.cls-4{fill:#007b64;}.cls-5{fill:#fff;}.cls-6,.cls-7{fill:#ffc463;}.cls-6{stroke:#ffc463;stroke-width:0.46px;}</style></defs><title>31 Налогообложение физических лиц и ответы на актуальные вопросы налогоплательщиков</title><g id="_31_Налогообложение_физических_лиц_и_ответы_на_актуальные_вопросы_налогоплательщиков" data-name="31 Налогообложение физических лиц и ответы на актуальные вопросы налогоплательщиков"><line class="cls-1" x1="27.74" y1="139.31" x2="142.26" y2="139.31"/><path class="cls-2" d="M7,78s16,1,21,10,11,26,24,28H12l-3-1-2-3Z"/><path class="cls-3" d="M69.87,104.08v7.45a4.4,4.4,0,0,1-4.4,4.4H11.66a4.4,4.4,0,0,1-4.4-4.4V76.1a4.41,4.41,0,0,1,4.4-4.41H40.12"/><rect class="cls-4" x="14.56" y="79.77" width="19.89" height="26.62" rx="3.65"/><polyline class="cls-3" points="40.77 120.15 17.91 135.79 17.91 120.15"/><rect class="cls-5" x="46.18" y="42" width="77.84" height="54.99" rx="5.48"/><rect class="cls-3" x="46.18" y="42" width="77.84" height="54.99" rx="5.48"/><line class="cls-3" x1="55.99" y1="77.94" x2="112.44" y2="77.94"/><line class="cls-3" x1="55.99" y1="83.56" x2="112.44" y2="83.56"/><line class="cls-3" x1="55.99" y1="89.17" x2="112.44" y2="89.17"/><path class="cls-6" d="M102.33,62.66l-.06-.67a5.42,5.42,0,0,1,1.83-4.44c1.32-1.36,2.06-2.36,2.06-3.52,0-1.31-1-2.18-2.8-2.21a5.73,5.73,0,0,0-3,.8L99.68,51a8.53,8.53,0,0,1,4.21-1c3.39,0,4.92,1.83,4.92,3.78,0,1.74-1.12,3-2.54,4.47A4.71,4.71,0,0,0,104.6,62l0,.67Zm-.65,3.59a1.63,1.63,0,0,1,1.77-1.61,1.61,1.61,0,1,1,0,3.21A1.62,1.62,0,0,1,101.68,66.25Z"/><rect class="cls-7" x="55.09" y="48.02" width="23.25" height="21.79" rx="3.65"/><polyline class="cls-3" points="84.22 100.78 111.12 119.19 111.12 100.78"/></g></svg>