<svg xmlns="http://www.w3.org/2000/svg" viewBox="0 0 145 145"><defs><style>.cls-3{fill:none;stroke:#007b64;stroke-width:2px;stroke-linecap:round;stroke-linejoin:round}</style></defs><g id="_31_Налогообложение_физических_лиц_и_ответы_на_актуальные_вопросы_налогоплательщиков" data-name="31 Налогообложение физических лиц и ответы на актуальные вопросы налогоплательщиков"><path stroke-miterlimit="10" stroke-linecap="round" fill="none" stroke="#007b64" stroke-width="2" d="M27.74 139.31h114.52"/><path d="M7 78s16 1 21 10 11 26 24 28H12l-3-1-2-3z" fill="#ebebeb"/><path class="cls-3" d="M69.87 104.08v7.45a4.4 4.4 0 01-4.4 4.4H11.66a4.4 4.4 0 01-4.4-4.4V76.1a4.41 4.41 0 014.4-4.41h28.46"/><rect x="14.56" y="79.77" width="19.89" height="26.62" rx="3.65" fill="#007b64"/><path class="cls-3" d="M40.77 120.15l-22.86 15.64v-15.64"/><rect x="46.18" y="42" width="77.84" height="54.99" rx="5.48" fill="#fff"/><rect class="cls-3" x="46.18" y="42" width="77.84" height="54.99" rx="5.48"/><path class="cls-3" d="M55.99 77.94h56.45m-56.45 5.62h56.45m-56.45 5.61h56.45"/><path d="M102.33 62.66l-.06-.67a5.42 5.42 0 011.83-4.44c1.32-1.36 2.06-2.36 2.06-3.52 0-1.31-1-2.18-2.8-2.21a5.73 5.73 0 00-3 .8L99.68 51a8.53 8.53 0 014.21-1c3.39 0 4.92 1.83 4.92 3.78 0 1.74-1.12 3-2.54 4.47A4.71 4.71 0 00104.6 62v.67zm-.65 3.59a1.63 1.63 0 011.77-1.61 1.61 1.61 0 110 3.21 1.62 1.62 0 01-1.77-1.6z" stroke="#ffc463" stroke-width=".46" fill="#ffc463" stroke-linejoin="round" stroke-linecap="round"/><rect x="55.09" y="48.02" width="23.25" height="21.79" rx="3.65" fill="#ffc463"/><path class="cls-3" d="M84.22 100.78l26.9 18.41v-18.41"/></g></svg>