<svg xmlns="http://www.w3.org/2000/svg" viewBox="0 0 145 145"><defs><style>.cls-1,.cls-5,.cls-9{fill:none;}.cls-1,.cls-10,.cls-2,.cls-5,.cls-6,.cls-8,.cls-9{stroke:#007b64;}.cls-1,.cls-10,.cls-2,.cls-5,.cls-6{stroke-linecap:round;stroke-linejoin:round;}.cls-1,.cls-10,.cls-2,.cls-8,.cls-9{stroke-width:2px;}.cls-2,.cls-3,.cls-6,.cls-8{fill:#fff;}.cls-4{fill:#ebebeb;}.cls-5,.cls-6{stroke-width:1.93px;}.cls-7{fill:#ffc463;}.cls-8,.cls-9{stroke-miterlimit:10;}.cls-10{fill:#f0f;}</style></defs><title>32 Бюджетные счета</title><g id="_32_Бюджетные_счета" data-name="32 Бюджетные счета"><line class="cls-1" x1="5.29" y1="138.57" x2="124.91" y2="138.57"/><line class="cls-1" x1="129.41" y1="138.57" x2="140.29" y2="138.57"/><path class="cls-2" d="M109.74,77.93a5.31,5.31,0,0,1,.91.64,5.66,5.66,0,0,1,1.94,4.28v43.66a5.67,5.67,0,0,1-5.67,5.67H37.21a5.67,5.67,0,0,1-5.67-5.67V82.85a5.67,5.67,0,0,1,5.67-5.67H49.28"/><path class="cls-3" d="M79.15,43.78l1.89,1,1.56.8,21,10.79a4.83,4.83,0,0,1,2.09,6.5L73.51,125.59A4.82,4.82,0,0,1,67,127.68L40.11,113.87A4.81,4.81,0,0,1,38,107.38L70.23,44.62A4.84,4.84,0,0,1,73.89,42a5.26,5.26,0,0,1,1.19,0"/><path class="cls-4" d="M70.62,45.33s-2.9,8.69-2.9,26.06c0,11.58-20.38,46.19-20.38,46.19l-8.57-4.7-1.28-3.53,31.88-63Z"/><path class="cls-5" d="M79.15,43.78l1.89,1,1.56.8,21,10.79a4.83,4.83,0,0,1,2.09,6.5L73.51,125.59A4.82,4.82,0,0,1,67,127.68L40.11,113.87A4.81,4.81,0,0,1,38,107.38L70.23,44.62A4.84,4.84,0,0,1,73.89,42a5.26,5.26,0,0,1,1.19,0"/><circle class="cls-6" cx="71.87" cy="85.11" r="8.68"/><circle class="cls-7" cx="83.33" cy="62.79" r="3.86"/><circle class="cls-7" cx="60.41" cy="107.43" r="3.86"/><rect class="cls-3" x="36.6" y="65.16" width="80.19" height="39.89" rx="4.82" transform="translate(-36.12 105.05) rotate(-58)"/><polygon class="cls-4" points="109.59 58.15 67.45 126.36 70.33 128.07 73.18 127.24 112.99 63.83 113.07 61.74 112.11 59.81 109.59 58.15"/><rect class="cls-5" x="36.6" y="65.16" width="80.19" height="39.89" rx="4.82" transform="translate(-36.12 105.05) rotate(-58)"/><circle class="cls-6" cx="76.7" cy="85.11" r="8.68"/><circle class="cls-7" cx="89.99" cy="63.83" r="3.86"/><circle class="cls-7" cx="63.4" cy="106.38" r="3.86"/><rect class="cls-8" x="28.16" y="83.57" width="84.43" height="55" rx="5.79"/><line class="cls-9" x1="28.16" y1="93.13" x2="112.59" y2="93.13"/><polyline class="cls-10" points="45.59 129.04 48.07 129.04 52.67 129.04 56.78 129.04 112.59 129.04"/><line class="cls-10" x1="28.16" y1="129.04" x2="36.41" y2="129.04"/><path class="cls-3" d="M97.52,101.42H114.7a2.72,2.72,0,0,1,2.72,2.72V118a2.72,2.72,0,0,1-2.72,2.72H97.52a9.05,9.05,0,0,1-9.05-9.05v-1.2A9.05,9.05,0,0,1,97.52,101.42Z"/><polygon class="cls-4" points="110.18 102.27 110.18 120.72 116.41 120.1 117.42 117.25 116.93 102.27 113.31 101.42 109.81 101.42 110.18 102.27"/><path class="cls-9" d="M97.52,101.42H114.7a2.72,2.72,0,0,1,2.72,2.72V118a2.72,2.72,0,0,1-2.72,2.72H97.52a9.05,9.05,0,0,1-9.05-9.05v-1.2A9.05,9.05,0,0,1,97.52,101.42Z"/><circle class="cls-7" cx="98.12" cy="111.07" r="4.34"/></g></svg>