<svg xmlns="http://www.w3.org/2000/svg" viewBox="0 0 145 145"><defs><style>.cls-5,.cls-9{fill:none}.cls-5,.cls-6,.cls-9{stroke:#007b64}.cls-5,.cls-6{stroke-linecap:round;stroke-linejoin:round}.cls-9{stroke-width:2px}.cls-3,.cls-6{fill:#fff}.cls-4{fill:#ebebeb}.cls-5,.cls-6{stroke-width:1.93px}.cls-7{fill:#ffc463}.cls-9{stroke-miterlimit:10}</style></defs><g id="_32_Бюджетные_счета" data-name="32 Бюджетные счета"><path d="M5.29 138.57h119.62m4.5 0h10.88" stroke-width="2" stroke-linecap="round" stroke-linejoin="round" stroke="#007b64" fill="none"/><path d="M109.74 77.93a5.31 5.31 0 01.91.64 5.66 5.66 0 011.94 4.28v43.66a5.67 5.67 0 01-5.67 5.67H37.21a5.67 5.67 0 01-5.67-5.67V82.85a5.67 5.67 0 015.67-5.67h12.07" fill="#fff" stroke-width="2" stroke-linecap="round" stroke-linejoin="round" stroke="#007b64"/><path class="cls-3" d="M79.15 43.78l1.89 1 1.56.8 21 10.79a4.83 4.83 0 012.09 6.5l-32.18 62.72a4.82 4.82 0 01-6.51 2.09l-26.89-13.81a4.81 4.81 0 01-2.11-6.49l32.23-62.76A4.84 4.84 0 0173.89 42a5.26 5.26 0 011.19 0"/><path class="cls-4" d="M70.62 45.33s-2.9 8.69-2.9 26.06c0 11.58-20.38 46.19-20.38 46.19l-8.57-4.7-1.28-3.53 31.88-63z"/><path class="cls-5" d="M79.15 43.78l1.89 1 1.56.8 21 10.79a4.83 4.83 0 012.09 6.5l-32.18 62.72a4.82 4.82 0 01-6.51 2.09l-26.89-13.81a4.81 4.81 0 01-2.11-6.49l32.23-62.76A4.84 4.84 0 0173.89 42a5.26 5.26 0 011.19 0"/><circle class="cls-6" cx="71.87" cy="85.11" r="8.68"/><circle class="cls-7" cx="83.33" cy="62.79" r="3.86"/><circle class="cls-7" cx="60.41" cy="107.43" r="3.86"/><rect class="cls-3" x="36.6" y="65.16" width="80.19" height="39.89" rx="4.82" transform="rotate(-58 76.698 85.106)"/><path class="cls-4" d="M109.59 58.15l-42.14 68.21 2.88 1.71 2.85-.83 39.81-63.41.08-2.09-.96-1.93-2.52-1.66z"/><rect class="cls-5" x="36.6" y="65.16" width="80.19" height="39.89" rx="4.82" transform="rotate(-58 76.698 85.106)"/><circle class="cls-6" cx="76.7" cy="85.11" r="8.68"/><circle class="cls-7" cx="89.99" cy="63.83" r="3.86"/><circle class="cls-7" cx="63.4" cy="106.38" r="3.86"/><rect x="28.16" y="83.57" width="84.43" height="55" rx="5.79" stroke-miterlimit="10" fill="#fff" stroke-width="2" stroke="#007b64"/><path class="cls-9" d="M28.16 93.13h84.43"/><path d="M45.59 129.04h67m-84.43 0h8.25" fill="#f0f" stroke-width="2" stroke-linecap="round" stroke-linejoin="round" stroke="#007b64"/><path class="cls-3" d="M97.52 101.42h17.18a2.72 2.72 0 012.72 2.72V118a2.72 2.72 0 01-2.72 2.72H97.52a9.05 9.05 0 01-9.05-9.05v-1.2a9.05 9.05 0 019.05-9.05z"/><path class="cls-4" d="M110.18 102.27v18.45l6.23-.62 1.01-2.85-.49-14.98-3.62-.85h-3.5l.37.85z"/><path class="cls-9" d="M97.52 101.42h17.18a2.72 2.72 0 012.72 2.72V118a2.72 2.72 0 01-2.72 2.72H97.52a9.05 9.05 0 01-9.05-9.05v-1.2a9.05 9.05 0 019.05-9.05z"/><circle class="cls-7" cx="98.12" cy="111.07" r="4.34"/></g></svg>