<svg xmlns="http://www.w3.org/2000/svg" viewBox="0 0 145 145"><defs><style>.cls-1{fill:none}.cls-1,.cls-4{stroke:#007b64;stroke-miterlimit:10;stroke-width:2px}.cls-1{stroke-linecap:round}.cls-2{fill:#ebebeb}.cls-4{fill:#fff}</style></defs><g id="_33_Личный_прием_руководством_инспекций" data-name="33 Личный прием руководством инспекций"><path class="cls-1" d="M6.01 138.53h125.22m3.77 0h6.01"/><path class="cls-2" d="M13.1 66.53h104.08v3.45H13.1z"/><path d="M33.48 50.2h78.07a6.44 6.44 0 016.45 6.44v75.45a6.44 6.44 0 01-6.45 6.44h-92a6.44 6.44 0 01-6.44-6.44V56.64a6.44 6.44 0 016.44-6.44h8.8" fill="#fff"/><path class="cls-2" d="M13.1 128.86h104.08v3.81a5.85 5.85 0 01-5.85 5.85H19a5.85 5.85 0 01-5.85-5.85v-3.81h-.05z"/><path class="cls-1" d="M33.48 50.2h78.07a6.44 6.44 0 016.45 6.44v75.45a6.44 6.44 0 01-6.45 6.44h-92a6.44 6.44 0 01-6.44-6.44V56.64a6.44 6.44 0 016.44-6.44h8.8m93.17 7.08a5.86 5.86 0 012.09 4.49v67.47a5.89 5.89 0 01-2.06 4.47"/><rect class="cls-4" x="33.48" y="41" width="6.44" height="18.4" rx="2.62"/><rect class="cls-4" x="47.9" y="41" width="6.44" height="18.4" rx="2.62"/><rect class="cls-4" x="62.33" y="41" width="6.44" height="18.4" rx="2.62"/><rect class="cls-4" x="76.75" y="41" width="6.44" height="18.4" rx="2.62"/><rect class="cls-4" x="91.17" y="41" width="6.44" height="18.4" rx="2.62"/><path stroke="#007b64" stroke-miterlimit="10" stroke-width="2" fill="none" d="M13.1 70.68H118"/><path d="M66.86 111.22v6H42.78v-4.78l12.29-11.6c2.83-2.68 3.33-4.32 3.33-5.84 0-2.5-1.73-4-5.1-4a7.78 7.78 0 00-6.6 3.19l-5.38-3.46c2.46-3.6 6.92-5.92 12.66-5.92 7.1 0 11.84 3.64 11.84 9.42 0 3.1-.87 5.92-5.33 10.06l-7.33 6.92zm27.14-4c0 5.64-4.14 10.56-13.25 10.56a22 22 0 01-12.15-3.41l2.91-5.65a15.35 15.35 0 009.06 2.87c3.69 0 6-1.55 6-4.14s-1.64-4.15-7.42-4.15H71l1.6-17.93H92v5.91H78.75l-.5 6.06h2.59c9.43 0 13.16 4.23 13.16 9.88z" fill="#ffc463"/></g></svg>