<svg xmlns="http://www.w3.org/2000/svg" viewBox="0 0 145 145"><defs><style>.cls-1,.cls-5{fill:none;}.cls-1,.cls-4,.cls-5{stroke:#007b64;stroke-miterlimit:10;stroke-width:2px;}.cls-1{stroke-linecap:round;}.cls-2{fill:#ebebeb;}.cls-3,.cls-4{fill:#fff;}.cls-6{fill:#ffc463;}</style></defs><title>33 Личный прием руководством инспекций</title><g id="_33_Личный_прием_руководством_инспекций" data-name="33 Личный прием руководством инспекций"><line class="cls-1" x1="6.01" y1="138.53" x2="131.23" y2="138.53"/><line class="cls-1" x1="135" y1="138.53" x2="141.01" y2="138.53"/><rect class="cls-2" x="13.1" y="66.53" width="104.08" height="3.45"/><path class="cls-3" d="M33.48,50.2h78.07A6.44,6.44,0,0,1,118,56.64v75.45a6.44,6.44,0,0,1-6.45,6.44h-92a6.44,6.44,0,0,1-6.44-6.44V56.64a6.44,6.44,0,0,1,6.44-6.44h8.8"/><path class="cls-2" d="M13.1,128.86H117.18a0,0,0,0,1,0,0v3.81a5.85,5.85,0,0,1-5.85,5.85H19a5.85,5.85,0,0,1-5.85-5.85v-3.81A0,0,0,0,1,13.1,128.86Z"/><path class="cls-1" d="M33.48,50.2h78.07A6.44,6.44,0,0,1,118,56.64v75.45a6.44,6.44,0,0,1-6.45,6.44h-92a6.44,6.44,0,0,1-6.44-6.44V56.64a6.44,6.44,0,0,1,6.44-6.44h8.8"/><path class="cls-1" d="M121.52,57.28a5.86,5.86,0,0,1,2.09,4.49v67.47a5.89,5.89,0,0,1-2.06,4.47"/><rect class="cls-4" x="33.48" y="41" width="6.44" height="18.4" rx="2.62"/><rect class="cls-4" x="47.9" y="41" width="6.44" height="18.4" rx="2.62"/><rect class="cls-4" x="62.33" y="41" width="6.44" height="18.4" rx="2.62"/><rect class="cls-4" x="76.75" y="41" width="6.44" height="18.4" rx="2.62"/><rect class="cls-4" x="91.17" y="41" width="6.44" height="18.4" rx="2.62"/><line class="cls-5" x1="13.1" y1="70.68" x2="118" y2="70.68"/><path class="cls-6" d="M66.86,111.22v6H42.78v-4.78l12.29-11.6C57.9,98.16,58.4,96.52,58.4,95c0-2.5-1.73-4-5.1-4a7.78,7.78,0,0,0-6.6,3.19l-5.38-3.46c2.46-3.6,6.92-5.92,12.66-5.92,7.1,0,11.84,3.64,11.84,9.42,0,3.1-.87,5.92-5.33,10.06l-7.33,6.92Z"/><path class="cls-6" d="M94,107.22c0,5.64-4.14,10.56-13.25,10.56a22,22,0,0,1-12.15-3.41l2.91-5.65a15.35,15.35,0,0,0,9.06,2.87c3.69,0,6-1.55,6-4.14s-1.64-4.15-7.42-4.15H71L72.6,85.37H92v5.91H78.75l-.5,6.06h2.59C90.27,97.34,94,101.57,94,107.22Z"/></g></svg>