<svg xmlns="http://www.w3.org/2000/svg" viewBox="0 0 145 145"><defs><style>.cls-1{fill:none;stroke:#007b64;stroke-linecap:round;stroke-linejoin:round;stroke-width:2px}.cls-2{fill:#ebebeb}.cls-4{fill:#fff}.cls-5{fill:#007b64}.cls-7{fill:#ffc463}</style></defs><g id="_4_Информация" data-name="4 Информация"><path class="cls-1" d="M4.59 139.61h135"/><path class="cls-2" d="M9.66 87.28s7.55-9.69 7.55-16.16 7.54-17.24 7.54-17.24l-12.59.21-2.88 3.72-.69 8.46v21z"/><path d="M17.6 139.44h-2.81a6.35 6.35 0 01-6.36-6.34v-8.35m120.8-71.31c3.51 0 6.36 2.85 6.36 7.43v73.31c0 2.42-2.85 5.26-6.36 5.26h-4.95M8.43 115.24V59.79a6.36 6.36 0 016.36-6.35" stroke-width="1.96" stroke="#007b64" stroke-linecap="round" stroke-linejoin="round" fill="none"/><path class="cls-4" d="M71.94 140.63h-52.8a6.47 6.47 0 01-6.47-6.47v-81.9a6.47 6.47 0 016.47-6.46h46.34a6.46 6.46 0 016.46 6.46z"/><path class="cls-5" d="M65.48 47.8a4.46 4.46 0 014.46 4.46v86.37h-50.8a4.47 4.47 0 01-4.47-4.47v-81.9a4.47 4.47 0 014.47-4.46h46.34m0-2H19.14a6.47 6.47 0 00-6.47 6.46v81.9a6.47 6.47 0 006.47 6.47h52.8V52.26a6.46 6.46 0 00-6.46-6.46z"/><path class="cls-4" d="M122.24 139.55H70.78V53.19c0-3.49 3.49-6.32 7.81-6.32h43.65c4.31 0 7.81 2.83 7.81 6.32v80c0 3.53-3.5 6.36-7.81 6.36z"/><path class="cls-2" d="M71.47 133.08H130a6.47 6.47 0 01-6.47 6.47H71.47v-6.47z"/><path class="cls-1" d="M118.31 46.87h3.93c4.31 0 7.81 2.83 7.81 6.32v80c0 3.49-3.5 6.32-7.81 6.32H70.78V53.19c0-3.49 3.49-6.32 7.81-6.32H95.8"/><path d="M23.74 96.44h34.64m-34.64 6.47h34.64m-34.64 6.47h34.64m-34.64 6.46h34.64" fill="#fff" stroke-width="2" stroke="#007b64" stroke-linecap="round" stroke-linejoin="round"/><rect class="cls-7" x="22.3" y="68.43" width="37.52" height="16.16" rx="1.08"/><rect class="cls-5" x="80.49" y="94.29" width="39.8" height="22.63" rx="1.08"/><path class="cls-7" d="M113.15 66.21L108 63.3a.33.33 0 00-.36 0l-5.17 2.91a.33.33 0 01-.22.05 1.46 1.46 0 01-1.25-1.53V45.09a.37.37 0 01.37-.37h12.88a.38.38 0 01.37.37v19.64a1.46 1.46 0 01-1.24 1.53.33.33 0 01-.23-.05z"/></g></svg>