<svg xmlns="http://www.w3.org/2000/svg" viewBox="0 0 145 145"><defs><style>.cls-1{fill:none;stroke:#007b64;stroke-linecap:round;stroke-linejoin:round;stroke-width:2px}.cls-2{fill:#fff}</style></defs><g id="_5_Перечень_иностранных_организаций" data-name="5 Перечень иностранных организаций"><path class="cls-1" d="M84.88 134.51h-60m-5.88.01H6"/><rect class="cls-2" x="21.5" y="55.5" width="111" height="79" rx="14.91"/><path d="M95.35 59.88a7.87 7.87 0 01-7.82 7.92H65.77A7.87 7.87 0 0158 59.87v-9.95A7.87 7.87 0 0165.77 42h21.76a7.87 7.87 0 017.82 7.92z" stroke="#ffc463" stroke-width="2" stroke-linecap="round" stroke-linejoin="round" fill="none"/><path d="M22.1 95.78s6.56 16.83 15 20c10 3.75 27.07 12.48 27.92 18.74l-32-.07-7-2.89-4.18-5.84-1-3.69V93.27z" fill="#ebebeb"/><path d="M132.29 89.34V121a13.47 13.47 0 01-13.39 13.55" stroke-width="1.98" stroke-miterlimit="10" stroke="#007b64" fill="none"/><path class="cls-1" d="M95 134.52H34.39A13.47 13.47 0 0121 121V68.46A13.47 13.47 0 0134.39 54.9h84.51a13.49 13.49 0 0113.39 13.57v12.72"/><path class="cls-2" d="M118.91 54.9H34.4A13.48 13.48 0 0021 68.47v21A13.47 13.47 0 0034.4 103h84.5a13.48 13.48 0 0013.39-13.56v-21a13.47 13.47 0 00-13.38-13.54z"/><path class="cls-1" d="M118.9 103a13.42 13.42 0 0012.89-9.87 14 14 0 00.5-3.69m0-7.97v-13a13.47 13.47 0 00-13.38-13.57H34.4A13.48 13.48 0 0021 68.47v21A13.47 13.47 0 0034.4 103h53.07"/><path d="M50.8 106.6a5.28 5.28 0 01-5.24 5.31h-.35A5.28 5.28 0 0140 106.6V100a5.28 5.28 0 015.24-5.31h.35A5.28 5.28 0 0150.8 100zm62.52 0a5.27 5.27 0 01-5.24 5.31h-.34a5.27 5.27 0 01-5.24-5.31V100a5.27 5.27 0 015.23-5.31h.35a5.27 5.27 0 015.24 5.31z" fill="#ffc463"/><path class="cls-2" d="M95.79 101.19A24.08 24.08 0 1193 112.45a24.44 24.44 0 01.15-2.73"/><path class="cls-1" d="M95.79 101.19A24.08 24.08 0 1193 112.45a24.44 24.44 0 01.15-2.73"/><path d="M130 112.45c0 .89 0 1.76-.07 2.63 0 .5-.07 1-.12 1.49-1 11.33-6.35 20-12.72 20-7.14 0-12.92-10.78-12.92-24.07s5.78-24.07 12.92-24.07c4.54 0 8.53 4.37 10.83 11 .33.94.63 1.93.88 3a42.08 42.08 0 011.2 10.02zm-12.93-24.07v48.11M97.09 98.88h39.76m-39.76 27h39.76m-43.36-13.5h46.96" stroke-miterlimit="10" stroke-width="2" fill="none" stroke="#007b64"/></g></svg>