<svg xmlns="http://www.w3.org/2000/svg" viewBox="0 0 145 145"><defs><style>.cls-1{fill:none;stroke:#007b64;stroke-linecap:round;stroke-linejoin:round;stroke-width:2px}.cls-3{fill:#ebebeb}.cls-4{fill:#ffc463}</style></defs><g id="_6_Общие_данные" data-name="6 Общие данные"><path class="cls-1" d="M4.89 139.42h10.93m3.13 0h109.36m6.61 0h4.97"/><rect x="27" y="44" width="81" height="94" rx="6" fill="#fff"/><path class="cls-3" d="M37.33 132.53h70.61v.73a6.16 6.16 0 01-6.16 6.16H37.33v-6.89z"/><path class="cls-4" d="M107.94 55.47h3.45a2.92 2.92 0 012.92 2.92v9.23a2.92 2.92 0 01-2.92 2.92h-3.45V55.47z"/><path d="M107.94 74.55h2.7a2.69 2.69 0 012.69 2.69v9.7a2.69 2.69 0 01-2.69 2.69h-2.7V74.55zm0 19.09h2.7a2.69 2.69 0 012.69 2.69V106a2.69 2.69 0 01-2.69 2.69h-2.7V93.64zm0 19.09h2.7a2.69 2.69 0 012.69 2.69v9.7a2.69 2.69 0 01-2.69 2.69h-2.7v-15.08z" fill="#fff" stroke="#007b64" stroke-linecap="round" stroke-linejoin="round" stroke-width="2"/><path class="cls-3" d="M27 97.23s1.72-11.2 4.31-15.5 6-20.67 6-24.11l-.18-13.35-5 .07-3.45 1.22-1.48 3.21z"/><path class="cls-1" d="M27 108.42V50.3a6 6 0 016-6h68.88a6 6 0 016 6V133a6 6 0 01-6 6H33a6 6 0 01-6-6v-12.7m10.15-76.03v94.72"/><path class="cls-1" d="M113.06 46.86a5.94 5.94 0 016 5.94v80.25a5.94 5.94 0 01-6 5.94h-11.49M45.08 65.37h13.78m4.3 0h28.42m0 6.03H77.8m-4.3 0H45.08"/><rect class="cls-4" x="44.22" y="90.34" width="52.52" height="31" rx="4.62"/></g></svg>