<svg xmlns="http://www.w3.org/2000/svg" viewBox="0 0 145 145"><defs><style>.cls-1{fill:none;}.cls-1,.cls-5{stroke:#007b64;stroke-linecap:round;stroke-linejoin:round;stroke-width:2px;}.cls-2,.cls-5{fill:#fff;}.cls-3{fill:#ebebeb;}.cls-4{fill:#ffc463;}</style></defs><title>6 Общие данные</title><g id="_6_Общие_данные" data-name="6 Общие данные"><line class="cls-1" x1="4.89" y1="139.42" x2="15.82" y2="139.42"/><line class="cls-1" x1="18.95" y1="139.42" x2="128.31" y2="139.42"/><line class="cls-1" x1="134.92" y1="139.42" x2="139.89" y2="139.42"/><rect class="cls-2" x="27" y="44" width="81" height="94" rx="6"/><path class="cls-3" d="M37.33,132.53h70.61a0,0,0,0,1,0,0v.73a6.16,6.16,0,0,1-6.16,6.16H37.33a0,0,0,0,1,0,0v-6.89A0,0,0,0,1,37.33,132.53Z"/><path class="cls-4" d="M107.94,55.47h3.45a2.92,2.92,0,0,1,2.92,2.92v9.23a2.92,2.92,0,0,1-2.92,2.92h-3.45a0,0,0,0,1,0,0V55.47A0,0,0,0,1,107.94,55.47Z"/><path class="cls-5" d="M107.94,74.55h2.7a2.69,2.69,0,0,1,2.69,2.69v9.7a2.69,2.69,0,0,1-2.69,2.69h-2.7a0,0,0,0,1,0,0V74.55A0,0,0,0,1,107.94,74.55Z"/><path class="cls-5" d="M107.94,93.64h2.7a2.69,2.69,0,0,1,2.69,2.69V106a2.69,2.69,0,0,1-2.69,2.69h-2.7a0,0,0,0,1,0,0V93.64A0,0,0,0,1,107.94,93.64Z"/><path class="cls-5" d="M107.94,112.73h2.7a2.69,2.69,0,0,1,2.69,2.69v9.7a2.69,2.69,0,0,1-2.69,2.69h-2.7a0,0,0,0,1,0,0V112.73A0,0,0,0,1,107.94,112.73Z"/><path class="cls-3" d="M27,97.23s1.72-11.2,4.31-15.5,6-20.67,6-24.11l-.18-13.35-5,.07-3.45,1.22L27.2,48.77Z"/><path class="cls-1" d="M27,108.42V50.3a6,6,0,0,1,6-6h68.88a6,6,0,0,1,6,6V133a6,6,0,0,1-6,6H33a6,6,0,0,1-6-6v-12.7"/><line class="cls-1" x1="37.15" y1="44.27" x2="37.15" y2="138.99"/><path class="cls-1" d="M113.06,46.86a5.94,5.94,0,0,1,6,5.94v80.25a5.94,5.94,0,0,1-6,5.94H101.57"/><line class="cls-1" x1="45.08" y1="65.37" x2="58.86" y2="65.37"/><line class="cls-1" x1="63.16" y1="65.37" x2="91.58" y2="65.37"/><line class="cls-1" x1="91.58" y1="71.4" x2="77.8" y2="71.4"/><line class="cls-1" x1="73.5" y1="71.4" x2="45.08" y2="71.4"/><rect class="cls-4" x="44.22" y="90.34" width="52.52" height="31" rx="4.62"/></g></svg>