<svg xmlns="http://www.w3.org/2000/svg" viewBox="0 0 145 145"><defs><style>.cls-1,.cls-2,.cls-5{fill:none}.cls-1,.cls-5{stroke:#007b64;stroke-linecap:round}.cls-1{stroke-linejoin:round}.cls-1,.cls-5{stroke-width:2px}.cls-3{fill:#ebebeb}.cls-4{fill:#ffc463}.cls-5{stroke-miterlimit:10}.cls-7{fill:#fff}</style></defs><g id="_7_Руководство" data-name="7 Руководство"><path class="cls-1" d="M124.62 138.78H23.11m-5.08 0H5.65m135 0h-8.45"/><path class="cls-2" d="M120.42 131.75H73.13A4.73 4.73 0 0168.4 127v-7.56c0-13 5.79-23.52 18.68-23.65a1 1 0 01.45.11l8.07 4a2.65 2.65 0 002.4.1l8.07-4a1 1 0 01.45-.11c12.89.13 18.67 10.67 18.67 23.65V127a4.72 4.72 0 01-4.77 4.75z"/><path class="cls-3" d="M123.61 108.82a14.21 14.21 0 01-4.13 8.6c-2.31 2.32-2 11.77-3.27 13.73l1.39.6 4.3.05 2-1.53 1.29-2.12.22-5.5-.37-6.8-.52-3.66z"/><path class="cls-4" d="M95 101.53h4a.56.56 0 01.54.43l2.58 12.84a.58.58 0 01-.14.49l-4.59 4.79a.56.56 0 01-.79 0l-4.6-4.79a.55.55 0 01-.14-.49l2.6-12.8a.55.55 0 01.54-.47z"/><path class="cls-4" d="M99.48 102h-5a.37.37 0 01-.36-.31L93.53 98a.36.36 0 01.51-.39l2.8 1.39a.34.34 0 00.31 0l2.8-1.33a.37.37 0 01.52.39l-.63 3.69a.37.37 0 01-.36.25z"/><path class="cls-1" d="M68.47 117.09c0-.76.11-1.51.19-2.25a33.19 33.19 0 01.75-4.13c2.12-8.51 7.66-14.6 17.19-14.89a1.72 1.72 0 01.88.22 21.55 21.55 0 009.77 2.42 16.46 16.46 0 008.8-2.35 1.66 1.66 0 011-.28c12.5.42 18.11 10.84 18.11 23.63v5.81a6.48 6.48 0 01-6.48 6.48H74.89a6.49 6.49 0 01-6.49-6.48V123"/><path class="cls-5" d="M79.4 120.4v11.35m34.99-11.35v11.35"/><path class="cls-2" d="M110.28 64.89a18.7 18.7 0 011.23 1.69 17.06 17.06 0 011 1.82 17.54 17.54 0 011.77 7.6 17.24 17.24 0 01-.78 5.16 17.49 17.49 0 11-11.32-21.81 17.91 17.91 0 012.56 1.06c.39.21.78.42 1.15.65"/><path class="cls-3" d="M114 70.62s-1.14 0-2.34 3.65c-.66 2-4.58 8.5-7.85 9.81-4.92 2-5.6 8.48-5.89 9.15-.5 1.21 3.27 0 3.27 0l2.4-1.08 3.05-1.66 3.65-3.33 1.87-2.76 1.46-2.94.65-5.23z"/><path class="cls-1" d="M110.28 64.89a18.7 18.7 0 011.23 1.69 17.06 17.06 0 011 1.82 17.54 17.54 0 011.77 7.6 17.24 17.24 0 01-.78 5.16 17.49 17.49 0 11-11.32-21.81 17.91 17.91 0 012.56 1.06c.39.21.78.42 1.15.65"/><path class="cls-2" d="M73 131.75H25.66a4.73 4.73 0 01-4.73-4.75v-7.56c0-13 5.79-23.52 18.68-23.65a1 1 0 01.45.11l8.07 4a2.65 2.65 0 002.36 0l8.07-4a1 1 0 01.45-.11c12.89.13 18.67 10.67 18.67 23.65V127a4.72 4.72 0 01-4.68 4.75z"/><path class="cls-3" d="M76.14 108.82a14.14 14.14 0 01-4.13 8.6c-2.31 2.32-2 11.77-3.27 13.73l1.39.6 4.31.05 2-1.53 1.29-2.12.22-5.5-.37-6.8-.58-3.66z"/><path class="cls-4" d="M47.53 101.53h4a.55.55 0 01.54.43l2.58 12.84a.58.58 0 01-.14.49l-4.59 4.79a.56.56 0 01-.79 0l-4.58-4.79a.55.55 0 01-.14-.49L47 102a.55.55 0 01.53-.47z"/><path class="cls-4" d="M52 102h-5a.37.37 0 01-.36-.31L46.06 98a.36.36 0 01.51-.39l2.8 1.39a.34.34 0 00.31 0l2.8-1.33A.37.37 0 0153 98l-.63 3.69a.37.37 0 01-.37.31z"/><path class="cls-1" d="M21 117.09c0-.76.11-1.51.19-2.25a33.19 33.19 0 01.75-4.13c2.12-8.51 7.66-14.6 17.19-14.89A1.72 1.72 0 0140 96a21.55 21.55 0 009.77 2.42 16.46 16.46 0 008.8-2.35 1.66 1.66 0 011-.28c12.5.42 18.11 10.84 18.11 23.63v5.81a6.48 6.48 0 01-6.48 6.48H27.42a6.49 6.49 0 01-6.49-6.48V123"/><path class="cls-5" d="M31.93 120.4v11.35"/><path stroke-width="1.74" stroke-miterlimit="10" stroke="#007b64" stroke-linecap="round" fill="none" d="M66.92 120.4v11.35"/><path class="cls-2" d="M62.81 64.89A18.7 18.7 0 0164 66.58a17.06 17.06 0 011 1.82 17.54 17.54 0 011.81 7.6 17.24 17.24 0 01-.81 5.18 17.49 17.49 0 11-11.29-21.81 17.91 17.91 0 012.56 1.06c.39.21.78.42 1.15.65"/><path class="cls-3" d="M66.51 70.62s-1.14 0-2.34 3.65c-.66 2-4.58 8.5-7.85 9.81-4.92 2-5.6 8.48-5.88 9.15-.51 1.21 3.26 0 3.26 0l2.4-1.08 3-1.66 3.65-3.33 1.87-2.76 1.46-2.94.65-5.23z"/><path class="cls-1" d="M62.81 64.89A18.7 18.7 0 0164 66.58a17.06 17.06 0 011 1.82 17.54 17.54 0 011.81 7.6 17.24 17.24 0 01-.81 5.18 17.49 17.49 0 11-11.29-21.81 17.91 17.91 0 012.56 1.06c.39.21.78.42 1.15.65"/><path class="cls-7" d="M104.56 138.72h-63.1a6.31 6.31 0 01-6.31-6.31v-10.1c0-17.32 7.72-31.38 24.92-31.55a1.39 1.39 0 01.6.14l10.76 5.38a3.49 3.49 0 003.15 0l10.77-5.38a1.36 1.36 0 01.6-.14c17.2.17 24.92 14.23 24.92 31.55v10.1a6.31 6.31 0 01-6.31 6.31z"/><path class="cls-3" d="M108.81 108.11a18.93 18.93 0 01-5.51 11.49c-3.08 3.08-2.62 15.7-4.36 18.32l1.85.8 5.75-.94L108 136l1.87-2.09 1.28-7.34-.49-9.07-.69-4.88z"/><path class="cls-4" d="M70.63 98.38H76a.74.74 0 01.72.59l3.44 17.13a.74.74 0 01-.18.65l-6.12 6.38a.74.74 0 01-1.06 0l-6.11-6.38a.72.72 0 01-.19-.65L69.92 99a.72.72 0 01.71-.62z"/><path class="cls-4" d="M76.61 99.05H70a.47.47 0 01-.47-.4l-.84-4.94a.48.48 0 01.68-.51L73.1 95a.49.49 0 00.41 0l3.74-1.77a.48.48 0 01.68.51l-.84 4.94a.48.48 0 01-.48.37z"/><path class="cls-1" d="M35.24 119.15c0-1 .14-2 .25-3a43 43 0 011-5.51c2.83-11.36 10.23-19.48 23-19.87a2.31 2.31 0 011.17.29 28.64 28.64 0 0013 3.23 22 22 0 0011.74-3.13 2.21 2.21 0 011.32-.38c16.68.57 24.17 14.47 24.17 31.53v7.75a8.66 8.66 0 01-8.65 8.66H43.8a8.66 8.66 0 01-8.65-8.66v-3"/><path class="cls-5" d="M49.82 123.57v15.15m46.69-15.15v15.15"/><path class="cls-7" d="M91 49.5a23.14 23.14 0 011.64 2.25A21.44 21.44 0 0194 54.19 23.35 23.35 0 1173 41a23.18 23.18 0 0110.62 2.55c.53.27 1 .56 1.54.86"/><path class="cls-3" d="M96 57.14s-1.52 0-3.13 4.87C92 64.63 86.73 73.35 82.36 75.1c-6.56 2.62-7.47 11.31-7.85 12.21-.68 1.61 4.36 0 4.36 0l3.2-1.44 4.07-2.21L91 79.22l2.5-3.69 1.94-3.92.87-7z"/><path class="cls-1" d="M91 49.5a23.14 23.14 0 011.64 2.25A21.44 21.44 0 0194 54.19 23.35 23.35 0 1173 41a23.18 23.18 0 0110.62 2.55c.53.27 1 .56 1.54.86"/></g></svg>