<svg xmlns="http://www.w3.org/2000/svg" viewBox="0 0 145 145"><defs><style>.cls-1,.cls-2,.cls-5,.cls-6{fill:none;}.cls-1,.cls-5,.cls-6{stroke:#007b64;stroke-linecap:round;}.cls-1{stroke-linejoin:round;}.cls-1,.cls-5{stroke-width:2px;}.cls-3{fill:#ebebeb;}.cls-4{fill:#ffc463;}.cls-5,.cls-6{stroke-miterlimit:10;}.cls-6{stroke-width:1.74px;}.cls-7{fill:#fff;}</style></defs><title>7 Руководство</title><g id="_7_Руководство" data-name="7 Руководство"><line class="cls-1" x1="124.62" y1="138.78" x2="23.11" y2="138.78"/><line class="cls-1" x1="18.03" y1="138.78" x2="5.65" y2="138.78"/><line class="cls-1" x1="140.65" y1="138.78" x2="132.2" y2="138.78"/><path class="cls-2" d="M120.42,131.75H73.13A4.73,4.73,0,0,1,68.4,127v-7.56c0-13,5.79-23.52,18.68-23.65a1,1,0,0,1,.45.11l8.07,4A2.65,2.65,0,0,0,98,100l8.07-4a1,1,0,0,1,.45-.11c12.89.13,18.67,10.67,18.67,23.65V127A4.72,4.72,0,0,1,120.42,131.75Z"/><path class="cls-3" d="M123.61,108.82a14.21,14.21,0,0,1-4.13,8.6c-2.31,2.32-2,11.77-3.27,13.73l1.39.6,4.3.05,2-1.53,1.29-2.12.22-5.5-.37-6.8-.52-3.66Z"/><path class="cls-4" d="M95,101.53h4a.56.56,0,0,1,.54.43l2.58,12.84a.58.58,0,0,1-.14.49l-4.59,4.79a.56.56,0,0,1-.79,0L92,115.29a.55.55,0,0,1-.14-.49L94.46,102A.55.55,0,0,1,95,101.53Z"/><path class="cls-4" d="M99.48,102h-5a.37.37,0,0,1-.36-.31L93.53,98a.36.36,0,0,1,.51-.39L96.84,99a.34.34,0,0,0,.31,0l2.8-1.33a.37.37,0,0,1,.52.39l-.63,3.69A.37.37,0,0,1,99.48,102Z"/><path class="cls-1" d="M68.47,117.09c0-.76.11-1.51.19-2.25a33.19,33.19,0,0,1,.75-4.13c2.12-8.51,7.66-14.6,17.19-14.89a1.72,1.72,0,0,1,.88.22,21.55,21.55,0,0,0,9.77,2.42,16.46,16.46,0,0,0,8.8-2.35,1.66,1.66,0,0,1,1-.28c12.5.42,18.11,10.84,18.11,23.63v5.81a6.48,6.48,0,0,1-6.48,6.48H74.89a6.49,6.49,0,0,1-6.49-6.48h0V123"/><line class="cls-5" x1="79.4" y1="120.4" x2="79.4" y2="131.75"/><line class="cls-5" x1="114.39" y1="120.4" x2="114.39" y2="131.75"/><path class="cls-2" d="M110.28,64.89a18.7,18.7,0,0,1,1.23,1.69,17.06,17.06,0,0,1,1,1.82A17.54,17.54,0,0,1,114.28,76a17.24,17.24,0,0,1-.78,5.16,17.49,17.49,0,1,1-11.32-21.81,17.91,17.91,0,0,1,2.56,1.06c.39.21.78.42,1.15.65"/><path class="cls-3" d="M114,70.62s-1.14,0-2.34,3.65c-.66,2-4.58,8.5-7.85,9.81-4.92,2-5.6,8.48-5.89,9.15-.5,1.21,3.27,0,3.27,0l2.4-1.08,3.05-1.66,3.65-3.33,1.87-2.76,1.46-2.94.65-5.23Z"/><path class="cls-1" d="M110.28,64.89a18.7,18.7,0,0,1,1.23,1.69,17.06,17.06,0,0,1,1,1.82A17.54,17.54,0,0,1,114.28,76a17.24,17.24,0,0,1-.78,5.16,17.49,17.49,0,1,1-11.32-21.81,17.91,17.91,0,0,1,2.56,1.06c.39.21.78.42,1.15.65"/><path class="cls-2" d="M73,131.75H25.66A4.73,4.73,0,0,1,20.93,127v-7.56c0-13,5.79-23.52,18.68-23.65a1,1,0,0,1,.45.11l8.07,4a2.65,2.65,0,0,0,2.36,0l8.07-4a1,1,0,0,1,.45-.11c12.89.13,18.67,10.67,18.67,23.65V127A4.72,4.72,0,0,1,73,131.75Z"/><path class="cls-3" d="M76.14,108.82a14.14,14.14,0,0,1-4.13,8.6c-2.31,2.32-2,11.77-3.27,13.73l1.39.6,4.31.05,2-1.53,1.29-2.12.22-5.5-.37-6.8L77,112.19Z"/><path class="cls-4" d="M47.53,101.53h4a.55.55,0,0,1,.54.43l2.58,12.84a.58.58,0,0,1-.14.49l-4.59,4.79a.56.56,0,0,1-.79,0l-4.58-4.79a.55.55,0,0,1-.14-.49L47,102A.55.55,0,0,1,47.53,101.53Z"/><path class="cls-4" d="M52,102h-5a.37.37,0,0,1-.36-.31L46.06,98a.36.36,0,0,1,.51-.39L49.37,99a.34.34,0,0,0,.31,0l2.8-1.33A.37.37,0,0,1,53,98l-.63,3.69A.37.37,0,0,1,52,102Z"/><path class="cls-1" d="M21,117.09c0-.76.11-1.51.19-2.25a33.19,33.19,0,0,1,.75-4.13c2.12-8.51,7.66-14.6,17.19-14.89A1.72,1.72,0,0,1,40,96a21.55,21.55,0,0,0,9.77,2.42,16.46,16.46,0,0,0,8.8-2.35,1.66,1.66,0,0,1,1-.28c12.5.42,18.11,10.84,18.11,23.63v5.81a6.48,6.48,0,0,1-6.48,6.48H27.42a6.49,6.49,0,0,1-6.49-6.48h0V123"/><line class="cls-5" x1="31.93" y1="120.4" x2="31.93" y2="131.75"/><line class="cls-6" x1="66.92" y1="120.4" x2="66.92" y2="131.75"/><path class="cls-2" d="M62.81,64.89A18.7,18.7,0,0,1,64,66.58a17.06,17.06,0,0,1,1,1.82A17.54,17.54,0,0,1,66.81,76,17.24,17.24,0,0,1,66,81.18,17.49,17.49,0,1,1,54.71,59.37a17.91,17.91,0,0,1,2.56,1.06c.39.21.78.42,1.15.65"/><path class="cls-3" d="M66.51,70.62s-1.14,0-2.34,3.65c-.66,2-4.58,8.5-7.85,9.81-4.92,2-5.6,8.48-5.88,9.15-.51,1.21,3.26,0,3.26,0l2.4-1.08,3-1.66,3.65-3.33,1.87-2.76,1.46-2.94.65-5.23Z"/><path class="cls-1" d="M62.81,64.89A18.7,18.7,0,0,1,64,66.58a17.06,17.06,0,0,1,1,1.82A17.54,17.54,0,0,1,66.81,76,17.24,17.24,0,0,1,66,81.18,17.49,17.49,0,1,1,54.71,59.37a17.91,17.91,0,0,1,2.56,1.06c.39.21.78.42,1.15.65"/><path class="cls-7" d="M104.56,138.72H41.46a6.31,6.31,0,0,1-6.31-6.31v-10.1c0-17.32,7.72-31.38,24.92-31.55a1.39,1.39,0,0,1,.6.14l10.76,5.38a3.49,3.49,0,0,0,3.15,0L85.35,90.9a1.36,1.36,0,0,1,.6-.14c17.2.17,24.92,14.23,24.92,31.55v10.1A6.31,6.31,0,0,1,104.56,138.72Z"/><path class="cls-3" d="M108.81,108.11a18.93,18.93,0,0,1-5.51,11.49c-3.08,3.08-2.62,15.7-4.36,18.32l1.85.8,5.75-.94L108,136l1.87-2.09,1.28-7.34-.49-9.07-.69-4.88Z"/><path class="cls-4" d="M70.63,98.38H76a.74.74,0,0,1,.72.59l3.44,17.13a.74.74,0,0,1-.18.65l-6.12,6.38a.74.74,0,0,1-1.06,0l-6.11-6.38a.72.72,0,0,1-.19-.65L69.92,99A.72.72,0,0,1,70.63,98.38Z"/><path class="cls-4" d="M76.61,99.05H70a.47.47,0,0,1-.47-.4l-.84-4.94a.48.48,0,0,1,.68-.51L73.1,95a.49.49,0,0,0,.41,0l3.74-1.77a.48.48,0,0,1,.68.51l-.84,4.94A.48.48,0,0,1,76.61,99.05Z"/><path class="cls-1" d="M35.24,119.15c0-1,.14-2,.25-3a43,43,0,0,1,1-5.51c2.83-11.36,10.23-19.48,23-19.87a2.31,2.31,0,0,1,1.17.29,28.64,28.64,0,0,0,13,3.23,22,22,0,0,0,11.74-3.13,2.21,2.21,0,0,1,1.32-.38c16.68.57,24.17,14.47,24.17,31.53v7.75a8.66,8.66,0,0,1-8.65,8.66H43.8a8.66,8.66,0,0,1-8.65-8.66h0v-3"/><line class="cls-5" x1="49.82" y1="123.57" x2="49.82" y2="138.72"/><line class="cls-5" x1="96.51" y1="123.57" x2="96.51" y2="138.72"/><path class="cls-7" d="M91,49.5a23.14,23.14,0,0,1,1.64,2.25A21.44,21.44,0,0,1,94,54.19,23.35,23.35,0,1,1,73,41a23.18,23.18,0,0,1,10.62,2.55c.53.27,1,.56,1.54.86"/><path class="cls-3" d="M96,57.14s-1.52,0-3.13,4.87C92,64.63,86.73,73.35,82.36,75.1c-6.56,2.62-7.47,11.31-7.85,12.21-.68,1.61,4.36,0,4.36,0l3.2-1.44,4.07-2.21L91,79.22l2.5-3.69,1.94-3.92.87-7Z"/><path class="cls-1" d="M91,49.5a23.14,23.14,0,0,1,1.64,2.25A21.44,21.44,0,0,1,94,54.19,23.35,23.35,0,1,1,73,41a23.18,23.18,0,0,1,10.62,2.55c.53.27,1,.56,1.54.86"/></g></svg>