<svg xmlns="http://www.w3.org/2000/svg" viewBox="0 0 145 145"><defs><style>.cls-1{fill:#fff}.cls-2{fill:#ebebeb}.cls-3{fill:none;stroke:#007b64;stroke-linecap:round;stroke-linejoin:round;stroke-width:1.9px}</style></defs><g id="_8_Структурные_подразделения" data-name="8 Структурные подразделения"><path class="cls-1" d="M31.76 45.53A4.53 4.53 0 0136.29 41H108a4.53 4.53 0 014.53 4.53v28.94A4.52 4.52 0 01108 79H36.29a4.52 4.52 0 01-4.53-4.52V53.11"/><path class="cls-2" d="M68.26 79s9.09-9.5 21.44-9.5 11.4-14.21 22.8-15.18v19.93l-.69 2.61L108.7 79z"/><path class="cls-3" d="M31.76 45.53A4.53 4.53 0 0136.29 41H108a4.53 4.53 0 014.53 4.53v28.94A4.52 4.52 0 01108 79H36.29a4.52 4.52 0 01-4.53-4.52V53.11"/><rect class="cls-1" x="100.15" y="105.59" width="33.25" height="33.25" rx="2.72"/><path class="cls-2" d="M101.1 133.14h32.3v5.7h-32.3z"/><rect x="100.15" y="105.59" width="33.25" height="33.25" rx="2.72" stroke-miterlimit="10" stroke-width="1.9" fill="none" stroke="#007b64"/><path class="cls-1" d="M43.31 106.39a2.71 2.71 0 01.8 1.92v27.81a2.72 2.72 0 01-2.72 2.72H13.58a2.72 2.72 0 01-2.72-2.72v-27.81a2.72 2.72 0 012.72-2.72h24.57"/><path class="cls-2" d="M11.81 133.14h32.3v5.7h-32.3z"/><path class="cls-3" d="M43.31 106.39a2.71 2.71 0 01.8 1.92v27.81a2.72 2.72 0 01-2.72 2.72H13.58a2.72 2.72 0 01-2.72-2.72v-27.81a2.72 2.72 0 012.72-2.72h24.57m33.98-25.65v25.18m35.13-13.3H27.48v13.3m89.29 0v-13.3h-3.2"/><rect x="54.08" y="104.64" width="36.1" height="34.2" rx="2.87" fill="#ffc463"/><path stroke-width="2" stroke-linecap="round" stroke-linejoin="round" fill="none" stroke="#007b64" d="M4.63 138.83h135"/></g></svg>