<svg xmlns="http://www.w3.org/2000/svg" viewBox="0 0 145 145"><defs><style>.cls-1,.cls-6{fill:none;stroke:#007b64;}.cls-1{stroke-linecap:round;stroke-linejoin:round;stroke-width:2px;}.cls-2{fill:#fff;}.cls-3{fill:#ebebeb;}.cls-4{fill:#007b64;}.cls-5{fill:#ffc463;}.cls-6{stroke-miterlimit:10;stroke-width:1.78px;}</style></defs><title>9 Об инспекции</title><g id="_9_Об_инспекции" data-name="9 Об инспекции"><line class="cls-1" x1="5.03" y1="139.4" x2="126.21" y2="139.4"/><line class="cls-1" x1="133.53" y1="139.4" x2="139.03" y2="139.4"/><rect class="cls-2" x="31" y="50" width="68" height="89" rx="7.05"/><line class="cls-1" x1="39.08" y1="100.65" x2="56.47" y2="100.65"/><line class="cls-1" x1="39.08" y1="106.6" x2="60.82" y2="106.6"/><line class="cls-1" x1="39.08" y1="112.54" x2="66.25" y2="112.54"/><line class="cls-1" x1="39.08" y1="118.49" x2="73.86" y2="118.49"/><path class="cls-3" d="M31.05,131H98.84a0,0,0,0,1,0,0v1.38a7.54,7.54,0,0,1-7.54,7.54H38.59a7.54,7.54,0,0,1-7.54-7.54V131A0,0,0,0,1,31.05,131Z"/><rect class="cls-4" x="38.19" y="69.43" width="17.84" height="20.51" rx="2.19"/><path class="cls-1" d="M98.84,119.51v12.94a7,7,0,0,1-7,7H38.05a7,7,0,0,1-7-7V57.26a7,7,0,0,1,7-7h8.16"/><path class="cls-1" d="M84.12,50.26h7.72a7,7,0,0,1,7,7v5"/><path class="cls-5" d="M77,56.05H52.9a2.67,2.67,0,0,1-2.67-2.67V46.24a2.68,2.68,0,0,1,2.67-2.67h4.87v0A3.6,3.6,0,0,1,61.37,40h7.3a3.6,3.6,0,0,1,3.6,3.57H77a2.68,2.68,0,0,1,2.68,2.67v7.14A2.67,2.67,0,0,1,77,56.05Z"/><rect class="cls-6" x="104.14" y="98.89" width="7.14" height="36.57" rx="1.67" transform="translate(-49 89.37) rotate(-37.35)"/><circle class="cls-5" cx="85.36" cy="87.89" r="23.19"/><circle class="cls-2" cx="85.36" cy="87.89" r="18.28"/><path class="cls-3" d="M91.9,97.24c-1.58,5.5-7.33,8.92-7.33,8.92A18.29,18.29,0,0,0,102.69,82h0C97.25,82.54,93.88,88.05,91.9,97.24Z"/></g></svg>