<svg xmlns="http://www.w3.org/2000/svg" viewBox="0 0 145 145"><defs><style>.cls-1{fill:none;stroke:#007b64;stroke-linecap:round;stroke-linejoin:round;stroke-width:2px}.cls-2{fill:#fff}.cls-3{fill:#ebebeb}.cls-5{fill:#ffc463}</style></defs><g id="_9_Об_инспекции" data-name="9 Об инспекции"><path class="cls-1" d="M5.03 139.4h121.18m7.32 0h5.5"/><rect class="cls-2" x="31" y="50" width="68" height="89" rx="7.05"/><path class="cls-1" d="M39.08 100.65h17.39m-17.39 5.95h21.74m-21.74 5.94h27.17m-27.17 5.95h34.78"/><path class="cls-3" d="M31.05 131h67.79v1.38a7.54 7.54 0 01-7.54 7.54H38.59a7.54 7.54 0 01-7.54-7.54V131z"/><rect x="38.19" y="69.43" width="17.84" height="20.51" rx="2.19" fill="#007b64"/><path class="cls-1" d="M98.84 119.51v12.94a7 7 0 01-7 7H38.05a7 7 0 01-7-7V57.26a7 7 0 017-7h8.16m37.91 0h7.72a7 7 0 017 7v5"/><path class="cls-5" d="M77 56.05H52.9a2.67 2.67 0 01-2.67-2.67v-7.14a2.68 2.68 0 012.67-2.67h4.87a3.6 3.6 0 013.6-3.57h7.3a3.6 3.6 0 013.6 3.57H77a2.68 2.68 0 012.68 2.67v7.14A2.67 2.67 0 0177 56.05z"/><rect x="104.14" y="98.89" width="7.14" height="36.57" rx="1.67" transform="rotate(-37.35 107.706 117.171)" stroke-miterlimit="10" stroke-width="1.78" fill="none" stroke="#007b64"/><circle class="cls-5" cx="85.36" cy="87.89" r="23.19"/><circle class="cls-2" cx="85.36" cy="87.89" r="18.28"/><path class="cls-3" d="M91.9 97.24c-1.58 5.5-7.33 8.92-7.33 8.92A18.29 18.29 0 00102.69 82c-5.44.54-8.81 6.05-10.79 15.24z"/></g></svg>