<svg width="145" height="145" fill="none" xmlns="http://www.w3.org/2000/svg"><path d="M5 121.07h10.94m3.12 0h109.37m6.6 0H140" stroke="#007B64" stroke-width="2" stroke-linecap="round" stroke-linejoin="round"/><path d="M94.31 103v11.85a6.122 6.122 0 01-6.12 6.15h-55.1a6.124 6.124 0 01-5.657-3.785 6.119 6.119 0 01-.463-2.345V29.12A6.12 6.12 0 0133.09 23h43.38l17.84 18.88" fill="#fff"/><path d="M26.97 85.48S31.2 95.39 46.89 100c11.17 3.29 17.49 8.35 20.5 21l-36.56-.17-3.06-1.93-.79-2.37-.01-31.05z" fill="#F1F1F1"/><path d="M94.31 105.81v9a6.123 6.123 0 01-3.762 5.718 6.138 6.138 0 01-2.358.472h-55.1a6.124 6.124 0 01-5.657-3.785 6.119 6.119 0 01-.463-2.345V29.12A6.12 6.12 0 0133.09 23h42.94a1 1 0 01.74.32l17.54 18.56" stroke="#007B64" stroke-width="2.04" stroke-linecap="round" stroke-linejoin="round"/><path d="M94.31 42.14v30.28m-8.16-30.54h-5.1a6.13 6.13 0 01-6.13-6.13v-5.1" stroke="#007B64" stroke-width="2" stroke-linecap="round" stroke-linejoin="round"/><path d="M35.15 45.69h26.53m-26.53 5.48h26.53M35.15 40.21h26.53" stroke="#FFC463" stroke-width="2" stroke-linecap="round" stroke-linejoin="round"/><path d="M116.09 121.07H44.31a3.67 3.67 0 01-3.71-3.68V73.68A3.68 3.68 0 0144.31 70h23.21l8.77 7.36h39.8a3.68 3.68 0 013.68 3.64v36.35a3.69 3.69 0 01-2.262 3.436 3.67 3.67 0 01-1.418.284z" fill="#fff"/><path d="M40.6 101.71s24.47-.64 39 8.29c13 8 22.24 11 22.24 11H43.4l-2.18-1.57-.59-4-.03-13.72z" fill="#F1F1F1"/><path d="M116.09 121.07H44.31a3.67 3.67 0 01-3.71-3.68V73.68A3.68 3.68 0 0144.31 70h23.21l8.77 7.36h39.8a3.68 3.68 0 013.68 3.64v36.35a3.69 3.69 0 01-2.262 3.436 3.67 3.67 0 01-1.418.284v0z" stroke="#007B64" stroke-width="2" stroke-linecap="round" stroke-linejoin="round"/><path d="M112.6 83h-18a1 1 0 00-1 1v5a1 1 0 001 1h18a1 1 0 001-1v-5a1 1 0 00-1-1z" fill="#FFC463"/></svg>