<svg width="145" height="145" fill="none" xmlns="http://www.w3.org/2000/svg"><path d="M6 120h121.18m7.32 0h5.5" stroke="#007B64" stroke-width="2" stroke-linecap="round" stroke-linejoin="round"/><path d="M23.19 45.31s4.41 2.29 3.41 9.29c-1 7 0 11-1 16-.81 4-2 8-2 8l-2.82-27.37V48.6l1.36-2.76 1.05-.53z" fill="#EBEBEB"/><path d="M92.92 30.18h-53.9a7.05 7.05 0 00-7.05 7.05v74.9a7.05 7.05 0 007.05 7.05h53.9a7.05 7.05 0 007.05-7.05v-74.9a7.05 7.05 0 00-7.05-7.05z" fill="#fff"/><path d="M32.02 111.16h67.79v1.38a7.54 7.54 0 01-7.54 7.54H39.6a7.54 7.54 0 01-7.54-7.54v-1.38h-.04z" fill="#EBEBEB"/><path d="M111.33 82.388l-2.695 2.056a1.49 1.49 0 00-.28 2.088l18.012 23.602c.499.655 1.434.78 2.088.281l2.695-2.057a1.49 1.49 0 00.281-2.088l-18.013-23.602a1.49 1.49 0 00-2.088-.28z" stroke="#007B64" stroke-width="1.59" stroke-miterlimit="10"/><path d="M99.93 90.97c11.443 0 20.72-9.277 20.72-20.72s-9.277-20.72-20.72-20.72-20.72 9.277-20.72 20.72 9.277 20.72 20.72 20.72z" fill="#FFC463"/><path d="M99.93 86.58c9.019 0 16.33-7.311 16.33-16.33 0-9.019-7.311-16.33-16.33-16.33-9.019 0-16.33 7.311-16.33 16.33 0 9.019 7.311 16.33 16.33 16.33z" fill="#fff"/><path d="M105.78 78.6c-1.42 4.92-6.56 8-6.56 8a16.342 16.342 0 0016.846-13.738c.42-2.622.195-5.307-.656-7.822-4.81.43-7.87 5.35-9.63 13.56z" fill="#EBEBEB"/><path d="M49.05 45.14H73.6" stroke="#007B64" stroke-width="2" stroke-linecap="round" stroke-linejoin="round"/><path d="M43.99 41.6v7H41.6v-5.18h-1.2V41.6h3.59z" fill="#FFC463"/><path d="M49.05 58.98H73.6" stroke="#007B64" stroke-width="2" stroke-linecap="round" stroke-linejoin="round"/><path d="M45.32 60.73v1.87h-5.61v-1.49l2.53-2.34a1.87 1.87 0 00.44-.53.86.86 0 00.11-.43.51.51 0 00-.17-.4.77.77 0 00-.51-.14 1.09 1.09 0 00-.6.17 1.15 1.15 0 00-.43.47l-1.78-.89a3 3 0 011.17-1.18 3.74 3.74 0 011.86-.44 3.54 3.54 0 011.47.28 2.28 2.28 0 011 .76 2 2 0 01.36 1.16 2.51 2.51 0 01-.24 1.08c-.26.438-.6.825-1 1.14l-1 .91h2.4z" fill="#FFC463"/><path d="M49.05 72.91H73.6" stroke="#007B64" stroke-width="2" stroke-linecap="round" stroke-linejoin="round"/><path d="M44.87 72.82c.291.358.444.809.43 1.27a2.13 2.13 0 01-.34 1.17 2.46 2.46 0 01-1.07.89 4.3 4.3 0 01-1.79.34 7.348 7.348 0 01-1.5-.16 5 5 0 01-1.29-.47l.8-1.74c.294.163.606.29.93.38a4.09 4.09 0 001 .13c.228.01.456-.038.66-.14a.44.44 0 00.25-.4c0-.32-.28-.48-.83-.48h-.93v-1.45l1-1H39.7v-1.83h5.22v1.45L43.6 72.1a2.25 2.25 0 011.27.72z" fill="#FFC463"/><path d="M49.05 86.75H73.6" stroke="#007B64" stroke-width="2" stroke-linecap="round" stroke-linejoin="round"/><path d="M45.99 89.05h-.93v1.2h-2.29v-1.2h-3.63V87.6l3-4.3h2.42l-2.64 4h1v-1.07h2.22v1.07h.93l-.08 1.75z" fill="#FFC463"/><path d="M49.05 100.59H73.6" stroke="#007B64" stroke-width="2" stroke-linecap="round" stroke-linejoin="round"/><path d="M44.69 100.1a1.996 1.996 0 01.7 1.61c.001.432-.12.855-.35 1.22a2.445 2.445 0 01-1.06.9 4.138 4.138 0 01-1.79.34 6.696 6.696 0 01-1.48-.16 4.212 4.212 0 01-1.28-.47l.8-1.74c.287.17.597.298.92.38.326.091.662.134 1 .13.228.008.455-.04.66-.14a.455.455 0 00.26-.41.402.402 0 00-.23-.37 1.826 1.826 0 00-.83-.13h-2l.35-4.25h4.65v1.78h-2.79v.69h.36a3.18 3.18 0 012.11.62z" fill="#FFC463"/><path d="M99.81 95.47v16.73a7 7 0 01-7 7H39.02a7.003 7.003 0 01-7-7V37a7 7 0 017-7h53.79a7 7 0 017 7v7.78" stroke="#007B64" stroke-width="2" stroke-linecap="round" stroke-linejoin="round"/><path d="M27.72 116.48a6.113 6.113 0 01-.39-.86 6.431 6.431 0 01-.31-1.41l-6.33-63.87a6 6 0 014.17-6.29" stroke="#007B64" stroke-width="1.71" stroke-linecap="round" stroke-linejoin="round"/></svg>