<svg width="145" height="145" fill="none" xmlns="http://www.w3.org/2000/svg"><path d="M5 119.96h119.62m4.5 0H140" stroke="#007B64" stroke-width="2" stroke-linecap="round" stroke-linejoin="round"/><path d="M40.45 119.3s22.24-8.83 38.24-5.83a29.348 29.348 0 0026-8v9l-2.45 4.06-1.29 1.43H41.69l-1.24-.66z" fill="#F1F1F1"/><path d="M30.82 29.13s-2.62 17-2.51 23.77c.11 6.77-5.45 14.74-5.45 14.74l-1.6-33.83 1.23-2.82 1.88-1.29 6.45-.57z" fill="#EBEBEB"/><path d="M32.53 116.31a6.344 6.344 0 01-6.71-5.92l-4.65-74a6.333 6.333 0 015.92-6.72l4.13-.26" stroke="#007B64" stroke-width="2" stroke-linecap="round" stroke-linejoin="round"/><path d="M104.44 101.99v11.85a6.12 6.12 0 01-6.13 6.12h-55.1a6.123 6.123 0 01-6.12-6.12V28.12A6.12 6.12 0 0143.21 22h43.38l17.85 18.88" fill="#fff"/><path d="M104.44 92.81v21a6.12 6.12 0 01-6.13 6.12h-55.1a6.123 6.123 0 01-6.12-6.12V28.12A6.12 6.12 0 0143.21 22h42.94a1.002 1.002 0 01.74.32l17.55 18.56" stroke="#007B64" stroke-width="2.04" stroke-linecap="round" stroke-linejoin="round"/><path d="M104.44 41.14v12.28m-8.17-12.54h-5.1a6.12 6.12 0 01-6.12-6.12v-5.11M44.27 62.5h37.42m-37.42-8.33h37.42M44.27 70.84h37.42m-37.42 8.33h37.42" stroke="#007B64" stroke-width="2" stroke-linecap="round" stroke-linejoin="round"/><path d="M75.69 107.47s-7-5-14-2-16 1-14-4" stroke="#FFC463" stroke-width="2" stroke-linecap="round" stroke-linejoin="round"/><path d="M118.74 52.8a3.22 3.22 0 012 .84l1.58 1.46c1.5 1.38 1.36 4-.3 5.75l-33.7 36.49-10.27 4.57 3.28-11 31.22-33.8 1.41-1.52" fill="#fff"/><path d="M114.443 68.605l-2.673-2.47-26.328 28.5 2.674 2.47 26.327-28.5z" fill="#EBEBEB"/><path d="M111.25 58.55l-3.56 3.92 6.74 6.13 4.14-3.95-7.07-6.37-.25.27z" fill="#FFC463"/><path d="M114.7 68.84l-6.99-6.46m3.53-3.83l7 6.46" stroke="#FFC463" stroke-width="2" stroke-linecap="round" stroke-linejoin="round"/><path d="M118.74 52.8a3.22 3.22 0 012 .84l1.58 1.46c1.5 1.38 1.36 4-.3 5.75l-33.7 36.49-10.27 4.57 3.28-11 31.22-33.8 1.41-1.52" stroke="#007B64" stroke-width="2" stroke-linecap="round" stroke-linejoin="round"/><path d="M81.38 90.88l6.99 6.46" stroke="#007B64" stroke-width="2" stroke-miterlimit="10" stroke-linecap="round"/></svg>