<svg width="145" height="145" fill="none" xmlns="http://www.w3.org/2000/svg"><path d="M5 120.89h135" stroke="#007B64" stroke-width="2" stroke-linecap="round" stroke-linejoin="round"/><path d="M10.07 68.56s7.55-9.69 7.55-16.16c0-6.47 7.54-17.24 7.54-17.24l-12.59.21-2.88 3.72L9 47.55v21l1.07.01z" fill="#EBEBEB"/><path d="M18.01 120.72H15.2a6.354 6.354 0 01-6.36-6.34v-8.35m120.8-71.31c3.51 0 6.36 2.85 6.36 7.43v73.31c0 2.42-2.85 5.26-6.36 5.26h-4.95M8.84 96.52V41.07a6.36 6.36 0 016.36-6.35" stroke="#007B64" stroke-width="1.96" stroke-linecap="round" stroke-linejoin="round"/><path d="M72.35 121.91h-52.8a6.472 6.472 0 01-6.47-6.47v-81.9a6.47 6.47 0 016.47-6.46h46.34a6.46 6.46 0 016.46 6.46v88.37z" fill="#fff"/><path d="M65.89 29.08a4.46 4.46 0 014.46 4.46v86.37h-50.8a4.471 4.471 0 01-4.47-4.47v-81.9a4.47 4.47 0 014.47-4.46h46.34zm0-2H19.55a6.47 6.47 0 00-6.47 6.46v81.9a6.47 6.47 0 006.47 6.47h52.8V33.54a6.46 6.46 0 00-6.46-6.46z" fill="#007B64"/><path d="M122.65 120.83H71.19V34.47c0-3.49 3.49-6.32 7.81-6.32h43.65c4.31 0 7.81 2.83 7.81 6.32v80c0 3.53-3.5 6.36-7.81 6.36z" fill="#fff"/><path d="M71.88 114.36h58.53a6.47 6.47 0 01-6.47 6.47H71.88v-6.47z" fill="#EBEBEB"/><path d="M118.72 28.15h3.93c4.31 0 7.81 2.83 7.81 6.32v80c0 3.49-3.5 6.32-7.81 6.32H71.19V34.47c0-3.49 3.49-6.32 7.81-6.32h17.21M24.15 77.72h34.64m-34.64 6.47h34.64m-34.64 6.47h34.64m-34.64 6.46h34.64" stroke="#007B64" stroke-width="2" stroke-linecap="round" stroke-linejoin="round"/><path d="M59.15 49.71H23.79a1.08 1.08 0 00-1.08 1.08v14c0 .596.483 1.08 1.08 1.08h35.36a1.08 1.08 0 001.08-1.08v-14a1.08 1.08 0 00-1.08-1.08z" fill="#FFC463"/><path d="M119.62 75.57H81.98a1.08 1.08 0 00-1.08 1.08v20.47c0 .596.483 1.08 1.08 1.08h37.64a1.08 1.08 0 001.08-1.08V76.65a1.08 1.08 0 00-1.08-1.08z" fill="#007B64"/><path d="M113.56 47.49l-5.15-2.91a.33.33 0 00-.36 0l-5.17 2.91a.33.33 0 01-.22.05 1.459 1.459 0 01-1.25-1.53V26.37a.371.371 0 01.37-.37h12.88a.381.381 0 01.37.37v19.64a1.463 1.463 0 01-1.24 1.53.33.33 0 01-.23-.05z" fill="#FFC463"/></svg>