<svg width="145" height="145" fill="none" xmlns="http://www.w3.org/2000/svg"><path d="M83.88 121h-60M18 121H5" stroke="#007B64" stroke-width="2" stroke-linecap="round" stroke-linejoin="round"/><path d="M116.59 41.5H35.41c-8.235 0-14.91 6.675-14.91 14.91v49.18c0 8.235 6.675 14.91 14.91 14.91h81.18c8.235 0 14.91-6.675 14.91-14.91V56.41c0-8.235-6.675-14.91-14.91-14.91z" fill="#fff"/><path d="M94.35 45.88a7.87 7.87 0 01-7.82 7.92H64.77A7.87 7.87 0 0157 45.87v-9.95A7.87 7.87 0 0164.77 28h21.76a7.868 7.868 0 017.82 7.92v9.96z" stroke="#FFC463" stroke-width="2" stroke-linecap="round" stroke-linejoin="round"/><path d="M21.1 81.78s6.56 16.83 15 20c10 3.75 27.07 12.48 27.92 18.74l-32-.07-7-2.89-4.18-5.84-1-3.69V79.27l1.26 2.51z" fill="#EBEBEB"/><path d="M131.29 75.34V107a13.484 13.484 0 01-3.889 9.548 13.476 13.476 0 01-9.501 4.002" stroke="#007B64" stroke-width="1.98" stroke-miterlimit="10"/><path d="M93.807 121H33.355a13.384 13.384 0 01-9.466-4.01A13.587 13.587 0 0120 107.415v-52.79a13.622 13.622 0 01.99-5.189 13.545 13.545 0 012.885-4.412 13.43 13.43 0 014.343-2.962A13.35 13.35 0 0133.355 41h84.29a13.409 13.409 0 019.478 4.034 13.608 13.608 0 013.877 9.6v12.781" stroke="#007B64" stroke-width="2" stroke-linecap="round" stroke-linejoin="round"/><path d="M117.91 40.9H33.4A13.48 13.48 0 0020 54.47v21A13.47 13.47 0 0033.4 89h84.5a13.481 13.481 0 0013.39-13.56v-21a13.468 13.468 0 00-13.38-13.54z" fill="#fff"/><path d="M117.9 89a13.42 13.42 0 0012.89-9.87c.33-1.202.498-2.443.5-3.69m0-7.97v-13a13.462 13.462 0 00-3.878-9.558 13.47 13.47 0 00-9.502-4.012H33.4A13.48 13.48 0 0020 54.47v21A13.47 13.47 0 0033.4 89h53.07" stroke="#007B64" stroke-width="2" stroke-linecap="round" stroke-linejoin="round"/><path d="M49.8 92.6a5.28 5.28 0 01-5.24 5.31h-.35A5.28 5.28 0 0139 92.6V86a5.28 5.28 0 015.24-5.31h.35A5.28 5.28 0 0149.8 86v6.6zm62.52 0a5.268 5.268 0 01-5.24 5.31h-.34a5.272 5.272 0 01-5.24-5.31V86a5.275 5.275 0 013.216-4.894 5.273 5.273 0 012.014-.416h.35a5.272 5.272 0 015.24 5.31v6.6z" fill="#FFC463"/><path d="M94.78 85.787A24 24 0 1192 97.008a24.37 24.37 0 01.15-2.72" fill="#fff"/><path d="M94.78 85.787A24 24 0 1192 97.008a24.37 24.37 0 01.15-2.72" stroke="#007B64" stroke-width="2" stroke-linecap="round" stroke-linejoin="round"/><path d="M129 96.95c0 .888 0 1.755-.07 2.623 0 .498-.071.997-.121 1.485-1.007 11.297-6.392 19.942-12.804 19.942C108.818 121 103 110.251 103 97s5.818-24 13.005-24c4.57 0 8.586 4.357 10.901 10.968.332.937.634 1.924.886 2.991A41.59 41.59 0 01129 96.95zM116 73v48M96 83h40m-40 27h40M92 97h47" stroke="#007B64" stroke-width="2" stroke-miterlimit="10"/></svg>