<svg width="145" height="145" fill="none" xmlns="http://www.w3.org/2000/svg"><path d="M5 121h9.77m4.04 0H139.2" stroke="#007B64" stroke-width="2" stroke-linecap="round" stroke-linejoin="round"/><path d="M92.63 43.76V115a6.003 6.003 0 01-6 6h-54a6 6 0 01-6-6V31a6 6 0 016-6h42.51l17.49 18.5" fill="#fff"/><path d="M26.57 112.5h66v1a7 7 0 01-7 7h-52a6.999 6.999 0 01-7-7v-1z" fill="#F1F1F1"/><path d="M92.63 59.33V115a6 6 0 01-6 6h-54a6 6 0 01-6-6V31a6 6 0 016-6h42.08a1 1 0 01.72.32l17.2 18.18m0 .26v7.13" stroke="#007B64" stroke-width="2" stroke-linecap="round" stroke-linejoin="round"/><path d="M84.63 43.5h-5a6 6 0 01-6-6v-5m-35 22.25h30.3" stroke="#007B64" stroke-width="2" stroke-linecap="round" stroke-linejoin="round"/><path d="M34.63 55.7a.95.95 0 100-1.9.95.95 0 000 1.9z" fill="#007B64"/><path d="M38.63 62.93h30.3" stroke="#007B64" stroke-width="2" stroke-linecap="round" stroke-linejoin="round"/><path d="M34.63 63.88a.95.95 0 100-1.9.95.95 0 000 1.9z" fill="#007B64"/><path d="M38.63 71.11h30.3" stroke="#007B64" stroke-width="2" stroke-linecap="round" stroke-linejoin="round"/><path d="M34.63 72.06a.95.95 0 100-1.9.95.95 0 000 1.9z" fill="#007B64"/><path d="M38.63 79.29h30.3" stroke="#007B64" stroke-width="2" stroke-linecap="round" stroke-linejoin="round"/><path d="M34.63 80.24a.95.95 0 100-1.9.95.95 0 000 1.9z" fill="#007B64"/><path d="M38.63 87.47h30.3" stroke="#007B64" stroke-width="2" stroke-linecap="round" stroke-linejoin="round"/><path d="M34.63 88.42a.95.95 0 100-1.9.95.95 0 000 1.9z" fill="#007B64"/><path d="M38.63 95.65h30.3" stroke="#007B64" stroke-width="2" stroke-linecap="round" stroke-linejoin="round"/><path d="M34.63 96.6a.95.95 0 100-1.9.95.95 0 000 1.9z" fill="#007B64"/><path d="M121.46 120.64h-42a4.47 4.47 0 01-4.47-4.47V61.73a4.47 4.47 0 014.47-4.46h42a4.47 4.47 0 014.47 4.46v54.44a4.472 4.472 0 01-4.47 4.47z" fill="#fff"/><path d="M88.93 119.83s4-5 12-4 23-3 25-5v6l-1 2-2 2h-34v-1z" fill="#F1F1F1"/><path d="M125.93 79.1v37.07a4.472 4.472 0 01-4.47 4.47h-42a4.47 4.47 0 01-4.47-4.47V61.73a4.47 4.47 0 014.47-4.46h42a4.47 4.47 0 014.47 4.46v8.1" stroke="#007B64" stroke-width="2" stroke-miterlimit="10" stroke-linecap="round"/><path d="M117.59 77.42H83.35a1.64 1.64 0 01-1.65-1.59v-8.42a1.65 1.65 0 011.65-1.65h34.24a1.651 1.651 0 011.65 1.65v8.42a1.64 1.64 0 01-1.65 1.59z" fill="#FFC463"/><path d="M87.07 82.5h-4.51a.79.79 0 00-.79.79v4.51c0 .436.354.79.79.79h4.51a.79.79 0 00.79-.79v-4.51a.79.79 0 00-.79-.79zm10.42 0h-4.51a.79.79 0 00-.79.79v4.51c0 .436.354.79.79.79h4.51a.79.79 0 00.79-.79v-4.51a.79.79 0 00-.79-.79zm10.43 0h-4.51a.79.79 0 00-.79.79v4.51c0 .436.354.79.79.79h4.51a.79.79 0 00.79-.79v-4.51a.79.79 0 00-.79-.79zm10.42 0h-4.51a.79.79 0 00-.79.79v4.51c0 .436.354.79.79.79h4.51a.79.79 0 00.79-.79v-4.51a.79.79 0 00-.79-.79zM87.07 93.66h-4.51a.79.79 0 00-.79.79v4.51c0 .436.354.79.79.79h4.51a.79.79 0 00.79-.79v-4.51a.79.79 0 00-.79-.79zm10.42 0h-4.51a.79.79 0 00-.79.79v4.51c0 .436.354.79.79.79h4.51a.79.79 0 00.79-.79v-4.51a.79.79 0 00-.79-.79zm10.43 0h-4.51a.79.79 0 00-.79.79v4.51c0 .436.354.79.79.79h4.51a.79.79 0 00.79-.79v-4.51a.79.79 0 00-.79-.79zm10.42 0h-4.51a.79.79 0 00-.79.79v4.51c0 .436.354.79.79.79h4.51a.79.79 0 00.79-.79v-4.51a.79.79 0 00-.79-.79zm-31.27 11.15h-4.51a.79.79 0 00-.79.79v4.51c0 .436.354.79.79.79h4.51a.79.79 0 00.79-.79v-4.51a.79.79 0 00-.79-.79zm10.42 0h-4.51a.79.79 0 00-.79.79v4.51c0 .436.354.79.79.79h4.51a.79.79 0 00.79-.79v-4.51a.79.79 0 00-.79-.79zm10.43 0h-4.51a.79.79 0 00-.79.79v4.51c0 .436.354.79.79.79h4.51a.79.79 0 00.79-.79v-4.51a.79.79 0 00-.79-.79zm10.42 0h-4.51a.79.79 0 00-.79.79v4.51c0 .436.354.79.79.79h4.51a.79.79 0 00.79-.79v-4.51a.79.79 0 00-.79-.79z" stroke="#007B64" stroke-width="2" stroke-miterlimit="10"/></svg>