<svg width="145" height="145" fill="none" xmlns="http://www.w3.org/2000/svg"><path d="M123.97 121.21H22.46m-5.08 0H5m135 0h-8.45" stroke="#007B64" stroke-width="2" stroke-linecap="round" stroke-linejoin="round"/><path d="M104.69 121.21H39.88a6.478 6.478 0 01-6.44-6.48v-10.37c0-17.79 7.93-32.23 25.59-32.41.216 0 .428.051.62.15l11 5.53a3.69 3.69 0 003.24 0l11.05-5.53a1.35 1.35 0 01.62-.15c17.67.18 25.6 14.62 25.6 32.41v10.37a6.48 6.48 0 01-6.47 6.48z" fill="#fff"/><path d="M109.05 89.77a19.45 19.45 0 01-5.66 11.8c-3.16 3.17-2.68 16.13-4.48 18.82l1.9.82 4.64-1.15 2.69-.9 1.79-2.68 1.53-7.74-.51-9.32-.71-5-1.19-4.65z" fill="#EBEBEB"/><path d="M69.84 79.78h5.49a.75.75 0 01.73.6l3.54 17.6a.721.721 0 01-.19.66l-6.29 6.56a.735.735 0 01-.834.173.734.734 0 01-.246-.173l-6.28-6.56a.72.72 0 01-.19-.66l3.53-17.6a.75.75 0 01.74-.6z" fill="#FFC463"/><path d="M75.98 80.47h-6.8a.5.5 0 01-.49-.41l-.86-5.07a.5.5 0 01.7-.53l3.84 1.82a.47.47 0 00.43 0l3.83-1.82a.49.49 0 01.7.53l-.89 5.07a.5.5 0 01-.46.41z" fill="#FFC463"/><path d="M33.49 101.11c.06-1 .14-2.07.26-3.08a45.382 45.382 0 011-5.66c2.9-11.67 10.5-20 23.56-20.4.419-.01.832.09 1.2.29a29.36 29.36 0 0013.4 3.32 22.47 22.47 0 0012.05-3.22 2.45 2.45 0 011.36-.39c17.13.59 24.83 14.86 24.83 32.39v8a8.89 8.89 0 01-8.89 8.89h-60a8.879 8.879 0 01-8.82-8.93v-3.06" stroke="#007B64" stroke-width="1.79" stroke-linecap="round" stroke-linejoin="round"/><path d="M48.46 105.65v15.56m47.96-15.56v15.56" stroke="#007B64" stroke-width="2" stroke-miterlimit="10" stroke-linecap="round"/><path d="M90.95 29.67c.606.732 1.167 1.5 1.68 2.3a23.649 23.649 0 012.73 19.88A24 24 0 1172.44 21c2.511 0 5.007.389 7.4 1.15a25.29 25.29 0 013.52 1.45c.54.28 1.06.57 1.58.88" fill="#fff"/><path d="M96.02 37.47s-1.56.05-3.22 5c-.89 2.65-6.27 11.55-10.76 13.38-6.74 2.68-7.68 11.55-8.07 12.47-.69 1.64 4.49 0 4.49 0l3.28-1.47 4.18-2.26 5-4.53 2.57-3.77 2-4 .95-7.17-.42-7.65z" fill="#EBEBEB"/><path d="M90.95 29.67c.606.732 1.167 1.5 1.68 2.3a23.649 23.649 0 012.73 19.88A24 24 0 1172.44 21c2.511 0 5.007.389 7.4 1.15a25.29 25.29 0 013.52 1.45c.54.28 1.06.57 1.58.88" stroke="#007B64" stroke-width="2" stroke-linecap="round" stroke-linejoin="round"/></svg>