<svg width="145" height="145" fill="none" xmlns="http://www.w3.org/2000/svg"><path d="M5 120h9.77m4.04 0H126.2m4.04 0H140" stroke="#007B64" stroke-width="2" stroke-linecap="round" stroke-linejoin="round"/><path d="M34.93 35.83s1.36 8.33 3 18c1.2 7.11-2.07 17.49-5.36 19.67l-3-31v-3l1.36-1.87" fill="#EBEBEB"/><path d="M46.34 119.41l-1.67.19a6.171 6.171 0 01-6.85-5.4l-8.39-71.77a6.162 6.162 0 015.4-6.84" stroke="#007B64" stroke-width="1.9" stroke-linecap="round" stroke-linejoin="round"/><path d="M41.57 74.5s6 4 9 24 6 21 8 21l-10.88.4-3.16-1.53-1.9-2.87-2.06-41h1z" fill="#EBEBEB"/><path d="M53.61 119.83l-4.46.19a6.579 6.579 0 01-6.85-6.29l-3.29-77a6.571 6.571 0 016.29-6.85" stroke="#007B64" stroke-width="2" stroke-linecap="round" stroke-linejoin="round"/><path d="M115.63 42.76V114a6.003 6.003 0 01-1.757 4.243A6.003 6.003 0 01109.63 120h-54a6 6 0 01-6-6V30a6 6 0 016-6h42.51l17.49 18.5" fill="#fff"/><path d="M49.57 111.5h66v1a7.005 7.005 0 01-2.05 4.95 7.005 7.005 0 01-4.95 2.05h-52a7.003 7.003 0 01-7-7v-1z" fill="#F1F1F1"/><path d="M115.63 42.76V114a6.003 6.003 0 01-1.757 4.243A6.003 6.003 0 01109.63 120h-54a6 6 0 01-6-6V30a6 6 0 016-6h42.08a.998.998 0 01.72.32l17.2 18.18" stroke="#007B64" stroke-width="2" stroke-linecap="round" stroke-linejoin="round"/><path d="M107.63 42.5h-5a6.001 6.001 0 01-6-6v-5m-34 49.25h42" stroke="#007B64" stroke-width="2" stroke-linecap="round" stroke-linejoin="round"/><path d="M58.63 81.7a.95.95 0 100-1.9.95.95 0 000 1.9z" fill="#007B64"/><path d="M62.63 87.39h42" stroke="#007B64" stroke-width="2" stroke-linecap="round" stroke-linejoin="round"/><path d="M58.63 88.34a.95.95 0 100-1.9.95.95 0 000 1.9z" fill="#007B64"/><path d="M62.63 94.02h42" stroke="#007B64" stroke-width="2" stroke-linecap="round" stroke-linejoin="round"/><path d="M58.63 94.97a.95.95 0 100-1.9.95.95 0 000 1.9z" fill="#007B64"/><path d="M62.63 100.65h42" stroke="#007B64" stroke-width="2" stroke-linecap="round" stroke-linejoin="round"/><path d="M58.63 101.6a.95.95 0 100-1.9.95.95 0 000 1.9z" fill="#007B64"/><path d="M80.63 41.5h-20a3 3 0 00-3 3v25a3 3 0 003 3h20a3 3 0 003-3v-25a3 3 0 00-3-3z" fill="#FFC463"/></svg>