<svg width="145" height="145" fill="none" xmlns="http://www.w3.org/2000/svg"><path d="M105.89 44.1s-3.19 13.58-1.19 20.58c2 7 2 13 3 15l2.22-28.62-.22-4.38-1.82-1.72-1.99-.86z" fill="#EBEBEB"/><path d="M6 120h121.17m7.32 0H140" stroke="#007B64" stroke-width="2" stroke-linecap="round" stroke-linejoin="round"/><path d="M23.18 44.3s4.41 2.29 3.41 9.29c-1 7 0 11-1 16-.8 4-2 8-2 8l-2.82-27.36v-2.64l1.37-2.77 1.04-.52z" fill="#EBEBEB"/><path d="M92.78 29.18h-53.9a7.05 7.05 0 00-7.05 7.05v74.9a7.05 7.05 0 007.05 7.05h53.9a7.05 7.05 0 007.05-7.05v-74.9a7.05 7.05 0 00-7.05-7.05z" fill="#fff"/><path d="M37.07 117.91s14.63-10.23 27.63-10.23c13 0 15-8 35.1-8.35l-.1 12.35-2.65 5.07-1.54 1.16H37.07z" fill="#EBEBEB"/><path d="M105.44 44.1a5.001 5.001 0 014.61 5.37l-4.86 63.76a5.295 5.295 0 01-.3 1.39" stroke="#007B64" stroke-width="2.04" stroke-linecap="round" stroke-linejoin="round"/><path d="M99.8 41.47v69.72a7 7 0 01-7 7H39.01a6.999 6.999 0 01-7-7V36a7 7 0 017-7H92.8a7 7 0 017 7v7.78" stroke="#007B64" stroke-width="2" stroke-linecap="round" stroke-linejoin="round"/><path d="M27.7 115.48a5.617 5.617 0 01-.38-.87 5.829 5.829 0 01-.32-1.4l-6.3-63.87a6 6 0 014.17-6.3" stroke="#007B64" stroke-width="1.71" stroke-linecap="round" stroke-linejoin="round"/><path d="M46.59 43.51v9.8h-3.3V46h-1.68v-2.49h4.98z" fill="#FFC463"/><path d="M56.51 48.41h30" stroke="#007B64" stroke-width="2" stroke-linecap="round" stroke-linejoin="round"/><path d="M49.32 70.33v2.57h-7.86v-2l3.55-3.28c.244-.21.45-.46.61-.74a1.29 1.29 0 00.16-.61.659.659 0 00-.25-.56 1 1 0 00-.7-.2 1.58 1.58 0 00-1.45.91l-2.49-1.25a4.09 4.09 0 011.64-1.66 5.18 5.18 0 012.6-.61 5.288 5.288 0 012.06.38 3.19 3.19 0 011.4 1.08 2.64 2.64 0 01.51 1.61 3.428 3.428 0 01-.35 1.52 5.661 5.661 0 01-1.34 1.6l-1.39 1.27 3.3-.03z" fill="#FFC463"/><path d="M56.51 67.88h30" stroke="#007B64" stroke-width="2" stroke-linecap="round" stroke-linejoin="round"/><path d="M49.33 87.35c.404.5.616 1.128.6 1.77a3 3 0 01-.48 1.64A3.26 3.26 0 0147.98 92a5.632 5.632 0 01-2.47.48 10.118 10.118 0 01-2-.22 6.383 6.383 0 01-1.77-.66l1.1-2.44c.402.232.832.41 1.28.53.43.12.874.183 1.32.19.316.013.63-.056.91-.2a.62.62 0 00.35-.56c0-.45-.38-.67-1.15-.67h-1.32v-2l1.47-1.5h-3.5v-2.49h7.21v2l-1.8 1.84a3.13 3.13 0 011.72 1.05z" fill="#FFC463"/><path d="M56.92 87.47h29.59" stroke="#007B64" stroke-width="1.99" stroke-linecap="round" stroke-linejoin="round"/></svg>