<svg width="145" height="145" fill="none" xmlns="http://www.w3.org/2000/svg"><path d="M140.6 123.39l-135 .16" stroke="#007B64" stroke-width="2" stroke-miterlimit="10" stroke-linecap="round"/><path d="M118.01 37H24.47a6.98 6.98 0 00-6.98 6.98v72.04a6.98 6.98 0 006.98 6.98h93.54a6.98 6.98 0 006.98-6.98V43.98a6.98 6.98 0 00-6.98-6.98z" fill="#fff"/><path d="M17.24 112.92h108v2.47a8 8 0 01-8 8h-92a8.001 8.001 0 01-8-8v-2.47z" fill="#EBEBEB"/><path d="M26.27 49.04l89.94.1" stroke="#007B64" stroke-width="2" stroke-miterlimit="10" stroke-linecap="round"/><path d="M96 84c7.732 0 14-6.268 14-14s-6.268-14-14-14-14 6.268-14 14 6.268 14 14 14z" fill="#fff" stroke="#FFC463" stroke-width="2" stroke-miterlimit="10"/><path d="M102 64L90 76m0-12l12 12" stroke="#007B64" stroke-width="1.5" stroke-miterlimit="10" stroke-linecap="round"/><path d="M46 84c7.732 0 14-6.268 14-14s-6.268-14-14-14-14 6.268-14 14 6.268 14 14 14z" fill="#fff" stroke="#FFC463" stroke-width="2" stroke-miterlimit="10"/><path d="M112.68 42.64H92.22a1.01 1.01 0 100 2.02h20.46a1.01 1.01 0 100-2.02z" fill="#FFC463"/><path d="M30.887 43.693a1.405 1.405 0 10-2.81-.004 1.405 1.405 0 002.81.004zm4.22.005a1.405 1.405 0 10-2.81-.004 1.405 1.405 0 002.81.004zm4.21.005a1.405 1.405 0 10-2.81-.003 1.405 1.405 0 002.81.003z" fill="#C4C4C4"/><path d="M17.24 91.84V44.69a7.56 7.56 0 017.56-7.56h92.88a7.57 7.57 0 017.56 7.56V116a7.56 7.56 0 01-7.56 7.56H24.8a7.546 7.546 0 01-6.987-4.665A7.554 7.554 0 0117.24 116v-13.27" stroke="#007B64" stroke-width="2" stroke-miterlimit="10" stroke-linecap="round"/><path d="M40 71.23l4.154 4.847M51.385 65l-7 11" stroke="#007B64" stroke-width="1.5" stroke-miterlimit="10" stroke-linecap="round"/><path d="M32.64 101.2h27.28m-27.28-5.61h27.28m-27.28-5.6h27.28m-27.28 22.84h27.28m-27.28-5.61h27.28M82 101.2h27.28M82 95.59h27.28M82 89.99h27.28M82 112.83h27.28M82 107.22h27.28" stroke="#007B64" stroke-width="2" stroke-linecap="round" stroke-linejoin="round"/></svg>