<svg width="145" height="145" fill="none" xmlns="http://www.w3.org/2000/svg"><path d="M112.69 33.91H71.8a5.21 5.21 0 00-5.21 5.21v65.71a5.21 5.21 0 005.21 5.21h40.89a5.21 5.21 0 005.21-5.21V39.12a5.21 5.21 0 00-5.21-5.21z" fill="#fff"/><path d="M107.71 33.91s1 12.51 5.21 15.64c3 2.26 4.74 10.8 5 11.66.26.86-.66-24.63-.66-24.63l-1.73-1.84-6.58-1.32-1.24.49z" fill="#EBEBEB"/><path d="M117.9 89.54v15.28a5.22 5.22 0 01-5.22 5.22H71.8a5.221 5.221 0 01-5.21-5.22v-65.7a5.21 5.21 0 015.21-5.21h40.88a5.217 5.217 0 015.22 5.21V83" stroke="#007B64" stroke-width="2" stroke-linecap="round" stroke-linejoin="round"/><path d="M44.27 78V29.21A5.21 5.21 0 0149.48 24h54.23a5.221 5.221 0 015.22 5.21v85.52a5.22 5.22 0 01-5.22 5.22H49.48a5.221 5.221 0 01-5.21-5.22v-21.2" fill="#fff"/><path d="M44.27 83V29.21A5.21 5.21 0 0149.48 24h54.23a5.221 5.221 0 015.22 5.21v53.65m0 7.35v24.52a5.22 5.22 0 01-5.22 5.22H49.48a5.221 5.221 0 01-5.21-5.22v-22" stroke="#007B64" stroke-width="2.09" stroke-linecap="round" stroke-linejoin="round"/><path d="M98.49 31.82H54.7a2.09 2.09 0 00-2.09 2.09v9.38a2.09 2.09 0 002.09 2.09h43.79a2.09 2.09 0 002.09-2.09v-9.38a2.09 2.09 0 00-2.09-2.09z" fill="#FFC463"/><path d="M53.76 51.9h43.8m-43.8 6.91h44.37m-44.37 6.92h44.37m-73.56 55.3H140m-135 0h10.04" stroke="#007B64" stroke-width="2" stroke-linecap="round" stroke-linejoin="round"/><path d="M93.86 93.39H66.62l-1-1L60.13 88h-22v33h85.29l.71-33h-24l-6.27 5.39z" fill="#fff"/><path d="M83.49 121s8.63-8.79 19.46-7.58c10.83 1.21 20.17-.65 21-7.73V121H83.49z" fill="#EBEBEB"/><path d="M39.38 87.94h21.57l5.67 5.45h27.23l6.09-5.45h23.96v33.09H37.11V87.94h3.2" stroke="#007B64" stroke-width="2" stroke-linecap="round" stroke-linejoin="round"/><path d="M116.02 101.06c.235.408.359.87.36 1.34v8.32a2.73 2.73 0 01-2.73 2.73H47.78a2.73 2.73 0 01-2.73-2.73v-8.32a2.717 2.717 0 011.686-2.516 2.72 2.72 0 011.044-.204h62.35" stroke="#007B64" stroke-width="2" stroke-linecap="round" stroke-linejoin="round"/></svg>