<svg width="145" height="145" fill="none" xmlns="http://www.w3.org/2000/svg"><path d="M5 121.03l135 .05" stroke="#007B64" stroke-width="2" stroke-miterlimit="10" stroke-linecap="round"/><path d="M58.92 108.52h73.07a.997.997 0 011 1 11.421 11.421 0 01-3.309 8.103 11.43 11.43 0 01-8.071 3.387H23.33a11.439 11.439 0 01-8.068-3.394 11.428 11.428 0 01-3.302-8.106.999.999 0 011-1h38.48M115.61 29H29.55a6.97 6.97 0 00-6.97 6.97v65.06a6.97 6.97 0 006.97 6.97h86.06a6.97 6.97 0 006.97-6.97V35.97a6.97 6.97 0 00-6.97-6.97z" fill="#fff"/><path d="M61.43 108.5s14.32-8 30.38-6.5c11 1 30.35-8.59 30.68-10.29v10.4l-2.68 5.89-7 1-51.38-.5z" fill="#EBEBEB"/><path d="M22.33 101.34v-65.1a7.14 7.14 0 017.09-7.16h80.07" stroke="#007B64" stroke-width="2.18" stroke-miterlimit="10" stroke-linecap="round"/><path d="M106.04 29.12h9.58a7.15 7.15 0 017.09 7.17v65.09a7.133 7.133 0 01-1.47 4.35 7.069 7.069 0 01-5.62 2.81h-7.5" stroke="#007B64" stroke-width="2" stroke-miterlimit="10" stroke-linecap="round"/><path d="M94.99 121s9.82-7 15.82-7 9.47-4.91 9.24-5.46l12.27.07.7 1.61-.21 3.78-6 6-31.82 1z" fill="#EBEBEB"/><path d="M58.92 108.52h73.07a.997.997 0 011 1 11.421 11.421 0 01-3.309 8.103 11.43 11.43 0 01-8.071 3.387H23.33a11.439 11.439 0 01-8.068-3.394 11.428 11.428 0 01-3.302-8.106v0a.999.999 0 011-1h38.48M30.85 39.54l82.76.03" stroke="#007B64" stroke-width="2" stroke-miterlimit="10" stroke-linecap="round"/><path d="M110.31 33.64H91.5a.94.94 0 100 1.88h18.81a.94.94 0 000-1.88z" fill="#FFC463"/><path d="M33.81 33.25h-.01a1.29 1.29 0 00-1.29 1.29v.03c0 .712.577 1.29 1.29 1.29h.01a1.29 1.29 0 001.29-1.29v-.03a1.29 1.29 0 00-1.29-1.29zm3.88 0h-.01a1.29 1.29 0 00-1.29 1.29v.03c0 .712.578 1.29 1.29 1.29h.01a1.29 1.29 0 001.29-1.29v-.03a1.29 1.29 0 00-1.29-1.29zm3.88 0h-.01a1.29 1.29 0 00-1.29 1.29v.03c0 .712.578 1.29 1.29 1.29h.01a1.29 1.29 0 001.29-1.29v-.03a1.29 1.29 0 00-1.29-1.29z" fill="#C4C4C4"/><path d="M54.73 86.76c0-.47.07-.94.13-1.41.095-.873.248-1.738.46-2.59 1.33-5.34 4.81-9.16 10.79-9.34a1 1 0 01.55.13 13.55 13.55 0 006.15 1.52c1.942.04 3.855-.47 5.52-1.47a1.1 1.1 0 01.63-.18c7.84.26 11.37 6.8 11.37 14.83v3.65a4.072 4.072 0 01-4.08 4.1H58.81a4.07 4.07 0 01-4.07-4.07v0-.25" stroke="#007B64" stroke-width="2" stroke-linecap="round" stroke-linejoin="round"/><path d="M83.56 88.85v7.12m-22.48-7.12v7.12" stroke="#007B64" stroke-width="2" stroke-miterlimit="10" stroke-linecap="round"/><path d="M80.98 54c.282.334.54.688.77 1.06.238.367.455.748.65 1.14a11 11 0 11-9.9-6.2c1.15 0 2.294.178 3.39.53.554.18 1.092.404 1.61.67.25.13.49.26.72.41" fill="#FFC463"/></svg>