<svg width="145" height="145" fill="none" xmlns="http://www.w3.org/2000/svg"><path d="M140 121l-135 .16" stroke="#007B64" stroke-width="2" stroke-miterlimit="10" stroke-linecap="round"/><path d="M117.41 34H23.87a6.98 6.98 0 00-6.98 6.98v72.04a6.98 6.98 0 006.98 6.98h93.54a6.98 6.98 0 006.98-6.98V40.98a6.98 6.98 0 00-6.98-6.98z" fill="#fff"/><path d="M16.64 109.92h108v2.47a8 8 0 01-8 8h-92a8.001 8.001 0 01-8-8v-2.47z" fill="#EBEBEB"/><path d="M25.67 46.04l89.94.1" stroke="#007B64" stroke-width="2" stroke-miterlimit="10" stroke-linecap="round"/><path d="M112.08 39.64H91.62a1.01 1.01 0 000 2.02h20.46a1.01 1.01 0 100-2.02z" fill="#FFC463"/><path d="M30.287 40.693a1.405 1.405 0 10-2.81-.004 1.405 1.405 0 002.81.004zm4.22.005a1.405 1.405 0 10-2.81-.004 1.405 1.405 0 002.81.004zm4.21.005a1.405 1.405 0 10-2.81-.004 1.405 1.405 0 002.81.004z" fill="#C4C4C4"/><path d="M16.64 88.84V41.69a7.559 7.559 0 017.56-7.56h92.88a7.57 7.57 0 017.56 7.56V113a7.56 7.56 0 01-7.56 7.56H24.2a7.546 7.546 0 01-5.349-2.211A7.566 7.566 0 0116.64 113V99.73" stroke="#007B64" stroke-width="2" stroke-miterlimit="10" stroke-linecap="round"/><path d="M67.3 82.28a8.26 8.26 0 011.6 5.15 7.621 7.621 0 01-3.37 6.66c-2.24 1.56-5.513 2.337-9.82 2.33h-17v-33h16.1c4 0 7.083.77 9.25 2.31A7.311 7.311 0 0167.25 72a7.91 7.91 0 01-4.38 7.26 8.67 8.67 0 014.43 3.02zM46.25 69.21V77h7.58a7.63 7.63 0 004.28-1 3.281 3.281 0 001.46-2.92 3.24 3.24 0 00-1.46-2.9 7.82 7.82 0 00-4.28-1l-7.58.03zm13.44 20.48a3.39 3.39 0 001.53-3.06c0-2.727-2.023-4.093-6.07-4.1h-8.9v8.15h8.9a8.43 8.43 0 004.54-.99zm30.11-4.94v11.67h-7.62V84.65L69.4 63.46h8.09l8.81 14.65 8.8-14.65h7.49L89.8 84.75z" fill="#FFC463"/></svg>