<svg width="145" height="145" fill="none" xmlns="http://www.w3.org/2000/svg"><path d="M138.88 121h-114M19 121H6" stroke="#007B64" stroke-width="2" stroke-linecap="round" stroke-linejoin="round"/><path d="M31.82 49a43.462 43.462 0 0113.74-15.39 43.26 43.26 0 1133.83 77.9 43.805 43.805 0 01-9.32 1.01 43.261 43.261 0 01-43.26-43.26 44.23 44.23 0 01.27-4.91" fill="#fff"/><path d="M73.54 112.38a43.261 43.261 0 01-46.73-43.12 44.23 44.23 0 01.27-4.91m86.17 2.42c0 .82.07 1.65.07 2.49a43.274 43.274 0 01-33.93 42.25M31.82 49a43.46 43.46 0 0113.74-15.39 43.28 43.28 0 0166.2 24.07" stroke="#007B64" stroke-width="2" stroke-linecap="round" stroke-linejoin="round"/><path d="M70.07 112.52c-12.82 0-23.21-19.37-23.21-43.26C46.86 45.37 57.25 26 70.07 26c8.16 0 15.33 7.85 19.47 19.71.59 1.7 1.12 3.48 1.58 5.32a68.585 68.585 0 011.38 7.07" stroke="#007B64" stroke-width="2" stroke-miterlimit="10" stroke-linecap="round"/><path d="M70.07 26v86.48m-35.9-67.62h71.45" stroke="#007B64" stroke-width="2" stroke-miterlimit="10"/><path d="M80.35 93.4h25.27m-71.45 0h41.4M27.69 69.13H75.5" stroke="#007B64" stroke-width="2" stroke-miterlimit="10" stroke-linecap="round"/><path d="M120.47 63.91H79.36a3 3 0 00-3 3v48.67a3 3 0 003 3h41.11a3 3 0 003-3V66.91a3 3 0 00-3-3z" fill="#fff"/><path d="M76.36 116.37v-47.8a3.51 3.51 0 013.5-3.51h40.07a3.509 3.509 0 013.5 3.51v48.08a3.502 3.502 0 01-3.5 3.5H79.86a3.501 3.501 0 01-3.5-3.5v.14m5.9-51.73v55.09" stroke="#007B64" stroke-width="2" stroke-linecap="round" stroke-linejoin="round"/><path d="M127.41 67.12A3.419 3.419 0 01129 70v46.67a3.474 3.474 0 01-1.013 2.447 3.474 3.474 0 01-2.447 1.013h-6.68" stroke="#007B64" stroke-width="2" stroke-linecap="round" stroke-linejoin="round"/><path d="M91.02 76.33h23.49m1.82 4.51H89.2" stroke="#FFC463" stroke-width="2" stroke-linecap="round" stroke-linejoin="round"/><path d="M109.76 90.86h-14a3 3 0 00-3 3v12.03a3 3 0 003 3h14a3 3 0 003-3V93.86a3 3 0 00-3-3z" fill="#FFC463"/></svg>