<svg width="145" height="145" fill="none" xmlns="http://www.w3.org/2000/svg"><path d="M5 121.03l135 .05" stroke="#007B64" stroke-width="2" stroke-miterlimit="10" stroke-linecap="round"/><path d="M58.92 108.52h73.06a.997.997 0 011 1 11.434 11.434 0 01-3.315 8.104 11.439 11.439 0 01-8.075 3.386H23.31a11.44 11.44 0 01-11.37-11.5 1 1 0 011-1h38.48M115.6 29H29.54a6.97 6.97 0 00-6.97 6.97v65.06a6.97 6.97 0 006.97 6.97h86.06a6.97 6.97 0 006.97-6.97V35.97A6.97 6.97 0 00115.6 29z" fill="#fff"/><path d="M62.93 108.52s7.52-11.61 26.25-12.12c19.16-.53 12-13.12 32.73-16.24l1 2.09V98.1s1 9.4-6.21 10.44c-7.21 1.04-53.77-.02-53.77-.02z" fill="#EBEBEB"/><path d="M22.33 101.34v-65.1a7.15 7.15 0 017.1-7.16h80.06" stroke="#007B64" stroke-width="2.18" stroke-miterlimit="10" stroke-linecap="round"/><path d="M106.03 29.12h9.54a7.151 7.151 0 017.09 7.17v65.09a7.133 7.133 0 01-1.47 4.35 7.069 7.069 0 01-5.62 2.81h-7.5" stroke="#007B64" stroke-width="2" stroke-miterlimit="10" stroke-linecap="round"/><path d="M58.92 108.52h73.06a.997.997 0 011 1 11.434 11.434 0 01-3.315 8.104 11.439 11.439 0 01-8.075 3.386H23.31a11.44 11.44 0 01-11.37-11.5v0a1 1 0 011-1h38.48M30.84 39.54l82.76.03M40.79 76.54l48.78.03m-49 5.7l48.78.03M40.57 88l48.78.03" stroke="#007B64" stroke-width="2" stroke-miterlimit="10" stroke-linecap="round"/><path d="M110.3 33.64H91.49a.94.94 0 000 1.88h18.81a.94.94 0 000-1.88z" fill="#FFC463"/><path d="M33.8 33.25h-.01a1.29 1.29 0 00-1.29 1.29v.03c0 .712.578 1.29 1.29 1.29h.01a1.29 1.29 0 001.29-1.29v-.03a1.29 1.29 0 00-1.29-1.29zm3.88 0h-.01a1.29 1.29 0 00-1.29 1.29v.03c0 .712.577 1.29 1.29 1.29h.01a1.29 1.29 0 001.29-1.29v-.03a1.29 1.29 0 00-1.29-1.29zm3.88 0h-.01a1.29 1.29 0 00-1.29 1.29v.03c0 .712.577 1.29 1.29 1.29h.01a1.29 1.29 0 001.29-1.29v-.03a1.29 1.29 0 00-1.29-1.29z" fill="#C4C4C4"/><path d="M67.54 51.04H43.88a3.03 3.03 0 00-3.03 3.03v12.9A3.03 3.03 0 0043.88 70h23.66a3.03 3.03 0 003.03-3.03v-12.9a3.03 3.03 0 00-3.03-3.03z" fill="#FFC463"/></svg>