<svg xmlns="http://www.w3.org/2000/svg" viewBox="0 0 145 145"><defs><style>.cls-1,.cls-3{fill:none;stroke-width:2px;stroke:#007b64;stroke-linecap:round}.cls-1{stroke-linejoin:round}.cls-2{fill:#fff}.cls-3{stroke-miterlimit:10}</style></defs><g id="_39_Ваша_организация_является_нерезидентом_Республики_Беларусь_" data-name="39 Ваша организация является нерезидентом Республики Беларусь?"><path class="cls-1" d="M135.88 133.51h-114m-5.88.01H3"/><path class="cls-2" d="M28.82 63a43.46 43.46 0 0113.74-15.39 43.26 43.26 0 1133.83 77.9c-1.13.25-2.28.45-3.44.61a43.88 43.88 0 01-5.88.4 43.26 43.26 0 01-43.26-43.26 44.21 44.21 0 01.27-4.91"/><path class="cls-1" d="M70.54 126.38c-1.15.09-2.31.14-3.47.14a43.26 43.26 0 01-43.26-43.26 44.21 44.21 0 01.27-4.91m86.17 2.42c0 .82.07 1.65.07 2.49a43.27 43.27 0 01-33.93 42.25M28.82 63a43.46 43.46 0 0113.74-15.39 43.28 43.28 0 0166.2 24.07"/><path class="cls-3" d="M67.07 126.52c-12.82 0-23.21-19.37-23.21-43.26S54.25 40 67.07 40c8.16 0 15.33 7.85 19.47 19.71.59 1.7 1.12 3.48 1.58 5.32a68.58 68.58 0 011.38 7.07"/><path d="M67.07 40v86.48m-35.9-67.62h71.45" stroke-miterlimit="10" stroke="#007b64" fill="none" stroke-width="2"/><path class="cls-3" d="M77.35 107.4h25.27m-71.45 0h41.4M24.69 83.13H72.5"/><rect class="cls-2" x="73.36" y="77.91" width="47.11" height="54.67" rx="3"/><path class="cls-1" d="M73.36 129.37v-47.8a3.51 3.51 0 013.5-3.51h40.07a3.51 3.51 0 013.5 3.51v48.08a3.5 3.5 0 01-3.5 3.5H76.86a3.5 3.5 0 01-3.5-3.5v.14m5.9-51.73v55.09"/><path class="cls-1" d="M124.41 80.12A3.42 3.42 0 01126 83v46.67a3.46 3.46 0 01-3.46 3.46h-6.68"/><path d="M88.02 90.33h23.49m1.82 4.51H86.2" stroke="#ffc463" stroke-linejoin="round" stroke-linecap="round" fill="none" stroke-width="2"/><rect x="89.76" y="104.86" width="20" height="18.03" rx="3" fill="#ffc463"/></g></svg>