<svg xmlns="http://www.w3.org/2000/svg" viewBox="0 0 145 145"><defs><style>.cls-1{fill:none;stroke:#007b64;stroke-linecap:round;stroke-miterlimit:10;stroke-width:2px}.cls-2{fill:#fff}.cls-5{fill:#ffc463}.cls-6{fill:#c4c4c4}</style></defs><g id="_40_Ваша_организация_оказывает_услуги_в_электронной_форме_" data-name="40 Ваша организация оказывает услуги в электронной форме?"><path class="cls-1" d="M4.43 135.03l135 .05"/><path class="cls-2" d="M58.35 122.52h73.06a1 1 0 011 1 11.44 11.44 0 01-11.39 11.49H22.74a11.44 11.44 0 01-11.37-11.5 1 1 0 011-1h38.48"/><rect class="cls-2" x="22" y="43" width="100" height="79" rx="6.97"/><path d="M62.36 122.52s7.52-11.61 26.25-12.12c19.16-.53 12-13.12 32.73-16.24l1 2.09v15.85s1 9.4-6.21 10.44-53.77-.02-53.77-.02z" fill="#ebebeb"/><path d="M21.76 115.34v-65.1a7.15 7.15 0 017.1-7.16h80.06" stroke-width="2.18" fill="none" stroke="#007b64" stroke-linecap="round" stroke-miterlimit="10"/><path class="cls-1" d="M105.46 43.12H115a7.15 7.15 0 017.09 7.17v65.09a7.13 7.13 0 01-1.47 4.35 7.06 7.06 0 01-5.62 2.81h-7.5"/><path class="cls-1" d="M58.35 122.52h73.06a1 1 0 011 1 11.44 11.44 0 01-11.39 11.49H22.74a11.44 11.44 0 01-11.37-11.5 1 1 0 011-1h38.48M30.27 53.54l82.76.03M40.22 90.54l48.78.03m-49 5.7l48.78.03M40 102l48.78.03"/><rect class="cls-5" x="89.98" y="47.64" width="20.69" height="1.88" rx=".94"/><rect class="cls-6" x="31.93" y="47.25" width="2.59" height="2.61" rx="1.29"/><rect class="cls-6" x="35.81" y="47.25" width="2.59" height="2.61" rx="1.29"/><rect class="cls-6" x="39.69" y="47.25" width="2.59" height="2.61" rx="1.29"/><rect class="cls-5" x="40.28" y="65.04" width="29.72" height="18.96" rx="3.03"/></g></svg>