<svg xmlns="http://www.w3.org/2000/svg" viewBox="0 0 145 145"><defs><style>.cls-1{fill:none;stroke-linecap:round;stroke-linejoin:round;stroke:#007b64;stroke-width:2px}.cls-2{fill:#fff}.cls-3{fill:#f1f1f1}</style></defs><g id="_37_Ведение_учета" data-name="37 Ведение учета"><path class="cls-1" d="M4.4 131.07h10.94m3.12 0h109.37m6.6 0h4.97"/><path class="cls-2" d="M93.71 113v11.85a6.12 6.12 0 01-6.12 6.15h-55.1a6.12 6.12 0 01-6.12-6.13V39.12A6.12 6.12 0 0132.49 33h43.38l17.84 18.88"/><path class="cls-3" d="M26.37 95.48s4.23 9.91 19.92 14.52c11.17 3.29 17.49 8.35 20.5 21l-36.56-.17-3.06-1.93-.79-2.37z"/><path d="M93.71 115.81v9a6.12 6.12 0 01-6.12 6.19h-55.1a6.12 6.12 0 01-6.12-6.13V39.12A6.12 6.12 0 0132.49 33h42.94a1 1 0 01.74.32l17.54 18.56" stroke-width="2.04" stroke="#007b64" fill="none" stroke-linecap="round" stroke-linejoin="round"/><path class="cls-1" d="M93.71 52.14v30.28m-8.16-30.54h-5.1a6.13 6.13 0 01-6.13-6.13v-5.1"/><path d="M34.55 55.69h26.53m-26.53 5.48h26.53M34.55 50.21h26.53" stroke="#ffc463" stroke-width="2" fill="none" stroke-linecap="round" stroke-linejoin="round"/><path class="cls-2" d="M115.49 131.07H43.71a3.67 3.67 0 01-3.71-3.68V83.68A3.68 3.68 0 0143.71 80h23.21l8.77 7.36h39.8a3.68 3.68 0 013.68 3.64v36.35a3.68 3.68 0 01-3.68 3.72z"/><path class="cls-3" d="M40 111.71s24.47-.64 39 8.29c13 8 22.24 11 22.24 11H42.8l-2.18-1.57-.59-4z"/><path class="cls-1" d="M115.49 131.07H43.71a3.67 3.67 0 01-3.71-3.68V83.68A3.68 3.68 0 0143.71 80h23.21l8.77 7.36h39.8a3.68 3.68 0 013.68 3.64v36.35a3.68 3.68 0 01-3.68 3.72z"/><rect x="93" y="93" width="20" height="7" rx="1" fill="#ffc463"/></g></svg>