<svg xmlns="http://www.w3.org/2000/svg" width="548.92" height="496.59"><defs><clipPath id="a"><ellipse cx="397.42" cy="320.59" rx="72.49" ry="10.86" fill="#fff" stroke="#262626" stroke-miterlimit="10"/></clipPath><clipPath id="b"><path d="M102.11 431.4s-12.25-9.08-7.11-50.17 40.3-85.73 47-92.84 40.69-31.6 40.69-31.6-14.22-22.52-10.66-56.5c0 0-33.58 0-37.93-42.66s37.14-41.09 41.09-41.09 23.3 15 25.68 17c0 0 55.7-23.7 93.62-2 0 0 2.37-18.56 30.82-26.86s30.81 34.37 30 42.27-5.13 22.52-26.47 24.5c0 0-1.58 14.22 5.93 24.49s7.9 26.86 1.19 39.9-11.07 19-23.31 25.68c0 0 51.75 41.08 54.12 111a11.58 11.58 0 017.11 9.09s1.19-9.09 15-11.07 19.36 8.7 18.18 26.87c0 0 3.16.39 3.16 11.06s-10.67 42.67-19.76 51.36-21.73 19.75-46.22 16.2-51.75-21.34-51.75-21.34-15 13-63.21 1.19c0 0-15.8 31.6-48.59 25.28s-40.69-39.5-34-68.34c0 0-10.27 7.11-16.2-10.67.06.02 1.25 53.35-28.38 29.25z" fill="#00654d"/></clipPath></defs><g data-name="Слой 2"><g data-name="Слой 1"><path d="M145.32 61.34c70-22.59 111.84 2.71 186.51-35.28 23.4-11.91 24.46-17 42-21.85C426-10.11 498.18 12.61 530.11 64.7c35.37 57.71 5.39 125.46-13.44 168-9.12 20.61-67.38 152.29-210 179.8-86 16.58-203.44-4.52-260.45-90.74-5.24-7.92-55.78-86.91-23.52-163 28.38-67 103.96-91.39 122.62-97.42z" fill="#c4c4c4"/><ellipse cx="286.41" cy="452.14" rx="262.52" ry="44.44" fill="#ebebeb"/><path d="M403.54 430.22s59.26 2.37 71.11-11.06l13.83-98.77L301.61 322l11.46 94.82z" fill="#fff" stroke="#262626" stroke-miterlimit="10"/><ellipse cx="396.43" cy="320.39" rx="92.05" ry="15.01" fill="#fff" stroke="#262626" stroke-miterlimit="10"/><ellipse cx="397.42" cy="320.59" rx="72.49" ry="10.86" fill="#fff"/><g clip-path="url(#a)"><path fill="#fff" stroke="#262626" stroke-miterlimit="10" d="M388.13 325.53l13.83 2.37"/><ellipse cx="397.42" cy="328.89" rx="72.49" ry="8.49" fill="#262626"/></g><ellipse cx="397.42" cy="320.59" rx="72.49" ry="10.86" fill="none" stroke="#262626" stroke-miterlimit="10"/><path d="M102.11 431.4s-12.25-9.08-7.11-50.17 40.3-85.73 47-92.84 40.69-31.6 40.69-31.6-14.22-22.52-10.66-56.5c0 0-33.58 0-37.93-42.66s37.14-41.09 41.09-41.09 23.3 15 25.68 17c0 0 55.7-23.7 93.62-2 0 0 2.37-18.56 30.82-26.86s30.81 34.37 30 42.27-5.13 22.52-26.47 24.5c0 0-1.58 14.22 5.93 24.49s7.9 26.86 1.19 39.9-11.07 19-23.31 25.68c0 0 51.75 41.08 54.12 111a11.58 11.58 0 017.11 9.09s1.19-9.09 15-11.07 19.36 8.7 18.18 26.87c0 0 3.16.39 3.16 11.06s-10.67 42.67-19.76 51.36-21.73 19.75-46.22 16.2-51.75-21.34-51.75-21.34-15 13-63.21 1.19c0 0-15.8 31.6-48.59 25.28s-40.69-39.5-34-68.34c0 0-10.27 7.11-16.2-10.67.06.02 1.25 53.35-28.38 29.25z" fill="#00654d"/><g clip-path="url(#b)" fill="#007a65"><path d="M256.18 122.47s22.92-.4 29.24 25.28 5.66 30.55 6.06 34.24 1.22 7.14 5.66 10.6c7.83 6.12 14.94 15 18.1 21.93a51.64 51.64 0 014.35 28.24c-1.38 12.25-3 13.63-4.15 17s37.53-19 37.53-19l6.52-126.62-8.69-1.78s-15.56.19-20.35 1.78c-7.11 2.37-20.34 5.53-28 21.33-.04.03-25.92-14.98-46.27-13zm38.32 148.34s18.18 52.94 17.19 97.78-13.63 62.41-17.19 68.74-18.56 22.91-22.12 25.88 20.54-5.93 20.54-5.93l55.31 28.05 47.41-15.41 22.71-78.42-10.66-23.31-32.2-.39-6.52 3-9.28-70.52-40.49-40.53zm-84.67-7.04s-33.71 15.8-59 75.85-11.06 35.82-20 39.5c0 0-11.59 45-28.71 52.28 0 0 25.55 29.9 28.18-27.52 0 0 5 15.28 16.46 9s43.58-138.58 63.07-149.11z"/></g><g fill="none" stroke="#262626"><path d="M185.87 122.37c6.5 4.45 13.63 10 15 11.16a161.89 161.89 0 0132.45-9.11m-89.04 161.8c10-8.94 38.42-29.43 38.42-29.43s-14.22-22.52-10.66-56.5c0 0-33.58 0-37.93-42.66-3.8-37.33 27.48-40.79 38-41.07" stroke-miterlimit="10"/><path d="M322.66 105.52c.86-.29 1.75-.56 2.66-.83 28.44-8.3 30.81 34.37 30 42.27s-5.13 22.52-26.47 24.5c0 0-1.58 14.22 5.93 24.49s7.9 26.86 1.19 39.9-11.07 19-23.31 25.68c0 0 51.75 41.08 54.12 111a11.58 11.58 0 017.11 9.09s1.19-9.09 15-11.07 19.36 8.7 18.18 26.87c0 0 3.16.39 3.16 11.06s-10.67 42.67-19.76 51.36-21.73 19.75-46.22 16.2-51.75-21.34-51.75-21.34-15 13-63.21 1.19c0 0-15.8 31.6-48.59 25.28s-40.69-39.5-34-68.34c0 0-10.27 7.11-16.2-10.67 0 0 1.19 53.33-28.44 29.23 0 0-12.25-9.08-7.11-50.17 3.91-31.3 25.25-64.66 38.16-81.92m120.37-176.89c13.84-.28 28.41 1.92 41 9.14 0 0 1.4-11 15-19.81" stroke-linecap="round" stroke-linejoin="round"/></g><path d="M230.9 119.11s6.91 2.37 7.7 8.69m-1.6-9.48s4.94 4 5.53 9.09m3.18-9.49s3.95 6.13 3.16 9.68M171.05 113s3.55 1.18 4.15 7.7m2.17-7.12c.2 1.18 4.54 4.94 3.16 9.88m2.17-8.3s2.18 5.14 1.19 9.88m129.58-21.14s-3.36 5.33-1.78 10.86m5.31-11.65s-2 2.77-1.18 8.49m6.54-11.26s-4 3-2.77 9.88M135.1 289.58s5.13-3.56 9.48-.79m-10.67 4.94s4.74-1.39 6.92.79m2.76-149.93s27.66-19.75 54.91 10.67m-23.7 33.18s3.56-28.05 17.78-37.53m-16.2 27.66s-25.68-13-1.58-37.93m119.7-9.09s27.26 10.28 34.37 39.91m15.41-47.02s-20.94-7.9-27.65 23.31" fill="none" stroke="#262626" stroke-miterlimit="10"/><path d="M326.11 161.58s17-1.58 14.62-15.8-20.94-8.3-20.94-8.3" fill="none" stroke="#262626" stroke-miterlimit="10"/><path d="M262.11 122.47s22.12 6.71 26.86 34.76-.66 27.66 8.17 35.36" fill="none" stroke="#262626" stroke-linecap="round" stroke-linejoin="round" stroke-dasharray="12"/><path d="M291.34 196.34s5.53-5.92 17.39-2.76M198.5 260.34s66.37 21.73 114.18 1.19" fill="none" stroke="#262626" stroke-miterlimit="10"/><path d="M146.75 412.84s2.37-15.81 4.35-18.57c0 0-10.67-18.17-3.16-27.26s14.61-19 33.18 0c0 0 11.46-21.73 31.61-16.59s17.38 30 17.38 30 17-5.92 22.91 5.14-5.53 22.52-10.27 25.28c0 0 1.19 26.07-13.43 45" fill="#00654d" stroke="#262626" stroke-miterlimit="10"/><path d="M292.53 454.71s34-11.06 39.11-60.44-16.59-116.54-24.1-124.45" fill="none" stroke="#262626" stroke-miterlimit="10"/><path d="M366.8 372.54s-8.69 1.58-17.38 10.27-14.62 10.67-17.78 11.46M194.55 290.76s-20.93 43.06-21.33 68.35" fill="none" stroke="#262626" stroke-miterlimit="10"/><path d="M102.11 431.4s20.54-7.5 26.07-52.54c0 0 9.88 2.37 14.23-15.41s27.26-79.8 66.37-97.18M306 452.74s26.07 19 59.65 2.37" fill="none" stroke="#262626" stroke-linecap="round" stroke-linejoin="round" stroke-dasharray="12"/><ellipse cx="192.36" cy="426.7" rx="46.64" ry="34.76" transform="rotate(-67.51 192.384 426.716)" fill="none" stroke="#262626" stroke-miterlimit="10"/><path d="M376.74 462.94c-11.37-2-17.65-20.05-14-40.23s19.58-37.2 30.94-35.16" fill="none" stroke="#262626" stroke-miterlimit="10"/><path d="M295.81 198.7a6.76 6.76 0 012.53-1c2.5-.46 8.68-1.43 11.18-.18 3.16 1.58 4 2.77 3.55 5.93-.39 2.69-2.11 7.3-5.33 8.29s-8.3-1.91-11-5.53c-2.36-3.16-3.74-5.62-.93-7.51z" fill="#262626"/><ellipse cx="272.71" cy="192.39" rx="2.7" ry="5.93" fill="#262626"/><ellipse cx="311.69" cy="187.13" rx="2.7" ry="5.93" fill="#262626"/><path d="M294.5 270.81s19.36 49.19 17.19 97.78-16.79 81.78-36.94 91.65" fill="none" stroke="#262626" stroke-linecap="round" stroke-linejoin="round" stroke-dasharray="12"/><path d="M232.48 278.52s37.53-15.81 63.6-15 41.49-6.71 58.47 2.77c0 0 7.51 18.17-5.13 22.91s-44.25-17.77-44.25-17.77 25.68 33.57 29.23 52.91l-18.56 16.6s-1.58-41.09-16.6-64.4c0 0 3.56 45.43-3.55 58.86l-19.75-11.06s13-30.81 16.59-48.19l-3.16-2.37s-30.82 35.55-47.8 25.28-9.09-20.54-9.09-20.54z" fill="#fbc469" stroke="#262626" stroke-miterlimit="10"/><path d="M374.17 204.25s-6.32 25.81 2.11 41.08 21.07 35.29 23.7 47.93 4.75 30.56 4.75 30.56m46.35-115.89s-15.28 15.8-17.91 35.29-4.21 59.53-15.8 78.49" fill="none" stroke="#262626" stroke-miterlimit="10"/><path d="M383.9 191.54c-.79 4.44-6.61 14.07-9.91 13.48s-2.81-11.18-2-15.62 4.11-7.55 7.4-7 5.31 4.7 4.51 9.14zm3.65 27.83c-3.34 2.62-13.46 5.76-15.41 3.28s5-9.63 8.35-12.25 7.63-2.75 9.58-.27.82 6.61-2.52 9.24zm21.7 59.22c-2.77 3.22-12.09 8.26-14.49 6.2s3.06-10.41 5.83-13.64 7-4.17 9.34-2.11 2.07 6.33-.68 9.55zM399 258.05c-2.77 3.22-12.1 8.26-14.49 6.2s3.06-10.42 5.83-13.64 6.95-4.17 9.34-2.12 2.07 6.34-.68 9.56zm-8.71-20.94c-2.77 3.22-12.1 8.26-14.49 6.2s3.06-10.41 5.83-13.64 6.95-4.17 9.34-2.11 2.09 6.33-.68 9.55zm75.45-33.97c-2.76 3.22-12.09 8.25-14.48 6.2s3.06-10.42 5.82-13.64 6.95-4.17 9.35-2.12 2.08 6.33-.69 9.56zM414 297.07c-1.39 4-8.21 12.13-11.19 11.1s-1-10.81.4-14.82 4.93-6.44 7.91-5.41 4.28 5.12 2.88 9.13zm24.94 13.04c-4 1.38-14.61 1-15.64-1.95s7.9-7.46 11.91-8.84 8.11-.1 9.14 2.88-1.35 6.52-5.41 7.91zm5.53-21.73c-4 1.38-14.61 1-15.63-1.95s7.89-7.45 11.9-8.84 8.11-.1 9.14 2.88-1.39 6.53-5.41 7.91zm3.16-22.52c-4 1.39-14.61 1-15.63-1.95s7.89-7.45 11.91-8.84S452 255 453 258s-1.35 6.47-5.37 7.86zm1.58-21.33c-4 1.38-14.6 1-15.63-1.95s7.89-7.46 11.91-8.84 8.1-.1 9.13 2.88-1.39 6.52-5.41 7.91zm6.72-17.78c-4 1.39-14.61 1-15.64-1.95s7.9-7.45 11.91-8.84 8.11-.1 9.14 2.88-1.4 6.52-5.41 7.91z" fill="#262626"/><path d="M439.8 206.53c2.08 3.71 3.6 14.2.85 15.74s-8.73-6.45-10.81-10.16-1.53-8 1.22-9.5 6.67.22 8.74 3.92zM429 226.56c2.7 3.29 6.05 13.34 3.61 15.34s-9.73-4.81-12.43-8.09-2.91-7.56-.47-9.57 6.54-.96 9.29 2.32zm-5.58 47.01c2.7 3.29 6.05 13.34 3.61 15.34s-9.73-4.81-12.43-8.09-2.91-7.56-.47-9.56 6.59-.97 9.29 2.31zm-4.35 21.73c2.7 3.29 6.05 13.34 3.62 15.34s-9.74-4.81-12.44-8.09-2.91-7.56-.47-9.57 6.6-.98 9.29 2.32zm-54.68-85.74c3.49 2.43 9.43 11.2 7.63 13.79s-10.67-2-14.16-4.43-4.85-6.49-3-9.08 6.05-2.71 9.53-.28zm-1.08 23.8c4 1.34 12.22 8.07 11.22 11.06s-10.8 1.11-14.83-.23-6.49-4.86-5.49-7.85 5.07-4.34 9.1-2.98zm11.45 20.93c4 1.35 12.22 8.07 11.23 11.06s-10.8 1.12-14.83-.23-6.49-4.85-5.5-7.84 5.07-4.28 9.1-2.99zM385.43 276c4 1.34 12.22 8.07 11.22 11.06s-10.79 1.11-14.83-.23-6.49-4.85-5.49-7.84 5.07-4.31 9.1-2.99zm5.93 21.75c4 1.34 12.22 8.07 11.22 11.06s-10.8 1.11-14.83-.23-6.49-4.85-5.5-7.84 5.07-4.33 9.11-2.99zm33.96-47.96c3 3 7.23 12.73 5 15s-10.13-3.91-13.11-6.94-3.58-7.27-1.34-9.48 6.47-1.61 9.45 1.42z" fill="#262626"/><path fill="none" stroke="#262626" stroke-miterlimit="10" d="M16.38 223.21l50.18 32.39 54.51-5.13-50.56-32-54.13 4.74z"/><path fill="none" stroke="#262626" stroke-miterlimit="10" d="M121.6 250.73l-14.75 57.81-54.52 4.74 14.23-57.68-50.18-32.39-15.8 58.07 51.62 31.87"/><circle cx="63.99" cy="187.06" r="5.73" fill="none" stroke="#262626" stroke-miterlimit="10"/><circle cx="106.65" cy="193.78" r="8.89" fill="none" stroke="#262626" stroke-miterlimit="10"/><circle cx="108.04" cy="153.68" r="4.35" fill="none" stroke="#262626" stroke-miterlimit="10"/><path fill="none" stroke="#262626" stroke-miterlimit="10" d="M392.48 56.49l6.71 73.88 65.98 17.38 70.32-29.23-7.51-73.48-66.76-17.78-68.74 29.23z"/><path fill="none" stroke="#262626" stroke-miterlimit="10" d="M392.38 57.09l65.28 16.79 7.51 73.87m62.42-102.61l-69.93 28.74"/><circle cx="435.28" cy="163.69" r="7.9" fill="none" stroke="#262626" stroke-miterlimit="10"/><circle cx="492.95" cy="207.93" r="4.74" fill="none" stroke="#262626" stroke-miterlimit="10"/><path fill="none" stroke="#262626" stroke-miterlimit="10" d="M35.74 400.59h47.41m405.33 1.18h47.4"/></g></g></svg>