<svg xmlns="http://www.w3.org/2000/svg" xmlns:xlink="http://www.w3.org/1999/xlink" width="623.32" height="490.85" viewBox="0 0 623.32 490.85">
  <defs>
    <clipPath id="clip-path">
      <path d="M381.06,176s-13.88,1.88-16,20.47,18.59,48.24,18.59,48.24l16.94-37.89,7.53,38.12s35.29-21.88,40.47-34.12-16.71-46.58-18.12-39.06.94,17.18-5.65,20.71S392.59,214.59,381.06,176Z" style="fill: #ebebeb;stroke: #262626;stroke-miterlimit: 10"/>
    </clipPath>
    <clipPath id="clip-path-2">
      <path d="M251.88,320.47s29.3-30.35,34.59-40.23l24,20.11-35.29,53.3S258.59,331.76,251.88,320.47Z" style="fill: #fff;stroke: #262626;stroke-miterlimit: 10"/>
    </clipPath>
    <clipPath id="clip-path-3">
      <path d="M147.41,281.65s25.77,1.76,40.94-13.77l14.47,25.41s-10.94,24-50.82,20.12Z" style="fill: #fff;stroke: #262626;stroke-miterlimit: 10"/>
    </clipPath>
  </defs>
  <title>Ресурс 3</title>
  <g id="Слой_2" data-name="Слой 2">
    <g id="Слой_1-2" data-name="Слой 1">
      <g>
        <g>
          <path d="M140.91,141.61c19-10,46.94-25.36,79.69-45.93C275,61.54,279.41,52.73,307,37.6,336.7,21.37,402.68-14.75,473.17,6.54,541.25,27.1,573.9,89.22,582.58,107.84c28.23,60.55,16,117.7,6.75,160.73-6.08,28.35-15.24,71.05-47.27,113.45-66.31,87.76-172.92,97.86-182.34,98.6-140.49,11.09-227.81-103-247.17-128.31-21.06-27.52-44.61-59.25-41.87-102.65C74.66,186.56,131.1,148.08,140.91,141.61Z" style="fill: #c4c4c4"/>
          <rect x="402.59" y="76.94" width="220.24" height="122.82" style="fill: none;stroke: #262626;stroke-miterlimit: 10"/>
          <rect x="418.47" y="105.18" width="188.12" height="78.53" style="fill: #00654d;stroke: #262626;stroke-miterlimit: 10"/>
          <rect x="19.76" y="44.91" width="186.35" height="28.9" style="fill: none;stroke: #262626;stroke-miterlimit: 10"/>
          <line y1="79.06" x2="50.82" y2="79.06" style="fill: none;stroke: #262626;stroke-miterlimit: 10"/>
          <line x1="192" y1="39.88" x2="213.18" y2="39.88" style="fill: none;stroke: #262626;stroke-miterlimit: 10"/>
          <ellipse cx="39.88" cy="59.04" rx="5.29" ry="4.71" style="fill: #262626"/>
          <ellipse cx="62.24" cy="59.04" rx="5.29" ry="4.71" style="fill: #262626"/>
          <ellipse cx="86" cy="59.04" rx="5.29" ry="4.71" style="fill: #262626"/>
          <ellipse cx="553.41" cy="92.22" rx="5.29" ry="4.71" style="fill: none;stroke: #262626;stroke-miterlimit: 10"/>
          <ellipse cx="575.76" cy="92.22" rx="5.29" ry="4.71" style="fill: #262626"/>
          <ellipse cx="599.53" cy="92.22" rx="5.29" ry="4.71" style="fill: #262626"/>
        </g>
        <g>
          <path d="M345.48,99.35S339.31,86.29,334,94.76s4.94,25.42,6.71,26.83,5.12,2.29,6.7,2.65" style="fill: #fff;stroke: #262626;stroke-miterlimit: 10"/>
          <path d="M433.8,125.58s-5.45,36.07-4,54.89-28.23,31.06-28.23,31.06l-21.18-26.82L381.76,164,349.29,69.88l66.83-21.17,8.47,58.82s10.35-19.29,16.94-8.94-.94,23.06-3.77,25.41-6.58,2.35-8.94,0" style="fill: #fff;stroke: #262626;stroke-miterlimit: 10"/>
          <path d="M345.06,70.12s-2.82,55.76,8,72.23c7.38,11.24,12.8,18.76,15.49,22.39a6.65,6.65,0,0,0,5.32,2.7c10.51,0,42.11-3,48.37-40.15" style="fill: #fff;stroke: #000;stroke-miterlimit: 10"/>
          <path d="M339.76,92.29s-1.58-10.41,0-16.41c0,0-11.29-4.41-4.94-18.35s19.24-15,19.24-15-10.41-.88-10.24-5.29,7.42-9.89,46.06-5.65c0,0,3-7.94,11.3-6.71s40.94-2.12,43.41,25.06c0,0,13.09,5.66,4.41,32.82-7.41,23.21-6.53,17.83-6.53,17.83s-4.41-15.18-17.88,6.94c0,0-7.71-1.82-5.06-10.47,0,0-11.19-2.43-7.59-22.24,2.82-15.53-5.12-18.17-9-14.64-3.15,2.87-15.53,23.29-33.53,19.06s-23.82-1.42-23.82-1.42l-.88,20.3Z" style="fill: #262626"/>
          <path d="M353.71,88.59s6.35-6,12.88-1.59" style="fill: none;stroke: #262626;stroke-miterlimit: 10"/>
          <path d="M381.59,86.47s7.59-8.47,17.12-1.06" style="fill: none;stroke: #262626;stroke-miterlimit: 10"/>
          <path d="M364.12,102.62c0,2.58-1.07,4.67-2.38,4.67s-2.39-2.09-2.39-4.67,1.07-4.68,2.39-4.68S364.12,100,364.12,102.62Z" style="fill: #262626"/>
          <ellipse cx="392.44" cy="101.82" rx="2.21" ry="4.76" style="fill: #262626"/>
          <path d="M371.35,99.71s2.12,10.76-.53,14.64-8.29,7.77-3.88,12a9.5,9.5,0,0,0,9.71,2.12" style="fill: none;stroke: #262626;stroke-miterlimit: 10"/>
          <path d="M373.12,138s13.06,6,22.06-5.47" style="fill: none;stroke: #262626;stroke-miterlimit: 10"/>
          <path d="M435.41,22.35s15.53,10.12,9.65,29.18" style="fill: none;stroke: #262626;stroke-miterlimit: 10"/>
          <polygon points="270 436.24 261.29 490.35 432.59 490.35 430.24 453.41 270 436.24" style="fill: #fbc469;stroke: #262626;stroke-miterlimit: 10"/>
          <path d="M449.53,208.94s45.65,60.47,48.94,76.47-7.53,44.47-23.06,66.59-38.12,53.18-38.12,53.18,13.18,26.35-4.23,23.76l13.41,24.24s-85.18,67.41-181.88-20.47l22.23-77.65-20.47-15.53S220.82,371.29,182,376.24c0,0-11.29-2.83-27.18-61.77l46.59-19.41,7.41,11.65,27.89-16.24,28.23-14.82,16.94-80.47L368,186S404.71,210.71,449.53,208.94Z" style="fill: #00654d;stroke: #262626;stroke-miterlimit: 10"/>
          <g>
            <path d="M381.06,176s-13.88,1.88-16,20.47,18.59,48.24,18.59,48.24l16.94-37.89,7.53,38.12s35.29-21.88,40.47-34.12-16.71-46.58-18.12-39.06.94,17.18-5.65,20.71S392.59,214.59,381.06,176Z" style="fill: #ebebeb"/>
            <g style="clip-path: url(#clip-path)">
              <polygon points="418.12 182.82 437.88 240 466.82 207.53 440 156.71 418.12 182.82" style="fill: #dbdbdb"/>
            </g>
            <path d="M381.06,176s-13.88,1.88-16,20.47,18.59,48.24,18.59,48.24l16.94-37.89,7.53,38.12s35.29-21.88,40.47-34.12-16.71-46.58-18.12-39.06.94,17.18-5.65,20.71S392.59,214.59,381.06,176Z" style="fill: none;stroke: #262626;stroke-miterlimit: 10"/>
          </g>
          <polyline points="317.18 308.47 394.82 354.35 400.47 374.12 401.88 351.18 434.35 310.94" style="fill: none;stroke: #e8e8e8;stroke-miterlimit: 10"/>
          <path d="M445.29,296.47s31.06-7.76,41.3-6.35" style="fill: none;stroke: #e8e8e8;stroke-miterlimit: 10"/>
          <polyline points="313.29 374.12 404.71 426 426.59 409.76" style="fill: none;stroke: #e8e8e8;stroke-miterlimit: 10"/>
          <path d="M406.12,442.24s16.59-20.48,28.23-21.89" style="fill: none;stroke: #e8e8e8;stroke-miterlimit: 10"/>
          <line x1="325.29" y1="241.41" x2="305.88" y2="290.82" style="fill: none;stroke: #e8e8e8;stroke-miterlimit: 10"/>
          <path d="M208.12,310.24s-3.88,22.94-6.71,28.23" style="fill: none;stroke: #e8e8e8;stroke-miterlimit: 10"/>
          <path d="M213.06,310.59s7.06,10.23,4.94,18.35" style="fill: none;stroke: #e8e8e8;stroke-miterlimit: 10"/>
          <polygon points="153.65 103.29 157.88 268 269.88 266.12 270.35 100.47 153.65 103.29" style="fill: #fbc469;stroke: #262626;stroke-miterlimit: 10"/>
          <path d="M162.63,238.59c-2.16,1,21.51,32.93,23.25,36.12,4.28,7.81-26.48,15.13-33.76,10-4.11-2.9-3.3-23.18-3.3-23.18s-11.64,1.76-9.88-26.82c0,0-5.29-8.47-4.23-14.12S140,210,138.94,205.76s-3.18-7.76-.7-10.23,32.11-14.47,36-17.65,1.41,11.65-3.89,13.77-6.61,3.53-9.44,5.29-18.17,6.53-13.5,5.82,36.09-8.38,37.85-7.94-.17,5.31-3.88,8.21c-6.44,5-33.44,10.76-36.17,10.41-2.22-.28,17-1.32,33.79-2.29s-1.32,7.06-3.18,8.2c-1.28.8-10.67,2.83-13,1.94s-13.13.59-14.91,3.62c-.88,1.5,13.68-15.7,15.27,22.59,0,0-1.86,6.88-3,8.56" style="fill: #fff;stroke: #262626;stroke-miterlimit: 10"/>
          <path d="M259.18,314.59s-30.12-32.71-34.12-47.77-8.71-13.17,2.12-28.47l2.58,9.89s-3-18.12,1.89-22.83,4.23-2.59,4.23-2.59l5.41,20.94s-12-33.41-4-42.35,8.47,9.88,9.18,11.3S257.53,244,257.53,244l-3.29-11.76s12.94-1.18,16.47,14.35,4,27.53,3.76,28.7,11.77,10.83,11.77,10.83Z" style="fill: #fff;stroke: #262626;stroke-miterlimit: 10"/>
          <g>
            <path d="M251.88,320.47s29.3-30.35,34.59-40.23l24,20.11-35.29,53.3S258.59,331.76,251.88,320.47Z" style="fill: #fff"/>
            <g style="clip-path: url(#clip-path-2)">
              <polygon points="267.41 293.41 303.18 328 322.94 296.47 285.29 267.29 267.41 292.47 267.41 293.41" style="fill: #dbdbdb"/>
            </g>
            <path d="M251.88,320.47s29.3-30.35,34.59-40.23l24,20.11-35.29,53.3S258.59,331.76,251.88,320.47Z" style="fill: none;stroke: #262626;stroke-miterlimit: 10"/>
          </g>
          <g>
            <path d="M147.41,281.65s25.77,1.76,40.94-13.77l14.47,25.41s-10.94,24-50.82,20.12Z" style="fill: #fff"/>
            <g style="clip-path: url(#clip-path-3)">
              <path d="M168.12,272.47c.7,1.65,15.53,43.77,15.53,43.77l30.11-18.12-23.52-36.24Z" style="fill: #dbdbdb"/>
            </g>
            <path d="M147.41,281.65s25.77,1.76,40.94-13.77l14.47,25.41s-10.94,24-50.82,20.12Z" style="fill: none;stroke: #262626;stroke-miterlimit: 10"/>
          </g>
        </g>
      </g>
    </g>
  </g>
</svg>
