<svg xmlns="http://www.w3.org/2000/svg" width="623.32" height="490.85"><defs><clipPath id="a"><path d="M381.06 176s-13.88 1.88-16 20.47 18.59 48.24 18.59 48.24l16.94-37.89 7.53 38.12s35.29-21.88 40.47-34.12-16.71-46.58-18.12-39.06.94 17.18-5.65 20.71-32.23 22.12-43.76-16.47z" fill="#ebebeb" stroke="#262626" stroke-miterlimit="10"/></clipPath><clipPath id="b"><path d="M251.88 320.47s29.3-30.35 34.59-40.23l24 20.11-35.29 53.3s-16.59-21.89-23.3-33.18z" fill="#fff" stroke="#262626" stroke-miterlimit="10"/></clipPath><clipPath id="c"><path d="M147.41 281.65s25.77 1.76 40.94-13.77l14.47 25.41s-10.94 24-50.82 20.12z" fill="#fff" stroke="#262626" stroke-miterlimit="10"/></clipPath></defs><g data-name="Слой 2"><g data-name="Слой 1"><path d="M140.91 141.61c19-10 46.94-25.36 79.69-45.93C275 61.54 279.41 52.73 307 37.6c29.7-16.23 95.68-52.35 166.17-31.06 68.08 20.56 100.73 82.68 109.41 101.3 28.23 60.55 16 117.7 6.75 160.73-6.08 28.35-15.24 71.05-47.27 113.45-66.31 87.76-172.92 97.86-182.34 98.6-140.49 11.09-227.81-103-247.17-128.31-21.06-27.52-44.61-59.25-41.87-102.65 3.98-63.1 60.42-101.58 70.23-108.05z" fill="#c4c4c4"/><path fill="none" stroke="#262626" stroke-miterlimit="10" d="M402.59 76.94h220.24v122.82H402.59z"/><path fill="#00654d" stroke="#262626" stroke-miterlimit="10" d="M418.47 105.18h188.12v78.53H418.47z"/><path fill="none" stroke="#262626" stroke-miterlimit="10" d="M19.76 44.91h186.35v28.9H19.76zM0 79.06h50.82M192 39.88h21.18"/><ellipse cx="39.88" cy="59.04" rx="5.29" ry="4.71" fill="#262626"/><ellipse cx="62.24" cy="59.04" rx="5.29" ry="4.71" fill="#262626"/><ellipse cx="86" cy="59.04" rx="5.29" ry="4.71" fill="#262626"/><ellipse cx="553.41" cy="92.22" rx="5.29" ry="4.71" fill="none" stroke="#262626" stroke-miterlimit="10"/><ellipse cx="575.76" cy="92.22" rx="5.29" ry="4.71" fill="#262626"/><ellipse cx="599.53" cy="92.22" rx="5.29" ry="4.71" fill="#262626"/><path d="M345.48 99.35s-6.17-13.06-11.48-4.59 4.94 25.42 6.71 26.83 5.12 2.29 6.7 2.65m86.39 1.34s-5.45 36.07-4 54.89-28.23 31.06-28.23 31.06l-21.18-26.82 1.37-20.71-32.47-94.12 66.83-21.17 8.47 58.82s10.35-19.29 16.94-8.94-.94 23.06-3.77 25.41-6.58 2.35-8.94 0" fill="#fff" stroke="#262626" stroke-miterlimit="10"/><path d="M345.06 70.12s-2.82 55.76 8 72.23c7.38 11.24 12.8 18.76 15.49 22.39a6.65 6.65 0 005.32 2.7c10.51 0 42.11-3 48.37-40.15" fill="#fff" stroke="#000" stroke-miterlimit="10"/><path d="M339.76 92.29s-1.58-10.41 0-16.41c0 0-11.29-4.41-4.94-18.35s19.24-15 19.24-15-10.41-.88-10.24-5.29 7.42-9.89 46.06-5.65c0 0 3-7.94 11.3-6.71s40.94-2.12 43.41 25.06c0 0 13.09 5.66 4.41 32.82-7.41 23.21-6.53 17.83-6.53 17.83s-4.41-15.18-17.88 6.94c0 0-7.71-1.82-5.06-10.47 0 0-11.19-2.43-7.59-22.24 2.82-15.53-5.12-18.17-9-14.64-3.15 2.87-15.53 23.29-33.53 19.06s-23.82-1.42-23.82-1.42l-.88 20.3z" fill="#262626"/><path d="M353.71 88.59s6.35-6 12.88-1.59m15-.53s7.59-8.47 17.12-1.06" fill="none" stroke="#262626" stroke-miterlimit="10"/><path d="M364.12 102.62c0 2.58-1.07 4.67-2.38 4.67s-2.39-2.09-2.39-4.67 1.07-4.68 2.39-4.68 2.38 2.06 2.38 4.68z" fill="#262626"/><ellipse cx="392.44" cy="101.82" rx="2.21" ry="4.76" fill="#262626"/><path d="M371.35 99.71s2.12 10.76-.53 14.64-8.29 7.77-3.88 12a9.5 9.5 0 009.71 2.12m-3.53 9.53s13.06 6 22.06-5.47m40.23-110.18s15.53 10.12 9.65 29.18" fill="none" stroke="#262626" stroke-miterlimit="10"/><path fill="#fbc469" stroke="#262626" stroke-miterlimit="10" d="M270 436.24l-8.71 54.11h171.3l-2.35-36.94L270 436.24z"/><path d="M449.53 208.94s45.65 60.47 48.94 76.47-7.53 44.47-23.06 66.59-38.12 53.18-38.12 53.18 13.18 26.35-4.23 23.76l13.41 24.24s-85.18 67.41-181.88-20.47l22.23-77.65-20.47-15.53s-45.53 31.76-84.35 36.71c0 0-11.29-2.83-27.18-61.77l46.59-19.41 7.41 11.65 27.89-16.24 28.23-14.82 16.94-80.47L368 186s36.71 24.71 81.53 22.94z" fill="#00654d" stroke="#262626" stroke-miterlimit="10"/><path d="M381.06 176s-13.88 1.88-16 20.47 18.59 48.24 18.59 48.24l16.94-37.89 7.53 38.12s35.29-21.88 40.47-34.12-16.71-46.58-18.12-39.06.94 17.18-5.65 20.71-32.23 22.12-43.76-16.47z" fill="#ebebeb"/><g clip-path="url(#a)"><path fill="#dbdbdb" d="M418.12 182.82L437.88 240l28.94-32.47L440 156.71l-21.88 26.11z"/></g><path d="M381.06 176s-13.88 1.88-16 20.47 18.59 48.24 18.59 48.24l16.94-37.89 7.53 38.12s35.29-21.88 40.47-34.12-16.71-46.58-18.12-39.06.94 17.18-5.65 20.71-32.23 22.12-43.76-16.47z" fill="none" stroke="#262626" stroke-miterlimit="10"/><path fill="none" stroke="#e8e8e8" stroke-miterlimit="10" d="M317.18 308.47l77.64 45.88 5.65 19.77 1.41-22.94 32.47-40.24m10.94-14.47s31.06-7.76 41.3-6.35m-173.3 84L404.71 426l21.88-16.24m-20.47 32.48s16.59-20.48 28.23-21.89M325.29 241.41l-19.41 49.41m-97.76 19.42s-3.88 22.94-6.71 28.23m11.65-27.88s7.06 10.23 4.94 18.35"/><path fill="#fbc469" stroke="#262626" stroke-miterlimit="10" d="M153.65 103.29L157.88 268l112-1.88.47-165.65-116.7 2.82z"/><path d="M162.63 238.59c-2.16 1 21.51 32.93 23.25 36.12 4.28 7.81-26.48 15.13-33.76 10-4.11-2.9-3.3-23.18-3.3-23.18s-11.64 1.76-9.88-26.82c0 0-5.29-8.47-4.23-14.12s5.29-10.59 4.23-14.83-3.18-7.76-.7-10.23 32.11-14.47 36-17.65 1.41 11.65-3.89 13.77-6.61 3.53-9.44 5.29-18.17 6.53-13.5 5.82 36.09-8.38 37.85-7.94-.17 5.31-3.88 8.21c-6.44 5-33.44 10.76-36.17 10.41-2.22-.28 17-1.32 33.79-2.29s-1.32 7.06-3.18 8.2c-1.28.8-10.67 2.83-13 1.94s-13.13.59-14.91 3.62c-.88 1.5 13.68-15.7 15.27 22.59 0 0-1.86 6.88-3 8.56m99 58.53s-30.12-32.71-34.12-47.77-8.71-13.17 2.12-28.47l2.58 9.89s-3-18.12 1.89-22.83 4.23-2.59 4.23-2.59l5.41 20.94s-12-33.41-4-42.35 8.47 9.88 9.18 11.3S257.53 244 257.53 244l-3.29-11.76s12.94-1.18 16.47 14.35 4 27.53 3.76 28.7 11.77 10.83 11.77 10.83z" fill="#fff" stroke="#262626" stroke-miterlimit="10"/><path d="M251.88 320.47s29.3-30.35 34.59-40.23l24 20.11-35.29 53.3s-16.59-21.89-23.3-33.18z" fill="#fff"/><g clip-path="url(#b)"><path fill="#dbdbdb" d="M267.41 293.41L303.18 328l19.76-31.53-37.65-29.18-17.88 25.18v.94z"/></g><path d="M251.88 320.47s29.3-30.35 34.59-40.23l24 20.11-35.29 53.3s-16.59-21.89-23.3-33.18z" fill="none" stroke="#262626" stroke-miterlimit="10"/><path d="M147.41 281.65s25.77 1.76 40.94-13.77l14.47 25.41s-10.94 24-50.82 20.12z" fill="#fff"/><g clip-path="url(#c)"><path d="M168.12 272.47c.7 1.65 15.53 43.77 15.53 43.77l30.11-18.12-23.52-36.24z" fill="#dbdbdb"/></g><path d="M147.41 281.65s25.77 1.76 40.94-13.77l14.47 25.41s-10.94 24-50.82 20.12z" fill="none" stroke="#262626" stroke-miterlimit="10"/></g></g></svg>