<svg xmlns="http://www.w3.org/2000/svg" width="510.35" height="506.35"><g data-name="Слой 2"><g data-name="Слой 1"><path d="M234.57 39.53C251.91.31 326.85 0 332 0c15.23.09 53.36 2.64 88.94 28.23 75 54 70.13 161.2 69.17 182.1-1.24 27-5.32 93.58-57.88 149.64-5.21 5.55-63.64 65.94-153.87 67.75-123.87 2.5-210.36-107.31-240-189.15-8.75-24.18-33.61-92.84-1.42-129.87 24.85-28.58 83.4-49.1 124.23-43.76 30.12 3.93 43.79 15.32 56.46 2.82 10.23-10.09 9.08-10.44 16.94-28.23z" fill="#c4c4c4"/><ellipse cx="255.18" cy="453.18" rx="255.18" ry="23.29" fill="#ebebeb"/><path d="M213.88 380.47v40.94a15.53 15.53 0 01-15.53 15.53h0v14.12h130.59v-12.71h-.7a15.53 15.53 0 01-15.53-15.53v-43.76s-98.12.7-98.83 1.41zm15.06 57.18h88" fill="#fff" stroke="#262626" stroke-miterlimit="10"/><rect x="62.47" y="90" width="402.35" height="297.53" rx="16.94" fill="#00654d" stroke="#262626" stroke-miterlimit="10"/><path d="M62.47 353.65v16.94a17 17 0 0016.94 16.94h368.47a16.94 16.94 0 0016.94-16.94v-16.94z" fill="#fbc469" stroke="#262626" stroke-miterlimit="10"/><path fill="none" stroke="#e8e8e8" stroke-miterlimit="10" d="M82.59 109.06h361.06v208.59H82.59z"/><path fill="#fff" stroke="#262626" stroke-miterlimit="10" d="M170.59 140.24h182.59V283.3H170.59z"/><path d="M422.69 506.35H103a2.9 2.9 0 01-2.23-4.77l33.12-39.37a2.91 2.91 0 012.22-1h253.36a2.87 2.87 0 012.22 1l33.22 39.36a2.91 2.91 0 01-2.22 4.78z" fill="#262626"/><path d="M419.63 502.59H108c-2.4 0-3.71-2.49-2.16-4.12l29.27-33.93a3 3 0 012.16-.89h251.59a3 3 0 012.17.89l30.77 33.93c1.55 1.63.2 4.12-2.17 4.12z" fill="#fff" stroke="#262626" stroke-miterlimit="10"/><path d="M412 465.41s19.29-10.82 30.12-9.88 31.06.94 46.12 14.59.47 22.12-4.24 22.59-11.29 5.17-26.82-1.42-18.36-13.17-33.89-13.17-15.05-10.83-11.29-12.71z" fill="#262626"/><path d="M415.48 465.15s18.14-10.54 28.32-9.62 29.2.91 43.36 14.2.45 21.53-4 22-10.6-2.73-25.16-9.17-17.26-12.83-31.86-12.83-14.2-2.73-10.66-4.58zM131.06 468h264.47m-269.41 6.12h275.76" fill="#fff" stroke="#262626" stroke-miterlimit="10"/><path fill="none" stroke="#262626" stroke-miterlimit="10" d="M119.29 479.76h273.42l5.17 8 13.41-.23H114.12m-7.06 8.71h313.41"/><path fill="none" stroke="#00654d" stroke-linecap="round" stroke-linejoin="round" d="M232.94 191.25v-22.19h69.99v83.65H233.8v-22.2"/><path fill="#fbc469" stroke="#262626" stroke-miterlimit="10" d="M260.25 211.52l-20.1-17.03v7.22h-37.08v18.78h37.08v8.06l20.1-17.03z"/><circle cx="98.59" cy="122.35" r="5.18" fill="#262626"/><circle cx="116.59" cy="122.35" r="5.18" fill="#262626"/><circle cx="134.47" cy="122.35" r="5.18" fill="#262626"/><path fill="none" stroke="#262626" stroke-miterlimit="10" d="M27.53 408.71h78.35M320.82 78.35h42.36"/></g></g></svg>