<svg xmlns="http://www.w3.org/2000/svg" width="628.79" height="629.91"><defs><clipPath id="a"><path d="M241.92 131.42C287 76.69 310.17 49 343.77 35.23c31.67-13 60-10.88 79.21-9.43 70.27 5.3 117 44.68 128.25 54.7 55.89 49.68 68.28 113.71 73.56 143.34 2 11 27.55 168.78-81.1 264-70 61.37-153.72 60-249 58.47-68.84-1.12-127-2.06-181.07-43.38-5.14-3.93-104.82-82.44-81.1-181.07 8.29-34.44 32.18-68.31 62.24-88.64 36.88-24.94 62.69-15.7 101.85-47.15 15.64-12.48 12.31-14.56 45.31-54.65z" fill="#c4c4c4"/></clipPath><clipPath id="b"><circle cx="89.21" cy="368.97" r="32.9" fill="#fff" stroke="#262626" stroke-miterlimit="10"/></clipPath><clipPath id="c"><circle cx="89.21" cy="270.89" r="32.9" fill="#fff" stroke="#262626" stroke-miterlimit="10"/></clipPath><clipPath id="d"><circle cx="89.21" cy="172.82" r="32.9" fill="#fff" stroke="#262626" stroke-miterlimit="10"/></clipPath><clipPath id="e"><circle cx="246.88" cy="422.39" r="32.9" fill="#fff" stroke="#262626" stroke-miterlimit="10"/></clipPath><clipPath id="f"><circle cx="246.88" cy="334.38" r="32.9" fill="#fff" stroke="#262626" stroke-miterlimit="10"/></clipPath><clipPath id="g"><circle cx="246.88" cy="241.33" r="32.9" fill="#fff" stroke="#262626" stroke-miterlimit="10"/></clipPath><clipPath id="h"><circle cx="246.88" cy="147.02" r="32.9" fill="#fff" stroke="#262626" stroke-miterlimit="10"/></clipPath><clipPath id="i"><circle cx="409.83" cy="335.5" r="32.9" fill="#fff" stroke="#262626" stroke-miterlimit="10"/></clipPath><clipPath id="j"><circle cx="409.83" cy="244.55" r="32.9" fill="#fff" stroke="#262626" stroke-miterlimit="10"/></clipPath><clipPath id="k"><circle cx="409.83" cy="153.6" r="32.9" fill="#fff" stroke="#262626" stroke-miterlimit="10"/></clipPath><clipPath id="l"><circle cx="409.83" cy="62.65" r="32.9" fill="#fff" stroke="#262626" stroke-miterlimit="10"/></clipPath></defs><g data-name="Слой 2"><g data-name="Слой 1"><path d="M241.92 131.42C287 76.69 310.17 49 343.77 35.23c31.67-13 60-10.88 79.21-9.43 70.27 5.3 117 44.68 128.25 54.7 55.89 49.68 68.28 113.71 73.56 143.34 2 11 27.55 168.78-81.1 264-70 61.37-153.72 60-249 58.47-68.84-1.12-127-2.06-181.07-43.38-5.14-3.93-104.82-82.44-81.1-181.07 8.29-34.44 32.18-68.31 62.24-88.64 36.88-24.94 62.69-15.7 101.85-47.15 15.64-12.48 12.31-14.56 45.31-54.65z" fill="#c4c4c4"/><g clip-path="url(#a)"><path fill="#262626" d="M162.07 438.22l19.81 39.61v82.99l-22.63-1.57 2.82-121.03zm167.87-83.2l19.8 36.05v159.69l-19.8-.94v-194.8z"/><path fill="#fbc469" stroke="#262626" stroke-miterlimit="10" d="M.5 391.7h149.94l14.15 31.12H.5V391.7zm161.47 50.92h158.85l14.14 31.12H176.22l-14.25-31.12z"/><path fill="#fbc469" stroke="#262626" stroke-miterlimit="10" d="M164.29 559.56V422.5H16.85v155.92l147.44-18.86zm170.38 50.92V473.43H176.53v155.92l158.14-18.87zm-4.84-254.62h158.85l14.14 31.12H344.08l-14.25-31.12z"/><path fill="#fbc469" stroke="#262626" stroke-miterlimit="10" d="M502.53 550.44V386.67H344.39V569.3l158.14-18.86z"/></g><g stroke="#262626" stroke-miterlimit="10"><path d="M1.44 403.41l146.49-178a15 15 0 0122.92-.24L236 300.94l281.65-237L489.31 30l5.55-7.13 54.49 29.34 27 65.6-5.35 7.09-31.4-35.83-291.23 248.51a17.56 17.56 0 01-24.49-1.65l-62.75-70.2-131.4 161z" fill="#fff"/><path d="M6.79 397.36l146.49-178a15 15 0 0122.91-.24l65.1 75.77 281.65-237-28.29-33.98L619.13.65l-42.75 118.2L545 83 253.71 331.52a17.54 17.54 0 01-24.48-1.65l-62.76-70.2-131.39 161z" fill="#00654d"/></g><circle cx="89.21" cy="368.97" r="32.9" fill="#fff"/><g clip-path="url(#b)" fill="#fff" stroke="#262626" stroke-miterlimit="10"><path d="M85.73 333.32l10.79 6.07m-16.38-5.16l6.32 3.56m-10.77-3.22l6.01 3.38m-11.83-.97l6.01 3.38m-9.53 2.15l5.09 2.86m-9.41 1.2l4.01 2.26m-11.39 9.42l4.63 2.6m-12.76 11.49l12.79 7.2m-14.58-4.75l16.19 9.11"/></g><circle cx="89.21" cy="368.97" r="32.9" fill="none" stroke="#262626" stroke-miterlimit="10"/><circle cx="93.05" cy="371.53" r="32.9" fill="#fff" stroke="#262626" stroke-miterlimit="10"/><circle cx="92.78" cy="370.57" r="26.89" fill="#fff" stroke="#262626" stroke-miterlimit="10"/><circle cx="92.26" cy="370.28" r="24.23" fill="#fff" stroke="#262626" stroke-miterlimit="10"/><circle cx="89.21" cy="270.89" r="32.9" fill="#fff"/><g clip-path="url(#c)" fill="#fff" stroke="#262626" stroke-miterlimit="10"><path d="M85.73 235.24l10.79 6.07m-16.38-5.15l6.32 3.55m-10.77-3.22l6.01 3.39m-11.83-.98l6.01 3.38m-9.53 2.15l5.09 2.86m-9.41 1.21l4.01 2.25m-11.39 9.42l4.63 2.61m-12.76 11.49l12.79 7.2m-14.58-4.75l16.19 9.1"/></g><circle cx="89.21" cy="270.89" r="32.9" fill="none" stroke="#262626" stroke-miterlimit="10"/><circle cx="93.05" cy="273.46" r="32.9" fill="#fff" stroke="#262626" stroke-miterlimit="10"/><circle cx="92.78" cy="272.49" r="26.89" fill="#fff" stroke="#262626" stroke-miterlimit="10"/><circle cx="92.26" cy="272.21" r="24.23" fill="#fff" stroke="#262626" stroke-miterlimit="10"/><circle cx="89.21" cy="172.82" r="32.9" fill="#fff"/><g clip-path="url(#d)" fill="#fff" stroke="#262626" stroke-miterlimit="10"><path d="M85.73 137.17l10.79 6.07m-16.38-5.16l6.32 3.56m-10.77-3.22l6.01 3.38m-11.83-.98l6.01 3.39m-9.53 2.14l5.09 2.87m-9.41 1.2l4.01 2.26m-11.39 9.42l4.63 2.6m-12.76 11.49l12.79 7.2m-14.58-4.75l16.19 9.11"/></g><circle cx="89.21" cy="172.82" r="32.9" fill="none" stroke="#262626" stroke-miterlimit="10"/><circle cx="93.05" cy="175.38" r="32.9" fill="#fff" stroke="#262626" stroke-miterlimit="10"/><circle cx="92.78" cy="174.42" r="26.89" fill="#fff" stroke="#262626" stroke-miterlimit="10"/><circle cx="92.26" cy="174.13" r="24.23" fill="#fff" stroke="#262626" stroke-miterlimit="10"/><circle cx="246.88" cy="422.39" r="32.9" fill="#fff"/><g clip-path="url(#e)" fill="#fff" stroke="#262626" stroke-miterlimit="10"><path d="M243.4 386.74l10.79 6.07m-16.37-5.16l6.32 3.56m-10.78-3.22l6.02 3.38m-11.84-.97l6.02 3.38m-9.53 2.15l5.08 2.86m-9.4 1.2l4.01 2.26m-11.4 9.42l4.63 2.6m-12.76 11.5l12.79 7.2m-14.57-4.76l16.18 9.11"/></g><circle cx="246.88" cy="422.39" r="32.9" fill="none" stroke="#262626" stroke-miterlimit="10"/><circle cx="250.72" cy="424.96" r="32.9" fill="#fff" stroke="#262626" stroke-miterlimit="10"/><circle cx="250.45" cy="423.99" r="26.89" fill="#fff" stroke="#262626" stroke-miterlimit="10"/><circle cx="249.94" cy="423.7" r="24.23" fill="#fff" stroke="#262626" stroke-miterlimit="10"/><circle cx="246.88" cy="334.38" r="32.9" fill="#fff"/><g clip-path="url(#f)" fill="#fff" stroke="#262626" stroke-miterlimit="10"><path d="M243.4 298.72l10.79 6.08m-16.37-5.16l6.32 3.55m-10.78-3.22l6.02 3.39m-11.84-.98l6.02 3.38m-9.53 2.15l5.08 2.86m-9.4 1.21l4.01 2.25m-11.4 9.42l4.63 2.61m-12.76 11.49l12.79 7.2m-14.57-4.75l16.18 9.1"/></g><circle cx="246.88" cy="334.38" r="32.9" fill="none" stroke="#262626" stroke-miterlimit="10"/><circle cx="250.72" cy="336.94" r="32.9" fill="#fff" stroke="#262626" stroke-miterlimit="10"/><circle cx="250.45" cy="335.98" r="26.89" fill="#fff" stroke="#262626" stroke-miterlimit="10"/><circle cx="249.94" cy="335.69" r="24.23" fill="#fff" stroke="#262626" stroke-miterlimit="10"/><circle cx="246.88" cy="241.33" r="32.9" fill="#fff"/><g clip-path="url(#g)" fill="#fff" stroke="#262626" stroke-miterlimit="10"><path d="M243.4 205.68l10.79 6.07m-16.37-5.16l6.32 3.56m-10.78-3.22l6.02 3.38m-11.84-.98l6.02 3.39m-9.53 2.14l5.08 2.87m-9.4 1.2l4.01 2.26m-11.4 9.42l4.63 2.6m-12.76 11.49l12.79 7.2m-14.57-4.75l16.18 9.11"/></g><circle cx="246.88" cy="241.33" r="32.9" fill="none" stroke="#262626" stroke-miterlimit="10"/><circle cx="250.72" cy="243.89" r="32.9" fill="#fff" stroke="#262626" stroke-miterlimit="10"/><circle cx="250.45" cy="242.93" r="26.89" fill="#fff" stroke="#262626" stroke-miterlimit="10"/><circle cx="249.94" cy="242.64" r="24.23" fill="#fff" stroke="#262626" stroke-miterlimit="10"/><circle cx="246.88" cy="147.02" r="32.9" fill="#fff"/><g clip-path="url(#h)" fill="#fff" stroke="#262626" stroke-miterlimit="10"><path d="M243.4 111.37l10.79 6.08m-16.37-5.16l6.32 3.55m-10.78-3.22l6.02 3.39m-11.84-.98l6.02 3.38m-9.53 2.15l5.08 2.86m-9.4 1.21l4.01 2.25m-11.4 9.42l4.63 2.61m-12.76 11.49l12.79 7.2m-14.57-4.75l16.18 9.1"/></g><circle cx="246.88" cy="147.02" r="32.9" fill="none" stroke="#262626" stroke-miterlimit="10"/><circle cx="250.72" cy="149.59" r="32.9" fill="#fff" stroke="#262626" stroke-miterlimit="10"/><circle cx="250.45" cy="148.63" r="26.89" fill="#fff" stroke="#262626" stroke-miterlimit="10"/><circle cx="249.94" cy="148.34" r="24.23" fill="#fff" stroke="#262626" stroke-miterlimit="10"/><circle cx="409.83" cy="335.5" r="32.9" fill="#fff"/><g clip-path="url(#i)" fill="#fff" stroke="#262626" stroke-miterlimit="10"><path d="M406.35 299.85l10.79 6.07m-16.38-5.16l6.32 3.56m-10.77-3.22l6.01 3.38m-11.83-.97l6.01 3.38m-9.53 2.15l5.09 2.86m-9.41 1.2l4.01 2.26m-11.39 9.42l4.62 2.6m-12.76 11.49l12.8 7.2m-14.58-4.75l16.19 9.11"/></g><circle cx="409.83" cy="335.5" r="32.9" fill="none" stroke="#262626" stroke-miterlimit="10"/><circle cx="413.66" cy="338.06" r="32.9" fill="#fff" stroke="#262626" stroke-miterlimit="10"/><circle cx="413.4" cy="337.1" r="26.89" fill="#fff" stroke="#262626" stroke-miterlimit="10"/><circle cx="412.88" cy="336.81" r="24.23" fill="#fff" stroke="#262626" stroke-miterlimit="10"/><circle cx="409.83" cy="244.55" r="32.9" fill="#fff"/><g clip-path="url(#j)" fill="#fff" stroke="#262626" stroke-miterlimit="10"><path d="M406.35 208.9l10.79 6.07m-16.38-5.16l6.32 3.56m-10.77-3.22l6.01 3.38m-11.83-.97l6.01 3.38m-9.53 2.15l5.09 2.86m-9.41 1.2l4.01 2.26m-11.39 9.42l4.62 2.6m-12.76 11.49l12.8 7.2m-14.58-4.75l16.19 9.11"/></g><circle cx="409.83" cy="244.55" r="32.9" fill="none" stroke="#262626" stroke-miterlimit="10"/><circle cx="413.66" cy="247.11" r="32.9" fill="#fff" stroke="#262626" stroke-miterlimit="10"/><circle cx="413.4" cy="246.15" r="26.89" fill="#fff" stroke="#262626" stroke-miterlimit="10"/><circle cx="412.88" cy="245.86" r="24.23" fill="#fff" stroke="#262626" stroke-miterlimit="10"/><circle cx="409.83" cy="153.6" r="32.9" fill="#fff"/><g clip-path="url(#k)" fill="#fff" stroke="#262626" stroke-miterlimit="10"><path d="M406.35 117.95l10.79 6.07m-16.38-5.16l6.32 3.56m-10.77-3.22l6.01 3.38m-11.83-.98l6.01 3.39m-9.53 2.15l5.09 2.86m-9.41 1.2l4.01 2.26m-11.39 9.42l4.62 2.6m-12.76 11.49l12.8 7.2m-14.58-4.75l16.19 9.11"/></g><circle cx="409.83" cy="153.6" r="32.9" fill="none" stroke="#262626" stroke-miterlimit="10"/><circle cx="413.66" cy="156.16" r="32.9" fill="#fff" stroke="#262626" stroke-miterlimit="10"/><circle cx="413.4" cy="155.2" r="26.89" fill="#fff" stroke="#262626" stroke-miterlimit="10"/><circle cx="412.88" cy="154.91" r="24.23" fill="#fff" stroke="#262626" stroke-miterlimit="10"/><circle cx="409.83" cy="62.65" r="32.9" fill="#fff"/><g clip-path="url(#l)" fill="#fff" stroke="#262626" stroke-miterlimit="10"><path d="M406.35 27l10.79 6.07m-16.38-5.16l6.32 3.56m-10.77-3.22l6.01 3.38m-11.83-.98l6.01 3.39m-9.53 2.14l5.09 2.87m-9.41 1.2l4.01 2.26m-11.39 9.42l4.62 2.6m-12.76 11.49l12.8 7.2m-14.58-4.75l16.19 9.11"/></g><circle cx="409.83" cy="62.65" r="32.9" fill="none" stroke="#262626" stroke-miterlimit="10"/><circle cx="413.66" cy="65.21" r="32.9" fill="#fff" stroke="#262626" stroke-miterlimit="10"/><circle cx="413.4" cy="64.25" r="26.89" fill="#fff" stroke="#262626" stroke-miterlimit="10"/><circle cx="412.88" cy="63.96" r="24.23" fill="#fff" stroke="#262626" stroke-miterlimit="10"/></g></g></svg>