<svg xmlns="http://www.w3.org/2000/svg" viewBox="0 0 145 145"><defs><style>.cls-1{fill:none;stroke:#007b64;stroke-linecap:round;stroke-miterlimit:10;stroke-width:2px}.cls-4{fill:#ffc463}.cls-5{fill:#c4c4c4}</style></defs><g id="_43_Местом_оказания_электронных_услуг_является_Республика_Беларусь_" data-name="43 Местом оказания электронных услуг является Республика Беларусь?"><path class="cls-1" d="M140.6 123.39l-135 .16"/><rect x="17.49" y="37" width="107.5" height="86" rx="6.98" fill="#fff"/><path d="M17.24 112.92h108v2.47a8 8 0 01-8 8h-92a8 8 0 01-8-8v-2.47z" fill="#ebebeb"/><path class="cls-1" d="M26.27 49.04l89.94.1"/><rect class="cls-4" x="91.16" y="42.76" width="22.48" height="2.02" rx="1.01" transform="translate(.05 -.12)"/><rect class="cls-5" x="28.08" y="42.28" width="2.81" height="2.81" rx="1.41" transform="rotate(.07 24.58 40.91)"/><rect class="cls-5" x="32.3" y="42.29" width="2.81" height="2.81" rx="1.41" transform="rotate(.07 32.765 40.906)"/><rect class="cls-5" x="36.51" y="42.29" width="2.81" height="2.81" rx="1.41" transform="rotate(.07 32.765 40.906)"/><path class="cls-1" d="M17.24 91.84V44.69a7.56 7.56 0 017.56-7.56h92.88a7.57 7.57 0 017.56 7.56V116a7.56 7.56 0 01-7.56 7.56H24.8a7.55 7.55 0 01-7.56-7.56v-13.27"/><path class="cls-4" d="M67.9 85.28a8.26 8.26 0 011.6 5.15 7.62 7.62 0 01-3.37 6.66q-3.36 2.34-9.82 2.33h-17v-33h16.1q6 0 9.25 2.31A7.31 7.31 0 0167.85 75a7.91 7.91 0 01-4.38 7.26 8.67 8.67 0 014.43 3.02zM46.85 72.21V80h7.58a7.63 7.63 0 004.28-1 3.28 3.28 0 001.46-2.92 3.24 3.24 0 00-1.46-2.9 7.82 7.82 0 00-4.28-1zm13.44 20.48a3.39 3.39 0 001.53-3.06q0-4.09-6.07-4.1h-8.9v8.15h8.9a8.43 8.43 0 004.54-.99zm30.11-4.94v11.67h-7.62V87.65L70 66.46h8.09l8.81 14.65 8.8-14.65h7.49z"/></g></svg>