<svg xmlns="http://www.w3.org/2000/svg" viewBox="0 0 145 145"><defs><style>.cls-4{fill:none;stroke:#007b64;stroke-linecap:round;stroke-linejoin:round}.cls-2{fill:#fff}.cls-3{fill:#ebebeb}.cls-4{stroke-width:2px}</style></defs><g id="_46_Местные_налоги_сборы_" data-name="46 Местные налоги (сборы)"><path d="M6.48 122.55H126.1m4.51 0h10.87" stroke-width="2.09" fill="none" stroke="#007b64" stroke-linecap="round" stroke-linejoin="round"/><rect class="cls-2" x="26.28" y="37.97" width="58.15" height="84.59" rx="6.17"/><path class="cls-3" d="M40.14 38.78s1 9.51-5 16.54c-4.67 5.49-5.86 18.25-9.39 20l.62-31.14.35-3 1.59-1.7 3.15-1.49 9.25.01z"/><path class="cls-4" d="M26.28 95.66V44.13A6.17 6.17 0 0132.45 38h45.82a6.16 6.16 0 016.17 6.16v72.26a6.16 6.16 0 01-6.17 6.16H32.45a6.17 6.17 0 01-6.17-6.16v-13.37"/><rect x="33.49" y="32.37" width="62" height="90.18" rx="6.58" stroke-width="2" fill="#fff" stroke="#007b64" stroke-linecap="round" stroke-linejoin="round"/><path class="cls-3" d="M34.43 76.77s5.82 4.25 8 24.36 5.1 21.24 7.1 21.32l-10.89-.06-3.09-1.67-1.78-2.94-.31-41z"/><rect class="cls-4" x="33.49" y="32.37" width="62" height="90.18" rx="6.58"/><path class="cls-2" d="M108.48 104.94v11.61a6 6 0 01-6 6h-54a6 6 0 01-6-6v-84a6 6 0 016-6H91l17.49 18.5"/><path d="M42.42 114.05h66v1a7 7 0 01-7 7h-52a7 7 0 01-7-7v-1z" fill="#f1f1f1"/><path class="cls-4" d="M108.48 103.71v12.84a6 6 0 01-6 6h-54a6 6 0 01-6-6v-84a6 6 0 016-6h42.08a1 1 0 01.73.31l17.19 18.19m0 .26v12.03"/><path class="cls-4" d="M100.48 45.05h-5a6 6 0 01-6-6v-5"/><circle cx="107.38" cy="80.86" r="16.86" stroke="#ffc463" stroke-miterlimit="10" stroke-width="2" fill="#fff"/><path d="M97.67 80.2a6.11 6.11 0 010-7.51 4.4 4.4 0 013.36-1.4 4.34 4.34 0 013.34 1.4 6.15 6.15 0 010 7.51 4.31 4.31 0 01-3.37 1.4 4.36 4.36 0 01-3.33-1.4zm4.79-1.54a3.82 3.82 0 00.52-2.21 3.87 3.87 0 00-.52-2.22 1.72 1.72 0 00-2.85 0 4.85 4.85 0 000 4.41 1.72 1.72 0 002.85 0zm9.71-7.16h3.19l-12.78 18.71H99.4zm-.84 18.3a4.25 4.25 0 01-1.64-1.8 6.59 6.59 0 010-5.45 4.22 4.22 0 011.64-1.8 4.59 4.59 0 012.39-.63 4.38 4.38 0 013.36 1.4 6.07 6.07 0 010 7.51 4.36 4.36 0 01-3.36 1.41 4.59 4.59 0 01-2.39-.64zm3.82-2.33a4.85 4.85 0 000-4.41 1.62 1.62 0 00-1.43-.76 1.65 1.65 0 00-1.41.75 4.83 4.83 0 000 4.44 1.66 1.66 0 001.41.74 1.62 1.62 0 001.43-.76z" fill="#ffc463"/><path class="cls-4" d="M53.71 71.23H80m-26.29 7.79H80M53.71 86.8H80M53.71 63.44H80m-26.29-7.78H80"/></g></svg>