<svg xmlns="http://www.w3.org/2000/svg" viewBox="0 0 593.26 605.21"><defs><style>.cls-1{fill:#c5c5c5;}.cls-10,.cls-11,.cls-12,.cls-13,.cls-2,.cls-9{fill:none;}.cls-14,.cls-2{stroke:#504e47;}.cls-14,.cls-15,.cls-2{stroke-miterlimit:10;}.cls-14,.cls-16,.cls-3,.cls-8{fill:#fff;}.cls-4{opacity:0.1;}.cls-4,.cls-7,.cls-8{isolation:isolate;}.cls-5{fill:#007a65;}.cls-6{fill:#263238;}.cls-7{opacity:0.3;}.cls-10,.cls-11,.cls-12,.cls-13,.cls-16,.cls-9{stroke:#263238;stroke-linecap:round;stroke-linejoin:round;}.cls-10{stroke-dasharray:3.91 3.91;}.cls-11{stroke-dasharray:3.88 3.88;}.cls-12{stroke-dasharray:4.07 4.07;}.cls-13{stroke-dasharray:4 4;}.cls-15{fill:#fbc469;stroke:#262626;}</style></defs><title>22Ресурс 17</title><g id="Слой_2" data-name="Слой 2"><g id="Слой_1-2" data-name="Слой 1"><path class="cls-1" d="M316.67,79.66a255.71,255.71,0,0,1-77.78-37.38c-20.75-14.78-22.57-20.79-38.06-28.89C171.65-1.84,128.8-6.24,94.92,11.7,51.68,34.59,40,84.89,33.69,111.94,8.18,221.59,67.3,320,88.3,354.92,118.75,405.59,167.53,486.77,267,518c81,25.45,189.91,16.06,261.47-56.07,12.76-12.85,68.78-69.31,64.54-147.82-4.13-76.69-63.11-125.4-102.6-158C426,102.92,357.37,85.84,316.67,79.66Z"/><path class="cls-2" d="M25,382s-8.74-9.82-11.25-28.49"/><path class="cls-3" d="M546.86,515.24,427.64,575.51s-15.78-56.65-22.63-76-7-26-25.36-37.06-28.41-35.58-31.85-48.36-21.13-44-21.13-44L465.87,272l49.55,171.52S526.23,499.19,546.86,515.24Z"/><path class="cls-2" d="M427.64,575.51s-25.86-95-33.9-102.85-31.88-16.38-41.9-46.51-28.36-62.89-28.36-62.89"/><path class="cls-2" d="M546.86,515.24s-22.27-19.65-31.44-76"/><g id="freepik--Wallet--inject-2"><path class="cls-4" d="M481.78,360.41c.85-3.88,1.66-7.75,2.4-11.64a96.73,96.73,0,0,1-.94,11C482.75,360,482.27,360.2,481.78,360.41Z"/><path class="cls-5" d="M181.41,203.5,355,208.4l1.92-8.47,3.44-12s110.29-9.85,146.87-.3l-.14,12.38-.58,49.59s8.09,0,6.74,14.31-2.7,28.52-2.7,28.52l-7.94.55s-4.41,31.82-9.13,56.79c-2.37,12.44-4.81,23.18-6.83,27.44,0,0-240.17,2.31-314.74-15.23C171.9,362,165.49,244.66,181.41,203.5Z"/><rect class="cls-6" x="236.58" y="199.14" width="40.15" height="130.99" rx="8.5" ry="8.5" transform="translate(-20.46 507.76) rotate(-87.14)"/><polygon class="cls-6" points="322.13 302.42 322.02 305.88 190.93 300.8 191.3 296.96 322.13 302.42"/><polygon class="cls-6" points="321.73 315.18 321.61 318.62 190.53 313.78 190.65 310.33 321.73 315.18"/><path class="cls-7" d="M355,208.4c-3.83,15.38-20.72,142.8-20.72,142.8l3.51.54-1.71,22.33c-41.89,2.32-164.21-12-164.21-12-9.81-66.8,9.54-158.53,9.54-158.53C209.36,197.76,355,208.4,355,208.4Z"/><path class="cls-8" d="M445.29,357.32c14.85,1.15,24.13,2.59,28.92,4.46,5.14,2,3.09,5.7.34,8-2.52,2.1-26.75,1-53.69.38-37.45-.85-80.45-1.85-80.45-1.85l1.45-16.87S416.61,355.11,445.29,357.32Z"/><ellipse class="cls-6" cx="415.47" cy="269.64" rx="11.26" ry="10.2"/><path class="cls-9" d="M354.51,208.37s-152.22-9.2-173-4.87C162.67,280.07,172,362,172,362c51.82,7.33,105.55,10.86,157.83,12.53s104.57,2.26,156.87,2.7a436.51,436.51,0,0,0,16-84.24"/><path class="cls-9" d="M506.59,249.65c1.09-21.5.3-40.56.74-62-48.05-6.36-98.54-3.16-146.89.3a184.34,184.34,0,0,0-6.32,25.91c-4.1,22.67-7.26,45.57-10.58,68.36-.85,5.83-8.5,68.95-9.16,68.95q47.07,1.23,94,4.71C443,357,457.62,358.23,472,361.18c2,.41,4.29,1.07,5.15,2.93,1,2.08-.5,4.61-2.52,5.65-4.45,2.28-12,1.65-16.84,1.23l-117.36-2.7,1.45-16.87"/><path class="cls-9" d="M489,368.21a10.31,10.31,0,0,1-.51,2.7"/><path class="cls-10" d="M347.33,342.31c34.14,1.3,92.34,6.64,119,9.6,14.64,1.62,20,6.7,21.82,11.19"/><path class="cls-9" d="M342.35,339.42l-.36,2.7,2.7.1"/><path class="cls-11" d="M363.83,202.37c-7.78,43.91-14.58,87.74-20.72,131.89"/><path class="cls-9" d="M367.45,196.91l-2.7.18-.49,2.7"/><path class="cls-12" d="M501.68,194.23c-42.56-2.91-106.35.83-128.79,2.32"/><path class="cls-9" d="M507.13,194.65l-2.7-.21"/><path class="cls-9" d="M434.11,294c-12.52-.44-30.94.27-40.66-9-6.38-6.12-5.81-17.29-2-24.74,4.58-9,14.84-12.07,24.28-12.83,19.69-1.57,71,1.12,90.8,2.27l.29,0a7.72,7.72,0,0,1,7,8.41l-3.23,34.4C510.53,292.68,457.42,294.88,434.11,294Z"/><path class="cls-6" d="M434.08,294c9.78.27,68.52-1,68.52-1v9.71s-83,2.16-101-4.68-13-27.56-13-26.6C389.65,297,424.3,293.72,434.08,294Z"/><path class="cls-13" d="M510.56,289.88s-89.63-.4-98.48-1.74-19.95-8.5-18.13-20,10.79-15.52,29.11-16.12,90.3,2.78,90.3,2.78"/><path class="cls-9" d="M393.75,364c17.4-1,83.5,2.42,83.5,2.42"/><path class="cls-9" d="M382.86,358.92c10.35-1.35,27,0,27,0"/><line class="cls-9" x1="340.79" y1="363.77" x2="367.7" y2="363.77"/><path class="cls-13" d="M336.59,367.72a1514,1514,0,0,1-160.9-12c-2.79-120.77,10-144.34,10-144.34,47.5-6,165.71,4.53,165.71,4.53"/></g><path class="cls-3" d="M512.8,448.42S541,397.32,541,381.27s-5.24-25.63-7.7-34.22.24-25.78-12.28-38.93-21.62-10.94-32.68-21.26S466.64,272,463.58,275.07c-4.73,4.77-5.73,17.2,1.15,28s25.55,18.92,28.5,22.11,2,27,2,27-24.89,17.19-31.61,45.93"/><path class="cls-2" d="M512.8,448.42S541,397.32,541,381.27s-5.24-25.63-7.7-34.22.24-25.78-12.28-38.93-21.62-10.94-32.68-21.26-20.3-15.44-24.73-11.79c-5.05,4.17-5.73,17.2,1.15,28s25.55,18.92,28.5,22.11,2,27,2,27-24.89,17.19-31.61,45.93"/><path class="cls-2" d="M396.68,425.66s7-30.71,22.43-42.26"/><path class="cls-2" d="M384.13,417.06s8.29-18.62,19.62-24.32"/><path class="cls-14" d="M155.1,301.09s-17.69,12.56-29,15.31c0,0-20.88,32.23-39.3,35.92s-5.9-21.87-5.9-21.87l59-51.09Z"/><path class="cls-14" d="M139.87,291.89s-10.57,4.66-13.76,6.38-9.33,24.79-39.67,37.33l-5.53-15.71,2.7-18.42,24.81-23.59,22.6-11.3Z"/><path class="cls-14" d="M126.11,281.32s-3.93,1.23-15.23,16.71S88.16,316.4,88.16,316.4l3.07-51.54,27.51-11.79Z"/><rect class="cls-6" x="100.05" y="155.22" width="204.79" height="125.62" rx="15.03" ry="15.03" transform="translate(-93.63 247.36) rotate(-52.78)"/><path class="cls-15" d="M104.61,267.64A19,19,0,0,1,101,241.08l30.27-39.91,30.11-39.63,40.5-53.32h0a18.94,18.94,0,0,1,26.55-3.63l50.24,38.18,19.62,14.89a18.85,18.85,0,0,1,7,19.26,18.57,18.57,0,0,1-3.38,7.27L201,317.07l0,.06a18.93,18.93,0,0,1-26.52,3.58l-69.83-53Z"/><rect class="cls-16" x="195.93" y="123.71" width="35.9" height="26.71" rx="5.61" ry="5.61" transform="translate(-24.64 224.47) rotate(-52.78)"/><line class="cls-9" x1="203.19" y1="151.48" x2="224.48" y2="122.55"/><line class="cls-9" x1="203.19" y1="129.05" x2="224.48" y2="145.19"/><polygon class="cls-3" points="227.6 253.65 231.21 256.37 186.88 314.72 183.25 312.05 227.6 253.65"/><polygon class="cls-3" points="221.53 249.02 225.11 251.75 180.73 310.19 177.1 307.5 221.53 249.02"/><polygon class="cls-3" points="215.44 244.4 219.03 247.14 174.58 305.64 170.96 302.97 215.44 244.4"/><polygon class="cls-3" points="208.72 240.61 212.3 243.35 168.44 301.08 164.81 298.41 208.72 240.61"/><polygon class="cls-3" points="202.14 235.63 205.74 238.37 161.81 296.2 158.18 293.51 202.14 235.63"/><polygon class="cls-3" points="202.14 167.59 205.74 170.32 161.81 228.15 158.18 225.48 202.14 167.59"/><rect class="cls-6" x="92.44" y="204.09" width="204.64" height="7.06" transform="translate(-88.38 237.13) rotate(-52.78)"/><path class="cls-9" d="M104.61,267.64A19,19,0,0,1,101,241.08l30.27-39.91,30.11-39.63,40.5-53.32h0a18.94,18.94,0,0,1,26.55-3.63l50.24,38.18,19.62,14.89a18.85,18.85,0,0,1,7,19.26,18.57,18.57,0,0,1-3.38,7.27L201,317.07l0,.06a18.93,18.93,0,0,1-26.52,3.58l-69.83-53Z"/><path class="cls-3" d="M50.53,573.82s36-48.48,21.62-82.54S6.64,395,4,392.36s-10.48-16.38,9.83-40c0,0,3-13.76,24.08-22.93,0,0,30.54-74.68,37.62-113.33s21.33-18.83,23.29-10,.49,78.12-9.33,94.33c0,0-3.44,41.76-4.42,47.66s24.07,42.75,53.06,57.48c0,0,26.53-3.43,28-7.86s26-103.66,51.59-102.68,12,29.81,10.32,40-16.71,39.63-14.74,79.26,4.91,64.2-7.53,82.55S159.6,604.61,159.6,604.61Z"/><path class="cls-2" d="M50.71,573.82s36-48.48,21.62-82.54S6.82,395,4.2,392.36-6.28,376,14,352.4c0,0,3-13.76,24.09-22.93,0,0,30.53-74.68,37.61-113.33s21.33-18.83,23.29-10,.5,78.12-9.33,94.33c0,0-3.44,41.76-4.42,47.66s24.07,42.75,53.06,57.48c0,0,26.53-3.43,28-7.86s26-103.66,51.59-102.68,12,29.81,10.32,40-16.7,39.63-14.74,79.26,4.91,64.2-7.53,82.55-46.19,107.76-46.19,107.76Z"/><path class="cls-2" d="M153.67,420.86s10.07-13.77,12.66-23.1"/><path class="cls-2" d="M110.44,400.55s11.24,4.91,27.89,5.07"/><path class="cls-2" d="M41,373.69s-13.63-28.17-2.88-44.22"/><path class="cls-14" d="M23.67,380.9A67.13,67.13,0,0,1,14,352.4"/></g></g></svg>