<svg width="933" height="620" fill="none" xmlns="http://www.w3.org/2000/svg"><g clip-path="url(#clip0_44_606)"><path d="M806.373 152.14S669.061 11.489 490.609.67C312.157-10.15 208.238 105.123 158.95 173.912 109.662 242.568-13.358 357.039 1.202 462.027c14.425 104.854 156.68 184.463 360.377 149.467 203.697-34.996 262.736-48.219 355.568-21.639 92.833 26.581 213.315-13.223 215.719-163.892 2.404-150.67-126.493-273.823-126.493-273.823z" fill="#C4C4C4"/><path d="M27.382 575.161h870.889" stroke="#263238" stroke-miterlimit="10"/><path d="M822.402 351.962l17.632 168.701m-2.805-32.324l-8.014-8.415" stroke="#263238" stroke-width="2" stroke-miterlimit="10"/><path d="M831.619 482.462s.267-3.74-3.206-6.812c-2.003-1.87-12.823-6.412-13.891-2.538-1.069 4.141 10.018 12.289 17.097 9.35z" fill="#fff" stroke="#263238" stroke-miterlimit="10"/><path d="M831.619 482.462l-10.285-6.412" stroke="#263238" stroke-width=".5" stroke-miterlimit="10"/><path d="M839.232 507.573l-8.014-8.415" stroke="#263238" stroke-width="2" stroke-miterlimit="10"/><path d="M833.622 501.562s.268-3.74-3.205-6.812c-2.004-1.87-12.823-6.411-13.892-2.538-1.068 4.141 10.018 12.289 17.097 9.35z" fill="#fff" stroke="#263238" stroke-miterlimit="10"/><path d="M833.622 501.563l-10.284-6.278" stroke="#263238" stroke-width=".5" stroke-miterlimit="10"/><path d="M832.287 441.455l-8.015-8.415" stroke="#263238" stroke-width="2" stroke-miterlimit="10"/><path d="M826.81 435.578s.267-3.74-3.206-6.812c-2.003-1.87-12.822-6.412-13.891-2.538-1.069 4.141 9.884 12.289 17.097 9.35z" fill="#fff" stroke="#263238" stroke-miterlimit="10"/><path d="M826.81 435.578l-10.285-6.411" stroke="#263238" stroke-width=".5" stroke-miterlimit="10"/><path d="M834.29 460.689l-8.014-8.415" stroke="#263238" stroke-width="2" stroke-miterlimit="10"/><path d="M828.814 454.812s.267-3.74-3.206-6.812c-2.003-1.87-12.823-6.411-13.891-2.538-1.069 4.141 9.884 12.289 17.097 9.35z" fill="#fff" stroke="#263238" stroke-miterlimit="10"/><path d="M828.814 454.812l-10.285-6.411" stroke="#263238" stroke-width=".5" stroke-miterlimit="10"/><path d="M829.081 410.333l-8.014-8.415" stroke="#263238" stroke-width="2" stroke-miterlimit="10"/><path d="M823.471 404.456s.267-3.74-3.206-6.812c-2.003-1.87-12.823-6.412-13.891-2.538-1.069 4.141 10.018 12.289 17.097 9.35z" fill="#fff" stroke="#263238" stroke-miterlimit="10"/><path d="M823.471 404.456l-10.285-6.412" stroke="#263238" stroke-width=".5" stroke-miterlimit="10"/><path d="M825.742 379.077l-7.881-8.415" stroke="#263238" stroke-width="2" stroke-miterlimit="10"/><path d="M820.265 373.2s.267-3.74-3.205-6.812c-2.004-1.87-12.823-6.411-13.892-2.538-1.069 4.141 10.018 12.155 17.097 9.35z" fill="#fff" stroke="#263238" stroke-miterlimit="10"/><path d="M820.265 373.2l-10.285-6.411" stroke="#263238" stroke-width=".5" stroke-miterlimit="10"/><path d="M835.893 476.986l6.011-9.884" stroke="#263238" stroke-width="2" stroke-miterlimit="10"/><path d="M840.034 470.04s-.935-3.607 1.736-7.347c1.603-2.27 11.22-8.815 13.09-5.342 1.87 3.873-7.212 14.025-14.826 12.689z" fill="#fff" stroke="#263238" stroke-miterlimit="10"/><path d="M840.034 470.04l9.35-8.816" stroke="#263238" stroke-width=".5" stroke-miterlimit="10"/><path d="M830.55 426.496l6.145-9.885" stroke="#263238" stroke-width="2" stroke-miterlimit="10"/><path d="M834.825 419.55s-.935-3.607 1.736-7.347c1.603-2.271 11.22-8.816 13.09-5.343 1.87 3.874-7.346 14.025-14.826 12.69z" fill="#fff" stroke="#263238" stroke-miterlimit="10"/><path d="M834.825 419.55l9.216-8.816" stroke="#263238" stroke-width=".5" stroke-miterlimit="10"/><path d="M828.28 404.323l6.01-9.885" stroke="#263238" stroke-width="2" stroke-miterlimit="10"/><path d="M832.554 397.377s-.935-3.607 1.736-7.347c1.603-2.27 11.22-8.815 13.09-5.343 1.737 3.874-7.346 14.025-14.826 12.69z" fill="#fff" stroke="#263238" stroke-miterlimit="10"/><path d="M832.554 397.377l9.216-8.816" stroke="#263238" stroke-width=".5" stroke-miterlimit="10"/><path d="M824.94 371.731l6.011-9.885" stroke="#263238" stroke-width="2" stroke-miterlimit="10"/><path d="M829.081 364.919s-.935-3.607 1.736-7.347c1.603-2.27 11.221-8.815 13.091-5.343 1.87 3.74-7.213 14.026-14.827 12.69z" fill="#fff" stroke="#263238" stroke-miterlimit="10"/><path d="M829.081 364.919l9.216-8.95" stroke="#263238" stroke-width=".5" stroke-miterlimit="10"/><path d="M822.269 351.027s-.935-3.606 1.736-7.346c1.603-2.271 11.22-8.816 13.09-5.343 1.87 3.74-7.213 14.025-14.826 12.689z" fill="#fff" stroke="#263238" stroke-miterlimit="10"/><path d="M822.269 351.027l9.216-8.816" stroke="#263238" stroke-width=".5" stroke-miterlimit="10"/><path d="M822.803 351.428s-3.74.668-7.079-2.405c-2.004-1.87-7.614-12.155-4.007-13.49 4.007-1.737 13.223 8.415 11.086 15.895z" fill="#fff" stroke="#263238" stroke-miterlimit="10"/><path d="M822.803 351.428l-7.747-10.152" stroke="#263238" stroke-width=".5" stroke-miterlimit="10"/><path d="M868.885 375.203l-17.497 168.702m3.873-32.191l-6.144-9.884" stroke="#263238" stroke-width="2" stroke-miterlimit="10"/><path d="M850.987 504.768s.935-3.607-1.737-7.347c-1.602-2.27-11.22-8.815-13.09-5.342-1.87 3.873 7.347 14.025 14.827 12.689z" fill="#fff" stroke="#263238" stroke-miterlimit="10"/><path d="M850.987 504.768l-8.682-8.415" stroke="#263238" stroke-width=".5" stroke-miterlimit="10"/><path d="M860.07 464.83l-6.011-9.884" stroke="#263238" stroke-width="2" stroke-miterlimit="10"/><path d="M855.929 457.884s.935-3.606-1.736-7.346c-1.603-2.271-11.221-8.816-13.091-5.343-1.87 3.873 7.213 14.158 14.827 12.689z" fill="#fff" stroke="#263238" stroke-miterlimit="10"/><path d="M855.929 457.884l-8.816-8.281" stroke="#263238" stroke-width=".5" stroke-miterlimit="10"/><path d="M858.066 484.065l-6.011-9.885" stroke="#263238" stroke-width="2" stroke-miterlimit="10"/><path d="M853.925 477.119s.935-3.607-1.736-7.213c-1.603-2.271-11.22-8.816-13.09-5.343-1.87 3.74 7.213 13.891 14.826 12.556z" fill="#fff" stroke="#263238" stroke-miterlimit="10"/><path d="M853.925 477.119l-8.815-8.415" stroke="#263238" stroke-width=".5" stroke-miterlimit="10"/><path d="M863.276 433.708l-6.011-9.884" stroke="#263238" stroke-width="2" stroke-miterlimit="10"/><path d="M859.135 426.762s.935-3.606-1.737-7.213c-1.603-2.27-11.22-8.815-13.09-5.342-1.87 3.74 7.213 13.891 14.827 12.555z" fill="#fff" stroke="#263238" stroke-miterlimit="10"/><path d="M859.135 426.762l-8.816-8.415" stroke="#263238" stroke-width=".5" stroke-miterlimit="10"/><path d="M866.615 402.452l-6.145-10.017" stroke="#263238" stroke-width="2" stroke-miterlimit="10"/><path d="M862.34 395.506s.935-3.606-1.736-7.212c-1.603-2.271-11.22-8.816-13.09-5.343-1.87 3.74 7.346 13.891 14.826 12.555z" fill="#fff" stroke="#263238" stroke-miterlimit="10"/><path d="M862.341 395.506l-8.683-8.415" stroke="#263238" stroke-width=".5" stroke-miterlimit="10"/><path d="M856.33 500.36l7.881-8.548" stroke="#263238" stroke-width="2" stroke-miterlimit="10"/><path d="M861.806 494.35s-.267-3.74 3.206-6.813c2.003-1.87 12.823-6.411 13.891-2.537 1.069 4.14-10.017 12.288-17.097 9.35z" fill="#fff" stroke="#263238" stroke-miterlimit="10"/><path d="M861.806 494.349l10.82-6.678" stroke="#263238" stroke-width=".5" stroke-miterlimit="10"/><path d="M861.539 449.87l7.881-8.549" stroke="#263238" stroke-width="2" stroke-miterlimit="10"/><path d="M867.015 443.859s-.267-3.74 3.206-6.812c2.004-1.87 12.823-6.411 13.892-2.538 1.068 4.141-9.885 12.289-17.098 9.35z" fill="#fff" stroke="#263238" stroke-miterlimit="10"/><path d="M867.016 443.859l10.952-6.678" stroke="#263238" stroke-width=".5" stroke-miterlimit="10"/><path d="M863.81 427.564l8.014-8.416" stroke="#263238" stroke-width="2" stroke-miterlimit="10"/><path d="M869.42 421.686s-.267-3.74 3.205-6.812c2.004-1.87 12.823-6.411 13.892-2.538.935 4.141-10.018 12.289-17.097 9.35z" fill="#fff" stroke="#263238" stroke-miterlimit="10"/><path d="M869.42 421.686l10.819-6.678" stroke="#263238" stroke-width=".5" stroke-miterlimit="10"/><path d="M867.149 395.105l8.014-8.415" stroke="#263238" stroke-width="2" stroke-miterlimit="10"/><path d="M872.759 389.228s-.267-3.74 3.206-6.812c2.003-1.87 12.823-6.411 13.891-2.538 1.069 4.141-10.018 12.155-17.097 9.35z" fill="#fff" stroke="#263238" stroke-miterlimit="10"/><path d="M872.759 389.228l10.819-6.812" stroke="#263238" stroke-width=".5" stroke-miterlimit="10"/><path d="M868.886 374.269s-.268-3.74 3.205-6.813c2.004-1.87 12.823-6.411 13.892-2.538 1.068 4.008-9.885 12.156-17.097 9.351z" fill="#fff" stroke="#263238" stroke-miterlimit="10"/><path d="M868.885 374.268l10.953-6.812" stroke="#263238" stroke-width=".5" stroke-miterlimit="10"/><path d="M869.42 374.669s-3.74-.133-6.412-3.874c-1.603-2.27-4.942-13.49-1.068-14.025 4.14-.667 11.086 11.087 7.48 17.899z" fill="#fff" stroke="#263238" stroke-miterlimit="10"/><path d="M869.42 374.669l-5.61-11.487" stroke="#263238" stroke-width=".5" stroke-miterlimit="10"/><path d="M848.85 306.414v213.448m.133-32.191l-7.079-9.216" stroke="#263238" stroke-width="2" stroke-miterlimit="10"/><path d="M844.041 481.26s.668-3.74-2.404-7.08c-1.87-2.003-12.155-7.613-13.491-4.007-1.603 4.007 8.549 13.224 15.895 11.087z" fill="#fff" stroke="#263238" stroke-miterlimit="10"/><path d="M844.041 481.26l-9.484-7.347" stroke="#263238" stroke-width=".5" stroke-miterlimit="10"/><path d="M848.983 447.599l-7.079-9.216" stroke="#263238" stroke-width="2" stroke-miterlimit="10"/><path d="M844.041 441.188s.668-3.74-2.404-7.079c-1.87-2.004-12.155-7.614-13.491-4.008-1.603 4.008 8.549 13.224 15.895 11.087z" fill="#fff" stroke="#263238" stroke-miterlimit="10"/><path d="M844.041 441.188l-9.484-7.48" stroke="#263238" stroke-width=".5" stroke-miterlimit="10"/><path d="M848.983 400.582l-7.079-9.216" stroke="#263238" stroke-width="2" stroke-miterlimit="10"/><path d="M844.041 394.171s.668-3.74-2.404-7.079c-1.87-2.004-12.155-7.614-13.491-4.008-1.603 4.008 8.549 13.224 15.895 11.087z" fill="#fff" stroke="#263238" stroke-miterlimit="10"/><path d="M844.041 394.171l-9.484-7.48" stroke="#263238" stroke-width=".5" stroke-miterlimit="10"/><path d="M848.983 369.193l-7.079-9.217" stroke="#263238" stroke-width="2" stroke-miterlimit="10"/><path d="M844.041 362.781s.668-3.74-2.404-7.079c-1.87-2.004-12.155-7.614-13.491-4.007-1.603 4.007 8.549 13.223 15.895 11.086z" fill="#fff" stroke="#263238" stroke-miterlimit="10"/><path d="M844.041 362.781l-9.484-7.48" stroke="#263238" stroke-width=".5" stroke-miterlimit="10"/><path d="M848.983 337.803l-7.079-9.216" stroke="#263238" stroke-width="2" stroke-miterlimit="10"/><path d="M844.041 331.258s.668-3.74-2.404-7.079c-1.87-2.004-12.155-7.614-13.491-4.007-1.603 4.007 8.549 13.223 15.895 11.086z" fill="#fff" stroke="#263238" stroke-miterlimit="10"/><path d="M844.041 331.259l-9.484-7.347" stroke="#263238" stroke-width=".5" stroke-miterlimit="10"/><path d="M848.85 499.96l7.079-9.217" stroke="#263238" stroke-width="2" stroke-miterlimit="10"/><path d="M853.792 493.548s-.668-3.74 2.404-7.079c1.87-2.004 12.155-7.614 13.491-4.007 1.603 4.007-8.549 13.223-15.895 11.086z" fill="#fff" stroke="#263238" stroke-miterlimit="10"/><path d="M853.792 493.548l10.018-7.881" stroke="#263238" stroke-width=".5" stroke-miterlimit="10"/><path d="M848.85 436.246l7.079-9.217" stroke="#263238" stroke-width="2" stroke-miterlimit="10"/><path d="M853.792 429.701s-.668-3.74 2.404-7.08c1.87-2.003 12.155-7.613 13.491-4.007 1.603 4.007-8.549 13.224-15.895 11.087z" fill="#fff" stroke="#263238" stroke-miterlimit="10"/><path d="M853.792 429.701l10.018-7.747" stroke="#263238" stroke-width=".5" stroke-miterlimit="10"/><path d="M848.85 404.723l7.079-9.217" stroke="#263238" stroke-width="2" stroke-miterlimit="10"/><path d="M853.792 398.311s-.668-3.74 2.404-7.079c1.87-2.003 12.155-7.613 13.491-4.007 1.603 4.007-8.549 13.224-15.895 11.086z" fill="#fff" stroke="#263238" stroke-miterlimit="10"/><path d="M853.792 398.311l10.018-7.88" stroke="#263238" stroke-width=".5" stroke-miterlimit="10"/><path d="M848.85 363.182l7.079-9.216" stroke="#263238" stroke-width="2" stroke-miterlimit="10"/><path d="M853.792 356.637s-.668-3.74 2.404-7.079c1.87-2.004 12.155-7.614 13.491-4.007 1.603 4.007-8.549 13.223-15.895 11.086z" fill="#fff" stroke="#263238" stroke-miterlimit="10"/><path d="M853.792 356.637l10.018-7.747" stroke="#263238" stroke-width=".5" stroke-miterlimit="10"/><path d="M848.85 330.457l7.079-9.216" stroke="#263238" stroke-width="2" stroke-miterlimit="10"/><path d="M853.792 323.912s-.668-3.74 2.404-7.079c1.87-2.004 12.155-7.614 13.491-4.007 1.603 4.14-8.549 13.357-15.895 11.086z" fill="#fff" stroke="#263238" stroke-miterlimit="10"/><path d="M853.792 323.912l10.018-7.747" stroke="#263238" stroke-width=".5" stroke-miterlimit="10"/><path d="M848.449 309.486s-.668-3.74 2.404-7.079c1.87-2.004 12.155-7.614 13.491-4.007 1.603 4.007-8.549 13.223-15.895 11.086z" fill="#fff" stroke="#263238" stroke-miterlimit="10"/><path d="M848.449 309.486l10.018-7.881" stroke="#263238" stroke-width=".5" stroke-miterlimit="10"/><path d="M848.85 309.887s-3.74.267-6.812-3.206c-1.87-2.003-6.412-12.823-2.538-13.891 4.274-1.069 12.288 10.018 9.35 17.097z" fill="#fff" stroke="#263238" stroke-miterlimit="10"/><path d="M848.85 309.887l-6.679-10.82" stroke="#263238" stroke-width=".5" stroke-miterlimit="10"/><path d="M857.532 575.161h-22.574l-2.805-57.036h28.317l-2.938 57.036z" fill="#fff" stroke="#263238" stroke-miterlimit="10"/><path d="M847.328 126.235c0-23.099-19.476-41.555-42.914-39.97-19.476 1.359-35.441 16.984-37.026 36.46-.906 11.097 2.604 21.287 9.171 29.1a39.326 39.326 0 019.172 25.251v5.435h43.254v-5.435c0-9.172 3.17-18.117 9.058-25.138 5.775-6.907 9.285-15.852 9.285-25.703z" fill="#FBC469" stroke="#263238" stroke-miterlimit="10" stroke-linecap="round" stroke-linejoin="round"/><path d="M828.871 182.624h-43.254v10.757h43.254v-10.757zm-5.321 21.401h-32.611a5.316 5.316 0 01-5.322-5.322v-5.322h43.254v5.322a5.315 5.315 0 01-5.321 5.322z" fill="#00654D" stroke="#263238" stroke-miterlimit="10" stroke-linecap="round" stroke-linejoin="round"/><path d="M816.19 214.781h-17.891c-3.963 0-7.246-3.283-7.246-7.246v-3.397h32.384v3.397c0 3.963-3.284 7.246-7.247 7.246z" fill="#263238" stroke="#263238" stroke-miterlimit="10" stroke-linecap="round" stroke-linejoin="round"/><path d="M852.99 126.461h18.343m-129.875 0h18.57m46.311-46.538V61.58m33.289 31.704l12.682-12.681m-91.829 91.83l12.794-12.909m-.452-66.693l-12.342-12.228m91.829 91.829l-12.229-12.229" stroke="#263238" stroke-miterlimit="10" stroke-linecap="round" stroke-linejoin="round"/><path d="M539.898 108.327l-62.512-86.554-62.645 86.554h25.779v96.038h73.598v-96.038h25.78z" fill="#00654D" stroke="#263238" stroke-miterlimit="10" stroke-linecap="round" stroke-linejoin="round"/><path d="M487.153 256.034c35.175-5.686 59.079-38.811 53.393-73.986-5.687-35.174-38.812-59.079-73.986-53.392-35.175 5.686-59.08 38.811-53.393 73.986 5.687 35.174 38.811 59.079 73.986 53.392z" fill="#FBC469" stroke="#263238" stroke-miterlimit="10" stroke-linecap="round" stroke-linejoin="round"/><path d="M525.848 217.128c13.65-27.073 2.769-60.084-24.304-73.734-27.072-13.65-60.083-2.769-73.733 24.303-13.65 27.072-2.769 60.084 24.303 73.734 27.072 13.65 60.084 2.769 73.734-24.303z" fill="#FBC469" stroke="#263238" stroke-miterlimit="10" stroke-linecap="round" stroke-linejoin="round"/><path d="M110.197 191.008H98.042v36.465h12.155v-36.465z" stroke="#263238" stroke-width="2" stroke-miterlimit="10" stroke-linecap="round" stroke-linejoin="round"/><path d="M129.431 204.098h-12.155v23.375h12.155v-23.375z" stroke="#007B64" stroke-width="2" stroke-miterlimit="10" stroke-linecap="round" stroke-linejoin="round"/><path d="M148.532 182.993h-12.155v44.346h12.155v-44.346z" stroke="#263238" stroke-width="2" stroke-miterlimit="10" stroke-linecap="round" stroke-linejoin="round"/><path d="M167.766 192.21h-12.155v35.263h12.155V192.21z" stroke="#007B64" stroke-width="2" stroke-miterlimit="10" stroke-linecap="round" stroke-linejoin="round"/><path d="M187.001 184.195h-12.155v43.278h12.155v-43.278z" stroke="#263238" stroke-width="2" stroke-miterlimit="10" stroke-linecap="round" stroke-linejoin="round"/><path d="M206.102 158.55h-12.156v68.923h12.156V158.55z" stroke="#007B64" stroke-width="2" stroke-miterlimit="10" stroke-linecap="round" stroke-linejoin="round"/><path d="M219.993 157.882h7.079m-7.079 13.891h7.079m-7.079 13.892h7.079m-7.079 13.892h7.079m-7.079 14.024h7.079m-7.079 13.892h7.079" stroke="#263238" stroke-width=".5" stroke-miterlimit="10" stroke-linecap="round" stroke-linejoin="round"/><path d="M104.987 177.651l18.701 11.22 19.501-20.837 19.234 1.602 18.567-7.346 21.104-27.649" stroke="#263238" stroke-miterlimit="10" stroke-linecap="round" stroke-linejoin="round"/><path d="M107.392 177.65a2.395 2.395 0 00-2.405-2.404 2.395 2.395 0 00-2.404 2.404 2.395 2.395 0 002.404 2.405c1.336 0 2.405-1.202 2.405-2.405zm18.7 11.221a2.394 2.394 0 00-2.404-2.404 2.394 2.394 0 00-2.405 2.404 2.394 2.394 0 002.405 2.404 2.394 2.394 0 002.404-2.404zm19.501-20.838a2.393 2.393 0 00-2.404-2.404 2.393 2.393 0 00-2.404 2.404 2.394 2.394 0 002.404 2.405 2.394 2.394 0 002.404-2.405zm19.235 1.604a2.395 2.395 0 00-2.405-2.405 2.395 2.395 0 00-2.404 2.405 2.395 2.395 0 002.404 2.404 2.395 2.395 0 002.405-2.404zm18.566-7.747a2.394 2.394 0 00-2.404-2.405 2.394 2.394 0 00-2.404 2.405 2.394 2.394 0 002.404 2.404 2.394 2.394 0 002.404-2.404zm21.105-27.249a2.395 2.395 0 00-2.405-2.405 2.395 2.395 0 00-2.404 2.405 2.395 2.395 0 002.404 2.404c1.336 0 2.405-1.202 2.405-2.404z" fill="#263238"/><path d="M669.992 517.477h7.613v-73.331h-7.613v73.331zm37.981-70.734l13.399 1.566 8.513-72.832-13.399-1.567-8.513 72.833z" fill="#263238" stroke="#263238" stroke-miterlimit="10" stroke-linecap="round" stroke-linejoin="round"/><path d="M664.12 520.396v-12.289h19.368v12.423l77.338 30.988v14.693h-5.343v-11.086l-82.013-18.7-79.743 18.7v11.086h-5.075v-14.693l75.468-31.122z" fill="#8C8C8C" stroke="#263238" stroke-miterlimit="10" stroke-linecap="round" stroke-linejoin="round"/><path d="M654.764 467.545h38.068V444.17h-38.068v23.375zm106.062 99.2a8.095 8.095 0 018.148-8.147 8.095 8.095 0 018.148 8.147 8.095 8.095 0 01-8.148 8.148c-4.542.134-8.148-3.606-8.148-8.148z" fill="#263238" stroke="#263238" stroke-miterlimit="10" stroke-linecap="round" stroke-linejoin="round"/><path d="M765.501 566.745c0-2.003 1.603-3.473 3.473-3.473 2.003 0 3.473 1.603 3.473 3.473 0 2.004-1.603 3.473-3.473 3.473-2.004.134-3.473-1.469-3.473-3.473z" fill="#fff" stroke="#263238" stroke-miterlimit="10" stroke-linecap="round" stroke-linejoin="round"/><path d="M571.554 566.746a8.095 8.095 0 018.148-8.148 8.095 8.095 0 018.148 8.148 8.095 8.095 0 01-8.148 8.147 8.095 8.095 0 01-8.148-8.147z" fill="#263238" stroke="#263238" stroke-miterlimit="10" stroke-linecap="round" stroke-linejoin="round"/><path d="M579.836 570.218a3.473 3.473 0 100-6.946 3.473 3.473 0 000 6.946z" fill="#fff" stroke="#263238" stroke-miterlimit="10" stroke-linecap="round" stroke-linejoin="round"/><path d="M670.264 566.612h6.412l3.339-43.945h-12.957l3.206 43.945z" fill="#8C8C8C" stroke="#263238" stroke-miterlimit="10" stroke-linecap="round" stroke-linejoin="round"/><path d="M670.659 575.369h6.412v-18.166h-6.412v18.166z" fill="#263238" stroke="#263238" stroke-miterlimit="10" stroke-linecap="round" stroke-linejoin="round"/><path d="M724.494 410.333c15.762 1.469 29.787-10.018 31.39-25.913l8.949-93.367c1.469-15.761-10.018-29.786-25.913-31.389-15.761-1.47-29.786 10.018-31.389 25.913l-8.95 93.366c-1.469 15.895 10.152 29.921 25.913 31.39z" fill="#8C8C8C" stroke="#263238" stroke-miterlimit="10" stroke-linecap="round" stroke-linejoin="round"/><path d="M717.682 409.665c15.762 1.469 29.787-10.018 31.39-25.913l8.949-93.367c1.469-15.761-10.018-29.786-25.913-31.389-15.762-1.47-29.787 10.018-31.39 25.913l-8.949 93.366c-1.469 15.896 10.152 29.921 25.913 31.39zm-125.023 41.674l134.106 3.473c3.072.134 5.744-2.404 5.877-5.476l.668-21.505c.134-3.072-2.404-5.744-5.476-5.877l-134.107-3.473c-3.072-.134-5.743 2.404-5.877 5.476l-.668 21.505c-.133 3.206 2.405 5.877 5.477 5.877z" fill="#8C8C8C" stroke="#263238" stroke-miterlimit="10" stroke-linecap="round" stroke-linejoin="round"/><path d="M648.759 452.408l78.006 2.404c3.072.134 5.744-2.404 5.877-5.476l.668-21.505c.134-3.072-2.404-5.744-5.476-5.877l-78.006-2.405c-3.073-.133-5.744 2.405-5.878 5.477l-.667 21.505c-.134 3.206 2.27 5.877 5.476 5.877z" fill="#8C8C8C" stroke="#263238" stroke-miterlimit="10" stroke-linecap="round" stroke-linejoin="round"/><path d="M583.709 543.237l-.668 4.942s-5.877 11.888-8.281 13.891c-2.271 2.004-16.83 8.282-19.502 9.217-2.671.935 2.004 4.007 8.282 4.274 6.278.267 17.765.267 21.772-.668 4.007-.935 11.487-6.545 13.224-6.945l1.336 4.274s7.212-2.671 9.884-3.339c2.671-.668 6.946-4.008 6.946-4.008s-3.34-9.884-5.21-13.49c-2.003-3.607-4.675-5.877-4.675-5.877l-4.942-5.878-18.166 3.607z" fill="#263238" stroke="#263238" stroke-miterlimit="10" stroke-linecap="round" stroke-linejoin="round"/><path d="M623.647 354.9l-10.819 6.545-23.776 6.946s-75.067 13.892-79.341 18.834c-4.275 4.942-2.672 9.216.935 15.494 3.606 6.278 67.186 145.059 67.186 145.059l26.314-5.209-44.212-132.904s83.081 16.83 97.507 14.158c14.559-2.671 32.992-18.165 36.198-29.92 3.339-11.888-11.888-30.588-11.888-30.588l-58.104-8.415z" fill="#00654D" stroke="#263238" stroke-miterlimit="10" stroke-linecap="round" stroke-linejoin="round"/><path d="M541.367 396.708s16.563 8.148 19.635 17.098" stroke="#263238" stroke-miterlimit="10" stroke-linecap="round" stroke-linejoin="round"/><path d="M709.668 244.838l-35.664-3.206-52.093 117.944 34.328 5.877 53.429-120.615z" fill="#fff" stroke="#263238" stroke-miterlimit="10" stroke-linecap="round" stroke-linejoin="round"/><path d="M674.672 252.585s-52.093 105.254-52.761 106.991c-.668 1.603-15.494 5.877-18.834 6.545-3.339.668-14.158 2.27-14.158 2.27l18.433-12.555 13.223-33.928-16.162-8.281s29.653-44.479 36.198-59.573c6.545-15.094 9.217-19.101 15.762-19.502 6.545-.267 25.378.935 25.378.935l-7.079 17.098z" fill="#00654D" stroke="#263238" stroke-miterlimit="10" stroke-linecap="round" stroke-linejoin="round"/><path d="M667.459 274.891l.668 7.614s-34.595 61.977-34.863 63.313c-.267 1.335 2.672 10.552 2.672 10.552l12.155-8.949 23.108-63.581 6.278-3.606.133-11.755-10.151 6.412z" fill="#263238" stroke="#263238" stroke-miterlimit="10" stroke-linecap="round" stroke-linejoin="round"/><path d="M681.217 161.088s-12.289 29.653-14.96 38.602c-2.672 8.949-4.675 23.642-4.141 25.245.534 1.603 4.141 7.347 10.285 7.614 6.278.267 11.755.267 11.755.267l-9.484 19.902s1.068 15.494 2.671 15.762c1.603.267 25.513-18.166 26.047-18.968.534-.801 15.761-33.393 15.761-33.393s13.625-6.812 14.426-12.823c.802-6.01-3.473-8.949-3.473-8.949v-7.346l6.011-17.899s-14.96-9.751-31.523-13.891c-16.563-4.141-20.169-1.336-20.169-1.336l-3.206 7.213z" fill="#fff" stroke="#263238" stroke-miterlimit="10" stroke-linecap="round" stroke-linejoin="round"/><path d="M708.599 144.391s-24.443-6.545-35.396 2.939c-10.82 9.483 17.364 24.711 26.58 26.046 9.217 1.336 20.704-.534 17.899 1.87-2.671 2.405-8.682 6.278-5.744 8.683 2.939 2.404 6.278 3.472 6.278 3.472s-12.823 28.051-14.96 31.256c-2.137 3.206-6.278 2.939-8.682 2.137-2.404-.801-14.158-8.147-17.898-9.483-3.741-1.336-10.82-5.477-12.556-1.069-1.603 4.408-5.744 22.841.267 26.848 6.011 4.141 35.129-6.278 39.404-9.216 4.408-2.939 5.743-8.415 6.545-9.484.801-1.068 12.555-20.436 13.624-21.772 1.069-1.336 6.011-2.672 6.011-2.672s9.75-19.635 10.552-27.115c1.069-7.48-24.577-22.707-31.924-22.44z" fill="#263238" stroke="#263238" stroke-miterlimit="10" stroke-linecap="round" stroke-linejoin="round"/><path d="M683.087 182.192l-.534 12.022s-12.823 14.426-12.823 16.028c0 1.603 15.227-.267 15.227-.267m-3.74-30.454s-1.603-3.205-5.209-2.137m16.562 8.949s7.881-.801 10.286 5.21" stroke="#263238" stroke-miterlimit="10" stroke-linecap="round" stroke-linejoin="round"/><path d="M671.466 216.521s7.08 4.407 11.755 4.407" stroke="#fff" stroke-miterlimit="10" stroke-linecap="round" stroke-linejoin="round"/><path d="M695.242 198.087c-.801 1.47-2.137 2.271-3.072 1.87-.935-.534-1.069-2.003-.401-3.472.802-1.47 2.137-2.271 3.072-1.87 1.069.4 1.202 2.003.401 3.472zm-16.964-6.678c-.801 1.469-2.137 2.27-3.072 1.87-.935-.535-1.068-2.004-.401-3.473.802-1.469 2.138-2.271 3.073-1.87.935.534 1.202 2.003.4 3.473z" fill="#263238"/><path d="M560.334 532.15l-2.27 13.892-4.943 1.336s-4.675 5.61-5.61 6.945c-.935 1.336-13.223 10.152-16.429 11.888-3.206 1.737-11.487 2.271-11.22 4.675.267 2.271 17.765 4.275 28.985 4.675 11.22.267 17.498-3.339 17.498-3.339l.935 2.271 11.487-.935s-.668-10.82-.267-15.495c.267-4.675-.668-11.22-.668-11.22l-.668-9.617-16.83-5.076z" fill="#263238" stroke="#263238" stroke-miterlimit="10" stroke-linecap="round" stroke-linejoin="round"/><path d="M652.9 370.395s-93.634 11.487-95.504 13.892c-2.004 2.27-.267 70.526-.267 70.526l-10.82 79.876 33.66 10.151s10.553-67.32 14.159-85.486c3.606-18.166 5.209-40.873 5.209-40.873s51.693 11.888 69.458 2.004c17.765-9.885 14.158-22.04 14.158-22.04" fill="#00654D"/><path d="M652.9 370.395s-93.634 11.487-95.504 13.892c-2.004 2.27-.267 70.526-.267 70.526l-10.82 79.876 33.66 10.151s10.553-67.32 14.159-85.486c3.606-18.166 5.209-40.873 5.209-40.873s51.693 11.888 69.458 2.003c17.765-9.884 14.158-22.039 14.158-22.039m-124.088 53.696s4.274-19.101 5.076-29.386m28.317-15.227c-1.202-1.469-2.404-2.805-3.606-3.473m10.552 14.426s-1.87-3.74-4.408-7.48" stroke="#263238" stroke-miterlimit="10" stroke-linecap="round" stroke-linejoin="round"/><path d="M708.332 238.693s-37.267 68.523-45.147 86.021c-7.881 17.498-18.433 41.808-18.433 44.479 0 2.672-6.946 70.125-4.675 71.461 2.271 1.336 36.866-9.884 53.028-16.162 16.162-6.278 16.83-10.819 18.166-14.559 1.335-3.607.935-50.357.935-50.357s33.66-95.504 33.259-99.778c-.267-4.408-37.133-21.105-37.133-21.105z" fill="#00654D" stroke="#263238" stroke-miterlimit="10" stroke-linecap="round" stroke-linejoin="round"/><path d="M680.015 307.883c-6.145 6.011-11.22 10.419-11.22 10.419m51.291-72.129s-15.494 30.321-23.375 42.476c-3.206 4.808-8.148 10.552-13.223 15.628m-12.823-64.381s-16.029 26.847-20.704 42.609c-4.675 15.761-5.61 24.043-5.61 24.043m17.765-28.317l15.227-9.885.668 22.975m16.563 89.76l5.076-.802m-1.603-5.877l-35.931 4.274v7.614l25.646-4.141" stroke="#263238" stroke-miterlimit="10" stroke-linecap="round" stroke-linejoin="round"/><path d="M647.958 250.18s5.877-12.556 8.949-12.823c2.938-.267 9.617 0 9.617 2.671 0 2.672-3.606 2.939-3.606 2.939h-4.943l-2.27 5.877-7.747 1.336z" fill="#fff" stroke="#263238" stroke-miterlimit="10" stroke-linecap="round" stroke-linejoin="round"/><path d="M639.81 273.956l2.27-12.823s.935-11.22 2.672-11.888c1.603-.668 16.83-.267 16.83-.267s.267 13.223-.935 16.429c-1.336 3.339-7.213 4.675-7.213 4.675s-1.336 4.675-2.271 5.877c-.935 1.202-4.675 2.939-4.675 2.939l-.935 2.671-8.548-5.61 2.805-2.003z" fill="#fff" stroke="#263238" stroke-miterlimit="10" stroke-linecap="round" stroke-linejoin="round"/><path d="M653.3 269.948l-1.736-6.278 6.278-.267" fill="#fff"/><path d="M653.3 269.948l-1.736-6.278 6.278-.267" stroke="#263238" stroke-miterlimit="10" stroke-linecap="round" stroke-linejoin="round"/><path d="M636.47 272.887l13.491 9.617-5.209 5.61-11.621-10.552 3.339-4.675z" fill="#fff" stroke="#263238" stroke-miterlimit="10" stroke-linecap="round" stroke-linejoin="round"/><path d="M633.131 277.562l15.494 11.487-29.653 45.148s-4.942 1.335-10.552-.668c-5.61-2.004-10.819-13.224-10.819-14.56 0-1.202 35.53-41.407 35.53-41.407z" fill="#00654D" stroke="#263238" stroke-miterlimit="10" stroke-linecap="round" stroke-linejoin="round"/><path d="M621.243 329.923s-4.942-9.216-5.209-11.888c-.267-2.671-.668-7.881-2.271-9.884-1.603-2.004-3.606-3.34-4.274-6.278-.668-2.939-3.607-1.603-4.007 1.336-.268 2.938 2.27 5.877 2.27 5.877s-8.281-2.672-9.617-2.004c-1.336.668-4.007 1.603-3.339 4.007a34.39 34.39 0 001.603 4.275s-5.21 6.945-5.21 10.151c0 3.339 3.607 8.549 6.278 10.552 2.672 2.004 11.888 4.007 11.888 4.007l11.888-10.151z" fill="#fff" stroke="#263238" stroke-miterlimit="10" stroke-linecap="round" stroke-linejoin="round"/><path d="M716.346 262.068l-29.786 61.978-72.797 4.007s-6.278 1.336-7.613 7.613c-1.336 6.278-.935 9.217-.935 9.217s48.486 5.877 63.58 6.946c15.093.935 33.66 2.938 35.931.667 2.27-2.27 29.653-59.038 29.653-59.038" fill="#00654D"/><path d="M716.346 262.068l-29.786 61.978-72.797 4.007s-6.278 1.336-7.613 7.613c-1.336 6.278-.935 9.217-.935 9.217s48.486 5.877 63.58 6.946c15.093.935 33.66 2.938 35.931.667 2.27-2.27 29.653-59.038 29.653-59.038" stroke="#263238" stroke-miterlimit="10" stroke-linecap="round" stroke-linejoin="round"/><path d="M280.501 443.993h-7.614v73.331h7.614v-73.331zm-46.528-70.265l-13.399 1.566 8.514 72.832 13.399-1.566-8.514-72.832z" fill="#263238" stroke="#263238" stroke-miterlimit="10" stroke-linecap="round" stroke-linejoin="round"/><path d="M286.378 520.397v-12.289H267.01v12.422l-77.338 30.989v14.693h5.343v-11.087l81.88-18.7 79.876 18.7v11.087h5.075v-14.693l-75.468-31.122z" fill="#8C8C8C" stroke="#263238" stroke-miterlimit="10" stroke-linecap="round" stroke-linejoin="round"/><path d="M295.728 443.993H257.66v23.375h38.068v-23.375zM189.672 566.746a8.095 8.095 0 00-8.148-8.148 8.096 8.096 0 00-8.148 8.148 8.096 8.096 0 008.148 8.148c4.542.133 8.148-3.607 8.148-8.148z" fill="#263238" stroke="#263238" stroke-miterlimit="10" stroke-linecap="round" stroke-linejoin="round"/><path d="M184.997 566.746c0-2.004-1.603-3.473-3.473-3.473-2.003 0-3.473 1.603-3.473 3.473 0 2.003 1.603 3.473 3.473 3.473 1.87.133 3.473-1.47 3.473-3.473z" fill="#fff" stroke="#263238" stroke-miterlimit="10" stroke-linecap="round" stroke-linejoin="round"/><path d="M378.944 566.746a8.096 8.096 0 00-8.148-8.148 8.095 8.095 0 00-8.148 8.148 8.095 8.095 0 008.148 8.148 8.096 8.096 0 008.148-8.148z" fill="#263238" stroke="#263238" stroke-miterlimit="10" stroke-linecap="round" stroke-linejoin="round"/><path d="M370.662 570.219a3.473 3.473 0 100-6.946 3.473 3.473 0 000 6.946z" fill="#fff" stroke="#263238" stroke-miterlimit="10" stroke-linecap="round" stroke-linejoin="round"/><path d="M280.234 566.612h-6.545l-3.206-43.945h12.957l-3.206 43.945z" fill="#8C8C8C" stroke="#263238" stroke-miterlimit="10" stroke-linecap="round" stroke-linejoin="round"/><path d="M279.833 557.262h-6.411v18.166h6.411v-18.166z" fill="#263238" stroke="#263238" stroke-miterlimit="10" stroke-linecap="round" stroke-linejoin="round"/><path d="M226.004 410.333c-15.762 1.47-29.787-10.018-31.39-25.913l-8.949-93.366c-1.469-15.762 10.018-29.787 25.913-31.39 15.761-1.469 29.787 10.018 31.389 25.913l8.95 93.367c1.469 15.895-10.152 29.92-25.913 31.389z" fill="#8C8C8C" stroke="#263238" stroke-miterlimit="10" stroke-linecap="round" stroke-linejoin="round"/><path d="M232.816 409.665c-15.762 1.47-29.787-10.018-31.389-25.913l-8.95-93.366c-1.469-15.762 10.018-29.787 25.913-31.39 15.762-1.469 29.787 10.018 31.39 25.913l8.949 93.367c1.469 15.895-10.152 29.92-25.913 31.389zm129.698 41.675l-138.647 3.473c-3.073.133-5.744-2.405-5.878-5.477l-.667-21.505c-.134-3.072 2.404-5.743 5.476-5.877l138.648-3.473c3.072-.133 5.743 2.404 5.877 5.477l.668 21.505c0 3.205-2.405 5.877-5.477 5.877z" fill="#8C8C8C" stroke="#263238" stroke-miterlimit="10" stroke-linecap="round" stroke-linejoin="round"/><path d="M301.739 452.409l-78.006 2.404c-3.072.133-5.744-2.404-5.877-5.477l-.668-21.505c-.134-3.072 2.404-5.743 5.476-5.877l78.007-2.404c3.072-.134 5.743 2.404 5.877 5.476l.668 21.505c.133 3.206-2.271 5.878-5.477 5.878z" fill="#8C8C8C" stroke="#263238" stroke-miterlimit="10" stroke-linecap="round" stroke-linejoin="round"/><path d="M380.146 407.662s1.202 22.974 4.408 43.411c3.205 20.57 8.415 82.814 8.415 82.814s2.805 10.686 6.678 18.166c4.008 7.48 7.08 10.686 7.08 10.686s10.285 10.285 9.884 11.888c-.401 1.602-6.812 1.469-13.224.267-6.278-1.202-7.613-2.672-11.22-5.076-3.606-2.404-11.62-5.476-15.227-6.679-3.606-1.202-4.675-4.274-3.473-7.88 1.202-3.607 5.076-11.888 5.076-16.964 0-5.076-3.206-29.519-11.888-45.682-8.682-16.162-13.758-44.212-13.758-44.212l27.249-40.739z" fill="#fff" stroke="#263238" stroke-miterlimit="10" stroke-linecap="round" stroke-linejoin="round"/><path d="M382.283 556.461a108.316 108.316 0 01-6.812-5.878c-.802 1.871-1.469 3.607-1.87 4.809-1.202 3.607 0 6.679 3.473 7.881 3.606 1.202 11.62 4.274 15.227 6.678 3.606 2.405 4.808 3.874 11.22 5.076 6.278 1.202 12.823 1.336 13.224-.267.4-1.603-9.885-11.888-9.885-11.888l-5.076 2.404c-.133-.133-12.422-3.339-19.501-8.815z" fill="#00654D" stroke="#263238" stroke-miterlimit="10" stroke-linecap="round" stroke-linejoin="round"/><path d="M228.675 360.644s-3.606 13.892-1.603 22.707c2.004 8.683 15.228 29.119 38.202 33.928 22.974 4.808 80.677 3.339 80.677 3.339s-13.891 21.104-19.1 46.617c-3.473 16.83-13.892 40.472-15.495 43.945-1.603 3.606-20.703 10.018-20.035 12.956.667 2.939 2.938 20.971 7.747 28.451 4.808 7.48 12.956 10.686 16.162 11.621 3.206.935 3.873.935 3.873-2.271s-2.27-7.747-2.27-10.686c0-2.938-.267-22.707.935-25.245 1.335-2.538 43.678-69.19 50.223-80.277 6.411-10.952 16.563-32.324 19.368-35.93 2.938-3.607 6.411-8.415 3.606-14.56-2.938-6.144-69.724-26.714-69.724-26.714l-3.473-12.422-33.393-2.004-55.7 6.545z" fill="#fff" stroke="#263238" stroke-miterlimit="10" stroke-linecap="round" stroke-linejoin="round"/><path d="M321.107 368.525l-3.473-12.422-33.393-2.004-55.699 6.412s-3.607 13.891-1.603 22.707c3.205 13.891 15.227 29.119 38.201 33.927 22.975 4.809 80.678 3.339 80.678 3.339s5.476-27.382 16.162-38.068c-12.823-4.14-40.873-13.891-40.873-13.891z" fill="#263238" stroke="#263238" stroke-miterlimit="10" stroke-linecap="round" stroke-linejoin="round"/><path d="M345.951 420.484s12.556-3.205 22.307-8.415l-22.307 8.415z" fill="#fff"/><path d="M345.951 420.484s12.556-3.205 22.307-8.415" stroke="#263238" stroke-miterlimit="10" stroke-linecap="round" stroke-linejoin="round"/><path d="M302.273 539.631c-2.27-5.343-2.137-16.029-1.87-21.773-4.942 2.405-9.483 4.809-9.083 6.145.668 2.938 2.939 20.971 7.748 28.451 4.808 7.48 12.956 10.685 16.162 11.62 3.206.935 3.873.935 3.873-2.27 0-3.206-2.27-7.748-2.27-10.686-4.141-.401-10.018-2.004-10.018-2.004s-1.336-2.003-4.542-9.483z" fill="#00654D" stroke="#263238" stroke-miterlimit="10" stroke-linecap="round" stroke-linejoin="round"/><path d="M297.598 232.549l-10.018 4.141s8.148 75.735 7.748 86.421c-.268 10.685-.935 32.057-.935 32.057s13.891 4.141 23.241.935l-.668-36.599s6.812-34.996 4.141-46.216c-2.538-11.353-10.686-31.389-10.686-31.389s-3.74-9.083-12.823-9.35z" fill="#fff" stroke="#263238" stroke-miterlimit="10" stroke-linecap="round" stroke-linejoin="round"/><path d="M294.66 265.14l9.75-14.826 12.022 17.364s-5.209-24.31-5.877-25.913c-.668-1.603-2.939-4.809-6.812-7.48-3.874-2.538-8.415-2.671-10.953-2.939-2.538-.267-5.21 5.21-5.21 5.21l7.08 28.584z" fill="#fff" stroke="#263238" stroke-miterlimit="10" stroke-linecap="round" stroke-linejoin="round"/><path d="M290.118 231.347s-32.591 7.079-35.263 9.083c-2.805 2.003-4.007 8.682-3.339 11.22.801 2.537 8.148 57.436 8.148 57.436l-37.4 54.63s12.155 10.152 23.642 12.155c11.487 2.004 35.797-1.068 44.479-4.541l8.683-3.606s4.007-66.386-.268-92.566c-4.274-26.18-8.682-43.811-8.682-43.811z" fill="#00654D" stroke="#263238" stroke-miterlimit="10" stroke-linecap="round" stroke-linejoin="round"/><path d="M390.03 315.63l12.689-5.61s3.874-8.415 4.275-9.083c.534-.801 4.808-2.003 6.812-3.873 2.004-1.737 4.809-4.809 5.61-5.076.801-.267 2.004 2.004 0 5.076-2.004 3.072-5.343 5.877-5.343 5.877l12.422-4.541s4.809-8.148 6.145-4.542c1.335 3.607-5.343 14.426-6.813 18.032-1.469 3.607-3.072 5.343-5.877 5.877-2.805.535-11.487 2.004-13.223 2.271-1.737.267-12.69 6.545-12.69 6.545l-4.007-10.953z" fill="#fff" stroke="#263238" stroke-miterlimit="10" stroke-linecap="round" stroke-linejoin="round"/><path d="M407.662 313.093c2.27-1.87 4.808-3.874 6.277-3.874 2.805 0 8.95.534 8.95.534s3.606-8.148 5.343-9.35c1.736-1.335 3.339.535 1.736 3.072" fill="#fff"/><path d="M407.662 313.093c2.27-1.87 4.808-3.874 6.277-3.874 2.805 0 8.95.534 8.95.534s3.606-8.148 5.343-9.35c1.736-1.335 3.339.535 1.736 3.072" stroke="#263238" stroke-miterlimit="10" stroke-linecap="round" stroke-linejoin="round"/><path d="M307.216 237.357s8.147 35.263 7.88 48.487c-.267 13.224-4.274 19.769-3.606 24.444.801 4.541 2.538 57.97 2.538 57.97l7.079.267s-1.736-20.303-1.469-24.176c.267-3.874 2.805-19.101 2.805-19.101s12.689 25.111 14.425 26.447c1.737 1.336 60.776-23.909 60.776-23.909l-4.275-14.426-45.013 9.083s-8.95-29.52-10.152-35.798c-1.336-6.411-2.271-28.718-5.877-34.328-3.606-5.476-25.111-14.96-25.111-14.96z" fill="#00654D" stroke="#263238" stroke-miterlimit="10" stroke-linecap="round" stroke-linejoin="round"/><path d="M322.443 325.382s1.469-6.412 4.007-23.108c2.538-16.83.267-30.188.267-30.188m-7.079-14.826c1.202 9.083 2.137 20.436.534 26.714-3.072 11.754-7.079 20.837-7.079 20.837m4.274-61.843s.801 3.873 1.603 9.35m-25.913 40.071a528.342 528.342 0 016.278 16.162m-21.639-73.197s5.877 35.797 10.419 45.548c.935 2.003 2.003 4.274 2.938 6.678" stroke="#263238" stroke-miterlimit="10" stroke-linecap="round" stroke-linejoin="round"/><path d="M349.825 308.017l9.884-2.805s6.412-8.148 7.881-10.152c1.469-2.003 5.076-2.003 7.614-3.606 2.538-1.469 5.877-7.079 7.079-6.144 1.336 1.068 0 5.61-1.336 6.812-1.335 1.335-4.274 3.072-5.343 3.873-1.068.802 11.888-2.27 11.888-2.27s8.415-7.347 8.95-5.343c.534 2.003-3.874 9.083-3.874 9.083s-6.144 5.877-9.083 8.415c-3.072 2.538-10.418 3.606-12.422 4.007-2.004.534-5.61 1.068-5.61 1.068l-15.227 5.61-.401-8.548z" fill="#fff" stroke="#263238" stroke-miterlimit="10" stroke-linecap="round" stroke-linejoin="round"/><path d="M390.832 299.201s-5.343 2.538-8.148 3.874l8.148-3.874z" fill="#fff"/><path d="M390.832 299.201s-5.343 2.538-8.148 3.874m-6.946-6.946l-4.542.935" stroke="#263238" stroke-miterlimit="10" stroke-linecap="round" stroke-linejoin="round"/><path d="M260.465 238.426s-14.96 5.076-17.23 8.949c-2.271 3.874 5.877 35.13 11.887 52.36 6.011 17.231 22.307 46.216 24.444 47.285 2.004 1.068 55.165-17.765 67.32-21.639 12.155-3.873 14.293-5.877 14.293-5.877l-5.343-13.758-61.043 10.953-18.833-58.638" fill="#00654D"/><path d="M260.465 238.426s-14.96 5.076-17.23 8.949c-2.271 3.874 5.877 35.13 11.887 52.36 6.011 17.231 22.307 46.216 24.444 47.285 2.004 1.068 55.165-17.765 67.32-21.639 12.155-3.873 14.293-5.877 14.293-5.877l-5.343-13.758-61.043 10.953-18.833-58.638" stroke="#263238" stroke-miterlimit="10" stroke-linecap="round" stroke-linejoin="round"/><path d="M334.064 161.088s5.877 4.007 2.938 8.282c-3.072 4.274-9.35 4.675-9.35 4.675l-5.61-8.682c0-.134 6.679-8.015 12.022-4.275z" fill="#263238" stroke="#263238" stroke-miterlimit="10" stroke-linecap="round" stroke-linejoin="round"/><path d="M327.786 166.297s9.083 21.639 8.548 23.509c-.534 1.87-4.675 4.808-2.805 7.613 1.87 2.806 7.614 8.416 7.48 9.217-.133.801-7.079 4.809-7.079 4.809s-4.809 17.364-6.812 19.902c-2.004 2.538-18.567-.535-18.567-.535l-3.473 19.502-19.635-18.299-7.346-6.946s-6.545-29.653 7.346-47.418c14.025-18.032 42.343-11.354 42.343-11.354z" fill="#fff" stroke="#263238" stroke-miterlimit="10" stroke-linecap="round" stroke-linejoin="round"/><path d="M326.584 196.618c0 1.87-.802 3.339-1.603 3.339-.802 0-1.47-1.469-1.47-3.339 0-1.87.802-3.34 1.603-3.34.802 0 1.47 1.603 1.47 3.34z" fill="#263238"/><path d="M326.584 215.585c-5.744-.534-8.282-4.007-8.282-4.007s-.534 7.881 2.004 8.282c2.404.534 6.278-4.275 6.278-4.275z" fill="#263238" stroke="#263238" stroke-miterlimit="10" stroke-linecap="round" stroke-linejoin="round"/><path d="M321.508 189.405s5.075-4.274 9.617.802" stroke="#263238" stroke-miterlimit="10" stroke-linecap="round" stroke-linejoin="round"/><path d="M308.685 230.679l-8.282-2.003 6.145 11.487 2.137-9.484zm19.101-64.382s-1.737 5.61-10.553 12.957c-8.682 7.346-16.562 12.021-16.562 14.025 0 2.003 1.335 3.873-.401 4.408-1.737.534-4.141-.668-4.141-.668s-4.274 12.155-4.942 20.703c-.668 8.549 2.538 16.563 2.538 16.563s-18.834 1.069-29.653-7.213c-10.82-8.281-13.892-17.631-12.69-25.645 1.203-8.148 4.675-33.661 21.372-46.216 16.696-12.556 40.739-11.888 48.754-6.946 8.148 5.076 14.025 8.816 12.555 12.956-1.469 3.874-6.277 5.076-6.277 5.076z" fill="#263238" stroke="#263238" stroke-miterlimit="10" stroke-linecap="round" stroke-linejoin="round"/><path d="M288.382 421.42c-.534 0-.935-.134-1.469-.268-1.87-.935-2.805-3.339-2.004-5.61 6.011-16.429 12.957-45.948 5.877-54.631-1.603-1.335-11.621-4.007-65.316 1.603-1.87.134-3.206.267-3.874.401-3.74.267-6.946 5.744-7.747 7.614-.935 2.137-3.206 2.938-5.076 1.87-1.87-1.069-2.538-3.607-1.736-5.744.534-1.202 5.342-11.487 13.891-12.289.668 0 2.004-.133 3.74-.4 57.302-6.011 68.255-2.939 71.595 1.202 12.555 15.628-2.672 58.772-4.408 63.714-.668 1.469-2.004 2.538-3.473 2.538z" fill="#fff" stroke="#263238" stroke-miterlimit="10" stroke-linecap="round" stroke-linejoin="round"/><path d="M524.404 295.862h-87.757l-20.303 68.789h87.757l20.303-68.789z" fill="#D9D9D9" stroke="#263238" stroke-miterlimit="10" stroke-linecap="round" stroke-linejoin="round"/><path d="M352.229 360.778l-1.202 3.873h153.074l1.202-3.873H352.229z" fill="#D9D9D9" stroke="#263238" stroke-miterlimit="10" stroke-linecap="round" stroke-linejoin="round"/><path d="M417.68 360.778l-1.203 3.873h87.624l1.202-3.873H417.68z" fill="#263238" stroke="#263238" stroke-miterlimit="10" stroke-linecap="round" stroke-linejoin="round"/><path d="M502.898 374.937h-14.826v198.621h14.826V374.937z" fill="#fff" stroke="#263238" stroke-miterlimit="10" stroke-linecap="round" stroke-linejoin="round"/><path d="M502.898 374.937h-14.826v32.858h14.826v-32.858z" fill="#263238" stroke="#263238" stroke-miterlimit="10" stroke-linecap="round" stroke-linejoin="round"/><path d="M683.354 364.651H306.28v11.087h377.074v-11.087zm-110.33 210.51h-156.28c15.495-7.213 32.325-11.087 49.422-11.087h57.436c17.097 0 33.927 3.74 49.422 11.087z" fill="#fff" stroke="#263238" stroke-miterlimit="10" stroke-linecap="round" stroke-linejoin="round"/></g><defs><clipPath id="clip0_44_606"><path fill="#fff" d="M0 0h933v619.774H0z"/></clipPath></defs></svg>