<svg xmlns="http://www.w3.org/2000/svg" width="591.48" height="652.57"><defs><clipPath id="a"><path d="M149.18 198.71c26.59-50.25 15.73-90.19 55.42-120.35 16.28-12.36 32.32-16.45 42.76-19 65.81-16.07 125.85 22.7 152 39.59 19.21 12.4 90.7 58.55 110.84 137.76 8.76 34.43 1.34 49.62 17.42 98.18 11.71 35.34 21.23 44.18 25.34 72.84 1.3 9.08 6 47.43-11.09 87.1-20.25 47.1-68.91 90.88-123.51 96.59-60.5 6.33-87.91-38.29-178.94-50.67a405.57 405.57 0 00-68.09-3.17c-33.48 1.82-38.36 7.12-53.84 6.34-44.62-2.26-88.73-50.64-102.93-99.76-19-65.7 18.09-123.74 30.09-142.52 39.66-62.06 73.62-44.51 104.53-102.93z" fill="#c4c4c4"/></clipPath><clipPath id="b"><path d="M286.13 428.59l-122.23.19a7.52 7.52 0 01-7.52-7.52h0a7.5 7.5 0 018-7.49L286.34 422a3.29 3.29 0 013.07 3.39h0a3.29 3.29 0 01-3.28 3.2z" fill="#00654d" stroke="#262626" stroke-miterlimit="10"/></clipPath><clipPath id="c"><path d="M361.75 308.56L465.62 373a7.53 7.53 0 0010.38-2.46h0a7.52 7.52 0 00-2.89-10.6L365 302.86a3.28 3.28 0 00-4.39 1.27h0a3.29 3.29 0 001.14 4.43z" fill="#00654d" stroke="#262626" stroke-miterlimit="10"/></clipPath><clipPath id="d"><path d="M241.11 253.63l.19-122.23a7.52 7.52 0 00-7.52-7.52h0a7.52 7.52 0 00-7.5 8l8.26 122a3.29 3.29 0 003.39 3.06h0a3.29 3.29 0 003.18-3.31z" fill="#00654d" stroke="#262626" stroke-miterlimit="10"/></clipPath></defs><g data-name="Слой 2"><g data-name="Слой 1"><path d="M149.18 198.71c26.59-50.25 15.73-90.19 55.42-120.35 16.28-12.36 32.32-16.45 42.76-19 65.81-16.07 125.85 22.7 152 39.59 19.21 12.4 90.7 58.55 110.84 137.76 8.76 34.43 1.34 49.62 17.42 98.18 11.71 35.34 21.23 44.18 25.34 72.84 1.3 9.08 6 47.43-11.09 87.1-20.25 47.1-68.91 90.88-123.51 96.59-60.5 6.33-87.91-38.29-178.94-50.67a405.57 405.57 0 00-68.09-3.17c-33.48 1.82-38.36 7.12-53.84 6.34-44.62-2.26-88.73-50.64-102.93-99.76-19-65.7 18.09-123.74 30.09-142.52 39.66-62.06 73.62-44.51 104.53-102.93z" fill="#c4c4c4"/><g clip-path="url(#a)" stroke="#ebebeb" stroke-miterlimit="10"><path d="M375.83 520.94s-7 28.4 2.32 45.21 23.18 38.83 26.08 52.74 5.21 33.62 5.21 33.62M460.45 525s-16.81 17.39-19.71 38.83-4.63 65.5-17.39 86.36" fill="none"/><path d="M386.53 507c-.87 4.89-7.28 15.48-10.9 14.83s-3.1-12.3-2.22-17.18 4.52-8.32 8.15-7.67 5.85 5.1 4.97 10.02zm4.02 30.58c-3.68 2.89-14.82 6.34-17 3.62s5.52-10.6 9.19-13.49 8.39-3 10.54-.3.94 7.28-2.73 10.17zm23.87 65.17c-3 3.54-13.3 9.08-15.94 6.82s3.37-11.46 6.42-15 7.64-4.59 10.27-2.33 2.3 6.96-.75 10.51zm-11.3-22.61c-3 3.55-13.31 9.09-15.94 6.83s3.37-11.46 6.41-15 7.65-4.59 10.28-2.33 2.3 6.96-.75 10.5zm-9.56-23.04c-3.05 3.55-13.31 9.09-15.94 6.83s3.36-11.46 6.41-15 7.65-4.59 10.28-2.33 2.29 6.96-.75 10.5zm83.03-37.38c-3 3.55-13.31 9.09-15.94 6.83s3.36-11.47 6.41-15 7.65-4.59 10.28-2.33 2.29 6.95-.75 10.5zm-56.93 103.37c-1.53 4.41-9 13.34-12.31 12.21s-1.09-11.9.44-16.32 5.42-7.08 8.7-6 4.7 5.69 3.17 10.11zm27.43 14.33c-4.41 1.53-16.07 1.14-17.2-2.14s8.68-8.2 13.1-9.73 8.92-.1 10.05 3.18-1.53 7.17-5.95 8.69zm6.09-23.9c-4.42 1.52-16.07 1.13-17.21-2.15s8.69-8.2 13.11-9.72 8.92-.11 10.05 3.17-1.53 7.18-5.95 8.7zm3.48-24.78c-4.42 1.52-16.08 1.13-17.21-2.15s8.69-8.2 13.11-9.72 8.91-.11 10.05 3.17-1.53 7.17-5.95 8.7zm1.74-23.48c-4.42 1.53-16.08 1.14-17.21-2.14s8.69-8.2 13.11-9.73 8.91-.1 10.05 3.17-1.53 7.18-5.95 8.7zm7.39-19.56c-4.42 1.53-16.08 1.14-17.21-2.14s8.69-8.2 13.11-9.73 8.91-.11 10.05 3.17-1.54 7.18-5.95 8.7z" fill="#ebebeb"/><path d="M448 523.46c2.29 4.08 4 15.62.94 17.31s-9.61-7.1-11.9-11.17-1.68-8.76 1.35-10.46 7.37.24 9.61 4.32zm-11.9 22.04c3 3.61 6.65 14.67 4 16.88s-10.72-5.29-13.68-8.91-3.21-8.32-.53-10.52 7.24-1.06 10.21 2.55zm-6.1 51.73c3 3.61 6.66 14.67 4 16.88s-10.71-5.3-13.68-8.91-3.2-8.32-.52-10.52 7.25-1.06 10.2 2.55zm-4.77 23.91c3 3.61 6.66 14.67 4 16.87s-10.71-5.29-13.68-8.9-3.2-8.32-.52-10.52 7.23-1.06 10.2 2.55zm-60.17-94.35c3.84 2.67 10.38 12.33 8.4 15.17s-11.74-2.19-15.58-4.87-5.33-7.14-3.35-10 6.7-2.97 10.53-.3zM363.87 553c4.43 1.48 13.45 8.88 12.35 12.17s-11.88 1.23-16.32-.25-7.14-5.34-6-8.63 5.53-4.79 9.97-3.29zm12.61 23c4.43 1.48 13.44 8.88 12.35 12.17s-11.89 1.23-16.32-.25-7.14-5.34-6.05-8.63 5.54-4.75 10.02-3.29zm11.73 23.92c4.44 1.48 13.45 8.88 12.35 12.17s-11.88 1.22-16.31-.25-7.15-5.34-6.05-8.63 5.58-4.77 10.01-3.29zm6.52 23.91c4.44 1.48 13.45 8.88 12.35 12.17s-11.88 1.22-16.31-.25-7.15-5.34-6-8.64 5.53-4.76 9.96-3.28zm37.37-52.78c3.29 3.33 8 14 5.49 16.45s-11.15-4.3-14.43-7.63-3.94-8-1.47-10.43 7.13-1.71 10.41 1.61z" fill="#ebebeb"/><path d="M32.82 391.49s-7 28.4 2.31 45.21 23.19 38.84 26.09 52.75 5.21 33.61 5.21 33.61m51.01-127.51s-16.81 17.39-19.71 38.83-4.64 65.5-17.39 86.36" fill="none"/><path d="M43.52 377.51c-.88 4.89-7.28 15.48-10.9 14.83s-3.1-12.29-2.22-17.18 4.52-8.31 8.14-7.67 5.85 5.14 4.98 10.02zm4.01 30.62c-3.67 2.89-14.81 6.34-17 3.62s5.52-10.6 9.19-13.49 8.39-3 10.53-.3.96 7.28-2.72 10.17zm23.88 65.17c-3 3.55-13.31 9.09-15.94 6.83s3.37-11.47 6.41-15 7.65-4.59 10.28-2.33 2.3 6.95-.75 10.5zm-11.3-22.6c-3 3.54-13.31 9.08-15.94 6.82s3.37-11.46 6.41-15 7.65-4.59 10.28-2.33 2.3 6.96-.75 10.51zm-9.56-23.04c-3 3.54-13.31 9.08-15.94 6.82S38 423 41 419.47s7.65-4.59 10.28-2.33 2.31 6.97-.73 10.52zm83.03-37.39c-3.05 3.55-13.31 9.09-15.94 6.83s3.36-11.46 6.41-15 7.64-4.59 10.28-2.33 2.29 6.96-.75 10.5zM76.65 493.64c-1.53 4.42-9 13.34-12.31 12.21s-1.09-11.9.44-16.32 5.42-7.08 8.7-5.94 4.69 5.63 3.17 10.05zM104.08 508c-4.42 1.52-16.07 1.13-17.2-2.15s8.68-8.2 13.1-9.72 8.92-.11 10 3.17-1.48 7.15-5.9 8.7zm6.09-23.93c-4.42 1.52-16.07 1.13-17.21-2.15s8.69-8.2 13.11-9.72 8.92-.11 10.05 3.17-1.53 7.17-5.95 8.7zm3.48-24.78c-4.42 1.53-16.08 1.13-17.21-2.14s8.69-8.2 13.1-9.73 8.92-.11 10.06 3.17-1.54 7.17-5.95 8.7zm1.74-23.47c-4.42 1.52-16.08 1.13-17.21-2.15s8.69-8.2 13.1-9.73 8.92-.1 10 3.18-1.48 7.17-5.89 8.7zm7.39-19.57c-4.42 1.53-16.08 1.14-17.21-2.14s8.69-8.2 13.1-9.73 8.92-.1 10 3.17-1.48 7.18-5.89 8.7z" fill="#ebebeb"/><path d="M105 394c2.28 4.08 4 15.62.94 17.31s-9.61-7.09-11.9-11.17-1.68-8.76 1.34-10.46 7.36.25 9.62 4.32zm-11.91 22.05c3 3.61 6.65 14.68 4 16.88s-10.71-5.29-13.67-8.9-3.21-8.33-.53-10.53 7.23-1.06 10.2 2.55zM87 467.78c3 3.61 6.66 14.68 4 16.88s-10.71-5.29-13.68-8.91-3.2-8.32-.52-10.52 7.2-1.06 10.2 2.55zm-4.78 23.91c3 3.61 6.66 14.67 4 16.88s-10.71-5.3-13.68-8.91-3.2-8.32-.52-10.52 7.23-1.06 10.2 2.55zm-60.17-94.35c3.84 2.67 10.38 12.33 8.4 15.17s-11.74-2.19-15.58-4.87-5.34-7.14-3.35-10 6.7-2.97 10.53-.3zm-1.19 26.19c4.43 1.47 13.45 8.87 12.35 12.16s-11.88 1.23-16.32-.25-7.14-5.34-6.05-8.63 5.58-4.76 10.02-3.28zm12.6 23.03c4.44 1.48 13.45 8.88 12.36 12.17s-11.89 1.27-16.32-.25-7.15-5.34-6.05-8.63 5.55-4.76 10.01-3.29zm11.74 23.91c4.44 1.48 13.45 8.88 12.35 12.17s-11.88 1.23-16.32-.25-7.14-5.34-6-8.63 5.54-4.76 9.97-3.29zm6.52 23.91c4.44 1.48 13.45 8.88 12.35 12.17s-11.88 1.22-16.32-.25-7.14-5.34-6-8.63 5.54-4.77 9.97-3.29zm37.37-52.77c3.29 3.32 8 14 5.49 16.45s-11.15-4.31-14.43-7.63-3.94-8-1.47-10.44 7.13-1.71 10.41 1.62z" fill="#ebebeb"/></g><path d="M389.53 371.1a37.35 37.35 0 0110.38-26.1v-50.46A13 13 0 00393 283c-11.83-6.11-39.73-16.66-91.35-16.66-51.16 0-78.21 10.36-89.73 16.49a13 13 0 00-7 11.51v46.45a37.64 37.64 0 010 60.57v38.5a55.72 55.72 0 0044.17 54.52c14.77 3.13 29.55 5.74 37.76 5.74 4.23 0 16.93 16.25 16.93 16.25s12.29-16.25 16.39-16.25c7.82 0 21.79-2.51 35.87-5.55a55.67 55.67 0 0043.87-54.45v-43a37.37 37.37 0 01-10.38-26.02z" fill="#ebebeb" stroke="#262626" stroke-miterlimit="10"/><path d="M346.11 359.22c0-12.29 4.78-28.48 4.78-28.48l-40.28 19.87 19.6-39.73s-16.73 4.78-28.75 4.78c-12.29 0-28.48-4.78-28.48-4.78l19.08 38.66-38.12-18.8s4.78 16.74 4.78 28.75c0 12.29-4.78 28.48-4.78 28.48l38.12-18.8L273 407.83s16.74-4.78 28.75-4.78c12.29 0 28.48 4.78 28.48 4.78l-19.6-39.73 40.26 19.9s-4.78-16.77-4.78-28.78z" fill="#262626"/><path d="M363.25 356.67a61.9 61.9 0 01.41 7 61.25 61.25 0 01-122.49 0 61.9 61.9 0 01.41-7 68.83 68.83 0 10121.67 0z" fill="#fbc469" stroke="#262626" stroke-miterlimit="10"/><path fill="none" stroke="#262626" stroke-miterlimit="10" d="M242.2 265.55l-3.25-11.22"/><path d="M107.15 451.12s41.51-46.43 44.24-50.25 21.3-9.84 26.22-10.93 18.57-11.47 23.49-14.75 15.84-9.28 28.94 0 24.58 26.22 25.13 28.95 3.28 14.75 1.64 16.93a18.26 18.26 0 00-2.46 5.74s2.73 9.29 3 12.29.82 8.19-2.45 9.28-9.29-3.27-9.29-3.27 3.28 7.1.55 9.28-1.91 5.46-7.1 2.19l-5.19-3.28a30.16 30.16 0 01-1.09 7.37c-1.1 3.83-4.1 4.1-5.47 2.73a24.81 24.81 0 00-4.37-3s-19.94 10.38-34.41 12.84-23.48 12.56-25.67 13.92-37.14 18.58-41.51 16.94-14.2-52.98-14.2-52.98z" fill="#fff" stroke="#262626" stroke-miterlimit="10"/><path d="M209 437.8s-2.87-15.16-19.87-7.58" fill="none" stroke="#262626" stroke-miterlimit="10"/><path d="M288.21 422.61l4.79 2.29a.77.77 0 01-.15 1.5l-4.64 1.81z" fill="#262626"/><path d="M286.13 428.59l-122.23.19a7.52 7.52 0 01-7.52-7.52 7.5 7.5 0 018-7.49L286.34 422a3.29 3.29 0 013.07 3.39 3.29 3.29 0 01-3.28 3.2z" fill="#00654d"/><g clip-path="url(#b)"><path d="M203.55 408.24s15 13.38.82 27.58-53.52 2.18-53.52 2.18l-1.1-36.33z" fill="#fbc469" stroke="#262626" stroke-miterlimit="10"/></g><path d="M286.13 428.59l-122.23.19a7.52 7.52 0 01-7.52-7.52h0a7.5 7.5 0 018-7.49L286.34 422a3.29 3.29 0 013.07 3.39h0a3.29 3.29 0 01-3.28 3.2z" fill="none" stroke="#262626" stroke-miterlimit="10"/><path d="M188.74 429.2s1 5.94 5.53 8.4 8.4 3.48 13.93 1 24.78-12.9 30.72-14.13 11.27-2.66 13.93 3.48-4.51 11.27-5.53 12.29-14.54 12.49-16.59 14.34-12.91 8.43-13.52 8.63" fill="#fff" stroke="#262626" stroke-miterlimit="10"/><path d="M189.76 415.07s10.24-9 12.09-10.24 13.31-10 17-10 7.78-.21 14.13 7.17 13.31 17 13.31 17" fill="none" stroke="#262626" stroke-miterlimit="10"/><path d="M226.43 417.73s-2.67-7.37-6.15-9-8-6.15-17.41-4.1m17.62 27.44l-2.87-3.08m17.61-1.33s9.32.41 9 13" fill="none" stroke="#262626" stroke-miterlimit="10"/><path d="M93.9 452.34s7.79-7 12.7.82 8.61 47.11 13.93 52.85-10.24 7.37-13.11 8.19-13.52-61.86-13.52-61.86z" fill="#fff" stroke="#262626" stroke-miterlimit="10"/><path d="M.51 463.81l87.25-13.1s4.51-2.87 6.55 5.73 10.25 51.62 13.11 57.76l1.74.1s2.15 7.17-2.66 9.22S1.73 566.64 1.73 566.64z" fill="#00654d" stroke="#262626" stroke-miterlimit="10"/><path d="M502.16 421.81s-10.91-61.32-11.22-66-12.94-19.57-16.56-23.08-9.77-19.52-12.23-24.89-8.59-16.23-24.62-15.22S402.84 302 400.94 304s-10.54 10.82-10.3 13.54a18.12 18.12 0 01-.92 6.17s-7.21 6.46-9 8.87-5 6.54-2.79 9.19 9.62 2.1 9.62 2.1-6.52 4.32-5.34 7.61-1.25 5.65 4.89 5.59l6.13-.06a30.25 30.25 0 00-2.94 6.85c-1.08 3.82 1.33 5.64 3.21 5.19a25.06 25.06 0 015.29-.26s11.51 19.31 22.53 29 13.37 23 14.52 25.35 21.83 35.32 26.41 36.22 39.91-37.55 39.91-37.55z" fill="#fff" stroke="#262626" stroke-miterlimit="10"/><path d="M422.5 356.93s10.41-11.38 20.89 4" fill="none" stroke="#262626" stroke-miterlimit="10"/><path d="M363.12 302.37l-5.25-.55a.78.78 0 00-.67 1.36l3 4z" fill="#262626"/><path d="M361.75 308.56L465.62 373a7.53 7.53 0 0010.38-2.46 7.52 7.52 0 00-2.89-10.6L365 302.86a3.28 3.28 0 00-4.39 1.27 3.29 3.29 0 001.14 4.43z" fill="#00654d"/><g clip-path="url(#c)"><path d="M442.69 334.65s-19.81 3.49-15.2 23 44.39 30 44.39 30l20-30.33z" fill="#fbc469" stroke="#262626" stroke-miterlimit="10"/></g><path d="M361.75 308.56L465.62 373a7.53 7.53 0 0010.38-2.46h0a7.52 7.52 0 00-2.89-10.6L365 302.86a3.28 3.28 0 00-4.39 1.27h0a3.29 3.29 0 001.14 4.43z" fill="none" stroke="#262626" stroke-miterlimit="10"/><path d="M444.28 360.27s-4 4.52-9.12 4.24-9-1.45-12.39-6.45-14.3-24-18.71-28.17-8.18-8.19-13.68-4.36-2.08 12-1.75 13.36 5.8 18.27 6.57 20.92 6.55 13.95 7 14.45" fill="#fff" stroke="#262626" stroke-miterlimit="10"/><path d="M450.83 347.71s-4-13-4.89-15.06-6.05-15.54-9.19-17.48-6.51-4.26-15.79-1.33-20.26 7.46-20.26 7.46" fill="none" stroke="#262626" stroke-miterlimit="10"/><path d="M418.25 330.7s6.14-4.87 10-4.43 10-1 17 5.67m-29.49 14.08l4.06-1.1m-14.29-10.4s-8.14-4.55-14.5 6.33" fill="none" stroke="#262626" stroke-miterlimit="10"/><path d="M512.78 429.82s-3-10-11.23-6-32.09 35.55-39.63 37.63 4.83 11.65 6.84 13.86 44.02-45.49 44.02-45.49z" fill="#fff" stroke="#262626" stroke-miterlimit="10"/><path d="M590.81 515.84l-71.94-84.19s-2.33-4.81-8.59 1.43-35.85 38.53-41.52 42.25l-1.53-.83s-5.6 5-2.58 9.24 59.49 101 59.49 101z" fill="#00654d" stroke="#262626" stroke-miterlimit="10"/><path d="M263.63 74.65s-46.42 41.51-50.25 44.24-9.83 21.3-10.92 26.22-11.46 18.57-14.75 23.49-9.28 15.84 0 29 26.22 24.57 28.95 25.12 14.75 3.28 16.93 1.64a18.26 18.26 0 015.74-2.46s9.28 2.73 12.29 3 8.19.82 9.28-2.45-3.27-9.29-3.27-9.29 7.1 3.28 9.28.55 5.46-1.91 2.19-7.1l-3.28-5.19a30.16 30.16 0 007.37-1.09c3.83-1.1 4.1-4.1 2.73-5.47a24.81 24.81 0 01-3-4.37s10.38-19.98 12.83-34.49 12.57-23.48 13.93-25.67 18.57-37.14 16.94-41.51-52.99-14.17-52.99-14.17z" fill="#fff" stroke="#262626" stroke-miterlimit="10"/><path d="M250.32 176.52s-15.16-2.87-7.58-19.87" fill="none" stroke="#262626" stroke-miterlimit="10"/><path d="M235.13 255.71l2.29 4.76a.77.77 0 001.5-.15l1.81-4.64z" fill="#262626"/><path d="M241.11 253.63l.19-122.23a7.52 7.52 0 00-7.52-7.52 7.52 7.52 0 00-7.5 8l8.26 122a3.29 3.29 0 003.39 3.06 3.29 3.29 0 003.18-3.31z" fill="#00654d"/><g clip-path="url(#d)"><path d="M220.76 171.05s13.38 15 27.58.82 2.19-53.52 2.19-53.52l-36.33-1.1z" fill="#fbc469" stroke="#262626" stroke-miterlimit="10"/></g><path d="M241.11 253.63l.19-122.23a7.52 7.52 0 00-7.52-7.52h0a7.52 7.52 0 00-7.5 8l8.26 122a3.29 3.29 0 003.39 3.06h0a3.29 3.29 0 003.18-3.31z" fill="none" stroke="#262626" stroke-miterlimit="10"/><path d="M241.72 156.24s5.94 1 8.4 5.53 3.48 8.4 1 13.93-12.9 24.78-14.13 30.72-2.67 11.27 3.48 13.93 11.26-4.51 12.29-5.53 12.49-14.54 14.34-16.59 8.43-12.91 8.63-13.52" fill="#fff" stroke="#262626" stroke-miterlimit="10"/><path d="M227.59 157.26s-9 10.24-10.25 12.09-10 13.31-10 17-.21 7.78 7.17 14.13 17 13.31 17 13.31" fill="none" stroke="#262626" stroke-miterlimit="10"/><path d="M230.25 193.93s-7.38-2.67-9-6.15-6.15-8-4.1-17.41m27.44 17.62l-3.08-2.87m-1.33 17.61s.41 9.32 13 9" fill="none" stroke="#262626" stroke-miterlimit="10"/><path d="M264.86 61.41s-7 7.78.82 12.69 47.11 8.61 52.85 13.9 7.37-10.24 8.19-13.11-61.86-13.48-61.86-13.48z" fill="#fff" stroke="#262626" stroke-miterlimit="10"/><path d="M276.33.5l-13.11 54.76s-2.86 4.51 5.74 6.56 51.61 10.24 57.76 13.1l.1 1.74S334 78.82 336 74s43.15-72.27 43.15-72.27z" fill="#00654d" stroke="#262626" stroke-miterlimit="10"/><path fill="none" stroke="#262626" stroke-miterlimit="10" d="M183.62 316.75l15.56 5.74m3.42-67.32l14.06 17.34m60.08-17.21l-4.23-19.93m55.3-5.6l-5.32 25.4M401 274.69l11.88-8.6"/></g></g></svg>