<svg xmlns="http://www.w3.org/2000/svg" viewBox="0 0 145 145"><defs><style>.cls-1,.cls-6{fill:none}.cls-1{stroke:#007b64}.cls-1,.cls-6{stroke-linecap:round;stroke-linejoin:round;stroke-width:2px}.cls-3{fill:#ebebeb}.cls-4{fill:#fff}.cls-6{stroke:#ffc463}</style></defs><g id="_36_Подача_декларации" data-name="36 Подача декларации"><path class="cls-1" d="M5.31 133.49h119.62m4.5 0h10.88"/><path d="M40.76 132.83S63 124 79 127a29.35 29.35 0 0026-8v9l-2.45 4.06-1.29 1.43H42z" fill="#f1f1f1"/><path class="cls-3" d="M31.13 42.66s-2.62 17-2.51 23.77-5.45 14.74-5.45 14.74l-1.6-33.83 1.23-2.82 1.88-1.29z"/><path class="cls-1" d="M32.84 129.84a6.34 6.34 0 01-6.71-5.92l-4.65-74a6.33 6.33 0 015.92-6.72l4.13-.26"/><path class="cls-4" d="M104.75 115.52v11.85a6.12 6.12 0 01-6.13 6.12h-55.1a6.12 6.12 0 01-6.12-6.12V41.65a6.12 6.12 0 016.12-6.12H86.9l17.85 18.88"/><path d="M104.75 106.34v21a6.12 6.12 0 01-6.13 6.12h-55.1a6.12 6.12 0 01-6.12-6.12V41.65a6.12 6.12 0 016.12-6.12h42.94a1 1 0 01.74.32l17.55 18.56" stroke-width="2.04" stroke-linejoin="round" stroke-linecap="round" stroke="#007b64" fill="none"/><path class="cls-1" d="M104.75 54.67v12.28m-8.17-12.54h-5.1a6.12 6.12 0 01-6.12-6.12v-5.11M44.58 76.03H82M44.58 67.7H82M44.58 84.37H82M44.58 92.7H82"/><path class="cls-6" d="M76 121s-7-5-14-2-16 1-14-4"/></g><g id="_48_Программное_обеспечение_для_плательщиков" data-name="48 Программное обеспечение для плательщиков"><path class="cls-4" d="M119.05 66.33a3.22 3.22 0 012 .84l1.58 1.46c1.5 1.38 1.36 4-.3 5.75l-33.7 36.49-10.27 4.57 3.28-11 31.22-33.8 1.41-1.52"/><path class="cls-3" transform="rotate(42.73 100.239 95.149)" d="M98.43 75.74h3.64v38.8h-3.64z"/><path fill="#ffc463" d="M111.56 72.08L108 76l6.74 6.13 4.14-3.95-7.07-6.37-.25.27z"/><path class="cls-6" d="M115.01 82.37l-6.99-6.46"/><path fill="#ffc463" stroke="#ffc463" stroke-width="2" stroke-linejoin="round" stroke-linecap="round" d="M111.55 72.08l7 6.46"/><path class="cls-1" d="M119.05 66.33a3.22 3.22 0 012 .84l1.58 1.46c1.5 1.38 1.36 4-.3 5.75l-33.7 36.49-10.27 4.57 3.28-11 31.22-33.8 1.41-1.52"/><path stroke-miterlimit="10" stroke-width="2" stroke-linecap="round" stroke="#007b64" fill="none" d="M81.69 104.41l6.99 6.46"/></g></svg>