<svg xmlns="http://www.w3.org/2000/svg" viewBox="0 0 145 145"><defs><style>.cls-1{fill:#ebebeb}.cls-2{fill:none;stroke:#007b64;stroke-linecap:round;stroke-linejoin:round;stroke-width:2px}.cls-6{fill:#ffc463}</style></defs><g id="_35_Постановка_на_учет" data-name="35 Постановка на учет"><path class="cls-1" d="M107.19 60.42S104 74 106 81s2 13 3 15l2.22-28.62L111 63l-1.82-1.72z"/><path class="cls-2" d="M7.3 134.89h121.17m7.32 0h5.51"/><path class="cls-1" d="M24.48 60.62s4.41 2.29 3.41 9.29 0 11-1 16c-.8 4-2 8-2 8l-2.82-27.36v-2.64l1.37-2.77z"/><rect x="33.13" y="45.5" width="68" height="89" rx="7.05" fill="#fff"/><path class="cls-1" d="M38.37 134.23S53 124 66 124s15-8 35.1-8.35L101 128l-2.65 5.07-1.54 1.16z"/><path d="M106.74 60.42a5 5 0 014.61 5.37l-4.86 63.76a5.3 5.3 0 01-.3 1.39" stroke-width="2.04" fill="none" stroke="#007b64" stroke-linecap="round" stroke-linejoin="round"/><path class="cls-2" d="M101.1 57.79v69.72a7 7 0 01-7 7H40.31a7 7 0 01-7-7V52.32a7 7 0 017-7H94.1a7 7 0 017 7v7.78"/><path d="M29 131.8a5.59 5.59 0 01-.38-.87 5.83 5.83 0 01-.32-1.4L22 65.66a6 6 0 014.17-6.3" stroke-width="1.71" fill="none" stroke="#007b64" stroke-linecap="round" stroke-linejoin="round"/><path class="cls-6" d="M47.89 59.83v9.8h-3.3v-7.31h-1.68v-2.49z"/><path class="cls-2" d="M57.81 64.73h30"/><path class="cls-6" d="M50.62 86.65v2.57h-7.86v-2l3.55-3.28a2.87 2.87 0 00.61-.74 1.29 1.29 0 00.16-.61.66.66 0 00-.25-.56 1 1 0 00-.7-.2 1.58 1.58 0 00-1.45.91l-2.49-1.25a4.09 4.09 0 011.64-1.66 5.18 5.18 0 012.6-.61 5.29 5.29 0 012.06.38 3.19 3.19 0 011.4 1.08 2.64 2.64 0 01.51 1.61 3.43 3.43 0 01-.35 1.52 5.66 5.66 0 01-1.34 1.6l-1.39 1.27z"/><path class="cls-2" d="M57.81 84.2h30"/><path class="cls-6" d="M50.63 103.67a2.71 2.71 0 01.6 1.77 3 3 0 01-.48 1.64 3.26 3.26 0 01-1.47 1.24 5.63 5.63 0 01-2.47.48 10.11 10.11 0 01-2-.22 6.38 6.38 0 01-1.77-.66l1.1-2.44a5.32 5.32 0 001.28.53 5.26 5.26 0 001.32.19 1.83 1.83 0 00.91-.2.62.62 0 00.35-.56c0-.45-.38-.67-1.15-.67h-1.32v-2l1.47-1.5h-3.5v-2.49h7.21v2l-1.8 1.84a3.13 3.13 0 011.72 1.05z"/><path stroke-width="1.99" fill="none" stroke="#007b64" stroke-linecap="round" stroke-linejoin="round" d="M58.22 103.79h29.59"/></g></svg>