<svg xmlns="http://www.w3.org/2000/svg" viewBox="0 0 145 145"><defs><style>.cls-1,.cls-6{stroke-miterlimit:10;stroke-width:2px}.cls-1{fill:none;stroke:#007b64;stroke-linecap:round}.cls-6{fill:#fff}.cls-4{fill:#ffc463}.cls-5{fill:#c4c4c4}.cls-6{stroke:#ffc463}</style></defs><g id="_48_Программное_обеспечение_для_плательщиков" data-name="48 Программное обеспечение для плательщиков"><path class="cls-1" d="M143.6 123.39l-135 .16"/><rect x="18" y="37" width="107.5" height="86" rx="6.98" fill="#fff"/><path d="M18 112.92h108v2.47a8 8 0 01-8 8H26a8 8 0 01-8-8v-2.47z" fill="#ebebeb"/><path class="cls-1" d="M27.03 49.04l89.94.1"/><rect class="cls-4" x="91.93" y="42.76" width="22.48" height="2.02" rx="1.01" transform="translate(.05 -.12)"/><rect class="cls-5" x="28.84" y="42.28" width="2.81" height="2.81" rx="1.41" transform="rotate(.07 24.58 40.91)"/><rect class="cls-5" x="33.06" y="42.29" width="2.81" height="2.81" rx="1.41" transform="rotate(.07 32.765 40.906)"/><rect class="cls-5" x="37.27" y="42.29" width="2.81" height="2.81" rx="1.41" transform="translate(.05 -.04)"/><path class="cls-1" d="M18 94.84V44.69a7.56 7.56 0 017.56-7.56h92.88a7.56 7.56 0 017.56 7.56V116a7.55 7.55 0 01-7.56 7.56H25.56A7.55 7.55 0 0118 116v-10.27M30.74 71.8h29.22M30.74 78h29.22m-29.22 6.19h29.22"/><rect class="cls-6" x="74.28" y="63.21" width="26.53" height="6.12" rx="3.06"/><rect class="cls-6" x="84.48" y="69.33" width="26.53" height="6.12" rx="3.06"/><rect class="cls-6" x="79.38" y="75.45" width="26.53" height="6.12" rx="3.06"/><rect class="cls-6" x="79.38" y="81.57" width="26.53" height="6.12" rx="3.06"/><rect class="cls-6" x="79.38" y="87.69" width="26.53" height="6.12" rx="3.06"/><rect class="cls-6" x="79.38" y="93.82" width="26.53" height="6.12" rx="3.06"/><circle class="cls-4" cx="103.23" cy="91.9" r="12.88"/></g></svg>