<svg xmlns="http://www.w3.org/2000/svg" width="602.53" height="518.26"><defs><clipPath id="a"><rect x="51.11" y="340.95" width="75.09" height="24.2" rx="10.05" transform="rotate(-39.56 88.667 353.075)" fill="#c4c4c4" stroke="#262626" stroke-miterlimit="10"/></clipPath></defs><g data-name="Слой 2"><g data-name="Слой 1"><path d="M114.55 94.55C131 31.45 240.4 9.71 259.33 6 277 2.44 387.09-17.62 453.73 43.36c15.78 14.43 2.75 9.28 52.65 82.69 27.48 40.42-6.07 53.21 72.9 115.18 27.49 21.57 26.29 70.15 18.23 108.12-10 47-22 67.65-33.42 84.83-6.69 10.1-27.45 40.56-66.82 55.12-65.44 24.21-130.27-14.74-136.69-18.7-27.09-16.82-28.38-29.45-54.67-37.41-28.53-8.63-55.59-2.42-79 2.95-44.68 10.27-46.52 23-73.91 23.63-40.43 1-71.17-25.87-81-34.45-7.61-6.65-46.1-40.27-47.58-93.53-1.53-55.62 38.4-93.6 46.58-101.39 20.95-19.92 29.78-16.06 40.5-32.49 22.4-34.32-6.82-65.5 3.05-103.36z" fill="#c4c4c4"/><g stroke="#262626" stroke-miterlimit="10"><path fill="#fff" d="M135.368 18.773l137.169-.43.798 254.038-137.17.431z"/><path d="M255.07 56.81a12.44 12.44 0 01-12.48-12.41 13.16 13.16 0 01.17-2l-76.65.23a13.17 13.17 0 01.19 2 12.45 12.45 0 01-12.41 12.48c-.42 0-.84 0-1.25-.06l.55 179.23c.41 0 .83-.07 1.25-.07a12.44 12.44 0 0112.48 12.41v.16l76.31-.24v-.16a12.45 12.45 0 0112.41-12.48h.41l-.55-179.14zM204.43 177a31.39 31.39 0 1131.28-31.48A31.38 31.38 0 01204.43 177z" fill="#00654d"/><path fill="#fff" d="M68.322 64.625l131.616-38.637 71.556 243.754-131.616 38.637z"/><path d="M193.9 67.79a12.46 12.46 0 01-15.45-8.44 13.89 13.89 0 01-.4-2L104.51 79a11.82 11.82 0 01.73 1.88 12.44 12.44 0 01-8.43 15.44 10.78 10.78 0 01-1.22.29l50.48 172a11 11 0 011.18-.42 12.45 12.45 0 0115.44 8.44v.16L236 255.23a.78.78 0 010-.14 12.44 12.44 0 018.44-15.45l.39-.1-50.55-171.89zM178.75 197.3a31.38 31.38 0 1121.27-39 31.38 31.38 0 01-21.27 39z" fill="#00654d"/><path fill="#fff" d="M32.095 106.644l122.62-61.484 113.867 227.092-122.62 61.483z"/><path d="M156.21 87.38a12.45 12.45 0 01-16.7-5.55 12.32 12.32 0 01-.74-1.87l-68.52 34.35a12.88 12.88 0 011.06 1.69 12.46 12.46 0 01-5.55 16.71c-.38.18-.76.35-1.14.5l80.32 160.22c.35-.22.71-.43 1.09-.62a12.45 12.45 0 0116.7 5.55c0 .05 0 .1.07.14l68.2-34.18-.07-.13a12.45 12.45 0 015.54-16.71l.38-.16-80.28-160.14zm8.19 130.14a31.38 31.38 0 1114-42.12 31.38 31.38 0 01-14 42.12z" fill="#00654d"/><path fill="#fff" d="M.714 168.122l104.07-89.358 165.492 192.741-104.071 89.358z"/><path d="M116.46 119.37A12.45 12.45 0 0198.91 118a11.43 11.43 0 01-1.17-1.64l-58.16 49.96a12 12 0 011.42 1.41 12.45 12.45 0 01-1.33 17.55c-.32.27-.65.52-1 .76L155.44 322c.29-.3.59-.58.91-.86a12.44 12.44 0 0117.55 1.34l.09.12 57.9-49.7-.1-.12a12.45 12.45 0 011.33-17.55c.11-.09.22-.16.32-.25L116.75 119.09zm39.46 124.28a31.38 31.38 0 113.37-44.25 31.38 31.38 0 01-3.37 44.25z" fill="#00654d"/></g><path fill="none" stroke="#262626" stroke-miterlimit="10" d="M34.56 484.35h532.23"/><rect x="49.31" y="222.99" width="183.98" height="247.81" rx="28.71" transform="rotate(-39.56 141.315 346.918)" fill="#fff" stroke="#262626" stroke-miterlimit="10"/><path d="M18.22 299.213l99.454-82.158a17.26 17.26 0 0124.3 2.314l27.8 33.652L43.705 357.165 15.913 323.52a17.26 17.26 0 012.314-24.299z" fill="#262626"/><path fill="#c4c4c4" d="M18.338 314.275l114.179-94.323 26.57 32.164L44.91 346.44z"/><path fill="#ebebeb" d="M27.193 314.962l104.341-86.196 18.59 22.504-104.34 86.196z"/><rect x="51.11" y="340.95" width="75.09" height="24.2" rx="10.05" transform="rotate(-39.56 88.667 353.075)" fill="#c4c4c4"/><g clip-path="url(#a)" fill="#c4c4c4" stroke="#262626" stroke-miterlimit="10"><path d="M58.1 356.11l22.85 27.66m-13-35.8l22.85 27.66m-13-35.8l22.85 27.66m-13-35.8l22.85 27.66m-13-35.79l22.85 27.66"/></g><rect x="51.11" y="340.95" width="75.09" height="24.2" rx="10.05" transform="rotate(-39.56 88.667 353.075)" fill="none" stroke="#262626" stroke-miterlimit="10"/><rect x="141.69" y="301.8" width="24.72" height="16.9" rx="6.71" transform="rotate(-39.56 154.074 310.259)" fill="#ebebeb" stroke="#262626" stroke-miterlimit="10"/><rect x="168.3" y="279.82" width="24.72" height="16.9" rx="6.71" transform="rotate(-39.56 180.678 288.282)" fill="#007a65" stroke="#262626" stroke-miterlimit="10"/><rect x="155.78" y="318.58" width="24.72" height="16.9" rx="6.71" transform="rotate(-39.56 168.154 327.036)" fill="#ebebeb" stroke="#262626" stroke-miterlimit="10"/><rect x="182.25" y="296.71" width="24.72" height="16.9" rx="6.71" transform="rotate(-39.56 194.625 305.168)" fill="#ebebeb" stroke="#262626" stroke-miterlimit="10"/><rect x="102.83" y="362.32" width="24.72" height="16.9" rx="6.71" transform="rotate(-39.56 115.195 370.78)" fill="#ebebeb" stroke="#262626" stroke-miterlimit="10"/><rect x="76.35" y="384.19" width="24.72" height="16.9" rx="6.71" transform="rotate(-39.56 88.72 392.661)" fill="#ebebeb" stroke="#262626" stroke-miterlimit="10"/><rect x="129.3" y="340.45" width="24.72" height="16.9" rx="6.71" transform="rotate(-39.56 141.679 348.917)" fill="#ebebeb" stroke="#262626" stroke-miterlimit="10"/><rect x="170.13" y="335.95" width="24.72" height="16.9" rx="6.71" transform="rotate(-39.56 182.492 344.407)" fill="#c4c4c4" stroke="#262626" stroke-miterlimit="10"/><rect x="196.6" y="314.07" width="24.72" height="16.9" rx="6.71" transform="rotate(-39.56 208.98 322.53)" fill="#c4c4c4" stroke="#262626" stroke-miterlimit="10"/><rect x="117.18" y="379.69" width="24.72" height="16.9" rx="6.71" transform="rotate(-39.6 129.012 386.27)" fill="#c4c4c4" stroke="#262626" stroke-miterlimit="10"/><rect x="90.7" y="401.56" width="24.72" height="16.9" rx="6.71" transform="rotate(-39.56 103.075 410.024)" fill="#ebebeb" stroke="#262626" stroke-miterlimit="10"/><rect x="143.65" y="357.82" width="24.72" height="16.9" rx="6.71" transform="rotate(-39.56 156.021 366.275)" fill="#c4c4c4" stroke="#262626" stroke-miterlimit="10"/><rect x="184.27" y="353.07" width="24.72" height="16.9" rx="6.71" transform="rotate(-39.56 196.647 361.541)" fill="#c4c4c4" stroke="#262626" stroke-miterlimit="10"/><rect x="210.75" y="331.2" width="24.72" height="16.9" rx="6.71" transform="rotate(-39.56 223.123 339.66)" fill="#c4c4c4" stroke="#262626" stroke-miterlimit="10"/><rect x="131.33" y="396.82" width="24.72" height="16.9" rx="6.71" transform="rotate(-39.56 143.707 405.276)" fill="#c4c4c4" stroke="#262626" stroke-miterlimit="10"/><rect x="104.85" y="418.69" width="24.72" height="16.9" rx="6.71" transform="rotate(-39.56 117.217 427.153)" fill="#ebebeb" stroke="#262626" stroke-miterlimit="10"/><rect x="157.8" y="374.94" width="24.72" height="16.9" rx="6.71" transform="rotate(-39.56 170.177 383.409)" fill="#c4c4c4" stroke="#262626" stroke-miterlimit="10"/><rect x="198.22" y="369.96" width="24.72" height="16.9" rx="6.71" transform="rotate(-39.56 210.599 378.413)" fill="#c4c4c4" stroke="#262626" stroke-miterlimit="10"/><rect x="224.7" y="348.09" width="24.72" height="16.9" rx="6.71" transform="rotate(-39.56 237.07 356.546)" fill="#c4c4c4" stroke="#262626" stroke-miterlimit="10"/><rect x="145.28" y="413.7" width="24.72" height="16.9" rx="6.71" transform="rotate(-39.56 157.653 422.162)" fill="#c4c4c4" stroke="#262626" stroke-miterlimit="10"/><rect x="118.8" y="435.57" width="24.72" height="16.9" rx="6.71" transform="rotate(-39.56 131.178 444.044)" fill="#007a65" stroke="#262626" stroke-miterlimit="10"/><rect x="171.75" y="391.83" width="24.72" height="16.9" rx="6.71" transform="rotate(-39.56 184.124 400.295)" fill="#c4c4c4" stroke="#262626" stroke-miterlimit="10"/><rect x="212.57" y="387.33" width="24.72" height="16.9" rx="6.71" transform="rotate(-39.56 224.95 395.79)" fill="#c4c4c4" stroke="#262626" stroke-miterlimit="10"/><rect x="239.05" y="365.45" width="24.72" height="16.9" rx="6.71" transform="rotate(-39.56 251.425 373.908)" fill="#c4c4c4" stroke="#262626" stroke-miterlimit="10"/><rect x="159.62" y="431.07" width="24.72" height="16.9" rx="6.71" transform="rotate(-39.56 172.004 439.539)" fill="#c4c4c4" stroke="#262626" stroke-miterlimit="10"/><rect x="133.15" y="452.94" width="24.72" height="16.9" rx="6.71" transform="rotate(-39.56 145.52 461.402)" fill="#007a65" stroke="#262626" stroke-miterlimit="10"/><rect x="186.1" y="409.2" width="24.72" height="16.9" rx="6.71" transform="rotate(-39.56 198.48 417.657)" fill="#c4c4c4" stroke="#262626" stroke-miterlimit="10"/><path d="M142.54 465.83l1 2.58-.86.71-3.13-8.26 1-.82 7.53 4.62-.89.74-2.36-1.46zm1.59-2.41L142 462.1c-.49-.3-.9-.61-1.3-.9.21.46.45.94.64 1.44l.9 2.39zm9.08-3.34a5.31 5.31 0 01-1.44 1.72 3.91 3.91 0 01-5.88-.65 4.15 4.15 0 01.57-6.17 4.67 4.67 0 011.76-1l.35.86a3.78 3.78 0 00-1.51.8 3.11 3.11 0 00-.32 4.73 3 3 0 004.61.56 4.33 4.33 0 001.15-1.4zM174 437.89c1.75 2.11 1.92 3.94.55 5.07-1.21 1-3 .55-4.7-1.49s-1.76-4-.5-5 3.04-.56 4.65 1.42zm-3.29 2.88c1.33 1.62 2.59 2.13 3.35 1.49s.44-2-.88-3.63-2.47-2.22-3.35-1.49c-.71.6-.5 1.94.9 3.63zm-15.22-20.59l-.6 1.48-.69-.51.75-1.85.72-.59 5.14 6.22-.82.67zm-8.68-12.1l-1.41-1.7-2.89 2.39-.45-.55-.5-6.26.91-.75 3.19 3.86.87-.72.54.66-.87.71 1.4 1.71zm-1.95-2.35l-1.71-2.08q-.41-.48-.78-1c.11.52.18.91.25 1.34l.22 3.37zm-16.1-22.42l.46.56 2 7.89-.87.72-1.85-7.72-3 2.51-.57-.7zm69.83 34.29c1.74 2.11 1.91 3.93.54 5.06-1.21 1-3 .56-4.7-1.49s-1.76-4-.5-5 3.07-.55 4.66 1.43zm-3.3 2.88c1.33 1.62 2.59 2.13 3.36 1.49s.43-2-.88-3.63-2.48-2.22-3.36-1.49c-.73.6-.52 1.94.88 3.63zm8.2-6.94c1.75 2.12 1.92 3.94.55 5.07-1.21 1-3 .55-4.7-1.49s-1.76-4-.5-5 3.02-.56 4.65 1.42zm-3.29 2.89c1.33 1.61 2.59 2.12 3.35 1.49s.44-2.05-.88-3.64-2.47-2.22-3.35-1.49c-.73.6-.52 1.94.88 3.64zm-15.03-11.63l-.42-.52.13-1.19c.34-2.82.4-4.22-.37-5.16a1.43 1.43 0 00-2.23-.2 2.71 2.71 0 00-.89 1.61l-.76-.37a3.6 3.6 0 011.23-2.08 2.28 2.28 0 013.4.24c1 1.15.88 2.76.62 5.11l-.11.86 2.79-2.3.57.7zm-14.79-25.46l-2.37 2 1.08 1.79a4.72 4.72 0 01.49-.45 3.26 3.26 0 011.61-.77 2.28 2.28 0 012.2.86 2.78 2.78 0 01-.56 4 4 4 0 01-1.86.9l-.32-.82a3.54 3.54 0 001.62-.76 1.77 1.77 0 00.35-2.56c-.66-.8-1.67-.91-2.91.11a8.14 8.14 0 00-.82.77l-2.07-3.31 3-2.46zm-15.06-13.02a2 2 0 01-2.15-.57 2.27 2.27 0 01.57-3.25 2 2 0 013.25 2.34 2.25 2.25 0 012.58.58A2.47 2.47 0 01159 369c-1.3 1.07-2.72 1-3.47.05a2.34 2.34 0 01-.15-2.69zm-1.39-1.32c.5.63 1.26.57 2.13.17a1.59 1.59 0 000-1.91 1.26 1.26 0 00-1.89-.15 1.29 1.29 0 00-.24 1.89zm4.88 1.19c-.62-.74-1.45-.68-2.49-.22a1.76 1.76 0 000 2.21 1.48 1.48 0 002.21.15 1.46 1.46 0 00.28-2.11zm63.13 32.11c1.75 2.11 1.92 3.94.55 5.07-1.21 1-3 .55-4.7-1.49s-1.77-4-.5-5 3.02-.56 4.65 1.42zm-3.29 2.88c1.33 1.62 2.59 2.13 3.35 1.5s.43-2.05-.88-3.64-2.47-2.22-3.35-1.49-.52 1.94.88 3.63zm8.2-6.93c1.75 2.11 1.92 3.93.55 5.06-1.21 1-3 .55-4.7-1.49s-1.77-4-.5-5 3.01-.56 4.65 1.43zm-3.3 2.88c1.34 1.62 2.59 2.12 3.36 1.49s.43-2.05-.88-3.63-2.48-2.22-3.35-1.5-.53 1.95.87 3.64zm8.21-6.94c1.75 2.11 1.92 3.94.55 5.07-1.22 1-3 .55-4.71-1.49s-1.76-4-.5-5 3.02-.56 4.66 1.42zm-3.3 2.88c1.34 1.62 2.59 2.13 3.36 1.5s.43-2.05-.88-3.64-2.48-2.22-3.36-1.49c-.72.56-.52 1.94.88 3.63zm-18.06-10.72a3.75 3.75 0 001.69-.75 1.59 1.59 0 00.41-2.37c-.73-.86-1.82-.59-2.64.08l-.46.39-.53-.63.47-.39c.61-.5 1.13-1.46.52-2.2a1.22 1.22 0 00-1.86 0 2.93 2.93 0 00-.91 1.44l-.73-.43a3.92 3.92 0 011.24-1.83c1.22-1 2.38-.74 3 0a2 2 0 01.07 2.42 2.08 2.08 0 012.69.44c.83 1 .76 2.51-.72 3.74a4.14 4.14 0 01-2 .91zM195.94 358a5.1 5.1 0 00-.6.57 3.24 3.24 0 00-.34 4 2.46 2.46 0 014.44-1.51 2.7 2.7 0 01-.25 3.91c-1.32 1.09-3.05.78-4.38-.84a5 5 0 01-1.27-3.67 4.43 4.43 0 011.23-2.56 4.79 4.79 0 01.58-.56zm2.72 3.79a1.64 1.64 0 00-2.46-.37 1.79 1.79 0 00-.58 1.77 1.06 1.06 0 00.21.43c.86 1 2 1.39 2.86.65a1.68 1.68 0 00-.03-2.45zm-15.98-13.57a4 4 0 00.66-.59 3 3 0 00.8-1.67 3.53 3.53 0 00-.53-2.33 2.37 2.37 0 01-.93 1.87 2.33 2.33 0 01-3.4-.39 2.76 2.76 0 01.3-4c1.27-1.06 2.9-.68 4.23.93a5.1 5.1 0 011.33 3.79 4.06 4.06 0 01-1.12 2.32 4.44 4.44 0 01-.74.69zM180 344.4a1.55 1.55 0 002.29.34 1.85 1.85 0 00.69-1.67.82.82 0 00-.19-.37c-.88-1.07-1.94-1.56-2.83-.82a1.73 1.73 0 00.04 2.52zM135.78 445a5.44 5.44 0 01-1.46 1.71 3.89 3.89 0 01-5.87-.65 4.14 4.14 0 01.57-6.16 4.53 4.53 0 011.76-1l.35.85a3.91 3.91 0 00-1.51.8 3.12 3.12 0 00-.32 4.74 3 3 0 004.61.55 4.31 4.31 0 001.15-1.39zm44.16-156.85c1.82 2.21 1.45 4.51-.19 5.87s-4 1.06-5.61-.89-1.53-4.43.19-5.85 4.02-1.06 5.61.87zm-4.94 4.23c1.15 1.39 2.91 2 4.23.92s1.07-2.92-.14-4.39c-1.07-1.29-2.84-2.07-4.23-.93s-1.02 3.02.14 4.4zm8.74-1.84l-5.33-6.44.92-.76 4.75 1.56a23 23 0 012.88 1.15 33.86 33.86 0 01-2.28-2.57l-2.23-2.69.78-.65 5.33 6.44-.84.7-4.72-1.62a27.2 27.2 0 01-3-1.16c.72.77 1.37 1.54 2.26 2.61l2.27 2.75z" fill="#fff"/><path d="M112.59 426.75l1.86 2.25 2.16-1.79.47.58-2.16 1.78 1.87 2.27-.61.5-1.87-2.26-2.16 1.78-.48-.57 2.16-1.79-1.83-2.24zm9.68 1.19l-8.33-4.78.65-.54 8.33 4.78zm.59-5.94l.51.61-2.36 2-.51-.62zm-22.08-12.47c1.08 1.31.94 2.52.13 3.19s-2 .57-3-.67-.93-2.49-.09-3.19 1.99-.5 2.96.67zm-2.23 1.94c.64.81 1.44 1.16 2 .73s.31-1.26-.36-2.07-1.37-1.21-2-.72-.28 1.29.36 2.06zm4.45 3.93l-1.66-9.47.53-.44 1.67 9.47zm4-6.63c1.08 1.31.94 2.52.13 3.18s-1.95.57-3-.67-.93-2.5-.09-3.19 1.96-.51 2.96.68zm-2.23 1.93c.63.81 1.44 1.16 2 .73s.32-1.26-.36-2.08-1.37-1.21-2-.72-.32 1.29.33 2.07zM88.6 393.55c-.79-.86-1.75-1.91-2.4-2.7.38.93.8 2 1.21 3.11l1.44 4.07-.63.52-3.59-2.2c-1.06-.66-2-1.28-2.8-1.89.64.82 1.48 1.93 2.23 2.95l2.11 2.91-.8.66-4.87-6.82 1.06-.88 3.68 2.21c.92.57 1.71 1.11 2.44 1.64-.37-.79-.72-1.69-1.11-2.74l-1.42-4.07 1.06-.87 5.72 6.11-.82.68zm8.93-2.96a5.38 5.38 0 01-1.45 1.72 3.91 3.91 0 01-5.88-.65 4.16 4.16 0 01.57-6.17 4.47 4.47 0 011.77-1l.35.85a3.71 3.71 0 00-1.51.8 3.1 3.1 0 00-.32 4.73 3 3 0 004.61.56 4.42 4.42 0 001.14-1.4zm17.6-18.97c-.79-.86-1.74-1.9-2.4-2.69.39.94.8 2 1.21 3.12l1.45 4.07-.64.52-3.58-2.2c-1.07-.66-2-1.28-2.81-1.9.64.82 1.48 1.93 2.23 2.95l2.11 2.91-.79.65-4.91-6.78 1.06-.88 3.68 2.21c.92.57 1.72 1.11 2.44 1.63-.36-.8-.72-1.69-1.1-2.74l-1.43-4.07 1.06-.88 5.73 6.12-.82.68zm-.65-5.39a12.22 12.22 0 011.49-1.46 3.47 3.47 0 012.3-1 2.16 2.16 0 011.52.81 2.2 2.2 0 01.15 2.64 2.1 2.1 0 012 .53 13.46 13.46 0 002 1.36l-.86.71a10.11 10.11 0 01-1.69-1.19c-.93-.73-1.56-.78-2.34-.18l-.78.65 2.31 2.79-.84.69zm3.26 2.25l.85-.71a1.64 1.64 0 00.44-2.42c-.69-.83-1.59-.7-2.47 0a5.06 5.06 0 00-.77.74zm25.5-20.07c-.79-.86-1.75-1.9-2.41-2.7.39.93.8 2 1.21 3.12l1.45 4.06-.63.53-3.59-2.21c-1.07-.66-2-1.28-2.81-1.89.65.82 1.48 1.93 2.23 3l2.12 2.9-.8.66-4.88-6.82 1.07-.88 3.67 2.21c.93.58 1.72 1.11 2.45 1.64-.37-.79-.73-1.69-1.11-2.74l-1.43-4.06 1.06-.88 5.73 6.11-.82.68zm4.19-3.56l.51.61-2.37 2-.5-.61zM167.92 328c-.79-.86-1.75-1.9-2.4-2.69.38.94.8 2 1.21 3.12l1.44 4.07-.63.52-3.59-2.2c-1.06-.66-2-1.28-2.8-1.9.64.82 1.48 1.93 2.23 3l2.11 2.91-.79.65-4.88-6.81 1.06-.88 3.68 2.21c.92.57 1.72 1.11 2.44 1.63-.37-.8-.72-1.69-1.11-2.74l-1.42-4.07 1.06-.88 5.73 6.12-.83.68zm2.83-6.12l1.85 2.25 2.17-1.79.47.58-2.16 1.78L175 327l-.61.51-1.87-2.27-2.22 1.76-.47-.57 2.16-1.79-1.86-2.24zm-13.38-7.26l-.61.49-4.9-2.82-.46.88-.56-.29.87-1.64 3.9 2.33a5.89 5.89 0 01.69.46c-.1-.18-.25-.46-.37-.72l-4.29-8.8.63-.52zm35.63-6.38l-.47-.57 4.94-4.08.47.57zm.35-3.58a.66.66 0 11.93.11.63.63 0 01-.93-.11zm2.77 3.36a.66.66 0 01.06-1 .69.69 0 11-.06 1z" fill="#262626"/><g stroke="#262626" stroke-miterlimit="10"><path fill="#fff" d="M345.73 54.38h187.65v194.4H345.73z"/><path fill="#00654d" d="M345.73 54.38h187.65V91.5H345.73z"/><path d="M357.66 116.03h21.15v21.37h-21.15zm29.02 0h21.15v21.37h-21.15zm29.03 0h21.15v21.37h-21.15zm29.02 0h21.15v21.37h-21.15zm29.03 0h21.15v21.37h-21.15zm29.02 0h21.15v21.37h-21.15zm-145.12 29.25h21.15v21.37h-21.15zm29.02 0h21.15v21.37h-21.15zm29.03 0h21.15v21.37h-21.15zm29.02 0h21.15v21.37h-21.15zm29.03 0h21.15v21.37h-21.15zm29.02 0h21.15v21.37h-21.15zm-145.12 29.48h21.15v21.37h-21.15zm29.02 0h21.15v21.37h-21.15zm29.03 0h21.15v21.37h-21.15zm29.02 0h21.15v21.37h-21.15zm29.03 0h21.15v21.37h-21.15zm29.02 0h21.15v21.37h-21.15zM357.66 204h21.15v21.37h-21.15zm29.02 0h21.15v21.37h-21.15zm29.03 0h21.15v21.37h-21.15zm29.02 0h21.15v21.37h-21.15zm29.03 0h21.15v21.37h-21.15zm29.02 0h21.15v21.37h-21.15z" fill="#fff"/><g fill="#fff"><rect x="360.36" y="40.66" width="5.4" height="24.07" rx="2.57"/><rect x="371.25" y="40.66" width="5.4" height="24.07" rx="2.57"/><rect x="382.15" y="40.66" width="5.4" height="24.07" rx="2.57"/><rect x="393.05" y="40.66" width="5.4" height="24.07" rx="2.57"/><rect x="403.94" y="40.66" width="5.4" height="24.07" rx="2.57"/><rect x="414.84" y="40.66" width="5.4" height="24.07" rx="2.57"/><rect x="425.74" y="40.66" width="5.4" height="24.07" rx="2.57"/><rect x="436.63" y="40.66" width="5.4" height="24.07" rx="2.57"/><rect x="447.53" y="40.66" width="5.4" height="24.07" rx="2.57"/><rect x="458.42" y="40.66" width="5.4" height="24.07" rx="2.57"/><rect x="469.32" y="40.66" width="5.4" height="24.07" rx="2.57"/><rect x="480.22" y="40.66" width="5.4" height="24.07" rx="2.57"/><rect x="491.11" y="40.66" width="5.4" height="24.07" rx="2.57"/><rect x="502.01" y="40.66" width="5.4" height="24.07" rx="2.57"/><rect x="512.91" y="40.66" width="5.4" height="24.07" rx="2.57"/></g></g><path fill="#fff" stroke="#262626" stroke-miterlimit="10" d="M206.48 265.65v252.11h259.2V162.04H364.43"/><path fill="#fbc469" stroke="#262626" stroke-miterlimit="10" d="M206.48 161.71h157.95v103.95H206.48z"/><path fill="none" stroke="#262626" stroke-miterlimit="10" d="M221.33 306.83h17.22m5.06.34h82.01m2.7-.34h60.08m4.38 0h31.05m4.05 0h20.25m-225.78 16.2h34.08m8.1.67h35.78m6.75-.33h88.09m4.72 0h41.51m-219.03 16.87h18.9m4.72.34h49.61m3.38-.68h37.12m4.73.68h108m-227.48 13.84h227.81v145.79H220.66s1.01-145.79.67-145.79zm56.03 27.33h-56.03m60.42-.33h167.06M221 401.33h227.47m-227.14 19.91H415.4m2.36.34h31.05M221 440.82h89.77m3.71 0h133.99m-227.14 19.57h47.93m7.09 0h172.46m-227.48 20.25h92.82m4.05 0h130.61m-49.95 19.91v-24.63m-.34-4.39v-98.89m0-7.42v-8.44"/><path d="M233.46 193h-18.93v-6.8h46.08v6.8h-19v55.39h-8.13zm37.21 35.86l-6.46 19.57h-8.31l21.23-62.23h9.61L308 248.43h-8.58l-6.65-19.57zm20.5-6.28L285 204.67c-1.38-4.06-2.31-7.76-3.23-11.36h-.18c-.93 3.6-1.85 7.48-3.14 11.27l-6.1 18zm58.72 25.85l-8-13.75c-3.23-5.27-5.17-8.68-7.11-12.28h-.19c-1.75 3.6-3.6 6.92-6.74 12.37l-7.48 13.66h-9.23l19-31.48-18.29-30.75h9.33l8.21 14.59c2.31 4.06 4.06 7.2 5.73 10.53h.27c1.76-3.7 3.33-6.56 5.64-10.53l8.4-14.59h9.32l-18.92 30.29 19.39 31.94z" fill="#fff"/><path d="M564.74 460.79a12.39 12.39 0 01-17.62-1.44L434.66 324.46l14.09-12.18 117.13 130.86a12.4 12.4 0 01-1.14 17.65z" fill="#262626"/><path d="M394.13 197.48A70.88 70.88 0 10465 268.35a70.87 70.87 0 00-70.87-70.87zm0 133a62.1 62.1 0 1162.1-62.1 62.1 62.1 0 01-62.1 62.07z" fill="#00654d" stroke="#262626" stroke-miterlimit="10"/><rect x="435.64" y="321.57" width="29.7" height="14.85" rx="7.42" transform="rotate(-40.82 450.491 328.988)" fill="#fbc469" stroke="#262626" stroke-miterlimit="10"/></g></g></svg>