<svg xmlns="http://www.w3.org/2000/svg" width="571.27" height="505.88" viewBox="0 0 571.27 505.88">
  <title>Ресурс 6</title>
  <g id="Слой_2" data-name="Слой 2">
    <g id="Слой_1-2" data-name="Слой 1">
      <g>
        <g>
          <path d="M215.73,153.39c-22.2,22.89-43.29,24.35-73.37,38.56-13.63,6.44-57.6,27.22-82.77,66.78-23.47,36.9-29.53,88.48-12.22,132.62,23,58.77,78.83,82.29,97.82,90.3,129.22,54.48,302.19-27.92,381.87-142,16.59-23.75,43.53-63.45,44.21-119.45.08-6.61-.28-97.9-71.49-149.55C409.8,5.35,273,51.5,242.07,110.12,236.24,121.15,232.13,136.47,215.73,153.39Z" style="fill: #c4c4c4"/>
          <rect x="63.76" y="0.5" width="428.47" height="329.65" style="fill: none;stroke: #262626;stroke-miterlimit: 10"/>
          <rect x="97.65" y="36.5" width="360" height="258.35" style="fill: none;stroke: #262626;stroke-miterlimit: 10"/>
          <circle cx="82.12" cy="17.09" r="5.29" style="fill: #262626"/>
          <circle cx="104" cy="17.09" r="5.29" style="fill: #262626"/>
          <circle cx="125.79" cy="17.09" r="5.29" style="fill: #262626"/>
          <line x1="444.94" y1="339.32" x2="519.06" y2="339.32" style="fill: none;stroke: #262626;stroke-miterlimit: 10"/>
          <line x1="117.76" y1="46.03" x2="140" y2="46.03" style="fill: none;stroke: #262626;stroke-miterlimit: 10"/>
        </g>
        <g>
          <path d="M237.41,313.91s13.77,7.41,15.88,27.53,4.24,62.47,13.77,82.59,8.12,32.47,8.12,32.47-35.12,10.59-41.83,15-13.59,21.71,15,24.71c0,0-33.88,7.58-34.23-23.47l-29.3,32.64L39.41,504.5s41.3-57.18,51.88-61.41c0,0-4.23-31.77,1.06-51.88s-2.11-42.36,7.41-45.53,46.59-25.42,46.59-25.42-1.06,43.42,21.18,54c0,0,9.53-6.35,9.53-9.52S187.65,369,187.65,369l-13.77,38.12-16.94,11.65s38.12,12.7,41.3,25.41-5.3,43.41-35,49.76-45.53-26.47-45.53-32.82" style="fill: #00654d;stroke: #262626;stroke-miterlimit: 10"/>
          <line x1="237.76" y1="368.62" x2="237.24" y2="379.91" style="fill: #00654d;stroke: #262626;stroke-miterlimit: 10"/>
          <path d="M236.71,389.26S231.24,426,232.82,436s-5.47,24-18.7,36.71" style="fill: #00654d;stroke: #262626;stroke-miterlimit: 10"/>
          <line x1="256.29" y1="393.5" x2="254.35" y2="400.74" style="fill: #00654d;stroke: #262626;stroke-miterlimit: 10"/>
          <path d="M252.41,406.56S240.94,435,235.82,442" style="fill: #00654d;stroke: #262626;stroke-miterlimit: 10"/>
          <path d="M260.88,429.32s-3.35,4.42-3.7,4.94" style="fill: #00654d;stroke: #262626;stroke-miterlimit: 10"/>
          <path d="M253.47,437.79s-13.59,13.24-21.18,18" style="fill: #00654d;stroke: #262626;stroke-miterlimit: 10"/>
          <path d="M218.88,487.21s-5.29-11.65,3.88-18.53,26.3-11.65,37.06-10.77" style="fill: #00654d;stroke: #262626;stroke-miterlimit: 10"/>
          <path d="M145.29,435.15c.53-1.06,13.06-16.77,13.06-16.77,3-26.64-14.29-52.06-14.29-52.06" style="fill: #00654d;stroke: #262626;stroke-miterlimit: 10"/>
          <line x1="136.29" y1="445.38" x2="139.29" y2="442.56" style="fill: #00654d;stroke: #262626;stroke-miterlimit: 10"/>
          <line x1="158.88" y1="457.91" x2="158.18" y2="448.74" style="fill: #00654d;stroke: #262626;stroke-miterlimit: 10"/>
          <line x1="158.53" y1="441.15" x2="158.35" y2="421.74" style="fill: #00654d;stroke: #262626;stroke-miterlimit: 10"/>
          <path d="M172.29,425.44s1.06,13.77,4.77,20.47" style="fill: #00654d;stroke: #262626;stroke-miterlimit: 10"/>
          <polygon points="167.06 301.91 174.35 287.79 179.76 291.79 214.82 332.97 191.29 366.38 158.12 344.74 160.24 310.15 167.06 301.91" style="fill: #fff"/>
          <path d="M173.35,401.26,197,344.44l10.76-10.76s24.18-15.89,28.24-15.36,9.53,4.42,7.41,9.89-6.53,6.35-7.76,3.17-9.53,16.94-12.89,18.88-7.23,6.53-11.47,4.95.89.88.89.88l-18.36,68.65Z" style="fill: #fff;stroke: #262626;stroke-miterlimit: 10"/>
          <path d="M156.36,420.44s-8-1-1.85-7.41,7.4-12.13,9.05-15S193,411,201.4,421.47s1.65,18.71.82,21-3.08,6-6.17,1.86S169.73,421.06,156.36,420.44Z" style="fill: #fff;stroke: #262626;stroke-miterlimit: 10"/>
          <path d="M171.59,376.21s-29.65-2.47-25.59-59.47c0,0,17.47-17.65,21.18-15.71s-7.94,11.29-4.06,21.88S165.94,348,177.24,354s12.7,7.77,12.7,7.77L187.65,369,179,364.6a3.74,3.74,0,0,0-5.34,2.5Z" style="fill: #fff;stroke: #262626;stroke-miterlimit: 10"/>
          <polygon points="267.06 487.01 278.71 486.12 269 465.12 236.18 471.3 236 484.71 245.88 493.36 265.47 491.06 267.06 487.01" style="fill: #fff"/>
          <path d="M266.35,492.15s-34.06,9.35-37.59-7.59,23-21.88,28.24-20.12-3,8.82-3,8.82-17.65-5.82-16.59,3.53,7.58,15,27,15C267.41,491.79,266.35,492.15,266.35,492.15Z" style="fill: #fff;stroke: #262626;stroke-miterlimit: 10"/>
          <path d="M265.65,493.56l-.78-.28c-3.86-1.45-20.75-8.15-19.34-14.72,1.59-7.41,10.23-5.82,12.35-3s12.71,12.7,13.41,15.35S265.65,493.56,265.65,493.56Z" style="fill: #fff;stroke: #262626;stroke-miterlimit: 10"/>
          <path d="M253.69,473.18s3.89-14.29,11.47-15.88,7.77.53,11.83,5.47,7.94,17.29,7.94,18.18-.18,16.23-6.18,7.41a172.9,172.9,0,0,1-10.41-17.65" style="fill: #fff;stroke: #262626;stroke-miterlimit: 10"/>
          <path d="M171.53,293,167.76,300s-23-4.47-22.11-9.18,0-4.23,3.29-4.94,4.47-4.23.94-3.76S134.59,281,136,277s10.35-5.88,7.76-8.94-17.64-10.12-17.88-17.65-2.12-16.7,16.24-19.06,27.06-8.47,23.29-15.29-10.59-25.65,2.59-28,31.06-12.94,39.76-4.47,5.89,13.65,9.89,16,10.11-4.94,12.47-11.06,20.23,1.41,20,7.76,2.35,10.83,9.88,13,14.59,9.64,12.47,18.58-10.82,24.71-20,26.83S171.53,293,171.53,293Z" style="fill: #262626"/>
          <path d="M206.12,335.56s-14.12-6.35-23.77-24.47-4.7-20.24-4.7-20.24-2.83,4.94-9.18.94-6.35-18.11-4.94-19.53,7.29-7.29,10.35-.94,2.83,7.06,2.83,7.06-1.65-7.06,7.76-10.59,14.35-10.82,11.29-17.17,1.89-14.36,10.83-12.94,10.82,8.23,22.12,7.53,16.23-7.53,20.94-4,2.35,16,2.11,18.35-3,8.47-3,14.35-.24,21.18-1.42,24.94-8.47,15.53-8.47,15.53l-4,3.53-6.11,3.3Z" style="fill: #fff;stroke: #262626;stroke-miterlimit: 10"/>
          <path d="M201.41,273s10.12-6.12,17.65-2.12" style="fill: none;stroke: #262626;stroke-miterlimit: 10"/>
          <path d="M234.59,270.38s9.41-3.76,12.47.47" style="fill: none;stroke: #262626;stroke-miterlimit: 10"/>
          <path d="M178.59,273.21l11.76,5.64,34.36-.7s4.23-3.3,6.11-.47L256,276.26s.23,12.66-3.53,18.36c-3.41,5.17-6.11,5.3-8,5.17-5.29-.35-11.53-3.53-11.53-8.94s-.7-13-.7-13" style="fill: none;stroke: #262626;stroke-miterlimit: 10"/>
          <path d="M191.53,279.56s-.94,12.23,4.47,17.65,11.53,7.29,18.82,3.29,11-9.64,10.12-17.41c-.6-5.13-.23-4.94-.23-4.94" style="fill: none;stroke: #262626;stroke-miterlimit: 10"/>
          <polyline points="231.06 277.85 229.18 309.91 219.06 305.68" style="fill: none;stroke: #262626;stroke-miterlimit: 10"/>
          <path d="M208.94,312.26s.47,4.48,8.94,5.89" style="fill: none;stroke: #262626;stroke-miterlimit: 10"/>
          <ellipse cx="211.21" cy="283.74" rx="4.06" ry="1.76" transform="translate(-110.73 430.27) rotate(-77.81)" style="fill: #262626"/>
          <path d="M240.81,285.08c-.47,2.19-1.63,3.8-2.58,3.59s-1.34-2.15-.87-4.34,1.63-3.8,2.59-3.59S241.29,282.89,240.81,285.08Z" style="fill: #262626"/>
          <line y1="504.5" x2="548.71" y2="504.5" style="fill: #fff;stroke: #262626;stroke-miterlimit: 10"/>
          <path d="M458,503.79V496H282.94v8.12S458,504.15,458,503.79Z" style="fill: #fbc469;stroke: #262626;stroke-miterlimit: 10"/>
          <path d="M448.82,496.74l12-114.2a8.7,8.7,0,0,0-8.72-9.61L297.45,374.2a8.2,8.2,0,0,0-8.09,7.49l-9.95,114.94Z" style="fill: #262626"/>
          <rect x="194" y="496.03" width="92.82" height="8.82" style="fill: #262626"/>
          <path d="M452.35,496.74l12-114.2a8.7,8.7,0,0,0-8.72-9.61L301,374.2a8.2,8.2,0,0,0-8.09,7.49l-9.95,114.94Z" style="fill: #fbc469;stroke: #262626;stroke-miterlimit: 10"/>
        </g>
      </g>
    </g>
  </g>
</svg>
