<svg xmlns="http://www.w3.org/2000/svg" viewBox="0 0 145 145"><defs><style>.cls-1{fill:none;stroke:#007b64;stroke-linecap:round;stroke-linejoin:round;stroke-width:2px}.cls-2{fill:#ebebeb}.cls-3{fill:#fff}.cls-5{fill:#ffc463}</style></defs><g id="_34_Проверить_необходимость_постановки_на_учет" data-name="34 Проверить необходимость постановки на учет"><path class="cls-1" d="M7.4 134.98h121.18m7.32 0h5.5"/><path class="cls-2" d="M24.59 60.71S29 63 28 70s0 11-1 16c-.81 4-2 8-2 8l-2.82-27.37V64l1.36-2.76z"/><rect class="cls-3" x="33.37" y="45.58" width="68" height="89" rx="7.05"/><path class="cls-2" d="M33.42 126.56h67.79v1.38a7.54 7.54 0 01-7.54 7.54H41a7.54 7.54 0 01-7.54-7.54v-1.38h-.04z"/><rect x="118.11" y="95.47" width="6.37" height="32.67" rx="1.49" transform="rotate(-37.35 121.288 111.806)" stroke-miterlimit="10" stroke-width="1.59" fill="none" stroke="#007b64"/><circle class="cls-5" cx="101.33" cy="85.65" r="20.72"/><circle class="cls-3" cx="101.33" cy="85.65" r="16.33"/><path class="cls-2" d="M107.18 94c-1.42 4.92-6.56 8-6.56 8a16.34 16.34 0 0016.19-21.56c-4.81.43-7.87 5.35-9.63 13.56z"/><path class="cls-1" d="M50.45 60.54H75"/><path class="cls-5" d="M45.39 57v7H43v-5.18h-1.2V57z"/><path class="cls-1" d="M50.45 74.38H75"/><path class="cls-5" d="M46.72 76.13V78h-5.61v-1.49l2.53-2.34a1.87 1.87 0 00.44-.53.86.86 0 00.11-.43.51.51 0 00-.17-.4.77.77 0 00-.51-.14 1.09 1.09 0 00-.6.17 1.15 1.15 0 00-.43.47l-1.78-.89a3 3 0 011.17-1.18 3.74 3.74 0 011.86-.44 3.54 3.54 0 011.47.28 2.28 2.28 0 011 .76 2 2 0 01.36 1.16 2.51 2.51 0 01-.24 1.08 4.13 4.13 0 01-1 1.14l-1 .91z"/><path class="cls-1" d="M50.45 88.31H75"/><path class="cls-5" d="M46.27 88.22a1.92 1.92 0 01.43 1.27 2.13 2.13 0 01-.34 1.17 2.46 2.46 0 01-1.07.89 4.3 4.3 0 01-1.79.34 7.35 7.35 0 01-1.5-.16 5 5 0 01-1.29-.47l.8-1.74a4.22 4.22 0 00.93.38 4.09 4.09 0 001 .13 1.35 1.35 0 00.66-.14.44.44 0 00.25-.4c0-.32-.28-.48-.83-.48h-.93v-1.45l1-1H41.1v-1.83h5.22v1.45L45 87.5a2.25 2.25 0 011.27.72z"/><path class="cls-1" d="M50.45 102.15H75"/><path class="cls-5" d="M47.39 104.45h-.93v1.2h-2.29v-1.2h-3.63V103l3-4.3h2.42l-2.64 4h1v-1.07h2.22v1.07h.93z"/><path class="cls-1" d="M50.45 115.99H75"/><path class="cls-5" d="M46.09 115.5a2 2 0 01.7 1.61 2.28 2.28 0 01-.35 1.22 2.44 2.44 0 01-1.06.9 4.14 4.14 0 01-1.79.34 6.71 6.71 0 01-1.48-.16 4.2 4.2 0 01-1.28-.47l.8-1.74a3.51 3.51 0 00.92.38 3.56 3.56 0 001 .13 1.4 1.4 0 00.66-.14.46.46 0 00.26-.41.4.4 0 00-.23-.37 1.82 1.82 0 00-.83-.13h-2l.35-4.25h4.65v1.78h-2.79v.69h.36a3.18 3.18 0 012.11.62z"/><path class="cls-1" d="M101.21 110.87v16.73a7 7 0 01-7 7H40.42a7 7 0 01-7-7V52.4a7 7 0 017-7h53.79a7 7 0 017 7v7.78"/><path d="M29.12 131.88a6.1 6.1 0 01-.39-.86 6.43 6.43 0 01-.31-1.41l-6.33-63.87a6 6 0 014.17-6.29" stroke-width="1.71" stroke-linecap="round" stroke-linejoin="round" fill="none" stroke="#007b64"/></g></svg>