<svg xmlns="http://www.w3.org/2000/svg" viewBox="0 0 145 145"><defs><style>.cls-1{fill:none;stroke:#007b64;stroke-linecap:round;stroke-linejoin:round;stroke-width:2px}.cls-2{fill:#ebebeb}</style></defs><g id="_44_Разъяснение" data-name="44 Разъяснение"><path class="cls-1" d="M7.07 124.17h9.77m4.04 0h107.39m4.04 0h9.76"/><path class="cls-2" d="M37 40s1.36 8.33 3 18c1.2 7.11-2.07 17.49-5.36 19.67l-3-31v-3L33 41.8"/><path d="M48.41 123.58l-1.67.19a6.17 6.17 0 01-6.85-5.4L31.5 46.6a6.16 6.16 0 015.4-6.84" stroke-width="1.9" stroke-linecap="round" stroke-linejoin="round" stroke="#007b64" fill="none"/><path class="cls-2" d="M43.64 78.67s6 4 9 24 6 21 8 21l-10.88.4-3.16-1.53-1.9-2.87-2.06-41z"/><path class="cls-1" d="M55.68 124l-4.46.19a6.58 6.58 0 01-6.85-6.29l-3.29-77a6.57 6.57 0 016.29-6.85"/><path d="M117.63 46.93v71.24a6 6 0 01-6 6h-54a6 6 0 01-6-6v-84a6 6 0 016-6h42.51l17.49 18.5" fill="#fff"/><path d="M106 124s-12-11-26-10-28.53-17.73-28.53-17.73V114l.71 7 2.14 2.28 6.32.9z" fill="#f1f1f1"/><path class="cls-1" d="M117.47 46.93v71.24a6 6 0 01-6 6h-54a6 6 0 01-6-6v-84a6 6 0 016-6h42.08a1 1 0 01.72.32l17.2 18.18"/><path class="cls-1" d="M109.7 46.67h-5a6 6 0 01-6-6v-5"/><path d="M66.31 92.92h34.31m-34.31 5.64h34.31m-34.31 5.63h34.31" fill="#fff" stroke="#007b64" stroke-linecap="round" stroke-linejoin="round" stroke-width="2"/><path d="M80.8 75l-.12-1.28c-.34-2.66.68-5.57 3.51-8.53 2.54-2.61 4-4.53 4-6.75 0-2.52-1.81-4.19-5.37-4.24a11.11 11.11 0 00-5.71 1.53l-1.35-3.11a16.51 16.51 0 018.08-2c6.5 0 9.44 3.5 9.44 7.25 0 3.35-2.15 5.76-4.87 8.57C85.88 69 85 71.2 85.14 73.72L85.2 75zm-1.25 6.9a3.13 3.13 0 013.39-3.11 3.1 3.1 0 11-3.39 3.11z" fill="#ffc463" stroke="#ffc463" stroke-width=".46" stroke-linecap="round" stroke-linejoin="round"/></g></svg>