<svg xmlns="http://www.w3.org/2000/svg" viewBox="0 0 145 145"><defs><style>.cls-1,.cls-3{fill:none;}.cls-1,.cls-3,.cls-6{stroke:#007b64;}.cls-1,.cls-3,.cls-6,.cls-7{stroke-linecap:round;stroke-linejoin:round;}.cls-1,.cls-6{stroke-width:2px;}.cls-2{fill:#ebebeb;}.cls-3{stroke-width:1.9px;}.cls-4,.cls-6{fill:#fff;}.cls-5{fill:#f1f1f1;}.cls-7{fill:#ffc463;stroke:#ffc463;stroke-width:0.46px;}</style></defs><title>32 Бюджетные счета копия 4</title><g id="_44_Разъяснение" data-name="44 Разъяснение"><line class="cls-1" x1="7.07" y1="124.17" x2="16.84" y2="124.17"/><line class="cls-1" x1="20.88" y1="124.17" x2="128.27" y2="124.17"/><line class="cls-1" x1="132.31" y1="124.17" x2="142.07" y2="124.17"/><path class="cls-2" d="M37,40s1.36,8.33,3,18c1.2,7.11-2.07,17.49-5.36,19.67l-3-31v-3L33,41.8"/><path class="cls-3" d="M48.41,123.58l-1.67.19a6.17,6.17,0,0,1-6.85-5.4L31.5,46.6a6.16,6.16,0,0,1,5.4-6.84"/><path class="cls-2" d="M43.64,78.67s6,4,9,24,6,21,8,21l-10.88.4-3.16-1.53-1.9-2.87-2.06-41Z"/><path class="cls-1" d="M55.68,124l-4.46.19a6.58,6.58,0,0,1-6.85-6.29l-3.29-77a6.57,6.57,0,0,1,6.29-6.85"/><path class="cls-4" d="M117.63,46.93v71.24a6,6,0,0,1-6,6h-54a6,6,0,0,1-6-6v-84a6,6,0,0,1,6-6h42.51l17.49,18.5"/><path class="cls-5" d="M106,124s-12-11-26-10S51.47,96.27,51.47,96.27V114l.71,7,2.14,2.28,6.32.9Z"/><path class="cls-1" d="M117.47,46.93v71.24a6,6,0,0,1-6,6h-54a6,6,0,0,1-6-6v-84a6,6,0,0,1,6-6H99.55a1,1,0,0,1,.72.32l17.2,18.18"/><path class="cls-1" d="M109.7,46.67h-5a6,6,0,0,1-6-6v-5"/><line class="cls-6" x1="66.31" y1="92.92" x2="100.62" y2="92.92"/><line class="cls-6" x1="66.31" y1="98.56" x2="100.62" y2="98.56"/><line class="cls-6" x1="66.31" y1="104.19" x2="100.62" y2="104.19"/><path class="cls-7" d="M80.8,75l-.12-1.28c-.34-2.66.68-5.57,3.51-8.53,2.54-2.61,4-4.53,4-6.75,0-2.52-1.81-4.19-5.37-4.24a11.11,11.11,0,0,0-5.71,1.53l-1.35-3.11a16.51,16.51,0,0,1,8.08-2c6.5,0,9.44,3.5,9.44,7.25,0,3.35-2.15,5.76-4.87,8.57C85.88,69,85,71.2,85.14,73.72L85.2,75Zm-1.25,6.9a3.13,3.13,0,0,1,3.39-3.11,3.1,3.1,0,1,1-3.39,3.11Z"/></g></svg>