<svg xmlns="http://www.w3.org/2000/svg" viewBox="0 0 145 145"><defs><style>.cls-1,.cls-5,.cls-6,.cls-7{fill:none;}.cls-1,.cls-5,.cls-7,.cls-8{stroke:#007b64;}.cls-1,.cls-5,.cls-6,.cls-7,.cls-8{stroke-linecap:round;stroke-linejoin:round;}.cls-1,.cls-6{stroke-width:2px;}.cls-2{fill:#ebebeb;}.cls-3,.cls-8{fill:#fff;}.cls-4{fill:#f1f1f1;}.cls-5{stroke-width:2.04px;}.cls-6{stroke:#ffc463;}.cls-7,.cls-8{stroke-width:1.93px;}.cls-9{fill:#ffc463;}</style></defs><title>33 Личный прием руководством инспекций копия 4</title><g id="_45_Сведения_о_платежах" data-name="45 Сведения о платежах"><line class="cls-1" x1="6.27" y1="123.96" x2="125.89" y2="123.96"/><line class="cls-1" x1="130.4" y1="123.96" x2="141.27" y2="123.96"/><path class="cls-2" d="M32.1,33.13s-2.63,17-2.51,23.77-5.45,14.74-5.45,14.74l-1.6-33.83L23.76,35l1.89-1.29Z"/><path class="cls-1" d="M33.81,120.3a6.32,6.32,0,0,1-6.71-5.92l-4.65-74a6.33,6.33,0,0,1,5.92-6.72l4.13-.26"/><path class="cls-3" d="M105.71,106v11.85A6.12,6.12,0,0,1,99.59,124H44.49a6.12,6.12,0,0,1-6.12-6.13V32.12A6.12,6.12,0,0,1,44.49,26H87.87l17.84,18.88"/><path class="cls-4" d="M38,88s22,7,25,15,22.06,19.91,26.53,21H48.24l-5.86-.38-2.31-1.51L38,119Z"/><path class="cls-5" d="M105.71,108.81v9A6.12,6.12,0,0,1,99.59,124H44.49a6.12,6.12,0,0,1-6.12-6.13V32.12A6.12,6.12,0,0,1,44.49,26H87.43a1,1,0,0,1,.74.32l17.54,18.56"/><polyline class="cls-1" points="105.71 45.14 105.71 54.27 105.71 57.42"/><path class="cls-1" d="M97.55,44.88h-5.1a6.13,6.13,0,0,1-6.13-6.13v-5.1"/><line class="cls-6" x1="47.55" y1="56.19" x2="74.08" y2="56.19"/><line class="cls-6" x1="47.55" y1="63.17" x2="74.08" y2="63.17"/><line class="cls-6" x1="47.55" y1="49.21" x2="74.08" y2="49.21"/><rect class="cls-3" x="73.94" y="72.24" width="52.53" height="26.13" rx="4.82" transform="translate(-28.53 57.99) rotate(-28.43)"/><polygon class="cls-2" points="127.66 80.58 81.59 105.82 82.68 107.72 84.57 108.17 127.76 84.92 128.48 83.75 128.55 82.34 127.66 80.58"/><rect class="cls-7" x="73.94" y="72.24" width="52.53" height="26.13" rx="4.82" transform="translate(-28.53 57.99) rotate(-28.43)"/><circle class="cls-8" cx="100.2" cy="85.3" r="5.69"/><circle class="cls-9" cx="114.65" cy="77.48" r="2.53"/><circle class="cls-9" cx="85.75" cy="93.13" r="2.53"/></g></svg>