<svg xmlns="http://www.w3.org/2000/svg" viewBox="0 0 145 145"><defs><style>.cls-1{fill:none;stroke:#007b64;stroke-linecap:round;stroke-linejoin:round;stroke-width:2px}.cls-2{fill:#ebebeb}.cls-3{fill:#fff}.cls-9{fill:#ffc463}</style></defs><g id="_45_Сведения_о_платежах" data-name="45 Сведения о платежах"><path class="cls-1" d="M6.27 123.96h119.62m4.51 0h10.87"/><path class="cls-2" d="M32.1 33.13s-2.63 17-2.51 23.77-5.45 14.74-5.45 14.74l-1.6-33.83L23.76 35l1.89-1.29z"/><path class="cls-1" d="M33.81 120.3a6.32 6.32 0 01-6.71-5.92l-4.65-74a6.33 6.33 0 015.92-6.72l4.13-.26"/><path class="cls-3" d="M105.71 106v11.85a6.12 6.12 0 01-6.12 6.15h-55.1a6.12 6.12 0 01-6.12-6.13V32.12A6.12 6.12 0 0144.49 26h43.38l17.84 18.88"/><path d="M38 88s22 7 25 15 22.06 19.91 26.53 21H48.24l-5.86-.38-2.31-1.51L38 119z" fill="#f1f1f1"/><path d="M105.71 108.81v9a6.12 6.12 0 01-6.12 6.19h-55.1a6.12 6.12 0 01-6.12-6.13V32.12A6.12 6.12 0 0144.49 26h42.94a1 1 0 01.74.32l17.54 18.56" stroke-width="2.04" stroke-linecap="round" stroke-linejoin="round" stroke="#007b64" fill="none"/><path class="cls-1" d="M105.71 45.14v12.28m-8.16-12.54h-5.1a6.13 6.13 0 01-6.13-6.13v-5.1"/><path d="M47.55 56.19h26.53m-26.53 6.98h26.53M47.55 49.21h26.53" stroke="#ffc463" stroke-linecap="round" stroke-linejoin="round" stroke-width="2" fill="none"/><rect class="cls-3" x="73.94" y="72.24" width="52.53" height="26.13" rx="4.82" transform="rotate(-28.43 100.196 85.308)"/><path class="cls-2" d="M127.66 80.58l-46.07 25.24 1.09 1.9 1.89.45 43.19-23.25.72-1.17.07-1.41-.89-1.76z"/><rect x="73.94" y="72.24" width="52.53" height="26.13" rx="4.82" transform="rotate(-28.43 100.196 85.308)" stroke-width="1.93" stroke-linecap="round" stroke-linejoin="round" stroke="#007b64" fill="none"/><circle cx="100.2" cy="85.3" r="5.69" stroke-width="1.93" fill="#fff" stroke-linecap="round" stroke-linejoin="round" stroke="#007b64"/><circle class="cls-9" cx="114.65" cy="77.48" r="2.53"/><circle class="cls-9" cx="85.75" cy="93.13" r="2.53"/></g></svg>