<svg xmlns="http://www.w3.org/2000/svg" xmlns:xlink="http://www.w3.org/1999/xlink" width="1386.24" height="761.73" viewBox="0 0 1386.24 761.73">
  <defs>
    <clipPath id="clip-path" transform="translate(0 -22.54)">
      <ellipse cx="1236.47" cy="639.64" rx="35.31" ry="8.01" style="fill: #fbc469;stroke: #262626;stroke-miterlimit: 10"/>
    </clipPath>
  </defs>
  <title>Ресурс 5</title>
  <g id="Слой_2" data-name="Слой 2">
    <g id="Слой_1-2" data-name="Слой 1">
      <g>
        <path d="M704.74,58a272.27,272.27,0,0,0-72,24c-46.14,23-59.25,46.44-113,81.88-34.66,22.88-52.3,34.52-79,42.36C382.2,223.33,357,199.7,284,202c-23.26.72-78.58,3-134.12,32.47-19.64,10.42-99.42,52.76-125.65,148.24C-3.36,483.25,50,564.22,58.15,576.08,104.62,644,185.6,684.69,253,680.55c20.24-1.25,35.22-6.28,70.59-5.65,48.11.87,84.49,11.34,103.06,16.94,94.6,28.55,146.11,57.11,196.23,73.41,146.6,47.69,283.8-8.7,296.47-14.11,33.69-14.4,130.32-55.7,184.94-162.36,63.87-124.71,23.17-246.76,15.53-269.64-23.32-69.94-63.48-115.82-86.11-141.18-23.65-26.49-61.36-68.74-124.24-97.41C824.22,41.69,743.22,50.76,704.74,58Z" transform="translate(0 -22.54)" style="fill: #c5c5c5"/>
        <g>
          <path d="M443.71,646.48H403.35v100H327.71v-100H153.37V599.33l132-383.61H366v3.05L242.24,579h85.47V419.22h75.64V579h40.36Z" transform="translate(0 -22.54)" style="fill: #00654d;stroke: #262626;stroke-miterlimit: 10"/>
          <path d="M750,698q0,48.51-47.82,48.5H536.65q-47.14,0-47.15-48.5V264.56q0-48.84,48.17-48.84h164.5q47.82,0,47.82,48.84Zm-77.67-19.67V283.89H567.51V678.36Z" transform="translate(0 -22.54)" style="fill: #00654d;stroke: #262626;stroke-miterlimit: 10"/>
          <path d="M1084.08,646.48h-40.36v100H968.08v-100H793.75V599.33L925.69,215.72h80.72v3.05L882.61,579h85.47V419.22h75.64V579h40.36Z" transform="translate(0 -22.54)" style="fill: #00654d;stroke: #262626;stroke-miterlimit: 10"/>
        </g>
        <g>
          <path d="M261.2,236.39l11.26-32.73h80.72v3.05L229.38,566.92h85.47V407.16h75.64v33.39M173.91,634.42h-33.4V587.27l112.75-327.8M390.49,529.84v37.08h40.36v67.5H390.49V734.47H314.85V634.42H195.09M390.49,463v58.59" transform="translate(0 -22.54)" style="fill: none;stroke: #262626;stroke-miterlimit: 10"/>
          <path d="M476.64,476.84V449.78m260.49-74.64V686q0,48.51-47.82,48.5H523.79q-47.14,0-47.15-48.5V484.67M737.13,349.72v16.95m-147.22-163h99.4q47.82,0,47.82,48.84v71.34M558.85,203.66h22.59M476.64,430V252.5q0-48.84,48.17-48.84H541M659.46,506.9V492.78m0-21.64V271.83H554.65V666.3H659.46v-149" transform="translate(0 -22.54)" style="fill: none;stroke: #262626;stroke-miterlimit: 10"/>
          <path d="M862.85,634.42h-82V587.27l59.65-173.45m50.78,220.6h-12m167.53,0h-16V734.47H955.23V634.42H898.15m118.59-227.26h14.12V566.92h40.36v67.5h-7.43M955.23,490.9V407.16h47.86m-28-146.63L869.75,566.92h85.48V507.84m-100.6-135,58.2-169.21h80.72v3.05l-11.38,33.13" transform="translate(0 -22.54)" style="fill: none;stroke: #262626;stroke-miterlimit: 10"/>
        </g>
        <g>
          <line x1="857.21" y1="724.13" x2="1316.03" y2="724.13" style="fill: none;stroke: #262626;stroke-miterlimit: 10"/>
          <line x1="302.38" y1="724.13" x2="802.15" y2="724.13" style="fill: none;stroke: #262626;stroke-miterlimit: 10"/>
          <line x1="55.32" y1="724.13" x2="262.62" y2="724.13" style="fill: none;stroke: #262626;stroke-miterlimit: 10"/>
        </g>
        <g>
          <g>
            <path d="M1234.26,746.65l36.08-.37,10.48-106.79-89.6,1.17,10,105.87Z" transform="translate(0 -22.54)" style="fill: #fbc469;stroke: #262626;stroke-miterlimit: 10"/>
            <ellipse cx="1235.98" cy="616.95" rx="44.84" ry="11.07" style="fill: #fbc469;stroke: #262626;stroke-miterlimit: 10"/>
            <g>
              <ellipse cx="1236.47" cy="617.1" rx="35.31" ry="8.01" style="fill: #fbc469"/>
              <g style="clip-path: url(#clip-path)">
                <line x1="1231.94" y1="620.74" x2="1238.68" y2="622.49" style="fill: #fff;stroke: #262626;stroke-miterlimit: 10"/>
                <ellipse cx="1236.47" cy="623.22" rx="35.31" ry="6.26" style="fill: #262626"/>
              </g>
              <ellipse cx="1236.47" cy="617.1" rx="35.31" ry="8.01" style="fill: none;stroke: #262626;stroke-miterlimit: 10"/>
            </g>
          </g>
          <g>
            <path d="M1138.74,330.85s-16.63,67.91,5.55,108.11,55.44,92.87,62.37,126.14,12.47,80.39,12.47,80.39" transform="translate(0 -22.54)" style="fill: none;stroke: #262626;stroke-miterlimit: 10"/>
            <path d="M1341.11,340.55s-40.2,41.58-47.13,92.87-11.08,156.63-41.58,206.52" transform="translate(0 -22.54)" style="fill: none;stroke: #262626;stroke-miterlimit: 10"/>
            <path d="M1164.34,297.41c-2.1,11.68-17.41,37-26.07,35.46s-7.41-29.4-5.31-41.08,10.81-19.89,19.48-18.34S1166.43,285.74,1164.34,297.41Z" transform="translate(0 -22.54)" style="fill: #fff;stroke: #262626;stroke-miterlimit: 10"/>
            <path d="M1173.94,370.64c-8.79,6.91-35.43,15.16-40.56,8.64s13.2-25.34,22-32.25,20.06-7.23,25.19-.71S1182.73,363.73,1173.94,370.64Z" transform="translate(0 -22.54)" style="fill: #fff;stroke: #262626;stroke-miterlimit: 10"/>
            <path d="M1237,526.48c-7.28,8.48-31.82,21.73-38.11,16.33s8-27.41,15.33-35.9,18.29-11,24.58-5.57S1244.33,518,1237,526.48Z" transform="translate(0 -22.54)" style="fill: #fff;stroke: #262626;stroke-miterlimit: 10"/>
            <path d="M1204,472.43c-7.28,8.48-31.82,21.72-38.11,16.32s8-27.41,15.33-35.89,18.29-11,24.58-5.58S1211.3,463.94,1204,472.43Z" transform="translate(0 -22.54)" style="fill: #fff;stroke: #262626;stroke-miterlimit: 10"/>
            <path d="M1181.14,417.33c-7.28,8.48-31.82,21.73-38.11,16.32s8-27.41,15.33-35.89,18.29-11,24.58-5.57S1188.43,408.85,1181.14,417.33Z" transform="translate(0 -22.54)" style="fill: #fff;stroke: #262626;stroke-miterlimit: 10"/>
            <path d="M1379.7,327.93c-7.28,8.48-31.82,21.72-38.12,16.32s8.05-27.41,15.34-35.89,18.28-11,24.58-5.58S1387,319.44,1379.7,327.93Z" transform="translate(0 -22.54)" style="fill: #fff;stroke: #262626;stroke-miterlimit: 10"/>
            <path d="M1243.56,575.12c-3.65,10.56-21.6,31.91-29.44,29.2s-2.6-28.45,1.05-39,13-16.94,20.81-14.23S1247.21,564.55,1243.56,575.12Z" transform="translate(0 -22.54)" style="fill: #fff;stroke: #262626;stroke-miterlimit: 10"/>
            <path d="M1309.17,609.41c-10.56,3.65-38.44,2.71-41.15-5.13s20.78-19.61,31.34-23.26,21.33-.25,24,7.59S1319.74,605.76,1309.17,609.41Z" transform="translate(0 -22.54)" style="fill: #fff;stroke: #262626;stroke-miterlimit: 10"/>
            <path d="M1323.73,552.23c-10.57,3.65-38.44,2.72-41.15-5.12s20.77-19.61,31.34-23.27,21.33-.25,24,7.59S1334.29,548.58,1323.73,552.23Z" transform="translate(0 -22.54)" style="fill: #fff;stroke: #262626;stroke-miterlimit: 10"/>
            <path d="M1332,493c-10.56,3.65-38.44,2.71-41.14-5.13s20.77-19.61,31.33-23.26,21.33-.26,24,7.58S1342.61,489.33,1332,493Z" transform="translate(0 -22.54)" style="fill: #fff;stroke: #262626;stroke-miterlimit: 10"/>
            <path d="M1336.2,436.84c-10.56,3.65-38.44,2.72-41.15-5.12s20.78-19.62,31.34-23.27,21.33-.25,24,7.59S1346.77,433.19,1336.2,436.84Z" transform="translate(0 -22.54)" style="fill: #fff;stroke: #262626;stroke-miterlimit: 10"/>
            <path d="M1353.87,390.06c-10.56,3.65-38.44,2.71-41.14-5.13s20.77-19.61,31.34-23.26,21.32-.25,24,7.59S1364.44,386.41,1353.87,390.06Z" transform="translate(0 -22.54)" style="fill: #fff;stroke: #262626;stroke-miterlimit: 10"/>
            <path d="M1311.44,336.86c5.46,9.76,9.47,37.36,2.24,41.41s-23-17-28.45-26.73-4-20.94,3.21-25S1306,327.11,1311.44,336.86Z" transform="translate(0 -22.54)" style="fill: #fff;stroke: #262626;stroke-miterlimit: 10"/>
            <path d="M1282.88,389.57c7.1,8.64,15.91,35.1,9.51,40.37s-25.62-12.66-32.71-21.3-7.66-19.9-1.25-25.17S1275.78,380.94,1282.88,389.57Z" transform="translate(0 -22.54)" style="fill: #fff;stroke: #262626;stroke-miterlimit: 10"/>
            <path d="M1268.33,513.28c7.09,8.64,15.91,35.1,9.5,40.36s-25.61-12.65-32.71-21.29-7.66-19.9-1.25-25.17S1261.23,504.65,1268.33,513.28Z" transform="translate(0 -22.54)" style="fill: #fff;stroke: #262626;stroke-miterlimit: 10"/>
            <path d="M1256.89,570.46c7.1,8.64,15.92,35.09,9.51,40.36s-25.62-12.65-32.71-21.29-7.66-19.91-1.25-25.17S1249.79,561.82,1256.89,570.46Z" transform="translate(0 -22.54)" style="fill: #fff;stroke: #262626;stroke-miterlimit: 10"/>
            <path d="M1113,344.83c9.17,6.39,24.82,29.48,20.08,36.28s-28.08-5.25-37.26-11.64-12.76-17.09-8-23.89S1103.83,338.44,1113,344.83Z" transform="translate(0 -22.54)" style="fill: #fff;stroke: #262626;stroke-miterlimit: 10"/>
            <path d="M1110.14,407.45c10.61,3.53,32.16,21.23,29.54,29.1s-28.42,2.93-39-.6-17.08-12.78-14.46-20.65S1099.54,403.92,1110.14,407.45Z" transform="translate(0 -22.54)" style="fill: #fff;stroke: #262626;stroke-miterlimit: 10"/>
            <path d="M1140.29,462.55c10.61,3.53,32.16,21.23,29.54,29.1s-28.42,2.93-39-.61-17.08-12.77-14.46-20.64S1129.69,459,1140.29,462.55Z" transform="translate(0 -22.54)" style="fill: #fff;stroke: #262626;stroke-miterlimit: 10"/>
            <path d="M1168.36,519.72c10.61,3.53,32.16,21.24,29.54,29.11s-28.42,2.92-39-.61-17.08-12.77-14.46-20.64S1157.75,516.19,1168.36,519.72Z" transform="translate(0 -22.54)" style="fill: #fff;stroke: #262626;stroke-miterlimit: 10"/>
            <path d="M1181.35,576.9c10.61,3.53,32.16,21.23,29.54,29.1s-28.42,2.93-39-.6-17.08-12.78-14.47-20.65S1170.75,573.37,1181.35,576.9Z" transform="translate(0 -22.54)" style="fill: #fff;stroke: #262626;stroke-miterlimit: 10"/>
            <path d="M1273.33,450.69c7.85,8,19,33.51,13.11,39.34s-26.65-10.29-34.5-18.25-9.43-19.13-3.52-25S1265.48,442.73,1273.33,450.69Z" transform="translate(0 -22.54)" style="fill: #fff;stroke: #262626;stroke-miterlimit: 10"/>
          </g>
        </g>
        <path d="M138.62,268.31h-72a15.53,15.53,0,0,0-15.53,15.53v39.53A15.53,15.53,0,0,0,66.62,338.9h8.17l11.59,16.94.89-16.94h51.35a15.53,15.53,0,0,0,15.53-15.53V283.84A15.54,15.54,0,0,0,138.62,268.31Z" transform="translate(0 -22.54)" style="fill: none;stroke: #262626;stroke-miterlimit: 10"/>
        <path d="M981.09,105.37h72a15.53,15.53,0,0,1,15.53,15.53v39.53A15.53,15.53,0,0,1,1053.09,176h-8.18l-11.59,16.94-.89-16.94H981.09a15.53,15.53,0,0,1-15.53-15.53V120.9A15.53,15.53,0,0,1,981.09,105.37Z" transform="translate(0 -22.54)" style="fill: none;stroke: #262626;stroke-miterlimit: 10"/>
        <path d="M59.25,346.55H10.92A10.43,10.43,0,0,0,.5,357v26.54a10.43,10.43,0,0,0,10.42,10.42h5.49l7.78,11.37.6-11.37H59.25a10.43,10.43,0,0,0,10.43-10.42V357A10.43,10.43,0,0,0,59.25,346.55Z" transform="translate(0 -22.54)" style="fill: none;stroke: #262626;stroke-miterlimit: 10"/>
        <path d="M1058.07,182.93h48.33a10.43,10.43,0,0,1,10.43,10.43v26.53a10.42,10.42,0,0,1-10.43,10.42h-5.48l-7.79,11.37-.59-11.37h-34.47a10.42,10.42,0,0,1-10.42-10.42V193.36A10.43,10.43,0,0,1,1058.07,182.93Z" transform="translate(0 -22.54)" style="fill: none;stroke: #262626;stroke-miterlimit: 10"/>
        <g>
          <path d="M110.66,724.68h-35V687h35Z" transform="translate(0 -22.54)" style="fill: none;stroke: #262626;stroke-miterlimit: 10"/>
          <path d="M169.35,724.68h-35V687h35Z" transform="translate(0 -22.54)" style="fill: none;stroke: #262626;stroke-miterlimit: 10"/>
          <path d="M228,724.68H193V687h35Z" transform="translate(0 -22.54)" style="fill: none;stroke: #262626;stroke-miterlimit: 10"/>
        </g>
        <g>
          <path d="M448.16,177.09h-22V153.43h22Z" transform="translate(0 -22.54)" style="fill: none;stroke: #262626;stroke-miterlimit: 10"/>
          <path d="M485,177.09H463V153.43h22Z" transform="translate(0 -22.54)" style="fill: none;stroke: #262626;stroke-miterlimit: 10"/>
          <path d="M521.87,177.09h-22V153.43h22Z" transform="translate(0 -22.54)" style="fill: none;stroke: #262626;stroke-miterlimit: 10"/>
        </g>
        <g>
          <path d="M644.5,102.31s-10.94-3.53-13.41-6.7-6-8.12-3.88-13.41,8.29-3.18,6.08-10.5a105.44,105.44,0,0,1-4.41-25.86c-.17-8.47-.17-12.17,5.38-14.56s17.21-8.47,24.18-8.73S677.06,28.46,682.79,38s12.53,15.09,11.74,27.44-3.27,15.44-2.74,18.79,2.74,9.8,4.77,12.36,3,8-5.38,10.76-15.62,7.15-19.77,3.88-3.44-6.7-2.56-7.41,3.53.8,1.41-1.32-3.17-10.68-8.64-12.71-13.33-1.76-15.18.09S644.5,102.31,644.5,102.31Z" transform="translate(0 -22.54)" style="fill: #262626"/>
          <path d="M618.38,192.55l-24.31-26.33a3.3,3.3,0,0,1-.72-3.3l9.5-29,13.89,9.65-7.32,18.08a3.06,3.06,0,0,0,.46,3.09L619.79,177Z" transform="translate(0 -22.54)" style="fill: #fff;stroke: #262626;stroke-miterlimit: 10"/>
          <path d="M616.8,146.09l-19.39-11.63a2.08,2.08,0,0,1-.82-2.68c2.7-5.81,11.46-24.65,12.85-27.23,1.65-3.06,3.77-5.41,9.88-5.41s16.71,0,19.77-1.18,6.59-8,6.35-12.47c-.22-4.21,17.54-.48,19.58,0a.25.25,0,0,1,.2.23c.13,1.51,1.19,11.46,7.28,13,6.59,1.64,10.59-3.53,21.88,7.53a134.26,134.26,0,0,1,18.28,23,2.13,2.13,0,0,1-.53,2.82L692,147.19a2.12,2.12,0,0,1-3.05-.53l-4.59-7a.28.28,0,0,0-.52.15v27a.28.28,0,0,1-.29.28L623.56,165a.28.28,0,0,1-.26-.25l-3-27a.28.28,0,0,0-.55,0l-1.29,7.57A1.07,1.07,0,0,1,616.8,146.09Z" transform="translate(0 -22.54)" style="fill: #fff;stroke: #262626;stroke-miterlimit: 10"/>
          <path d="M637.09,70.9s-6.18-.88-7.41-6,0-12.53,5.47-4.06c0,0,14.47-14.29,15.17-19.23,0,0,13.06,23.29,16.24,27.7s3.7,12.18,1.94,13.59-8.12,9.88-9,9.88-9,1.94-17.82-11.82C641.68,81,639.38,79,637.09,70.9Z" transform="translate(0 -22.54)" style="fill: #fff;stroke: #262626;stroke-miterlimit: 10"/>
          <path d="M638.38,98.31s18.71,20,32.71.12" transform="translate(0 -22.54)" style="fill: none;stroke: #262626;stroke-miterlimit: 10"/>
          <path d="M710.62,137.72s5.64,3.77,5.88,8.95-3.29,11.05-5.41,12.94S704,160.08,701,157s-33.41-35.3-37.41-39.3c-3.49-3.49-2.5-5.19-8.3-8.38a9.56,9.56,0,0,1-4.83-7.15,21.09,21.09,0,0,1,0-4.94s-3.76-1.64-4.7-2.82-.94-5.41,1.41-5.65,10.47,4.94,12.41,4,1.24-4.47,2.41-5.64,2.35-3.53,3.3.94c.69,3.31.62,13.35.53,18.32a5.12,5.12,0,0,0,2.37,4.4Z" transform="translate(0 -22.54)" style="fill: #fff;stroke: #262626;stroke-miterlimit: 10"/>
          <path d="M642.38,62.67a7,7,0,0,1,6.83-2.59" transform="translate(0 -22.54)" style="fill: none;stroke: #262626;stroke-miterlimit: 10"/>
          <path d="M657,60.31s5.65-1.88,8.24.71" transform="translate(0 -22.54)" style="fill: none;stroke: #262626;stroke-miterlimit: 10"/>
          <ellipse cx="647.19" cy="44.39" rx="1.46" ry="2.29" style="fill: #262626"/>
          <ellipse cx="661.84" cy="44.39" rx="1.46" ry="2.29" style="fill: #262626"/>
          <path d="M649.44,81.4s5.21,4.15,10.06-.26" transform="translate(0 -22.54)" style="fill: none;stroke: #262626;stroke-miterlimit: 10"/>
          <path d="M652,77.52s3.18,4.32,5.29,0" transform="translate(0 -22.54)" style="fill: none;stroke: #262626;stroke-miterlimit: 10"/>
          <path d="M605.56,226.08s-3.06,6.12-.35,10.23,5.53,7.89,22.58,3.65,17-7.53,17-7.53Z" transform="translate(0 -22.54)" style="fill: #fff;stroke: #262626;stroke-miterlimit: 10"/>
          <path d="M613.26,194.25h-9.7c-2.82,0-4.77-.35-11.3-2.64s-6.35-3.71-10.41-4.77-9.69.31-11.64,3.88c-2.12,3.89-5.3,7.95-1.42,14.48s11,15.35,22.42,18.52c7.47,2.08,52.58,13.24,52.58,13.24l5.3-17.29s7.59,1.76,8.29,3,1.06,1.94,1.06,1.94l25.24,6.17s40.76-11.11,44.29-13.06,11.47-2.29,10.06-17.47S723.91,187,720,188.78s-4.41,2.83-6.88,3.36-19.59,1.23-19.59,1.23Z" transform="translate(0 -22.54)" style="fill: #262626"/>
          <polygon points="613.91 180.01 614.03 138.01 693.32 138.48 692.62 181.66 685.56 185.77 622.97 185.54 613.91 180.01" style="fill: #fbc469;stroke: #262626;stroke-miterlimit: 10"/>
          <path d="M655.79,236.25s26.83,5.12,33.18,5.47,24.35,3,29.12.18,5.65-7.23,4.59-9.88-5.83-8.47-13.42-6.35-19.41,4.94-23.64,5.11-30-7.41-30-7.41Z" transform="translate(0 -22.54)" style="fill: #fff;stroke: #262626;stroke-miterlimit: 10"/>
          <path d="M647.68,222.31a3.15,3.15,0,0,1,3-2.47c2.47,0,6.35,1.94,6.88,4.06s-.71,9.88-1.41,11.65-1.41,3.88-3.71,3.88-6.18,0-7.41-.71-2.65-2.64-.71-7.58S647.68,222.31,647.68,222.31Z" transform="translate(0 -22.54)" style="fill: #fff;stroke: #262626;stroke-miterlimit: 10"/>
          <path d="M686.5,230.9s3.18,5.88-.12,10.59" transform="translate(0 -22.54)" style="fill: none;stroke: #262626;stroke-miterlimit: 10"/>
          <path d="M609.56,227.37s-3.18,7.88,2.82,14" transform="translate(0 -22.54)" style="fill: none;stroke: #262626;stroke-miterlimit: 10"/>
        </g>
        <g>
          <path d="M195.09,377s-4.47,3.29-5.18-2.59,8-12,16.47-13.41,23.06-6.59,29.65,13.65c0,0,18.59,4.94,24.23,12.47s8.24,15.06,8,21.88-3.05,17.65-3.76,18.59c0,0,8.24,8,5.18,17.64S237,433.49,237,433.49s7.77-33.41-.23-45.65c0,0,2.58,6.12-1.18,10.36s-17.24-1.61-21.41-6.36C209,386,205.68,372.31,195.09,377Z" transform="translate(0 -22.54)" style="fill: #262626"/>
          <polygon points="206.74 422.95 238.85 424.71 222.62 501.65 190.15 491.77 206.74 422.95" style="fill: #fff;stroke: #262626;stroke-miterlimit: 10"/>
          <path d="M194.85,628.9A96.53,96.53,0,0,0,198,643.72c2.23,7.18.35,17.06.59,21.77S202,687,204.38,693.61s3.65,26.59,3.77,30.59.7,10.7.7,10.7l-12.59,9.65s-2.7,5.53,3.3,5.41,16.7-5.41,18.47-7.76,6-110.36,6-110.36Z" transform="translate(0 -22.54)" style="fill: #fff;stroke: #262626;stroke-miterlimit: 10"/>
          <path d="M216.5,633.37s.35,9.65.12,12.94.35,26.12-.12,30.24,2.71,27.88,2.94,32.12.35,29.88-.94,32.82-8.47,6.12-5.29,9.18,4.94,5.41,12.23.82c0,0,4.59-10.59,4.94-14s.47-13.41,1.65-17.53,6-23.29,6.82-27.53,1.65-27.18.94-33.76-.23-27.3-.23-27.3Z" transform="translate(0 -22.54)" style="fill: #fff;stroke: #262626;stroke-miterlimit: 10"/>
          <path d="M194.15,511.37s19.06,5.18,28.94,3.77S256.5,541,256.5,541l1.88,28.47s-.23,24.71-3.29,32.71-6.83,26.58-6.83,26.58-27.76,16-64-1.88c0,0-15.76-55.53-5.64-76.7A314,314,0,0,0,194.15,511.37Z" transform="translate(0 -22.54)" style="fill: #262626"/>
          <path d="M192.26,377.49s-1.88,15.29.48,23.06,8,22.12,14.82,26.35c5.06,3.14,7.92,1.5,9.06.43a.22.22,0,0,1,.35.22l-5.71,21.2,19.86,1.15s1.38-18.53,2.56-21.35-1.89-19.77-1.89-19.77,8-12.94,6.12-16.23-6.82-4.71-8,4.47c0,0-10.82,4-19.76-11.06S192.26,377.49,192.26,377.49Z" transform="translate(0 -22.54)" style="fill: #fff;stroke: #262626;stroke-miterlimit: 10"/>
          <path d="M193.91,392.31s4.94-2.59,6.35-.94" transform="translate(0 -22.54)" style="fill: none;stroke: #262626;stroke-miterlimit: 10"/>
          <path d="M201.68,394.2a10.83,10.83,0,0,1,1.88,3.05c.94,2.12,0,7.06-.24,9.42s-3.29,4.7,3.77,4.94" transform="translate(0 -22.54)" style="fill: none;stroke: #262626;stroke-miterlimit: 10"/>
          <path d="M208.26,389.25s3.77-2.58,6.36-.7" transform="translate(0 -22.54)" style="fill: none;stroke: #262626;stroke-miterlimit: 10"/>
          <path d="M211.79,395s-.23,2.94,1,4.35,4.74.73,6.29.18" transform="translate(0 -22.54)" style="fill: none;stroke: #262626;stroke-miterlimit: 10"/>
          <path d="M196.26,397.72a8.89,8.89,0,0,0,.24,3.3c.47,1.18,2.82,1.18,4.24.47" transform="translate(0 -22.54)" style="fill: none;stroke: #262626;stroke-miterlimit: 10"/>
          <path d="M207.85,415.61a4.61,4.61,0,0,0,6.59-2.59" transform="translate(0 -22.54)" style="fill: none;stroke: #262626;stroke-miterlimit: 10"/>
          <polygon points="136.09 443.77 169 443.77 185.24 478.27 185.24 484.8 160.18 484.8 136.09 443.77" style="fill: #fbc469;stroke: #262626;stroke-miterlimit: 10"/>
          <path d="M165,510.17s-3.71-4.33-3.79-4.86,2.2-3.35-.53-9.53c0,0,2.38-4.06,3.53-5.73s2.64-4.85.61-3.53-4.32,5.2-5.2,4.32,1.85-8.82,1.85-10.41.09-5.73-1.5-2.38-2.12,8.65-3.53,8.47.88-9.8.88-11.65.18-5.2-1.67-3.09-1.6,12.16-3.53,14.21c-1.41,1.5.09-9.53-.53-10.85s-1.86-1.86-2.3.26.18,10.5-1.5,10.5-2.82-9.44-4.23-9.7-.53,12.88,2.56,17,14.2,23,16.5,24.89S165,510.17,165,510.17Z" transform="translate(0 -22.54)" style="fill: #fff;stroke: #262626;stroke-miterlimit: 10"/>
          <path d="M164.41,508.78l-3.56,12.76a.93.93,0,0,0,.88,1.18l26.06.59.53-15.35-23.06.17A.88.88,0,0,0,164.41,508.78Z" transform="translate(0 -22.54)" style="fill: #fff;stroke: #262626;stroke-miterlimit: 10"/>
          <path d="M170.85,558s10.36-24.47,12.94-35.29,1.5-38.12,2.12-50.59c.47-9.41-3.53-25.65,1.41-28.71s29-12.7,29-12.7-17.72,76.94-18.9,82.58-9.88,40.47-15.29,44S172,558.2,170.85,558Z" transform="translate(0 -22.54)" style="fill: #fff;stroke: #262626;stroke-miterlimit: 10"/>
          <path d="M234.38,428.31s20.47,11.53,28.71,14.83,10.59,5.41,11.06,9.64.23,75.77-.24,78.59-4.47,3.3-8.47,1.41-8.7-4.7-8.7-4.7l7.76,40c-16,2.82-22.59,6.12-36.71-3.06S217,544.08,216.74,526s-2.59-33.65,0-42.82S234.38,428.31,234.38,428.31Z" transform="translate(0 -22.54)" style="fill: #fff;stroke: #262626;stroke-miterlimit: 10"/>
          <path d="M207.79,433.72s-4.94,14.36-5.41,18.59-1.41,28.47.94,33.65l13-55.29Z" transform="translate(0 -22.54)" style="fill: #fbc469;stroke: #262626;stroke-miterlimit: 10"/>
          <path d="M233.68,428.55l8,4.23s-2.36,23.3-7.53,31.06-15.53,20.71-17.41,22.36a57.16,57.16,0,0,1,4.47-16.95C225.21,459.84,233.68,428.55,233.68,428.55Z" transform="translate(0 -22.54)" style="fill: #fbc469;stroke: #262626;stroke-miterlimit: 10"/>
          <path d="M216.56,495.7s-12.35-10.86-14.21-11.3-7.59-4.59-11-2.38-11.38,9.44-11.38,9.44-1.32,2.56,1.77,2.12,8.73-5.56,8.73-5.56-1,3.79.18,5.29,6.88,3.89,8.47,3.36,3-2.3,2.91-3.53-.18,6.61,6.09,2.64l7,7.68" transform="translate(0 -22.54)" style="fill: #fff;stroke: #262626;stroke-miterlimit: 10"/>
          <polyline points="248.5 443.42 251.09 481.3 216.97 472.36 212.03 484.13 256.74 505.54" style="fill: #fff;stroke: #262626;stroke-miterlimit: 10"/>
          <path d="M199.09,742.31s-5.3,2.24-2.24,3.3,10.59,2.35,16.94-2.24,5-4.7,5-4.7L218.5,742a44,44,0,0,1-8.12,8.71c-4.19,3.2-9.2,4.58-11.41,4.58-4.59,0-13.65,0-10.47-4.58S199.09,742.31,199.09,742.31Z" transform="translate(0 -22.54)" style="fill: #262626"/>
          <path d="M218.85,740.9s-4.82,6.82-5.17,8.71,3.79,3.78,6.82,2.59c4.47-1.77,8.12-8.36,9.18-11.18s1.06-5.88,1.64-4.24-.7,7.42-1.06,9.65-3.41,9.88-6.47,11.53c-4.09,2.21-12.23,6.59-15.17,5.29-4.15-1.82-2.47-8.35-.59-10.47S218.85,740.9,218.85,740.9Z" transform="translate(0 -22.54)" style="fill: #262626"/>
        </g>
        <g>
          <path d="M808.35,714.08a3.71,3.71,0,0,1,2.82,2.82c.35,2.3.18,11.82,3.35,13.06s15.89,5.82,19.94,6.88,6.18,1.77,5.65,4.77,1.24,6-4.41,6.7-45,3.71-46.77.36-.52-32.65-.52-32.65Z" transform="translate(0 -22.54)" style="fill: #fff;stroke: #262626;stroke-miterlimit: 10"/>
          <path d="M766.52,627.25s-8.29,1.06-13.06,1.06-9.88-.88-11.29,3,.35,16.41.71,20.3-1.42,11.29-1.42,15-1.58,14.82,5.12,12.17,10.77-22.94,11.65-25.41,4.94-4.41,8.82-5.12a42.85,42.85,0,0,0,6.71-1.76Z" transform="translate(0 -22.54)" style="fill: #fff;stroke: #262626;stroke-miterlimit: 10"/>
          <path d="M775.52,621.43c.36,4.06-1.76,3.18-2.47,3.35s-1.23-2.64-2.29-1.23-1.41,2.47-3.18,2.12-3.88.88-1.23,2.47,4.06,16.94,4.06,18.7,1.41,2.47,4.58,3.36,4.59-2.48,6.36-3.71-.36,10.59-1.59,17.12,3.53,34.41,4.41,39,.53,6,.88,7.76,1.94,2.65,1.24,3.88-1.06,3.89,2.12,4.59,20.82-3.88,22.41-4.41.17-2.82.7-4.06,0-2.65-.7-4.06-3,.53-3.36-1.41-.35-27.88-.35-32.82,1.41-33.71,2.82-34.77,34.77-12,41-18.53-8.83-31.41-11.12-36.35-18-24.35-19.06-27.53-1.41-7.41-1.06-13.59-4.06-15.53-4.06-15.53l-17.65,2.3s-37.76,11.29-40.23,25.59,3.18,23.11,5.12,28.76S775.17,617.37,775.52,621.43Zm34.24-11.82.17-6.89,4.77,3.89Z" transform="translate(0 -22.54)" style="fill: #262626"/>
          <path d="M848.17,380.2s0-8.95-9.65-16-22.35-8.71-35.29-2.12-11.06,20.47-10.82,26.12,1.17,19.29,1.17,19.29L809.82,404Z" transform="translate(0 -22.54)" style="fill: #262626"/>
          <path d="M848.17,380.2s.47,16.94-4.71,20.23-3.53,10.12-3.76,14.12-7.29,1.65-8,1.65-6.59,11.29-9.18,11.29-8.47-3.53-9.88-4.94-10.82,8.23-10.82,8.23l-13.65-21.41a30.59,30.59,0,0,0,6.35-5.17c2.12-2.59,10.59-1.65,12-1.65s-.23-1.18-1.64-4.24-4-11.06,3-13.17,5.42,2.11,6.59,4.47,3.3,1.64,6.12-.94,5.88-3.53,9.65-2.12,2.35-5.41,4.47-7.53S837.82,375,848.17,380.2Z" transform="translate(0 -22.54)" style="fill: #fff;stroke: #262626;stroke-miterlimit: 10"/>
          <path d="M838.76,399.25s.47-4.47-3.53-4.23" transform="translate(0 -22.54)" style="fill: none;stroke: #262626;stroke-miterlimit: 10"/>
          <ellipse cx="833.7" cy="401.25" rx="2.12" ry="1.24" transform="translate(-5.68 767.95) rotate(-50.58)" style="fill: #262626"/>
          <path d="M836.23,485.55s8.47-7.77,11.12-7.06,6,0,6-3.88-9.89-8.65-9.71-10.77-1.76-5.47-1.76-7.06-6.36,6-7.06,10.06,2.11,5.47-.71,7.94-5.82,5.12-5.82,5.12Z" transform="translate(0 -22.54)" style="fill: #fff;stroke: #262626;stroke-miterlimit: 10"/>
          <polygon points="783.46 523.01 788.4 529.54 781.52 537.3 777.64 527.95 783.46 523.01" style="fill: #fff;stroke: #262626;stroke-miterlimit: 10"/>
          <path d="M812.23,510.61l28-22.55a1,1,0,0,0,.06-1.57l-9.82-9.36a1,1,0,0,0-1.3-.1l-20.66,14.34Z" transform="translate(0 -22.54)" style="fill: #fbc469;stroke: #262626;stroke-miterlimit: 10"/>
          <path d="M802.88,528.78c2.82.18,11.47,1.06,13.41-3s-1.06-13.94-1.77-18.17-3.7-17.3-4.06-27-.53-28.59-4.23-36-5.12-10.24-6.35-10.24-5.83,10.24-5.83,10.24Z" transform="translate(0 -22.54)" style="fill: #fff;stroke: #262626;stroke-miterlimit: 10"/>
          <path d="M789.47,541.91a26.66,26.66,0,0,1,6.46-2.15c4-.83,11.08-3.84,10.83-14.68-.35-15.18-7.41-80.83-10.24-85.94s-12.35-25.06-16.06-24.53-15.17,7.59-19.23,12.53-12.35,34.23-13.06,55.23-.88,58.24.35,67.06,3.71,8.82,9.18,7.24C762,555.42,781.28,546,789.47,541.91Z" transform="translate(0 -22.54)" style="fill: #fbc469;stroke: #262626;stroke-miterlimit: 10"/>
          <path d="M784.17,440.9S790.35,455,788.23,466s-11.12,44.47-12.18,48.35,10.59,31.06,10.59,31.06L777,554.9a1,1,0,0,1-1.58-.17c-4.07-6.31-25.08-39-25.08-42.53,0-3.89,5.47-67.42,10.23-75.36,4.46-7.42,7.77-8.29,10.24-8.29" transform="translate(0 -22.54)" style="fill: #fbc469;stroke: #262626;stroke-miterlimit: 10"/>
          <path d="M796,443.37s9.53-9.17,8.47-10.94-16.76-25.94-16.76-25.94l-7.94,7.41S795.82,440,796,443.37Z" transform="translate(0 -22.54)" style="fill: #fff;stroke: #262626;stroke-miterlimit: 10"/>
          <polygon points="870.29 432.83 857.58 427.36 833.93 449.24 844.7 459.13 870.29 432.83" style="fill: #262626"/>
          <path d="M748.7,629.55s-6.71,42-2.82,49.59" transform="translate(0 -22.54)" style="fill: #fff;stroke: #262626;stroke-miterlimit: 10"/>
          <path d="M839.76,744.25s-36.35,5.12-45.71,2.12" transform="translate(0 -22.54)" style="fill: #fff;stroke: #262626;stroke-miterlimit: 10"/>
          <path d="M846.11,453.52s1.41-.8,1.59,1.59,1.85,8.47,0,8.91c-3,.7-4.41-3.44-5.38-5.82S840.91,455.72,846.11,453.52Z" transform="translate(0 -22.54)" style="fill: #fff;stroke: #262626;stroke-miterlimit: 10"/>
          <path d="M866.85,464.11s-1.77-5.91-3.27-5.39a4.17,4.17,0,0,0-2.2,4.77c.61,1.85.79,5.47,1.85,5.38S866.67,469.22,866.85,464.11Z" transform="translate(0 -22.54)" style="fill: #fff;stroke: #262626;stroke-miterlimit: 10"/>
          <path d="M859.88,468.25c-.19-1.13-.53-4.58-2.3-3.79s-3.44,2.56-2.65,5.12,1.77,6.17,3.18,5.2S861,475.14,859.88,468.25Z" transform="translate(0 -22.54)" style="fill: #fff;stroke: #262626;stroke-miterlimit: 10"/>
          <path d="M854.14,469.05s-1.85.09-1.68,1.32,1.33,4.68,1.33,5.65,1.14,2.65,2.12,1.59S859.17,477.78,854.14,469.05Z" transform="translate(0 -22.54)" style="fill: #fff;stroke: #262626;stroke-miterlimit: 10"/>
        </g>
      </g>
    </g>
  </g>
</svg>
