<svg xmlns="http://www.w3.org/2000/svg" width="1386.24" height="761.73"><defs><clipPath id="a" transform="translate(0 -22.54)"><ellipse cx="1236.47" cy="639.64" rx="35.31" ry="8.01" fill="#fbc469" stroke="#262626" stroke-miterlimit="10"/></clipPath></defs><g data-name="Слой 2"><g data-name="Слой 1"><path d="M704.74 35.46a272.27 272.27 0 00-72 24c-46.14 23-59.25 46.44-113 81.88-34.66 22.88-52.3 34.52-79 42.36-58.54 17.09-83.74-6.54-156.74-4.24-23.26.72-78.58 3-134.12 32.47-19.64 10.42-99.42 52.76-125.65 148.24C-3.36 460.71 50 541.68 58.15 553.54 104.62 621.46 185.6 662.15 253 658.01c20.24-1.25 35.22-6.28 70.59-5.65 48.11.87 84.49 11.34 103.06 16.94 94.6 28.55 146.11 57.11 196.23 73.41 146.6 47.69 283.8-8.7 296.47-14.11 33.69-14.4 130.32-55.7 184.94-162.36 63.87-124.71 23.17-246.76 15.53-269.64-23.32-69.94-63.48-115.82-86.11-141.18-23.65-26.49-61.36-68.74-124.24-97.41-85.25-38.86-166.25-29.79-204.73-22.55z" fill="#c5c5c5"/><path d="M443.71 623.94h-40.36v100h-75.64v-100H153.37v-47.15l132-383.61H366v3.05L242.24 556.46h85.47V396.68h75.64v159.78h40.36zM750 675.46q0 48.51-47.82 48.5H536.65q-47.14 0-47.15-48.5V242.02q0-48.84 48.17-48.84h164.5q47.82 0 47.82 48.84zm-77.67-19.67V261.35H567.51v394.47zm411.75-31.85h-40.36v100h-75.64v-100H793.75v-47.15l131.94-383.61h80.72v3.05l-123.8 360.23h85.47V396.68h75.64v159.78h40.36z" fill="#00654d" stroke="#262626" stroke-miterlimit="10"/><path d="M261.2 213.85l11.26-32.73h80.72v3.05l-123.8 360.21h85.47V384.62h75.64v33.39M173.91 611.88h-33.4v-47.15l112.75-327.8M390.49 507.3v37.08h40.36v67.5h-40.36v100.05h-75.64V611.88H195.09m195.4-171.42v58.59m86.15-44.75v-27.06m260.49-74.64v310.86q0 48.51-47.82 48.5H523.79q-47.14 0-47.15-48.5V462.13m260.49-134.95v16.95m-147.22-163h99.4q47.82 0 47.82 48.84v71.34M558.85 181.12h22.59m-104.8 226.34v-177.5q0-48.84 48.17-48.84H541m118.46 303.24v-14.12m0-21.64V249.29H554.65v394.47h104.81v-149m203.39 117.12h-82v-47.15l59.65-173.45m50.78 220.6h-12m167.53 0h-16v100.05h-75.58V611.88h-57.08m118.59-227.26h14.12v159.76h40.36v67.5h-7.43M955.23 468.36v-83.74h47.86m-28-146.63L869.75 544.38h85.48V485.3m-100.6-135l58.2-169.21h80.72v3.05l-11.38 33.13M857.21 724.13h458.82m-1013.65 0h499.77m-746.83 0h207.3" fill="none" stroke="#262626" stroke-miterlimit="10"/><path d="M1234.26 724.11l36.08-.37 10.48-106.79-89.6 1.17 10 105.87z" fill="#fbc469" stroke="#262626" stroke-miterlimit="10"/><ellipse cx="1235.98" cy="616.95" rx="44.84" ry="11.07" fill="#fbc469" stroke="#262626" stroke-miterlimit="10"/><ellipse cx="1236.47" cy="617.1" rx="35.31" ry="8.01" fill="#fbc469"/><g clip-path="url(#a)"><path fill="#fff" stroke="#262626" stroke-miterlimit="10" d="M1231.94 620.74l6.74 1.75"/><ellipse cx="1236.47" cy="623.22" rx="35.31" ry="6.26" fill="#262626"/></g><ellipse cx="1236.47" cy="617.1" rx="35.31" ry="8.01" fill="none" stroke="#262626" stroke-miterlimit="10"/><g stroke="#262626" stroke-miterlimit="10"><path d="M1138.74 308.31s-16.63 67.91 5.55 108.11 55.44 92.87 62.37 126.14 12.47 80.39 12.47 80.39m121.98-304.94s-40.2 41.58-47.13 92.87-11.08 156.63-41.58 206.52" fill="none"/><path d="M1164.34 274.87c-2.1 11.68-17.41 37-26.07 35.46s-7.41-29.4-5.31-41.08 10.81-19.89 19.48-18.34 13.99 12.29 11.9 23.96zm9.6 73.23c-8.79 6.91-35.43 15.16-40.56 8.64s13.2-25.34 22-32.25 20.06-7.23 25.19-.71 2.16 17.41-6.63 24.32zM1237 503.94c-7.28 8.48-31.82 21.73-38.11 16.33s8-27.41 15.33-35.9 18.29-11 24.58-5.57 5.53 16.66-1.8 25.14zm-33-54.05c-7.28 8.48-31.82 21.72-38.11 16.32s8-27.41 15.33-35.89 18.29-11 24.58-5.58 5.5 16.66-1.8 25.15zm-22.86-55.1c-7.28 8.48-31.82 21.73-38.11 16.32s8-27.41 15.33-35.89 18.29-11 24.58-5.57 5.49 16.66-1.8 25.14zm198.56-89.4c-7.28 8.48-31.82 21.72-38.12 16.32s8.05-27.41 15.34-35.89 18.28-11 24.58-5.58 5.5 16.66-1.8 25.15zm-136.14 247.19c-3.65 10.56-21.6 31.91-29.44 29.2s-2.6-28.45 1.05-39 13-16.94 20.81-14.23 11.23 13.46 7.58 24.03zm65.61 34.29c-10.56 3.65-38.44 2.71-41.15-5.13s20.78-19.61 31.34-23.26 21.33-.25 24 7.59-3.62 17.15-14.19 20.8zm14.56-57.18c-10.57 3.65-38.44 2.72-41.15-5.12s20.77-19.61 31.34-23.27 21.33-.25 24 7.59-3.63 17.15-14.19 20.8zm8.27-59.23c-10.56 3.65-38.44 2.71-41.14-5.13s20.77-19.61 31.33-23.26 21.33-.26 24 7.58-3.58 17.14-14.19 20.81zm4.2-56.16c-10.56 3.65-38.44 2.72-41.15-5.12s20.78-19.62 31.34-23.27 21.33-.25 24 7.59-3.62 17.15-14.19 20.8zm17.67-46.78c-10.56 3.65-38.44 2.71-41.14-5.13s20.77-19.61 31.34-23.26 21.32-.25 24 7.59-3.63 17.15-14.2 20.8z" fill="#fff"/><path d="M1311.44 314.32c5.46 9.76 9.47 37.36 2.24 41.41s-23-17-28.45-26.73-4-20.94 3.21-25 17.56.57 23 10.32zm-28.56 52.71c7.1 8.64 15.91 35.1 9.51 40.37s-25.62-12.66-32.71-21.3-7.66-19.9-1.25-25.17 17.35-2.53 24.45 6.1zm-14.55 123.71c7.09 8.64 15.91 35.1 9.5 40.36s-25.61-12.65-32.71-21.29-7.66-19.9-1.25-25.17 17.36-2.53 24.46 6.1zm-11.44 57.18c7.1 8.64 15.92 35.09 9.51 40.36s-25.62-12.65-32.71-21.29-7.66-19.91-1.25-25.17 17.35-2.54 24.45 6.1zM1113 322.29c9.17 6.39 24.82 29.48 20.08 36.28s-28.08-5.25-37.26-11.64-12.76-17.09-8-23.89 16.01-7.14 25.18-.75zm-2.86 62.62c10.61 3.53 32.16 21.23 29.54 29.1s-28.42 2.93-39-.6-17.08-12.78-14.46-20.65 13.32-11.38 23.92-7.85zm30.15 55.1c10.61 3.53 32.16 21.23 29.54 29.1s-28.42 2.93-39-.61-17.08-12.77-14.46-20.64 13.32-11.4 23.92-7.85zm28.07 57.17c10.61 3.53 32.16 21.24 29.54 29.11s-28.42 2.92-39-.61-17.08-12.77-14.46-20.64 13.31-11.39 23.92-7.86zm12.99 57.18c10.61 3.53 32.16 21.23 29.54 29.1s-28.42 2.93-39-.6-17.08-12.78-14.47-20.65 13.33-11.38 23.93-7.85zm91.98-126.21c7.85 8 19 33.51 13.11 39.34s-26.65-10.29-34.5-18.25-9.43-19.13-3.52-25 17.06-4.05 24.91 3.91z" fill="#fff"/></g><path d="M138.62 245.77h-72a15.53 15.53 0 00-15.53 15.53v39.53a15.53 15.53 0 0015.53 15.53h8.17l11.59 16.94.89-16.94h51.35a15.53 15.53 0 0015.53-15.53V261.3a15.54 15.54 0 00-15.53-15.53zM981.09 82.83h72a15.53 15.53 0 0115.53 15.53v39.53a15.53 15.53 0 01-15.53 15.57h-8.18l-11.59 16.94-.89-16.94h-51.34a15.53 15.53 0 01-15.53-15.53V98.36a15.53 15.53 0 0115.53-15.53zM59.25 324.01H10.92A10.43 10.43 0 00.5 334.46V361a10.43 10.43 0 0010.42 10.42h5.49l7.78 11.37.6-11.37h34.46A10.43 10.43 0 0069.68 361v-26.54a10.43 10.43 0 00-10.43-10.45zm998.82-163.62h48.33a10.43 10.43 0 0110.43 10.43v26.53a10.42 10.42 0 01-10.43 10.42h-5.48l-7.79 11.37-.59-11.37h-34.47a10.42 10.42 0 01-10.42-10.42v-26.53a10.43 10.43 0 0110.42-10.43zM110.66 702.14h-35v-37.68h35zm58.69 0h-35v-37.68h35zm58.65 0h-35v-37.68h35zm220.16-547.59h-22v-23.66h22zm36.84 0h-22v-23.66h22zm36.87 0h-22v-23.66h22z" fill="none" stroke="#262626" stroke-miterlimit="10"/><path d="M644.5 79.77s-10.94-3.53-13.41-6.7-6-8.12-3.88-13.41 8.29-3.18 6.08-10.5a105.44 105.44 0 01-4.41-25.86c-.17-8.47-.17-12.17 5.38-14.56S651.47.27 658.44.01s18.62 5.91 24.35 15.45 12.53 15.09 11.74 27.44-3.27 15.44-2.74 18.79 2.74 9.8 4.77 12.36 3 8-5.38 10.76-15.62 7.15-19.77 3.88-3.44-6.7-2.56-7.41 3.53.8 1.41-1.32-3.17-10.68-8.64-12.71-13.33-1.76-15.18.09-1.94 12.43-1.94 12.43z" fill="#262626"/><path d="M618.38 170.01l-24.31-26.33a3.3 3.3 0 01-.72-3.3l9.5-29 13.89 9.65-7.32 18.08a3.06 3.06 0 00.46 3.09l9.91 12.26z" fill="#fff" stroke="#262626" stroke-miterlimit="10"/><path d="M616.8 123.55l-19.39-11.63a2.08 2.08 0 01-.82-2.68c2.7-5.81 11.46-24.65 12.85-27.23 1.65-3.06 3.77-5.41 9.88-5.41s16.71 0 19.77-1.18 6.59-8 6.35-12.47c-.22-4.21 17.54-.48 19.58 0a.25.25 0 01.2.23c.13 1.51 1.19 11.46 7.28 13 6.59 1.64 10.59-3.53 21.88 7.53a134.26 134.26 0 0118.28 23 2.13 2.13 0 01-.53 2.82L692 124.65a2.12 2.12 0 01-3.05-.53l-4.59-7a.28.28 0 00-.52.15v27a.28.28 0 01-.29.28l-59.99-2.09a.28.28 0 01-.26-.25l-3-27a.28.28 0 00-.55 0l-1.29 7.57a1.07 1.07 0 01-1.66.77z" fill="#fff" stroke="#262626" stroke-miterlimit="10"/><path d="M637.09 48.36s-6.18-.88-7.41-6 0-12.53 5.47-4.06c0 0 14.47-14.29 15.17-19.23 0 0 13.06 23.29 16.24 27.7s3.7 12.18 1.94 13.59-8.12 9.88-9 9.88-9 1.94-17.82-11.82c0 .04-2.3-1.96-4.59-10.06z" fill="#fff" stroke="#262626" stroke-miterlimit="10"/><path d="M638.38 75.77s18.71 20 32.71.12" fill="none" stroke="#262626" stroke-miterlimit="10"/><path d="M710.62 115.18s5.64 3.77 5.88 8.95-3.29 11.05-5.41 12.94-7.09.47-10.09-2.61-33.41-35.3-37.41-39.3c-3.49-3.49-2.5-5.19-8.3-8.38a9.56 9.56 0 01-4.83-7.15 21.09 21.09 0 010-4.94s-3.76-1.64-4.7-2.82-.94-5.41 1.41-5.65 10.47 4.94 12.41 4 1.24-4.47 2.41-5.64 2.35-3.53 3.3.94c.69 3.31.62 13.35.53 18.32a5.12 5.12 0 002.37 4.4z" fill="#fff" stroke="#262626" stroke-miterlimit="10"/><path d="M642.38 40.13a7 7 0 016.83-2.59m7.79.23s5.65-1.88 8.24.71" fill="none" stroke="#262626" stroke-miterlimit="10"/><ellipse cx="647.19" cy="44.39" rx="1.46" ry="2.29" fill="#262626"/><ellipse cx="661.84" cy="44.39" rx="1.46" ry="2.29" fill="#262626"/><path d="M649.44 58.86s5.21 4.15 10.06-.26m-7.5-3.62s3.18 4.32 5.29 0" fill="none" stroke="#262626" stroke-miterlimit="10"/><path d="M605.56 203.54s-3.06 6.12-.35 10.23 5.53 7.89 22.58 3.65 17-7.53 17-7.53z" fill="#fff" stroke="#262626" stroke-miterlimit="10"/><path d="M613.26 171.71h-9.7c-2.82 0-4.77-.35-11.3-2.64s-6.35-3.71-10.41-4.77-9.69.31-11.64 3.88c-2.12 3.89-5.3 7.95-1.42 14.48s11 15.35 22.42 18.52c7.47 2.08 52.58 13.24 52.58 13.24l5.3-17.29s7.59 1.76 8.29 3 1.06 1.94 1.06 1.94l25.24 6.17s40.76-11.11 44.29-13.06 11.47-2.29 10.06-17.47-14.12-13.25-18.03-11.47-4.41 2.83-6.88 3.36-19.59 1.23-19.59 1.23z" fill="#262626"/><path fill="#fbc469" stroke="#262626" stroke-miterlimit="10" d="M613.91 180.01l.12-42 79.29.47-.7 43.18-7.06 4.11-62.59-.23-9.06-5.53z"/><path d="M655.79 213.71s26.83 5.12 33.18 5.47 24.35 3 29.12.18 5.65-7.23 4.59-9.88-5.83-8.47-13.42-6.35-19.41 4.94-23.64 5.11-30-7.41-30-7.41z" fill="#fff" stroke="#262626" stroke-miterlimit="10"/><path d="M647.68 199.77a3.15 3.15 0 013-2.47c2.47 0 6.35 1.94 6.88 4.06s-.71 9.88-1.41 11.65-1.41 3.88-3.71 3.88-6.18 0-7.41-.71-2.65-2.64-.71-7.58 3.36-8.83 3.36-8.83z" fill="#fff" stroke="#262626" stroke-miterlimit="10"/><path d="M686.5 208.36s3.18 5.88-.12 10.59m-76.82-14.12s-3.18 7.88 2.82 14" fill="none" stroke="#262626" stroke-miterlimit="10"/><path d="M195.09 354.46s-4.47 3.29-5.18-2.59 8-12 16.47-13.41 23.06-6.59 29.65 13.65c0 0 18.59 4.94 24.23 12.47s8.24 15.06 8 21.88-3.05 17.65-3.76 18.59c0 0 8.24 8 5.18 17.64S237 410.95 237 410.95s7.77-33.41-.23-45.65c0 0 2.58 6.12-1.18 10.36s-17.24-1.61-21.41-6.36c-5.18-5.84-8.5-19.53-19.09-14.84z" fill="#262626"/><path fill="#fff" stroke="#262626" stroke-miterlimit="10" d="M206.74 422.95l32.11 1.76-16.23 76.94-32.47-9.88 16.59-68.82zm-11.89 183.41a96.53 96.53 0 003.15 14.82c2.23 7.18.35 17.06.59 21.77s3.41 21.51 5.79 28.12 3.65 26.59 3.77 30.59.7 10.7.7 10.7l-12.59 9.65s-2.7 5.53 3.3 5.41 16.7-5.41 18.47-7.76 6-110.36 6-110.36z"/><path d="M216.5 610.83s.35 9.65.12 12.94.35 26.12-.12 30.24 2.71 27.88 2.94 32.12.35 29.88-.94 32.82-8.47 6.12-5.29 9.18 4.94 5.41 12.23.82c0 0 4.59-10.59 4.94-14s.47-13.41 1.65-17.53 6-23.29 6.82-27.53 1.65-27.18.94-33.76-.23-27.3-.23-27.3z" fill="#fff" stroke="#262626" stroke-miterlimit="10"/><path d="M194.15 488.83s19.06 5.18 28.94 3.77 33.41 25.86 33.41 25.86l1.88 28.47s-.23 24.71-3.29 32.71-6.83 26.58-6.83 26.58-27.76 16-64-1.88c0 0-15.76-55.53-5.64-76.7a314 314 0 0015.53-38.81z" fill="#262626"/><path d="M192.26 354.95s-1.88 15.29.48 23.06 8 22.12 14.82 26.35c5.06 3.14 7.92 1.5 9.06.43a.22.22 0 01.35.22l-5.71 21.2 19.86 1.15s1.38-18.53 2.56-21.35-1.89-19.77-1.89-19.77 8-12.94 6.12-16.23-6.82-4.71-8 4.47c0 0-10.82 4-19.76-11.06s-17.89-8.47-17.89-8.47z" fill="#fff" stroke="#262626" stroke-miterlimit="10"/><path d="M193.91 369.77s4.94-2.59 6.35-.94m1.42 2.83a10.83 10.83 0 011.88 3.05c.94 2.12 0 7.06-.24 9.42s-3.29 4.7 3.77 4.94m1.17-22.36s3.77-2.58 6.36-.7m-2.83 6.45s-.23 2.94 1 4.35 4.74.73 6.29.18m-22.82-1.81a8.89 8.89 0 00.24 3.3c.47 1.18 2.82 1.18 4.24.47m7.11 14.12a4.61 4.61 0 006.59-2.59" fill="none" stroke="#262626" stroke-miterlimit="10"/><path fill="#fbc469" stroke="#262626" stroke-miterlimit="10" d="M136.09 443.77H169l16.24 34.5v6.53h-25.06l-24.09-41.03z"/><path d="M165 487.63s-3.71-4.33-3.79-4.86 2.2-3.35-.53-9.53c0 0 2.38-4.06 3.53-5.73s2.64-4.85.61-3.53-4.32 5.2-5.2 4.32 1.85-8.82 1.85-10.41.09-5.73-1.5-2.38-2.12 8.65-3.53 8.47.88-9.8.88-11.65.18-5.2-1.67-3.09-1.6 12.16-3.53 14.21c-1.41 1.5.09-9.53-.53-10.85s-1.86-1.86-2.3.26.18 10.5-1.5 10.5-2.82-9.44-4.23-9.7-.53 12.88 2.56 17 14.2 23 16.5 24.89 2.38-7.92 2.38-7.92z" fill="#fff" stroke="#262626" stroke-miterlimit="10"/><path d="M164.41 486.24L160.85 499a.93.93 0 00.88 1.18l26.06.59.53-15.35-23.06.17a.88.88 0 00-.85.65z" fill="#fff" stroke="#262626" stroke-miterlimit="10"/><path d="M170.85 535.46s10.36-24.47 12.94-35.29 1.5-38.12 2.12-50.59c.47-9.41-3.53-25.65 1.41-28.71s29-12.7 29-12.7-17.72 76.94-18.9 82.58-9.88 40.47-15.29 44-10.13.91-11.28.71zm63.53-129.69s20.47 11.53 28.71 14.83 10.59 5.41 11.06 9.64.23 75.77-.24 78.59-4.47 3.3-8.47 1.41-8.7-4.7-8.7-4.7l7.76 40c-16 2.82-22.59 6.12-36.71-3.06s-10.79-20.94-11.05-39.02-2.59-33.65 0-42.82 17.64-54.87 17.64-54.87z" fill="#fff" stroke="#262626" stroke-miterlimit="10"/><path d="M207.79 411.18s-4.94 14.36-5.41 18.59-1.41 28.47.94 33.65l13-55.29zm25.89-5.17l8 4.23s-2.36 23.3-7.53 31.06-15.53 20.71-17.41 22.36a57.16 57.16 0 014.47-16.95c4-9.41 12.47-40.7 12.47-40.7z" fill="#fbc469" stroke="#262626" stroke-miterlimit="10"/><path d="M216.56 473.16s-12.35-10.86-14.21-11.3-7.59-4.59-11-2.38-11.38 9.44-11.38 9.44-1.32 2.56 1.77 2.12 8.73-5.56 8.73-5.56-1 3.79.18 5.29 6.88 3.89 8.47 3.36 3-2.3 2.91-3.53-.18 6.61 6.09 2.64l7 7.68" fill="#fff" stroke="#262626" stroke-miterlimit="10"/><path fill="#fff" stroke="#262626" stroke-miterlimit="10" d="M248.5 443.42l2.59 37.88-34.12-8.94-4.94 11.77 44.71 21.41"/><path d="M199.09 719.77s-5.3 2.24-2.24 3.3 10.59 2.35 16.94-2.24 5-4.7 5-4.7l-.29 3.33a44 44 0 01-8.12 8.71c-4.19 3.2-9.2 4.58-11.41 4.58-4.59 0-13.65 0-10.47-4.58s10.59-8.4 10.59-8.4z" fill="#262626"/><path d="M218.85 718.36s-4.82 6.82-5.17 8.71 3.79 3.78 6.82 2.59c4.47-1.77 8.12-8.36 9.18-11.18s1.06-5.88 1.64-4.24-.7 7.42-1.06 9.65-3.41 9.88-6.47 11.53c-4.09 2.21-12.23 6.59-15.17 5.29-4.15-1.82-2.47-8.35-.59-10.47s10.82-11.88 10.82-11.88z" fill="#262626"/><path d="M808.35 691.54a3.71 3.71 0 012.82 2.82c.35 2.3.18 11.82 3.35 13.06s15.89 5.82 19.94 6.88 6.18 1.77 5.65 4.77 1.24 6-4.41 6.7-45 3.71-46.77.36-.52-32.65-.52-32.65zm-41.83-86.83s-8.29 1.06-13.06 1.06-9.88-.88-11.29 3 .35 16.41.71 20.3-1.42 11.29-1.42 15-1.58 14.82 5.12 12.17 10.77-22.94 11.65-25.41 4.94-4.41 8.82-5.12a42.85 42.85 0 006.71-1.76z" fill="#fff" stroke="#262626" stroke-miterlimit="10"/><path d="M775.52 598.89c.36 4.06-1.76 3.18-2.47 3.35s-1.23-2.64-2.29-1.23-1.41 2.47-3.18 2.12-3.88.88-1.23 2.47 4.06 16.94 4.06 18.7 1.41 2.47 4.58 3.36 4.59-2.48 6.36-3.71-.36 10.59-1.59 17.12 3.53 34.41 4.41 39 .53 6 .88 7.76 1.94 2.65 1.24 3.88-1.06 3.89 2.12 4.59 20.82-3.88 22.41-4.41.17-2.82.7-4.06 0-2.65-.7-4.06-3 .53-3.36-1.41-.35-27.88-.35-32.82 1.41-33.71 2.82-34.77 34.77-12 41-18.53-8.83-31.41-11.12-36.35-18-24.35-19.06-27.53-1.41-7.41-1.06-13.59-4.06-15.53-4.06-15.53l-17.65 2.3s-37.76 11.29-40.23 25.59 3.18 23.11 5.12 28.76 12.3 34.94 12.65 39zm34.24-11.82l.17-6.89 4.77 3.89zm38.41-229.41s0-8.95-9.65-16-22.35-8.71-35.29-2.12-11.06 20.47-10.82 26.12 1.17 19.29 1.17 19.29l16.24-3.49z" fill="#262626"/><path d="M848.17 357.66s.47 16.94-4.71 20.23-3.53 10.12-3.76 14.12-7.29 1.65-8 1.65-6.59 11.29-9.18 11.29-8.47-3.53-9.88-4.94-10.82 8.23-10.82 8.23l-13.65-21.41a30.59 30.59 0 006.35-5.17c2.12-2.59 10.59-1.65 12-1.65s-.23-1.18-1.64-4.24-4-11.06 3-13.17 5.42 2.11 6.59 4.47 3.3 1.64 6.12-.94 5.88-3.53 9.65-2.12 2.35-5.41 4.47-7.53 3.11-4.02 13.46 1.18z" fill="#fff" stroke="#262626" stroke-miterlimit="10"/><path d="M838.76 376.71s.47-4.47-3.53-4.23" fill="none" stroke="#262626" stroke-miterlimit="10"/><ellipse cx="833.7" cy="401.25" rx="2.12" ry="1.24" transform="rotate(-50.58 809.832 389.986)" fill="#262626"/><path d="M836.23 463.01s8.47-7.77 11.12-7.06 6 0 6-3.88-9.89-8.65-9.71-10.77-1.76-5.47-1.76-7.06-6.36 6-7.06 10.06 2.11 5.47-.71 7.94-5.82 5.12-5.82 5.12zm-52.77 60l4.94 6.53-6.88 7.76-3.88-9.35 5.82-4.94z" fill="#fff" stroke="#262626" stroke-miterlimit="10"/><path d="M812.23 488.07l28-22.55a1 1 0 00.06-1.57l-9.82-9.36a1 1 0 00-1.3-.1l-20.66 14.34z" fill="#fbc469" stroke="#262626" stroke-miterlimit="10"/><path d="M802.88 506.24c2.82.18 11.47 1.06 13.41-3s-1.06-13.94-1.77-18.17-3.7-17.3-4.06-27-.53-28.59-4.23-36-5.12-10.24-6.35-10.24-5.83 10.24-5.83 10.24z" fill="#fff" stroke="#262626" stroke-miterlimit="10"/><path d="M789.47 519.37a26.66 26.66 0 016.46-2.15c4-.83 11.08-3.84 10.83-14.68-.35-15.18-7.41-80.83-10.24-85.94s-12.35-25.06-16.06-24.53-15.17 7.59-19.23 12.53-12.35 34.23-13.06 55.23-.88 58.24.35 67.06 3.71 8.82 9.18 7.24c4.3-1.25 23.58-10.67 31.77-14.76z" fill="#fbc469" stroke="#262626" stroke-miterlimit="10"/><path d="M784.17 418.36s6.18 14.1 4.06 25.1-11.12 44.47-12.18 48.35 10.59 31.06 10.59 31.06l-9.64 9.49a1 1 0 01-1.58-.17c-4.07-6.31-25.08-39-25.08-42.53 0-3.89 5.47-67.42 10.23-75.36 4.46-7.42 7.77-8.29 10.24-8.29" fill="#fbc469" stroke="#262626" stroke-miterlimit="10"/><path d="M796 420.83s9.53-9.17 8.47-10.94-16.76-25.94-16.76-25.94l-7.94 7.41s16.05 26.1 16.23 29.47z" fill="#fff" stroke="#262626" stroke-miterlimit="10"/><path fill="#262626" d="M870.29 432.83l-12.71-5.47-23.65 21.88 10.77 9.89 25.59-26.3z"/><path d="M748.7 607.01s-6.71 42-2.82 49.59m93.88 65.11s-36.35 5.12-45.71 2.12m52.06-292.85s1.41-.8 1.59 1.59 1.85 8.47 0 8.91c-3 .7-4.41-3.44-5.38-5.82s-1.41-2.48 3.79-4.68zm20.74 10.59s-1.77-5.91-3.27-5.39a4.17 4.17 0 00-2.2 4.77c.61 1.85.79 5.47 1.85 5.38s3.44.35 3.62-4.76zm-6.97 4.14c-.19-1.13-.53-4.58-2.3-3.79s-3.44 2.56-2.65 5.12 1.77 6.17 3.18 5.2 2.89.36 1.77-6.53z" fill="#fff" stroke="#262626" stroke-miterlimit="10"/><path d="M854.14 446.51s-1.85.09-1.68 1.32 1.33 4.68 1.33 5.65 1.14 2.65 2.12 1.59 3.26.17-1.77-8.56z" fill="#fff" stroke="#262626" stroke-miterlimit="10"/></g></g></svg>