<svg xmlns="http://www.w3.org/2000/svg" width="602.76" height="520.1"><defs><clipPath id="a"><circle cx="196.68" cy="89.55" r="42.91" fill="#fff" stroke="#262626" stroke-miterlimit="10"/></clipPath><clipPath id="b"><circle cx="269.38" cy="476.38" r="42.91" fill="#fff" stroke="#262626" stroke-miterlimit="10"/></clipPath><clipPath id="c"><path d="M31.61 332.53h160.24V228.21H31.25s1.08 104.32.36 104.32z" fill="#fff" stroke="#262626" stroke-miterlimit="10"/></clipPath><clipPath id="d"><path fill="#fff" stroke="#262626" stroke-miterlimit="10" d="M194.45 226.56H30.31l9.14-33.61h145.86l9.14 33.61z"/></clipPath></defs><g data-name="Слой 2"><g data-name="Слой 1"><path d="M166.45 97.39c10.36-19.78 48-84 111.18-95.75 21.09-3.91 36.68-.43 64.86 6.18C395.9 20.36 452.42 33.62 500 83.49c7.72 8.09 70.35 75.87 64.85 174.49-1 18.59-5 89-54 131.26-18.52 15.94-23.35 10.56-58.68 34-53.26 35.29-56.94 57.22-89.57 74.12-34.35 17.81-67.44 12.75-120.45 4.64-73.81-11.29-133.92-20.49-180.67-69.49-58.64-61.46-81.15-169.65-41.73-211.59 30.27-32.2 80.61-7.87 117.36-51 19.21-22.48 8.38-32.56 29.34-72.53z" fill="#c5c5c5"/><circle cx="196.68" cy="89.55" r="42.91" fill="#fff"/><g clip-path="url(#a)" fill="#fff" stroke="#262626" stroke-miterlimit="10"><path d="M153.02 72.92l13.36-9.07m-15.53 16.13l7.82-5.32m-10.02 10.72l7.45-5.06m-8.01 13.25l7.44-5.06m-3.02 12.38l6.29-4.28m-4.05 11.68l4.96-3.37m4.39 18.77l5.72-3.89m6.02 21.57l15.84-10.76m-14.01 14.27l20.03-13.62"/></g><circle cx="196.68" cy="89.55" r="42.91" fill="none" stroke="#262626" stroke-miterlimit="10"/><circle cx="201.9" cy="86.56" r="42.91" fill="#fff" stroke="#262626" stroke-miterlimit="10"/><circle cx="200.62" cy="86.31" r="35.06" fill="#fff" stroke="#262626" stroke-miterlimit="10"/><circle cx="199.98" cy="86.75" r="31.6" fill="#fff" stroke="#262626" stroke-miterlimit="10"/><circle cx="269.38" cy="476.38" r="42.91" fill="#fff"/><g clip-path="url(#b)" fill="#fff" stroke="#262626" stroke-miterlimit="10"><path d="M241.65 438.78l16.14-.41M236 443.54l9.46-.24m-14.22 3.59l9-.23m-13.91 6.82l9-.23m-9.24 8.77l7.61-.19m-9.73 7.63l6-.15m-6.46 18.16l6.92-.17m-6.61 21.4l19.14-.49m-19.5 4.42l24.22-.62"/></g><circle cx="269.38" cy="476.38" r="42.91" fill="none" stroke="#262626" stroke-miterlimit="10"/><circle cx="275.39" cy="476.69" r="42.91" fill="#fff" stroke="#262626" stroke-miterlimit="10"/><circle cx="274.44" cy="475.79" r="35.06" fill="#fff" stroke="#262626" stroke-miterlimit="10"/><circle cx="273.67" cy="475.81" r="31.6" fill="#fff" stroke="#262626" stroke-miterlimit="10"/><path d="M543.25 410.79v47.88a16.7 16.7 0 01-16.56 16.7L342.15 478" fill="none" stroke="#262626" stroke-linecap="round" stroke-linejoin="round" stroke-dasharray="12,12"/><path fill="#262626" d="M343.54 472.99l-8.56 5.11 8.71 4.86-.15-9.97z"/><path d="M212.48 477.53H94.7c-9.3 0-16.06-7.54-16.06-16.84V358.91" fill="none" stroke="#262626" stroke-linecap="round" stroke-linejoin="round" stroke-dasharray="12,12"/><path fill="#262626" d="M83.63 360.37l-4.99-8.64-4.98 8.64h9.97z"/><path d="M77.26 167.18v-61.75A16.84 16.84 0 0194.1 88.59h47.29" fill="none" stroke="#262626" stroke-linecap="round" stroke-linejoin="round" stroke-dasharray="12"/><path fill="none" stroke="#262626" stroke-linecap="round" stroke-linejoin="round" stroke-dasharray="12,12" d="M259.5 88.13h27.43"/><path fill="#262626" d="M285.47 93.12l8.63-4.99-8.63-4.98v9.97z"/><path fill="none" stroke="#262626" stroke-linecap="round" stroke-linejoin="round" stroke-dasharray="12" d="M541.86 202.09v70.75"/><path d="M31.61 332.53h160.24V228.21H31.25s1.08 104.32.36 104.32z" fill="#fff"/><g clip-path="url(#c)" fill="#fff" stroke="#262626" stroke-miterlimit="10"><path d="M25.07 297.67h173.41M25.07 310.04h173.41M25.07 321.87h173.41m-154.05-24.2v12.37m25.27-12.37v12.37m84.96-12.37v12.37m25.27-12.37v12.37m-12.1-.27v12.36m-27.15-12.36v12.36m-57.14-12.36v12.36m-27.15-12.36v12.36m-12.23-.53v11.14M69.7 321.6v11.14m84.96-11.14v11.14m25.27-11.14v11.14"/></g><path d="M31.61 332.53h160.24V228.21H31.25s1.08 104.32.36 104.32z" fill="none" stroke="#262626" stroke-miterlimit="10"/><path fill="#00654d" stroke="#262626" stroke-miterlimit="10" d="M88.61 230.37h46.24v102.52H88.61z"/><path fill="#262626" d="M131.98 262.81l-38.71 17.56v-49.79h38.71v32.23zm-45.42-3.86l-51.9 21.42v-51.62h51.9v30.2zm102.78 0l-52.52 21.42v-51.62h52.52v30.2z"/><circle cx="128.58" cy="279.48" r="3.05" fill="#262626"/><g stroke="#262626" stroke-miterlimit="10"><circle cx="39.14" cy="227.86" r="8.6" fill="#fff"/><circle cx="57.47" cy="227.86" r="8.6" fill="#fbc469"/><circle cx="75.79" cy="227.86" r="8.6" fill="#fff"/><circle cx="94.12" cy="227.86" r="8.6" fill="#fbc469"/><circle cx="112.45" cy="227.86" r="8.6" fill="#fff"/><circle cx="130.77" cy="227.86" r="8.6" fill="#fbc469"/><circle cx="149.1" cy="227.86" r="8.6" fill="#fff"/><circle cx="167.43" cy="227.86" r="8.6" fill="#fbc469"/><circle cx="185.75" cy="227.86" r="8.6" fill="#fff"/></g><path fill="#fff" d="M194.45 226.56H30.31l9.14-33.61h145.86l9.14 33.61z"/><g clip-path="url(#d)" fill="#fbc469" stroke="#262626" stroke-miterlimit="10"><path d="M54.91 191.47l-7.26 40.33h18.42l4.57-41.94-15.73 1.61zm32-.4l-1.75 40.73 18.28-.4.67-42.08-17.2 1.75zm34.01-.14l1.2 42.62 18.02-2.96-3.23-39.52-15.99-.14zm32.39-.27l5.92 41.68 18.01-.81-7.93-43.82-16 2.95z"/></g><path fill="none" stroke="#262626" stroke-miterlimit="10" d="M194.45 226.56H30.31l9.14-33.61h145.86l9.14 33.61z"/><path d="M42.76 180.18h139.37a3.44 3.44 0 013.44 3.44v9.19h0H39.32h0v-9.19a3.44 3.44 0 013.44-3.44z" fill="#00654d" stroke="#262626" stroke-miterlimit="10"/><g stroke="#262626"><path fill="#00654d" stroke-miterlimit="10" d="M390.99 276.24h163.06v119.63H390.99z"/><path fill="#00654d" stroke-linejoin="round" d="M376.04 316.59h-13.77l28.72-40.35-17.8 47.47h119.63l19.94-48.42 23.26 48.9h41.77l-23.73-47.95H390.85l-14.81 40.35zm136.36 79.28V275.29"/><path fill="#fbc469" stroke-miterlimit="10" d="M468.61 350.65h30.97v22.79h-30.97z"/></g><path fill="#fff" stroke="#262626" stroke-miterlimit="10" d="M316.86 95.97H497.1v94.74H316.86z"/><path d="M307.64 95.67l100.27-48 97.5 47.68s-198.08.01-197.77.32z" fill="#fff" stroke="#262626" stroke-linejoin="round"/><path fill="none" stroke="#262626" stroke-miterlimit="10" d="M321.79 95.31l86.12-41.21 86.43 41.52"/><path fill="#fff" stroke="#262626" stroke-miterlimit="10" d="M340.93 105.66H367v16.38h-26.07zm52.83 0h26.07v16.38h-26.07z"/><path fill="#262626" d="M390.99 131.5h30.68v59.29h-30.68zm-52.83 0h30.68v59.29h-30.68zm106.58 0h30.68v59.29h-30.68z"/><path fill="#00654d" stroke="#262626" stroke-miterlimit="10" d="M424.9 105.2h15.23v85.59H424.9zm-54.21 0h15.23v85.59h-15.23zm-53.98 0h15.23v85.59h-15.23zm160.33 0h15.23v85.59h-15.23z"/><path fill="#fff" stroke="#262626" stroke-miterlimit="10" d="M448.2 105.66h26.07v16.38H448.2z"/><path fill="#262626" d="M497.11 190.71h105.65v-62.44h-4.84v-7.84h-23.07V96.9h10.84L483.96 47.99h-76.05l97.5 47.37-8.3.61v94.74z"/><path fill="#fff" stroke="#262626" stroke-miterlimit="10" d="M506.11 107.28h15.92v13.61h-15.92zm22.37 0h15.92v13.61h-15.92zm22.15 0h15.92v13.61h-15.92z"/><path fill="#fbc469" stroke="#262626" stroke-miterlimit="10" d="M510.03 128.27h52.6v62.75h-52.6zm59.05 8.08h7.84v41.06h-7.84zm10.85 0h7.84v41.06h-7.84zm11.99 0h7.84v41.06h-7.84z"/><path fill="#262626" d="M527.87 166.87h17.22v24.3h-17.22z"/></g></g></svg>