<svg xmlns="http://www.w3.org/2000/svg" viewBox="0 0 145 145"><defs><style>.cls-1,.cls-8{fill:none}.cls-1,.cls-4,.cls-8{stroke:#007b64;stroke-width:2px}.cls-1,.cls-4{stroke-linecap:round;stroke-linejoin:round}.cls-2,.cls-4{fill:#fff}.cls-3{fill:#f1f1f1}.cls-5{fill:#007b64}.cls-8{stroke-miterlimit:10}</style></defs><g id="_38_Уплата_налога" data-name="38 Уплата налога"><path class="cls-1" d="M6.07 132.17h9.77m4.04 0h120.39"/><path class="cls-2" d="M93.7 54.93v71.24a6 6 0 01-6 6h-54a6 6 0 01-6-6v-84a6 6 0 016-6h42.51l17.49 18.5"/><path class="cls-3" d="M27.64 123.67h66v1a7 7 0 01-7 7h-52a7 7 0 01-7-7v-1z"/><path class="cls-1" d="M93.7 70.5v55.67a6 6 0 01-6 6h-54a6 6 0 01-6-6v-84a6 6 0 016-6h42.08a1 1 0 01.72.32l17.2 18.18m0 .26v7.13"/><path class="cls-1" d="M85.7 54.67h-5a6 6 0 01-6-6v-5"/><path class="cls-4" d="M39.7 65.92H70"/><circle class="cls-5" cx="35.7" cy="65.92" r=".95"/><path class="cls-4" d="M39.7 74.1H70"/><circle class="cls-5" cx="35.7" cy="74.1" r=".95"/><path class="cls-4" d="M39.7 82.28H70"/><circle class="cls-5" cx="35.7" cy="82.28" r=".95"/><path class="cls-4" d="M39.7 90.46H70"/><circle class="cls-5" cx="35.7" cy="90.46" r=".95"/><path class="cls-4" d="M39.7 98.64H70"/><circle class="cls-5" cx="35.7" cy="98.64" r=".95"/><path class="cls-4" d="M39.7 106.82H70"/><circle class="cls-5" cx="35.7" cy="106.82" r=".95"/><path class="cls-2" d="M122.53 131.81h-42a4.47 4.47 0 01-4.47-4.47V72.9a4.47 4.47 0 014.47-4.46h42A4.47 4.47 0 01127 72.9v54.44a4.47 4.47 0 01-4.47 4.47z"/><path class="cls-3" d="M90 131s4-5 12-4 23-3 25-5v6l-1 2-2 2H90z"/><path d="M127 90.27v37.07a4.47 4.47 0 01-4.47 4.47h-42a4.47 4.47 0 01-4.47-4.47V72.9a4.47 4.47 0 014.47-4.46h42A4.47 4.47 0 01127 72.9V81" stroke-miterlimit="10" stroke-linecap="round" stroke="#007b64" stroke-width="2" fill="none"/><path d="M118.66 88.59H84.42A1.64 1.64 0 0182.77 87v-8.42a1.65 1.65 0 011.65-1.65h34.24a1.65 1.65 0 011.65 1.65V87a1.64 1.64 0 01-1.65 1.59z" fill="#ffc463"/><rect class="cls-8" x="82.84" y="93.67" width="6.09" height="6.09" rx=".79"/><rect class="cls-8" x="93.26" y="93.67" width="6.09" height="6.09" rx=".79"/><rect class="cls-8" x="103.69" y="93.67" width="6.09" height="6.09" rx=".79"/><rect class="cls-8" x="114.11" y="93.67" width="6.09" height="6.09" rx=".79"/><rect class="cls-8" x="82.84" y="104.83" width="6.09" height="6.09" rx=".79"/><rect class="cls-8" x="93.26" y="104.83" width="6.09" height="6.09" rx=".79"/><rect class="cls-8" x="103.69" y="104.83" width="6.09" height="6.09" rx=".79"/><rect class="cls-8" x="114.11" y="104.83" width="6.09" height="6.09" rx=".79"/><rect class="cls-8" x="82.84" y="115.98" width="6.09" height="6.09" rx=".79"/><rect class="cls-8" x="93.26" y="115.98" width="6.09" height="6.09" rx=".79"/><rect class="cls-8" x="103.69" y="115.98" width="6.09" height="6.09" rx=".79"/><rect class="cls-8" x="114.11" y="115.98" width="6.09" height="6.09" rx=".79"/></g></svg>