<svg xmlns="http://www.w3.org/2000/svg" viewBox="0 0 145 145"><defs><style>.cls-1{fill:none;stroke:#007b64;stroke-linecap:round;stroke-miterlimit:10;stroke-width:2px}.cls-2{fill:#fff}.cls-3{fill:#ebebeb}.cls-5{fill:#ffc463}.cls-6{fill:#c4c4c4}</style></defs><g id="_42_Услуги_в_электронной_форме_оказываются_физическим_лицам_" data-name="42 Услуги в электронной форме оказываются физическим лицам?"><path class="cls-1" d="M9.19 133.03l135 .05"/><path class="cls-2" d="M63.11 120.52h73.07a1 1 0 011 1 11.43 11.43 0 01-11.38 11.49H27.52a11.43 11.43 0 01-11.37-11.5 1 1 0 011-1h38.48"/><rect class="cls-2" x="26.77" y="41" width="100" height="79" rx="6.97"/><path class="cls-3" d="M65.62 120.5s14.32-8 30.38-6.5c11 1 30.35-8.59 30.68-10.29v10.4L124 120l-7 1z"/><path d="M26.52 113.34v-65.1a7.14 7.14 0 017.09-7.16h80.07" stroke-width="2.18" stroke-miterlimit="10" stroke="#007b64" stroke-linecap="round" fill="none"/><path class="cls-1" d="M110.23 41.12h9.58a7.15 7.15 0 017.09 7.17v65.09a7.13 7.13 0 01-1.47 4.35 7.06 7.06 0 01-5.62 2.81h-7.5"/><path class="cls-3" d="M99.18 133s9.82-7 15.82-7 9.47-4.91 9.24-5.46l12.27.07.7 1.61L137 126l-6 6z"/><path class="cls-1" d="M63.11 120.52h73.07a1 1 0 011 1 11.43 11.43 0 01-11.38 11.49H27.52a11.43 11.43 0 01-11.37-11.5 1 1 0 011-1h38.48M35.04 51.54l82.76.03"/><rect class="cls-5" x="94.75" y="45.64" width="20.69" height="1.88" rx=".94"/><rect class="cls-6" x="36.7" y="45.25" width="2.59" height="2.61" rx="1.29"/><rect class="cls-6" x="40.58" y="45.25" width="2.59" height="2.61" rx="1.29"/><rect class="cls-6" x="44.46" y="45.25" width="2.59" height="2.61" rx="1.29"/><path d="M58.92 98.76c0-.47.07-.94.13-1.41a19.44 19.44 0 01.46-2.59c1.33-5.34 4.81-9.16 10.79-9.34a1 1 0 01.55.13A13.55 13.55 0 0077 87.07a10.32 10.32 0 005.52-1.47 1.1 1.1 0 01.63-.18c7.84.26 11.37 6.8 11.37 14.83v3.65a4.07 4.07 0 01-4.08 4.1H63a4.07 4.07 0 01-4.07-4.07h0v-.25" stroke-linejoin="round" stroke-width="2" stroke="#007b64" stroke-linecap="round" fill="none"/><path class="cls-1" d="M87.75 100.85v7.12"/><path fill="#ff0" stroke-width="2" stroke-miterlimit="10" stroke="#007b64" stroke-linecap="round" d="M65.27 100.85v7.12"/><path class="cls-5" d="M85.17 66a9 9 0 01.77 1.06 11.58 11.58 0 01.65 1.14 11 11 0 11-9.9-6.2 11.09 11.09 0 013.39.53 10.91 10.91 0 011.61.67c.25.13.49.26.72.41"/></g></svg>