<svg xmlns="http://www.w3.org/2000/svg" viewBox="0 0 145 145"><defs><style>.cls-1{fill:#fff}.cls-2{fill:#ebebeb}.cls-3{fill:none;stroke:#007b64;stroke-linecap:round;stroke-linejoin:round;stroke-width:2px}</style></defs><g id="_41_Услуги_входят_в_установленный_перечень_" data-name="41 Услуги входят в установленный перечень?"><rect class="cls-1" x="66.46" y="45.91" width="51.31" height="76.13" rx="5.21"/><path class="cls-2" d="M107.58 45.91s1 12.51 5.21 15.64c3 2.26 4.74 10.8 5 11.66s-.66-24.63-.66-24.63l-1.73-1.84-6.58-1.32z"/><path class="cls-3" d="M117.77 101.54v15.28a5.22 5.22 0 01-5.22 5.22H71.67a5.22 5.22 0 01-5.21-5.22v-65.7a5.21 5.21 0 015.21-5.21h40.88a5.22 5.22 0 015.22 5.21V95"/><path class="cls-1" d="M44.14 90V41.21A5.21 5.21 0 0149.35 36h54.23a5.22 5.22 0 015.22 5.21v85.52a5.22 5.22 0 01-5.22 5.22H49.35a5.22 5.22 0 01-5.21-5.22v-21.2"/><path d="M44.14 95V41.21A5.21 5.21 0 0149.35 36h54.23a5.22 5.22 0 015.22 5.21v53.65m0 7.35v24.52a5.22 5.22 0 01-5.22 5.22H49.35a5.22 5.22 0 01-5.21-5.22v-22" stroke-width="2.09" stroke="#007b64" stroke-linecap="round" stroke-linejoin="round" fill="none"/><rect x="52.48" y="43.82" width="47.97" height="13.56" rx="2.09" fill="#ffc463"/><path d="M53.63 63.9h43.8m-43.8 6.91H98m-44.37 6.92H98" stroke-width="2" stroke="#007b64" stroke-linecap="round" stroke-linejoin="round" fill="#fff"/><path class="cls-3" d="M24.44 133.03h115.43m-135 0h10.04"/><path class="cls-1" d="M93.73 105.39H66.49l-1-1L60 100H38v33h85.29l.71-33h-24z"/><path class="cls-2" d="M83.36 133s8.63-8.79 19.46-7.58 20.17-.65 21-7.73V133z"/><path class="cls-3" d="M39.25 99.94h21.57l5.67 5.45h27.23l6.09-5.45h23.96v33.09H36.98V99.94h3.2"/><path class="cls-3" d="M115.89 113.06a2.69 2.69 0 01.36 1.34v8.32a2.73 2.73 0 01-2.73 2.73H47.65a2.73 2.73 0 01-2.73-2.73v-8.32a2.72 2.72 0 012.73-2.72H110"/></g></svg>