<svg xmlns="http://www.w3.org/2000/svg" width="599.6" height="559.25"><defs><clipPath id="a"><ellipse cx="467.96" cy="307.07" rx="28.91" ry="4.33" fill="#fff" stroke="#262626" stroke-miterlimit="10"/></clipPath><clipPath id="b"><path d="M370.71 484.35L363 495.87l8 24.42s39 18.93 52.68 18.38c0 0 8.77-9.06 3-24.42s-55.97-29.9-55.97-29.9z" fill="#00654d" stroke="#262626" stroke-miterlimit="10"/></clipPath><clipPath id="c"><path d="M439.71 524.26s18.11-11.66 29.09-22.63c12.52-12.52 16.15-13.88 22.36-18.38 8.5-6.17 14-13.58 12.89-18.11s-13.31-9.74-32 2.74-27.3 24.56-43.76 21.68c0 0 6.72 17-13.58 19.48.04-.04 18.15 9.46 25 15.22z" fill="#00654d" stroke="#262626" stroke-miterlimit="10"/></clipPath><clipPath id="d"><circle cx="356.14" cy="178.88" r="36.86" fill="#fff" stroke="#262626" stroke-miterlimit="10"/></clipPath><clipPath id="e"><circle cx="309.54" cy="81.55" r="30.7" fill="#fff" stroke="#262626" stroke-miterlimit="10"/></clipPath><clipPath id="f"><circle cx="379.23" cy="25.83" r="24.02" fill="#fff" stroke="#262626" stroke-miterlimit="10"/></clipPath></defs><g data-name="Слой 2"><g data-name="Слой 1"><path d="M311.87 92.3a257.41 257.41 0 0077.36-36.22c20.65-14.31 22.45-20.14 37.86-28 29-14.77 71.66-19 105.36-1.65 43 22.18 54.64 70.91 60.9 97.12C618.73 229.8 559.91 325.12 539 359c-30.29 49.09-78.81 127.73-177.78 158-80.55 24.66-188.9 15.56-260.09-54.32C88.48 450.22 32.75 395.52 37 319.46c4.08-74.3 62.75-121.46 102-153.09 64.09-51.54 132.38-68.09 172.87-74.07z" fill="#c5c5c5"/><ellipse cx="312.69" cy="496.42" rx="234.98" ry="61.73" fill="#ebebeb"/><path d="M.34 402.59l50.21-46.09h466.67M50.76 335.65v20.85m0-123.46v92.18" fill="none" stroke="#262626" stroke-miterlimit="10"/><path d="M466.15 364.93l29.54-.2 8.59-57.73-73.37.63 8.22 57.25z" fill="#fff" stroke="#262626" stroke-miterlimit="10"/><ellipse cx="467.56" cy="306.99" rx="36.71" ry="5.99" fill="#fff" stroke="#262626" stroke-miterlimit="10"/><ellipse cx="467.96" cy="307.07" rx="28.91" ry="4.33" fill="#fff"/><g clip-path="url(#a)"><path fill="#fff" stroke="#262626" stroke-miterlimit="10" d="M464.26 309.04l5.51.94"/><ellipse cx="467.96" cy="310.38" rx="28.91" ry="3.39" fill="#262626"/></g><ellipse cx="467.96" cy="307.07" rx="28.91" ry="4.33" fill="none" stroke="#262626" stroke-miterlimit="10"/><g stroke="#262626" stroke-miterlimit="10"><path d="M443.16 223.43s-4.59 18.77 1.54 29.87 15.3 25.7 17.23 34.85 3.45 22.21 3.45 22.21m33.7-84.25s-11.11 11.49-13 25.66S483 295 474.57 308.83" fill="none"/><path d="M450.24 214.2c-.58 3.22-4.81 10.22-7.21 9.79s-2-8.12-1.46-11.35 3-5.49 5.38-5.06 3.86 3.42 3.29 6.62zm2.65 20.23c-2.43 1.91-9.79 4.19-11.21 2.38s3.65-7 6.08-8.91 5.54-2 7-.19.56 4.81-1.87 6.72zm15.78 43.05c-2 2.35-8.8 6-10.54 4.51s2.23-7.57 4.24-9.91 5.05-3 6.79-1.54 1.52 4.6-.49 6.94zm-7.47-14.93c-2 2.34-8.79 6-10.53 4.51s2.22-7.58 4.23-9.92 5.06-3 6.79-1.54 1.52 4.6-.49 6.95zm-6.32-15.22c-2 2.34-8.79 6-10.53 4.51s2.22-7.58 4.23-9.92 5.06-3 6.8-1.54 1.51 4.62-.5 6.95zm54.86-24.7c-2 2.34-8.8 6-10.53 4.51s2.22-7.58 4.23-9.92 5.05-3 6.79-1.54 1.52 4.6-.49 6.95zm-37.62 68.29c-1 2.92-6 8.82-8.13 8.07s-.72-7.86.29-10.78 3.58-4.68 5.75-3.93 3.1 3.72 2.09 6.64zm18.13 9.47c-2.92 1-10.62.75-11.37-1.41s5.74-5.42 8.66-6.43 5.89-.07 6.64 2.1-1.01 4.74-3.93 5.74zm4.02-15.79c-2.92 1-10.62.75-11.37-1.42s5.74-5.42 8.66-6.43 5.9-.07 6.64 2.1-1.01 4.74-3.93 5.75zm2.3-16.37c-2.92 1-10.62.75-11.37-1.42s5.74-5.42 8.66-6.43 5.89-.07 6.64 2.1-1.01 4.74-3.93 5.75zm1.15-15.51c-2.92 1-10.62.75-11.37-1.42s5.74-5.42 8.66-6.43 5.89-.07 6.64 2.1-1.01 4.74-3.93 5.75zm4.88-12.93c-2.92 1-10.62.75-11.37-1.41S497 233 499.89 232s5.89-.07 6.64 2.09-1.01 4.69-3.93 5.7z" fill="#fff"/><path d="M490.88 225.09c1.51 2.7 2.62 10.32.62 11.44s-6.35-4.68-7.86-7.38-1.12-5.79.88-6.91 4.85.16 6.36 2.85zM483 239.66c2 2.38 4.39 9.69 2.62 11.15s-7.07-3.5-9-5.88-2.12-5.5-.35-7 4.73-.66 6.73 1.73zm-4 34.18c2 2.38 4.39 9.69 2.62 11.15s-7.07-3.5-9-5.88-2.12-5.5-.35-7 4.73-.66 6.73 1.73zm-3.19 15.79c2 2.39 4.39 9.7 2.62 11.15s-7.07-3.49-9-5.88-2.12-5.5-.35-6.95 4.77-.7 6.73 1.68zm-39.76-62.33c2.54 1.76 6.86 8.14 5.55 10s-7.76-1.45-10.29-3.22-3.53-4.72-2.22-6.6 4.43-1.95 6.96-.18zm-.79 17.3c2.93 1 8.89 5.86 8.16 8s-7.85.81-10.78-.17-4.72-3.53-4-5.7 3.69-3.11 6.62-2.13zm8.33 15.22c2.93 1 8.89 5.86 8.16 8s-7.85.81-10.78-.17-4.72-3.53-4-5.7 3.69-3.11 6.62-2.13zm7.76 15.8c2.93 1 8.88 5.86 8.16 8s-7.85.8-10.78-.17-4.72-3.53-4-5.7 3.69-3.11 6.62-2.13zm4.31 15.79c2.93 1 8.88 5.87 8.16 8s-7.85.81-10.79-.16-4.71-3.53-4-5.71 3.7-3.1 6.63-2.13zm24.69-34.87c2.17 2.2 5.25 9.26 3.62 10.87s-7.36-2.84-9.53-5-2.6-5.29-1-6.9 4.74-1.17 6.91 1.03z" fill="#fff"/></g><path d="M64.54 39.62A12.35 12.35 0 0052.19 52v162.11H53a37 37 0 0074.08 0h.82a37 37 0 0074.08 0 37 37 0 1074.07 0h.83a37 37 0 1074.07 0h.82V52a12.34 12.34 0 00-12.34-12.35zm6.58 22.5h93.83M71.12 71.6h93.83m-93.83 9.49h93.83m-93.83 9.48h93.83m-93.83 9.49h93.83m-93.83 9.48h93.83m-93.83 9.49h93.83m-93.83 9.48h93.83" fill="none" stroke="#262626" stroke-miterlimit="10"/><path d="M78.53 316.17c2.68-13.19 8.41-41.29 32.1-61.73 14.56-12.57 29.39-16.62 46.91-21.4 20.68-5.65 57-15.58 90.54 0 18.06 8.39 19.55 16.88 42 36.21 26.22 22.61 36.46 18.9 74.89 44.45 22.64 15.05 34.13 22.83 42.8 35.39 14.15 20.51 18.19 44.55 17.29 61.73-2.92 55.54-60.42 95.53-99.59 111.11-55.9 22.24-122.21 13.81-172-21.4-67-47.31-85.98-130.14-74.94-184.36z" fill="#fff" stroke="#262626" stroke-miterlimit="10"/><path d="M188.3 209.58s5.35 17.39 4.12 25.93 31.69 4.83 31.69 4.83l3.08-6.38-.72-14.5-32.92-14.82z" fill="#fff" stroke="#262626" stroke-miterlimit="10"/><path d="M181 205.05s-3 2.27-7.2-.92-6.59-4.73-7.41-19.65-4.53-16.87-3.6-22.12 2.37-10.91 13.07-14.51 28.6-4 32.2-7.61 16.36-7.1 16.66 2.47-1.13 9-1.13 9 5 3.91 6.48 12.76 4.43 12 6.49 15.53 1.95 11.32-.11 13-5.45.2-5.45.2l-12.76-27.78-26.13 7.82 1.65 23.46z" fill="#262626"/><path d="M193.14 206.91s-2.47 6-7 3.49-10.08-12.14-8-16.46 7-1.44 8-.61 4.32-3.91 2.88-6.59-1-6 0-8.43-.2-9.47-1-10.5c0 0 27.57.41 30.24-7.61a23.91 23.91 0 018.23 9.46c3.09 6.38 2.27 11.32 5.35 15.64s3.09 12.35 2.47 16.46-3.7 17.49-8.64 21.81-15 7.21-17.7 3.5-4.93-4.94-6.79-7.82m-4.95-37.65a6.87 6.87 0 018.78-3.16m12.07-3.15s5.35-4.94 8.78 0" fill="#fff" stroke="#262626" stroke-miterlimit="10"/><path d="M213.92 179.4s.14 8 4 9.88 4.66.69 4.94 1.65a9.58 9.58 0 01-1.24 6.72m-14.97 2.74c-.58-1.55 11.25 7.82 16.46 4.12s-7.27 20.49-16.46-4.12z" fill="#fff" stroke="#262626" stroke-miterlimit="10"/><ellipse cx="204.53" cy="186.6" rx="1.58" ry="3.5" fill="#262626"/><ellipse cx="222.84" cy="183" rx="1.58" ry="3.5" fill="#262626"/><path d="M183.47 240.45s-47.53 24.48-52.68 26.95c0 0-5.14 39.1-3.49 61.11s-2.89 24.28-.62 30.46 9.67 12.34 14 15 13.66 9.68 22.89 2.11l.77-.67s-2.67-7.62 3.91-16.46 1.85-9.06 12.55-14.82c0 0 9.47-2.26 17.7 0s26.75 0 28.81-2.06 2.88-7.61 9.26-8.64 2.67 2.68 14.61-4.32 13-2.06 13-2.06l35.8-6.79 11.94-4.94-22.23-67.69s-47.53-7.62-50.41-9.88-55.81 2.7-55.81 2.7z" fill="#00654d" stroke="#262626" stroke-miterlimit="10"/><path d="M191.8 225.12s-9.05 3.08-9.87 7.71-1.24 16 9 20.79 24.69 7.71 24.69 7.71l-.72-21.6 10.49 19.44s11.12-11.21 11.73-13.68 2.27-9.67.72-14.71-5.39-7.52-9.87-8.34a2.88 2.88 0 00-1.55 0l.72 9.78s-5.65 10.9-34.77 2.67c.05 0 .77-5.76-.57-9.77z" fill="#00654d" stroke="#262626" stroke-miterlimit="10"/><path d="M189.23 232.63a7.59 7.59 0 003.19 2.26" fill="none" stroke="#262626" stroke-linejoin="round"/><path d="M144.37 278.72s19.55 21.6 27.37 54.53m-28.6 20.57s29-37.24 38.27-10.9m-33.74-10.7s14.61-2.68 20.16 1.23" fill="#00654d" stroke="#262626" stroke-miterlimit="10"/><path d="M163.56 376.1s9.21 10 29.58 6.94 35.19-25.72 45.89-30.66c10.19-4.7 17.76-12.2 23.26-12.55a5.48 5.48 0 01.81 0l1-12.76s-5.08-6.24-14.4.62-11.94 4.8-14.82 4.8-5.49 4.39-8.37 6.45-26.72 5.06-37.51 4.11-23.82-6.33-25.44 33.05zm99.54-35.24l7-84.78 85.59-3.7 5.35 2.47-9.67 71.61-66.46 13.37s-14.4-5.14-21.81 1.03z" fill="#fff" stroke="#262626" stroke-miterlimit="10"/><path fill="#fff" stroke="#262626" stroke-miterlimit="10" d="M268.04 338.39l7.2-79.43 85.8-4.11"/><ellipse cx="319.22" cy="294.97" rx="9.26" ry="5.5" transform="rotate(-86.6 318.693 294.412)" fill="#262626"/><path d="M370.71 484.35L363 495.87l8 24.42s39 18.93 52.68 18.38c0 0 8.77-9.06 3-24.42s-55.97-29.9-55.97-29.9z" fill="#00654d"/><g clip-path="url(#b)"><path d="M357 480c1.37 1.92 13.44 17.83 24.14 22.49s29.63 8.23 38.41 13.72S436 534.28 436 534.28l-21.4 24.42-66.12-15.92L357 480z" fill="#fff" stroke="#262626" stroke-miterlimit="10"/><path d="M360.15 478.72s1.51 18.52 8.64 25a43.24 43.24 0 0022.91 11.08c8.1 1.23 33.75 7.41 39.78 20.58s-11.79 14.54-11.79 14.54l-64.06-18.25z" fill="#262626"/></g><path d="M370.71 484.35L363 495.87l8 24.42s39 18.93 52.68 18.38c0 0 8.77-9.06 3-24.42s-55.97-29.9-55.97-29.9z" fill="none" stroke="#262626" stroke-miterlimit="10"/><path d="M418 364.52c-4.32-20.16-8-31.07-26.75-35.39s-39.92-2.67-39.92-2.67l-66.46 13.37a28.8 28.8 0 00-25.72 1c-13.37 7.41-17.9 10.9-20.16 11.52s-12.31 7.65-15.19 11.97-19.55 17.08-30.66 18.68c0 0 2.88 21 23.25 28s34.78-7 44-5.56 13.79 7.61 19.55 19.75 23.67 30.87 56.79 45.68 53.5 24.08 54.33 24.49c0 0 2.46-12.35 19.13-18.11l-4.32-6s13.17-43.21 14.4-57.82 2.09-28.74-2.27-48.91zm-83.54 24.9c-12.07-8.51-14-8.51-18.11-19.75 0 0 27.44 6.86 53.23 3 0 0-7.68 15.92 4.11 56.52.04.01-27.12-31.27-39.19-39.77z" fill="#fbc469" stroke="#262626" stroke-miterlimit="10"/><path d="M289.78 342.51s16.74 4.39 25 23.59" fill="none" stroke="#262626" stroke-miterlimit="10"/><path d="M414.75 509c.39.41 23.87-.41 13.58-19.48l-17.56-12.35s-17.28 1.51-19.68 18.18c0 .04 20.78 10.65 23.66 13.65z" fill="#fff" stroke="#262626" stroke-miterlimit="10"/><path d="M439.71 524.26s18.11-11.66 29.09-22.63c12.52-12.52 16.15-13.88 22.36-18.38 8.5-6.17 14-13.58 12.89-18.11s-13.31-9.74-32 2.74-27.3 24.56-43.76 21.68c0 0 6.72 17-13.58 19.48.04-.04 18.15 9.46 25 15.22z" fill="#00654d"/><g clip-path="url(#c)"><path d="M441.5 479.68s-5.49 11.94-1.65 21.68m9.15-24.42s-4.11 10.84.41 20.3m9.24-26.75s-3.85 13.44-.42 21.54" fill="#00654d" stroke="#262626" stroke-miterlimit="10"/><path d="M424.9 497.65c1.51.55 17.15 4 26.2-6.58S475.65 463 484 459.52" fill="none" stroke="#262626" stroke-miterlimit="10"/><path d="M432.31 526.6s10.42-7.14 15.64-12.49 14.95-13.3 18.1-22.77 10.29-27.57 25.24-35.12 25 11.53 25 11.53l-1.37 61.59-81.76.82z" fill="#fff" stroke="#262626" stroke-miterlimit="10"/><path d="M467 510.41s2.2-23.05 20.72-37.18 23.45-7.13 23.45-7.13l-35.8 44.31z" fill="#262626"/></g><path d="M439.71 524.26s18.11-11.66 29.09-22.63c12.52-12.52 16.15-13.88 22.36-18.38 8.5-6.17 14-13.58 12.89-18.11s-13.31-9.74-32 2.74-27.3 24.56-43.76 21.68c0 0 6.72 17-13.58 19.48.04-.04 18.15 9.46 25 15.22zM126.27 404.23s40.53-17.38 78.8.32m-47.53 21.91s11.53-6.18 20.58-7.82m13.99-2.88s15.23-4.12 24.28-4.73" fill="none" stroke="#262626" stroke-miterlimit="10"/><circle cx="356.14" cy="178.88" r="36.86" fill="#fff"/><g clip-path="url(#d)" fill="#fff" stroke="#262626" stroke-miterlimit="10"><path d="M332.32 146.58l13.87-.35m-18.72 4.44l8.12-.21m-12.21 3.09l7.72-.2m-11.94 5.86l7.73-.2m-7.94 7.54l6.54-.17m-8.35 6.56l5.15-.14m-5.55 15.61l5.94-.16m-5.67 18.38l16.44-.42m-16.75 3.8l20.79-.53"/></g><circle cx="356.14" cy="178.88" r="36.86" fill="none" stroke="#262626" stroke-miterlimit="10"/><circle cx="361.3" cy="179.14" r="36.86" fill="#fff" stroke="#262626" stroke-miterlimit="10"/><circle cx="360.48" cy="178.37" r="30.12" fill="#fff" stroke="#262626" stroke-miterlimit="10"/><circle cx="359.82" cy="178.39" r="27.15" fill="#fff" stroke="#262626" stroke-miterlimit="10"/><circle cx="309.54" cy="81.55" r="30.7" fill="#fff"/><g clip-path="url(#e)" fill="#fff" stroke="#262626" stroke-miterlimit="10"><path d="M309.48 48.13l9.48 6.61m-14.75-6.26l5.55 3.87m-9.71-3.95l5.28 3.68m-10.9-1.96l5.28 3.67m-9.04 1.15l4.47 3.11m-8.85.28l3.52 2.45m-11.41 7.73l4.06 2.83m-12.88 9.54l11.24 7.83m-13.11-5.72l14.22 9.91"/></g><circle cx="309.54" cy="81.55" r="30.7" fill="none" stroke="#262626" stroke-miterlimit="10"/><circle cx="312.87" cy="84.28" r="30.7" fill="#fff" stroke="#262626" stroke-miterlimit="10"/><circle cx="312.7" cy="83.36" r="25.08" fill="#fff" stroke="#262626" stroke-miterlimit="10"/><circle cx="312.25" cy="83.04" r="22.61" fill="#fff" stroke="#262626" stroke-miterlimit="10"/><circle cx="379.23" cy="25.83" r="24.02" fill="#fff"/><g clip-path="url(#f)" fill="#fff" stroke="#262626" stroke-miterlimit="10"><path d="M356.1 13.63l8.04-4.14m-9.73 7.91l4.71-2.42m-6.29 5.27l4.48-2.31m-5.35 6.82l4.47-2.3m-2.52 6.67l3.79-1.95m-3.05 6.22l2.99-1.54m1.16 10.73l3.45-1.77m1.88 12.4l9.53-4.91m-8.76 6.98l12.06-6.21"/></g><circle cx="379.23" cy="25.83" r="24.02" fill="none" stroke="#262626" stroke-miterlimit="10"/><circle cx="382.34" cy="24.53" r="24.02" fill="#fff" stroke="#262626" stroke-miterlimit="10"/><circle cx="381.64" cy="24.3" r="19.63" fill="#fff" stroke="#262626" stroke-miterlimit="10"/><circle cx="381.26" cy="24.5" r="17.69" fill="#fff" stroke="#262626" stroke-miterlimit="10"/></g></g></svg>