<svg width="56" height="56" viewBox="0 0 56 56" fill="none" xmlns="http://www.w3.org/2000/svg">
<path d="M41.4213 4.46884V1.69531C41.4213 1.46325 41.3291 1.24069 41.165 1.07659C41.0009 0.9125 40.7784 0.820313 40.5463 0.820312H7.14294C6.91088 0.820313 6.68832 0.9125 6.52423 1.07659C6.36013 1.24069 6.26794 1.46325 6.26794 1.69531V38.6094M6.26794 42.4375V48.6192C6.26794 48.8512 6.36013 49.0738 6.52423 49.2379C6.68832 49.402 6.91088 49.4942 7.14294 49.4942H9.91648" stroke="#007A65" stroke-width="1.64062" stroke-miterlimit="10" stroke-linecap="round" stroke-linejoin="round"/>
<path d="M45.0698 37.3657V5.34385C45.0698 5.11178 44.9777 4.88922 44.8136 4.72513C44.6495 4.56103 44.4269 4.46885 44.1948 4.46885H23.8306M9.9165 11V52.2677C9.9165 52.4998 10.0087 52.7223 10.1728 52.8864C10.3369 53.0505 10.5594 53.1427 10.7915 53.1427H34.5239" stroke="#007A65" stroke-width="1.64062" stroke-miterlimit="10" stroke-linecap="round" stroke-linejoin="round"/>
<path d="M49.732 43.7492C48.8461 39.4109 45.0083 36.1469 40.4082 36.1469C35.1525 36.1469 30.8918 40.4075 30.8918 45.6633C30.8918 50.919 35.1524 55.1797 40.4082 55.1797C45.0083 55.1797 48.8461 51.9157 49.732 47.5774" stroke="#007A65" stroke-width="1.64062" stroke-miterlimit="10" stroke-linecap="round" stroke-linejoin="round"/>
<path d="M36.0106 45.4782L39.3189 48.8355L44.8058 43.035M16.6174 27.4463H38.3691M16.6174 32.0685H18.1127M16.6174 36.6907H29.4088M16.6174 41.313H17.7335M21.3613 41.313H22.4775M26.1051 41.313H27.2213M16.6174 45.9352H27.2213M21.3755 32.0685H38.3691M9.9165 10.7188H15.2914C15.5235 10.7188 15.746 10.6266 15.9101 10.4625C16.0742 10.2984 16.1664 10.0758 16.1664 9.84375V4.46885L9.9165 10.7188Z" stroke="#007A65" stroke-width="1.64062" stroke-miterlimit="10" stroke-linecap="round" stroke-linejoin="round"/>
<path d="M28.921 23.035L35.0789 13" stroke="#007A65" stroke-width="1.7" stroke-miterlimit="10" stroke-linecap="round" stroke-linejoin="round"/>
<path d="M28.0072 17.1186C29.1105 17.1186 30.0118 16.217 30.0118 15.1135C30.0118 14.0075 29.1105 13.1086 28.0072 13.1086C26.9014 13.1086 26 14.0075 26 15.1135C26 16.217 26.9014 17.1186 28.0072 17.1186Z" stroke="#007A65" stroke-width="1.7" stroke-miterlimit="10" stroke-linecap="round" stroke-linejoin="round"/>
<path d="M35.9929 22.9265C37.0987 22.9265 38 22.025 38 20.9215C38 19.8154 37.0987 18.9139 35.9929 18.9139C34.8896 18.9139 33.9882 19.8154 33.9882 20.9215C33.9882 22.025 34.8896 22.9265 35.9929 22.9265Z" stroke="#007A65" stroke-width="1.7" stroke-miterlimit="10" stroke-linecap="round" stroke-linejoin="round"/>
</svg>
