<svg width="56" height="56" viewBox="0 0 56 56" fill="none" xmlns="http://www.w3.org/2000/svg">
<path d="M16.0826 41.8687V52.3515C16.0826 53.9135 17.3488 55.1797 18.9108 55.1797H45.3805C46.9424 55.1797 48.2088 53.9135 48.2088 52.3515V49.6239C48.0958 49.6318 47.9826 49.6359 47.8694 49.6363C45.0578 49.6363 42.7785 47.3571 42.7785 44.5455C42.7785 41.7339 45.0578 39.4546 47.8694 39.4546C47.9836 39.4546 48.0964 39.4598 48.2088 39.4671V34.9734C48.0958 34.9813 47.9826 34.9855 47.8694 34.9859C45.0578 34.9859 42.7785 32.7066 42.7785 29.895C42.7785 27.0834 45.0578 24.8042 47.8694 24.8042C47.9836 24.8042 48.0964 24.8093 48.2088 24.8166V20.323C48.0958 20.3309 47.9826 20.335 47.8694 20.3354C45.0578 20.3354 42.7785 18.0562 42.7785 15.2446C42.7785 12.433 45.0578 10.1537 47.8694 10.1537C47.9836 10.1537 48.0964 10.1589 48.2088 10.1662V3.64853C48.2088 2.08655 46.9425 0.820312 45.3805 0.820312H18.9108C17.3488 0.820312 16.0826 2.08655 16.0826 3.64853V11.9219M16.0826 15.75V23.421" stroke="#007A65" stroke-width="1.64062" stroke-miterlimit="10" stroke-linecap="round" stroke-linejoin="round"/>
<path d="M40.7969 6.53341H48.2088V3.64853C48.2088 2.08655 46.9425 0.820312 45.3805 0.820312H18.9108C17.3488 0.820312 16.0826 2.08655 16.0826 3.64853V6.53341H36.9688" stroke="#007A65" stroke-width="1.64062" stroke-miterlimit="10" stroke-linecap="round" stroke-linejoin="round"/>
<path d="M18.9108 0.820312C17.3488 0.820312 16.0826 2.08655 16.0826 3.64864V6.53352H23.2485V0.820312H18.9108Z" stroke="#007A65" stroke-width="1.64062" stroke-miterlimit="10" stroke-linecap="round" stroke-linejoin="round"/>
<path d="M51.4688 18.8444C53.4568 16.8562 53.4568 13.6329 51.4687 11.6448C49.4805 9.65674 46.2572 9.6568 44.2691 11.6449C42.281 13.6331 42.2811 16.8564 44.2692 18.8445C46.2574 20.8326 49.4807 20.8325 51.4688 18.8444Z" stroke="#007A65" stroke-width="1.64062" stroke-miterlimit="10" stroke-linecap="round" stroke-linejoin="round"/>
<path d="M45.4935 15.1879L47.4096 16.9689L50.1685 13.7173M28.0237 13.0265H39.5843M22.1348 13.0265H25.4156M36.2169 17.4626H39.5843M22.1348 17.4626H33.4474" stroke="#007A65" stroke-width="1.64062" stroke-miterlimit="10" stroke-linecap="round" stroke-linejoin="round"/>
<path d="M47.8694 49.6362C50.681 49.6362 52.9603 47.357 52.9603 44.5454C52.9603 41.7338 50.681 39.4545 47.8694 39.4545C45.0578 39.4545 42.7785 41.7338 42.7785 44.5454C42.7785 47.357 45.0578 49.6362 47.8694 49.6362Z" stroke="#007A65" stroke-width="1.64062" stroke-miterlimit="10" stroke-linecap="round" stroke-linejoin="round"/>
<path d="M28.0237 42.3272H39.5843M36.2169 46.7635H39.5843M22.1348 46.7635H33.4474" stroke="#007A65" stroke-width="1.64062" stroke-miterlimit="10" stroke-linecap="round" stroke-linejoin="round"/>
<path d="M51.4687 33.4948C53.4567 31.5066 53.4567 28.2833 51.4685 26.2952C49.4804 24.3072 46.257 24.3072 44.269 26.2954C42.2809 28.2835 42.281 31.5068 44.2691 33.4949C46.2572 35.483 49.4806 35.4829 51.4687 33.4948Z" stroke="#007A65" stroke-width="1.64062" stroke-miterlimit="10" stroke-linecap="round" stroke-linejoin="round"/>
<path d="M32.2656 27.6769H39.5844M37.9139 32.1131H39.5844M33.4688 32.1131H35.3118M6.00546 45.5718L3.53676 48.0405C2.87406 48.7032 2.87406 49.7777 3.53676 50.4403L4.33673 51.2402C4.99943 51.9029 6.07393 51.9029 6.73664 51.2402L16.0979 41.8788C14.8228 41.0435 13.7335 39.9542 12.8982 38.679L8.71239 42.8648" stroke="#007A65" stroke-width="1.64062" stroke-miterlimit="10" stroke-linecap="round" stroke-linejoin="round"/>
<path d="M29.9314 40.4442C34.2389 36.1366 34.2387 29.1526 29.9311 24.8451C25.6234 20.5376 18.6395 20.5377 14.332 24.8454C10.0245 29.153 10.0246 36.137 14.3322 40.4445C18.6399 44.752 25.6239 44.7519 29.9314 40.4442Z" stroke="#007A65" stroke-width="1.64062" stroke-miterlimit="10" stroke-linecap="round" stroke-linejoin="round"/>
<path d="M27.5958 38.1088C30.6135 35.091 30.6134 30.1983 27.5956 27.1806C24.5779 24.163 19.6852 24.1631 16.6675 27.1808C13.6499 30.1986 13.6499 35.0913 16.6677 38.109C19.6855 41.1266 24.5782 41.1265 27.5958 38.1088Z" stroke="#007A65" stroke-width="1.64062" stroke-miterlimit="10" stroke-linecap="round" stroke-linejoin="round"/>
<path d="M21.9624 30.3136H26.101M18.1818 30.3136H19.4011M24.4512 34.7499H26.101M18.1818 34.7499H21.802M49.5663 28.198L46.1724 31.5919M46.1724 28.198L49.5663 31.5919" stroke="#007A65" stroke-width="1.64062" stroke-miterlimit="10" stroke-linecap="round" stroke-linejoin="round"/>
</svg>
