<svg width="56" height="56" viewBox="0 0 56 56" fill="none" xmlns="http://www.w3.org/2000/svg">
<g clip-path="url(#clip0_1431_3706)">
<mask id="mask0_1431_3706" style="mask-type:luminance" maskUnits="userSpaceOnUse" x="0" y="0" width="56" height="56">
<path d="M55.1498 55.15V0.850163H0.850061V55.15H55.1498Z" fill="white" stroke="white" stroke-width="1.7"/>
</mask>
<g mask="url(#mask0_1431_3706)">
<path d="M27.1572 12.0511C27.1572 11.8959 26.9494 11.8424 26.8763 11.9793C25.9318 13.7455 24.0708 14.9476 21.9279 14.9476H13.3403V20.6438C13.3403 24.7947 16.5929 28.5862 21.5127 28.5862C25.8923 28.5862 29.4553 25.0231 29.4553 20.6438V14.8846C28.1469 14.6069 27.1572 13.4391 27.1572 12.0511Z" stroke="#007A65" stroke-width="1.7" stroke-miterlimit="10" stroke-linecap="round" stroke-linejoin="round"/>
<path d="M7.53784 40.9487V54.9566" stroke="#007A65" stroke-width="1.7" stroke-miterlimit="10" stroke-linecap="round" stroke-linejoin="round"/>
<path d="M10.5064 14.063C9.51773 14.5339 8.83282 15.5391 8.83282 16.707C8.83282 18.3252 10.1447 19.6373 11.763 19.6373H13.3403V14.9478H12.3477C11.6026 14.9478 10.9393 14.602 10.5064 14.063Z" stroke="#007A65" stroke-width="1.7" stroke-miterlimit="10" stroke-linecap="round" stroke-linejoin="round"/>
<path d="M31.5188 13.8205C31.345 14.4673 30.7535 14.9478 30.0537 14.9478C29.8486 14.9478 29.6489 14.9246 29.4557 14.8833L29.4553 14.8846V19.6373H31.0326C32.6509 19.6373 33.9628 18.3253 33.9628 16.7072C33.9628 15.2549 32.9052 14.0525 31.5188 13.8205Z" stroke="#007A65" stroke-width="1.7" stroke-miterlimit="10" stroke-linecap="round" stroke-linejoin="round"/>
<path d="M31.2859 54.124V51.8605C31.2859 51.2774 31.7585 50.8047 32.3416 50.8047C32.0616 50.8047 31.7931 50.6935 31.5951 50.4955C31.3971 50.2975 31.2859 50.029 31.2859 49.749V47.4855C31.2859 46.9024 31.7585 46.4297 32.3416 46.4297C32.0616 46.4297 31.7931 46.3185 31.5951 46.1205C31.3971 45.9225 31.2859 45.654 31.2859 45.374V43.1105C31.2859 42.5274 31.7585 42.0547 32.3416 42.0547H40.3062C39.7232 42.0547 39.2505 41.5821 39.2505 40.999V38.7355C39.2505 38.1525 39.7232 37.6797 40.3062 37.6797C39.7232 37.6797 39.2505 37.2071 39.2505 36.6241V36.0388C38.7452 35.6213 38.1946 35.2841 37.6197 35.0475C37.0778 34.8376 26.8957 30.8942 26.3658 30.6892C26.2146 30.6306 26.0846 30.5278 25.9928 30.3942C25.9009 30.2606 25.8516 30.1023 25.8512 29.9402L25.849 27.2931C24.6013 28.1096 23.112 28.5863 21.5127 28.5863C19.7493 28.5863 18.2017 28.0973 16.9397 27.2811V29.9352C16.9397 30.2671 16.7801 30.4625 16.5965 30.5872L5.176 35.0475C3.31379 35.8139 0.820374 38.2253 0.820374 41.8034V53.7283C0.820374 54.5299 1.47017 55.1797 2.27177 55.1797H32.3416C32.0616 55.1797 31.7931 55.0685 31.5951 54.8705C31.3971 54.6725 31.2859 54.404 31.2859 54.124Z" stroke="#007A65" stroke-width="1.7" stroke-miterlimit="10" stroke-linecap="round" stroke-linejoin="round"/>
<path d="M11.8314 32.4481L17.4771 37.7024C17.6399 37.8547 17.8566 37.9362 18.0795 37.9288C18.3024 37.9214 18.5132 37.8258 18.6656 37.663L20.4419 35.7648C20.5943 35.602 20.6758 35.3853 20.6684 35.1624C20.661 34.9395 20.5654 34.7286 20.4026 34.5762L16.2556 30.7202L11.8314 32.4481Z" stroke="#007A65" stroke-width="1.7" stroke-miterlimit="10" stroke-linecap="round" stroke-linejoin="round"/>
<path d="M24.1397 37.663C24.2151 37.7436 24.3057 37.8086 24.4063 37.8543C24.5069 37.8999 24.6155 37.9252 24.7258 37.9289C24.8362 37.9326 24.9462 37.9144 25.0496 37.8756C25.153 37.8367 25.2477 37.7778 25.3283 37.7024L30.9796 32.4759L26.541 30.757L22.4028 34.5762C22.24 34.7286 22.1444 34.9395 22.137 35.1624C22.1296 35.3853 22.2111 35.602 22.3635 35.7649L24.1397 37.663Z" stroke="#007A65" stroke-width="1.7" stroke-miterlimit="10" stroke-linecap="round" stroke-linejoin="round"/>
<path d="M22.3635 35.7648C22.2746 35.6698 22.209 35.5555 22.1719 35.4308C22.1348 35.3061 22.1273 35.1745 22.1498 35.0464H20.6557C20.6782 35.1745 20.6706 35.3061 20.6336 35.4308C20.5965 35.5555 20.5309 35.6698 20.4421 35.7648L18.8271 37.4903L19.5287 39.2331H23.2768L23.9783 37.4903L22.3635 35.7648Z" stroke="#007A65" stroke-width="1.7" stroke-miterlimit="10" stroke-linecap="round" stroke-linejoin="round"/>
<path d="M23.2768 39.2331H19.5286L18.3329 55.1797H24.4725L23.2768 39.2331Z" stroke="#007A65" stroke-width="1.7" stroke-miterlimit="10" stroke-linecap="round" stroke-linejoin="round"/>
<path d="M52.335 19.8431H42.095C41.5308 19.8431 41.206 20.4845 41.5399 20.9393L46.6597 27.915C46.935 28.2899 47.4949 28.2899 47.7702 27.915L52.8901 20.9393C53.224 20.4845 52.8991 19.8432 52.335 19.8431Z" stroke="#007A65" stroke-width="1.7" stroke-miterlimit="10" stroke-linecap="round" stroke-linejoin="round"/>
<path d="M54.1239 37.6797H40.3062C40.0262 37.6797 39.7577 37.791 39.5597 37.9889C39.3617 38.1869 39.2505 38.4554 39.2505 38.7354V40.999C39.2505 41.279 39.3617 41.5475 39.5597 41.7455C39.7577 41.9435 40.0262 42.0547 40.3062 42.0547H54.1239C54.7069 42.0547 55.1795 41.5821 55.1795 40.999V38.7354C55.1795 38.1523 54.7069 37.6797 54.1239 37.6797Z" stroke="#007A65" stroke-width="1.7" stroke-miterlimit="10" stroke-linecap="round" stroke-linejoin="round"/>
<path d="M46.1593 42.0547H32.3416C32.0616 42.0547 31.7931 42.1659 31.5952 42.3639C31.3972 42.5619 31.2859 42.8304 31.2859 43.1104V45.374C31.2859 45.654 31.3972 45.9225 31.5952 46.1205C31.7931 46.3185 32.0616 46.4297 32.3416 46.4297H46.1593C46.4392 46.4297 46.7078 46.3185 46.9057 46.1205C47.1037 45.9225 47.2149 45.654 47.2149 45.374V43.1104C47.2149 42.8304 47.1037 42.5619 46.9057 42.3639C46.7078 42.1659 46.4392 42.0547 46.1593 42.0547Z" stroke="#007A65" stroke-width="1.7" stroke-miterlimit="10" stroke-linecap="round" stroke-linejoin="round"/>
<path d="M46.1593 46.4297H32.3416C32.0616 46.4297 31.7931 46.5409 31.5952 46.7389C31.3972 46.9369 31.2859 47.2054 31.2859 47.4854V49.749C31.2859 50.029 31.3972 50.2975 31.5952 50.4955C31.7931 50.6935 32.0616 50.8047 32.3416 50.8047H46.1593C46.4392 50.8047 46.7078 50.6935 46.9057 50.4955C47.1037 50.2975 47.2149 50.029 47.2149 49.749V47.4854C47.2149 47.2054 47.1037 46.9369 46.9057 46.7389C46.7078 46.5409 46.4392 46.4297 46.1593 46.4297Z" stroke="#007A65" stroke-width="1.7" stroke-miterlimit="10" stroke-linecap="round" stroke-linejoin="round"/>
<path d="M46.1593 50.8047H32.3416C32.0616 50.8047 31.7931 50.9159 31.5952 51.1139C31.3972 51.3119 31.2859 51.5804 31.2859 51.8604V54.124C31.2859 54.404 31.3972 54.6725 31.5952 54.8705C31.7931 55.0685 32.0616 55.1797 32.3416 55.1797H46.1593C46.4392 55.1797 46.7078 55.0685 46.9057 54.8705C47.1037 54.6725 47.2149 54.404 47.2149 54.124V51.8604C47.2149 51.5804 47.1037 51.3119 46.9057 51.1139C46.7078 50.9159 46.4392 50.8047 46.1593 50.8047Z" stroke="#007A65" stroke-width="1.7" stroke-miterlimit="10" stroke-linecap="round" stroke-linejoin="round"/>
<path d="M54.1239 50.8047H46.1594C46.4393 50.8047 46.7079 50.9159 46.9058 51.1139C47.1038 51.3119 47.215 51.5804 47.215 51.8604V54.124C47.215 54.404 47.1038 54.6725 46.9058 54.8705C46.7079 55.0685 46.4393 55.1797 46.1594 55.1797H54.1239C54.7069 55.1797 55.1795 54.7071 55.1795 54.124V51.8604C55.1795 51.2773 54.7069 50.8047 54.1239 50.8047Z" stroke="#007A65" stroke-width="1.7" stroke-miterlimit="10" stroke-linecap="round" stroke-linejoin="round"/>
<path d="M54.1239 46.4297H46.1594C46.4393 46.4297 46.7079 46.5409 46.9058 46.7389C47.1038 46.9369 47.215 47.2054 47.215 47.4854V49.749C47.215 50.029 47.1038 50.2975 46.9058 50.4955C46.7079 50.6935 46.4393 50.8047 46.1594 50.8047H54.1239C54.7069 50.8047 55.1795 50.3321 55.1795 49.749V47.4854C55.1795 46.9023 54.7069 46.4297 54.1239 46.4297Z" stroke="#007A65" stroke-width="1.7" stroke-miterlimit="10" stroke-linecap="round" stroke-linejoin="round"/>
<path d="M54.1239 42.0547H46.1594C46.4393 42.0547 46.7079 42.1659 46.9058 42.3639C47.1038 42.5619 47.215 42.8304 47.215 43.1104V45.374C47.215 45.654 47.1038 45.9225 46.9058 46.1205C46.7079 46.3185 46.4393 46.4297 46.1594 46.4297H54.1239C54.7069 46.4297 55.1795 45.9571 55.1795 45.374V43.1104C55.1795 42.5273 54.7069 42.0547 54.1239 42.0547Z" stroke="#007A65" stroke-width="1.7" stroke-miterlimit="10" stroke-linecap="round" stroke-linejoin="round"/>
<path d="M45.3599 33.3047H40.3061C39.723 33.3047 39.2505 33.7774 39.2505 34.3604V36.624C39.2505 37.2071 39.723 37.6797 40.3061 37.6797H54.1238C54.7068 37.6797 55.1794 37.2071 55.1794 36.624V34.3604C55.1794 33.7774 54.7068 33.3047 54.1238 33.3047H49.1881" stroke="#007A65" stroke-width="1.7" stroke-miterlimit="10" stroke-linecap="round" stroke-linejoin="round"/>
<path d="M31.5721 7.88411V7.00528C31.5721 5.49175 30.2518 4.39166 28.9394 4.49251C28.1804 4.55091 27.4842 4.07382 27.3381 3.32679C27.0921 2.06887 26.4693 0.820473 24.0363 0.820473H15.5952C12.4973 0.820473 9.98596 3.33182 9.98596 6.42975V12.5858C9.98596 13.8903 11.0434 14.9476 12.3478 14.9476H21.928C24.0709 14.9476 25.9319 13.7455 26.8763 11.9793C26.9494 11.8424 27.1572 11.8959 27.1572 12.0512C27.1572 13.6442 28.4608 14.9476 30.0538 14.9476C30.889 14.9476 31.5721 14.2645 31.5721 13.4294V11.7122" stroke="#007A65" stroke-width="1.7" stroke-miterlimit="10" stroke-linecap="round" stroke-linejoin="round"/>
</g>
</g>
<defs>
<clipPath id="clip0_1431_3706">
<rect width="56" height="56" fill="white"/>
</clipPath>
</defs>
</svg>
