<svg width="56" height="56" viewBox="0 0 56 56" fill="none" xmlns="http://www.w3.org/2000/svg">
<g clip-path="url(#clip0_1431_3735)">
<path d="M28 10.2044C26.4665 10.2044 24.9905 10.6657 23.7317 11.5385C23.3596 11.7965 23.2655 12.3096 23.5216 12.6845C23.7777 13.0595 24.287 13.1542 24.6591 12.8963C25.6439 12.2135 26.7991 11.8525 28 11.8525C31.2544 11.8525 33.9019 14.52 33.9019 17.7987C33.9019 21.0774 31.2544 23.745 28 23.745C24.7457 23.745 22.0982 21.0774 22.0982 17.7987C22.0982 16.8315 22.3211 15.9095 22.7606 15.0583C22.9691 14.6545 22.8134 14.157 22.4126 13.947C22.0117 13.7371 21.5181 13.8938 21.3096 14.2976C20.7554 15.3708 20.4623 16.5815 20.4623 17.7987C20.4625 21.9863 23.8438 25.3932 28 25.3932C32.1563 25.3932 35.5376 21.9863 35.5376 17.7987C35.5376 13.6112 32.1563 10.2044 28 10.2044Z" fill="#007A65"/>
<path d="M55.9372 54.8593L47.8649 35.3178C47.8035 35.168 47.6989 35.0398 47.5645 34.9495C47.4301 34.8591 47.2719 34.8108 47.1099 34.8105H39.0657C40.6303 32.6779 41.9327 30.5537 42.9497 28.468C44.7522 24.7718 45.6661 21.1822 45.6661 17.7988C45.6659 7.98448 37.7411 0 28 0C18.259 0 10.3341 7.98448 10.3341 17.7987C10.3341 21.1821 11.2479 24.7718 13.0504 28.4679C14.0674 30.5536 15.3697 32.6779 16.9344 34.8103H8.89024C8.72829 34.8106 8.57008 34.859 8.43566 34.9494C8.30125 35.0397 8.19668 35.1679 8.13523 35.3177L2.63454 48.6337C2.46096 49.0539 2.65827 49.5363 3.07532 49.711C3.17813 49.7541 3.28444 49.7746 3.38923 49.7746C3.55125 49.7743 3.70955 49.7259 3.84403 49.6356C3.97851 49.5452 4.08311 49.4169 4.14457 49.267L4.92944 47.3669H10.4973L7.61198 54.3518H2.04424L2.88063 52.327C3.05421 51.9067 2.8569 51.4244 2.43985 51.2496C2.02259 51.0745 1.54396 51.2736 1.37049 51.6937L0.0629135 54.8593C0.0111366 54.9846 -0.00912784 55.1206 0.00389611 55.2555C0.0169201 55.3905 0.0628349 55.5201 0.137617 55.6332C0.211857 55.7458 0.312857 55.8382 0.43158 55.9022C0.550303 55.9663 0.683046 55.9998 0.817929 56H55.1821C55.317 55.9998 55.4498 55.9662 55.5685 55.9022C55.6872 55.8382 55.7883 55.7458 55.8625 55.6332C55.9373 55.5201 55.9832 55.3904 55.9962 55.2555C56.0092 55.1206 55.989 54.9846 55.9372 54.8593ZM11.9699 17.7987C11.9699 8.89317 19.161 1.64806 28 1.64806C36.8391 1.64806 44.0301 8.89328 44.0301 17.7987C44.0301 21.5331 42.7422 27.5006 36.7846 35.1052C36.7786 35.1123 36.7732 35.1199 36.7675 35.1272C36.4565 35.5238 36.14 35.916 35.818 36.3038C32.5442 40.248 29.2313 43.1282 27.9999 44.1515C26.7722 43.1317 23.4749 40.266 20.2033 36.3292C19.8736 35.9324 19.5495 35.531 19.2311 35.125C19.2261 35.1187 19.2214 35.1121 19.2161 35.1059C13.2587 27.5018 11.9699 21.5345 11.9699 17.7987ZM9.43569 36.4585H15.0036L12.9728 41.3747H7.40493L9.43569 36.4585ZM14.2184 54.3519L19.3307 41.9764L33.8792 54.3519H14.2184ZM36.4148 54.3519L19.5325 39.991C19.4346 39.9075 19.3183 39.8484 19.1931 39.8186C19.0679 39.7889 18.9374 39.7892 18.8124 39.8197C18.6872 39.8505 18.5709 39.9104 18.4732 39.9945C18.3755 40.0786 18.2989 40.1846 18.2499 40.3039L12.4468 54.3518H9.38385L12.4787 46.8594C12.5305 46.7342 12.5508 46.5981 12.5377 46.4632C12.5247 46.3283 12.4788 46.1986 12.404 46.0856C12.3298 45.973 12.2287 45.8805 12.11 45.8165C11.9913 45.7525 11.8585 45.7189 11.7236 45.7188H5.61052L6.72418 43.0227H13.5183C13.6803 43.0224 13.8385 42.974 13.9729 42.8836C14.1073 42.7933 14.2119 42.6651 14.2733 42.5153L16.7754 36.4584H18.1949C18.443 36.7706 18.6943 37.0802 18.9489 37.3871C23.1691 42.4654 27.3246 45.7257 27.4995 45.8621C27.6424 45.9738 27.8186 46.0345 28 46.0345C28.1814 46.0345 28.3576 45.9738 28.5005 45.8621C28.5967 45.7872 29.8958 44.7674 31.746 43.0228H41.008C41.4597 43.0228 41.8259 42.6538 41.8259 42.1987C41.8259 41.7436 41.4597 41.3747 41.008 41.3747H33.4317C34.5657 40.2259 35.8051 38.8865 37.0512 37.3872C37.3084 37.0777 37.559 36.7682 37.8053 36.4585H46.5644L48.5951 41.3747H44.2795C43.8278 41.3747 43.4616 41.7436 43.4616 42.1987C43.4616 42.6538 43.8277 43.0228 44.2795 43.0228H49.2759L50.3895 45.7189H33.5381C33.371 45.7192 33.2079 45.7707 33.0709 45.8665C32.9339 45.9623 32.8296 46.0977 32.7718 46.2546C32.7135 46.4118 32.7042 46.5831 32.7453 46.7457C32.7864 46.9083 32.8759 47.0546 33.002 47.1652L41.2196 54.3519H36.4148ZM43.7151 54.3519L35.7281 47.367H51.0705L53.9559 54.3519H43.7151Z" fill="#007A65"/>
</g>
<defs>
<clipPath id="clip0_1431_3735">
<rect width="56" height="56" fill="white"/>
</clipPath>
</defs>
</svg>
