<svg width="56" height="56" viewBox="0 0 56 56" fill="none" xmlns="http://www.w3.org/2000/svg">
<path d="M11.2135 24.1612C11.2135 24.6032 11.5718 24.9614 12.0137 24.9614H42.7176C43.1596 24.9614 43.5178 24.6032 43.5178 24.1612C43.5178 23.7192 43.1596 23.361 42.7176 23.361H12.0137C11.5718 23.361 11.2135 23.7193 11.2135 24.1612Z" fill="#007A65"/>
<rect x="43.6663" y="33.9759" width="1.85725" height="7.17527" rx="0.32775" fill="#007A65"/>
<rect x="43.6665" y="30.9454" width="1.85725" height="1.85725" rx="0.32775" fill="#007A65"/>
<path d="M54.9999 36.2541C54.9999 34.1249 54.3559 32.0805 53.1374 30.3418C52.8838 29.9798 52.3849 29.8922 52.023 30.1457C51.661 30.3993 51.5732 30.8983 51.8269 31.2601C52.8557 32.7283 53.3995 34.4552 53.3995 36.2541C53.3995 41.0592 49.4903 44.9684 44.6853 44.9684C39.8802 44.9684 35.971 41.0592 35.971 36.2541C35.971 31.449 39.8802 27.5398 44.6853 27.5398C46.5497 27.5398 48.3281 28.1205 49.828 29.2192C50.1846 29.4803 50.6852 29.4032 50.9463 29.0465C51.2074 28.6899 51.1302 28.1893 50.7736 27.9282C49.9827 27.3489 49.1265 26.8912 48.2252 26.5617V7.28821C48.2255 7.06939 48.1494 6.88652 48.0041 6.73449L42.7705 1.248C42.6213 1.09117 42.4069 0.995471 42.1757 1.00017H16.6473C16.2054 1.00017 15.8471 1.35832 15.8471 1.80033C15.8471 2.24235 16.2054 2.6005 16.6473 2.6005H41.1892L40.0876 7.44718C39.9657 7.98361 40.1254 8.53594 40.5147 8.92471C40.901 9.3105 41.4526 9.4732 41.9927 9.34955L46.625 8.29045V26.1207C45.9915 26.0005 45.3429 25.9395 44.6853 25.9395C42.6371 25.9395 40.7264 26.5396 39.1197 27.5732H12.0133C11.5714 27.5732 11.2132 27.9314 11.2132 28.3734C11.2132 28.8154 11.5714 29.1736 12.0133 29.1736H37.1914C36.4646 29.9425 35.8544 30.8228 35.3896 31.7859H12.0133C11.5714 31.7859 11.2132 32.144 11.2132 32.586C11.2132 33.028 11.5714 33.3862 12.0133 33.3862H34.7763C34.5372 34.211 34.3986 35.0781 34.3745 35.9732H12.0133C11.5714 35.9732 11.2132 36.3313 11.2132 36.7734C11.2132 37.2154 11.5714 37.5735 12.0133 37.5735H34.4548C34.5731 38.4961 34.8138 39.3809 35.16 40.2112H12.0133C11.5714 40.2112 11.2132 40.5694 11.2132 41.0114C11.2132 41.4534 11.5714 41.8115 12.0133 41.8115H35.9993C37.835 44.6706 41.0426 46.5686 44.6853 46.5686C45.3481 46.5686 45.9966 46.5057 46.625 46.3856V49.2276C46.625 49.5079 46.397 49.7359 46.1167 49.7359H8.68228C8.40211 49.7359 8.17412 49.5079 8.17412 49.2276V3.10856C8.17412 2.82839 8.40211 2.6004 8.68228 2.6004H13.5532C13.9951 2.6004 14.3533 2.24224 14.3533 1.80023C14.3533 1.35821 13.9951 1.00006 13.5532 1.00006H8.68228C7.51969 1.00006 6.57378 1.94586 6.57378 3.10856V4.81473H4.06658C2.96406 4.81473 2.06702 5.71166 2.06702 6.81419V46.8951C2.06702 47.3371 2.42528 47.6952 2.86719 47.6952C3.30909 47.6952 3.66735 47.3371 3.66735 46.8951V6.8143C3.66735 6.5943 3.84649 6.41517 4.06658 6.41517H6.57378V49.2278C6.57378 50.3904 7.51969 51.3364 8.68228 51.3364H42.5544V53.6254C42.5544 53.8455 42.3752 54.0247 42.1553 54.0247H4.06669C3.84659 54.0247 3.66746 53.8455 3.66746 53.6254V49.9892C3.66746 49.5471 3.3092 49.189 2.86729 49.189C2.42539 49.189 2.06712 49.5471 2.06712 49.9892V53.6254C2.06712 54.7281 2.96417 55.625 4.06669 55.625H42.1553C43.2578 55.625 44.1547 54.7281 44.1547 53.6254V51.3364H46.1167C47.2793 51.3364 48.2253 50.3905 48.2253 49.2278V45.9429C52.1743 44.4954 54.9999 40.6984 54.9999 36.2541ZM41.6518 7.78581L42.6413 3.43129C42.922 3.72554 45.705 6.64295 45.8743 6.82048L41.6518 7.78581Z" fill="#007A65"/>
<path d="M17.1693 10.1322C16.7763 10.1322 16.4244 10.2033 16.1137 10.3456C15.8067 10.4878 15.5465 10.6937 15.3331 10.9633C15.1198 11.2291 14.9569 11.5529 14.8446 11.9347C14.7323 12.3128 14.6762 12.7396 14.6762 13.215C14.6762 13.8514 14.766 14.3998 14.9457 14.8602C15.1254 15.317 15.3987 15.6688 15.7655 15.9159C16.1324 16.1592 16.5966 16.2809 17.1581 16.2809C17.5062 16.2809 17.845 16.2472 18.1745 16.1798C18.5039 16.1124 18.8445 16.0207 19.1964 15.9047V17.0502C18.8633 17.1812 18.5263 17.2767 18.1857 17.3366C17.845 17.3965 17.452 17.4264 17.0065 17.4264C16.1679 17.4264 15.4717 17.2523 14.9176 16.9042C14.3673 16.556 13.9555 16.0656 13.6823 15.433C13.4127 14.8003 13.278 14.0591 13.278 13.2094C13.278 12.5879 13.3641 12.0189 13.5363 11.5023C13.7085 10.9857 13.9593 10.5403 14.2887 10.1659C14.6181 9.78782 15.0243 9.4977 15.5072 9.29555C15.9939 9.08966 16.5498 8.98671 17.1749 8.98671C17.5867 8.98671 17.991 9.0335 18.3878 9.12709C18.7884 9.21693 19.159 9.34608 19.4996 9.51454L19.028 10.6264C18.7435 10.4916 18.4459 10.3755 18.1351 10.2782C17.8244 10.1809 17.5025 10.1322 17.1693 10.1322ZM22.7677 10.1322C22.3934 10.1322 22.0359 10.1809 21.6952 10.2782C21.3545 10.3718 21.0345 10.4841 20.735 10.6151L20.2633 9.51454C20.6227 9.34608 21.0158 9.21693 21.4425 9.12709C21.8693 9.0335 22.3185 8.98671 22.7902 8.98671C23.4191 8.98671 23.9731 9.08404 24.4523 9.2787C24.9314 9.47336 25.332 9.75412 25.6539 10.121C25.9759 10.4841 26.2192 10.9221 26.3839 11.435C26.5486 11.9441 26.631 12.5149 26.631 13.1476C26.631 14.0123 26.4869 14.7648 26.1986 15.4049C25.9104 16.0451 25.4724 16.5429 24.8847 16.8986C24.3007 17.2505 23.5595 17.4264 22.661 17.4264C22.1893 17.4264 21.7757 17.3965 21.4201 17.3366C21.0682 17.2767 20.7144 17.1812 20.3588 17.0502V15.9047C20.7369 16.017 21.1019 16.1087 21.4537 16.1798C21.8056 16.2472 22.1669 16.2809 22.5375 16.2809C22.9642 16.2809 23.3405 16.2247 23.6662 16.1124C23.9918 16.0001 24.267 15.8336 24.4916 15.6127C24.7162 15.3881 24.8884 15.1148 25.0082 14.7929C25.1317 14.4672 25.1991 14.091 25.2103 13.6642H21.4032V12.5299H25.1991C25.1766 12.1518 25.1037 11.8149 24.9801 11.5192C24.8603 11.2234 24.6937 10.9726 24.4804 10.7667C24.2707 10.5571 24.0218 10.3999 23.7335 10.2951C23.4453 10.1865 23.1233 10.1322 22.7677 10.1322ZM33.6388 11.025C33.6388 11.5791 33.4535 12.0227 33.0829 12.3559C32.716 12.6853 32.2369 12.8949 31.6454 12.9848V13.0241C32.3567 13.1102 32.9013 13.3235 33.2794 13.6642C33.6575 14.0011 33.8466 14.4428 33.8466 14.9894C33.8466 15.4686 33.7212 15.8916 33.4703 16.2584C33.2195 16.6253 32.8452 16.9117 32.3473 17.1176C31.8494 17.3235 31.2317 17.4264 30.4943 17.4264C29.959 17.4264 29.4704 17.389 29.0287 17.3141C28.587 17.243 28.1939 17.1307 27.8495 16.9772V15.8092C28.0853 15.9215 28.3436 16.0189 28.6244 16.1012C28.9089 16.1798 29.1972 16.2416 29.4891 16.2865C29.7849 16.3277 30.0619 16.3483 30.3202 16.3483C31.0539 16.3483 31.5986 16.2247 31.9542 15.9777C32.3099 15.7306 32.4877 15.3806 32.4877 14.9276C32.4877 14.4634 32.2575 14.1246 31.797 13.9113C31.3366 13.6979 30.7058 13.5912 29.9047 13.5912H28.9276V12.5131H29.8429C30.4381 12.5131 30.9154 12.4607 31.2748 12.3559C31.6342 12.251 31.8943 12.1013 32.0553 11.9066C32.2163 11.712 32.2968 11.4799 32.2968 11.2103C32.2968 10.8547 32.1545 10.5777 31.87 10.3793C31.5892 10.1771 31.1999 10.0761 30.702 10.0761C30.2304 10.0761 29.8167 10.1397 29.4611 10.267C29.1054 10.3943 28.7667 10.5608 28.4447 10.7667L27.8327 9.86269C28.0835 9.69049 28.3567 9.53887 28.6525 9.40785C28.952 9.27683 29.2814 9.17388 29.6408 9.09901C30.0001 9.02414 30.3951 8.98671 30.8256 8.98671C31.4245 8.98671 31.9318 9.07468 32.3473 9.25063C32.7666 9.42283 33.0866 9.66241 33.3075 9.96938C33.5284 10.2763 33.6388 10.6282 33.6388 11.025Z" fill="#007A65"/>
</svg>
