<svg width="57" height="56" viewBox="0 0 57 56" fill="none" xmlns="http://www.w3.org/2000/svg">
<g clip-path="url(#clip0_1431_3677)">
<path d="M55.6811 35.537H55.4628V27.0174C55.4628 26.8002 55.3765 26.5919 55.2229 26.4384C55.0694 26.2848 54.8611 26.1985 54.6439 26.1985H49.9407V20.2857C49.9407 20.0685 49.8545 19.8603 49.7009 19.7067C49.5473 19.5531 49.3391 19.4669 49.1219 19.4669H45.4616L42.3579 15.0464C42.2824 14.9388 42.182 14.851 42.0654 14.7904C41.9487 14.7298 41.8192 14.6981 41.6878 14.6982H37.6317V0.86854C37.6317 0.651365 37.5454 0.443086 37.3918 0.28952C37.2383 0.135955 37.03 0.0496826 36.8128 0.0496826H22.9508C22.7336 0.0496826 22.5253 0.135955 22.3717 0.28952C22.2182 0.443086 22.1319 0.651365 22.1319 0.86854V5.87023C22.1319 6.92896 23.7696 6.92896 23.7696 5.87023V1.6874H35.9939L35.9679 28.049H23.7696V10.0968C23.7696 9.03811 22.1319 9.03811 22.1319 10.0968V14.0992H20.6032V10.058C20.6032 9.8408 20.5169 9.63252 20.3633 9.47895C20.2098 9.32539 20.0015 9.23912 19.7843 9.23912H16.4791V4.32204C16.4791 3.26331 14.8414 3.26331 14.8414 4.32204V9.23901H11.536C11.3188 9.23901 11.1106 9.32528 10.957 9.47884C10.8034 9.63241 10.7172 9.84069 10.7172 10.0579V14.0991H8.36965C8.15248 14.0991 7.9442 14.1854 7.79063 14.3389C7.63707 14.4925 7.5508 14.7008 7.5508 14.9179V25.8505L0.996446 28.6586C0.84913 28.7217 0.723577 28.8267 0.635335 28.9605C0.547093 29.0944 0.500039 29.2511 0.5 29.4114L0.5 33.8493C0.5 34.908 2.13771 34.908 2.13771 33.8493V29.9514L10.0929 26.543V31.4756H7.33222C6.27349 31.4756 6.27349 33.1133 7.33222 33.1133H10.093V34.991H7.33222C6.27349 34.991 6.27349 36.6287 7.33222 36.6287H10.093V38.588H7.69808C7.48091 38.588 7.27263 38.6743 7.11906 38.8279C6.9655 38.9814 6.87922 39.1897 6.87922 39.4069V54.3125H2.13771V37.9936C2.13771 36.9348 0.5 36.9348 0.5 37.9936V55.1315C0.5 55.3486 0.586272 55.5569 0.739838 55.7105C0.893403 55.8641 1.10168 55.9503 1.31886 55.9503H55.6811C55.8983 55.9503 56.1066 55.8641 56.2602 55.7105C56.4137 55.5569 56.5 55.3486 56.5 55.1315V36.3558C56.5 36.1387 56.4137 35.9304 56.2602 35.7768C56.1066 35.6233 55.8983 35.537 55.6811 35.537ZM44.5862 37.1747H54.8623V48.6171H44.5862V37.1747ZM53.8251 27.8362V35.537H49.9407V27.8362H53.8251ZM48.303 27.0174V35.537H44.5862V33.5043C44.5862 33.2871 44.4999 33.0788 44.3463 32.9252C44.1928 32.7717 43.9845 32.6854 43.7673 32.6854H43.5309V28.8679C43.5309 28.6507 43.4447 28.4424 43.2911 28.2889C43.1375 28.1353 42.9293 28.049 42.7121 28.049H37.6317V21.1047H48.303V27.0174ZM41.2622 16.3359L43.4606 19.467H37.6317V16.3359H41.2622ZM41.8932 29.6867V32.6854H19.6767V29.6867H41.8932ZM12.3549 10.8768H18.9654V14.0992H12.3549V10.8768ZM11.7306 25.3014C11.7306 24.759 11.1427 24.3115 10.5892 24.5487L9.1884 25.1489V15.7369H22.1319V28.049H18.8578C18.6406 28.049 18.4323 28.1353 18.2788 28.2889C18.1252 28.4424 18.0389 28.6507 18.0389 28.8679V32.6854H17.2909C17.0738 32.6854 16.8655 32.7717 16.7119 32.9252C16.5584 33.0788 16.4721 33.2871 16.4721 33.5043V38.588H11.7306V25.3014ZM8.51694 54.3126V40.2259H16.4721V54.3126H8.51694ZM23.0648 54.3126V38.8272H24.3386V54.3126H23.0648ZM29.8923 54.3126V38.8272H31.1661V54.3126H29.8923ZM36.7198 54.3126V38.8272H37.9936V54.3126H36.7198ZM39.6313 54.3126V38.0083C39.6313 37.7911 39.5451 37.5828 39.3915 37.4293C39.2379 37.2757 39.0296 37.1894 38.8125 37.1894H35.9009C35.6838 37.1894 35.4755 37.2757 35.3219 37.4293C35.1684 37.5828 35.0821 37.7911 35.0821 38.0083V54.3126H32.8038V38.0083C32.8038 37.7911 32.7175 37.5828 32.564 37.4293C32.4104 37.2757 32.2021 37.1894 31.9849 37.1894H29.0734C28.8562 37.1894 28.648 37.2757 28.4944 37.4293C28.3408 37.5828 28.2546 37.7911 28.2546 38.0083V54.3126H25.9762V38.0083C25.9762 37.7911 25.8899 37.5828 25.7363 37.4293C25.5828 37.2757 25.3745 37.1894 25.1573 37.1894H22.2458C22.0286 37.1894 21.8203 37.2757 21.6668 37.4293C21.5132 37.5828 21.4269 37.7911 21.4269 38.0083V54.3126H18.1098V34.3231H42.9485V51.1827C42.9485 52.2415 44.5862 52.2415 44.5862 51.1827V50.2547H54.8623V54.3126H39.6313Z" fill="#007A65"/>
<path d="M10.9117 46.5625C11.1289 46.5625 11.3372 46.4762 11.4908 46.3227C11.6443 46.1691 11.7306 45.9608 11.7306 45.7437V43.9404C11.7306 43.7233 11.6443 43.515 11.4908 43.3614C11.3372 43.2078 11.1289 43.1216 10.9117 43.1216C10.6946 43.1216 10.4863 43.2078 10.3327 43.3614C10.1791 43.515 10.0929 43.7233 10.0929 43.9404V45.7437C10.0929 45.9608 10.1791 46.1691 10.3327 46.3227C10.4863 46.4762 10.6946 46.5625 10.9117 46.5625ZM14.0832 46.5625C14.3004 46.5625 14.5087 46.4762 14.6622 46.3227C14.8158 46.1691 14.9021 45.9608 14.9021 45.7437V43.9404C14.9021 43.7233 14.8158 43.515 14.6622 43.3614C14.5087 43.2078 14.3004 43.1216 14.0832 43.1216C13.866 43.1216 13.6578 43.2078 13.5042 43.3614C13.3506 43.515 13.2644 43.7233 13.2644 43.9404V45.7437C13.2644 45.9608 13.3506 46.1691 13.5042 46.3227C13.6578 46.4762 13.866 46.5625 14.0832 46.5625ZM11.7306 50.7855V48.9823C11.7306 48.7651 11.6443 48.5568 11.4908 48.4033C11.3372 48.2497 11.1289 48.1634 10.9117 48.1634C10.6946 48.1634 10.4863 48.2497 10.3327 48.4033C10.1791 48.5568 10.0929 48.7651 10.0929 48.9823V50.7855C10.0929 51.0027 10.1791 51.211 10.3327 51.3646C10.4863 51.5181 10.6946 51.6044 10.9117 51.6044C11.1289 51.6044 11.3372 51.5181 11.4908 51.3646C11.6443 51.211 11.7306 51.0027 11.7306 50.7855ZM14.0832 51.6044C14.3004 51.6044 14.5087 51.5181 14.6622 51.3646C14.8158 51.211 14.9021 51.0027 14.9021 50.7855V48.9823C14.9021 48.7651 14.8158 48.5568 14.6622 48.4033C14.5087 48.2497 14.3004 48.1634 14.0832 48.1634C13.866 48.1634 13.6578 48.2497 13.5042 48.4033C13.3506 48.5568 13.2644 48.7651 13.2644 48.9823V50.7855C13.2644 51.0027 13.3506 51.211 13.5042 51.3646C13.6578 51.5181 13.866 51.6044 14.0832 51.6044ZM40.7045 23.682C40.4873 23.682 40.279 23.7683 40.1255 23.9219C39.9719 24.0754 39.8856 24.2837 39.8856 24.5009V26.3041C39.8856 26.7563 40.2521 27.123 40.7045 27.123C41.1568 27.123 41.5233 26.7563 41.5233 26.3041V24.5009C41.5233 24.2837 41.4371 24.0754 41.2835 23.9219C41.1299 23.7683 40.9217 23.682 40.7045 23.682ZM44.3853 24.5009V26.3041C44.3853 26.7563 44.7518 27.123 45.2042 27.123C45.6565 27.123 46.023 26.7563 46.023 26.3041V24.5009C46.023 24.0486 45.6565 23.682 45.2042 23.682C44.7518 23.682 44.3853 24.0486 44.3853 24.5009ZM45.2042 28.7239C44.987 28.7239 44.7787 28.8102 44.6251 28.9637C44.4716 29.1173 44.3853 29.3256 44.3853 29.5427V31.346C44.3853 31.7982 44.7518 32.1648 45.2042 32.1648C45.6565 32.1648 46.023 31.7982 46.023 31.346V29.5427C46.023 29.3256 45.9367 29.1173 45.7832 28.9637C45.6296 28.8102 45.4213 28.7239 45.2042 28.7239ZM26.9985 6.32759H32.7653C33.824 6.32759 33.824 4.68988 32.7653 4.68988H26.9985C25.9396 4.68988 25.9396 6.32759 26.9985 6.32759ZM26.9985 10.8768H32.7653C33.824 10.8768 33.824 9.23912 32.7653 9.23912H26.9985C25.9396 9.23912 25.9396 10.8768 26.9985 10.8768ZM26.9985 15.4261H32.7653C33.824 15.4261 33.824 13.7884 32.7653 13.7884H26.9985C25.9396 13.7884 25.9396 15.4261 26.9985 15.4261ZM26.9985 19.9752H32.7653C33.824 19.9752 33.824 18.3375 32.7653 18.3375H26.9985C25.9396 18.3375 25.9396 19.9752 26.9985 19.9752ZM26.9985 24.5245H32.7653C33.824 24.5245 33.824 22.8867 32.7653 22.8867H26.9985C25.9396 22.8867 25.9396 24.5245 26.9985 24.5245ZM52.1991 40.3193H47.2496C46.1908 40.3193 46.1908 41.9571 47.2496 41.9571H52.1991C53.2578 41.9571 53.2578 40.3193 52.1991 40.3193ZM52.1991 43.9931H47.2496C46.1908 43.9931 46.1908 45.6308 47.2496 45.6308H52.1991C53.2578 45.6308 53.2578 43.9931 52.1991 43.9931ZM4.49353 31.4756C3.43972 31.4756 3.43797 33.1133 4.49353 33.1133C5.54735 33.1133 5.54909 31.4756 4.49353 31.4756ZM4.49353 36.6288C5.54735 36.6288 5.54909 34.9911 4.49353 34.9911C3.43972 34.9911 3.43797 36.6288 4.49353 36.6288ZM4.49353 40.1442C5.54735 40.1442 5.54909 38.5065 4.49353 38.5065C3.43972 38.5065 3.43797 40.1442 4.49353 40.1442ZM4.49353 43.6597C5.54735 43.6597 5.54909 42.022 4.49353 42.022C3.43972 42.022 3.43797 43.6597 4.49353 43.6597ZM4.49353 47.1751C5.54735 47.1751 5.54909 45.5374 4.49353 45.5374C3.43972 45.5374 3.43797 47.1751 4.49353 47.1751ZM4.49353 50.6907C5.54735 50.6907 5.54909 49.0529 4.49353 49.0529C3.43972 49.0529 3.43797 50.6907 4.49353 50.6907ZM20.4424 22.9043V18.7923C20.4424 18.5752 20.3561 18.3669 20.2025 18.2133C20.049 18.0598 19.8407 17.9735 19.6235 17.9735H11.697C11.4798 17.9735 11.2715 18.0598 11.1179 18.2133C10.9644 18.3669 10.8781 18.5752 10.8781 18.7923V22.9043C10.8781 23.1215 10.9644 23.3298 11.1179 23.4833C11.2715 23.6369 11.4798 23.7232 11.697 23.7232H19.6235C19.8407 23.7232 20.049 23.6369 20.2025 23.4833C20.3561 23.3298 20.4424 23.1215 20.4424 22.9043ZM18.8046 22.0855H12.5158V19.6112H18.8046V22.0855Z" fill="#007A65"/>
</g>
<defs>
<clipPath id="clip0_1431_3677">
<rect width="56" height="56" fill="white" transform="translate(0.5)"/>
</clipPath>
</defs>
</svg>
