<svg width="62" height="54" viewBox="0 0 62 54" fill="none" xmlns="http://www.w3.org/2000/svg">
<path d="M6.49426 36.6128H6.95612L6.97388 36.5151L7.4313 36.5373L7.44018 36.4219L7.62226 36.3641L7.85764 36.4929L7.83987 36.7372L7.92869 36.8127L8.05304 36.7816L8.16406 36.8482L8.17294 36.7727L8.23956 36.9681L8.29729 36.9281V36.7727L8.44384 36.6795L8.51934 36.7194L8.46605 36.8615L8.56375 36.7505L8.87462 36.9148L9.19881 36.7283L9.28763 36.7505V36.9459L10.0071 36.9326L10.2602 36.7949L10.3224 36.8704L10.3268 36.6617L10.2424 36.484L10.3668 36.1554L10.4156 36.151L10.4645 35.9289L10.3268 35.96L10.4023 35.8934L10.2868 35.7735L10.4956 35.4449L10.7309 35.3694L10.5977 35.2894L10.6199 35.2273L10.5045 35.1917L10.5311 35.0718L10.8597 34.8453L10.8731 34.7343L11.0551 34.6899L11.0907 34.5744L11.215 34.5878L11.175 34.9342L11.3616 35.0141L11.5614 34.9253L11.668 35.0407L11.8323 34.8587L11.8812 34.8809L11.8501 34.9874L11.9344 35.0185L11.9877 34.9564L12.2764 34.9874L12.4007 34.8453H12.494L12.5473 34.9119L12.6006 34.8809L12.7693 35.1962L12.6716 35.3116L12.9115 35.5736L12.987 35.5426L13.1291 35.1873L13.2312 35.2228L13.2445 35.3871L13.1735 35.5736L13.2312 35.6403L13.1513 35.7913L13.2268 35.8801L13.1557 35.9867L13.2134 36.0888L13.2934 36.071L13.3556 35.9023L13.511 36.0089L13.4977 35.9378L13.6753 35.8579L13.662 35.8001L13.7863 35.8046L13.8352 35.9689L13.9062 35.9378L14.0261 36.0222L14.0883 35.96L14.0483 35.92L14.1372 35.7246L14.4569 35.5914L14.5324 35.9689L14.7545 36.0533L14.9321 35.8357L14.8921 35.7291L14.6878 35.7513L14.6479 35.5426L14.8477 35.3649L14.7278 35.245L14.6612 35.0318L14.9854 35.0363L14.9987 35.0896L15.354 35.0185L15.3362 34.6988L15.4206 34.6588L15.4872 34.4634L15.9091 34.2636L16.0468 34.0504L16.3443 33.9838L16.2955 33.9394L16.3177 33.855L16.4376 33.7129L16.2555 33.5441L16.2466 33.4464L16.3754 33.4109L16.4687 33.14H16.3932L16.4243 32.8513L16.2644 32.7581L16.1978 32.6337L16.3354 32.5138L16.3488 32.3095H16.4598L16.3532 32.0964L16.4243 31.8077L16.4864 31.7855L16.4065 31.6212L16.5353 31.6612L16.6552 31.5812L16.6063 31.5324L16.6508 31.3503L16.7529 31.3281L16.7262 31.1504L16.784 31.0794L16.744 30.8085L16.8284 30.8263L16.8728 30.6664L16.9572 30.6886L16.9971 30.5465L17.1703 30.5287L17.3036 30.5687L17.348 30.6619L17.5656 30.6975L17.7299 30.5864L17.9475 30.6619L18.0408 30.5021L18.2673 30.4799L18.2406 30.5909L18.3516 30.5509L18.4893 30.622H18.6536V30.7241H18.8801L18.9467 30.7641L18.9112 30.8307L19.0444 30.8795L19.1555 30.8618L19.2931 30.6753L19.2976 30.8263L19.3464 30.8573L19.5463 30.733L19.7017 30.8129L20.5188 30.8174L20.621 31.0083L20.7009 30.9151L20.8341 30.8662L20.883 30.9328L20.9096 30.8884L21.0384 31.3192L21.1539 31.337L21.0651 31.9232L20.8164 31.9321L20.8075 32.1141L20.6565 32.1497L20.581 32.2474L20.6165 32.3628L20.39 32.4206L20.4522 32.6426L20.6787 32.727L20.7586 32.838V32.9668L20.8919 32.9402L20.9985 33.029L21.0118 33.2022L21.1894 33.3221L21.558 33.3176L21.6291 33.6285L21.7978 33.6418L21.8955 33.9882L21.8556 34.0282L21.5625 33.9394L21.4648 34.0815L21.5136 34.1126L21.4648 34.1614L21.4958 34.4634L21.2649 34.4412L21.2072 34.5389L21.0917 34.5611L21.0384 34.6499L21.1717 34.9919L21.3182 35.1518L21.3715 35.3072L21.4692 35.3694L21.034 35.8046L21.0029 35.9334L21.0517 36.1021L21.3804 36.2886L21.3893 36.3952L21.7756 35.8312L21.8511 36.111L22.0332 36.0133L22.2153 35.5204L22.4773 35.7735L22.4462 35.8001L22.6327 35.8312L22.6727 35.7824L22.8148 36L22.9791 36.0444L22.948 35.9511L23.099 35.9556L23.1079 35.8978L23.1923 35.9289L23.2589 36.453L23.4765 36.7372L23.6941 36.7594L23.8851 36.6795L23.9961 36.8438L24.0627 36.8349L24.4269 37.0614L24.7466 36.6217L24.8799 36.977L24.8266 37.2346L24.9864 37.3101L25.0531 37.5987L24.8088 37.6742L24.7733 37.8119L24.8577 37.843L24.8754 38.2205L24.7067 38.2249L24.7155 38.4203L24.7866 38.518L24.8932 38.5091L24.9154 38.78L25.0131 38.7889L25.0175 39.1664L24.9554 39.1708L25.0264 39.233V39.4684L25.4172 39.4861L25.475 39.8414L25.6393 39.8237L25.6659 40.1567L26.039 40.1523L26.0478 40.3432L26.3232 40.4187L26.2255 40.7474L26.2654 41.0982L26.9005 41.0938L26.9094 41.2536L27.1181 41.4224L27.4734 41.4402L27.6155 41.6356L27.7443 41.6267L27.8598 41.7066L27.8642 41.8399L27.9264 41.8576L27.953 41.982L27.9308 42.1063L28.0063 42.1774L27.8109 42.4172L27.9352 42.6037L27.8775 42.6437L27.7487 43.1055L27.8065 43.2166L27.7754 43.5718L27.9219 43.6384L28.0685 43.6118L28.0418 43.6962L28.1218 43.8783H28.3261L28.3305 44.1225L28.2994 44.2247L27.8864 44.4956L27.7487 44.6998L27.882 44.953L27.8908 45.1883L27.8065 45.4193L27.6688 45.5836L27.8375 45.8367L28.0285 46.0055L27.8775 46.3696L27.9797 46.4762L27.9885 46.5739L27.8242 46.7782L27.6866 46.756L27.6111 46.8581L27.58 47.0491L27.6421 47.1912L27.5755 47.3689L27.7798 47.6176L27.7532 47.6797L27.7043 47.7463L27.7265 47.9595L27.8153 47.9551L27.6777 48.146L27.5267 48.0616L27.5844 47.9284L27.5489 47.8751L27.4379 47.9506L27.3712 47.8307L27.2247 47.9062L27.2158 47.9817L27.0115 47.9595L26.8294 47.8618L26.7095 47.9728L26.1322 47.9995L26.1367 47.8174L26.3099 47.511L26.1677 47.3866L25.9235 47.4133L25.8835 46.3696L24.6445 46.4185L24.3736 46.7382L24.1826 46.6183L23.965 46.605L23.7741 46.4407L23.4588 46.5251L23.4232 46.4318L23.2145 46.3297L23.2456 46.1565L23.1967 46.0765L22.9525 45.9877L22.8459 45.8678L22.3929 45.8811L22.2597 45.8278L22.2375 45.9078L22.0376 45.9744L21.9621 46.1254L21.5403 46.1076L21.5225 45.9744L21.3715 45.9344L21.2472 45.7435L21.1006 45.7657L21.0828 45.3793L20.9185 45.4948L20.5588 45.517L20.4655 45.437L20.0659 45.4059L19.8749 45.4992L19.8038 45.4459L19.6839 45.4726L19.6706 45.3438L19.5773 45.3615L19.302 45.0374L19.0444 44.9929L19.0178 44.8952L18.8002 44.8286L18.285 45.0018L17.721 44.9086L17.7033 44.7309L17.4368 44.6643L17.3702 44.6865L17.4501 44.9352L17.3258 44.913L17.0238 44.9885L16.4109 44.9308L15.9624 44.7665L15.8647 44.9352L15.7093 44.8553L15.6471 44.9574H15.2652L15.2163 44.8864L14.8255 44.8064L14.3725 44.4956L14.1816 44.571L13.9684 44.4822L13.6398 44.651H13.3822L12.9337 44.9663L12.8004 44.9841L12.605 45.175H12.4052L12.3297 45.0374L11.8856 45.1706L11.8456 45.0374L11.7746 45.0196L11.3793 45.3038H11.2905L11.1351 45.1795L10.8686 45.215L10.6155 45.1217L10.2646 45.2372L9.70508 45.3171L9.17216 45.3127L8.8835 45.5259L8.91014 45.6324L8.63036 46.0765L8.76359 46.5784L8.48381 46.8892L7.60006 47.3733L7.32916 47.8085L7.00941 47.995L6.85842 48.1904L6.41876 48.0217L6.17451 48.0927L6.15674 47.9329L6.35659 47.7064L5.85476 47.5687L5.64603 47.6309L5.64159 47.4355L5.57942 47.3644L5.15309 47.5287L4.96657 47.4932L4.88663 47.6131L4.55356 47.7774L4.70011 48.075L4.88663 48.1816L4.86442 48.3148L4.72675 48.4658L4.96212 48.9054L4.89995 48.9676L4.64238 48.9188L4.56244 48.6878L4.29598 48.6212L4.28266 48.5191L4.36704 48.4125L4.29154 48.2881L4.31374 48.1993L4.23825 48.1638L4.15387 47.9773L4.1894 47.8085L4.14499 47.6753L4.19384 47.622L4.14055 47.582L4.16719 47.431L4.23825 47.3822L4.1894 47.1912L4.26489 47.058L4.19384 47.0091L4.23825 46.9736L4.18051 46.8049L4.12278 46.8315L4.07837 46.7649L4.09614 46.645L4.26489 46.4585L4.34039 46.5073L4.42921 46.4807L4.49138 46.3519L4.68678 46.2808L4.67346 46.1698H4.72231L4.74452 46.081L4.63793 45.8145L4.52691 45.7923L4.51359 45.6902L4.58908 45.5392L4.54023 45.3482L4.68678 45.3882L4.63349 45.2638L4.72675 45.1928L4.60241 45.0906L4.57132 44.9619L4.60241 44.9086L4.68234 44.9308L4.69123 44.8331L4.76672 44.8064L4.73564 44.6554H4.6557L4.81113 44.5089L4.91327 44.5178L4.88663 44.3845L5.01986 44.2424L4.8511 43.9893L4.86442 43.7806L4.81113 43.6296L4.74452 43.5985L4.82001 43.5807L4.7534 43.5274L4.80669 43.3809L4.59797 43.2654L4.56244 43.1766L4.62017 43.1277L4.48694 43.0256L4.24713 43.0123L4.1894 43.0922L4.14055 42.9279L3.98511 42.8302L3.97179 42.728L3.82524 42.6836L3.85632 42.4749L3.93626 42.4882L3.90517 42.4261L3.81191 42.4039L3.70089 42.4749L3.64316 42.3728L3.4522 42.4927L3.3989 42.3994L3.30564 42.4438L3.27012 42.2218L3.15465 42.2706L3.09692 42.1507L2.77717 42.1374L2.71944 42.1108L2.72388 42.0131L2.50627 42.0797L2.15099 41.9686L2.08882 41.8354L2.14211 41.489L2 41.4091L2.37304 40.6896L2.75941 40.1745L2.8127 39.9791L3.43887 39.1042L3.76306 38.7756L4.39368 38.407L4.71787 38.2782L5.15309 38.2027L5.28632 38.2782L6.13898 37.5721L6.21892 37.5676L6.48982 37.2435L6.49426 36.6128Z" fill="#FBC469" stroke="white" stroke-width="2.3476"/>
<path d="M33.4066 37.599L33.4865 37.6567L33.6553 37.4924L33.7086 37.5812L33.864 37.5235L34.1083 37.5812L34.1705 37.4968L34.2904 37.5146L34.4502 37.4213L34.73 37.5279L34.881 37.4169L35.0942 37.5235L35.2807 37.3147L35.2763 37.2348H35.5871L35.5782 37.0705L35.4717 37.0927L35.4495 36.9906L35.3695 36.9861L35.4228 36.7241L35.7026 36.8129L35.8314 36.653L35.9646 36.6752L36.4353 36.0135L36.4043 35.7693L37.1681 35.6671L37.1947 35.7116L37.3324 35.6405L37.2525 35.2941L37.6033 34.739L37.7232 34.6724L37.8742 34.7656L38.1007 34.7789L38.194 34.9211L38.6336 34.9655L38.7802 35.0188L38.7891 35.0854L38.8379 34.9655L38.9445 34.9788L38.9356 35.1076H39.0422L39.1088 35.1964L39.393 35.0676L39.6506 34.7878L39.7128 34.8322L39.9259 34.8145L39.9659 34.8633L40.1613 34.8012L40.3345 34.8234L40.4589 34.9344L40.4722 34.8766L40.521 34.9033L40.5699 34.9966L40.8985 34.89L40.8452 34.7745L40.9651 34.6368L40.6409 34.4947L40.561 34.4326L40.5166 34.2505L40.4367 34.2061L40.6854 33.8952L40.6143 33.7442L40.4367 33.8064L40.3034 33.5399L40.4589 33.4378L40.3789 33.2424L40.4011 33.1713L40.4855 33.1891L40.4899 33.1003L40.5477 33.0958L40.6143 33.2513L40.783 33.2068L40.8674 33.2735L41.1961 33.1047L41.0939 33.0825L41.0717 32.9759L41.1961 32.856L41.1294 32.8693L41.1072 32.7716L41.1916 32.705L41.0229 32.6206L41.3071 32.5185L41.1383 32.0611L41.1961 32.0433L41.1739 31.9367L41.0584 31.7991L41.054 31.3905L41.3471 31.0974L41.6224 30.9597L41.689 31.275L41.8622 31.204L41.8089 31.1329L41.8844 31.0929L41.9999 31.1773L42.0221 31.2617L41.9377 31.3017L41.9066 31.4216L42.1864 31.4615L42.2797 31.3017L42.2708 31.1951L43.0124 31.3683L43.0879 31.4615L43.0746 31.5415L43.2256 31.6347L43.3988 32.1899L43.4876 32.2654L43.6386 32.1854L43.683 32.2298L43.7985 32.1632L43.9184 32.1987L44.0827 31.9856L44.0871 32.0877L44.3714 32.0255L44.4735 31.919L44.7444 31.9634L44.7622 31.8035L44.9442 31.6614L45.2196 31.7458L45.304 31.6392L45.2862 31.5592L45.4327 31.5859L45.5082 31.3772L45.7214 31.3994L45.8502 31.1995L45.8768 31.0308L45.9745 31.0841L45.8591 31.3017L45.9701 31.3594L45.9213 31.4749L46.4853 31.5859L46.4009 31.7591L46.5563 31.9056L46.8006 31.8746L46.7961 31.7324L47.0004 31.7147L47.0537 31.6436L47.4667 31.7014L47.5733 31.6081L47.5466 31.4971L47.671 31.4571L47.9152 31.4083L47.9508 31.4793L48.497 31.4349L48.5281 31.4926L48.457 31.6525L48.2883 31.8124L48.3815 31.9589L48.497 31.879L48.5858 31.9723L48.6569 31.9278L48.7057 31.99L48.6524 32.1765L48.8079 32.2742L48.8168 32.5096L49.0166 32.4696L49.0655 32.634L49.1765 32.665L49.1898 32.8249L49.061 32.9493L49.1498 33.1091L49.6694 33.0603L49.7716 33.3401L49.816 33.2823L49.9048 33.3268L49.9359 33.2779V33.349L50.3933 33.3578L50.4732 33.5399H50.5931L50.4333 33.5888L50.4022 34.0773L50.2645 34.1261L50.0158 34.0684L49.8915 34.2016L50.2867 34.4592L50.3622 34.5658L50.5621 34.6368L50.6109 34.8456L50.6953 34.9388L50.6731 35.2053L51.3259 35.8581L51.6501 35.8759L51.6545 36.0491L51.5435 36.1468L51.6146 36.2711L51.7922 36.3821L51.81 36.4798L51.9432 36.5198L51.9565 36.844L52.0231 37.0083L51.8677 37.1549L51.7922 37.3591L51.4058 37.4968L51.7789 37.9454L51.8322 38.0741L51.8055 38.4427L51.8988 38.4694L52.2097 38.7669L52.4539 38.7936L52.2363 38.989L52.1652 38.8735L52.0986 38.9002L52.0898 39.0201L51.9965 39.0734L51.9876 39.2377L51.7789 39.211L51.8677 39.4198L52.0409 39.3398L52.1652 39.4775L52.0542 39.7217L51.9121 39.7884L52.0675 39.8372L52.0764 39.9438L52.0054 39.9838L52.0453 40.1214L51.9876 40.1969L52.1519 40.1836L52.2097 40.3746L52.1786 41.0318L51.9299 41.054V41.1073L52.183 41.4226L52.2141 41.3605L52.3473 41.5425L52.5383 41.5559L52.6937 41.6713L52.6093 41.7601L52.6804 41.9422L52.676 42.1465L52.5516 42.3464L52.6671 42.4263L52.8181 42.373L53.1067 42.4263L53.1289 42.9326L53.2089 43.0614L52.7559 43.3012L52.707 43.1901L52.4584 43.1146L52.0631 43.1191L51.5524 43.0081L51.3259 43.0924L51.2104 43.0525L51.1527 42.8659L50.8596 42.8571L50.6997 42.9414L50.7486 43.0569L50.3844 43.2123L50.3134 43.39L50.3533 43.4433L50.2201 43.7186L49.967 43.8163L49.8027 43.7364L49.7183 43.6298L49.7272 43.5321L49.4163 43.461L49.3097 43.2434L49.0477 43.3589L48.8612 43.3545L48.386 43.4788L48.235 43.4255L48.2394 43.3545L48.1639 43.3678L48.1728 43.5099L48.0618 43.5277L48.1506 43.7497L48.0929 43.7453L48.0574 43.6476L48.0085 43.6698L48.0973 43.803L48.0041 43.8563L48.0751 43.9273L47.9996 43.9185L48.044 44.0117L47.9463 44.0295L47.9863 44.0917L47.9463 44.1583L48.0485 44.1982L48.0529 44.2959L47.9597 44.3181L47.8708 44.1982L47.8131 44.2826L47.9152 44.3714L47.7687 44.4025L47.7909 44.5402L47.6932 44.5668L47.6399 44.518L47.4978 44.6113L47.4933 44.6779L47.5822 44.6823L47.5289 44.7489L47.4045 44.669L47.329 44.7356L47.4179 44.9976L47.2891 45.2152L46.9604 45.1797L46.9071 45.3573L46.7206 45.5172L46.654 45.8103L46.3964 45.9258L46.503 46.2011L46.4053 46.3077L46.4231 46.3876L46.2721 46.3832L46.1655 46.4498L46.1877 46.5209L46.3343 46.4809L46.3787 46.5253L46.2588 46.7562L46.2321 46.965L45.8768 47.0405L45.9523 47.3114L45.9168 47.4624L45.7925 47.449L45.6726 47.3336L45.5926 47.3913L45.6992 47.5112L45.5571 47.6844L45.5438 47.791L45.7036 47.8354L45.6948 47.8976L45.828 47.9864L45.7703 48.0397L45.6104 47.9997L45.5526 48.0708L45.6637 48.1951L45.8191 48.2395L45.6726 48.3106L45.6681 48.3905L45.7791 48.5992L45.9124 48.506L45.9834 48.5459L45.9035 48.8879L45.9879 48.9678L46.0278 49.2032L46.2188 49.3098L46.2099 49.372L45.9745 49.4608L46.0012 49.6695L46.0545 49.7228L46.1966 49.6828L46.2055 49.785L46.4098 50.1181L46.3076 50.309L46.3876 50.5133L46.2277 50.5799L46.05 50.7531L46.1611 50.8153L46.1078 50.8819L46.2277 50.8375L46.1389 51.0595L46.05 51.0551L45.7392 51.2461L45.5349 51.0684L45.2107 51.135L45.2684 50.8242L44.9176 50.7975L44.4557 50.3223L44.6378 50.158L44.5446 49.7628L44.6067 49.7228L44.5046 49.7006L44.2426 49.3498L43.9894 49.141L43.7274 49.0522L43.5542 48.8923L43.4876 49.1055L43.2789 48.9323L43.2389 48.9501L43.2789 49.0877L43.23 49.1144L42.6216 48.959L42.595 49.0966L42.4706 49.1766L42.3907 49.1499L42.3285 49.2743L42.102 49.0966L41.9111 49.1455L41.84 49.2121L41.88 49.2654L41.8089 49.5185L41.6002 49.4075L41.4403 49.4785L41.3781 49.3853L41.3115 49.4075V49.554L41.0229 49.4031L40.9163 49.1055L41.0273 49.0567L41.0184 48.8568L40.974 48.7147H40.8497L40.8097 48.7946L40.5965 48.8923L40.5788 48.9678L40.5033 48.9412L40.4189 49.0034L40.3612 48.9501L40.2945 49.0567L40.2146 49.0744L40.2102 49.2299L40.0681 49.3453L39.8105 49.1766L39.6773 49.4919L39.695 49.7139L39.584 49.9493L39.0511 49.8205L38.8823 49.9093L38.7136 50.1003L38.527 50.1447L38.5359 49.9093L38.416 49.4208L38.2028 49.3498V49.221L38.0785 49.0211L38.154 48.7014L38.1096 48.3505L37.8609 48.2884L37.8298 48.0619L37.6566 47.9198L37.6966 47.8176L37.5767 47.7643L37.6522 47.5823L37.5944 47.5245L37.248 47.5423L36.7817 48.1418L36.6041 48.2795L36.4664 48.2928L36.4265 48.1329L36.0712 48.1463L35.747 48.3772L35.5738 48.4127L35.2052 49.1099L35.294 49.2254L35.3251 49.443L35.2763 49.4652L35.254 49.6828L35.1475 49.7939L35.0542 49.6029V49.3098L34.8455 49.5363L34.7345 49.4874L34.4902 48.4838L34.5613 48.4127L34.4458 48.4571L34.428 48.4172L34.5923 48.3372L33.9884 48.3195V48.2218L33.8063 48.1996L33.7619 48.1241L33.4777 48.1019L33.0202 48.5015L32.7893 48.6126L32.736 48.2795L32.363 47.8132L32.2164 47.8354L32.2786 47.3114L32.2209 47.2536L31.7146 47.5956L31.6924 47.8043L31.5991 47.9597L31.4481 47.9864L31.306 48.2351L31.1994 48.2795L31.0973 48.2395L30.9063 48.3683L30.329 48.4394L30.5377 48.093L30.4178 48.0974L30.3423 48.2262L30.2135 48.2573L30.2224 47.9953L30.1558 47.8798L29.8272 47.751L29.6629 47.831L29.6096 47.8842L29.7206 47.9686L29.6451 48.3106L29.7783 48.5904L29.6895 48.6614L29.4852 48.6925L29.2232 49.2387L29.1122 49.2121L28.6725 48.8391L28.748 48.808L28.7614 48.6214L29.0056 48.3861L29.0589 48.1551L29.0278 48.0086L28.8413 48.0041L28.7747 47.9331L28.566 47.8931L28.4194 47.9953L27.9975 47.6977L27.922 47.831L27.7977 47.7022L27.8243 47.64L27.62 47.3913L27.6866 47.2137L27.6245 47.0715L27.6511 46.8806L27.7266 46.7784L27.8643 46.8006L28.0286 46.5919L28.0242 46.4942L27.922 46.3876L28.073 46.0235L27.882 45.8592L27.7133 45.606L27.851 45.4417L27.9353 45.2108L27.9265 44.9754L27.7977 44.7223L27.9353 44.518L28.3483 44.2471L28.3794 44.1449L28.375 43.9051H28.1707L28.0908 43.7231L28.1174 43.6342L27.9709 43.6609L27.8243 43.5943L27.8554 43.239L27.7977 43.128L27.9265 42.6661L27.9842 42.6261L27.8598 42.4396L28.0552 42.1998L27.9797 42.1287L28.0019 42.0044L27.9753 41.8801L27.9131 41.8623L27.9087 41.7291L27.7932 41.6491L27.6644 41.658L27.5223 41.4626L27.167 41.4448L26.9583 41.2761L26.9494 41.1162L26.3144 41.1251L26.2744 40.7698L26.3721 40.4456L26.3766 40.3879L26.5498 40.3035L26.6208 40.1747L26.8828 39.9616L26.9361 39.8594L26.7851 39.4908L26.9139 39.4775L26.9184 39.3976L26.9805 39.3931L27.1049 39.0867L27.4735 39.1577L27.4957 39.0689L27.8243 39.1222L27.9442 39.0734L27.962 38.9579L28.113 39.1L28.2595 38.949L28.2906 39.0334L28.3972 38.9801L28.3883 39.1267L28.5038 39.1311L28.4061 39.5796L28.566 39.5841L29.0323 39.8727L29.0633 40.0593L29.543 40.0104L30.0848 40.157L30.2535 40.0593H30.4178L30.4223 39.7928L30.5599 39.7129L30.4889 39.3398L30.6354 39.2599L31.3993 39.1622L31.4703 39.5219L31.8434 39.4508L31.8789 39.6329L32.7227 39.4997L33.2645 38.9623L33.2734 37.9631L33.4066 37.599ZM51.6323 39.6107L51.619 39.5086L51.8322 39.5175L51.8944 39.5752L51.8544 39.7217L51.7833 39.6018L51.6323 39.6107Z" fill="#007A65" stroke="white" stroke-width="2.3476"/>
<path d="M19.9553 14.3326L20.0929 14.3593L20.2039 14.457L20.3105 14.7279L20.2839 14.83L20.4349 14.9188L20.4127 14.9943L20.9189 15.4606L20.8168 15.5228L20.8124 15.6916L20.7235 15.7626L20.8035 16.0602L20.7635 16.1579L20.879 16.0868L20.9767 16.1268L21.0788 16.0469L21.2787 16.0246L21.403 16.1357L21.7494 16.713L22.0159 16.824L22.0558 16.9839L21.9848 17.2726L22.1446 17.5745L22.1802 17.8277L22.2868 17.8854L22.3267 17.992L22.4377 17.8899L22.5443 17.9121L22.5754 17.9787L22.7975 17.9254L22.7131 18.0764L22.7175 18.4183L22.9129 18.4938L22.8863 18.596L22.6953 18.5915L22.6998 18.9246L22.4067 18.8047L22.491 18.898L22.4289 18.969L22.42 19.1111L22.5177 19.1511L22.4866 19.2621L22.5932 19.2444L22.5754 19.4442L22.6554 19.5463L22.5266 19.8306L22.5577 19.8839L22.4555 19.9327L22.6109 20.0215L22.3267 20.3946L22.118 20.3857L22.0425 20.5678L21.9492 20.5766L21.9892 20.7587H21.896L21.6783 21.2561L21.7006 21.4471L21.5673 21.4693L21.5051 21.5448L21.4341 21.5004L21.403 21.5759L21.3142 21.5803L21.2032 21.8423L21.1499 21.8334L21.0166 22.0466L21.0522 22.1399L20.9367 22.1576L20.9678 22.2154L20.839 22.3841L20.7191 22.3441L20.617 22.3974L20.3727 22.2775L20.3105 22.3264L20.2883 22.2154L20.1684 22.1043L20.0618 22.202L19.9597 22.1221L19.6844 22.3797L19.4667 22.4951L19.3735 22.6506L19.1914 22.6639L19.107 22.5795L19.1381 22.4774L19.0848 22.4507L19.0182 22.5173L18.9871 22.7083L18.7695 23.0014L18.8006 23.1124L19.3069 23.3967L19.3424 23.2945L19.1825 23.148L19.2625 23.068L19.369 23.1124L19.5112 23.0192L19.6311 23.0236V23.1213L19.5156 23.1746L19.4801 23.4455L19.5778 23.5432L19.5289 23.5965L19.6222 23.7786L19.5955 23.9207L19.7154 24.0539L19.7376 24.2138L19.9375 24.2893L20.1507 24.1339L20.2128 24.1605L20.3416 24.0362L20.6436 23.9473L20.688 24.4225L20.5592 24.7689L20.8257 24.7067L21.1055 24.4847L21.3319 25.0043L21.1588 25.2219L20.9944 25.2841L20.8568 25.2619L21.0166 25.5461L20.6836 25.666L20.5015 25.857L20.4171 25.7548L20.3416 25.8703L20.1196 25.8836L20.275 26.2433L20.1018 26.2655L20.1551 26.3899L20.0929 26.4121L20.1906 26.5098L20.3061 26.4387L20.4038 26.5542L20.2839 26.6563L20.3905 26.8118L20.315 26.8873L20.5814 27.3402L20.6036 27.4779L20.9589 27.58L20.8967 27.8554H21.0433L21.1499 27.9486L21.141 28.0686L21.3852 28.2817L21.4519 28.5082L21.6783 28.7169L21.6384 28.7658L21.9937 28.9434L21.9848 29.2143L21.705 29.423L21.8071 29.503L21.856 29.3964H21.9182L21.9581 29.5163L22.0469 29.4897L22.0692 30.1736L22.2113 30.5066L21.8737 30.5733L21.816 30.6532L21.4963 30.6132L21.2964 30.7287L21.2254 30.671L21.0655 30.8619L20.9589 30.8308L20.8967 30.8841L20.8701 30.9285L20.8212 30.8619L20.688 30.9108L20.6081 31.004L20.5059 30.8131L19.6888 30.8086L19.5334 30.7287L19.3335 30.853L19.2847 30.822L19.2802 30.671L19.1426 30.8575L19.0315 30.8752L18.8983 30.8264L18.9338 30.7598L18.8672 30.7198H18.6407V30.6132H18.4764L18.3387 30.5422L18.2277 30.5821L18.2544 30.4667L18.0279 30.4889L17.9346 30.6488L17.717 30.5733L17.5527 30.6843L17.3351 30.6488L17.2907 30.5555L17.1574 30.5155L16.9842 30.5333L16.9443 30.6754L16.8599 30.6532L16.8155 30.8131L16.7311 30.7953L16.7711 31.0662L16.7178 31.1373L16.7444 31.3149L16.6423 31.3371L16.5979 31.5192L16.6467 31.568L16.5268 31.648L16.398 31.608L16.478 31.7723L16.4158 31.7945L16.3447 32.0832L16.4513 32.2964H16.3403L16.327 32.5006L16.1893 32.6205L16.2559 32.7449L16.4158 32.8382L16.3847 33.1268H16.4602L16.3669 33.3977L16.2382 33.4332L16.247 33.5309L16.4291 33.6997L16.3092 33.8418L16.287 33.9262L16.3359 33.9706L16.0383 34.0372L15.9006 34.2504L15.4832 34.4502L15.4166 34.6456L15.3322 34.6856L15.35 35.0053L14.9947 35.0764L14.9858 35.0231L14.6616 35.0187L14.7282 35.2318L14.8481 35.3517L14.6483 35.5294L14.6883 35.7381L14.8925 35.7159L14.9325 35.8225L14.7549 36.0401L14.5328 35.9557L14.4573 35.5782L14.1376 35.7115L14.0488 35.9069L14.0887 35.9468L14.0266 36.009L13.9067 35.9246L13.8356 35.9557L13.7867 35.7914L13.6624 35.787L13.6757 35.8447L13.4981 35.9246L13.5114 35.9957L13.356 35.8891L13.2938 36.0579L13.2094 36.0756L13.1517 35.9779L13.2227 35.8713L13.1472 35.7825L13.2272 35.6315L13.1695 35.5649L13.2405 35.3784L13.2272 35.2141L13.125 35.1785L12.9829 35.5338L12.9074 35.5649L12.6676 35.3029L12.7653 35.1874L12.5966 34.8721L12.5433 34.9032L12.4944 34.8366H12.4012L12.2768 34.9787L11.9837 34.9476L11.9304 35.0098L11.846 34.9787L11.8771 34.8721L11.8283 34.8499L11.664 35.032L11.5574 34.9165L11.3575 35.0053L11.171 34.9254L11.211 34.579L11.0866 34.5657L11.0511 34.6812L10.869 34.7256L10.8557 34.8366L10.5271 35.0631L10.5004 35.183L10.6159 35.2185L10.5937 35.2807L10.7269 35.3606L10.4916 35.4361L10.2828 35.7647L10.3983 35.8847L10.3228 35.9513L10.4605 35.9202L10.4116 36.1422H10.3628L10.2384 36.4709L10.3228 36.6485L10.3184 36.8572L10.2562 36.7817L10.003 36.9194L9.28361 36.9327V36.7373L9.19479 36.7151L8.8706 36.9016L8.55973 36.7373L8.46203 36.8483L8.51532 36.7062L8.43983 36.6663L8.29772 36.7595V36.915L8.23998 36.9549L8.17337 36.7595L8.16449 36.835L8.05346 36.7729L7.92911 36.7995L7.8403 36.7284L7.85806 36.4842L7.62269 36.3554L7.44949 36.4265L7.44061 36.5419L6.98319 36.5197L6.96543 36.6174H6.50356V36.3154L6.41919 36.1467L6.37034 35.0942L6.54797 34.8899L6.45915 34.7167L6.42363 34.2415L6.25931 33.9972L6.27708 33.904L6.18382 33.8773L6.10832 33.6908L6.37922 32.9359L6.2904 32.7582L6.06391 32.5673L6.01062 32.2031L5.78857 32.0743L4.85153 29.3298L4.41187 27.5045L4.38967 27.1093L4.18982 26.8428L4.21203 26.0257L4.04327 25.9102L3.96777 25.4173L3.98998 24.9643H4.06547L4.11432 25.0842L4.38078 25.0931L4.54954 25.2619L4.78047 25.173L5.1091 25.1819L5.15351 25.1286L5.49102 25.2885L5.57984 25.4129L5.53988 25.5194L5.62869 25.5328L5.79301 25.4262L5.68199 25.2441L5.69531 25.1686L5.96177 24.9688L6.16605 25.102L6.25931 25.0798L6.37478 24.8355L6.659 25.0043L6.69897 25.2485L6.81443 25.2619L7.46725 25.1331L7.54719 24.951L7.71595 24.9821L7.80033 24.8888L8.07123 24.8178L8.14672 24.9421L8.12452 25.0221L8.25331 25.0709L8.37321 24.991L8.41318 25.1064L8.73737 25.4661L8.83951 25.4928L8.93277 25.3818L8.99495 25.4928L9.36799 25.4351L9.34578 25.4839L9.40352 25.515L9.39463 25.4262L9.44793 25.4306L9.45237 25.4928L9.5856 25.4262L9.69218 25.213L9.96308 24.911L10.2651 24.649L10.4471 24.5824L10.5715 24.4048L10.7358 24.4492L10.9046 24.3115L11.0467 24.347L10.9756 24.8799L11.2687 24.8444L11.251 24.7689L11.4552 24.578L11.6018 24.5247L11.7261 24.5602L11.7928 24.5202L11.7972 24.4225L11.8771 24.4403L11.8549 24.2316L12.037 24.236L12.0681 24.1605L12.0192 24.1205L11.8905 24.1694L11.7705 24.0539L11.7572 23.7919L11.473 23.3789L11.4863 23.3256L11.5974 23.3522L11.8194 23.179L11.7439 23.0369L12.0548 23.0236L12.5788 22.7705L12.7032 22.8415L12.6809 22.8993L12.7875 23.0636L12.9208 23.1346L13.1206 23.0991L13.2627 23.148L13.5203 22.7971L14.0266 22.2775L14.0177 22.1088L14.1376 21.8823L14.2042 21.8423L14.3152 21.9578L14.4129 21.7402L14.6217 21.8556L14.6483 21.7935L14.7327 21.8556L14.8126 21.8023L14.9192 21.8334L14.9769 21.7535L15.2523 21.6469L15.3322 21.487L15.5232 21.4959L15.5098 21.567H15.5987L15.6875 21.5181L15.6786 21.4515L15.7719 21.4471L15.7896 21.3583L15.8873 21.3982L15.9006 21.6292L16.1627 21.7357L16.1227 21.8068L16.2204 21.9134L16.2026 22.0022L16.3225 22.202L16.0472 22.1798L16.0561 22.282L16.1538 22.3397L16.1493 22.5129L15.8696 22.6284L15.8429 22.735L15.985 22.9259L16.1005 23.0103L16.176 22.9703L16.3936 23.0725L16.5357 23.0458L16.5179 23.0991L16.6201 23.2013L16.7533 23.0813H16.8777L16.8865 22.917H16.9887L16.9976 22.8016L17.2019 22.9304L17.2951 22.8815L17.2996 22.7705L17.3617 22.8682L17.526 22.9126L17.5616 22.8593L17.4372 22.8104L17.3928 22.655L17.4461 22.5529L17.4106 22.4552L17.2862 22.2775L17.2418 22.2909L17.5305 22.091L17.4772 22.131L17.3617 22.0555L17.2729 21.7668L17.1041 21.7135L17.0509 21.7535L16.9887 21.6913L17.0331 21.4915L16.8999 21.2694L16.7578 21.2517L16.6378 21.3583L16.5579 21.2961L16.4957 21.3716L16.327 21.3183L16.3137 21.2472L16.0961 21.3272L16.0827 21.154L15.9939 21.1406L16.0028 21.0474L16.1183 21.0341L16.1671 20.8165L16.3314 20.7054L16.2959 20.5367L16.3359 20.4345L16.4114 20.4878L16.5579 20.2347L16.4957 19.9682L16.5446 19.8839L16.4114 19.8572L16.6068 19.7506L16.8688 19.0845L17.2818 18.7914L17.344 18.6626L17.2996 18.2229L17.2152 18.0853L17.2507 18.0098L17.1752 17.5879L17.2285 17.5479L17.193 17.3703L17.2729 16.8951L17.193 16.3488L17.2862 16.1224L17.4328 16.1001L17.4683 15.776L17.5927 15.7138L17.6682 15.5495L17.8858 15.3585L17.9257 15.0432L18.0368 15.0388L18.0856 14.9677L18.2055 15.0166L18.3387 14.9677L18.4409 14.8478L18.654 14.7501L18.7473 14.8478L19.1337 14.9144L19.0804 14.8478L19.2403 14.7901L19.2225 14.6391L19.4046 14.6169L19.4712 14.4481L19.5689 14.4836L19.7066 14.3948L19.8442 14.4259L19.9553 14.3326ZM15.6875 21.7091L15.6031 21.6869L15.6564 21.6114L15.7719 21.6069L15.6875 21.7091Z" fill="#007A65" stroke="white" stroke-width="2.3476"/>
<path d="M38.9181 22.033L39.0869 21.993L39.1846 22.0818L39.2645 21.9575L39.3356 21.9841L39.3578 21.8908L39.4466 21.9353L39.5709 21.7443L39.5532 21.6066L39.6686 21.5755L39.7042 21.389L39.9617 21.4112L39.8951 21.1892L39.9662 21.0515L40.2593 20.9405L40.2548 21.0559L40.508 21.1492L40.6767 21.3268L40.8011 21.2513L41.143 21.2913L41.4095 21.2291L41.5605 21.087L41.7337 21.2025L41.8403 21.0559L41.8136 21.0071L41.8847 20.9716L41.9513 21.0249L41.8491 21.167L42.009 21.3313L41.9424 21.4201L42.2089 21.5533L42.2222 21.4956L42.3465 21.5089L42.4798 21.3979L42.3865 21.691H42.6041L42.6752 21.651L42.5375 21.4245L42.5508 21.3046L42.8262 21.3935V21.3002L42.9816 21.2469L42.8128 21.167L42.7373 21.0204L42.9327 21.0337L43.0482 21.1892L43.1992 20.9405L43.0482 20.7806L43.0926 20.6474L43.3235 20.603L43.3369 20.674L43.2658 20.754L43.1903 20.7495L43.1992 20.825L43.4435 20.7406L43.5944 20.9494L43.5856 21.1226L43.7188 21.1137L43.8032 20.9227L43.741 20.8339L43.8121 20.7806L44.0075 20.9316L44.0607 20.8827L44.1629 20.9893L44.2384 20.9538L44.3183 20.5363L44.4738 20.6207L44.3805 20.825L44.4249 20.9627L44.1984 21.1625L44.0918 21.4912L44.527 21.6066L44.7136 21.3091L44.9667 21.3313L44.9312 21.1803L44.9845 21.0737L45.0378 21.1625H45.1133L45.1577 21.4556L45.2731 21.5489L45.3175 21.7665L45.4774 21.651L45.5085 21.8331L45.6195 21.8287L45.5662 21.8997L45.7217 21.9353L45.6462 21.8331L45.6551 21.7176L45.8815 21.7132L45.6639 21.6377L45.926 21.429L45.8282 21.3801L45.9482 21.1181L46.0281 21.0648L46.0858 21.0959L46.1391 20.9849L46.0547 20.8517L45.9393 20.8428L45.8904 20.7717L46.0059 20.7007L46.1302 20.7184L46.339 20.5896L46.3967 20.6296L46.6232 20.5497L46.5344 20.3143L46.5832 20.2255L46.7431 20.1722L46.9207 20.2388L46.9474 20.301H47.1605L47.2005 20.4831L47.427 20.412L47.6801 20.4919L47.8311 20.4164L47.8178 20.2432L47.9066 20.1988L47.8977 20.0612L48.0443 19.9457L48.1598 20.1766L48.3108 20.1544L48.3729 20.2388L48.5284 20.2122L48.6305 20.4742L48.8392 20.2521L48.8792 20.1233L49.0613 20.0923L49.1057 20.0123L49.3322 19.9102L49.2389 19.7325L49.3855 19.7103L49.4743 19.8036L49.6741 19.7503L49.8473 19.7947L49.8695 20.1056L49.9361 20.1411L49.9628 20.3187L50.0694 20.4475L49.9628 20.6829L50.2515 20.8072L50.3758 21.0826L50.1626 21.2824L50.3669 21.3535L50.3047 21.6732L50.3358 22.0285L50.4557 22.0107L50.6023 22.1084L50.7089 21.9885L50.7533 22.2461L50.9087 22.2284L50.891 22.3261L50.7755 22.2905L50.7266 22.3793L51.0553 22.4104L51.2995 22.6902L51.415 22.6769L51.4505 22.7391L51.3883 22.8856L51.6015 22.9833H51.7481L51.8058 23.1299L52.1788 23.1698L52.3432 23.081L52.3254 23.1521L52.4675 23.3164L52.4719 23.4674L52.7606 23.3652L52.8139 23.4674L52.8894 23.3963L53.0581 23.3741L53.0137 23.6361L52.9338 23.7294L53.1336 23.7427L53.3468 23.5695L53.4401 23.685L53.5378 23.6139L53.5955 23.7161L53.671 23.645L53.782 23.685L53.6932 23.8227L53.7687 23.987L53.7421 24.1557L53.5378 24.4577L53.5999 24.5732L53.7332 24.6132L53.7421 24.8663L53.5244 25.0173L53.5422 25.1994L53.4889 25.2171L53.3823 25.5324L53.3957 25.6923L53.2091 25.7634L53.2802 25.8255L53.3202 25.7989L53.3246 25.8744L53.2713 25.9588L53.1558 25.9721L53.1026 26.0964L53.1781 26.1275L53.1603 26.1853L52.9649 26.2075L53.0537 26.3185L52.9915 26.5805L53.0404 26.616L53.0848 26.4872L53.1425 26.5361L53.1647 26.4739L53.2447 26.4695L53.2713 26.5361L53.3424 26.5183L53.7953 26.7848L53.8398 26.6782L53.9685 26.6471L54.1062 26.7004L54.3327 26.5006L54.6791 26.5539L54.6569 26.4828L54.8878 26.5094L54.9811 26.3984L55.1454 26.3585L55.2742 26.5317L55.4163 26.545L55.4429 26.616L55.4962 26.5539H55.6295L55.7405 26.8736L55.9092 26.8869L55.9448 26.8159L56.0824 26.7848L56.1002 26.847L56.0114 26.9447L56.3089 26.9313L56.4377 27.0557L56.4955 27.3266L56.5754 27.3754L56.7308 27.2511L56.9218 27.2644L57.1172 27.1667L57.135 27.331L57.3037 27.4021L57.3481 27.4865L57.3614 27.6863L57.0905 27.8684L56.9351 27.8462L56.8507 27.9084L56.8463 28.0105L56.8774 28.197L56.9484 28.237L56.944 28.0371L57.055 28.1748L56.9307 28.4901L57.1216 28.801L57.246 28.872L57.206 29.0497L57.4281 29.0896L57.6679 29.2628L57.6057 29.3694L57.9743 29.4138L57.9876 29.7602L58.1208 29.7869L58.2363 29.4982L58.2807 29.5915L58.4806 29.7069L58.3207 29.7514L58.2985 29.8491L58.7781 29.9423L58.8447 29.8801L58.9646 29.9023L58.8447 30.0711L58.9335 30.3065L58.8003 30.3198L58.7959 30.4397L58.8536 30.5374L58.9513 30.5196L59.0002 30.6307L58.9025 30.5685L58.787 30.5863L58.8092 30.6795L58.7026 30.795L58.858 31.1725L58.5694 31.2258L58.4672 31.1281L58.3473 31.208L58.263 31.3901L58.0542 31.1369L58.072 31.3812L57.9521 31.3856L57.8633 31.6166L57.6368 31.51L57.5213 31.5944L57.508 31.4567L57.2948 31.4967L57.3081 31.5544L57.4591 31.6032L57.4503 31.6921L57.0639 32.4337L56.9706 32.4603L56.8507 32.6513L56.6909 32.6158L56.5265 32.6646L56.4155 32.7845L56.4377 32.9178L56.3711 33.0599L56.1935 33.2242L55.8426 33.2286L55.776 33.3574L55.8027 33.5129L55.5007 33.4285L55.4163 33.6239L54.9589 33.7393L54.5059 33.6061L54.497 33.5173L54.3638 33.5839L54.3371 33.6594L54.0041 33.6772L53.8842 33.6283L53.9286 33.464L53.862 33.424L53.711 33.3619L53.6221 33.4374L53.3957 33.4018L53.2003 33.1087L53.147 32.7534L53.0404 32.7179L52.8894 32.5492L52.8006 32.5936L52.1922 32.2427L51.9035 32.6025L51.6859 32.6247L51.6459 32.5403L51.486 32.5358L51.4461 32.4825L50.8554 32.4071L50.9354 32.7623L50.8199 32.8245L50.811 32.9711L50.6201 33.1087L50.6334 33.2508L50.7089 33.2553L50.8288 33.4151L50.7755 33.5395L50.6112 33.5573H50.4913L50.4113 33.3752L49.9539 33.3663V33.2952L49.9184 33.3441L49.8296 33.2997L49.7852 33.3574L49.683 33.0776L49.1634 33.1265L49.0746 32.9666L49.2034 32.8423L49.1901 32.6824L49.079 32.6513L49.0302 32.4914L48.8303 32.5314L48.8215 32.296L48.666 32.1983L48.7193 32.0118L48.6705 31.9496L48.5994 31.994L48.5106 31.9008L48.3951 31.9807L48.3019 31.8342L48.4706 31.6743L48.5417 31.5189L48.5106 31.4611L47.9644 31.5055L47.9288 31.4345L47.6846 31.4833L47.5602 31.5233L47.5869 31.6343L47.4803 31.7276L47.0673 31.6699L47.014 31.7409L46.8097 31.7587L46.8141 31.9008L46.5699 31.9319L46.4145 31.7853L46.4988 31.6121L45.9348 31.5011L45.9881 31.3856L45.8771 31.3279L45.9926 31.1147L45.8949 31.0614L45.8682 31.2302L45.735 31.43L45.5218 31.4078L45.4463 31.6166L45.2998 31.5944L45.3175 31.6743L45.2332 31.7809L44.9578 31.6965L44.7757 31.8386L44.758 31.9985L44.4871 31.9541L44.3849 32.0607L44.1007 32.1228L44.0918 32.0207L43.9275 32.2339L43.8076 32.1983L43.6921 32.2649L43.6477 32.2205L43.4967 32.3005L43.4079 32.225L43.2392 31.6699L43.0882 31.5766L43.1015 31.4967L43.026 31.3989L42.2844 31.2258L42.2932 31.3323L42.2 31.4922L41.9202 31.4522L41.9513 31.3323L42.0357 31.2924L42.0135 31.208L41.898 31.1236L41.8225 31.1636L41.8758 31.2346L41.7026 31.3057L41.636 30.9904L41.3606 31.1281L41.0675 31.4212L41.072 31.8297L41.1874 31.9674L41.2096 32.074L41.1519 32.0917L41.3207 32.5492L41.0364 32.6513L41.2052 32.7357L41.1208 32.8023L41.143 32.9L41.2096 32.8867L41.0853 33.0066L41.1075 33.1132L41.2096 33.1354L40.881 33.3086L40.7922 33.242L40.6234 33.2864L40.5568 33.1309L40.4991 33.1354L40.4946 33.2242L40.4103 33.2064L40.3881 33.2775L40.468 33.4729L40.317 33.575L40.4502 33.8415L40.6279 33.7793L40.6989 33.9303L40.4502 34.2412L40.5302 34.2856L40.5746 34.4677L40.6545 34.5298L40.9787 34.6719L40.8588 34.8096L40.9121 34.9206L40.5835 35.0272L40.5346 34.934L40.4858 34.9073L40.4724 34.965L40.3481 34.854L40.1749 34.8318L39.9795 34.894L39.9395 34.8451L39.7264 34.8629L39.6642 34.8141L39.4066 35.0938L39.1224 35.2226L39.0558 35.1382H38.9492L38.9581 35.0095L38.8515 34.9961L38.8026 35.116L38.7938 35.0494L38.6472 34.9961L38.2076 34.9517L38.1143 34.8096L37.8878 34.7963L37.7368 34.703L37.6169 34.7696L37.2661 35.3248L37.3416 35.6712L37.2039 35.7422L37.1772 35.6978L36.4178 35.7999L36.4489 36.0442L35.9782 36.7059L35.845 36.6837L35.7162 36.8436L35.4364 36.7548L35.3831 37.0168L35.463 37.0212L35.4852 37.1234L35.5963 37.0923L35.6051 37.2566L35.2943 37.261L35.2987 37.341L35.1122 37.5497L34.899 37.4431L34.748 37.5541L34.4683 37.4475L34.3084 37.5408L34.1885 37.523L34.1263 37.6074L33.882 37.5497L33.7266 37.6074L33.6733 37.5186L33.5046 37.6829L33.4246 37.6252L33.4557 37.5985L33.3269 37.4298L33.1049 37.2743L32.8118 37.1944L32.8162 37.0257L32.8429 36.8747L33.1448 36.6704L33.3003 36.2929L33.1715 36.0087L33.1004 35.9776L33.1093 35.8621L33.3891 35.7866L33.3669 35.7156L33.4735 35.5735L33.4024 35.3248L33.3491 35.3114L33.1848 34.965L33.2692 34.7608L33.3225 34.7119L33.4069 34.7696L33.549 34.6142L33.7222 34.7386L33.8598 34.7519L33.9798 34.5121L33.8021 34.3078L33.7888 34.0546L33.7266 33.9969L33.811 33.8237L33.7177 33.5129L33.811 33.4107L33.7222 33.3663L33.6511 33.1798L33.5579 33.2242L33.66 33.0554L33.5401 32.8911L33.0605 33.0243L32.9539 33.0021L32.9494 32.94L33.0205 32.9311L32.8473 32.8511L32.8828 32.9977L32.6874 33.0599L32.6475 32.9444L32.6874 32.8778L32.4787 32.9355L32.6164 32.8556L32.6919 32.6469L32.6697 32.5714L32.4609 32.4914L32.3099 32.7357L32.19 32.5802L32.079 32.5936L32.0524 32.709L31.9769 32.6957L31.9369 32.5847L31.7282 32.6735L31.6882 32.4781L31.5861 32.5003L31.2708 32.3138L31.3018 32.1628L31.1642 32.0695L31.1064 31.8031L31.2796 31.8653L31.4573 31.7498L31.5061 31.8297L31.7904 31.9274L32.3677 31.9807L32.5675 31.9674V31.812L33.0827 31.7942L33.1893 31.7409L33.1848 31.3368L32.9983 31.1147L32.7318 31.0126L32.7096 30.9016L32.7674 30.6751L32.8873 30.6973L32.8917 30.6129L33.0205 30.5374L33.0249 30.0134L32.834 29.8357L32.6164 29.7647H32.7008L32.7318 29.6625L32.834 29.6403L33.0161 29.7469L33.0916 29.6048L33.1893 29.6226L33.4113 29.3383L33.4602 29.4094L33.5312 29.3517V29.1962L33.5934 29.2229L33.6866 29.4272L33.7488 29.3206L33.9975 29.2984L34.0108 29.1918L33.9087 29.2184L33.8421 29.1163L33.8865 29.2628L33.549 29.1785L33.7666 28.9742L34.0952 28.9919L34.1174 28.7699L34.3261 28.7788L34.264 28.6811L34.3217 28.4324L34.8546 28.761L35.2543 28.7788L35.2321 28.6056L35.4764 28.5168L35.5741 28.7566L35.8139 28.7788L36.027 29.0586L36.0359 29.2096L36.3201 29.2584L36.3246 29.3383L36.3823 29.3561L36.2846 28.9031L36.409 28.8765L36.2757 28.8276L36.2668 28.7521L36.5511 28.6145L36.5822 28.6944L37.0218 28.7388L37.0929 28.61L36.9907 28.5256L37.004 28.3214L36.933 28.2681L36.9818 28.157L37.1151 28.2237L37.1861 28.1171L37.1417 27.8861L37.1772 27.6863L37.3194 27.6996L37.3327 27.8329L37.4748 27.7796L37.6169 28.0238L37.7368 27.9927L37.7945 27.8684L38.0255 27.8195L38.0832 27.6819L38.3541 27.6019L38.4385 27.4643L38.4252 27.2378L38.4785 27.0957H38.6028L38.7538 27.3266L38.8959 27.2866L38.8737 27.0024L38.9536 27.0157L39.0691 26.9269L38.8293 26.8514L38.8781 26.6782L39.3755 26.7182L39.4688 26.6649L39.491 26.5094L39.3178 26.4739L39.2689 26.3762L39.0824 26.4117L39.0247 26.2119L38.7405 26.2874L38.6694 26.2341L38.8382 26.1631L39.0558 25.8877L38.8471 26.0076L38.736 25.9277L38.7405 25.8744L38.8737 25.8566L38.9314 25.7678L38.7671 25.7012L38.9225 25.377L38.7716 25.2882L38.7849 25.0128L38.6294 24.8841L38.7405 24.7553L38.7094 24.6043L38.514 24.4133L38.5939 24.2756L38.9048 24.1069L39.1179 24.1113L39.0469 24.0136L39.1801 22.8501L39.0957 22.7613L39.2423 22.6369L39.2734 22.4948L39.2157 22.4682L39.3045 22.4149L39.1979 22.3793L39.2201 22.3127L39.1446 22.3216L39.1402 22.2195H38.9492L38.9181 22.033Z" fill="#007A65" stroke="white" stroke-width="2.3476"/>
<path d="M31.4882 2.01332L31.5326 2.01776L31.5548 2.31087L31.7946 2.3686L32.0655 2.63506L32.0699 2.91484L32.1943 2.94593L32.2787 2.86155L32.332 3.05251L32.4918 3.19462L32.6606 3.15021L32.8738 3.18574L32.9315 2.96813L32.8471 2.79937L32.8649 2.68391L32.9226 2.6617L33.1491 2.79049L33.1269 2.89263L33.4022 2.70167L33.7664 2.70611L33.7797 2.64394L33.8907 2.60841L34.2949 2.77717L34.4325 2.715L34.6635 2.74608L34.6679 2.83046L34.5658 2.95925L34.4681 2.92816L34.4237 3.04807L34.5436 3.21238L34.548 3.34561L34.7923 3.55434L34.8189 3.85632L35.0187 4.17163L35.0543 4.12722L35.1564 4.17163L35.4095 4.12278L35.6538 4.3093L35.7337 3.96735L36.0624 3.90517L36.129 3.843L36.24 3.90073V3.72309L36.6042 3.70533L36.653 3.55878L37.0882 3.47884L37.2348 3.6698L37.368 3.54102L37.5057 3.55878L37.8698 3.96735L38.0963 3.87409L38.2695 3.94958L38.385 3.9185L38.6914 4.1361L38.8868 4.10502L39.0822 4.16719L39.251 4.30486L39.1133 4.37148L39.0911 4.45585L39.2954 4.51359L39.4153 4.70011L39.2332 4.80225L39.1266 4.79781L39.1133 4.86442L38.9179 4.89107L39.1 5.18861H38.9756L38.8868 5.34849L38.9001 5.71265L38.7358 5.93914L38.7758 6.17895L38.7003 6.3255L38.7314 6.41876L38.9534 6.45873L39.2643 6.68078L39.3043 6.82289L39.4508 6.93835L39.6507 6.97388L40.0148 6.64525L40.0637 6.38323L40.2546 6.17007L40.3523 6.21004L40.5877 6.04572L40.8098 6.0546L41.0274 5.93025L41.1251 6.06348L41.1117 6.15674L41.1917 6.19671L41.3338 6.15674L41.5647 5.90361L41.5558 5.76594L41.618 5.79259L41.7779 5.52613L41.7202 5.42398L41.8845 5.29964L42.1998 5.41066L42.3419 5.34849V5.22414L42.4884 5.21526L42.7904 5.34405L42.897 5.4906L42.9681 5.45507L43.1368 5.61939L43.2967 5.61495L43.3589 5.42398L43.5054 5.41954L43.5143 5.25523L43.461 5.17085L43.501 5.122L43.5809 5.2952L43.7452 5.24635L43.8651 5.27743L43.954 5.21082L44.1538 5.29076L44.1716 5.23302L44.2249 5.62383L44.5269 5.5883L44.6956 5.84143L44.891 5.7837L44.9576 5.87252L45.4062 5.81923L45.4328 5.92137L45.5927 6.03684L45.4595 6.1523L45.6593 6.48537L45.9746 6.49426L46.2588 6.72519L46.3832 7.01829L46.3166 7.14708L46.3343 7.28475L46.512 7.29807L46.4231 7.44907L46.5253 7.45795L46.5075 7.68L46.6008 7.68888L46.6585 7.46683L46.8584 7.4313L47.0227 8.00863L46.9871 8.0708L47.0671 8.15962H47.3291L47.3247 8.05748L47.4401 8.0486L47.4757 7.88872L47.5822 7.84431L47.4979 7.74217L47.6666 7.72441L47.9331 7.91537L48.0485 7.80878L48.0707 8.18627L48.1906 8.65257L47.9553 8.75471L47.942 8.82576L48.0485 8.89238L48.0397 8.96788L48.1374 8.95899L48.2262 9.10999L47.9908 9.31427L47.8531 9.33648L47.9375 9.50967L47.8931 9.68731L48.0752 10.1536L47.9952 10.3845L47.8665 10.4112L47.6933 10.6688L47.5334 10.7531L47.4312 10.8997L47.3824 10.9974L47.4002 11.3926L47.7732 11.4859V11.628L47.9064 11.6857L48.0041 12.192L48.2262 12.2897L48.2883 12.5206L48.3861 12.5384L48.3106 12.7827L48.4527 12.8093L48.4038 13.0314L48.4527 13.1246L48.3683 13.3422L48.4571 13.5865L48.4615 13.9773L48.3994 14.0306L48.3594 13.9684L48.0974 13.8973L47.9242 14.0794L48.1418 14.2571L48.2617 14.4924L48.0974 14.5413L48.1107 14.71L47.902 14.7145V14.8344L47.6178 14.8122L47.4046 14.9188L47.4002 15.0609L47.449 15.0698L47.489 15.2518L47.3646 15.4117L47.4135 15.5272L47.2669 15.5627L46.9871 16.2821L47.5245 16.4998L47.7776 16.7751L47.9375 16.8062L48.1906 17.0016L48.3283 17.2458L48.4527 17.1481L48.4571 17.4235L48.3905 17.5212L48.4216 17.6722L48.6259 17.6455L49.0167 17.7832L49.1543 17.6633L49.252 17.7432L49.5496 17.7166L49.6517 17.8765L49.7006 18.1385L49.4785 18.516L49.3098 18.6359L49.2432 18.7869L49.2565 18.9867L49.0255 19.1022L49.0522 19.2443L48.9723 19.3509L49.0833 19.5018L49.2565 19.5285L49.4208 19.6839L49.5141 19.7061L49.6517 19.644L49.665 19.7417L49.4652 19.795L49.3764 19.7017L49.2298 19.7239L49.3231 19.9015L49.0966 20.0037L49.0522 20.0836L48.8701 20.1147L48.8301 20.2435L48.6214 20.4655L48.5193 20.2035L48.3638 20.2302L48.3017 20.1458L48.1507 20.168L48.0352 19.9371L47.8887 20.0525L47.8975 20.1902L47.8087 20.2346L47.822 20.4078L47.6711 20.4833L47.4179 20.4034L47.1914 20.4744L47.1515 20.2923H46.9383L46.9116 20.2302L46.734 20.1636L46.5741 20.2168L46.5253 20.3057L46.6141 20.541L46.3876 20.621L46.3299 20.581L46.1212 20.7098L45.9968 20.692L45.8813 20.7631L45.9302 20.8341L46.0457 20.843L46.13 20.9762L46.0767 21.0873L46.019 21.0562L45.9391 21.1095L45.8192 21.3715L45.9169 21.4203L45.6549 21.6291L45.8725 21.7046L45.646 21.709L45.6371 21.8245L45.7126 21.9266L45.5572 21.8911L45.6104 21.82L45.4994 21.8245L45.4683 21.6424L45.3085 21.7579L45.264 21.5403L45.1486 21.447L45.1042 21.1539H45.0287L44.9754 21.0651L44.9221 21.1716L44.9576 21.3226L44.7045 21.3004L44.518 21.598L44.0828 21.4825L44.1893 21.1539L44.4158 20.954L44.3714 20.8164L44.4647 20.6121L44.3092 20.5277L44.2293 20.9452L44.1538 20.9807L44.0517 20.8741L43.9984 20.923L43.803 20.772L43.7319 20.8253L43.7941 20.9141L43.7097 21.105L43.5765 21.1139L43.5854 20.9407L43.4344 20.732L43.1901 20.8164L43.1812 20.7409L43.2567 20.7453L43.3278 20.6654L43.3145 20.5943L43.0835 20.6387L43.0391 20.772L43.1901 20.9318L43.0391 21.1805L42.9237 21.0251L42.7283 21.0118L42.8038 21.1583L42.9725 21.2383L42.8171 21.2916V21.3848L42.5417 21.296L42.5284 21.4159L42.6661 21.6424L42.595 21.6824H42.3774L42.4707 21.3893L42.3375 21.5003L42.2131 21.487L42.1998 21.5447L41.9333 21.4115L41.9999 21.3226L41.8401 21.1583L41.9422 21.0162L41.8756 20.9629L41.8045 20.9985L41.8312 21.0473L41.7246 21.1939L41.5514 21.0784L41.4004 21.2205L41.134 21.2827L40.792 21.2427L40.6677 21.3182L40.4989 21.1406L40.2458 21.0473L40.2502 20.9318L39.9571 21.0429L39.886 21.1805L39.9527 21.4026L39.6951 21.3804L39.6596 21.5669L39.5441 21.598L39.5618 21.7357L39.4375 21.9266L39.3487 21.8822L39.3265 21.9755L39.2554 21.9488L39.1755 22.0732L39.0778 21.9843L38.909 22.0243L38.7225 22.122L38.5449 22.011L38.6692 21.8378L38.6204 21.7579L38.6515 21.6735L38.7181 21.7889L38.8158 21.669L38.8202 21.3981L38.9135 21.2916L39.0156 21.2738L38.8024 21.2161L38.6825 21.0029L38.7358 20.8741L38.607 20.8519L38.5893 20.7142L38.9179 20.7187L38.9801 20.6965L39.0378 20.5499L39.1666 20.5854L39.1977 20.541L39.0511 20.3501L39.0645 20.1236L39.1533 20.1014L39.0289 19.9149L39.0467 19.8216L38.989 19.8438L38.9357 19.7772L39.2288 19.3997L39.2377 19.2887L39.1666 19.2043L39.3043 18.9023L39.2821 18.6581L39.4686 18.5071L39.3087 18.1873L39.0822 18.2406L39.0955 18.365L39.0067 18.3916L38.9579 18.5648L38.7447 18.5204L38.8424 18.3738L38.6248 18.6359L38.576 18.5337L38.4783 18.5204L38.3139 18.6891L38.1452 18.6492L38.0608 18.698L38.0297 18.627L37.8876 18.6181L37.861 18.3294L37.7943 18.2717L37.9098 18.1562L37.7721 18.0896L37.8254 17.983L37.5812 18.0097L37.5101 18.0896L37.2792 18.0585L37.1682 17.9697L36.7552 18.2051L36.7152 18.2717L36.7463 18.4538L36.653 18.5515L36.5553 18.5204L36.5376 18.436L36.4754 18.4582L36.28 18.3339L36.0535 18.325L35.9869 18.2362L35.7737 18.3161L35.867 18.4271L35.8714 18.547L35.8492 18.627L35.7293 18.6803L35.4406 18.7114L35.3563 18.6847L35.3518 18.5959L35.1209 18.5382L35.1564 18.587L34.8633 18.6625L34.659 18.6137L34.6768 18.5337L34.5968 18.436L34.6723 18.3472V18.1962L34.3926 17.7121L34.2505 17.7388L34.2016 17.6366L34.1128 17.6233L34.0595 17.7388L33.3578 17.7299L33.2956 18.2673L33.1979 18.5781L33.0558 18.8268H32.9359L32.6561 18.4227L32.5096 18.3694L32.4607 18.1651L32.3408 18.2317L32.292 18.0497L32.2431 18.0896L32.2964 18.1696L32.2698 18.2761L32.1898 18.1518L32.2076 17.9431L31.9722 17.7876L31.8967 17.6633L31.7813 17.6366L31.4304 17.8054L31.4482 17.7299L31.3683 17.8409L31.4304 17.9875L31.2439 18.0408L31.1684 18.1651L31.1285 18.0763L31.0396 18.0719L30.7199 18.2495L30.6844 18.4982L30.52 18.5648L30.3602 18.2895L30.1026 18.325L29.9027 18.2095L29.9694 18.0541L29.8495 17.9608L29.6319 18.2051L29.5741 18.214L29.5519 18.1474L29.3387 18.2806L29.2233 18.2761L29.1744 18.0896L29.0412 18.0008L29.0989 17.7965L28.8547 17.5789L28.8502 16.8906L28.5882 16.7662L28.4594 16.6374L28.3529 16.6863L27.8732 16.6641L27.9887 16.2377L27.8244 16.1756L27.6379 16.2644L27.6068 15.9358L27.4247 15.8469L27.3892 15.7448L27.2693 15.7581L27.2293 15.6915L27.1049 15.7714L26.7985 15.5849L26.6653 15.3096L26.5054 15.2652L26.572 14.901L26.3944 14.8344L26.3811 14.71L26.3367 14.6834L26.3011 14.7367L26.2434 14.6479L26.2656 14.4969L26.3233 14.4613L26.2345 14.297L25.9325 14.3548L25.8792 14.2171L25.7682 14.3059L25.6972 14.2082L25.5728 14.3859L25.5106 14.2215L25.2753 14.3059L25.142 14.2526L25.0088 14.3148L25.0532 14.3814L25.1642 14.3637L25.1376 14.4791L24.7868 14.4836L24.7024 14.5813L24.5025 14.6257L24.4626 14.4036L24.2316 14.2304L24.1028 14.0439L24.0051 14.1105L23.9385 14.0794L23.7831 14.3059L23.7076 14.2215L23.7165 14.1238L23.5921 14.1105L23.4989 14.1771L23.4811 14.2926L23.561 14.4169L23.6454 14.4214L23.6543 14.5635L23.601 14.6123L23.5033 14.5191L23.4234 14.6168L23.2768 14.5457L23.1614 14.5857V14.7056L23.0281 14.7145L22.9393 14.6834L22.8683 14.5058L22.7794 14.5413L22.6062 14.3947L22.4997 14.5058L22.2865 14.4658L22.2598 14.5058L22.3931 14.639L22.1266 14.8921L21.7713 14.6656L21.6559 14.7722L21.4472 14.6168L21.3272 14.6656L21.2784 14.5457L21.1407 14.4658L20.8032 14.377L20.7233 14.5058L20.7854 14.5546L20.8387 14.5235L20.8254 14.639L20.7366 14.6923L20.6167 14.599L20.4391 14.9054L20.2925 14.8166L20.3191 14.7145L20.2126 14.448L20.1015 14.3503L19.9639 14.3237L19.9994 14.1505L20.1637 13.8751L20.1948 13.6042L20.3191 13.582L20.3058 13.5243L20.3591 13.5021L20.1237 13.1735L20.3236 13.0402L20.5501 13.0003L20.6078 12.9559L20.5545 12.907L20.7055 12.8848L20.6877 12.7871L20.8787 12.7383L21.0874 12.8138L21.1274 12.907L21.2162 12.8315L21.5004 12.947L21.5937 12.867L21.607 12.7516L21.8202 12.6272L21.9756 12.8004L22.2288 12.6938L22.4508 12.7605L22.6418 12.6139L22.7661 12.6539L22.7928 12.534L22.886 12.5695L22.9393 12.4984L22.8416 12.4452L22.775 12.2275L22.8816 12.1565L22.9438 12.2098L23.0947 12.0499L23.1036 11.7524L23.188 11.6547L23.379 11.5969L23.5033 11.4504L23.7032 11.3793L23.6854 11.104L23.45 10.9574L23.0326 10.9441L22.7084 10.762L22.6773 10.8642L22.5929 10.8153L22.513 10.9485L22.4908 10.8153L22.4064 10.8464L22.4286 10.9086L22.362 10.9796L22.2376 10.9708L22.2243 10.9041L22.1 10.9752L21.9889 10.8686L21.4472 10.7443L21.385 10.6776L21.5449 10.5977L21.5759 10.4556L21.7314 10.4512L21.9046 10.2602L22.0422 10.2558L22.0112 10.0648L22.0733 10.0115L21.9667 9.70508L22.0644 9.7184L21.9801 9.59849L22.1177 9.39421L22.0556 9.28318L21.9756 9.26542L21.8824 9.00784L21.9845 8.81244L22.211 8.70586L22.3886 8.41276L22.4419 8.43496L22.5796 8.32394L22.5752 8.02195L22.5219 7.94201L22.624 7.76882L22.584 7.48459L22.4997 7.47127V7.21369L22.6284 7.01385L22.6018 6.965L23.0237 7.00053L23.1836 7.20037L23.4189 7.24922L23.5211 7.0405L23.943 6.86286L23.9741 6.64525L24.1073 6.47649L24.2494 6.06792L24.3915 6.08125L24.5469 5.81923L24.7912 5.65047L24.8978 5.70821L24.9866 5.64159L25.2797 5.67712L25.3286 5.49504L25.4485 5.43287L25.5506 5.46395L25.6128 5.40622L25.7194 5.5661L25.9148 5.61939L26.1501 5.89917L26.1768 6.00575L26.3722 6.10345L26.7674 5.9569L26.874 5.79703L27.2648 6.01019L27.9487 6.11233L28.3617 6.07681L28.5038 5.44175L28.415 4.97545L28.5838 4.7534V4.58908L29.0812 4.13166L29.281 4.1139L29.4453 4.02508L29.5341 3.843L29.4542 3.74086L29.5208 3.73642L29.6407 3.58987L29.5075 3.4522L29.774 3.38114L29.885 3.27456L30.0582 3.34561L30.2447 3.06139L30.3424 2.72832L30.4445 2.67503L30.489 2.564L30.6089 2.50627L30.8886 2.59065L30.9064 2.49295L31.0485 2.3686L31.1862 2.40413L31.2084 2.25758L31.4438 2L31.4882 2.01332Z" fill="#007A65" stroke="white" stroke-width="2.3476"/>
<path d="M28.2422 26.6338L28.1844 26.6161L28.1001 26.4207L28.1578 26.3407L28.22 26.3629L28.2422 26.6338ZM30.0763 25.8966L30.0186 25.8922L30.0141 25.7501L30.1163 25.8078L30.0763 25.8966ZM30.9067 25.6657L31.0355 25.8256L30.9245 25.9099L30.7202 25.6701L30.9067 25.6657ZM28.1978 24.8796L28.3976 24.9862L28.5219 24.9285L28.4953 25.0351L28.6108 25.1061L28.7484 25.0795L28.8373 24.9862L29.0238 25.0173L29.0682 24.9507L29.1437 24.9729L29.0815 25.266L28.7484 25.4348L28.8595 25.8078L28.7795 26.0254L29.0415 26.2164L29.0815 25.9455L29.4368 25.9632L29.5567 26.092L29.3791 26.2297L29.3702 26.3674L29.2103 26.4029L28.9927 26.2519L28.9128 26.3629L28.9394 26.4873L28.744 26.5805L28.6996 26.5317L28.7484 26.4473L28.6507 26.3807L28.7484 26.3141L28.6996 26.2075L28.5708 26.3007L28.402 26.323L27.5849 26.243L27.5138 26.2919L27.4739 26.2075L27.2962 26.1498L27.2296 25.941L27.0875 25.9899L27.092 26.0476L26.9365 25.9499L27.0875 25.8078H27.1675V25.4081L27.2829 25.1727L27.4561 24.9995L27.6471 24.9329L28.1978 24.8796Z" fill="#007A65" stroke="white" stroke-width="2.3476"/>
<path d="M20.4301 14.9188L20.6077 14.6123L20.7276 14.7056L20.8165 14.6523L20.8298 14.5368L20.7765 14.5679L20.7143 14.5191L20.7943 14.3903L21.1318 14.4791L21.2694 14.559L21.3183 14.6789L21.4382 14.6301L21.6469 14.7855L21.7624 14.6789L22.1177 14.9054L22.3841 14.6523L22.2509 14.5191L22.2775 14.4747L22.4907 14.5191L22.5929 14.408L22.7661 14.5546L22.8549 14.5191L22.9259 14.6967L23.0147 14.7278L23.148 14.7189V14.599L23.2634 14.559L23.41 14.6301L23.4899 14.5324L23.5876 14.6256L23.6409 14.5768L23.632 14.4347H23.5477L23.4677 14.3103L23.4855 14.1949L23.5787 14.1283L23.7031 14.1416L23.6942 14.2393L23.7697 14.3237L23.9251 14.0972L23.9918 14.1283L24.0895 14.0616L24.2182 14.2482L24.4492 14.4214L24.4891 14.6434L24.689 14.599L24.7734 14.5013L25.1242 14.4969L25.1508 14.3814L25.0398 14.3992L24.9954 14.3325L25.1286 14.2704L25.2619 14.3237L25.4972 14.2393L25.5594 14.4036L25.6838 14.226L25.7548 14.3237L25.8658 14.2348L25.9191 14.3725L26.2211 14.3148L26.3099 14.4791L26.2522 14.5146L26.2344 14.6656L26.2922 14.7544L26.3321 14.7011L26.3766 14.7278L26.3899 14.8521L26.5675 14.9188L26.5009 15.2829L26.6608 15.3273L26.794 15.6027L27.1004 15.7892L27.2248 15.7092L27.2648 15.7759L27.3847 15.7625L27.4202 15.8647L27.6023 15.9535L27.6333 16.2821L27.8199 16.1933L27.9842 16.2555L27.8687 16.6818L28.3483 16.704L28.4549 16.6552L28.5837 16.784L28.8457 16.9083L28.8502 17.5967L29.0944 17.8143L29.0367 18.0185L29.1699 18.1074L29.2188 18.2939L29.3342 18.2983L29.5474 18.1651L29.5696 18.2317L29.6273 18.2228L29.845 17.9786L29.9649 18.0718L29.8982 18.2317L30.0981 18.3472L30.3557 18.3116L30.5155 18.587L30.6843 18.5204L30.7198 18.2717L31.0396 18.094L31.1284 18.0985L31.1684 18.1873L31.2439 18.063L31.4304 18.0097L31.3682 17.8587L31.4481 17.7476L31.4304 17.8231L31.7812 17.6544L31.8967 17.681L31.9722 17.8054L32.2075 17.9608L32.1853 18.174L32.2653 18.2983L32.2919 18.1917L32.2386 18.1118L32.2875 18.0718L32.3363 18.2539L32.4562 18.1917L32.5051 18.396L32.6516 18.4493L32.9359 18.8534H33.0558L33.1979 18.6048L33.2956 18.2939L33.3578 17.7565L34.0594 17.7654L34.1127 17.6499L34.2015 17.6633L34.2504 17.7654L34.3925 17.7343L34.6723 18.2184V18.3694L34.5968 18.4582L34.6767 18.5559L34.659 18.6358L34.8632 18.6847L35.1563 18.6092L35.1208 18.5603L35.3517 18.6181L35.3562 18.7069L35.4406 18.7335L35.7292 18.7025L35.8491 18.6492L35.8713 18.5692L35.8669 18.4538L35.7736 18.3427L35.9868 18.2628L36.0534 18.3516L36.2755 18.3605L36.4709 18.4848L36.533 18.4626L36.5508 18.547L36.6485 18.5781L36.7418 18.4804L36.7107 18.2983L36.7507 18.2317L37.1637 17.9963L37.2747 18.0852L37.5056 18.1162L37.5767 18.0363L37.8209 18.0097L37.7676 18.1162L37.9053 18.1829L37.7898 18.2983L37.8565 18.3561L37.8831 18.6447L38.0252 18.6536L38.0563 18.7291L38.1407 18.6803L38.3094 18.7202L38.4737 18.5515L38.5714 18.5648L38.6203 18.6669L38.8379 18.4049L38.7402 18.5515L38.9534 18.5959L39.0022 18.4227L39.091 18.396L39.0777 18.2672L39.3042 18.214L39.4641 18.5337L39.2776 18.6847L39.2998 18.9289L39.1621 19.2265L39.2332 19.3109L39.2243 19.4219L38.9312 19.7994L38.9845 19.866L39.0422 19.8438L39.0244 19.937L39.1488 20.1236L39.06 20.1458L39.0466 20.3723L39.1932 20.5632L39.1665 20.6076L39.0378 20.5721L38.9845 20.7187L38.9223 20.7409L38.5937 20.7364L38.6114 20.8741L38.7402 20.8963L38.6869 21.0251L38.8068 21.2382L39.02 21.296L38.9178 21.3137L38.8246 21.4203L38.8201 21.6912L38.7224 21.8111L38.6691 21.6823L38.6381 21.7667L38.6869 21.8467L38.5626 22.0199L38.7402 22.1309L38.9267 22.0332L38.9623 22.1753H39.1532L39.1577 22.2774L39.2332 22.2686L39.2109 22.3352L39.3175 22.3707L39.2287 22.424L39.282 22.4506L39.2509 22.5927L39.1044 22.7171L39.1887 22.8059L39.0555 23.9694L39.1266 24.0671L38.9134 24.0627L38.6025 24.2315L38.5226 24.3691L38.718 24.5601L38.7491 24.7111L38.6381 24.8399L38.7935 24.9687L38.7802 25.244L38.9312 25.3328L38.7757 25.657L38.94 25.7236L38.8823 25.8124L38.7491 25.8302L38.7446 25.8835L38.8557 25.9634L39.0644 25.8435L38.8468 26.1189L38.678 26.1899L38.7491 26.2432L39.0333 26.1677L39.091 26.3676L39.2776 26.332L39.3264 26.4297L39.4996 26.4608L39.4774 26.6163L39.3797 26.6695L38.8823 26.6296L38.8335 26.8028L39.0733 26.8783L38.9578 26.9671L38.8779 26.9538L38.9001 27.238L38.758 27.278L38.607 27.047H38.4826L38.4293 27.1891L38.4427 27.4156L38.3583 27.5533L38.0918 27.6332L38.0341 27.7709L37.8032 27.8242L37.7454 27.9485L37.6255 27.9796L37.4834 27.7354L37.3413 27.7887L37.3324 27.6554L37.1903 27.6421L37.1548 27.842L37.1992 28.0729L37.1281 28.1795L36.9949 28.1129L36.9461 28.2239L37.0171 28.2772L37.0038 28.4815L37.1059 28.5658L37.0349 28.6946L36.5952 28.6502L36.5641 28.5703L36.2799 28.708L36.2888 28.7835L36.422 28.8323L36.2977 28.8589L36.3954 29.3119L36.3376 29.2942L36.3332 29.2142L36.049 29.1654L36.0401 29.0144L35.8269 28.7346L35.5871 28.7124L35.4894 28.4726L35.2452 28.5614L35.2674 28.7346L34.8677 28.7168L34.3348 28.3882L34.2726 28.6547L34.3348 28.7524L34.126 28.7435L34.1038 28.9655L33.7752 28.9478L33.5576 29.1521L33.8951 29.2364L33.8507 29.0899L33.9173 29.192L34.0195 29.1654L34.0061 29.272L33.7619 29.2942L33.6997 29.4007L33.6064 29.1965L33.5443 29.1698V29.3252L33.4732 29.383L33.4244 29.3119L33.2023 29.5961L33.1046 29.5784L33.0291 29.7249L32.847 29.6184L32.7449 29.6406L32.7138 29.7427H32.6294L32.847 29.8138L33.038 29.9914L33.0336 30.5154L32.9048 30.5909L32.9003 30.6709L32.7804 30.6487L32.7227 30.8751L32.7449 30.9862L33.0114 31.0883L33.1979 31.3104L33.2023 31.7145L33.0957 31.7678L32.5806 31.7855V31.941L32.3807 31.9543L31.8034 31.901L31.5192 31.8033L31.4748 31.7189L31.2971 31.8344L31.1239 31.7722L31.1817 32.0431L31.3194 32.1364L31.2883 32.2874L31.6036 32.4739L31.7057 32.4517L31.7457 32.6471L31.9544 32.5583L31.9944 32.6693L32.0699 32.6826L32.0965 32.5672L32.2075 32.5538L32.3275 32.7093L32.4784 32.465L32.6872 32.5449L32.7094 32.6204L32.6339 32.8292L32.4962 32.9091L32.7049 32.8514L32.665 32.918L32.7049 33.0335L32.9003 32.9713L32.8648 32.8247L33.0424 32.9047L32.9714 32.918L32.9758 32.9802L33.0824 33.0024L33.562 32.8691L33.6819 33.0335L33.5798 33.2022L33.6731 33.1578L33.7441 33.3443L33.8329 33.3887L33.7397 33.4909L33.8329 33.8017L33.7397 33.9838L33.8019 34.0416L33.8107 34.2947L33.9884 34.499L33.8685 34.7388L33.7308 34.7255L33.5576 34.6011L33.4155 34.7565L33.3311 34.6988L33.2778 34.7477L33.1934 34.952L33.3578 35.2983L33.411 35.3117L33.4821 35.5559L33.3755 35.698L33.3977 35.7691L33.1179 35.8446L33.1091 35.9556L33.1801 35.9867L33.3089 36.2709L33.1535 36.6484L32.8515 36.8527L32.8248 37.0037L32.8204 37.1724L33.1135 37.2524L33.3356 37.4078L33.4643 37.5766L33.4333 37.6032L33.2512 37.9407L33.2423 38.9399L32.7005 39.4817L31.8567 39.615L31.8212 39.4329L31.4481 39.5039L31.3771 39.1442L30.6132 39.2419L30.4667 39.3219L30.5377 39.6949L30.4001 39.7748L30.3956 40.0413H30.2313L30.0626 40.139L29.5208 39.9924L29.0411 40.0413L29.01 39.8548L28.5437 39.5661L28.3839 39.5617L28.4816 39.1131L28.3661 39.1087L28.375 38.9621L28.2684 39.0154L28.2373 38.9311L28.0908 39.0821L27.9398 38.9399L27.922 39.0554L27.8021 39.1043L27.4735 39.051L27.4513 39.1398L27.0827 39.0687L26.9583 39.3752L26.8962 39.3796L26.8917 39.4595L26.7629 39.4729L26.9139 39.8415L26.8606 39.9436L26.5986 40.1568L26.5275 40.2856L26.3544 40.3699L26.3499 40.4277L26.0746 40.3522L26.0657 40.1612L25.6926 40.1701L25.666 39.837L25.5017 39.8503L25.4395 39.4951L25.0487 39.4773V39.2419L24.9777 39.1798L25.0398 39.1753L25.0354 38.7978L24.9377 38.7889L24.9155 38.518L24.8089 38.5225L24.7378 38.4248L24.729 38.2294H24.8977L24.88 37.8519L24.7956 37.8208L24.8311 37.6831L25.0754 37.6076L25.0087 37.319L24.8489 37.2435L24.9022 36.9859L24.7689 36.6306L24.4492 37.0703L24.085 36.8438L24.014 36.8527L23.9029 36.6839L23.712 36.7639L23.4944 36.7417L23.2768 36.4574L23.2101 35.9378L23.1258 35.9068L23.1169 35.9645L22.9659 35.9601L22.997 36.0533L22.8327 36.0089L22.6906 35.7913L22.6506 35.8401L22.4641 35.8091L22.4952 35.7824L22.2331 35.5293L22.0511 36.0222L21.869 36.1199L21.7935 35.8401L21.4071 36.4041L21.3982 36.2976L21.0696 36.111L21.0208 35.9467L21.0518 35.8179L21.4871 35.3827L21.3894 35.3206L21.3361 35.1651L21.1851 35.0052L21.0518 34.6633L21.0829 34.5567L21.1984 34.5345L21.2561 34.4368L21.4871 34.459L21.456 34.157L21.5048 34.1082L21.456 34.0726L21.5537 33.9305L21.8468 34.0193L21.8867 33.9794L21.789 33.633L21.6203 33.6197L21.5492 33.3088L21.1806 33.3132L21.003 33.1933L20.9897 33.0201L20.8831 32.9313L20.7499 32.958V32.8292L20.6699 32.7181L20.4434 32.6338L20.3813 32.4117L20.6077 32.354L20.5722 32.2385L20.6477 32.1408L20.7987 32.1053L20.8076 31.9232L21.0563 31.9143L21.1451 31.3281L21.0296 31.3104L20.9053 30.8796L20.9675 30.8263L21.074 30.8574L21.2339 30.6664L21.305 30.7241L21.5048 30.6087L21.8246 30.6487L21.8823 30.5687L22.2198 30.5021L22.0777 30.169L22.0555 29.4851L21.9667 29.5118L21.9267 29.3919H21.8645L21.8157 29.4984L21.6869 29.4052L21.9622 29.192L21.9711 28.9211L21.6158 28.7435L21.6558 28.6946L21.4293 28.4859L21.3627 28.2594L21.1185 28.0462L21.1273 27.9263L21.0208 27.8331H20.8742L20.9364 27.5577L20.5811 27.4556L20.5589 27.3179L20.2924 26.865L20.3679 26.7895L20.2613 26.634L20.3813 26.5319L20.2836 26.4164L20.1681 26.4875L20.0704 26.3898L20.1326 26.3676L20.0793 26.2432L20.2525 26.221L20.097 25.8613L20.3191 25.848L20.3946 25.7325L20.479 25.8346L20.661 25.6437L20.9941 25.5238L20.8387 25.2396L20.9808 25.2618L21.1451 25.1996L21.3183 24.982L21.0918 24.4624L20.812 24.6844L20.5456 24.7466L20.6744 24.4002L20.6299 23.925L20.328 24.0139L20.1992 24.1382L20.137 24.1116L19.9238 24.267L19.724 24.1915L19.7018 24.0316L19.5819 23.8984L19.6085 23.7563L19.5153 23.5742L19.5641 23.5209L19.4664 23.4232L19.5019 23.1523L19.6174 23.099V23.0013H19.4975L19.3554 23.0946L19.2488 23.0502L19.1689 23.1301L19.3287 23.2767L19.2932 23.3788L18.7869 23.0946L18.7559 22.9835L18.9735 22.6904L19.0046 22.4995L19.0712 22.4329L19.1245 22.4595L19.0934 22.5617L19.1778 22.646L19.3598 22.6327L19.4531 22.4773L19.6707 22.3618L19.946 22.1042L20.0482 22.1842L20.1548 22.0909L20.2747 22.2019L20.2969 22.313L20.359 22.2641L20.6033 22.384L20.7054 22.3307L20.8253 22.3707L20.9586 22.2019L20.9275 22.1442L21.043 22.1264L21.0074 22.0332L21.1407 21.82L21.1939 21.8289L21.305 21.5669L21.3938 21.5624L21.4249 21.4869L21.4959 21.5314L21.5581 21.4559L21.6913 21.4337L21.6691 21.2427L21.8867 20.7453H21.98L21.94 20.5632L22.0333 20.5543L22.1088 20.3723L22.3175 20.3811L22.6017 20.0081L22.4463 19.9193L22.5484 19.8704L22.5174 19.8171L22.6461 19.5329L22.5662 19.4308L22.584 19.2309L22.4774 19.2487L22.5085 19.1377L22.4108 19.0977L22.4197 18.9556L22.4818 18.8845L22.3974 18.7913L22.6906 18.9112L22.6861 18.5781L22.8771 18.5826L22.9037 18.4804L22.7083 18.4049L22.7039 18.063L22.7883 17.912L22.5662 17.9653L22.5351 17.8986L22.4285 17.8764L22.3264 17.9963L22.2864 17.8898L22.1798 17.832L22.1443 17.5789L21.9844 17.2769L22.0555 16.9882L22.0155 16.8284L21.7491 16.7173L21.4027 16.14L21.2783 16.0334L21.0785 16.0556L20.9763 16.1356L20.8786 16.0956L20.7632 16.1667L20.8031 16.069L20.7232 15.7714L20.812 15.7004L20.8165 15.5316L20.9186 15.4694L20.4123 15.0031L20.4301 14.9188ZM28.1974 24.8798L28.3972 24.9864L28.5215 24.9287L28.4949 25.0353L28.6104 25.1063L28.748 25.0797L28.8369 24.9864L29.0234 25.0175L29.0678 24.9509L29.1433 24.9731L29.0811 25.2662L28.748 25.435L28.8591 25.808L28.7791 26.0256L29.0411 26.2166L29.0811 25.9457L29.4364 25.9634L29.5563 26.0922L29.3786 26.2299L29.3698 26.3676L29.2099 26.4031L28.9923 26.2521L28.9123 26.3631L28.939 26.4875L28.7436 26.5807L28.6992 26.5319L28.748 26.4475L28.6503 26.3809L28.748 26.3143L28.6992 26.2077L28.5704 26.3009L28.4016 26.3232L27.5845 26.2432L27.5134 26.2921L27.4735 26.2077L27.2958 26.15L27.2292 25.9412L27.0871 25.9901L27.0916 26.0478L26.9361 25.9501L27.0871 25.808H27.167V25.4083L27.2825 25.1729L27.4557 24.9997L27.6467 24.9331L28.1974 24.8798ZM30.9063 25.6659L31.0351 25.8258L30.9241 25.9101L30.7287 25.6437L30.9063 25.6659ZM30.0759 25.8968L30.0181 25.8924L30.0137 25.7503L30.1159 25.808L30.0759 25.8968ZM28.2151 26.6518L28.0997 26.4209L28.1574 26.3409L28.2196 26.3631L28.264 26.5896L28.2151 26.6518Z" fill="#007A65" stroke="white" stroke-width="2.3476"/>
</svg>
