<svg width="62" height="54" fill="none" xmlns="http://www.w3.org/2000/svg"><path d="M6.494 36.613h.462l.018-.098.457.022.01-.115.181-.058.236.129-.018.244.089.076.124-.031.111.066.009-.075.067.195.057-.04v-.155l.147-.094.075.04-.053.142.098-.11.31.164.325-.187.089.023v.195l.72-.013.252-.138.062.075.005-.208-.085-.178.125-.329.049-.004.048-.222-.137.031.075-.067-.115-.12.209-.328.235-.076-.133-.08.022-.062-.115-.035.026-.12.329-.227.013-.11.182-.045.036-.116.124.014-.04.346.187.08.2-.089.106.116.164-.182.05.022-.032.106.084.032.054-.063.288.031.125-.142h.093l.053.067.054-.031.168.315-.097.116.24.262.075-.031.142-.356.102.036.014.164-.071.187.057.066-.08.151.076.09-.071.106.057.102.08-.018.063-.169.155.107-.013-.071.177-.08-.013-.058.124.005.05.164.07-.031.12.084.062-.062-.04-.04.09-.195.319-.134.075.378.223.084.177-.217-.04-.107-.204.022-.04-.208.2-.178-.12-.12-.067-.213.324.004.014.054.355-.072-.018-.32.085-.04.066-.195.422-.2.138-.213.297-.066-.049-.045.023-.084.12-.142-.182-.169-.01-.098.13-.035.093-.271h-.076l.031-.289-.16-.093-.066-.124.137-.12.014-.205h.11l-.106-.213.071-.288.062-.023-.08-.164.13.04.12-.08-.05-.049.045-.182.102-.022-.027-.178.058-.07-.04-.271.084.017.045-.16.084.023.04-.142.173-.018.134.04.044.093.218.036.164-.112.218.076.093-.16.226-.022-.026.11.11-.04.138.072h.165v.102h.226l.067.04-.036.067.133.049.111-.018.138-.187.005.151.048.031.2-.124.156.08.817.004.102.191.08-.093.133-.049.049.067.027-.045.128.431.116.018-.089.586-.249.01-.008.181-.151.036-.076.097.035.116-.226.058.062.222.227.084.08.111v.129l.133-.027.107.089.013.173.177.12.369-.004.071.31.169.014.098.346-.04.04-.294-.089-.097.142.049.032-.05.048.032.302-.231-.022-.058.098-.115.022-.054.089.134.342.146.16.053.155.098.062-.435.436-.031.128.049.17.328.186.01.106.386-.564.075.28.182-.098.182-.493.262.253-.03.027.186.031.04-.049.142.218.164.044-.031-.093.151.005.009-.058.084.03.067.525.218.284.217.022.191-.08.111.165.067-.01.364.227.32-.44.133.356-.053.258.16.075.066.289-.244.075-.036.138.085.031.017.377-.168.005.008.195.072.098.106-.009.022.271.098.009.004.377-.062.005.071.062v.235l.391.018.058.355.164-.017.027.333.373-.005.009.191.275.076-.098.328.04.351.636-.004.008.16.21.168.354.018.143.196.128-.01.116.08.004.134.062.018.027.124-.022.124.075.071-.195.24.124.187-.057.04-.13.462.058.11-.03.356.146.066.146-.026-.026.084.08.182h.204l.005.245-.032.102-.413.27-.137.205.133.253.009.235-.084.231-.138.165.168.253.192.168-.151.365.102.106.008.098-.164.204-.137-.022-.076.102-.031.191.062.142-.066.178.204.249-.027.062-.049.066.023.213.088-.004-.137.191-.151-.084.057-.134-.035-.053-.111.076-.067-.12-.146.075-.01.076-.203-.023-.183-.097-.12.11-.577.027.005-.182.173-.306-.142-.124-.244.026-.04-1.043-1.24.049-.27.32-.191-.12-.218-.014-.19-.164-.316.084-.036-.093-.208-.102.03-.173-.048-.08-.244-.09-.107-.12-.453.014-.133-.053-.023.08-.2.066-.075.151-.422-.017-.017-.134-.151-.04-.125-.19-.146.022-.018-.387-.164.116-.36.022-.094-.08-.4-.031-.19.093-.071-.053-.12.027-.013-.13-.094.018-.275-.324-.258-.044-.026-.098-.218-.066-.515.173-.564-.093-.018-.178-.266-.067-.067.023.08.248-.124-.022-.302.076-.613-.058-.449-.164-.097.168-.156-.08-.062.102h-.382l-.049-.07-.39-.08-.454-.311-.19.075-.214-.089-.328.169h-.258l-.448.315-.134.018-.195.191h-.2l-.075-.138-.444.134-.04-.134-.071-.017-.396.284h-.088l-.156-.125-.266.036-.253-.093-.351.115-.56.08-.533-.004-.289.213.027.106-.28.445.134.501-.28.311-.884.484-.27.436-.32.186-.152.195-.44-.168-.243.07-.018-.16.2-.226-.502-.137-.209.062-.004-.196-.063-.07-.426.164-.186-.036-.08.12-.333.164.146.298.187.107-.023.133-.137.15.235.44-.062.063-.258-.05-.08-.23-.266-.067-.013-.102.084-.106-.075-.125.022-.089-.076-.035-.084-.187.035-.168-.044-.134.049-.053-.053-.04.026-.151.071-.049-.049-.19.076-.134-.071-.049.044-.035-.057-.17-.058.027-.045-.066.018-.12.169-.187.075.05.09-.027.061-.13.196-.07-.014-.111h.05l.022-.089-.107-.267-.111-.022-.013-.102.075-.15-.049-.192.147.04-.054-.124.094-.071-.125-.102-.03-.13.03-.052.08.022.01-.098.075-.027-.031-.15h-.08l.155-.147.102.009-.026-.133.133-.143-.169-.253.013-.208-.053-.151-.066-.032.075-.017-.067-.054.054-.146-.209-.116-.036-.088.058-.05-.133-.101-.24-.014-.058.08-.048-.164-.156-.098-.013-.102-.147-.044.031-.21.08.014-.03-.062-.094-.022-.111.07-.058-.101-.19.12-.054-.094-.093.045-.036-.222-.115.049-.058-.12-.32-.014-.058-.026.005-.098-.218.067-.355-.111-.062-.134.053-.346-.142-.08.373-.72.386-.514.054-.196.626-.875.324-.328.63-.369.325-.129.435-.075.133.075.853-.706.08-.004.27-.325.005-.63z" fill="#FBC469" stroke="#fff" stroke-width="2.348"/><path d="M33.407 37.599l.08.058.168-.165.054.09.155-.059.244.058.063-.084.12.018.16-.094.279.107.151-.111.213.106.187-.208-.005-.08h.311l-.009-.164-.106.022-.023-.102-.08-.005.054-.262.28.089.128-.16.134.022.47-.661-.03-.245.763-.102.027.045.137-.072-.08-.346.351-.555.12-.067.151.094.227.013.093.142.44.044.146.054.01.066.048-.12.106.014-.008.129h.106l.067.088.284-.128.258-.28.062.044.213-.017.04.048.195-.062.173.022.125.111.013-.057.049.026.049.094.328-.107-.053-.115.12-.138-.324-.142-.08-.062-.044-.182-.08-.045.248-.31-.07-.152-.178.062-.134-.266.156-.102-.08-.196.022-.07.084.017.005-.089.058-.004.066.155.169-.044.084.066.33-.168-.103-.022-.022-.107.124-.12-.067.013-.022-.097.085-.067-.17-.084.285-.102-.169-.458.058-.018-.022-.106-.116-.138-.004-.409.293-.293.275-.137.067.315.173-.071-.053-.071.075-.04.116.084.022.085-.084.04-.031.12.28.04.093-.16-.01-.107.742.173.076.094-.013.08.15.093.174.555.089.075.15-.08.045.045.115-.067.12.036.165-.213.004.102.284-.063.102-.106.271.044.018-.16.182-.142.276.085.084-.107-.018-.08.147.027.075-.209.213.022.13-.2.026-.168.097.053-.115.218.111.057-.049.116.564.11-.084.174.155.147.245-.031-.005-.143.204-.017.054-.071.413.057.106-.093-.026-.11.124-.04.244-.05.036.071.546-.044.031.058-.071.16-.169.16.094.146.115-.08.089.093.07-.044.05.062-.054.186.156.098.009.236.2-.04.048.164.111.031.014.16-.129.124.089.16.52-.049.102.28.044-.058.089.045.03-.05v.072l.458.009.08.182h.12l-.16.049-.03.488-.139.05-.248-.059-.124.134.395.257.075.107.2.07.049.21.084.093-.022.266.653.653.324.018.005.173-.111.098.07.124.178.111.018.098.133.04.014.324.066.164-.155.147-.076.204-.386.138.373.448.053.13-.026.368.093.026.31.298.245.027-.218.195-.07-.115-.067.026-.01.12-.093.053-.008.165-.21-.027.09.209.173-.08.124.137-.11.245-.143.066.156.05.008.106-.07.04.04.137-.058.076.164-.013.058.19-.031.658-.25.022v.053l.254.316.031-.063.133.182.191.014.156.115-.085.09.071.181-.004.205-.124.2.115.08.151-.054.289.053.022.507.08.128-.453.24-.049-.11-.249-.076-.395.004-.51-.11-.227.083-.116-.04-.057-.186-.293-.009-.16.084.049.116-.365.155-.07.178.04.053-.134.276-.253.097-.164-.08-.085-.106.01-.098-.312-.071-.106-.218-.262.116-.187-.005-.475.125-.151-.053.004-.072-.075.014.009.142-.111.018.089.222-.058-.005-.036-.097-.049.022.09.133-.094.053.071.071L48 43.92l.044.093-.098.017.04.063-.04.066.102.04.005.098-.093.022-.09-.12-.057.085.102.088-.146.032.022.137-.098.027-.053-.049-.142.093-.005.067.09.004-.054.067-.125-.08-.075.067.089.262-.129.217-.329-.035-.053.177-.186.16-.067.293-.258.116.107.275-.098.107.018.08-.15-.005-.108.067.023.07.146-.04.045.045-.12.231-.027.209-.355.075.075.271-.035.151-.125-.013-.12-.115-.08.057.107.12-.142.173-.013.107.16.044-.01.063.134.088-.058.054-.16-.04-.057.07.11.125.156.044-.146.072-.005.08.111.208.133-.093.071.04-.08.342.085.08.04.235.19.107-.008.062-.236.089.027.209.053.053.143-.04.008.102.205.333-.102.191.08.204-.16.067-.178.173.111.062-.053.067.12-.044-.09.221-.088-.004-.31.191-.205-.178-.324.067.057-.31-.35-.028-.462-.475.182-.164-.093-.395.062-.04-.102-.022-.262-.351-.254-.209-.262-.089-.173-.16-.066.213-.21-.173-.04.018.04.138-.048.026-.608-.155-.027.138-.124.08-.08-.027-.063.124-.226-.177-.19.048-.072.067.04.053-.071.254-.209-.111-.16.07-.062-.093-.066.023v.146l-.29-.15-.106-.299.111-.048-.009-.2-.044-.142h-.124l-.04.08-.214.097-.017.076-.076-.027-.084.062-.058-.053-.066.107-.08.017-.005.156-.142.115-.258-.168-.133.315.018.222-.111.235-.533-.128-.169.088-.168.191-.187.045.009-.236-.12-.488-.213-.071v-.129l-.125-.2.076-.32-.044-.35-.25-.063-.03-.226-.173-.142.04-.102-.12-.054.075-.182-.058-.057-.346.017-.466.6-.178.137-.138.014-.04-.16-.355.013-.324.231-.173.036-.369.697.089.115.031.218-.049.022-.022.218-.106.11-.094-.19v-.293l-.209.226-.11-.049-.245-1.003.071-.071-.115.044-.018-.04.164-.08-.604-.018v-.097l-.182-.022-.044-.076-.284-.022-.458.4-.23.11-.054-.333-.373-.466-.147.022.063-.524-.058-.057-.506.342-.023.208-.093.156-.15.026-.143.25-.107.044-.102-.04-.19.128-.578.071.209-.346-.12.004-.076.13-.128.03.008-.262-.066-.115-.329-.129-.164.08-.053.053.11.085-.075.342.133.28-.088.07-.205.032-.262.546-.11-.027-.44-.373.075-.031.013-.187.245-.235.053-.23-.031-.147-.187-.005-.066-.07-.209-.04-.147.101-.422-.297-.075.133-.124-.129.026-.062-.204-.249.067-.177-.063-.142.027-.191.076-.103.137.023.165-.21-.005-.097-.102-.106.151-.364-.191-.165-.169-.253.138-.164.084-.231-.008-.236-.13-.253.138-.204.413-.27.031-.103-.004-.24h-.204l-.08-.182.026-.089-.146.027-.147-.067.031-.355-.057-.111.129-.462.057-.04-.124-.186.195-.24-.075-.071.022-.125-.027-.124-.062-.018-.004-.133-.116-.08-.129.009-.142-.195-.355-.018-.209-.169-.009-.16-.635.01-.04-.356.098-.324.005-.058.173-.084.07-.13.263-.212.053-.103-.15-.368.128-.014.004-.08.063-.004.124-.306.369.07.022-.088.328.053.12-.049.018-.115.151.142.146-.151.032.084.106-.053-.009.147.116.004-.098.449.16.004.466.289.031.186.48-.049.542.147.168-.098h.165l.004-.266.138-.08-.071-.373.146-.08.764-.098.071.36.373-.071.036.182.844-.133.541-.538.01-.999.133-.364zm18.225 2.012l-.013-.102.213.008.062.058-.04.147-.07-.12-.152.009zM19.955 14.333l.138.026.11.098.108.27-.027.103.15.089-.021.075.506.467-.102.062-.005.169-.088.07.08.298-.04.098.115-.071.098.04.102-.08.2-.022.124.11.346.578.267.111.04.16-.071.289.16.302.035.253.107.057.04.107.11-.102.107.022.031.067.223-.054-.085.151.005.342.195.076-.027.102-.19-.005.004.334-.293-.12.084.093-.062.071-.009.142.098.04-.031.111.106-.018-.018.2.08.102-.128.285.03.053-.101.049.155.088-.284.374-.209-.01-.075.183-.094.009.04.182h-.093l-.218.497.023.191-.134.022-.062.076-.07-.045-.032.076-.089.004-.11.262-.054-.009-.133.214.035.093-.115.018.03.057-.128.17-.12-.04-.102.052-.244-.12-.063.05-.022-.112-.12-.11-.106.097-.102-.08-.276.258-.217.115-.093.156-.183.013-.084-.085.031-.102-.053-.026-.067.066-.03.191-.218.293.03.111.507.285.035-.102-.16-.147.08-.08.107.044.142-.093.12.005v.097l-.115.054-.036.27.098.098-.05.053.094.183-.026.142.12.133.022.16.2.075.213-.155.062.026.129-.124.302-.089.044.476-.129.346.267-.062.28-.222.226.52-.173.217-.165.062-.137-.022.16.284-.333.12-.183.191-.084-.102-.075.115-.222.014.155.36-.173.021.053.125-.062.022.098.098.115-.071.098.115-.12.102.107.156-.076.075.266.453.023.138.355.102-.062.275h.146l.107.094-.009.12.244.213.067.226.226.209-.04.049.356.177-.01.271-.279.209.102.08.049-.107h.062l.04.12.089-.026.022.684.142.333-.337.066-.058.08-.32-.04-.2.116-.07-.058-.16.19-.107-.03-.062.053-.027.044-.049-.066-.133.049-.08.093-.102-.19-.817-.005-.156-.08-.2.124-.048-.031-.005-.151-.137.187-.111.017-.134-.049.036-.066-.067-.04h-.226v-.107h-.165l-.137-.07-.111.04.026-.116-.226.022-.093.16-.218-.076-.164.111-.218-.035-.044-.094-.134-.04-.173.018-.04.142-.084-.022-.044.16-.085-.018.04.271-.053.071.026.178-.102.022-.044.182.049.049-.12.08-.129-.04.08.164-.062.023-.071.288.106.213h-.11l-.014.205-.138.12.067.124.16.093-.031.289h.075l-.093.27-.129.036.009.098.182.169-.12.142-.022.084.049.045-.298.066-.137.213-.418.2-.066.196-.085.04.018.32-.355.07-.01-.053-.323-.004.066.213.12.12-.2.177.04.21.204-.023.04.106-.177.218-.222-.084-.076-.378-.32.133-.088.196.04.04-.062.062-.12-.084-.071.03-.05-.164-.124-.004.014.058-.178.08.013.07-.155-.106-.062.169-.085.018-.057-.098.07-.107-.075-.089.08-.15-.058-.067.072-.187-.014-.164-.102-.035-.142.355-.076.03-.24-.261.098-.116-.168-.315-.054.031-.049-.066h-.093l-.124.142-.293-.031-.054.062-.084-.031.031-.107-.049-.022-.164.182-.107-.115-.2.088-.186-.08.04-.346-.124-.013-.036.115-.182.045-.013.11-.329.227-.027.12.116.035-.022.063.133.08-.235.075-.21.329.116.12-.075.066.137-.03-.048.221h-.05l-.124.329.085.178-.005.208-.062-.075-.253.137-.72.014v-.196l-.088-.022-.324.187-.311-.165-.098.111.053-.142-.075-.04-.142.094v.155l-.058.04-.067-.195-.009.075-.11-.062-.125.026-.089-.07.018-.245-.235-.129-.174.072-.008.115-.458-.022-.018.097h-.461v-.302l-.085-.168-.049-1.053.178-.204-.089-.173-.035-.475-.165-.245.018-.093-.093-.027-.076-.186.271-.755-.089-.178-.226-.19-.053-.365-.222-.129-.937-2.744-.44-1.825-.022-.396-.2-.266.022-.817-.169-.116-.075-.493.022-.453h.075l.05.12.266.01.169.168.23-.089.33.009.044-.053.337.16.089.124-.04.106.089.014.164-.107-.111-.182.013-.075.267-.2.204.133.093-.022.116-.244.284.168.04.244.115.014.653-.129.08-.182.169.031.084-.093.271-.071.076.124-.022.08.128.049.12-.08.04.115.324.36.103.027.093-.111.062.11.373-.057-.022.049.058.031-.01-.089.054.005.004.062.134-.067.106-.213.271-.302.302-.262.182-.067.125-.177.164.044.169-.138.142.036-.071.533.293-.036-.018-.075.204-.191.147-.053.124.035.067-.04.004-.098.08.018-.022-.208.182.004.031-.076-.049-.04-.129.05-.12-.116-.013-.262-.284-.413.013-.053.111.026.222-.173-.075-.142.31-.013.525-.254.124.072-.022.057.107.165.133.07.2-.035.142.049.257-.35.507-.52-.01-.17.12-.226.067-.04.111.116.098-.218.209.116.026-.063.085.063.08-.054.106.031.058-.08.275-.106.08-.16.191.009-.013.071h.089l.088-.049-.008-.067.093-.004.018-.089.097.04.014.231.262.107-.04.07.097.107-.017.09.12.199-.276-.022.01.102.097.058-.005.173-.28.115-.026.107.142.19.116.085.075-.04.218.103.142-.027-.018.053.102.102.133-.12h.125l.009-.164h.102l.009-.115.204.128.093-.049.005-.11.062.097.164.045.036-.054-.125-.049-.044-.155.053-.102-.035-.098-.125-.177-.044.013.288-.2-.053.04-.115-.076-.09-.288-.168-.053-.053.04-.062-.063.044-.2-.133-.222-.142-.017-.12.106-.08-.062-.062.076-.169-.054-.013-.07-.218.08-.013-.174-.09-.013.01-.094.115-.013.05-.217.163-.112-.035-.168.04-.102.075.053.147-.253-.062-.267.049-.084-.134-.027.196-.106.262-.667.413-.293.062-.128-.044-.44-.085-.138.036-.075-.076-.422.053-.04-.035-.178.08-.475-.08-.546.093-.227.147-.022.035-.324.125-.062.075-.165.218-.19.04-.316.11-.004.05-.071.12.049.133-.05.102-.12.213-.097.093.098.387.066-.054-.066.16-.058-.017-.15.182-.023.066-.169.098.036.138-.09.137.032.111-.093zm-4.267 7.376l-.085-.022.053-.076.116-.004-.085.102z" fill="#007A65" stroke="#fff" stroke-width="2.348"/><path d="M38.918 22.033l.169-.04.098.089.08-.125.07.027.023-.093.089.044.124-.19-.018-.138.116-.031.035-.187.258.022-.067-.222.071-.137.293-.111-.004.115.253.093.169.178.124-.076.342.04.267-.062.15-.142.174.116.106-.147-.026-.049.07-.035.067.053-.102.142.16.164-.067.09.267.132.013-.057.124.013.134-.111-.093.293h.217l.071-.04-.137-.227.013-.12.275.09V21.3l.156-.053-.17-.08-.075-.147.196.014.115.155.151-.248-.15-.16.044-.134.23-.044.014.071-.071.08-.076-.005.01.076.243-.084.151.208-.008.174.133-.01.084-.19-.062-.09.071-.052.196.15.053-.048.102.106.075-.035.08-.418.156.085-.093.204.044.138-.227.2-.106.328.435.116.187-.298.253.022-.036-.15.053-.107.054.088h.075l.045.294.115.093.044.218.16-.116.032.182.11-.004-.053.07.156.036-.076-.102.01-.115.226-.005-.218-.075.262-.209-.098-.049.12-.262.08-.053.058.03.053-.11-.084-.133-.116-.01-.049-.07.116-.071.124.017.209-.128.058.04.226-.08-.089-.236.05-.088.16-.054.177.067.026.062h.213l.04.182.227-.071.253.08.151-.076-.013-.173.089-.044-.01-.138.147-.115.116.23.15-.022.063.085.155-.027.102.262.21-.222.04-.129.181-.03.045-.08.226-.103-.093-.177.147-.023.088.094.2-.054.173.045.023.31.066.036.027.178.106.129-.106.235.288.124.125.276-.213.2.204.07-.062.32.03.356.12-.018.147.097.107-.12.044.258.156-.018-.018.098-.115-.035-.05.088.33.031.244.28.115-.013.035.062-.062.147.214.097h.146l.058.147.373.04.164-.089-.018.071.142.164.005.151.289-.102.053.102.075-.07.17-.023-.045.262-.08.093.2.014.213-.173.093.115.098-.071.058.102.075-.071.111.04-.089.138.076.164-.027.169-.204.302.062.115.133.04.01.253-.219.151.018.182-.053.018-.107.315.014.16-.187.071.071.063.04-.027.005.075-.054.085-.115.013-.053.124.075.032-.018.057-.195.023.089.11-.063.262.05.036.044-.129.057.05.023-.063.08-.005.026.067.071-.018.453.267.045-.107.128-.03.138.052.227-.2.346.054-.022-.071.23.026.094-.11.164-.04.13.173.141.013.027.071.053-.062h.133l.111.32.17.013.035-.071.137-.031.018.062-.089.098.298-.014.129.125.057.27.08.05.156-.125.19.013.196-.097.018.164.169.071.044.084.013.2-.27.182-.156-.022-.084.062-.005.102.031.187.071.04-.004-.2.111.138-.124.315.19.311.125.071-.04.178.222.04.24.173-.062.106.368.045.014.346.133.027.115-.289.045.093.2.116-.16.044-.023.098.48.093.067-.062.12.022-.12.17.089.235-.134.013-.004.12.058.097.097-.017.05.11-.098-.061-.116.017.022.094-.106.115.155.377-.289.054-.102-.098-.12.08-.084.182-.209-.253.018.244-.12.005-.089.23-.226-.106-.116.084-.013-.137-.213.04.013.057.151.05-.009.088-.386.742-.093.026-.12.191-.16-.035-.165.049-.11.12.022.133-.067.142-.178.164-.35.005-.067.128.027.156-.302-.084-.085.195-.457.115-.453-.133-.009-.089-.133.067-.027.075-.333.018-.12-.049.045-.164-.067-.04-.151-.062-.089.075-.226-.035-.196-.293-.053-.356-.107-.035-.15-.169-.09.045-.608-.351-.288.36-.218.022-.04-.085-.16-.004-.04-.053-.59-.076.08.355-.116.063-.009.146-.19.138.012.142.076.004.12.16-.053.124-.165.018h-.12l-.08-.182-.457-.009v-.07l-.036.048-.088-.044-.045.057-.102-.28-.52.05-.088-.16.128-.125-.013-.16-.111-.03-.049-.16-.2.04-.008-.236-.156-.098.053-.186-.049-.062-.07.044-.09-.093-.115.08-.093-.147.169-.16.07-.155-.03-.058-.547.045-.035-.072-.244.05-.125.04.027.11-.107.094-.413-.058-.053.07-.204.019.004.142-.244.03-.156-.146.085-.173-.564-.11.053-.116-.11-.058.115-.213-.098-.054-.027.17-.133.199-.213-.022-.076.209-.146-.023.018.08-.085.107-.275-.084-.182.142-.018.16-.27-.045-.103.107-.284.062-.01-.102-.163.213-.12-.036-.116.067-.044-.044-.151.08-.09-.076-.168-.555-.15-.093.013-.08-.076-.098-.742-.173.01.106-.094.16-.28-.04.031-.12.085-.04-.023-.084-.115-.084-.076.04.054.07-.173.072-.067-.316-.275.138-.293.293.004.409.115.137.023.107-.058.018.169.457-.285.102.17.085-.085.066.022.098.067-.013-.125.12.023.106.102.022-.329.174-.089-.067-.169.044-.066-.155-.058.004-.004.09-.085-.019-.022.072.08.195-.151.102.133.267.178-.063.07.151-.248.311.08.045.045.182.08.062.324.142-.12.138.053.11-.328.107-.05-.093-.048-.027-.014.058-.124-.111-.173-.022-.195.062-.04-.049-.214.018-.062-.049-.257.28-.285.129-.066-.085h-.107l.01-.128-.108-.014-.048.12-.01-.067-.146-.053-.44-.044-.093-.142-.226-.014-.151-.093-.12.067-.35.555.075.346-.138.071-.027-.044-.76.102.032.244-.47.662-.134-.022-.129.16-.28-.09-.053.263.08.004.022.102.111-.03.01.164-.312.004.005.08-.187.209-.213-.107-.151.111-.28-.107-.16.094-.12-.018-.062.084-.244-.057-.155.057-.054-.088-.168.164-.08-.058.03-.026-.128-.17-.222-.155-.293-.08.004-.168.027-.151.302-.205.155-.377-.128-.284-.072-.031.01-.116.28-.075-.023-.071.107-.142-.072-.25-.053-.013-.164-.346.084-.204.053-.05.085.059.142-.156.173.125.138.013.12-.24-.178-.204-.013-.253-.062-.058.084-.173-.093-.311.093-.102-.089-.045-.07-.186-.094.044.102-.169-.12-.164-.48.133-.106-.022-.005-.062.072-.009-.174-.08.036.147-.196.062-.04-.116.04-.066-.208.057.137-.08.076-.208-.022-.076-.21-.08-.15.245-.12-.156-.111.014-.027.115-.075-.013-.04-.111-.209.088-.04-.195-.102.022-.315-.186.03-.151-.137-.093-.058-.267.174.062.177-.115.05.08.283.097.578.054.2-.014v-.155l.515-.018.106-.053-.004-.404-.187-.222-.266-.102-.022-.111.057-.227.12.022.005-.084.128-.076.005-.524-.191-.177-.218-.071h.085l.03-.102.103-.023.182.107.076-.142.097.018.222-.285.05.071.07-.057v-.156l.062.027.094.204.062-.106.248-.023.014-.106-.102.026-.067-.102.044.147-.337-.085.218-.204.328.018.022-.222.21.009-.063-.098.058-.249.533.329.4.018-.023-.173.244-.09.098.24.24.023.213.28.009.15.284.05.005.08.057.017-.097-.453.124-.026-.133-.05-.01-.075.285-.137.031.08.44.044.07-.129-.101-.084.013-.205-.071-.053.049-.111.133.067.071-.107-.044-.23.035-.2.142.013.014.133.142-.053.142.244.12-.031.057-.125.232-.048.057-.138.271-.08.084-.138-.013-.226.053-.142h.125l.15.23.143-.04-.022-.284.08.014.115-.09-.24-.075.05-.173.497.04.093-.053.022-.156-.173-.035-.05-.098-.186.036-.057-.2-.285.075-.07-.053.168-.07.218-.276-.209.12-.111-.08.005-.054.133-.017.057-.09-.164-.066.155-.324-.15-.089.013-.275-.156-.129.111-.129-.03-.15-.196-.192.08-.137.31-.17.214.005-.071-.097.133-1.164-.084-.089.146-.124.031-.142-.057-.027.088-.053-.106-.036.022-.066-.075.009-.005-.102h-.19l-.032-.187z" fill="#007A65" stroke="#fff" stroke-width="2.348"/><path d="M31.488 2.013l.045.005.022.293.24.058.27.266.005.28.124.03.085-.083.053.19.16.143.169-.045.213.036.057-.218-.084-.169.018-.115.058-.022.226.128-.022.103.275-.191.364.004.014-.062.11-.036.405.17.137-.063.231.031.005.084-.102.13-.098-.032-.044.12.12.164.004.134.244.208.027.302.2.316.035-.045.102.045.254-.05.244.187.08-.342.328-.062.067-.062.111.058v-.178l.364-.018.049-.146.435-.08.147.19.133-.128.138.018.364.408.226-.093.174.076.115-.032.306.218.196-.031.195.062.169.138-.138.066-.022.085.204.058.12.186-.182.102-.106-.004-.014.066-.195.027.182.298h-.124l-.09.16.014.364-.164.226.04.24-.076.146.031.094.222.04.311.222.04.142.147.115.2.036.364-.329.049-.262.19-.213.098.04.236-.164.222.009.217-.125.098.133-.013.094.08.04.142-.04.23-.253-.008-.138.062.027.16-.267-.058-.102.165-.124.315.11.142-.062v-.124l.146-.009.302.13.107.146.071-.036.169.164.16-.004.062-.191.146-.004.01-.165-.054-.084.04-.049.08.173.164-.049.12.031.089-.066.2.08.018-.058.053.39.302-.035.169.253.195-.057.067.089.448-.054.027.102.16.116-.134.115.2.333.316.01.284.23.124.293-.066.13.017.137.178.013-.089.151.102.009-.017.222.093.009.057-.222.2-.036.165.578-.036.062.08.089h.262l-.004-.103.115-.008.036-.16.106-.045-.084-.102.169-.018.266.191.115-.106.023.377.12.467-.236.102-.013.07.106.067-.008.076.097-.009.09.151-.236.204-.138.022.084.174-.044.177.182.467-.08.23-.128.027-.174.258-.16.084-.102.147-.049.097.018.396.373.093v.142l.133.058.098.506.222.098.062.23.098.018-.075.245.142.026-.05.222.05.094-.085.217.09.244.004.391-.063.054-.04-.063-.262-.07-.173.181.218.178.12.235-.165.05.014.168-.209.004v.12l-.284-.022-.213.107-.005.142.049.009.04.182-.124.16.048.115-.146.036-.28.72.538.217.253.275.16.031.253.196.137.244.125-.098.004.276-.066.097.03.151.205-.027.39.138.138-.12.098.08.298-.026.102.16.049.262-.223.377-.168.12-.067.15.014.2-.231.116.026.142-.08.107.111.15.174.027.164.156.093.022.138-.062.013.098-.2.053-.089-.093-.146.022.093.177-.226.103-.045.08-.182.03-.04.13-.209.221-.102-.262-.155.027-.062-.084-.151.022-.116-.23-.146.114.008.138-.088.045.013.173-.15.075-.254-.08-.227.071-.04-.182h-.213l-.026-.062-.178-.066-.16.053-.049.089.09.235-.227.08-.058-.04-.209.129-.124-.018-.116.071.05.071.115.009.084.133-.053.111-.058-.03-.08.053-.12.262.098.048-.262.21.218.075-.227.004-.009.116.076.102-.156-.036.053-.071-.11.005-.032-.183-.16.116-.044-.218-.115-.093-.045-.293h-.075l-.054-.089-.053.107.036.15-.253-.022-.187.298-.435-.115.106-.33.227-.199-.045-.138.094-.204-.156-.084-.08.417-.075.036-.102-.107-.054.049-.195-.151-.071.053.062.09-.084.19-.133.009.008-.173-.15-.209-.245.084-.009-.075.076.004.07-.08-.012-.07-.231.044-.045.133.151.16-.15.248-.116-.155-.196-.013.076.146.168.08-.155.054v.093l-.275-.089-.014.12.138.226-.071.04h-.218l.094-.293-.133.111-.125-.013-.013.058-.267-.134.067-.088-.16-.165.102-.142-.066-.053-.072.035.027.05-.106.146-.174-.116-.15.143-.267.062-.342-.04-.124.075-.17-.177-.252-.094.004-.115-.293.11-.071.138.067.223-.258-.023-.035.187-.116.031.018.138-.124.19-.09-.044-.021.093-.072-.026-.08.124-.097-.089-.169.04-.187.098-.177-.111.124-.173-.049-.08.032-.084.066.115.098-.12.004-.27.093-.107.103-.018-.214-.058-.12-.213.054-.129-.129-.022-.018-.138.329.005.062-.023.058-.146.129.035.03-.044-.146-.19.014-.227.088-.023-.124-.186.018-.093-.058.022-.053-.067.293-.377.009-.111-.071-.085.137-.302-.022-.244.187-.15-.16-.32-.227.053.014.124-.09.027-.048.173-.213-.045.097-.146-.217.262-.049-.102-.098-.014-.164.17-.169-.04-.084.048-.031-.071-.142-.009-.027-.289-.067-.057.116-.116-.138-.066.053-.107-.244.027-.07.08-.232-.032-.11-.088-.414.235-.04.067.031.182-.093.098-.098-.032-.017-.084-.063.022-.195-.124-.227-.009-.066-.089-.213.08.093.111.004.12-.022.08-.12.053-.288.031-.085-.026-.004-.09-.231-.057.035.049-.293.076-.204-.05.018-.08-.08-.097.075-.089v-.15l-.28-.485-.142.027-.048-.102-.09-.014-.053.116-.701-.01-.062.538-.098.311-.142.249h-.12l-.28-.404-.146-.054-.05-.204-.12.067-.048-.182-.049.04.053.08-.026.106-.08-.124.018-.209-.236-.155-.075-.125-.116-.026-.35.168.017-.075-.08.11.062.148-.186.053-.076.124-.04-.089-.088-.004-.32.178-.036.248-.164.067-.16-.276-.257.036-.2-.116.066-.155-.12-.093-.217.244-.058.009-.022-.067-.213.134-.116-.005-.049-.186-.133-.09.058-.203-.244-.218-.005-.688-.262-.125-.129-.129-.106.05-.48-.023.116-.426-.165-.062-.186.088-.031-.328-.182-.09-.036-.101-.12.013-.04-.066-.124.08-.306-.187-.134-.275-.16-.045.067-.364-.178-.067-.013-.124-.044-.027-.036.054-.058-.09.023-.15.057-.036-.088-.164-.302.058-.054-.138-.11.089-.072-.098-.124.178-.062-.164-.236.084-.133-.053-.133.062.044.066.111-.017-.026.115-.351.005-.085.097-.2.045-.04-.222-.23-.174-.13-.186-.097.066-.066-.03-.156.226-.075-.084.009-.098-.125-.014-.093.067-.018.116.08.124.084.004.01.143-.054.048-.098-.093-.08.098-.146-.071-.116.04v.12l-.133.008-.089-.03-.07-.178-.09.035-.173-.146-.106.11-.213-.04-.027.04.133.134-.266.253-.356-.226-.115.106-.209-.155-.12.049-.049-.12-.137-.08-.338-.089-.08.129.062.049.054-.031-.014.115-.088.053-.12-.093-.178.306-.146-.088.026-.103-.106-.266-.111-.098-.138-.026.035-.174.165-.275.03-.27.125-.023-.013-.058.053-.022-.235-.329.2-.133.226-.04.058-.044-.053-.049.15-.022-.017-.098.19-.049.21.076.04.093.088-.075.284.115.094-.08.013-.115.213-.125.156.173.253-.106.222.066.19-.146.125.04.027-.12.093.035.053-.07-.097-.054-.067-.218.107-.07.062.053.15-.16.01-.298.084-.097.191-.058.124-.147.2-.07-.018-.276-.235-.147-.417-.013-.325-.182-.03.102-.085-.049-.08.133-.022-.133-.085.031.023.063-.067.07-.124-.008-.014-.067-.124.071-.111-.106-.542-.125-.062-.066.16-.08.03-.142.156-.005.174-.19.137-.005-.03-.191.061-.053-.106-.307.097.013-.084-.12.138-.204-.062-.11-.08-.019-.094-.257.102-.196.227-.106.178-.293.053.022.138-.111-.005-.302-.053-.08.102-.173-.04-.284-.084-.014v-.257l.128-.2-.026-.049.422.036.16.2.235.048.102-.208.422-.178.031-.218.133-.169.142-.408.143.013.155-.262.244-.169.107.058.089-.066.293.035.049-.182.12-.062.102.03.062-.057.106.16.196.053.235.28.027.107.195.097.395-.146.107-.16.39.213.685.102.413-.035.142-.635-.089-.467.169-.222V4.59l.497-.457.2-.018.164-.089.09-.182-.08-.102.066-.005.12-.146-.133-.138.266-.07.111-.107.173.07.187-.284.097-.333.103-.053.044-.111.12-.058.28.085.017-.098.143-.124.137.035.022-.146.236-.258.044.013zm-3.246 24.621l-.058-.018-.084-.195.058-.08.062.022.022.27zm1.834-.737l-.057-.005-.005-.142.102.058-.04.089zm.83-.231l.13.16-.112.084-.204-.24.187-.004zm-2.708-.786l.2.106.124-.058-.027.107.116.071.137-.027.09-.093.186.031.044-.066.076.022-.063.293-.333.169.111.373-.08.217.262.191.04-.27.356.017.12.129-.178.138-.009.137-.16.036-.217-.151-.08.11.026.125-.195.094-.044-.05.048-.084-.097-.066.097-.067-.048-.107-.13.094-.168.022-.817-.08-.071.049-.04-.085-.178-.057-.066-.209-.143.049.005.058-.155-.098.15-.142h.08v-.4l.116-.235.173-.173.191-.067.55-.053z" fill="#007A65" stroke="#fff" stroke-width="2.348"/><path d="M20.43 14.919l.178-.307.12.094.088-.054.014-.115-.053.03-.063-.048.08-.129.338.09.137.079.05.12.12-.049.208.155.115-.106.356.226.266-.253-.133-.133.026-.044.214.044.102-.111.173.147.089-.036.07.178.09.03.133-.008v-.12l.115-.04.147.071.08-.098.098.094.053-.05-.009-.141h-.084l-.08-.125.017-.115.094-.067.124.014-.009.097.076.085.155-.227.067.031.098-.066.128.186.231.173.04.222.2-.044.084-.098.351-.004.027-.116-.111.018-.045-.066.134-.063.133.054.235-.085.062.165.125-.178.07.098.112-.09.053.139.302-.058.089.164-.058.036-.018.15.058.09.04-.054.045.027.013.124.177.067-.066.364.16.044.133.276.306.186.125-.08.04.067.12-.014.035.103.182.088.031.33.187-.09.164.063-.115.426.48.022.106-.049.129.129.262.124.004.689.244.217-.057.204.133.09.049.186.115.004.213-.133.023.067.057-.01.218-.243.12.093-.067.16.2.115.258-.035.16.275.168-.067.036-.248.32-.178.088.005.04.088.076-.124.186-.053-.062-.151.08-.111-.018.075.351-.169.116.027.075.124.236.156-.023.213.08.124.027-.106-.053-.08.049-.04.048.182.12-.062.05.204.146.053.284.404h.12l.142-.248.098-.311.062-.538.701.01.054-.116.089.013.048.102.142-.03.28.483v.151l-.075.09.08.097-.018.08.204.049.293-.076-.035-.049.23.058.005.089.085.026.288-.03.12-.054.022-.08-.004-.115-.093-.111.213-.08.066.089.223.008.195.125.062-.022.018.084.097.031.094-.098-.031-.182.04-.066.413-.236.11.09.232.03.07-.08.245-.026-.053.106.137.067-.115.115.066.058.027.289.142.009.031.075.085-.049.168.04.165-.168.097.013.05.102.217-.262-.098.146.213.045.05-.173.088-.027-.013-.129.226-.053.16.32-.186.15.022.245-.138.298.071.084-.009.11-.293.378.053.067.058-.022-.018.093.125.187-.089.022-.013.226.146.191-.026.045-.13-.036-.053.147-.062.022-.328-.005.017.138.13.022-.054.13.12.212.213.058-.102.018-.093.106-.005.271-.098.12-.053-.129-.03.085.048.08-.124.173.177.11.187-.097.035.142h.191l.005.102.075-.008-.022.066.107.036-.09.053.054.027-.031.142-.147.124.085.089-.133 1.163.07.098-.213-.004-.31.169-.08.137.195.191.031.151-.11.129.154.129-.013.275.151.089-.155.324.164.067-.058.088-.133.018-.004.054.11.08.21-.12-.218.275-.169.07.071.054.284-.075.058.2.187-.036.048.098.174.03-.023.156-.097.053-.498-.04-.048.174.24.075-.116.09-.08-.014.022.284-.142.04-.151-.231h-.124l-.054.142.014.227-.085.137-.266.08-.058.138-.23.053-.059.124-.12.032-.142-.245-.142.054-.009-.134-.142-.013-.035.2.044.23-.07.108-.134-.067-.049.11.071.054-.013.204.102.085-.071.129-.44-.045-.03-.08-.285.138.009.076.133.048-.124.027.097.453-.057-.018-.005-.08-.284-.049-.009-.15-.213-.28-.24-.023-.098-.24-.244.09.022.173-.4-.018-.532-.329-.062.267.062.097-.209-.008-.022.221-.329-.017-.217.204.337.084-.044-.146.066.102.102-.027-.013.107-.244.022-.062.107-.094-.204-.062-.027v.155l-.07.058-.05-.071-.222.284-.097-.018-.076.147-.182-.107-.102.023-.031.102h-.085l.218.07.191.178-.004.524-.13.076-.004.08-.12-.022-.057.226.022.111.266.102.187.222.004.405-.106.053-.515.017v.156l-.2.013-.578-.053-.284-.098-.044-.084-.178.115-.173-.062.058.271.137.093-.03.151.315.187.102-.022.04.195.208-.089.04.111.076.014.026-.116.112-.013.12.155.15-.244.21.08.021.075-.075.21-.138.08.209-.059-.04.067.04.115.195-.062-.035-.146.177.08-.07.013.004.062.106.022.48-.133.12.164-.102.17.093-.045.071.186.089.045-.093.102.093.31-.093.183.062.058.009.253.177.204-.12.24-.137-.014-.173-.124-.142.156-.085-.058-.053.049-.085.204.165.346.053.014.071.244-.106.142.022.071-.28.076-.009.11.071.032.129.284-.155.377-.303.205-.026.15-.005.17.294.08.222.155.128.169-.03.026-.183.338-.009.999-.541.542-.844.133-.036-.182-.373.07-.07-.359-.765.098-.146.08.07.373-.137.08-.004.266h-.165l-.168.098-.542-.147-.48.05-.031-.187-.466-.289-.16-.004.098-.449-.116-.004.009-.147-.107.053-.03-.084-.147.151-.151-.142-.018.115-.12.05-.328-.054-.023.089-.368-.071-.125.306-.062.005-.004.08-.13.013.152.369-.053.102-.262.213-.072.129-.173.084-.004.058-.275-.076-.01-.19-.372.008-.027-.333-.164.013-.063-.355-.39-.018v-.235l-.071-.062.062-.005-.005-.377-.097-.01-.022-.27-.107.005-.071-.098-.009-.196h.169l-.018-.377-.084-.031.035-.138.244-.075-.066-.289-.16-.076.053-.257-.133-.355-.32.44-.364-.227-.071.009-.111-.17-.191.08-.218-.021-.217-.285-.067-.52-.084-.03-.01.058-.15-.005.031.093-.164-.044-.142-.218-.04.05-.187-.032.031-.027-.262-.253-.182.493-.182.098-.075-.28-.387.564-.009-.106-.328-.187-.05-.164.032-.13.435-.434-.098-.062-.053-.156-.15-.16-.134-.342.03-.106.116-.023.058-.097.231.022-.031-.302.049-.049-.049-.035.098-.142.293.088.04-.04-.098-.346-.169-.013-.07-.311-.37.004-.177-.12-.013-.173-.107-.089-.133.027v-.129l-.08-.11-.227-.085-.062-.222.227-.058-.036-.115.076-.098.15-.036.01-.182.248-.009.09-.586-.116-.018-.125-.43.063-.054.106.031.16-.19.071.057.2-.115.32.04.057-.08.338-.067-.142-.333-.023-.684-.088.027-.04-.12h-.063l-.048.106-.13-.093.276-.213.01-.27-.356-.178.04-.05-.227-.208-.066-.227-.244-.213.008-.12-.106-.093h-.147l.062-.275-.355-.102-.022-.138-.267-.453.076-.075-.107-.156.12-.102-.097-.116-.116.072-.098-.098.063-.022-.054-.125.174-.022-.156-.36.222-.013.076-.115.084.102.182-.191.333-.12-.155-.284.142.022.164-.062.173-.218-.226-.52-.28.222-.266.063.128-.347-.044-.475-.302.089-.129.124-.062-.026-.213.155-.2-.075-.022-.16-.12-.134.026-.142-.093-.182.05-.053-.099-.098.036-.27.115-.054v-.098h-.12l-.142.094-.106-.045-.08.08.16.147-.036.102-.506-.284-.031-.111.218-.294.03-.19.067-.067.053.026-.03.103.084.084.182-.013.093-.156.218-.115.275-.258.102.08.107-.093.12.11.022.112.062-.049.244.12.102-.053.12.04.134-.17-.032-.057.116-.018-.036-.093.134-.213.053.009.111-.262.089-.005.03-.075.072.044.062-.075.133-.022-.022-.191.218-.498h.093l-.04-.182.093-.009.076-.182.208.01.285-.374-.156-.089.102-.049-.03-.053.128-.284-.08-.102.018-.2-.107.018.032-.111-.098-.04.009-.142.062-.072-.085-.093.294.12-.005-.333.191.005.027-.103-.196-.075-.004-.342.084-.151-.222.053-.03-.066-.108-.023-.102.12-.04-.106-.106-.058-.036-.253-.16-.302.071-.289-.04-.16-.266-.11-.346-.578-.125-.107-.2.023-.102.08-.097-.04-.116.07.04-.097-.08-.298.089-.07.005-.17.102-.062-.507-.466.018-.084zm7.767 9.96l.2.107.125-.057-.027.106.115.071.138-.026.089-.094.186.031.045-.066.075.022-.062.293-.333.169.111.373-.08.218.262.19.04-.27.355.017.12.13-.177.137-.01.138-.16.035-.217-.15-.08.11.027.125-.195.093-.045-.05.049-.083-.098-.067.098-.067-.049-.106-.129.093-.168.022-.818-.08-.07.05-.04-.085-.178-.058-.067-.209-.142.05.005.057-.156-.098.151-.142h.08v-.4l.115-.235.174-.173.19-.067.551-.053zm2.71.787l.128.16-.11.084-.196-.266.177.022zm-.831.23l-.058-.004-.004-.142.102.058-.04.089zm-1.86.756l-.116-.231.057-.08.063.022.044.227-.049.062z" fill="#007A65" stroke="#fff" stroke-width="2.348"/></svg>