<svg width="28" height="28" viewBox="0 0 28 28" fill="none" xmlns="http://www.w3.org/2000/svg">
<path d="M22.1667 0H5.83333C2.61217 0 0 2.61217 0 5.83333V22.1667C0 25.3878 2.61217 28 5.83333 28H22.1667C25.389 28 28 25.3878 28 22.1667V5.83333C28 2.61217 25.389 0 22.1667 0ZM18.6667 8.16667H16.422C15.7045 8.16667 15.1667 8.46067 15.1667 9.20383V10.5H18.6667L18.389 14H15.1667V23.3333H11.6667V14H9.33333V10.5H11.6667V8.2565C11.6667 5.8975 12.908 4.66667 15.7045 4.66667H18.6667V8.16667Z" fill="#FAFAFA"/>
</svg>
