<svg width="28" height="28" fill="none" xmlns="http://www.w3.org/2000/svg"><path d="M17.772 6.403c-.984-.045-1.28-.054-3.772-.054s-2.787.01-3.77.054c-2.532.115-3.712 1.315-3.826 3.825-.046.985-.056 1.28-.056 3.772s.01 2.787.055 3.772c.115 2.506 1.29 3.71 3.825 3.825.984.045 1.28.055 3.772.055 2.493 0 2.788-.01 3.772-.053 2.532-.116 3.71-1.318 3.825-3.826.045-.985.054-1.28.054-3.772s-.01-2.787-.054-3.77c-.115-2.512-1.296-3.713-3.825-3.828zM14 18.793a4.792 4.792 0 110-9.585 4.792 4.792 0 010 9.585zm4.983-8.655a1.12 1.12 0 110-2.24 1.12 1.12 0 010 2.24zM17.11 14a3.111 3.111 0 11-6.222 0 3.111 3.111 0 016.223 0zm5.056-14H5.833A5.834 5.834 0 000 5.833v16.334A5.834 5.834 0 005.833 28h16.334A5.833 5.833 0 0028 22.167V5.833A5.833 5.833 0 0022.167 0zm1.11 17.848c-.154 3.393-2.043 5.274-5.428 5.43-.997.045-1.314.055-3.849.055s-2.851-.01-3.848-.056c-3.392-.155-5.273-2.039-5.43-5.43-.045-.995-.055-1.312-.055-3.847 0-2.534.01-2.852.056-3.848.156-3.392 2.039-5.274 5.43-5.428.996-.047 1.312-.057 3.847-.057s2.852.01 3.849.056c3.392.155 5.277 2.043 5.428 5.428.046.997.056 1.315.056 3.849 0 2.535-.01 2.852-.056 3.848z" fill="#FAFAFA"/></svg>