<svg width="28" height="28" fill="none" xmlns="http://www.w3.org/2000/svg"><path fill-rule="evenodd" clip-rule="evenodd" d="M22.167 28H5.833A5.834 5.834 0 010 22.167V5.833A5.834 5.834 0 015.833 0h16.334A5.833 5.833 0 0128 5.833v16.334A5.833 5.833 0 0122.167 28zm-3.202-6.006a.92.92 0 00.861.113.902.902 0 00.564-.653c.675-3.176 2.316-11.216 2.93-14.105a.613.613 0 00-.201-.59.627.627 0 00-.621-.109c-3.26 1.206-13.305 4.975-17.41 6.495a.643.643 0 00-.421.622.647.647 0 00.46.594c1.841.549 4.259 1.316 4.259 1.316s1.128 3.41 1.717 5.145a.68.68 0 00.47.448.672.672 0 00.63-.162c.947-.892 2.408-2.272 2.408-2.272s2.778 2.037 4.354 3.158zm-8.563-6.748l1.306 4.307.29-2.727L19.92 9.68a.215.215 0 00.025-.293.221.221 0 00-.293-.05c-3.333 2.13-9.25 5.908-9.25 5.908z" fill="#FAFAFA"/></svg>