<svg width="28" height="28" fill="none" xmlns="http://www.w3.org/2000/svg"><path d="M22.167 0H5.833A5.834 5.834 0 000 5.833v16.334A5.834 5.834 0 005.833 28h16.334A5.833 5.833 0 0028 22.167V5.833A5.833 5.833 0 0022.167 0zm-.163 10.777c.244 5.386-3.773 11.392-10.885 11.392-2.162 0-4.175-.634-5.87-1.72a7.706 7.706 0 005.67-1.586 3.833 3.833 0 01-3.577-2.66c.6.114 1.191.08 1.729-.066-1.842-.37-3.113-2.029-3.072-3.803a3.81 3.81 0 001.734.48A3.837 3.837 0 016.547 7.7a10.874 10.874 0 007.894 4.002C13.882 9.306 15.701 7 18.173 7c1.1 0 2.097.464 2.794 1.21a7.68 7.68 0 002.434-.929A3.846 3.846 0 0121.718 9.4a7.674 7.674 0 002.199-.603 7.77 7.77 0 01-1.913 1.98z" fill="#FAFAFA"/></svg>