<svg width="28" height="28" fill="none" xmlns="http://www.w3.org/2000/svg"><path fill-rule="evenodd" clip-rule="evenodd" d="M22.167 28H5.833A5.834 5.834 0 010 22.167V5.833A5.834 5.834 0 015.833 0h16.334A5.833 5.833 0 0128 5.833v16.334A5.833 5.833 0 0122.167 28zm-.94-20.756c-.49-.45-2.467-1.885-6.869-1.905 0 0-5.193-.313-7.723 2.009-1.408 1.409-1.904 3.47-1.957 6.027-.052 2.557-.12 7.347 4.498 8.646l.005.001-.003 1.982s-.029.803.498.966c.64.199 1.015-.412 1.626-1.069.334-.36.796-.89 1.145-1.296 3.158.265 5.587-.341 5.864-.431.638-.208 4.245-.67 4.832-5.46.606-4.939-.293-8.062-1.917-9.47zm.534 9.114c-.496 4-3.422 4.252-3.961 4.425-.23.073-2.364.604-5.046.43 0 0-2 2.41-2.624 3.038-.097.098-.211.138-.288.12-.107-.027-.138-.154-.135-.34l.016-3.295c-3.906-1.085-3.679-5.162-3.634-7.297.044-2.135.446-3.885 1.637-5.061 2.14-1.94 6.55-1.65 6.55-1.65 3.724.017 5.51 1.139 5.924 1.514 1.373 1.176 2.073 3.992 1.56 8.116zm-7.03.24s.35.03.538-.203l.368-.462c.177-.229.605-.376 1.024-.142.554.313 1.272.805 1.763 1.263.27.229.334.565.15.92l-.003.007c-.189.336-.443.65-.764.941l-.007.006c-.36.301-.776.476-1.22.331l-.009-.011c-.797-.226-2.709-1.2-3.928-2.173-1.994-1.573-3.41-4.168-3.803-5.559l-.012-.008c-.144-.446.032-.861.332-1.22l.005-.007c.293-.321.607-.574.942-.764l.007-.002c.354-.185.69-.122.92.149.3.311.866 1.059 1.263 1.762.233.42.087.847-.143 1.025l-.462.367c-.233.188-.203.538-.203.538s.684 2.589 3.242 3.242zm4.027-2.146a.249.249 0 00.247-.251c-.013-1.638-.514-2.953-1.491-3.906-.974-.95-2.201-1.437-3.647-1.447h-.001a.25.25 0 00-.002.498c1.312.01 2.424.448 3.302 1.306.879.856 1.33 2.052 1.34 3.553a.248.248 0 00.25.246h.002zm-1.31-.511h-.006a.248.248 0 01-.243-.255c.019-.851-.224-1.54-.743-2.107-.517-.565-1.226-.874-2.17-.943a.249.249 0 01.036-.496c1.062.078 1.903.449 2.501 1.103.601.656.895 1.482.873 2.454a.248.248 0 01-.248.244zm-1.278-.429a.25.25 0 01-.249-.237c-.041-.844-.44-1.258-1.252-1.302a.25.25 0 01.026-.497c1.072.058 1.669.671 1.724 1.775a.248.248 0 01-.236.261h-.013z" fill="#FAFAFA"/></svg>