<svg width="28" height="28" fill="none" xmlns="http://www.w3.org/2000/svg"><path d="M22.167 0H5.833A5.834 5.834 0 000 5.833v16.334A5.834 5.834 0 005.833 28h16.334A5.833 5.833 0 0028 22.167V5.833A5.833 5.833 0 0022.167 0zm.291 19.829h-2.49c-1.405 0-1.643-.802-2.8-1.96-1.047-1.046-1.628-.243-1.603 1.247.007.395-.188.713-.66.713-1.475 0-3.594.207-5.739-2.107-2.196-2.372-4.5-7.13-4.5-7.599 0-.276.23-.401.612-.401H7.81c.67 0 .727.331.913.757.778 1.775 2.643 5.336 3.138 3.348.285-1.14.402-3.786-.82-4.013-.693-.128.528-.87 2.296-.87.44 0 .917.047 1.406.16.897.208.9.61.888 1.197-.046 2.22-.314 3.714.272 4.091.559.362 2.029-2.003 2.803-3.828.214-.505.256-.842.857-.842h3.096c1.622 0-.212 2.33-1.613 4.15-1.13 1.464-1.07 1.493.243 2.711.937.868 2.042 2.053 2.042 2.725.002.318-.245.52-.873.52z" fill="#FAFAFA"/></svg>