<svg width="28" height="28" fill="none" xmlns="http://www.w3.org/2000/svg"><path d="M10.825 15.773H9.73v5.865H8.67v-5.865H7.575v-.996h3.253v.996h-.002zm6.295 2.008v2.807c0 .627-.234 1.113-.859 1.113-.345 0-.631-.126-.895-.453v.389h-.948v-6.86h.948v2.208c.214-.258.5-.472.838-.472.688 0 .916.582.916 1.268zm-.969.057c0-.17-.031-.3-.1-.388-.114-.15-.325-.167-.49-.083l-.195.154v3.153l.222.179c.154.077.378.083.482-.053.053-.07.08-.187.08-.348v-2.614h.001zm-2.738-6.835c.267 0 .413-.214.413-.503V8.028c0-.298-.13-.507-.433-.507-.276 0-.412.216-.412.507V10.5c.002.28.16.503.432.503zm-.855 9.415c-.115.143-.37.379-.554.379-.2 0-.251-.138-.251-.34v-3.88h-.94v4.23c0 1.027.697 1.033 1.204.742a2.08 2.08 0 00.541-.47v.56h.941v-5.062h-.941v3.84zM28 5.833v16.334A5.833 5.833 0 0122.167 28H5.833A5.834 5.834 0 010 22.167V5.833A5.834 5.834 0 015.833 0h16.334A5.833 5.833 0 0128 5.833zm-12.327 5.165c0 .525.16.949.69.949.3 0 .713-.155 1.143-.664v.587h.988V6.557h-.988v4.033c-.122.15-.389.398-.581.398-.213 0-.264-.145-.264-.358V6.556h-.988v4.441zM11.966 7.94v2.606c0 .936.49 1.423 1.447 1.423.796 0 1.421-.532 1.421-1.423V7.94c0-.832-.62-1.428-1.42-1.428-.87 0-1.447.576-1.447 1.428zm-3.68-3.273L9.61 8.948v2.922h1.112V8.948l1.295-4.281h-1.13l-.714 2.879-.767-2.88h-1.12zm13.491 13.611c-.016-3.474-.27-4.802-2.463-4.952-2.023-.138-8.606-.138-10.627 0-2.189.149-2.448 1.472-2.463 4.952.016 3.475.272 4.803 2.463 4.953 2.02.137 8.604.137 10.627 0 2.19-.15 2.447-1.473 2.463-4.953zm-1.18-.34v1.288h-1.799v.954c0 .379.032.708.411.708.397 0 .42-.267.42-.708v-.351h.968v.38c0 .975-.417 1.566-1.409 1.566-.9 0-1.358-.655-1.358-1.566v-2.271c0-.879.58-1.488 1.43-1.488.901-.001 1.337.573 1.337 1.488zm-.968-.01c0-.342-.072-.593-.412-.593-.348 0-.418.245-.418.593v.512h.83v-.512z" fill="#FAFAFA"/></svg>