<svg id="_1_Онлайн-тест" data-name="1 Онлайн-тест" xmlns="http://www.w3.org/2000/svg" viewBox="0 0 145 145"><defs><style>.cls-1,.cls-7{fill:none;stroke-linecap:round;}.cls-1{stroke:#007b64;stroke-miterlimit:10;stroke-width:2px;}.cls-2{fill:#fff;}.cls-3{fill:#ebebeb;}.cls-4{fill:#ffc463;}.cls-5{fill:#c4c4c4;}.cls-6{fill:#007b64;}.cls-7{stroke:#ebebeb;stroke-linejoin:round;stroke-width:1.64px;}</style></defs><title>1 Онлайн-тест</title><line class="cls-1" x1="5.43" y1="139.03" x2="140.43" y2="139.08"/><path class="cls-2" d="M59.35,126.52l73.06,0a1,1,0,0,1,1,1h0a11.44,11.44,0,0,1-11.39,11.49l-98.28,0a11.44,11.44,0,0,1-11.37-11.5h0a1,1,0,0,1,1-1l38.48,0"/><rect class="cls-2" x="23" y="47" width="100" height="79" rx="6.97"/><path class="cls-3" d="M63.36,126.52s7.52-11.61,26.25-12.12c19.16-.53,12-13.12,32.73-16.24l1,2.09V116.1s1,9.4-6.21,10.44S63.36,126.52,63.36,126.52Z"/><path class="cls-1" d="M22.76,119.34l0-65.1a7.15,7.15,0,0,1,7.1-7.16l80.06,0"/><path class="cls-1" d="M106.46,47.12H116a7.15,7.15,0,0,1,7.09,7.17l0,65.09a7.13,7.13,0,0,1-1.47,4.35,7.06,7.06,0,0,1-5.62,2.81h-7.5"/><path class="cls-1" d="M59.35,126.52l73.06,0a1,1,0,0,1,1,1h0a11.44,11.44,0,0,1-11.39,11.49l-98.28,0a11.44,11.44,0,0,1-11.37-11.5h0a1,1,0,0,1,1-1l38.48,0"/><line class="cls-1" x1="31.27" y1="57.54" x2="114.03" y2="57.57"/><rect class="cls-4" x="90.98" y="51.64" width="20.69" height="1.88" rx="0.94"/><rect class="cls-5" x="32.93" y="51.25" width="2.59" height="2.61" rx="1.29"/><rect class="cls-5" x="36.81" y="51.25" width="2.59" height="2.61" rx="1.29"/><rect class="cls-5" x="40.69" y="51.25" width="2.59" height="2.61" rx="1.29"/><rect class="cls-4" x="32.28" y="69.05" width="76.55" height="14.63" rx="3.03"/><rect class="cls-6" x="32.28" y="89.31" width="7.98" height="8.06" rx="1.87"/><rect class="cls-6" x="32.28" y="101.55" width="7.98" height="8.06" rx="1.87"/><rect class="cls-6" x="59.55" y="101.55" width="7.98" height="8.06" rx="1.87"/><rect class="cls-6" x="59.55" y="89.31" width="7.98" height="8.06" rx="1.87"/><path class="cls-4" d="M86.08,96.53l1.22,7.56a.78.78,0,0,0,1.24.51l5.49-4a.79.79,0,0,0-.09-1.33l-6.71-3.58A.79.79,0,0,0,86.08,96.53Z"/><polyline class="cls-7" points="67.62 90.41 63.55 95.69 61.23 93.34"/></svg>