<svg xmlns="http://www.w3.org/2000/svg" xmlns:xlink="http://www.w3.org/1999/xlink" viewBox="0 0 145 145"><defs><style>.cls-1,.cls-10,.cls-2,.cls-7,.cls-8{fill:none;}.cls-10,.cls-11,.cls-2,.cls-7,.cls-8,.cls-9{stroke:#007b64;}.cls-10,.cls-11,.cls-2,.cls-7{stroke-linecap:round;}.cls-2{stroke-linejoin:round;}.cls-11,.cls-2,.cls-7,.cls-8,.cls-9{stroke-width:2px;}.cls-3{clip-path:url(#clip-path);}.cls-11,.cls-4,.cls-9{fill:#fff;}.cls-5{fill:#ebebeb;}.cls-6{fill:#ffc463;}.cls-10,.cls-11,.cls-7,.cls-8,.cls-9{stroke-miterlimit:10;}.cls-10{stroke-width:2.13px;}</style><clipPath id="clip-path"><circle class="cls-1" cx="71.55" cy="89.16" r="36.41"/></clipPath></defs><title>11 Организации</title><g id="_11_Организации" data-name="11 Организации"><line class="cls-2" x1="126.61" y1="137.18" x2="28.18" y2="137.18"/><line class="cls-2" x1="23.25" y1="137.18" x2="11.25" y2="137.18"/><line class="cls-2" x1="142.15" y1="137.18" x2="133.96" y2="137.18"/><g class="cls-3"><circle class="cls-4" cx="71.55" cy="89.16" r="36.41"/><path class="cls-5" d="M92.65,108.38a11.12,11.12,0,0,1-3.25,6.76c-1.82,1.82-1.54,9.26-2.57,10.8l1.09.47,3.41-.47,1-.51,1-2.06.13-4.11.23-5.35L93.33,111Z"/><path class="cls-6" d="M70.15,102.64H73.3a.44.44,0,0,1,.42.35l2,10.09a.41.41,0,0,1-.11.38L72,117.23a.42.42,0,0,1-.62,0l-3.6-3.77a.41.41,0,0,1-.11-.38l2-10.09A.44.44,0,0,1,70.15,102.64Z"/><path class="cls-6" d="M73.68,103H69.77a.29.29,0,0,1-.28-.24L69,99.89a.28.28,0,0,1,.4-.3l2.2,1a.28.28,0,0,0,.25,0l2.2-1a.28.28,0,0,1,.4.3L74,102.8A.3.3,0,0,1,73.68,103Z"/><path class="cls-2" d="M49.29,117.42c0-.6.09-3.73.16-4.31a25.44,25.44,0,0,1,.58-3.24c1.67-6.7,6-11.48,13.52-11.71a1.29,1.29,0,0,1,.69.17,16.88,16.88,0,0,0,7.68,1.9,13,13,0,0,0,6.92-1.84,1.35,1.35,0,0,1,.78-.23c9.82.34,14.24,8.53,14.24,18.58v4.57a5.1,5.1,0,0,1-5.1,5.1H54.34a5.1,5.1,0,0,1-5.1-5.1h0v-1.75"/><line class="cls-7" x1="57.89" y1="117.49" x2="57.89" y2="126.41"/><line class="cls-7" x1="85.4" y1="117.49" x2="85.4" y2="126.41"/><path class="cls-5" d="M85.08,77.28s-.9,0-1.85,2.87c-.51,1.54-3.6,6.68-6.17,7.71-3.86,1.55-4.4,6.67-4.62,7.2-.4,1,2.57,0,2.57,0l1.88-.85,2.4-1.31,2.87-2.61,1.47-2.18,1.14-2.31.52-4.11Z"/><path class="cls-2" d="M82.17,72.77a13.56,13.56,0,0,1,1,1.33,12.67,12.67,0,0,1,.81,1.44,13.7,13.7,0,1,1-8.15-7.11,13.85,13.85,0,0,1,2,.84c.31.16.61.33.91.51"/></g><circle class="cls-8" cx="71.55" cy="89.16" r="36.41"/><circle class="cls-9" cx="19.45" cy="88.99" r="5.34"/><circle class="cls-9" cx="112.41" cy="124.25" r="4.38"/><circle class="cls-9" cx="128.71" cy="89.16" r="10.59"/><circle class="cls-9" cx="35.32" cy="47.67" r="8.35"/><circle class="cls-9" cx="32.42" cy="123.04" r="5.89"/><line class="cls-10" x1="40.84" y1="53.92" x2="44.74" y2="58.15"/><path class="cls-11" d="M109.72,44.52a8.39,8.39,0,1,1-2.49-8.65,8.19,8.19,0,0,1,1.61,1.93"/><line class="cls-8" x1="96.77" y1="48.91" x2="89.93" y2="58.05"/><line class="cls-8" x1="24.52" y1="89.01" x2="35.16" y2="89.01"/><line class="cls-8" x1="108.6" y1="121.04" x2="99.02" y2="112.43"/><line class="cls-7" x1="37.39" y1="119.88" x2="40.48" y2="117.75"/><line class="cls-7" x1="118.15" y1="89.89" x2="112.22" y2="89.89"/></g></svg>