<svg xmlns="http://www.w3.org/2000/svg" viewBox="0 0 145 145"><defs><style>.cls-1,.cls-3{fill:none;}.cls-1,.cls-3,.cls-6{stroke:#007b64;stroke-linecap:round;stroke-linejoin:round;}.cls-1,.cls-6{stroke-width:2px;}.cls-2{fill:#ebebeb;}.cls-3{stroke-width:1.9px;}.cls-4,.cls-6{fill:#fff;}.cls-5{fill:#f1f1f1;}.cls-7{fill:#007b64;}.cls-8{fill:#ffc463;}</style></defs><title>2 Постановка на учет</title><g id="_2_Постановка_на_учет" data-name="2 Постановка на учет"><line class="cls-1" x1="7.07" y1="139.17" x2="16.84" y2="139.17"/><line class="cls-1" x1="20.88" y1="139.17" x2="128.27" y2="139.17"/><line class="cls-1" x1="132.31" y1="139.17" x2="142.07" y2="139.17"/><path class="cls-2" d="M37,55s1.36,8.33,3,18c1.2,7.11-2.07,17.49-5.36,19.67l-3-31v-3L33,56.8"/><path class="cls-3" d="M48.41,138.58l-1.67.19a6.17,6.17,0,0,1-6.85-5.4L31.5,61.6a6.16,6.16,0,0,1,5.4-6.84"/><path class="cls-2" d="M43.64,93.67s6,4,9,24,6,21,8,21l-10.88.4-3.16-1.53-1.9-2.87-2.06-41Z"/><path class="cls-1" d="M55.68,139l-4.46.19a6.58,6.58,0,0,1-6.85-6.29l-3.29-77a6.57,6.57,0,0,1,6.29-6.85"/><path class="cls-4" d="M117.7,61.93v71.24a6,6,0,0,1-6,6h-54a6,6,0,0,1-6-6v-84a6,6,0,0,1,6-6h42.51l17.49,18.5"/><path class="cls-5" d="M51.64,130.67h66a0,0,0,0,1,0,0v1a7,7,0,0,1-7,7h-52a7,7,0,0,1-7-7v-1A0,0,0,0,1,51.64,130.67Z"/><path class="cls-1" d="M117.7,61.93v71.24a6,6,0,0,1-6,6h-54a6,6,0,0,1-6-6v-84a6,6,0,0,1,6-6H99.78a1,1,0,0,1,.72.32l17.2,18.18"/><path class="cls-1" d="M109.7,61.67h-5a6,6,0,0,1-6-6v-5"/><line class="cls-6" x1="64.7" y1="99.92" x2="106.7" y2="99.92"/><circle class="cls-7" cx="60.7" cy="99.92" r="0.95"/><line class="cls-6" x1="64.7" y1="106.56" x2="106.7" y2="106.56"/><circle class="cls-7" cx="60.7" cy="106.56" r="0.95"/><line class="cls-6" x1="64.7" y1="113.19" x2="106.7" y2="113.19"/><circle class="cls-7" cx="60.7" cy="113.19" r="0.95"/><line class="cls-6" x1="64.7" y1="119.82" x2="106.7" y2="119.82"/><circle class="cls-7" cx="60.7" cy="119.82" r="0.95"/><rect class="cls-8" x="59.7" y="60.67" width="26" height="31" rx="3"/></g></svg>