<svg xmlns="http://www.w3.org/2000/svg" viewBox="0 0 145 145"><defs><style>.cls-1,.cls-4{fill:none;}.cls-1,.cls-4,.cls-6{stroke:#007b64;stroke-linecap:round;stroke-linejoin:round;}.cls-1,.cls-6{stroke-width:2px;}.cls-2,.cls-6{fill:#fff;}.cls-3{fill:#ebebeb;}.cls-4{stroke-width:2.09px;}.cls-5{fill:#ffc463;}</style></defs><title>20 База данных контролирующих (надзорных) органов</title><g id="_20_База_данных_контролирующих_надзорных_органов" data-name="20 База данных контролирующих (надзорных) органов"><line class="cls-1" x1="5.4" y1="139.07" x2="16.34" y2="139.07"/><line class="cls-1" x1="19.46" y1="139.07" x2="128.83" y2="139.07"/><line class="cls-1" x1="135.43" y1="139.07" x2="140.4" y2="139.07"/><rect class="cls-2" x="58.46" y="49.91" width="51.31" height="76.13" rx="5.21"/><path class="cls-3" d="M99.58,49.91s1,12.51,5.21,15.64c3,2.26,4.74,10.8,5,11.66s-.66-24.63-.66-24.63l-1.73-1.84-6.58-1.32Z"/><path class="cls-1" d="M109.77,89.54v31.28a5.22,5.22,0,0,1-5.22,5.22H63.67a5.22,5.22,0,0,1-5.21-5.22V55.12a5.21,5.21,0,0,1,5.21-5.21h40.88a5.22,5.22,0,0,1,5.22,5.21v31.2"/><rect class="cls-2" x="36.14" y="40" width="64.66" height="95.95" rx="5.21"/><path class="cls-4" d="M100.8,92.21v38.52A5.22,5.22,0,0,1,95.58,136H41.35a5.22,5.22,0,0,1-5.21-5.22V45.21A5.21,5.21,0,0,1,41.35,40H95.58a5.22,5.22,0,0,1,5.22,5.21V84.86"/><rect class="cls-5" x="44.48" y="47.82" width="47.97" height="13.56" rx="2.09"/><line class="cls-6" x1="45.63" y1="67.9" x2="89.43" y2="67.9"/><line class="cls-6" x1="45.63" y1="74.81" x2="83.17" y2="74.81"/><line class="cls-6" x1="45.63" y1="81.73" x2="72.75" y2="81.73"/><path class="cls-2" d="M113.57,139.07H32.23a4.17,4.17,0,0,1-4.17-4.17V85.37a4.18,4.18,0,0,1,4.17-4.18h26.3l9.94,8.35h45.1a4.17,4.17,0,0,1,4.18,4.17V134.9A4.17,4.17,0,0,1,113.57,139.07Z"/><path class="cls-3" d="M73.5,138.55s7.3-9.38,17.73-10.43c4.59-.46,7.3,0,11.47-2.08,4-2,8.18-8.8,14.61-9.39v17.73l-.45,3.09-2.18,1.45Z"/><path class="cls-1" d="M113.57,139.07H32.23a4.17,4.17,0,0,1-4.17-4.17V85.37a4.18,4.18,0,0,1,4.17-4.18h26.3l9.94,8.35h45.1a4.17,4.17,0,0,1,4.18,4.17V134.9A4.17,4.17,0,0,1,113.57,139.07Z"/><rect class="cls-5" x="34.05" y="127.99" width="26.07" height="5.21" rx="1.04"/></g></svg>