<svg xmlns="http://www.w3.org/2000/svg" viewBox="0 0 145 145"><defs><style>.cls-1,.cls-5{fill:none;}.cls-1,.cls-5,.cls-6{stroke:#007b64;stroke-width:2px;}.cls-1,.cls-6{stroke-linecap:round;stroke-linejoin:round;}.cls-2,.cls-6{fill:#fff;}.cls-3{fill:#ebebeb;}.cls-4{fill:#ffc463;}.cls-5{stroke-miterlimit:10;}</style></defs><title>21 Реестр коммерческих организаций и индивидуальных предпринимателей с повышенным риском совершения </title><g id="_21_Реестр_коммерческих_организаций_и_индивидуальных_предпринимателей_с_повышенным_риском_совершения_нарушений_в_экономической_сфере" data-name="21 Реестр коммерческих организаций и индивидуальных предпринимателей с повышенным риском совершения нарушений в экономической сфере"><line class="cls-1" x1="19.44" y1="139.03" x2="134.87" y2="139.03"/><line class="cls-1" x1="-0.13" y1="139.03" x2="9.91" y2="139.03"/><path class="cls-2" d="M108.75,105.94l.71-.18V44.65A4.66,4.66,0,0,0,104.8,40H91.39a3.26,3.26,0,0,0-.45,0h-.18l0,0A4.59,4.59,0,0,0,87.62,42h0v0a4.61,4.61,0,0,0-.87,2.68A4.65,4.65,0,0,0,82.08,40H68.66a4.49,4.49,0,0,0-2,.46h0l0,0a4.56,4.56,0,0,0-1.45,1.12l-.08.06-.08.14a4.45,4.45,0,0,0-.52.83l0,.09v0A4.61,4.61,0,0,0,64,44.65,4.65,4.65,0,0,0,59.36,40H45.94a4.64,4.64,0,0,0-2.41.69h0l0,0a4.38,4.38,0,0,0-1.29,1.21l0,0h0a4.66,4.66,0,0,0-.85,2.67v61.11l.71.18H32V139h86.79V105.94ZM64,111.29l22.72.1,2.74-.68-.75.68H61.49l-1-1Z"/><path class="cls-3" d="M55.15,40S50,48.41,49.81,57.35,41.29,86.7,41.29,86.7V44.65L42.15,42l1.34-1.27,2.45-.7Z"/><path class="cls-3" d="M74.29,41a42.2,42.2,0,0,0-2.16,13c.08,6.73-7.73,13.62-8.12,13.39V45.43l.42-2.69.65-1.06,1.58-1.22L71.59,40h3.09Z"/><path class="cls-3" d="M97.58,40a24.31,24.31,0,0,1-2.24,14c-3.56,7.2-.73,11.68-8.61,19V44.65L87.6,42l3.16-1.9Z"/><path class="cls-1" d="M41.29,105.76V44.65A4.65,4.65,0,0,1,45.94,40H59.36A4.65,4.65,0,0,1,64,44.65v66.64"/><rect class="cls-4" x="45.83" y="46.38" width="13.63" height="43.63" rx="2.73"/><path class="cls-1" d="M46.29,105.76a6.36,6.36,0,1,1,12.13,2.68"/><path class="cls-1" d="M86.73,111.39V44.65A4.66,4.66,0,0,1,91.39,40H104.8a4.66,4.66,0,0,1,4.66,4.65v61.11"/><rect class="cls-4" x="91.28" y="46.38" width="13.63" height="43.63" rx="2.73"/><path class="cls-1" d="M92.23,108.24a6.37,6.37,0,1,1,12.23-2.48"/><path class="cls-5" d="M64,111.29V44.65A4.65,4.65,0,0,1,68.66,40H82.08a4.65,4.65,0,0,1,4.65,4.65v66.74"/><rect class="cls-4" x="68.56" y="46.38" width="13.63" height="43.63" rx="2.73"/><path class="cls-6" d="M72.28,111.32a6.21,6.21,0,0,1-3-3.66,6.29,6.29,0,0,1-.29-1.9,6.37,6.37,0,1,1,9.76,5.38"/><path class="cls-3" d="M78.36,139s8.63-8.79,19.46-7.58,20.17-.65,21-7.73V139Z"/><polyline class="cls-1" points="41.25 105.94 41.41 105.94 55.82 105.94 61.49 111.39 88.72 111.39 94.81 105.94 118.77 105.94 118.77 139.03 31.98 139.03 31.98 105.94 35.18 105.94"/><path class="cls-1" d="M110.89,119.06a2.69,2.69,0,0,1,.36,1.34v8.32a2.73,2.73,0,0,1-2.73,2.73H42.65a2.73,2.73,0,0,1-2.73-2.73V120.4a2.72,2.72,0,0,1,2.73-2.72H105"/></g></svg>