<svg xmlns="http://www.w3.org/2000/svg" viewBox="0 0 145 145"><defs><style>.cls-1,.cls-4,.cls-5{fill:none;stroke-miterlimit:10;stroke-width:2px;}.cls-1,.cls-5{stroke:#007b64;}.cls-1{stroke-linecap:round;}.cls-2{fill:#fff;}.cls-3{fill:#ebebeb;}.cls-4{stroke:#fabf6b;}.cls-6{fill:#ffc463;}</style></defs><title>22 Заявка на доступ к личному кабинету</title><g id="_22_Заявка_на_доступ_к_личному_кабинету" data-name="22 Заявка на доступ к личному кабинету"><line class="cls-1" x1="0.71" y1="139" x2="135.71" y2="139"/><polygon class="cls-2" points="23 134 23 83 50 58 85 58 112 81 113 84 113 136 111 139 25 139 23 136 23 134"/><polyline class="cls-2" points="55.46 108.88 23.3 83.44 26.02 79.92 61 51 77 51 112.18 81.69 113.31 84.11 113.44 134.73 111 138.13 25.96 138.57"/><path class="cls-3" d="M73.15,101.17a19.56,19.56,0,0,1,12.79-7.32c8.79-1.37,14.83-12.07,14.83-12.74V93.18L80.94,108.87Z"/><path class="cls-3" d="M61.4,139s17.7-20.46,32.35-19.27,19.76-13.18,19.76-14.52l-.07,29.52-1.68,3L109.34,139Z"/><path class="cls-1" d="M104.07,74.58l7,5.92a6.84,6.84,0,0,1,2.43,5.23V133.9a5.1,5.1,0,0,1-5.1,5.1H28a5.1,5.1,0,0,1-5.11-5.1V85.73a6.84,6.84,0,0,1,2.43-5.23l6.91-5.83"/><path class="cls-2" d="M36.08,93.54v-48A5.55,5.55,0,0,1,41.63,40H95.22a5.55,5.55,0,0,1,5.55,5.55v48.3"/><path class="cls-4" d="M36.08,93.54v-48A5.55,5.55,0,0,1,41.63,40H95.22a5.55,5.55,0,0,1,5.55,5.55v48.3"/><path class="cls-5" d="M109.34,139H27.08a1.66,1.66,0,0,1-1.14-2.86l41.13-38a1.65,1.65,0,0,1,2.28,0l41.13,38A1.66,1.66,0,0,1,109.34,139Z"/><line class="cls-5" x1="55.46" y1="108.87" x2="23.3" y2="83.43"/><line class="cls-5" x1="80.94" y1="108.87" x2="113.1" y2="83.43"/><path class="cls-6" d="M60.79,64.15c0-.21,0-.41.05-.61a9.5,9.5,0,0,1,.2-1.11,4.77,4.77,0,0,1,4.64-4,.53.53,0,0,1,.24.06,5.81,5.81,0,0,0,2.63.65,4.52,4.52,0,0,0,2.38-.63.5.5,0,0,1,.26-.08c3.37.12,4.89,2.93,4.89,6.38v1.56a1.75,1.75,0,0,1-1.75,1.75H62.52a1.75,1.75,0,0,1-1.75-1.75h0v-.6"/><path class="cls-6" d="M72.07,50.07a3.72,3.72,0,0,1,.33.45c.1.16.19.32.28.5a4.68,4.68,0,0,1,.47,2,4.92,4.92,0,0,1-.21,1.39,4.72,4.72,0,1,1-3.06-5.88,4.19,4.19,0,0,1,.69.29,3.07,3.07,0,0,1,.31.17"/><line class="cls-1" x1="49.39" y1="76.02" x2="87.46" y2="76.02"/><line class="cls-1" x1="49.39" y1="81.11" x2="87.46" y2="81.11"/><line class="cls-1" x1="49.39" y1="86.19" x2="87.46" y2="86.19"/></g></svg>