<svg xmlns="http://www.w3.org/2000/svg" viewBox="0 0 145 145"><defs><style>.cls-1,.cls-3,.cls-9{fill:none;stroke-miterlimit:10;stroke-width:2px;}.cls-1,.cls-3{stroke:#007b64;}.cls-1,.cls-9{stroke-linecap:round;}.cls-2{fill:#007b64;}.cls-4{fill:#fff;}.cls-5{fill:#ebebeb;}.cls-6{fill:#ffc463;}.cls-7{fill:#c4c4c4;}.cls-8{fill:#fabf6b;}.cls-9{stroke:#fabf6b;}</style></defs><title>23 Система контроля торговых автоматов</title><g id="_23_Система_контроля_торговых_автоматов" data-name="23 Система контроля торговых автоматов"><line class="cls-1" x1="143.6" y1="134.39" x2="8.6" y2="134.55"/><path class="cls-2" d="M124,124.38h12.6a5.35,5.35,0,0,1,5.35,5.35v5a0,0,0,0,1,0,0H118.68a0,0,0,0,1,0,0v-5A5.35,5.35,0,0,1,124,124.38Z"/><line class="cls-3" x1="130.33" y1="125.13" x2="130.33" y2="102.67"/><circle class="cls-2" cx="130.33" cy="100.86" r="5.09"/><rect class="cls-4" x="18" y="48" width="107.5" height="86" rx="6.98"/><path class="cls-5" d="M18,123.92H126a0,0,0,0,1,0,0v2.47a8,8,0,0,1-8,8H26a8,8,0,0,1-8-8v-2.47A0,0,0,0,1,18,123.92Z"/><line class="cls-1" x1="27.03" y1="60.04" x2="116.97" y2="60.14"/><rect class="cls-6" x="91.93" y="53.76" width="22.48" height="2.02" rx="1.01" transform="translate(0.06 -0.12) rotate(0.07)"/><rect class="cls-7" x="28.84" y="53.28" width="2.81" height="2.81" rx="1.41" transform="translate(0.06 -0.03) rotate(0.07)"/><rect class="cls-7" x="33.06" y="53.29" width="2.81" height="2.81" rx="1.41" transform="translate(0.06 -0.04) rotate(0.07)"/><rect class="cls-7" x="37.27" y="53.29" width="2.81" height="2.81" rx="1.41" transform="translate(0.06 -0.04) rotate(0.07)"/><path class="cls-1" d="M18,66.84V55.69a7.56,7.56,0,0,1,7.56-7.56h92.88A7.56,7.56,0,0,1,126,55.69V127a7.55,7.55,0,0,1-7.56,7.56H25.56A7.55,7.55,0,0,1,18,127V77.73"/><rect class="cls-8" x="80.39" y="90.62" width="29.87" height="20.88" rx="2.52"/><path class="cls-9" d="M85.06,92v-4.7A10.27,10.27,0,0,1,95.33,77.07h0a10.27,10.27,0,0,1,10.19,9c0,.15,0,.3,0,.45"/><path class="cls-9" d="M89.32,92V87.83a6,6,0,0,1,6-6h0a6,6,0,0,1,5.37,3.33,5.84,5.84,0,0,1,.53,1.59"/><line class="cls-1" x1="33.74" y1="90.25" x2="62.96" y2="90.25"/><line class="cls-1" x1="33.74" y1="96.44" x2="62.96" y2="96.44"/><line class="cls-1" x1="33.74" y1="102.64" x2="62.96" y2="102.64"/></g></svg>