<svg xmlns="http://www.w3.org/2000/svg" viewBox="0 0 145 145"><defs><style>.cls-1{fill:none;stroke-linecap:round;}.cls-1,.cls-6{stroke:#007b64;stroke-miterlimit:10;stroke-width:2px;}.cls-2,.cls-6{fill:#fff;}.cls-3{fill:#ebebeb;}.cls-4{fill:#ffc463;}.cls-5{fill:#c4c4c4;}</style></defs><title>24 Поиск заявления в базе данных МНС Республики Беларусь (ЕАЭС)</title><g id="_24_Поиск_заявления_в_базе_данных_МНС_Республики_Беларусь_ЕАЭС_" data-name="24 Поиск заявления в базе данных МНС Республики Беларусь (ЕАЭС)"><line class="cls-1" x1="1.54" y1="139.19" x2="136.54" y2="139.34"/><path class="cls-2" d="M94.61,126.78l40.65.08a1,1,0,0,1,1,1h0a11.48,11.48,0,0,1-11.5,11.48l-99.21-.1a11.5,11.5,0,0,1-11.48-11.5h0a1,1,0,0,1,1.05-1l72,0"/><path class="cls-3" d="M105.89,139.34s2.94-12.34,5.75-12.61H136s1.56,6.73-7.76,12.36Z"/><rect class="cls-2" x="24.5" y="48" width="101.5" height="79" rx="7"/><path class="cls-1" d="M24.63,66.67V54.53a7.18,7.18,0,0,1,7.17-7.15l80.83.08"/><line class="cls-1" x1="24.57" y1="126.61" x2="24.58" y2="116.28"/><path class="cls-1" d="M109.11,47.46h9.68a7.18,7.18,0,0,1,7.15,7.16l-.07,65.06a7.18,7.18,0,0,1-7.17,7.15h-7.57"/><path class="cls-1" d="M94.61,126.78l40.65.08a1,1,0,0,1,1,1h0a11.48,11.48,0,0,1-11.5,11.48l-99.21-.1a11.5,11.5,0,0,1-11.48-11.5h0a1,1,0,0,1,1.05-1l72,0"/><line class="cls-1" x1="33.2" y1="57.82" x2="116.75" y2="57.91"/><rect class="cls-4" x="93.48" y="51.98" width="20.89" height="1.88" rx="0.94" transform="translate(0.05 -0.11) rotate(0.06)"/><rect class="cls-5" x="34.88" y="51.54" width="2.61" height="2.61" rx="1.31" transform="translate(0.05 -0.04) rotate(0.06)"/><rect class="cls-5" x="38.8" y="51.55" width="2.61" height="2.61" rx="1.31" transform="translate(0.05 -0.04) rotate(0.06)"/><rect class="cls-5" x="42.71" y="51.55" width="2.61" height="2.61" rx="1.31" transform="translate(0.05 -0.05) rotate(0.06)"/><rect class="cls-6" x="13.28" y="94.63" width="6.95" height="35.64" rx="1.62" transform="translate(-56.28 199.57) rotate(-131.55)"/><circle class="cls-4" cx="43.63" cy="88.64" r="22.6"/><circle class="cls-2" cx="43.63" cy="88.64" r="17.82"/><path class="cls-3" d="M39.31,98.86c-5.38,1.49-11.15-1.55-11.15-1.55a17.84,17.84,0,0,0,29.29,2.75h0C54.25,95.8,48,95.81,39.31,98.86Z"/><line class="cls-1" x1="102.52" y1="78.46" x2="112.34" y2="78.46"/><line class="cls-1" x1="88.25" y1="84.4" x2="112.34" y2="84.4"/><line class="cls-1" x1="81.01" y1="90.34" x2="112.34" y2="90.34"/><line class="cls-1" x1="78.26" y1="96.27" x2="112.34" y2="96.27"/><line class="cls-1" x1="78.26" y1="102.21" x2="112.34" y2="102.21"/></g></svg>