<svg xmlns="http://www.w3.org/2000/svg" viewBox="0 0 145 145"><defs><style>.cls-1,.cls-4{fill:none;}.cls-1,.cls-2,.cls-4{stroke:#007b64;stroke-miterlimit:10;stroke-width:2px;}.cls-1{stroke-linecap:round;}.cls-2{fill:#fff;}.cls-3{fill:#ffc463;}</style></defs><title>25 Налоговый калькулятор</title><g id="_25_Налоговый_калькулятор" data-name="25 Налоговый калькулятор"><line class="cls-1" x1="6.76" y1="138.29" x2="141.76" y2="138.29"/><path class="cls-1" d="M110,52.56a19,19,0,0,1,.25,37.54"/><path class="cls-2" d="M99.14,138.29H34.69a6.86,6.86,0,0,1-6.86-6.86V47.86A6.86,6.86,0,0,1,34.69,41H99.14A6.86,6.86,0,0,1,106,47.86v83.57A6.86,6.86,0,0,1,99.14,138.29Z"/><path class="cls-3" d="M95,70.93H38.85a2.69,2.69,0,0,1-2.7-2.69V54.51a2.7,2.7,0,0,1,2.7-2.7H95a2.7,2.7,0,0,1,2.7,2.7V68.24A2.69,2.69,0,0,1,95,70.93Z"/><rect class="cls-4" x="36.25" y="79.25" width="9.98" height="9.98" rx="0.79"/><rect class="cls-4" x="53.35" y="79.25" width="9.98" height="9.98" rx="0.79"/><rect class="cls-4" x="70.44" y="79.25" width="9.98" height="9.98" rx="0.79"/><rect class="cls-4" x="87.53" y="79.25" width="9.98" height="9.98" rx="0.79"/><rect class="cls-4" x="36.25" y="97.54" width="9.98" height="9.98" rx="0.79"/><rect class="cls-4" x="53.35" y="97.54" width="9.98" height="9.98" rx="0.79"/><rect class="cls-4" x="70.44" y="97.54" width="9.98" height="9.98" rx="0.79"/><rect class="cls-4" x="87.53" y="97.54" width="9.98" height="9.98" rx="0.79"/><rect class="cls-4" x="36.25" y="115.84" width="9.98" height="9.98" rx="0.79"/><rect class="cls-4" x="53.35" y="115.84" width="9.98" height="9.98" rx="0.79"/><rect class="cls-4" x="70.44" y="115.84" width="9.98" height="9.98" rx="0.79"/><rect class="cls-4" x="87.53" y="115.84" width="9.98" height="9.98" rx="0.79"/></g></svg>