<svg xmlns="http://www.w3.org/2000/svg" viewBox="0 0 145 145"><defs><style>.cls-1,.cls-4{fill:none;}.cls-1,.cls-4,.cls-5,.cls-7,.cls-8{stroke:#007b64;}.cls-1,.cls-11,.cls-4,.cls-5,.cls-7,.cls-8{stroke-linecap:round;stroke-linejoin:round;}.cls-1{stroke-width:2.09px;}.cls-2,.cls-5,.cls-7,.cls-8{fill:#fff;}.cls-3{fill:#ebebeb;}.cls-4,.cls-5{stroke-width:2px;}.cls-6{fill:#f1f1f1;}.cls-7{stroke-width:1.91px;}.cls-8{stroke-width:1.8px;}.cls-11,.cls-9{fill:#ffc463;}.cls-10{fill:#007b64;}.cls-11{stroke:#ffc463;stroke-width:0.5px;}</style></defs><title>27 Представление нотариусами сообщений о выдаче свидетельств о праве на наследство и об удостоверени</title><g id="_27_Представление_нотариусами_сообщений_о_выдаче_свидетельств_о_праве_на_наследство_и_об_удостоверении_договоров_отчуждения_дарения_мены_купли-продажи_ренты_" data-name="27 Представление нотариусами сообщений о выдаче свидетельств о праве на наследство и об удостоверении договоров отчуждения (дарения, мены, купли-продажи, ренты)"><line class="cls-1" x1="7.48" y1="138.55" x2="127.1" y2="138.55"/><line class="cls-1" x1="131.61" y1="138.55" x2="142.48" y2="138.55"/><rect class="cls-2" x="27.28" y="53.97" width="58.15" height="84.59" rx="6.17"/><path class="cls-3" d="M41.14,54.78s1,9.51-5,16.54c-4.67,5.49-5.86,18.25-9.39,20l.62-31.14.35-3,1.59-1.7,3.15-1.49L41.71,54Z"/><path class="cls-4" d="M27.28,111.66V60.13A6.17,6.17,0,0,1,33.45,54H79.27a6.16,6.16,0,0,1,6.17,6.16v72.26a6.16,6.16,0,0,1-6.17,6.16H33.45a6.17,6.17,0,0,1-6.17-6.16V119.05"/><rect class="cls-5" x="34.49" y="48.37" width="62" height="90.18" rx="6.58"/><path class="cls-3" d="M35.43,92.77s5.82,4.25,8,24.36,5.1,21.24,7.1,21.32l-10.89-.06-3.09-1.67-1.78-2.94-.31-41Z"/><rect class="cls-4" x="34.49" y="48.37" width="62" height="90.18" rx="6.58"/><path class="cls-2" d="M109.48,120.94v11.61a6,6,0,0,1-6,6h-54a6,6,0,0,1-6-6v-84a6,6,0,0,1,6-6H92l17.49,18.5"/><path class="cls-6" d="M43.42,130.05h66a0,0,0,0,1,0,0v1a7,7,0,0,1-7,7h-52a7,7,0,0,1-7-7v-1A0,0,0,0,1,43.42,130.05Z"/><path class="cls-4" d="M109.48,119.71v12.84a6,6,0,0,1-6,6h-54a6,6,0,0,1-6-6v-84a6,6,0,0,1,6-6H91.56a1,1,0,0,1,.73.31l17.19,18.19"/><polyline class="cls-4" points="109.48 81.75 109.48 102.56 109.48 109.19 109.48 114.43"/><polyline class="cls-4" points="109.48 61.31 109.48 70.26 109.48 73.34"/><path class="cls-4" d="M101.48,61.05h-5a6,6,0,0,1-6-6v-5"/><line class="cls-5" x1="52.48" y1="112.75" x2="88.5" y2="112.75"/><line class="cls-7" x1="52.48" y1="105.94" x2="85.5" y2="105.94"/><line class="cls-8" x1="52.48" y1="99.12" x2="81.5" y2="99.12"/><line class="cls-5" x1="52.48" y1="92.3" x2="78.5" y2="92.3"/><line class="cls-5" x1="52.48" y1="119.57" x2="88.5" y2="119.57"/><rect class="cls-9" x="51.48" y="61.56" width="33.02" height="19" rx="2.65"/><path class="cls-10" d="M115.62,118l-5.9-2.24a.63.63,0,0,0-.43,0l-5.9,2.24a.51.51,0,0,1-.25,0,1.37,1.37,0,0,1-1.42-1.18v-15.1c0-.16.19-.29.42-.29h14.73c.23,0,.42.13.42.29v15.1a1.37,1.37,0,0,1-1.42,1.18A.51.51,0,0,1,115.62,118Z"/><circle class="cls-5" cx="109.51" cy="92.23" r="13.67"/><polygon class="cls-11" points="109.5 84.35 112.07 89.54 117.79 90.37 113.65 94.41 114.63 100.11 109.5 97.42 104.38 100.11 105.36 94.41 101.22 90.37 106.94 89.54 109.5 84.35"/></g></svg>