<svg xmlns="http://www.w3.org/2000/svg" viewBox="0 0 145 145"><defs><style>.cls-1,.cls-4,.cls-5{fill:none;stroke-linecap:round;}.cls-1,.cls-4{stroke:#007b64;}.cls-1,.cls-8{stroke-miterlimit:10;}.cls-1,.cls-4,.cls-5,.cls-8{stroke-width:2px;}.cls-2,.cls-8{fill:#fff;}.cls-3{fill:#ebebeb;}.cls-4,.cls-5{stroke-linejoin:round;}.cls-5,.cls-8{stroke:#ffc463;}.cls-6{fill:#ffc463;}.cls-7{fill:#c4c4c4;}</style></defs><title>28 Предоставление заявлений в электронном виде на лицензию по игорному бизнесу</title><g id="_28_Предоставление_заявлений_в_электронном_виде_на_лицензию_по_игорному_бизнесу" data-name="28 Предоставление заявлений в электронном виде на лицензию по игорному бизнесу"><line class="cls-1" x1="3.24" y1="139.64" x2="138.24" y2="139.64"/><rect class="cls-2" x="42.5" y="41" width="69" height="98" rx="5.96"/><path class="cls-3" d="M32.89,50.55s4.87,6-2.34,16.1C27.48,71,26.06,79.41,26.06,86.37c0,5-5.69,8.51-6.51,12L17.61,59V54.42l2.1-2.05,3-1.1Z"/><path class="cls-4" d="M36.35,133.09l-8.76.52a5.56,5.56,0,0,1-5.87-5.22L17.5,57.14a5.56,5.56,0,0,1,5.22-5.87l13.18-.84"/><path class="cls-3" d="M41.72,130.52H111a0,0,0,0,1,0,0v4.17a4.95,4.95,0,0,1-4.95,4.95H46.67a4.95,4.95,0,0,1-4.95-4.95v-4.17A0,0,0,0,1,41.72,130.52Z"/><line class="cls-4" x1="50.54" y1="96.58" x2="71.93" y2="96.58"/><line class="cls-4" x1="50.54" y1="90.63" x2="68.29" y2="90.63"/><line class="cls-4" x1="50.54" y1="102.52" x2="79.86" y2="102.52"/><line class="cls-4" x1="50.54" y1="108.47" x2="86.01" y2="108.47"/><line class="cls-4" x1="50.54" y1="114.42" x2="86.01" y2="114.42"/><line class="cls-5" x1="50.54" y1="72.42" x2="60.49" y2="72.42"/><path class="cls-4" d="M111.44,89.74V133a6.64,6.64,0,0,1-6.64,6.64H47.89A6.64,6.64,0,0,1,41.25,133V47.64A6.64,6.64,0,0,1,47.89,41H104.8a6.65,6.65,0,0,1,6.12,4,6.76,6.76,0,0,1,.52,2.59v7.87"/><line class="cls-1" x1="46.85" y1="50.51" x2="106.6" y2="50.58"/><rect class="cls-6" x="88.76" y="44.87" width="15.18" height="1.88" rx="0.8" transform="matrix(1, 0, 0, 1, 0.07, -0.14)"/><rect class="cls-7" x="48.73" y="44.57" width="2.47" height="2.47" rx="1.23" transform="translate(0.05 -0.05) rotate(0.06)"/><rect class="cls-7" x="52.43" y="44.58" width="2.47" height="2.47" rx="1.23" transform="translate(0.05 -0.06) rotate(0.06)"/><rect class="cls-7" x="56.13" y="44.58" width="2.47" height="2.47" rx="1.23" transform="translate(0.05 -0.06) rotate(0.06)"/><rect class="cls-8" x="101.67" y="61.18" width="22.33" height="22.33" rx="2.47"/><circle class="cls-6" cx="112.83" cy="72.34" r="3.08"/><rect class="cls-8" x="84.22" y="77.33" width="22.33" height="22.33" rx="2.47"/><circle class="cls-6" cx="95.37" cy="88.45" r="2.47"/><circle class="cls-6" cx="89.48" cy="82.63" r="2.47"/><circle class="cls-6" cx="101.37" cy="82.54" r="2.38"/><circle class="cls-6" cx="101.37" cy="94.44" r="2.38"/><circle class="cls-6" cx="89.48" cy="94.35" r="2.47"/></g></svg>