<svg xmlns="http://www.w3.org/2000/svg" viewBox="0 0 145 145"><defs><style>.cls-1,.cls-5,.cls-6{fill:none;stroke:#007b64;stroke-linecap:round;}.cls-1,.cls-5{stroke-linejoin:round;}.cls-1,.cls-6{stroke-width:2px;}.cls-2{fill:#fff;}.cls-3{fill:#ebebeb;}.cls-4{fill:#ffc463;}.cls-5{stroke-width:1.79px;}.cls-6{stroke-miterlimit:10;}</style></defs><title>3 Личный кабинет</title><g id="_3_Личный_кабинет" data-name="3 Личный кабинет"><line class="cls-1" x1="125.53" y1="139.36" x2="24.02" y2="139.36"/><line class="cls-1" x1="18.94" y1="139.36" x2="6.56" y2="139.36"/><line class="cls-1" x1="141.56" y1="139.36" x2="133.11" y2="139.36"/><path class="cls-2" d="M106.25,139.36H41.44A6.48,6.48,0,0,1,35,132.88V122.51c0-17.79,7.93-32.23,25.59-32.41a1.35,1.35,0,0,1,.62.15l11,5.53a3.69,3.69,0,0,0,3.24,0l11.05-5.53a1.35,1.35,0,0,1,.62-.15c17.67.18,25.6,14.62,25.6,32.41v10.37A6.48,6.48,0,0,1,106.25,139.36Z"/><path class="cls-3" d="M110.61,107.92a19.45,19.45,0,0,1-5.66,11.8c-3.16,3.17-2.68,16.13-4.48,18.82l1.9.82,4.64-1.15,2.69-.9,1.79-2.68,1.53-7.74-.51-9.32-.71-5Z"/><path class="cls-4" d="M71.4,97.93h5.49a.75.75,0,0,1,.73.6l3.54,17.6a.72.72,0,0,1-.19.66l-6.29,6.56a.74.74,0,0,1-1.08,0l-6.28-6.56a.72.72,0,0,1-.19-.66l3.53-17.6A.75.75,0,0,1,71.4,97.93Z"/><path class="cls-4" d="M77.54,98.62h-6.8a.5.5,0,0,1-.49-.41l-.86-5.07a.5.5,0,0,1,.7-.53l3.84,1.82a.47.47,0,0,0,.43,0l3.83-1.82a.49.49,0,0,1,.7.53L78,98.21A.5.5,0,0,1,77.54,98.62Z"/><path class="cls-5" d="M35.05,119.26c.06-1,.14-2.07.26-3.08a45.39,45.39,0,0,1,1-5.66c2.9-11.67,10.5-20,23.56-20.4a2.39,2.39,0,0,1,1.2.29,29.36,29.36,0,0,0,13.4,3.32,22.47,22.47,0,0,0,12.05-3.22,2.45,2.45,0,0,1,1.36-.39c17.13.59,24.83,14.86,24.83,32.39v8a8.89,8.89,0,0,1-8.89,8.89h-60A8.88,8.88,0,0,1,35,130.47h0v-3.06"/><line class="cls-6" x1="50.02" y1="123.8" x2="50.02" y2="139.36"/><line class="cls-6" x1="97.98" y1="123.8" x2="97.98" y2="139.36"/><path class="cls-2" d="M92.51,47.82a23.75,23.75,0,0,1,1.68,2.3A23.65,23.65,0,0,1,96.92,70,24,24,0,1,1,74,39.15a24.43,24.43,0,0,1,7.4,1.15,25.27,25.27,0,0,1,3.52,1.45c.54.28,1.06.57,1.58.88"/><path class="cls-3" d="M97.58,55.62s-1.56.05-3.22,5C93.47,63.27,88.09,72.17,83.6,74c-6.74,2.68-7.68,11.55-8.07,12.47-.69,1.64,4.49,0,4.49,0L83.3,85l4.18-2.26,5-4.53,2.57-3.77,2-4L98,63.27Z"/><path class="cls-1" d="M92.51,47.82a23.75,23.75,0,0,1,1.68,2.3A23.65,23.65,0,0,1,96.92,70,24,24,0,1,1,74,39.15a24.43,24.43,0,0,1,7.4,1.15,25.27,25.27,0,0,1,3.52,1.45c.54.28,1.06.57,1.58.88"/></g></svg>