<svg xmlns="http://www.w3.org/2000/svg" viewBox="0 0 145 145"><defs><style>.cls-1,.cls-3{fill:none;}.cls-1,.cls-3,.cls-6{stroke:#007b64;stroke-linecap:round;stroke-linejoin:round;}.cls-1,.cls-6{stroke-width:2px;}.cls-2{fill:#ebebeb;}.cls-3{stroke-width:1.96px;}.cls-4,.cls-6{fill:#fff;}.cls-5{fill:#007b64;}.cls-7{fill:#ffc463;}</style></defs><title>4 Информация</title><g id="_4_Информация" data-name="4 Информация"><line class="cls-1" x1="4.59" y1="139.61" x2="139.59" y2="139.61"/><path class="cls-2" d="M9.66,87.28s7.55-9.69,7.55-16.16,7.54-17.24,7.54-17.24l-12.59.21L9.28,57.81l-.69,8.46v21Z"/><path class="cls-3" d="M17.6,139.44H14.79a6.35,6.35,0,0,1-6.36-6.34v-8.35"/><path class="cls-3" d="M129.23,53.44c3.51,0,6.36,2.85,6.36,7.43v73.31c0,2.42-2.85,5.26-6.36,5.26h-4.95"/><path class="cls-3" d="M8.43,115.24V59.79a6.36,6.36,0,0,1,6.36-6.35"/><path class="cls-4" d="M71.94,140.63H19.14a6.47,6.47,0,0,1-6.47-6.47V52.26a6.47,6.47,0,0,1,6.47-6.46H65.48a6.46,6.46,0,0,1,6.46,6.46Z"/><path class="cls-5" d="M65.48,47.8a4.46,4.46,0,0,1,4.46,4.46v86.37H19.14a4.47,4.47,0,0,1-4.47-4.47V52.26a4.47,4.47,0,0,1,4.47-4.46H65.48m0-2H19.14a6.47,6.47,0,0,0-6.47,6.46v81.9a6.47,6.47,0,0,0,6.47,6.47h52.8V52.26a6.46,6.46,0,0,0-6.46-6.46Z"/><path class="cls-4" d="M122.24,139.55H70.78V53.19c0-3.49,3.49-6.32,7.81-6.32h43.65c4.31,0,7.81,2.83,7.81,6.32v80C130.05,136.72,126.55,139.55,122.24,139.55Z"/><path class="cls-2" d="M71.47,133.08H130a0,0,0,0,1,0,0v0a6.47,6.47,0,0,1-6.47,6.47H71.47a0,0,0,0,1,0,0v-6.47A0,0,0,0,1,71.47,133.08Z"/><path class="cls-1" d="M118.31,46.87h3.93c4.31,0,7.81,2.83,7.81,6.32v80c0,3.49-3.5,6.32-7.81,6.32H70.78V53.19c0-3.49,3.49-6.32,7.81-6.32H95.8"/><line class="cls-6" x1="23.74" y1="96.44" x2="58.38" y2="96.44"/><line class="cls-6" x1="23.74" y1="102.91" x2="58.38" y2="102.91"/><line class="cls-6" x1="23.74" y1="109.38" x2="58.38" y2="109.38"/><line class="cls-6" x1="23.74" y1="115.84" x2="58.38" y2="115.84"/><rect class="cls-7" x="22.3" y="68.43" width="37.52" height="16.16" rx="1.08"/><rect class="cls-5" x="80.49" y="94.29" width="39.8" height="22.63" rx="1.08"/><path class="cls-7" d="M113.15,66.21,108,63.3a.33.33,0,0,0-.36,0l-5.17,2.91a.33.33,0,0,1-.22.05A1.46,1.46,0,0,1,101,64.73V45.09a.37.37,0,0,1,.37-.37h12.88a.38.38,0,0,1,.37.37V64.73a1.46,1.46,0,0,1-1.24,1.53A.33.33,0,0,1,113.15,66.21Z"/></g></svg>