<svg xmlns="http://www.w3.org/2000/svg" viewBox="0 0 145 145"><defs><style>.cls-1,.cls-3,.cls-5,.cls-7{fill:none;}.cls-1,.cls-5,.cls-7{stroke:#007b64;}.cls-1,.cls-3{stroke-linecap:round;stroke-linejoin:round;}.cls-1,.cls-3,.cls-7{stroke-width:2px;}.cls-2{fill:#fff;}.cls-3{stroke:#ffc463;}.cls-4{fill:#ebebeb;}.cls-5,.cls-7{stroke-miterlimit:10;}.cls-5{stroke-width:1.98px;}.cls-6{fill:#ffc463;}</style></defs><title>5 Перечень иностранных организаций</title><g id="_5_Перечень_иностранных_организаций" data-name="5 Перечень иностранных организаций"><line class="cls-1" x1="84.88" y1="134.51" x2="24.88" y2="134.51"/><line class="cls-1" x1="19" y1="134.52" x2="6" y2="134.52"/><rect class="cls-2" x="21.5" y="55.5" width="111" height="79" rx="14.91"/><path class="cls-3" d="M95.35,59.88a7.87,7.87,0,0,1-7.82,7.92H65.77A7.87,7.87,0,0,1,58,59.87V49.92A7.87,7.87,0,0,1,65.77,42H87.53a7.87,7.87,0,0,1,7.82,7.92Z"/><path class="cls-4" d="M22.1,95.78s6.56,16.83,15,20c10,3.75,27.07,12.48,27.92,18.74l-32-.07-7-2.89-4.18-5.84-1-3.69V93.27Z"/><path class="cls-5" d="M132.29,89.34V121a13.47,13.47,0,0,1-13.39,13.55"/><path class="cls-1" d="M95,134.52H34.39A13.47,13.47,0,0,1,21,121V68.46A13.47,13.47,0,0,1,34.39,54.9H118.9a13.49,13.49,0,0,1,13.39,13.57V81.19"/><path class="cls-2" d="M118.91,54.9H34.4A13.48,13.48,0,0,0,21,68.47v21A13.47,13.47,0,0,0,34.4,103h84.5a13.48,13.48,0,0,0,13.39-13.56v-21A13.47,13.47,0,0,0,118.91,54.9Z"/><path class="cls-1" d="M118.9,103a13.42,13.42,0,0,0,12.89-9.87,14,14,0,0,0,.5-3.69"/><path class="cls-1" d="M132.29,81.47v-13A13.47,13.47,0,0,0,118.91,54.9H34.4A13.48,13.48,0,0,0,21,68.47v21A13.47,13.47,0,0,0,34.4,103H87.47"/><path class="cls-6" d="M50.8,106.6a5.28,5.28,0,0,1-5.24,5.31h-.35A5.28,5.28,0,0,1,40,106.6V100a5.28,5.28,0,0,1,5.24-5.31h.35A5.28,5.28,0,0,1,50.8,100Z"/><path class="cls-6" d="M113.32,106.6a5.27,5.27,0,0,1-5.24,5.31h-.34a5.27,5.27,0,0,1-5.24-5.31V100a5.27,5.27,0,0,1,5.23-5.31h.35a5.27,5.27,0,0,1,5.24,5.31Z"/><path class="cls-2" d="M95.79,101.19A24.08,24.08,0,1,1,93,112.45a24.44,24.44,0,0,1,.15-2.73"/><path class="cls-1" d="M95.79,101.19A24.08,24.08,0,1,1,93,112.45a24.44,24.44,0,0,1,.15-2.73"/><path class="cls-7" d="M130,112.45c0,.89,0,1.76-.07,2.63,0,.5-.07,1-.12,1.49-1,11.33-6.35,20-12.72,20-7.14,0-12.92-10.78-12.92-24.07s5.78-24.07,12.92-24.07c4.54,0,8.53,4.37,10.83,11,.33.94.63,1.93.88,3A42.08,42.08,0,0,1,130,112.45Z"/><line class="cls-7" x1="117.07" y1="88.38" x2="117.07" y2="136.49"/><line class="cls-7" x1="97.09" y1="98.88" x2="136.85" y2="98.88"/><line class="cls-7" x1="97.09" y1="125.88" x2="136.85" y2="125.88"/><line class="cls-7" x1="93.49" y1="112.38" x2="140.45" y2="112.38"/></g></svg>