<svg xmlns="http://www.w3.org/2000/svg" viewBox="0 0 145 145"><defs><style>.cls-1{fill:#fff;}.cls-2{fill:#ebebeb;}.cls-3,.cls-4,.cls-6{fill:none;stroke:#007b64;}.cls-3,.cls-6{stroke-linecap:round;stroke-linejoin:round;}.cls-3,.cls-4{stroke-width:1.9px;}.cls-4{stroke-miterlimit:10;}.cls-5{fill:#ffc463;}.cls-6{stroke-width:2px;}</style></defs><title>8 Структурные подразделения</title><g id="_8_Структурные_подразделения" data-name="8 Структурные подразделения"><path class="cls-1" d="M31.76,45.53A4.53,4.53,0,0,1,36.29,41H108a4.53,4.53,0,0,1,4.53,4.53V74.47A4.52,4.52,0,0,1,108,79H36.29a4.52,4.52,0,0,1-4.53-4.52V53.11"/><path class="cls-2" d="M68.26,79S77.35,69.5,89.7,69.5s11.4-14.21,22.8-15.18V74.25l-.69,2.61L108.7,79Z"/><path class="cls-3" d="M31.76,45.53A4.53,4.53,0,0,1,36.29,41H108a4.53,4.53,0,0,1,4.53,4.53V74.47A4.52,4.52,0,0,1,108,79H36.29a4.52,4.52,0,0,1-4.53-4.52V53.11"/><rect class="cls-1" x="100.15" y="105.59" width="33.25" height="33.25" rx="2.72"/><rect class="cls-2" x="101.1" y="133.14" width="32.3" height="5.7"/><rect class="cls-4" x="100.15" y="105.59" width="33.25" height="33.25" rx="2.72"/><path class="cls-1" d="M43.31,106.39a2.71,2.71,0,0,1,.8,1.92v27.81a2.72,2.72,0,0,1-2.72,2.72H13.58a2.72,2.72,0,0,1-2.72-2.72V108.31a2.72,2.72,0,0,1,2.72-2.72H38.15"/><rect class="cls-2" x="11.81" y="133.14" width="32.3" height="5.7"/><path class="cls-3" d="M43.31,106.39a2.71,2.71,0,0,1,.8,1.92v27.81a2.72,2.72,0,0,1-2.72,2.72H13.58a2.72,2.72,0,0,1-2.72-2.72V108.31a2.72,2.72,0,0,1,2.72-2.72H38.15"/><line class="cls-3" x1="72.13" y1="79.94" x2="72.13" y2="105.12"/><polyline class="cls-3" points="107.26 91.82 104.84 91.82 102.53 91.82 100.15 91.82 27.48 91.82 27.48 105.12"/><polyline class="cls-3" points="116.77 105.12 116.77 91.82 113.57 91.82"/><rect class="cls-5" x="54.08" y="104.64" width="36.1" height="34.2" rx="2.87"/><line class="cls-6" x1="4.63" y1="138.83" x2="139.63" y2="138.83"/></g></svg>