<svg width="145" height="145" viewBox="0 0 145 145" fill="none" xmlns="http://www.w3.org/2000/svg">
<path d="M83.8799 121H23.8799" stroke="#007B64" stroke-width="2" stroke-linecap="round" stroke-linejoin="round"/>
<path d="M18 121H5" stroke="#007B64" stroke-width="2" stroke-linecap="round" stroke-linejoin="round"/>
<path d="M116.59 41.5H35.41C27.1754 41.5 20.5 48.1754 20.5 56.41V105.59C20.5 113.825 27.1754 120.5 35.41 120.5H116.59C124.825 120.5 131.5 113.825 131.5 105.59V56.41C131.5 48.1754 124.825 41.5 116.59 41.5Z" fill="white"/>
<path d="M94.35 45.88C94.3566 46.9135 94.1595 47.9382 93.7701 48.8955C93.3807 49.8529 92.8065 50.7242 92.0803 51.4596C91.3542 52.1951 90.4903 52.7803 89.5379 53.1818C88.5856 53.5834 87.5635 53.7935 86.53 53.8H64.77C62.6897 53.7736 60.7045 52.9246 59.2484 51.4386C57.7924 49.9525 56.984 47.9504 57 45.87V35.92C56.9866 33.8413 57.7962 31.8418 59.252 30.3579C60.7077 28.874 62.6914 28.0264 64.77 28H86.53C87.5635 28.0065 88.5856 28.2166 89.5379 28.6182C90.4903 29.0197 91.3542 29.6049 92.0803 30.3404C92.8065 31.0758 93.3807 31.9471 93.7701 32.9044C94.1595 33.8618 94.3566 34.8865 94.35 35.92V45.88Z" stroke="#FFC463" stroke-width="2" stroke-linecap="round" stroke-linejoin="round"/>
<path d="M21.1001 81.78C21.1001 81.78 27.6601 98.61 36.1001 101.78C46.1001 105.53 63.1701 114.26 64.0201 120.52L32.0201 120.45L25.0201 117.56L20.8401 111.72L19.8401 108.03V79.27L21.1001 81.78Z" fill="#EBEBEB"/>
<path d="M131.29 75.34V107C131.3 108.769 130.962 110.523 130.295 112.161C129.628 113.799 128.645 115.29 127.401 116.548C126.158 117.806 124.679 118.807 123.049 119.494C121.418 120.181 119.669 120.54 117.9 120.55" stroke="#007B64" stroke-width="1.98" stroke-miterlimit="10"/>
<path d="M93.8071 121H33.3553C29.7974 120.979 26.3931 119.537 23.8894 116.99C21.3857 114.443 19.987 111 20.0003 107.415V54.6247C19.9885 52.8465 20.3246 51.0834 20.9895 49.4361C21.6544 47.7889 22.635 46.2897 23.8752 45.0244C25.1155 43.7591 26.5911 42.7524 28.2178 42.0619C29.8444 41.3714 31.5902 41.0105 33.3553 41H117.645C121.21 41.0266 124.618 42.4774 127.123 45.0338C129.627 47.5903 131.021 51.0434 131 54.6348V67.4155" stroke="#007B64" stroke-width="2" stroke-linecap="round" stroke-linejoin="round"/>
<path d="M117.91 40.9H33.4001C31.629 40.9105 29.8773 41.2698 28.2452 41.9576C26.6131 42.6454 25.1325 43.648 23.8881 44.9082C22.6436 46.1685 21.6597 47.6616 20.9926 49.3022C20.3255 50.9429 19.9882 52.6989 20.0001 54.47V75.47C19.9841 79.0407 21.3866 82.4717 23.8993 85.0088C26.412 87.5459 29.8293 88.9815 33.4001 89H117.9C121.473 88.9762 124.891 87.5345 127.402 84.9918C129.913 82.4491 131.311 79.0134 131.29 75.44V54.44C131.309 50.871 129.91 47.4404 127.401 44.9017C124.893 42.3631 121.479 40.9238 117.91 40.9V40.9Z" fill="white"/>
<path d="M117.9 89C120.832 88.9886 123.679 88.0176 126.007 86.2352C128.334 84.4529 130.014 81.9573 130.79 79.13C131.12 77.9277 131.288 76.6868 131.29 75.44" stroke="#007B64" stroke-width="2" stroke-linecap="round" stroke-linejoin="round"/>
<path d="M131.29 67.47V54.47C131.303 52.7002 130.968 50.9452 130.302 49.3053C129.637 47.6653 128.655 46.1726 127.412 44.9123C126.169 43.6521 124.691 42.6491 123.06 41.9606C121.43 41.2722 119.68 40.9118 117.91 40.9H33.4001C31.629 40.9105 29.8773 41.2698 28.2452 41.9576C26.6131 42.6454 25.1325 43.648 23.8881 44.9082C22.6436 46.1685 21.6597 47.6616 20.9926 49.3022C20.3255 50.9429 19.9882 52.6989 20.0001 54.47V75.47C19.9841 79.0407 21.3866 82.4717 23.8993 85.0088C26.412 87.5459 29.8293 88.9815 33.4001 89H86.4701" stroke="#007B64" stroke-width="2" stroke-linecap="round" stroke-linejoin="round"/>
<path d="M49.8001 92.6C49.8081 93.9986 49.2608 95.3433 48.2784 96.3388C47.296 97.3344 45.9587 97.8994 44.5601 97.91H44.2101C42.8167 97.8916 41.4871 97.323 40.5112 96.3283C39.5352 95.3336 38.992 93.9935 39.0001 92.6V86C38.9921 84.6014 39.5394 83.2567 40.5218 82.2612C41.5042 81.2656 42.8415 80.7006 44.2401 80.69H44.5901C45.9835 80.7085 47.3131 81.277 48.289 82.2717C49.265 83.2663 49.8081 84.6065 49.8001 86V92.6Z" fill="#FFC463"/>
<path d="M112.32 92.6C112.325 93.2929 112.194 93.9801 111.933 94.6221C111.673 95.2642 111.288 95.8485 110.801 96.3417C110.314 96.8349 109.735 97.2273 109.097 97.4964C108.458 97.7655 107.773 97.9061 107.08 97.91H106.74C106.047 97.9061 105.362 97.7655 104.723 97.4964C104.085 97.2273 103.505 96.8349 103.019 96.3417C102.532 95.8485 102.147 95.2642 101.887 94.6221C101.626 93.9801 101.495 93.2929 101.5 92.6V86C101.495 85.3079 101.626 84.6216 101.886 83.9802C102.146 83.3388 102.529 82.7549 103.015 82.2618C103.501 81.7687 104.079 81.3761 104.716 81.1064C105.354 80.8367 106.038 80.6952 106.73 80.69H107.08C107.773 80.6939 108.458 80.8345 109.097 81.1036C109.735 81.3727 110.314 81.7651 110.801 82.2583C111.288 82.7515 111.673 83.3358 111.933 83.9779C112.194 84.6199 112.325 85.3071 112.32 86V92.6Z" fill="#FFC463"/>
<path d="M94.7807 85.7865C97.5191 80.6047 102.059 76.604 107.544 74.539C113.029 72.474 119.08 72.4875 124.556 74.5769C130.032 76.6663 134.554 80.6873 137.269 85.8812C139.984 91.0752 140.705 97.0833 139.296 102.772C137.886 108.461 134.443 113.437 129.617 116.763C124.791 120.088 118.915 121.533 113.097 120.824C107.279 120.115 101.922 117.302 98.0354 112.914C94.149 108.527 92.0022 102.87 92 97.0091C91.999 96.1 92.049 95.1916 92.1495 94.2881" fill="white"/>
<path d="M94.7807 85.7865C97.5191 80.6047 102.059 76.604 107.544 74.539C113.029 72.474 119.08 72.4875 124.556 74.5769C130.032 76.6663 134.554 80.6873 137.269 85.8812C139.984 91.0752 140.705 97.0833 139.296 102.772C137.886 108.461 134.443 113.437 129.617 116.763C124.791 120.088 118.915 121.533 113.097 120.824C107.279 120.115 101.922 117.302 98.0354 112.914C94.149 108.527 92.0022 102.87 92 97.0091C91.999 96.1 92.049 95.1916 92.1495 94.2881" stroke="#007B64" stroke-width="2" stroke-linecap="round" stroke-linejoin="round"/>
<path d="M129 96.9501C129 97.8375 129 98.705 128.93 99.5725C128.93 100.071 128.859 100.57 128.809 101.058C127.802 112.355 122.417 121 116.005 121C108.818 121 103 110.251 103 97C103 83.7486 108.818 73 116.005 73C120.575 73 124.591 77.3573 126.906 83.968C127.238 84.9053 127.54 85.8924 127.792 86.9593C128.598 90.2295 129.003 93.5839 129 96.9501Z" stroke="#007B64" stroke-width="2" stroke-miterlimit="10"/>
<path d="M116 73V121" stroke="#007B64" stroke-width="2" stroke-miterlimit="10"/>
<path d="M96 83H136" stroke="#007B64" stroke-width="2" stroke-miterlimit="10"/>
<path d="M96 110H136" stroke="#007B64" stroke-width="2" stroke-miterlimit="10"/>
<path d="M92 97H139" stroke="#007B64" stroke-width="2" stroke-miterlimit="10"/>
</svg>
