<svg xmlns="http://www.w3.org/2000/svg" viewBox="0 0 145 145"><defs><style>.cls-1,.cls-3,.cls-4,.cls-5{fill:none;stroke-width:2px;}.cls-1,.cls-3,.cls-4{stroke:#007b64;}.cls-1,.cls-3,.cls-5{stroke-linecap:round;}.cls-1,.cls-5{stroke-linejoin:round;}.cls-2{fill:#fff;}.cls-3,.cls-4{stroke-miterlimit:10;}.cls-5{stroke:#ffc463;}.cls-6{fill:#ffc463;}</style></defs><title>33 Личный прием руководством инспекций копия 2</title><g id="_39_Ваша_организация_является_нерезидентом_Республики_Беларусь_" data-name="39 Ваша организация является нерезидентом Республики Беларусь?"><line class="cls-1" x1="135.88" y1="133.51" x2="21.88" y2="133.51"/><line class="cls-1" x1="16" y1="133.52" x2="3" y2="133.52"/><path class="cls-2" d="M28.82,63A43.46,43.46,0,0,1,42.56,47.61a43.26,43.26,0,1,1,33.83,77.9c-1.13.25-2.28.45-3.44.61a43.88,43.88,0,0,1-5.88.4A43.26,43.26,0,0,1,23.81,83.26a44.21,44.21,0,0,1,.27-4.91"/><path class="cls-1" d="M70.54,126.38c-1.15.09-2.31.14-3.47.14A43.26,43.26,0,0,1,23.81,83.26a44.21,44.21,0,0,1,.27-4.91"/><path class="cls-1" d="M110.25,80.77c0,.82.07,1.65.07,2.49a43.27,43.27,0,0,1-33.93,42.25"/><path class="cls-1" d="M28.82,63A43.46,43.46,0,0,1,42.56,47.61a43.28,43.28,0,0,1,66.2,24.07"/><path class="cls-3" d="M67.07,126.52c-12.82,0-23.21-19.37-23.21-43.26S54.25,40,67.07,40c8.16,0,15.33,7.85,19.47,19.71.59,1.7,1.12,3.48,1.58,5.32A68.58,68.58,0,0,1,89.5,72.1"/><line class="cls-4" x1="67.07" y1="40" x2="67.07" y2="126.48"/><line class="cls-4" x1="31.17" y1="58.86" x2="102.62" y2="58.86"/><line class="cls-3" x1="77.35" y1="107.4" x2="102.62" y2="107.4"/><line class="cls-3" x1="31.17" y1="107.4" x2="72.57" y2="107.4"/><line class="cls-3" x1="24.69" y1="83.13" x2="72.5" y2="83.13"/><rect class="cls-2" x="73.36" y="77.91" width="47.11" height="54.67" rx="3"/><path class="cls-1" d="M73.36,129.37V81.57a3.51,3.51,0,0,1,3.5-3.51h40.07a3.51,3.51,0,0,1,3.5,3.51v48.08a3.5,3.5,0,0,1-3.5,3.5H76.86a3.5,3.5,0,0,1-3.5-3.5v.14"/><line class="cls-1" x1="79.26" y1="78.06" x2="79.26" y2="133.15"/><path class="cls-1" d="M124.41,80.12A3.42,3.42,0,0,1,126,83v46.67a3.46,3.46,0,0,1-3.46,3.46h-6.68"/><line class="cls-5" x1="88.02" y1="90.33" x2="111.51" y2="90.33"/><line class="cls-5" x1="113.33" y1="94.84" x2="86.2" y2="94.84"/><rect class="cls-6" x="89.76" y="104.86" width="20" height="18.03" rx="3"/></g></svg>