<svg xmlns="http://www.w3.org/2000/svg" viewBox="0 0 145 145"><defs><style>.cls-1,.cls-4{fill:none;stroke:#007b64;stroke-linecap:round;stroke-miterlimit:10;}.cls-1{stroke-width:2px;}.cls-2{fill:#fff;}.cls-3{fill:#ebebeb;}.cls-4{stroke-width:2.18px;}.cls-5{fill:#ffc463;}.cls-6{fill:#c4c4c4;}</style></defs><title>31 Налогообложение физических лиц и ответы на актуальные вопросы налогоплательщиков копия 3</title><g id="_40_Ваша_организация_оказывает_услуги_в_электронной_форме_" data-name="40 Ваша организация оказывает услуги в электронной форме?"><line class="cls-1" x1="4.43" y1="135.03" x2="139.43" y2="135.08"/><path class="cls-2" d="M58.35,122.52l73.06,0a1,1,0,0,1,1,1h0a11.44,11.44,0,0,1-11.39,11.49l-98.28,0a11.44,11.44,0,0,1-11.37-11.5h0a1,1,0,0,1,1-1l38.48,0"/><rect class="cls-2" x="22" y="43" width="100" height="79" rx="6.97"/><path class="cls-3" d="M62.36,122.52s7.52-11.61,26.25-12.12c19.16-.53,12-13.12,32.73-16.24l1,2.09V112.1s1,9.4-6.21,10.44S62.36,122.52,62.36,122.52Z"/><path class="cls-4" d="M21.76,115.34l0-65.1a7.15,7.15,0,0,1,7.1-7.16l80.06,0"/><path class="cls-1" d="M105.46,43.12H115a7.15,7.15,0,0,1,7.09,7.17l0,65.09a7.13,7.13,0,0,1-1.47,4.35,7.06,7.06,0,0,1-5.62,2.81h-7.5"/><path class="cls-1" d="M58.35,122.52l73.06,0a1,1,0,0,1,1,1h0a11.44,11.44,0,0,1-11.39,11.49l-98.28,0a11.44,11.44,0,0,1-11.37-11.5h0a1,1,0,0,1,1-1l38.48,0"/><line class="cls-1" x1="30.27" y1="53.54" x2="113.03" y2="53.57"/><line class="cls-1" x1="40.22" y1="90.54" x2="89" y2="90.57"/><line class="cls-1" x1="40" y1="96.27" x2="88.78" y2="96.3"/><line class="cls-1" x1="40" y1="102" x2="88.78" y2="102.03"/><rect class="cls-5" x="89.98" y="47.64" width="20.69" height="1.88" rx="0.94"/><rect class="cls-6" x="31.93" y="47.25" width="2.59" height="2.61" rx="1.29"/><rect class="cls-6" x="35.81" y="47.25" width="2.59" height="2.61" rx="1.29"/><rect class="cls-6" x="39.69" y="47.25" width="2.59" height="2.61" rx="1.29"/><rect class="cls-5" x="40.28" y="65.04" width="29.72" height="18.96" rx="3.03"/></g></svg>