<svg xmlns="http://www.w3.org/2000/svg" viewBox="0 0 145 145"><defs><style>.cls-1,.cls-4,.cls-5{fill:none;stroke-linecap:round;stroke-linejoin:round;}.cls-1,.cls-4{stroke:#007b64;}.cls-1,.cls-5{stroke-width:2px;}.cls-2{fill:#fff;}.cls-3{fill:#f1f1f1;}.cls-4{stroke-width:2.04px;}.cls-5{stroke:#ffc463;}.cls-6{fill:#ffc463;}</style></defs><title>31 Налогообложение физических лиц и ответы на актуальные вопросы налогоплательщиков копия 2</title><g id="_37_Ведение_учета" data-name="37 Ведение учета"><line class="cls-1" x1="4.4" y1="131.07" x2="15.34" y2="131.07"/><line class="cls-1" x1="18.46" y1="131.07" x2="127.83" y2="131.07"/><line class="cls-1" x1="134.43" y1="131.07" x2="139.4" y2="131.07"/><path class="cls-2" d="M93.71,113v11.85A6.12,6.12,0,0,1,87.59,131H32.49a6.12,6.12,0,0,1-6.12-6.13V39.12A6.12,6.12,0,0,1,32.49,33H75.87L93.71,51.88"/><path class="cls-3" d="M26.37,95.48S30.6,105.39,46.29,110c11.17,3.29,17.49,8.35,20.5,21l-36.56-.17-3.06-1.93-.79-2.37Z"/><path class="cls-4" d="M93.71,115.81v9A6.12,6.12,0,0,1,87.59,131H32.49a6.12,6.12,0,0,1-6.12-6.13V39.12A6.12,6.12,0,0,1,32.49,33H75.43a1,1,0,0,1,.74.32L93.71,51.88"/><polyline class="cls-1" points="93.71 52.14 93.71 61.27 93.71 82.42"/><path class="cls-1" d="M85.55,51.88h-5.1a6.13,6.13,0,0,1-6.13-6.13v-5.1"/><line class="cls-5" x1="34.55" y1="55.69" x2="61.08" y2="55.69"/><line class="cls-5" x1="34.55" y1="61.17" x2="61.08" y2="61.17"/><line class="cls-5" x1="34.55" y1="50.21" x2="61.08" y2="50.21"/><path class="cls-2" d="M115.49,131.07H43.71A3.67,3.67,0,0,1,40,127.39V83.68A3.68,3.68,0,0,1,43.71,80H66.92l8.77,7.36h39.8A3.68,3.68,0,0,1,119.17,91v36.35A3.68,3.68,0,0,1,115.49,131.07Z"/><path class="cls-3" d="M40,111.71s24.47-.64,39,8.29c13,8,22.24,11,22.24,11H42.8l-2.18-1.57-.59-4Z"/><path class="cls-1" d="M115.49,131.07H43.71A3.67,3.67,0,0,1,40,127.39V83.68A3.68,3.68,0,0,1,43.71,80H66.92l8.77,7.36h39.8A3.68,3.68,0,0,1,119.17,91v36.35A3.68,3.68,0,0,1,115.49,131.07Z"/><rect class="cls-6" x="93" y="93" width="20" height="7" rx="1"/></g></svg>