<svg xmlns="http://www.w3.org/2000/svg" xmlns:xlink="http://www.w3.org/1999/xlink" width="548.92" height="496.59" viewBox="0 0 548.92 496.59">
  <defs>
    <clipPath id="clip-path">
      <ellipse cx="397.42" cy="320.59" rx="72.49" ry="10.86" style="fill: #fff;stroke: #262626;stroke-miterlimit: 10"/>
    </clipPath>
    <clipPath id="clip-path-2">
      <path d="M102.11,431.4S89.86,422.32,95,381.23s40.3-85.73,47-92.84,40.69-31.6,40.69-31.6-14.22-22.52-10.66-56.5c0,0-33.58,0-37.93-42.66s37.14-41.09,41.09-41.09,23.3,15,25.68,17c0,0,55.7-23.7,93.62-2,0,0,2.37-18.56,30.82-26.86s30.81,34.37,30,42.27-5.13,22.52-26.47,24.5c0,0-1.58,14.22,5.93,24.49s7.9,26.86,1.19,39.9-11.07,19-23.31,25.68c0,0,51.75,41.08,54.12,111a11.58,11.58,0,0,1,7.11,9.09s1.19-9.09,15-11.07,19.36,8.7,18.18,26.87c0,0,3.16.39,3.16,11.06s-10.67,42.67-19.76,51.36-21.73,19.75-46.22,16.2-51.75-21.34-51.75-21.34-15,13-63.21,1.19c0,0-15.8,31.6-48.59,25.28s-40.69-39.5-34-68.34c0,0-10.27,7.11-16.2-10.67C130.55,402.17,131.74,455.5,102.11,431.4Z" style="fill: #00654d"/>
    </clipPath>
  </defs>
  <title>Ресурс 7</title>
  <g id="Слой_2" data-name="Слой 2">
    <g id="Слой_1-2" data-name="Слой 1">
      <g>
        <path d="M145.32,61.34c70-22.59,111.84,2.71,186.51-35.28,23.4-11.91,24.46-17,42-21.85C426-10.11,498.18,12.61,530.11,64.7c35.37,57.71,5.39,125.46-13.44,168-9.12,20.61-67.38,152.29-210,179.8-86,16.58-203.44-4.52-260.45-90.74-5.24-7.92-55.78-86.91-23.52-163C51.08,91.76,126.66,67.37,145.32,61.34Z" style="fill: #c4c4c4"/>
        <g>
          <ellipse cx="286.41" cy="452.14" rx="262.52" ry="44.44" style="fill: #ebebeb"/>
          <g>
            <path d="M403.54,430.22s59.26,2.37,71.11-11.06l13.83-98.77L301.61,322l11.46,94.82Z" style="fill: #fff;stroke: #262626;stroke-miterlimit: 10"/>
            <ellipse cx="396.43" cy="320.39" rx="92.05" ry="15.01" style="fill: #fff;stroke: #262626;stroke-miterlimit: 10"/>
            <g>
              <ellipse cx="397.42" cy="320.59" rx="72.49" ry="10.86" style="fill: #fff"/>
              <g style="clip-path: url(#clip-path)">
                <line x1="388.13" y1="325.53" x2="401.96" y2="327.9" style="fill: #fff;stroke: #262626;stroke-miterlimit: 10"/>
                <ellipse cx="397.42" cy="328.89" rx="72.49" ry="8.49" style="fill: #262626"/>
              </g>
              <ellipse cx="397.42" cy="320.59" rx="72.49" ry="10.86" style="fill: none;stroke: #262626;stroke-miterlimit: 10"/>
            </g>
          </g>
          <g>
            <path d="M102.11,431.4S89.86,422.32,95,381.23s40.3-85.73,47-92.84,40.69-31.6,40.69-31.6-14.22-22.52-10.66-56.5c0,0-33.58,0-37.93-42.66s37.14-41.09,41.09-41.09,23.3,15,25.68,17c0,0,55.7-23.7,93.62-2,0,0,2.37-18.56,30.82-26.86s30.81,34.37,30,42.27-5.13,22.52-26.47,24.5c0,0-1.58,14.22,5.93,24.49s7.9,26.86,1.19,39.9-11.07,19-23.31,25.68c0,0,51.75,41.08,54.12,111a11.58,11.58,0,0,1,7.11,9.09s1.19-9.09,15-11.07,19.36,8.7,18.18,26.87c0,0,3.16.39,3.16,11.06s-10.67,42.67-19.76,51.36-21.73,19.75-46.22,16.2-51.75-21.34-51.75-21.34-15,13-63.21,1.19c0,0-15.8,31.6-48.59,25.28s-40.69-39.5-34-68.34c0,0-10.27,7.11-16.2-10.67C130.55,402.17,131.74,455.5,102.11,431.4Z" style="fill: #00654d"/>
            <g style="clip-path: url(#clip-path-2)">
              <path d="M256.18,122.47s22.92-.4,29.24,25.28,5.66,30.55,6.06,34.24,1.22,7.14,5.66,10.6c7.83,6.12,14.94,15,18.1,21.93a51.64,51.64,0,0,1,4.35,28.24c-1.38,12.25-3,13.63-4.15,17s37.53-19,37.53-19l6.52-126.62-8.69-1.78s-15.56.19-20.35,1.78c-7.11,2.37-20.34,5.53-28,21.33C302.41,135.5,276.53,120.49,256.18,122.47Z" style="fill: #007a65"/>
              <path d="M294.5,270.81s18.18,52.94,17.19,97.78S298.06,431,294.5,437.33s-18.56,22.91-22.12,25.88,20.54-5.93,20.54-5.93l55.31,28.05,47.41-15.41,22.71-78.42-10.66-23.31-32.2-.39-6.52,3-9.28-70.52L319.2,259.75Z" style="fill: #007a65"/>
              <path d="M209.83,263.77s-33.71,15.8-59,75.85-11.06,35.82-20,39.5c0,0-11.59,45-28.71,52.28,0,0,25.55,29.9,28.18-27.52,0,0,5,15.28,16.46,9S190.34,274.3,209.83,263.77Z" style="fill: #007a65"/>
            </g>
          </g>
          <g>
            <path d="M185.87,122.37c6.5,4.45,13.63,10,15,11.16a161.89,161.89,0,0,1,32.45-9.11" style="fill: none;stroke: #262626;stroke-miterlimit: 10"/>
            <path d="M144.28,286.22c10-8.94,38.42-29.43,38.42-29.43s-14.22-22.52-10.66-56.5c0,0-33.58,0-37.93-42.66-3.8-37.33,27.48-40.79,38-41.07" style="fill: none;stroke: #262626;stroke-miterlimit: 10"/>
            <path d="M322.66,105.52c.86-.29,1.75-.56,2.66-.83,28.44-8.3,30.81,34.37,30,42.27s-5.13,22.52-26.47,24.5c0,0-1.58,14.22,5.93,24.49s7.9,26.86,1.19,39.9-11.07,19-23.31,25.68c0,0,51.75,41.08,54.12,111a11.58,11.58,0,0,1,7.11,9.09s1.19-9.09,15-11.07,19.36,8.7,18.18,26.87c0,0,3.16.39,3.16,11.06s-10.67,42.67-19.76,51.36-21.73,19.75-46.22,16.2-51.75-21.34-51.75-21.34-15,13-63.21,1.19c0,0-15.8,31.6-48.59,25.28s-40.69-39.5-34-68.34c0,0-10.27,7.11-16.2-10.67,0,0,1.19,53.33-28.44,29.23,0,0-12.25-9.08-7.11-50.17,3.91-31.3,25.25-64.66,38.16-81.92" style="fill: none;stroke: #262626;stroke-linecap: round;stroke-linejoin: round"/>
            <path d="M253.48,122.41c13.84-.28,28.41,1.92,41,9.14,0,0,1.4-11,15-19.81" style="fill: none;stroke: #262626;stroke-linecap: round;stroke-linejoin: round"/>
          </g>
          <path d="M230.9,119.11s6.91,2.37,7.7,8.69" style="fill: none;stroke: #262626;stroke-miterlimit: 10"/>
          <path d="M237,118.32s4.94,4,5.53,9.09" style="fill: none;stroke: #262626;stroke-miterlimit: 10"/>
          <path d="M245.71,117.92s3.95,6.13,3.16,9.68" style="fill: none;stroke: #262626;stroke-miterlimit: 10"/>
          <path d="M171.05,113s3.55,1.18,4.15,7.7" style="fill: none;stroke: #262626;stroke-miterlimit: 10"/>
          <path d="M177.37,113.58c.2,1.18,4.54,4.94,3.16,9.88" style="fill: none;stroke: #262626;stroke-miterlimit: 10"/>
          <path d="M182.7,115.16s2.18,5.14,1.19,9.88" style="fill: none;stroke: #262626;stroke-miterlimit: 10"/>
          <path d="M313.47,103.9s-3.36,5.33-1.78,10.86" style="fill: none;stroke: #262626;stroke-miterlimit: 10"/>
          <path d="M317,103.11s-2,2.77-1.18,8.49" style="fill: none;stroke: #262626;stroke-miterlimit: 10"/>
          <path d="M322.36,100.34s-4,3-2.77,9.88" style="fill: none;stroke: #262626;stroke-miterlimit: 10"/>
          <path d="M135.1,289.58s5.13-3.56,9.48-.79" style="fill: none;stroke: #262626;stroke-miterlimit: 10"/>
          <path d="M133.91,293.73s4.74-1.39,6.92.79" style="fill: none;stroke: #262626;stroke-miterlimit: 10"/>
          <path d="M143.59,144.59s27.66-19.75,54.91,10.67" style="fill: none;stroke: #262626;stroke-miterlimit: 10"/>
          <path d="M174.8,188.44s3.56-28.05,17.78-37.53" style="fill: none;stroke: #262626;stroke-miterlimit: 10"/>
          <path d="M176.38,178.57s-25.68-13-1.58-37.93" style="fill: none;stroke: #262626;stroke-miterlimit: 10"/>
          <path d="M294.5,131.55s27.26,10.28,34.37,39.91" style="fill: none;stroke: #262626;stroke-miterlimit: 10"/>
          <path d="M344.28,124.44s-20.94-7.9-27.65,23.31" style="fill: none;stroke: #262626;stroke-miterlimit: 10"/>
          <path d="M326.11,161.58s17-1.58,14.62-15.8-20.94-8.3-20.94-8.3" style="fill: none;stroke: #262626;stroke-miterlimit: 10"/>
          <path d="M262.11,122.47s22.12,6.71,26.86,34.76-.66,27.66,8.17,35.36" style="fill: none;stroke: #262626;stroke-linecap: round;stroke-linejoin: round;stroke-dasharray: 12"/>
          <path d="M291.34,196.34s5.53-5.92,17.39-2.76" style="fill: none;stroke: #262626;stroke-miterlimit: 10"/>
          <path d="M198.5,260.34s66.37,21.73,114.18,1.19" style="fill: none;stroke: #262626;stroke-miterlimit: 10"/>
          <path d="M146.75,412.84s2.37-15.81,4.35-18.57c0,0-10.67-18.17-3.16-27.26s14.61-19,33.18,0c0,0,11.46-21.73,31.61-16.59s17.38,30,17.38,30,17-5.92,22.91,5.14-5.53,22.52-10.27,25.28c0,0,1.19,26.07-13.43,45" style="fill: #00654d;stroke: #262626;stroke-miterlimit: 10"/>
          <path d="M292.53,454.71s34-11.06,39.11-60.44-16.59-116.54-24.1-124.45" style="fill: none;stroke: #262626;stroke-miterlimit: 10"/>
          <path d="M366.8,372.54s-8.69,1.58-17.38,10.27-14.62,10.67-17.78,11.46" style="fill: none;stroke: #262626;stroke-miterlimit: 10"/>
          <path d="M194.55,290.76s-20.93,43.06-21.33,68.35" style="fill: none;stroke: #262626;stroke-miterlimit: 10"/>
          <path d="M102.11,431.4s20.54-7.5,26.07-52.54c0,0,9.88,2.37,14.23-15.41s27.26-79.8,66.37-97.18" style="fill: none;stroke: #262626;stroke-linecap: round;stroke-linejoin: round;stroke-dasharray: 12"/>
          <path d="M306,452.74s26.07,19,59.65,2.37" style="fill: none;stroke: #262626;stroke-linecap: round;stroke-linejoin: round;stroke-dasharray: 12"/>
          <ellipse cx="192.36" cy="426.7" rx="46.64" ry="34.76" transform="translate(-275.47 441.24) rotate(-67.51)" style="fill: none;stroke: #262626;stroke-miterlimit: 10"/>
          <path d="M376.74,462.94c-11.37-2-17.65-20.05-14-40.23s19.58-37.2,30.94-35.16" style="fill: none;stroke: #262626;stroke-miterlimit: 10"/>
          <path d="M295.81,198.7a6.76,6.76,0,0,1,2.53-1c2.5-.46,8.68-1.43,11.18-.18,3.16,1.58,4,2.77,3.55,5.93-.39,2.69-2.11,7.3-5.33,8.29s-8.3-1.91-11-5.53C294.38,203.05,293,200.59,295.81,198.7Z" style="fill: #262626"/>
          <ellipse cx="272.71" cy="192.39" rx="2.7" ry="5.93" style="fill: #262626"/>
          <ellipse cx="311.69" cy="187.13" rx="2.7" ry="5.93" style="fill: #262626"/>
          <path d="M294.5,270.81s19.36,49.19,17.19,97.78-16.79,81.78-36.94,91.65" style="fill: none;stroke: #262626;stroke-linecap: round;stroke-linejoin: round;stroke-dasharray: 12"/>
          <path d="M232.48,278.52s37.53-15.81,63.6-15,41.49-6.71,58.47,2.77c0,0,7.51,18.17-5.13,22.91s-44.25-17.77-44.25-17.77S330.85,305,334.4,324.34l-18.56,16.6s-1.58-41.09-16.6-64.4c0,0,3.56,45.43-3.55,58.86l-19.75-11.06s13-30.81,16.59-48.19l-3.16-2.37s-30.82,35.55-47.8,25.28S232.48,278.52,232.48,278.52Z" style="fill: #fbc469;stroke: #262626;stroke-miterlimit: 10"/>
          <path d="M374.17,204.25s-6.32,25.81,2.11,41.08,21.07,35.29,23.7,47.93,4.75,30.56,4.75,30.56" style="fill: none;stroke: #262626;stroke-miterlimit: 10"/>
          <path d="M451.08,207.93s-15.28,15.8-17.91,35.29-4.21,59.53-15.8,78.49" style="fill: none;stroke: #262626;stroke-miterlimit: 10"/>
          <path d="M383.9,191.54c-.79,4.44-6.61,14.07-9.91,13.48s-2.81-11.18-2-15.62,4.11-7.55,7.4-7S384.7,187.1,383.9,191.54Z" style="fill: #262626"/>
          <path d="M387.55,219.37c-3.34,2.62-13.46,5.76-15.41,3.28s5-9.63,8.35-12.25,7.63-2.75,9.58-.27S390.89,216.74,387.55,219.37Z" style="fill: #262626"/>
          <path d="M409.25,278.59c-2.77,3.22-12.09,8.26-14.49,6.2s3.06-10.41,5.83-13.64,7-4.17,9.34-2.11S412,275.37,409.25,278.59Z" style="fill: #262626"/>
          <path d="M399,258.05c-2.77,3.22-12.1,8.26-14.49,6.2s3.06-10.42,5.83-13.64,6.95-4.17,9.34-2.12S401.75,254.83,399,258.05Z" style="fill: #262626"/>
          <path d="M390.29,237.11c-2.77,3.22-12.1,8.26-14.49,6.2s3.06-10.41,5.83-13.64,6.95-4.17,9.34-2.11S393.06,233.89,390.29,237.11Z" style="fill: #262626"/>
          <path d="M465.74,203.14c-2.76,3.22-12.09,8.25-14.48,6.2s3.06-10.42,5.82-13.64,6.95-4.17,9.35-2.12S468.51,199.91,465.74,203.14Z" style="fill: #262626"/>
          <path d="M414,297.07c-1.39,4-8.21,12.13-11.19,11.1s-1-10.81.4-14.82,4.93-6.44,7.91-5.41S415.4,293.06,414,297.07Z" style="fill: #262626"/>
          <path d="M438.94,310.11c-4,1.38-14.61,1-15.64-1.95s7.9-7.46,11.91-8.84,8.11-.1,9.14,2.88S443,308.72,438.94,310.11Z" style="fill: #262626"/>
          <path d="M444.47,288.38c-4,1.38-14.61,1-15.63-1.95s7.89-7.45,11.9-8.84,8.11-.1,9.14,2.88S448.49,287,444.47,288.38Z" style="fill: #262626"/>
          <path d="M447.63,265.86c-4,1.39-14.61,1-15.63-1.95s7.89-7.45,11.91-8.84S452,255,453,258,451.65,264.47,447.63,265.86Z" style="fill: #262626"/>
          <path d="M449.21,244.53c-4,1.38-14.6,1-15.63-1.95s7.89-7.46,11.91-8.84,8.1-.1,9.13,2.88S453.23,243.14,449.21,244.53Z" style="fill: #262626"/>
          <path d="M455.93,226.75c-4,1.39-14.61,1-15.64-1.95s7.9-7.45,11.91-8.84,8.11-.1,9.14,2.88S459.94,225.36,455.93,226.75Z" style="fill: #262626"/>
          <path d="M439.8,206.53c2.08,3.71,3.6,14.2.85,15.74s-8.73-6.45-10.81-10.16-1.53-8,1.22-9.5S437.73,202.83,439.8,206.53Z" style="fill: #262626"/>
          <path d="M429,226.56c2.7,3.29,6.05,13.34,3.61,15.34s-9.73-4.81-12.43-8.09-2.91-7.56-.47-9.57S426.25,223.28,429,226.56Z" style="fill: #262626"/>
          <path d="M423.42,273.57c2.7,3.29,6.05,13.34,3.61,15.34s-9.73-4.81-12.43-8.09-2.91-7.56-.47-9.56S420.72,270.29,423.42,273.57Z" style="fill: #262626"/>
          <path d="M419.07,295.3c2.7,3.29,6.05,13.34,3.62,15.34s-9.74-4.81-12.44-8.09-2.91-7.56-.47-9.57S416.38,292,419.07,295.3Z" style="fill: #262626"/>
          <path d="M364.39,209.56c3.49,2.43,9.43,11.2,7.63,13.79s-10.67-2-14.16-4.43-4.85-6.49-3-9.08S360.91,207.13,364.39,209.56Z" style="fill: #262626"/>
          <path d="M363.31,233.36c4,1.34,12.22,8.07,11.22,11.06s-10.8,1.11-14.83-.23-6.49-4.86-5.49-7.85S359.28,232,363.31,233.36Z" style="fill: #262626"/>
          <path d="M374.76,254.29c4,1.35,12.22,8.07,11.23,11.06s-10.8,1.12-14.83-.23-6.49-4.85-5.5-7.84S370.73,253,374.76,254.29Z" style="fill: #262626"/>
          <path d="M385.43,276c4,1.34,12.22,8.07,11.22,11.06s-10.79,1.11-14.83-.23-6.49-4.85-5.49-7.84S381.4,274.68,385.43,276Z" style="fill: #262626"/>
          <path d="M391.36,297.75c4,1.34,12.22,8.07,11.22,11.06s-10.8,1.11-14.83-.23-6.49-4.85-5.5-7.84S387.32,296.41,391.36,297.75Z" style="fill: #262626"/>
          <path d="M425.32,249.79c3,3,7.23,12.73,5,15s-10.13-3.91-13.11-6.94-3.58-7.27-1.34-9.48S422.34,246.76,425.32,249.79Z" style="fill: #262626"/>
          <polygon points="16.38 223.21 66.56 255.6 121.07 250.47 70.51 218.47 16.38 223.21" style="fill: none;stroke: #262626;stroke-miterlimit: 10"/>
          <polyline points="121.6 250.73 106.85 308.54 52.33 313.28 66.56 255.6 16.38 223.21 0.58 281.28 52.2 313.15" style="fill: none;stroke: #262626;stroke-miterlimit: 10"/>
          <circle cx="63.99" cy="187.06" r="5.73" style="fill: none;stroke: #262626;stroke-miterlimit: 10"/>
          <circle cx="106.65" cy="193.78" r="8.89" style="fill: none;stroke: #262626;stroke-miterlimit: 10"/>
          <circle cx="108.04" cy="153.68" r="4.35" style="fill: none;stroke: #262626;stroke-miterlimit: 10"/>
          <polygon points="392.48 56.49 399.19 130.37 465.17 147.75 535.49 118.52 527.98 45.04 461.22 27.26 392.48 56.49" style="fill: none;stroke: #262626;stroke-miterlimit: 10"/>
          <polyline points="392.38 57.09 457.66 73.88 465.17 147.75" style="fill: none;stroke: #262626;stroke-miterlimit: 10"/>
          <line x1="527.59" y1="45.14" x2="457.66" y2="73.88" style="fill: none;stroke: #262626;stroke-miterlimit: 10"/>
          <circle cx="435.28" cy="163.69" r="7.9" style="fill: none;stroke: #262626;stroke-miterlimit: 10"/>
          <circle cx="492.95" cy="207.93" r="4.74" style="fill: none;stroke: #262626;stroke-miterlimit: 10"/>
          <line x1="35.74" y1="400.59" x2="83.15" y2="400.59" style="fill: none;stroke: #262626;stroke-miterlimit: 10"/>
          <line x1="488.48" y1="401.77" x2="535.88" y2="401.77" style="fill: none;stroke: #262626;stroke-miterlimit: 10"/>
        </g>
      </g>
    </g>
  </g>
</svg>
