<svg xmlns="http://www.w3.org/2000/svg" viewBox="0 0 145 145"><defs><style>.cls-1{fill:none;stroke:#007b64;stroke-linecap:round;stroke-miterlimit:10;stroke-width:2px;}.cls-2{fill:#fff;}.cls-3{fill:#ebebeb;}.cls-4{fill:#ffc463;}.cls-5{fill:#c4c4c4;}</style></defs><title>31 Налогообложение физических лиц и ответы на актуальные вопросы налогоплательщиков копия 4</title><g id="_43_Местом_оказания_электронных_услуг_является_Республика_Беларусь_" data-name="43 Местом оказания электронных услуг является Республика Беларусь?"><line class="cls-1" x1="140.6" y1="123.39" x2="5.6" y2="123.55"/><rect class="cls-2" x="17.49" y="37" width="107.5" height="86" rx="6.98"/><path class="cls-3" d="M17.24,112.92h108a0,0,0,0,1,0,0v2.47a8,8,0,0,1-8,8h-92a8,8,0,0,1-8-8v-2.47A0,0,0,0,1,17.24,112.92Z"/><line class="cls-1" x1="26.27" y1="49.04" x2="116.21" y2="49.14"/><rect class="cls-4" x="91.16" y="42.76" width="22.48" height="2.02" rx="1.01" transform="matrix(1, 0, 0, 1, 0.05, -0.12)"/><rect class="cls-5" x="28.08" y="42.28" width="2.81" height="2.81" rx="1.41" transform="translate(0.05 -0.03) rotate(0.07)"/><rect class="cls-5" x="32.3" y="42.29" width="2.81" height="2.81" rx="1.41" transform="translate(0.05 -0.04) rotate(0.07)"/><rect class="cls-5" x="36.51" y="42.29" width="2.81" height="2.81" rx="1.41" transform="translate(0.05 -0.04) rotate(0.07)"/><path class="cls-1" d="M17.24,91.84V44.69a7.56,7.56,0,0,1,7.56-7.56h92.88a7.57,7.57,0,0,1,7.56,7.56V116a7.56,7.56,0,0,1-7.56,7.56H24.8A7.55,7.55,0,0,1,17.24,116V102.73"/><path class="cls-4" d="M67.9,85.28a8.26,8.26,0,0,1,1.6,5.15,7.62,7.62,0,0,1-3.37,6.66q-3.36,2.34-9.82,2.33h-17v-33h16.1q6,0,9.25,2.31A7.31,7.31,0,0,1,67.85,75a7.91,7.91,0,0,1-4.38,7.26A8.67,8.67,0,0,1,67.9,85.28ZM46.85,72.21V80h7.58a7.63,7.63,0,0,0,4.28-1,3.28,3.28,0,0,0,1.46-2.92,3.24,3.24,0,0,0-1.46-2.9,7.82,7.82,0,0,0-4.28-1ZM60.29,92.69a3.39,3.39,0,0,0,1.53-3.06q0-4.09-6.07-4.1h-8.9v8.15h8.9A8.43,8.43,0,0,0,60.29,92.69Z"/><path class="cls-4" d="M90.4,87.75V99.42H82.78V87.65L70,66.46h8.09l8.81,14.65,8.8-14.65h7.49Z"/></g></svg>