<svg xmlns="http://www.w3.org/2000/svg" viewBox="0 0 145 145"><defs><style>.cls-1,.cls-4{fill:none;}.cls-1,.cls-4,.cls-5{stroke:#007b64;stroke-linecap:round;stroke-linejoin:round;}.cls-1{stroke-width:2.09px;}.cls-2,.cls-5,.cls-7{fill:#fff;}.cls-3{fill:#ebebeb;}.cls-4,.cls-5,.cls-7{stroke-width:2px;}.cls-6{fill:#f1f1f1;}.cls-7{stroke:#ffc463;stroke-miterlimit:10;}.cls-8{fill:#ffc463;}</style></defs><title>31 Налогообложение физических лиц и ответы на актуальные вопросы налогоплательщиков копия 5</title><g id="_46_Местные_налоги_сборы_" data-name="46 Местные налоги (сборы)"><line class="cls-1" x1="6.48" y1="122.55" x2="126.1" y2="122.55"/><line class="cls-1" x1="130.61" y1="122.55" x2="141.48" y2="122.55"/><rect class="cls-2" x="26.28" y="37.97" width="58.15" height="84.59" rx="6.17"/><path class="cls-3" d="M40.14,38.78s1,9.51-5,16.54c-4.67,5.49-5.86,18.25-9.39,20l.62-31.14.35-3,1.59-1.7,3.15-1.49L40.71,38Z"/><path class="cls-4" d="M26.28,95.66V44.13A6.17,6.17,0,0,1,32.45,38H78.27a6.16,6.16,0,0,1,6.17,6.16v72.26a6.16,6.16,0,0,1-6.17,6.16H32.45a6.17,6.17,0,0,1-6.17-6.16V103.05"/><rect class="cls-5" x="33.49" y="32.37" width="62" height="90.18" rx="6.58"/><path class="cls-3" d="M34.43,76.77s5.82,4.25,8,24.36,5.1,21.24,7.1,21.32l-10.89-.06-3.09-1.67-1.78-2.94-.31-41Z"/><rect class="cls-4" x="33.49" y="32.37" width="62" height="90.18" rx="6.58"/><path class="cls-2" d="M108.48,104.94v11.61a6,6,0,0,1-6,6h-54a6,6,0,0,1-6-6v-84a6,6,0,0,1,6-6H91l17.49,18.5"/><path class="cls-6" d="M42.42,114.05h66a0,0,0,0,1,0,0v1a7,7,0,0,1-7,7h-52a7,7,0,0,1-7-7v-1A0,0,0,0,1,42.42,114.05Z"/><path class="cls-4" d="M108.48,103.71v12.84a6,6,0,0,1-6,6h-54a6,6,0,0,1-6-6v-84a6,6,0,0,1,6-6H90.56a1,1,0,0,1,.73.31l17.19,18.19"/><polyline class="cls-4" points="108.48 45.31 108.48 54.26 108.48 57.34"/><path class="cls-4" d="M100.48,45.05h-5a6,6,0,0,1-6-6v-5"/><circle class="cls-7" cx="107.38" cy="80.86" r="16.86"/><path class="cls-8" d="M97.67,80.2a6.11,6.11,0,0,1,0-7.51,4.4,4.4,0,0,1,3.36-1.4,4.34,4.34,0,0,1,3.34,1.4,6.15,6.15,0,0,1,0,7.51A4.31,4.31,0,0,1,101,81.6,4.36,4.36,0,0,1,97.67,80.2Zm4.79-1.54a3.82,3.82,0,0,0,.52-2.21,3.87,3.87,0,0,0-.52-2.22,1.72,1.72,0,0,0-2.85,0,4.85,4.85,0,0,0,0,4.41,1.72,1.72,0,0,0,2.85,0Zm9.71-7.16h3.19L102.58,90.21H99.4Zm-.84,18.3A4.25,4.25,0,0,1,109.69,88a6.59,6.59,0,0,1,0-5.45,4.22,4.22,0,0,1,1.64-1.8,4.59,4.59,0,0,1,2.39-.63,4.38,4.38,0,0,1,3.36,1.4,6.07,6.07,0,0,1,0,7.51,4.36,4.36,0,0,1-3.36,1.41A4.59,4.59,0,0,1,111.33,89.8Zm3.82-2.33a4.85,4.85,0,0,0,0-4.41,1.62,1.62,0,0,0-1.43-.76,1.65,1.65,0,0,0-1.41.75,4.83,4.83,0,0,0,0,4.44,1.66,1.66,0,0,0,1.41.74A1.62,1.62,0,0,0,115.15,87.47Z"/><line class="cls-4" x1="53.71" y1="71.23" x2="80" y2="71.23"/><line class="cls-4" x1="53.71" y1="79.02" x2="80" y2="79.02"/><line class="cls-4" x1="53.71" y1="86.8" x2="80" y2="86.8"/><line class="cls-4" x1="53.71" y1="63.44" x2="80" y2="63.44"/><line class="cls-4" x1="53.71" y1="55.66" x2="80" y2="55.66"/></g></svg>