<svg width="933" height="620" viewBox="0 0 933 620" fill="none" xmlns="http://www.w3.org/2000/svg">
<g clip-path="url(#clip0_44_606)">
<path d="M806.373 152.14C806.373 152.14 669.061 11.4888 490.609 0.669515C312.157 -10.1498 208.238 105.123 158.95 173.912C109.662 242.568 -13.3576 357.039 1.2017 462.027C15.6275 566.881 157.882 646.49 361.579 611.494C565.276 576.498 624.315 563.275 717.147 589.855C809.98 616.436 930.462 576.632 932.866 425.963C935.27 275.293 806.373 152.14 806.373 152.14Z" fill="#C4C4C4"/>
<path d="M27.3822 575.161H898.271" stroke="#263238" stroke-miterlimit="10"/>
<path d="M822.402 351.962L840.034 520.663" stroke="#263238" stroke-width="2" stroke-miterlimit="10"/>
<path d="M837.229 488.339L829.215 479.924" stroke="#263238" stroke-width="2" stroke-miterlimit="10"/>
<path d="M831.619 482.462C831.619 482.462 831.886 478.722 828.413 475.65C826.41 473.78 815.59 469.238 814.522 473.112C813.453 477.253 824.54 485.401 831.619 482.462Z" fill="white" stroke="#263238" stroke-miterlimit="10"/>
<path d="M831.619 482.462L821.334 476.05" stroke="#263238" stroke-width="0.5" stroke-miterlimit="10"/>
<path d="M839.232 507.573L831.218 499.158" stroke="#263238" stroke-width="2" stroke-miterlimit="10"/>
<path d="M833.622 501.562C833.622 501.562 833.89 497.822 830.417 494.75C828.413 492.88 817.594 488.339 816.525 492.212C815.457 496.353 826.543 504.501 833.622 501.562Z" fill="white" stroke="#263238" stroke-miterlimit="10"/>
<path d="M833.622 501.563L823.338 495.285" stroke="#263238" stroke-width="0.5" stroke-miterlimit="10"/>
<path d="M832.287 441.455L824.272 433.04" stroke="#263238" stroke-width="2" stroke-miterlimit="10"/>
<path d="M826.81 435.578C826.81 435.578 827.077 431.838 823.604 428.766C821.601 426.896 810.782 422.354 809.713 426.228C808.644 430.369 819.597 438.517 826.81 435.578Z" fill="white" stroke="#263238" stroke-miterlimit="10"/>
<path d="M826.81 435.578L816.525 429.167" stroke="#263238" stroke-width="0.5" stroke-miterlimit="10"/>
<path d="M834.29 460.689L826.276 452.274" stroke="#263238" stroke-width="2" stroke-miterlimit="10"/>
<path d="M828.814 454.812C828.814 454.812 829.081 451.072 825.608 448C823.605 446.13 812.785 441.589 811.717 445.462C810.648 449.603 821.601 457.751 828.814 454.812Z" fill="white" stroke="#263238" stroke-miterlimit="10"/>
<path d="M828.814 454.812L818.529 448.401" stroke="#263238" stroke-width="0.5" stroke-miterlimit="10"/>
<path d="M829.081 410.333L821.067 401.918" stroke="#263238" stroke-width="2" stroke-miterlimit="10"/>
<path d="M823.471 404.456C823.471 404.456 823.738 400.716 820.265 397.644C818.262 395.774 807.442 391.232 806.374 395.106C805.305 399.247 816.392 407.395 823.471 404.456Z" fill="white" stroke="#263238" stroke-miterlimit="10"/>
<path d="M823.471 404.456L813.186 398.044" stroke="#263238" stroke-width="0.5" stroke-miterlimit="10"/>
<path d="M825.742 379.077L817.861 370.662" stroke="#263238" stroke-width="2" stroke-miterlimit="10"/>
<path d="M820.265 373.2C820.265 373.2 820.532 369.46 817.06 366.388C815.056 364.518 804.237 359.977 803.168 363.85C802.099 367.991 813.186 376.005 820.265 373.2Z" fill="white" stroke="#263238" stroke-miterlimit="10"/>
<path d="M820.265 373.2L809.98 366.789" stroke="#263238" stroke-width="0.5" stroke-miterlimit="10"/>
<path d="M835.893 476.986L841.904 467.102" stroke="#263238" stroke-width="2" stroke-miterlimit="10"/>
<path d="M840.034 470.04C840.034 470.04 839.099 466.433 841.77 462.693C843.373 460.423 852.99 453.878 854.86 457.351C856.73 461.224 847.648 471.376 840.034 470.04Z" fill="white" stroke="#263238" stroke-miterlimit="10"/>
<path d="M840.034 470.04L849.384 461.224" stroke="#263238" stroke-width="0.5" stroke-miterlimit="10"/>
<path d="M830.55 426.496L836.695 416.611" stroke="#263238" stroke-width="2" stroke-miterlimit="10"/>
<path d="M834.825 419.55C834.825 419.55 833.89 415.943 836.561 412.203C838.164 409.932 847.781 403.387 849.651 406.86C851.521 410.734 842.305 420.885 834.825 419.55Z" fill="white" stroke="#263238" stroke-miterlimit="10"/>
<path d="M834.825 419.55L844.041 410.734" stroke="#263238" stroke-width="0.5" stroke-miterlimit="10"/>
<path d="M828.28 404.323L834.29 394.438" stroke="#263238" stroke-width="2" stroke-miterlimit="10"/>
<path d="M832.554 397.377C832.554 397.377 831.619 393.77 834.29 390.03C835.893 387.76 845.51 381.215 847.38 384.687C849.117 388.561 840.034 398.712 832.554 397.377Z" fill="white" stroke="#263238" stroke-miterlimit="10"/>
<path d="M832.554 397.377L841.77 388.561" stroke="#263238" stroke-width="0.5" stroke-miterlimit="10"/>
<path d="M824.94 371.731L830.951 361.846" stroke="#263238" stroke-width="2" stroke-miterlimit="10"/>
<path d="M829.081 364.919C829.081 364.919 828.146 361.312 830.817 357.572C832.42 355.302 842.038 348.757 843.908 352.229C845.778 355.969 836.695 366.255 829.081 364.919Z" fill="white" stroke="#263238" stroke-miterlimit="10"/>
<path d="M829.081 364.919L838.297 355.969" stroke="#263238" stroke-width="0.5" stroke-miterlimit="10"/>
<path d="M822.269 351.027C822.269 351.027 821.334 347.421 824.005 343.681C825.608 341.41 835.225 334.865 837.095 338.338C838.965 342.078 829.882 352.363 822.269 351.027Z" fill="white" stroke="#263238" stroke-miterlimit="10"/>
<path d="M822.269 351.027L831.485 342.211" stroke="#263238" stroke-width="0.5" stroke-miterlimit="10"/>
<path d="M822.803 351.428C822.803 351.428 819.063 352.096 815.724 349.023C813.72 347.153 808.11 336.868 811.717 335.533C815.724 333.796 824.94 343.948 822.803 351.428Z" fill="white" stroke="#263238" stroke-miterlimit="10"/>
<path d="M822.803 351.428L815.056 341.276" stroke="#263238" stroke-width="0.5" stroke-miterlimit="10"/>
<path d="M868.885 375.203L851.388 543.905" stroke="#263238" stroke-width="2" stroke-miterlimit="10"/>
<path d="M855.261 511.714L849.117 501.83" stroke="#263238" stroke-width="2" stroke-miterlimit="10"/>
<path d="M850.987 504.768C850.987 504.768 851.922 501.161 849.25 497.421C847.648 495.151 838.03 488.606 836.16 492.079C834.29 495.952 843.507 506.104 850.987 504.768Z" fill="white" stroke="#263238" stroke-miterlimit="10"/>
<path d="M850.987 504.768L842.305 496.353" stroke="#263238" stroke-width="0.5" stroke-miterlimit="10"/>
<path d="M860.07 464.83L854.059 454.946" stroke="#263238" stroke-width="2" stroke-miterlimit="10"/>
<path d="M855.929 457.884C855.929 457.884 856.864 454.278 854.193 450.538C852.59 448.267 842.972 441.722 841.102 445.195C839.232 449.068 848.315 459.353 855.929 457.884Z" fill="white" stroke="#263238" stroke-miterlimit="10"/>
<path d="M855.929 457.884L847.113 449.603" stroke="#263238" stroke-width="0.5" stroke-miterlimit="10"/>
<path d="M858.066 484.065L852.055 474.18" stroke="#263238" stroke-width="2" stroke-miterlimit="10"/>
<path d="M853.925 477.119C853.925 477.119 854.86 473.512 852.189 469.906C850.586 467.635 840.969 461.09 839.099 464.563C837.229 468.303 846.312 478.454 853.925 477.119Z" fill="white" stroke="#263238" stroke-miterlimit="10"/>
<path d="M853.925 477.119L845.11 468.704" stroke="#263238" stroke-width="0.5" stroke-miterlimit="10"/>
<path d="M863.276 433.708L857.265 423.824" stroke="#263238" stroke-width="2" stroke-miterlimit="10"/>
<path d="M859.135 426.762C859.135 426.762 860.07 423.156 857.398 419.549C855.795 417.279 846.178 410.734 844.308 414.207C842.438 417.947 851.521 428.098 859.135 426.762Z" fill="white" stroke="#263238" stroke-miterlimit="10"/>
<path d="M859.135 426.762L850.319 418.347" stroke="#263238" stroke-width="0.5" stroke-miterlimit="10"/>
<path d="M866.615 402.452L860.47 392.435" stroke="#263238" stroke-width="2" stroke-miterlimit="10"/>
<path d="M862.34 395.506C862.34 395.506 863.275 391.9 860.604 388.294C859.001 386.023 849.384 379.478 847.514 382.951C845.644 386.691 854.86 396.842 862.34 395.506Z" fill="white" stroke="#263238" stroke-miterlimit="10"/>
<path d="M862.341 395.506L853.658 387.091" stroke="#263238" stroke-width="0.5" stroke-miterlimit="10"/>
<path d="M856.33 500.36L864.211 491.812" stroke="#263238" stroke-width="2" stroke-miterlimit="10"/>
<path d="M861.806 494.35C861.806 494.35 861.539 490.61 865.012 487.537C867.015 485.667 877.835 481.126 878.903 485C879.972 489.14 868.886 497.288 861.806 494.35Z" fill="white" stroke="#263238" stroke-miterlimit="10"/>
<path d="M861.806 494.349L872.626 487.671" stroke="#263238" stroke-width="0.5" stroke-miterlimit="10"/>
<path d="M861.539 449.87L869.42 441.321" stroke="#263238" stroke-width="2" stroke-miterlimit="10"/>
<path d="M867.015 443.859C867.015 443.859 866.748 440.119 870.221 437.047C872.225 435.177 883.044 430.636 884.113 434.509C885.181 438.65 874.228 446.798 867.015 443.859Z" fill="white" stroke="#263238" stroke-miterlimit="10"/>
<path d="M867.016 443.859L877.968 437.181" stroke="#263238" stroke-width="0.5" stroke-miterlimit="10"/>
<path d="M863.81 427.564L871.824 419.148" stroke="#263238" stroke-width="2" stroke-miterlimit="10"/>
<path d="M869.42 421.686C869.42 421.686 869.153 417.946 872.625 414.874C874.629 413.004 885.448 408.463 886.517 412.336C887.452 416.477 876.499 424.625 869.42 421.686Z" fill="white" stroke="#263238" stroke-miterlimit="10"/>
<path d="M869.42 421.686L880.239 415.008" stroke="#263238" stroke-width="0.5" stroke-miterlimit="10"/>
<path d="M867.149 395.105L875.163 386.69" stroke="#263238" stroke-width="2" stroke-miterlimit="10"/>
<path d="M872.759 389.228C872.759 389.228 872.492 385.488 875.965 382.416C877.968 380.546 888.788 376.005 889.856 379.878C890.925 384.019 879.838 392.033 872.759 389.228Z" fill="white" stroke="#263238" stroke-miterlimit="10"/>
<path d="M872.759 389.228L883.578 382.416" stroke="#263238" stroke-width="0.5" stroke-miterlimit="10"/>
<path d="M868.886 374.269C868.886 374.269 868.618 370.529 872.091 367.456C874.095 365.586 884.914 361.045 885.983 364.918C887.051 368.926 876.098 377.074 868.886 374.269Z" fill="white" stroke="#263238" stroke-miterlimit="10"/>
<path d="M868.885 374.268L879.838 367.456" stroke="#263238" stroke-width="0.5" stroke-miterlimit="10"/>
<path d="M869.42 374.669C869.42 374.669 865.68 374.536 863.008 370.795C861.405 368.525 858.066 357.305 861.94 356.77C866.08 356.103 873.026 367.857 869.42 374.669Z" fill="white" stroke="#263238" stroke-miterlimit="10"/>
<path d="M869.42 374.669L863.81 363.182" stroke="#263238" stroke-width="0.5" stroke-miterlimit="10"/>
<path d="M848.85 306.414V519.862" stroke="#263238" stroke-width="2" stroke-miterlimit="10"/>
<path d="M848.983 487.671L841.904 478.455" stroke="#263238" stroke-width="2" stroke-miterlimit="10"/>
<path d="M844.041 481.26C844.041 481.26 844.709 477.52 841.637 474.18C839.767 472.177 829.482 466.567 828.146 470.173C826.543 474.18 836.695 483.397 844.041 481.26Z" fill="white" stroke="#263238" stroke-miterlimit="10"/>
<path d="M844.041 481.26L834.557 473.913" stroke="#263238" stroke-width="0.5" stroke-miterlimit="10"/>
<path d="M848.983 447.599L841.904 438.383" stroke="#263238" stroke-width="2" stroke-miterlimit="10"/>
<path d="M844.041 441.188C844.041 441.188 844.709 437.448 841.637 434.109C839.767 432.105 829.482 426.495 828.146 430.101C826.543 434.109 836.695 443.325 844.041 441.188Z" fill="white" stroke="#263238" stroke-miterlimit="10"/>
<path d="M844.041 441.188L834.557 433.708" stroke="#263238" stroke-width="0.5" stroke-miterlimit="10"/>
<path d="M848.983 400.582L841.904 391.366" stroke="#263238" stroke-width="2" stroke-miterlimit="10"/>
<path d="M844.041 394.171C844.041 394.171 844.709 390.431 841.637 387.092C839.767 385.088 829.482 379.478 828.146 383.084C826.543 387.092 836.695 396.308 844.041 394.171Z" fill="white" stroke="#263238" stroke-miterlimit="10"/>
<path d="M844.041 394.171L834.557 386.691" stroke="#263238" stroke-width="0.5" stroke-miterlimit="10"/>
<path d="M848.983 369.193L841.904 359.976" stroke="#263238" stroke-width="2" stroke-miterlimit="10"/>
<path d="M844.041 362.781C844.041 362.781 844.709 359.041 841.637 355.702C839.767 353.698 829.482 348.088 828.146 351.695C826.543 355.702 836.695 364.918 844.041 362.781Z" fill="white" stroke="#263238" stroke-miterlimit="10"/>
<path d="M844.041 362.781L834.557 355.301" stroke="#263238" stroke-width="0.5" stroke-miterlimit="10"/>
<path d="M848.983 337.803L841.904 328.587" stroke="#263238" stroke-width="2" stroke-miterlimit="10"/>
<path d="M844.041 331.258C844.041 331.258 844.709 327.518 841.637 324.179C839.767 322.175 829.482 316.565 828.146 320.172C826.543 324.179 836.695 333.395 844.041 331.258Z" fill="white" stroke="#263238" stroke-miterlimit="10"/>
<path d="M844.041 331.259L834.557 323.912" stroke="#263238" stroke-width="0.5" stroke-miterlimit="10"/>
<path d="M848.85 499.96L855.929 490.743" stroke="#263238" stroke-width="2" stroke-miterlimit="10"/>
<path d="M853.792 493.548C853.792 493.548 853.124 489.808 856.196 486.469C858.066 484.465 868.351 478.855 869.687 482.462C871.29 486.469 861.138 495.685 853.792 493.548Z" fill="white" stroke="#263238" stroke-miterlimit="10"/>
<path d="M853.792 493.548L863.81 485.667" stroke="#263238" stroke-width="0.5" stroke-miterlimit="10"/>
<path d="M848.85 436.246L855.929 427.029" stroke="#263238" stroke-width="2" stroke-miterlimit="10"/>
<path d="M853.792 429.701C853.792 429.701 853.124 425.961 856.196 422.621C858.066 420.618 868.351 415.008 869.687 418.614C871.29 422.621 861.138 431.838 853.792 429.701Z" fill="white" stroke="#263238" stroke-miterlimit="10"/>
<path d="M853.792 429.701L863.81 421.954" stroke="#263238" stroke-width="0.5" stroke-miterlimit="10"/>
<path d="M848.85 404.723L855.929 395.506" stroke="#263238" stroke-width="2" stroke-miterlimit="10"/>
<path d="M853.792 398.311C853.792 398.311 853.124 394.571 856.196 391.232C858.066 389.229 868.351 383.619 869.687 387.225C871.29 391.232 861.138 400.449 853.792 398.311Z" fill="white" stroke="#263238" stroke-miterlimit="10"/>
<path d="M853.792 398.311L863.81 390.431" stroke="#263238" stroke-width="0.5" stroke-miterlimit="10"/>
<path d="M848.85 363.182L855.929 353.966" stroke="#263238" stroke-width="2" stroke-miterlimit="10"/>
<path d="M853.792 356.637C853.792 356.637 853.124 352.897 856.196 349.558C858.066 347.554 868.351 341.944 869.687 345.551C871.29 349.558 861.138 358.774 853.792 356.637Z" fill="white" stroke="#263238" stroke-miterlimit="10"/>
<path d="M853.792 356.637L863.81 348.89" stroke="#263238" stroke-width="0.5" stroke-miterlimit="10"/>
<path d="M848.85 330.457L855.929 321.241" stroke="#263238" stroke-width="2" stroke-miterlimit="10"/>
<path d="M853.792 323.912C853.792 323.912 853.124 320.172 856.196 316.833C858.066 314.829 868.351 309.219 869.687 312.826C871.29 316.966 861.138 326.183 853.792 323.912Z" fill="white" stroke="#263238" stroke-miterlimit="10"/>
<path d="M853.792 323.912L863.81 316.165" stroke="#263238" stroke-width="0.5" stroke-miterlimit="10"/>
<path d="M848.449 309.486C848.449 309.486 847.781 305.746 850.853 302.407C852.723 300.403 863.008 294.793 864.344 298.4C865.947 302.407 855.795 311.623 848.449 309.486Z" fill="white" stroke="#263238" stroke-miterlimit="10"/>
<path d="M848.449 309.486L858.467 301.605" stroke="#263238" stroke-width="0.5" stroke-miterlimit="10"/>
<path d="M848.85 309.887C848.85 309.887 845.11 310.154 842.038 306.681C840.168 304.678 835.626 293.858 839.5 292.79C843.774 291.721 851.788 302.808 848.85 309.887Z" fill="white" stroke="#263238" stroke-miterlimit="10"/>
<path d="M848.85 309.887L842.171 299.067" stroke="#263238" stroke-width="0.5" stroke-miterlimit="10"/>
<path d="M857.532 575.161H834.958L832.153 518.125H860.47L857.532 575.161Z" fill="white" stroke="#263238" stroke-miterlimit="10"/>
<path d="M847.328 126.235C847.328 103.136 827.852 84.6797 804.414 86.2649C784.938 87.6237 768.973 103.249 767.388 122.725C766.482 133.822 769.992 144.012 776.559 151.825C782.447 158.846 785.731 167.791 785.731 177.076V182.511H828.985V177.076C828.985 167.904 832.155 158.959 838.043 151.938C843.818 145.031 847.328 136.086 847.328 126.235Z" fill="#FBC469" stroke="#263238" stroke-miterlimit="10" stroke-linecap="round" stroke-linejoin="round"/>
<path d="M828.871 182.624H785.617V193.381H828.871V182.624Z" fill="#00654D" stroke="#263238" stroke-miterlimit="10" stroke-linecap="round" stroke-linejoin="round"/>
<path d="M823.55 204.025H790.939C787.995 204.025 785.617 201.647 785.617 198.703V193.381H828.871V198.703C828.871 201.647 826.494 204.025 823.55 204.025Z" fill="#00654D" stroke="#263238" stroke-miterlimit="10" stroke-linecap="round" stroke-linejoin="round"/>
<path d="M816.19 214.781H798.299C794.336 214.781 791.053 211.498 791.053 207.535V204.138H823.437V207.535C823.437 211.498 820.153 214.781 816.19 214.781Z" fill="#263238" stroke="#263238" stroke-miterlimit="10" stroke-linecap="round" stroke-linejoin="round"/>
<path d="M852.99 126.461H871.333" stroke="#263238" stroke-miterlimit="10" stroke-linecap="round" stroke-linejoin="round"/>
<path d="M741.458 126.461H760.028" stroke="#263238" stroke-miterlimit="10" stroke-linecap="round" stroke-linejoin="round"/>
<path d="M806.339 79.9234V61.5801" stroke="#263238" stroke-miterlimit="10" stroke-linecap="round" stroke-linejoin="round"/>
<path d="M839.628 93.2843L852.31 80.6025" stroke="#263238" stroke-miterlimit="10" stroke-linecap="round" stroke-linejoin="round"/>
<path d="M760.481 172.433L773.275 159.524" stroke="#263238" stroke-miterlimit="10" stroke-linecap="round" stroke-linejoin="round"/>
<path d="M772.823 92.8314L760.481 80.6025" stroke="#263238" stroke-miterlimit="10" stroke-linecap="round" stroke-linejoin="round"/>
<path d="M852.31 172.432L840.081 160.203" stroke="#263238" stroke-miterlimit="10" stroke-linecap="round" stroke-linejoin="round"/>
<path d="M539.898 108.327L477.386 21.7725L414.741 108.327H440.52V204.365H514.118V108.327H539.898Z" fill="#00654D" stroke="#263238" stroke-miterlimit="10" stroke-linecap="round" stroke-linejoin="round"/>
<path d="M487.153 256.034C522.328 250.348 546.232 217.223 540.546 182.048C534.859 146.874 501.734 122.969 466.56 128.656C431.385 134.342 407.48 167.467 413.167 202.642C418.854 237.816 451.978 261.721 487.153 256.034Z" fill="#FBC469" stroke="#263238" stroke-miterlimit="10" stroke-linecap="round" stroke-linejoin="round"/>
<path d="M525.848 217.128C539.498 190.055 528.617 157.044 501.544 143.394C474.472 129.744 441.461 140.625 427.811 167.697C414.161 194.769 425.042 227.781 452.114 241.431C479.186 255.081 512.198 244.2 525.848 217.128Z" fill="#FBC469" stroke="#263238" stroke-miterlimit="10" stroke-linecap="round" stroke-linejoin="round"/>
<path d="M110.197 191.008H98.0417V227.473H110.197V191.008Z" stroke="#263238" stroke-width="2" stroke-miterlimit="10" stroke-linecap="round" stroke-linejoin="round"/>
<path d="M129.431 204.098H117.276V227.473H129.431V204.098Z" stroke="#007B64" stroke-width="2" stroke-miterlimit="10" stroke-linecap="round" stroke-linejoin="round"/>
<path d="M148.532 182.993H136.377V227.339H148.532V182.993Z" stroke="#263238" stroke-width="2" stroke-miterlimit="10" stroke-linecap="round" stroke-linejoin="round"/>
<path d="M167.766 192.21H155.611V227.473H167.766V192.21Z" stroke="#007B64" stroke-width="2" stroke-miterlimit="10" stroke-linecap="round" stroke-linejoin="round"/>
<path d="M187.001 184.195H174.846V227.473H187.001V184.195Z" stroke="#263238" stroke-width="2" stroke-miterlimit="10" stroke-linecap="round" stroke-linejoin="round"/>
<path d="M206.102 158.55H193.946V227.473H206.102V158.55Z" stroke="#007B64" stroke-width="2" stroke-miterlimit="10" stroke-linecap="round" stroke-linejoin="round"/>
<path d="M219.993 157.882H227.072" stroke="#263238" stroke-width="0.5" stroke-miterlimit="10" stroke-linecap="round" stroke-linejoin="round"/>
<path d="M219.993 171.773H227.072" stroke="#263238" stroke-width="0.5" stroke-miterlimit="10" stroke-linecap="round" stroke-linejoin="round"/>
<path d="M219.993 185.665H227.072" stroke="#263238" stroke-width="0.5" stroke-miterlimit="10" stroke-linecap="round" stroke-linejoin="round"/>
<path d="M219.993 199.557H227.072" stroke="#263238" stroke-width="0.5" stroke-miterlimit="10" stroke-linecap="round" stroke-linejoin="round"/>
<path d="M219.993 213.581H227.072" stroke="#263238" stroke-width="0.5" stroke-miterlimit="10" stroke-linecap="round" stroke-linejoin="round"/>
<path d="M219.993 227.473H227.072" stroke="#263238" stroke-width="0.5" stroke-miterlimit="10" stroke-linecap="round" stroke-linejoin="round"/>
<path d="M104.987 177.651L123.688 188.871L143.189 168.034L162.423 169.636L180.99 162.29L202.094 134.641" stroke="#263238" stroke-miterlimit="10" stroke-linecap="round" stroke-linejoin="round"/>
<path d="M107.392 177.65C107.392 176.315 106.323 175.246 104.987 175.246C103.652 175.246 102.583 176.315 102.583 177.65C102.583 178.986 103.652 180.055 104.987 180.055C106.323 180.055 107.392 178.853 107.392 177.65Z" fill="#263238"/>
<path d="M126.092 188.871C126.092 187.535 125.023 186.467 123.688 186.467C122.352 186.467 121.283 187.535 121.283 188.871C121.283 190.207 122.352 191.275 123.688 191.275C125.023 191.275 126.092 190.207 126.092 188.871Z" fill="#263238"/>
<path d="M145.593 168.033C145.593 166.697 144.525 165.629 143.189 165.629C141.853 165.629 140.785 166.697 140.785 168.033C140.785 169.369 141.853 170.438 143.189 170.438C144.525 170.438 145.593 169.369 145.593 168.033Z" fill="#263238"/>
<path d="M164.828 169.637C164.828 168.301 163.759 167.232 162.423 167.232C161.088 167.232 160.019 168.301 160.019 169.637C160.019 170.972 161.088 172.041 162.423 172.041C163.759 172.041 164.828 170.972 164.828 169.637Z" fill="#263238"/>
<path d="M183.394 161.89C183.394 160.554 182.326 159.485 180.99 159.485C179.654 159.485 178.586 160.554 178.586 161.89C178.586 163.225 179.654 164.294 180.99 164.294C182.326 164.294 183.394 163.225 183.394 161.89Z" fill="#263238"/>
<path d="M204.499 134.641C204.499 133.305 203.43 132.236 202.094 132.236C200.759 132.236 199.69 133.305 199.69 134.641C199.69 135.976 200.759 137.045 202.094 137.045C203.43 137.045 204.499 135.843 204.499 134.641Z" fill="#263238"/>
<path d="M669.992 517.477H677.605V444.146H669.992V517.477Z" fill="#263238" stroke="#263238" stroke-miterlimit="10" stroke-linecap="round" stroke-linejoin="round"/>
<path d="M707.973 446.743L721.372 448.309L729.885 375.477L716.486 373.91L707.973 446.743Z" fill="#263238" stroke="#263238" stroke-miterlimit="10" stroke-linecap="round" stroke-linejoin="round"/>
<path d="M664.12 520.396V508.107H683.488V520.53L760.826 551.518V566.211H755.483V555.125L673.47 536.425L593.727 555.125V566.211H588.652V551.518L664.12 520.396Z" fill="#8C8C8C" stroke="#263238" stroke-miterlimit="10" stroke-linecap="round" stroke-linejoin="round"/>
<path d="M654.764 467.545H692.832V444.17H654.764V467.545Z" fill="#263238" stroke="#263238" stroke-miterlimit="10" stroke-linecap="round" stroke-linejoin="round"/>
<path d="M760.826 566.745C760.826 562.204 764.432 558.598 768.974 558.598C773.515 558.598 777.122 562.204 777.122 566.745C777.122 571.287 773.515 574.893 768.974 574.893C764.432 575.027 760.826 571.287 760.826 566.745Z" fill="#263238" stroke="#263238" stroke-miterlimit="10" stroke-linecap="round" stroke-linejoin="round"/>
<path d="M765.501 566.745C765.501 564.742 767.104 563.272 768.974 563.272C770.977 563.272 772.447 564.875 772.447 566.745C772.447 568.749 770.844 570.218 768.974 570.218C766.97 570.352 765.501 568.749 765.501 566.745Z" fill="white" stroke="#263238" stroke-miterlimit="10" stroke-linecap="round" stroke-linejoin="round"/>
<path d="M571.554 566.746C571.554 562.204 575.161 558.598 579.702 558.598C584.244 558.598 587.85 562.204 587.85 566.746C587.85 571.287 584.244 574.893 579.702 574.893C575.161 574.893 571.554 571.287 571.554 566.746Z" fill="#263238" stroke="#263238" stroke-miterlimit="10" stroke-linecap="round" stroke-linejoin="round"/>
<path d="M579.836 570.218C581.754 570.218 583.309 568.663 583.309 566.745C583.309 564.827 581.754 563.272 579.836 563.272C577.918 563.272 576.363 564.827 576.363 566.745C576.363 568.663 577.918 570.218 579.836 570.218Z" fill="white" stroke="#263238" stroke-miterlimit="10" stroke-linecap="round" stroke-linejoin="round"/>
<path d="M670.264 566.612H676.676L680.015 522.667H667.058L670.264 566.612Z" fill="#8C8C8C" stroke="#263238" stroke-miterlimit="10" stroke-linecap="round" stroke-linejoin="round"/>
<path d="M670.659 575.369H677.071V557.203H670.659V575.369Z" fill="#263238" stroke="#263238" stroke-miterlimit="10" stroke-linecap="round" stroke-linejoin="round"/>
<path d="M724.494 410.333C740.256 411.802 754.281 400.315 755.884 384.42L764.833 291.053C766.302 275.292 754.815 261.267 738.92 259.664C723.159 258.194 709.134 269.682 707.531 285.577L698.581 378.943C697.112 394.838 708.733 408.864 724.494 410.333Z" fill="#8C8C8C" stroke="#263238" stroke-miterlimit="10" stroke-linecap="round" stroke-linejoin="round"/>
<path d="M717.682 409.665C733.444 411.134 747.469 399.647 749.072 383.752L758.021 290.385C759.49 274.624 748.003 260.599 732.108 258.996C716.346 257.526 702.321 269.014 700.718 284.909L691.769 378.275C690.3 394.171 701.921 408.196 717.682 409.665Z" fill="#8C8C8C" stroke="#263238" stroke-miterlimit="10" stroke-linecap="round" stroke-linejoin="round"/>
<path d="M592.659 451.339L726.765 454.812C729.837 454.946 732.509 452.408 732.642 449.336L733.31 427.831C733.444 424.759 730.906 422.087 727.834 421.954L593.727 418.481C590.655 418.347 587.984 420.885 587.85 423.957L587.182 445.462C587.049 448.668 589.587 451.339 592.659 451.339Z" fill="#8C8C8C" stroke="#263238" stroke-miterlimit="10" stroke-linecap="round" stroke-linejoin="round"/>
<path d="M648.759 452.408L726.765 454.812C729.837 454.946 732.509 452.408 732.642 449.336L733.31 427.831C733.444 424.759 730.906 422.087 727.834 421.954L649.828 419.549C646.755 419.416 644.084 421.954 643.95 425.026L643.283 446.531C643.149 449.737 645.553 452.408 648.759 452.408Z" fill="#8C8C8C" stroke="#263238" stroke-miterlimit="10" stroke-linecap="round" stroke-linejoin="round"/>
<path d="M583.709 543.237L583.041 548.179C583.041 548.179 577.164 560.067 574.76 562.07C572.489 564.074 557.93 570.352 555.258 571.287C552.587 572.222 557.262 575.294 563.54 575.561C569.818 575.828 581.305 575.828 585.312 574.893C589.319 573.958 596.799 568.348 598.536 567.948L599.872 572.222C599.872 572.222 607.084 569.551 609.756 568.883C612.427 568.215 616.702 564.875 616.702 564.875C616.702 564.875 613.362 554.991 611.492 551.385C609.489 547.778 606.817 545.508 606.817 545.508L601.875 539.63L583.709 543.237Z" fill="#263238" stroke="#263238" stroke-miterlimit="10" stroke-linecap="round" stroke-linejoin="round"/>
<path d="M623.647 354.9L612.828 361.445L589.052 368.391C589.052 368.391 513.985 382.283 509.711 387.225C505.436 392.167 507.039 396.441 510.646 402.719C514.252 408.997 577.832 547.778 577.832 547.778L604.146 542.569L559.934 409.665C559.934 409.665 643.015 426.495 657.441 423.823C672 421.152 690.433 405.658 693.639 393.903C696.978 382.015 681.751 363.315 681.751 363.315L623.647 354.9Z" fill="#00654D" stroke="#263238" stroke-miterlimit="10" stroke-linecap="round" stroke-linejoin="round"/>
<path d="M541.367 396.708C541.367 396.708 557.93 404.856 561.002 413.806" stroke="#263238" stroke-miterlimit="10" stroke-linecap="round" stroke-linejoin="round"/>
<path d="M709.668 244.838L674.004 241.632L621.911 359.576L656.239 365.453L709.668 244.838Z" fill="white" stroke="#263238" stroke-miterlimit="10" stroke-linecap="round" stroke-linejoin="round"/>
<path d="M674.672 252.585C674.672 252.585 622.579 357.839 621.911 359.576C621.243 361.179 606.417 365.453 603.077 366.121C599.738 366.789 588.919 368.391 588.919 368.391L607.352 355.836L620.575 321.908L604.413 313.627C604.413 313.627 634.066 269.148 640.611 254.054C647.156 238.96 649.828 234.953 656.373 234.552C662.918 234.285 681.751 235.487 681.751 235.487L674.672 252.585Z" fill="#00654D" stroke="#263238" stroke-miterlimit="10" stroke-linecap="round" stroke-linejoin="round"/>
<path d="M667.459 274.891L668.127 282.505C668.127 282.505 633.532 344.482 633.264 345.818C632.997 347.153 635.936 356.37 635.936 356.37L648.091 347.421L671.199 283.84L677.477 280.234L677.61 268.479L667.459 274.891Z" fill="#263238" stroke="#263238" stroke-miterlimit="10" stroke-linecap="round" stroke-linejoin="round"/>
<path d="M681.217 161.088C681.217 161.088 668.928 190.741 666.257 199.69C663.585 208.639 661.582 223.332 662.116 224.935C662.65 226.538 666.257 232.282 672.401 232.549C678.679 232.816 684.156 232.816 684.156 232.816L674.672 252.718C674.672 252.718 675.74 268.212 677.343 268.48C678.946 268.747 702.856 250.314 703.39 249.512C703.924 248.711 719.151 216.119 719.151 216.119C719.151 216.119 732.776 209.307 733.577 203.296C734.379 197.286 730.104 194.347 730.104 194.347V187.001L736.115 169.102C736.115 169.102 721.155 159.351 704.592 155.211C688.029 151.07 684.423 153.875 684.423 153.875L681.217 161.088Z" fill="white" stroke="#263238" stroke-miterlimit="10" stroke-linecap="round" stroke-linejoin="round"/>
<path d="M708.599 144.391C708.599 144.391 684.156 137.846 673.203 147.33C662.383 156.813 690.567 172.041 699.783 173.376C709 174.712 720.487 172.842 717.682 175.246C715.011 177.651 709 181.524 711.938 183.929C714.877 186.333 718.216 187.401 718.216 187.401C718.216 187.401 705.393 215.452 703.256 218.657C701.119 221.863 696.978 221.596 694.574 220.794C692.17 219.993 680.416 212.647 676.676 211.311C672.935 209.975 665.856 205.834 664.12 210.242C662.517 214.65 658.376 233.083 664.387 237.09C670.398 241.231 699.516 230.812 703.791 227.874C708.199 224.935 709.534 219.459 710.336 218.39C711.137 217.322 722.891 197.954 723.96 196.618C725.029 195.282 729.971 193.946 729.971 193.946C729.971 193.946 739.721 174.311 740.523 166.831C741.592 159.351 715.946 144.124 708.599 144.391Z" fill="#263238" stroke="#263238" stroke-miterlimit="10" stroke-linecap="round" stroke-linejoin="round"/>
<path d="M683.087 182.192L682.553 194.214C682.553 194.214 669.73 208.64 669.73 210.242C669.73 211.845 684.957 209.975 684.957 209.975" stroke="#263238" stroke-miterlimit="10" stroke-linecap="round" stroke-linejoin="round"/>
<path d="M681.217 179.521C681.217 179.521 679.614 176.316 676.008 177.384" stroke="#263238" stroke-miterlimit="10" stroke-linecap="round" stroke-linejoin="round"/>
<path d="M692.57 186.333C692.57 186.333 700.451 185.532 702.856 191.543" stroke="#263238" stroke-miterlimit="10" stroke-linecap="round" stroke-linejoin="round"/>
<path d="M671.466 216.521C671.466 216.521 678.546 220.928 683.221 220.928" stroke="white" stroke-miterlimit="10" stroke-linecap="round" stroke-linejoin="round"/>
<path d="M695.242 198.087C694.441 199.557 693.105 200.358 692.17 199.957C691.235 199.423 691.101 197.954 691.769 196.485C692.571 195.015 693.906 194.214 694.841 194.615C695.91 195.015 696.043 196.618 695.242 198.087Z" fill="#263238"/>
<path d="M678.278 191.409C677.477 192.878 676.141 193.679 675.206 193.279C674.271 192.744 674.138 191.275 674.805 189.806C675.607 188.337 676.943 187.535 677.878 187.936C678.813 188.47 679.08 189.939 678.278 191.409Z" fill="#263238"/>
<path d="M560.334 532.15L558.064 546.042L553.121 547.378C553.121 547.378 548.446 552.988 547.511 554.323C546.576 555.659 534.288 564.475 531.082 566.211C527.876 567.948 519.595 568.482 519.862 570.886C520.129 573.157 537.627 575.161 548.847 575.561C560.067 575.828 566.345 572.222 566.345 572.222L567.28 574.493L578.767 573.558C578.767 573.558 578.099 562.738 578.5 558.063C578.767 553.388 577.832 546.843 577.832 546.843L577.164 537.226L560.334 532.15Z" fill="#263238" stroke="#263238" stroke-miterlimit="10" stroke-linecap="round" stroke-linejoin="round"/>
<path d="M652.9 370.395C652.9 370.395 559.266 381.882 557.396 384.287C555.392 386.557 557.129 454.813 557.129 454.813L546.309 534.689L579.969 544.84C579.969 544.84 590.522 477.52 594.128 459.354C597.734 441.188 599.337 418.481 599.337 418.481C599.337 418.481 651.03 430.369 668.795 420.485C686.56 410.6 682.953 398.445 682.953 398.445" fill="#00654D"/>
<path d="M652.9 370.395C652.9 370.395 559.266 381.882 557.396 384.287C555.392 386.557 557.129 454.813 557.129 454.813L546.309 534.689L579.969 544.84C579.969 544.84 590.522 477.52 594.128 459.354C597.734 441.188 599.337 418.481 599.337 418.481C599.337 418.481 651.03 430.369 668.795 420.484C686.56 410.6 682.953 398.445 682.953 398.445" stroke="#263238" stroke-miterlimit="10" stroke-linecap="round" stroke-linejoin="round"/>
<path d="M558.865 452.141C558.865 452.141 563.139 433.04 563.941 422.755" stroke="#263238" stroke-miterlimit="10" stroke-linecap="round" stroke-linejoin="round"/>
<path d="M592.258 407.528C591.056 406.059 589.854 404.723 588.652 404.055" stroke="#263238" stroke-miterlimit="10" stroke-linecap="round" stroke-linejoin="round"/>
<path d="M599.204 418.481C599.204 418.481 597.334 414.741 594.796 411.001" stroke="#263238" stroke-miterlimit="10" stroke-linecap="round" stroke-linejoin="round"/>
<path d="M708.332 238.693C708.332 238.693 671.065 307.216 663.185 324.714C655.304 342.212 644.752 366.522 644.752 369.193C644.752 371.865 637.806 439.318 640.077 440.654C642.348 441.99 676.943 430.77 693.105 424.492C709.267 418.214 709.935 413.673 711.271 409.933C712.606 406.326 712.206 359.576 712.206 359.576C712.206 359.576 745.866 264.072 745.465 259.798C745.198 255.39 708.332 238.693 708.332 238.693Z" fill="#00654D" stroke="#263238" stroke-miterlimit="10" stroke-linecap="round" stroke-linejoin="round"/>
<path d="M680.015 307.883C673.87 313.894 668.795 318.302 668.795 318.302" stroke="#263238" stroke-miterlimit="10" stroke-linecap="round" stroke-linejoin="round"/>
<path d="M720.086 246.173C720.086 246.173 704.592 276.494 696.711 288.649C693.505 293.457 688.563 299.201 683.488 304.277" stroke="#263238" stroke-miterlimit="10" stroke-linecap="round" stroke-linejoin="round"/>
<path d="M670.665 239.896C670.665 239.896 654.636 266.743 649.961 282.505C645.286 298.266 644.351 306.548 644.351 306.548" stroke="#263238" stroke-miterlimit="10" stroke-linecap="round" stroke-linejoin="round"/>
<path d="M662.116 278.231L677.343 268.346L678.011 291.321" stroke="#263238" stroke-miterlimit="10" stroke-linecap="round" stroke-linejoin="round"/>
<path d="M694.574 381.081L699.65 380.279" stroke="#263238" stroke-miterlimit="10" stroke-linecap="round" stroke-linejoin="round"/>
<path d="M698.047 374.402L662.116 378.676V386.29L687.762 382.149" stroke="#263238" stroke-miterlimit="10" stroke-linecap="round" stroke-linejoin="round"/>
<path d="M647.958 250.18C647.958 250.18 653.835 237.624 656.907 237.357C659.845 237.09 666.524 237.357 666.524 240.028C666.524 242.7 662.918 242.967 662.918 242.967H657.975L655.705 248.844L647.958 250.18Z" fill="white" stroke="#263238" stroke-miterlimit="10" stroke-linecap="round" stroke-linejoin="round"/>
<path d="M639.81 273.956L642.08 261.133C642.08 261.133 643.015 249.913 644.752 249.245C646.355 248.577 661.582 248.978 661.582 248.978C661.582 248.978 661.849 262.201 660.647 265.407C659.311 268.746 653.434 270.082 653.434 270.082C653.434 270.082 652.098 274.757 651.163 275.959C650.228 277.161 646.488 278.898 646.488 278.898L645.553 281.569L637.005 275.959L639.81 273.956Z" fill="white" stroke="#263238" stroke-miterlimit="10" stroke-linecap="round" stroke-linejoin="round"/>
<path d="M653.3 269.948L651.564 263.67L657.842 263.403" fill="white"/>
<path d="M653.3 269.948L651.564 263.67L657.842 263.403" stroke="#263238" stroke-miterlimit="10" stroke-linecap="round" stroke-linejoin="round"/>
<path d="M636.47 272.887L649.961 282.504L644.752 288.114L633.131 277.562L636.47 272.887Z" fill="white" stroke="#263238" stroke-miterlimit="10" stroke-linecap="round" stroke-linejoin="round"/>
<path d="M633.131 277.562L648.625 289.049L618.972 334.197C618.972 334.197 614.03 335.532 608.42 333.529C602.81 331.525 597.601 320.305 597.601 318.969C597.601 317.767 633.131 277.562 633.131 277.562Z" fill="#00654D" stroke="#263238" stroke-miterlimit="10" stroke-linecap="round" stroke-linejoin="round"/>
<path d="M621.243 329.923C621.243 329.923 616.301 320.707 616.034 318.035C615.767 315.364 615.366 310.154 613.763 308.151C612.16 306.147 610.157 304.811 609.489 301.873C608.821 298.934 605.882 300.27 605.482 303.209C605.214 306.147 607.752 309.086 607.752 309.086C607.752 309.086 599.471 306.414 598.135 307.082C596.799 307.75 594.128 308.685 594.796 311.089C595.464 313.36 596.399 315.364 596.399 315.364C596.399 315.364 591.189 322.309 591.189 325.515C591.189 328.854 594.796 334.064 597.467 336.067C600.139 338.071 609.355 340.074 609.355 340.074L621.243 329.923Z" fill="white" stroke="#263238" stroke-miterlimit="10" stroke-linecap="round" stroke-linejoin="round"/>
<path d="M716.346 262.068L686.56 324.046L613.763 328.053C613.763 328.053 607.485 329.389 606.15 335.666C604.814 341.944 605.215 344.883 605.215 344.883C605.215 344.883 653.701 350.76 668.795 351.829C683.888 352.764 702.455 354.767 704.726 352.496C706.996 350.226 734.379 293.458 734.379 293.458" fill="#00654D"/>
<path d="M716.346 262.068L686.56 324.046L613.763 328.053C613.763 328.053 607.485 329.389 606.15 335.666C604.814 341.944 605.215 344.883 605.215 344.883C605.215 344.883 653.701 350.76 668.795 351.829C683.888 352.764 702.455 354.767 704.726 352.496C706.996 350.226 734.379 293.458 734.379 293.458" stroke="#263238" stroke-miterlimit="10" stroke-linecap="round" stroke-linejoin="round"/>
<path d="M280.501 443.993H272.887V517.324H280.501V443.993Z" fill="#263238" stroke="#263238" stroke-miterlimit="10" stroke-linecap="round" stroke-linejoin="round"/>
<path d="M233.973 373.728L220.574 375.294L229.088 448.126L242.487 446.56L233.973 373.728Z" fill="#263238" stroke="#263238" stroke-miterlimit="10" stroke-linecap="round" stroke-linejoin="round"/>
<path d="M286.378 520.397V508.108H267.01V520.53L189.672 551.519V566.212H195.015V555.125L276.895 536.425L356.771 555.125V566.212H361.846V551.519L286.378 520.397Z" fill="#8C8C8C" stroke="#263238" stroke-miterlimit="10" stroke-linecap="round" stroke-linejoin="round"/>
<path d="M295.728 443.993H257.66V467.368H295.728V443.993Z" fill="#263238" stroke="#263238" stroke-miterlimit="10" stroke-linecap="round" stroke-linejoin="round"/>
<path d="M189.672 566.746C189.672 562.205 186.066 558.598 181.524 558.598C176.983 558.598 173.376 562.205 173.376 566.746C173.376 571.287 176.983 574.894 181.524 574.894C186.066 575.027 189.672 571.287 189.672 566.746Z" fill="#263238" stroke="#263238" stroke-miterlimit="10" stroke-linecap="round" stroke-linejoin="round"/>
<path d="M184.997 566.746C184.997 564.742 183.394 563.273 181.524 563.273C179.521 563.273 178.051 564.876 178.051 566.746C178.051 568.749 179.654 570.219 181.524 570.219C183.394 570.352 184.997 568.749 184.997 566.746Z" fill="white" stroke="#263238" stroke-miterlimit="10" stroke-linecap="round" stroke-linejoin="round"/>
<path d="M378.944 566.746C378.944 562.205 375.337 558.598 370.796 558.598C366.254 558.598 362.648 562.205 362.648 566.746C362.648 571.287 366.254 574.894 370.796 574.894C375.337 574.894 378.944 571.287 378.944 566.746Z" fill="#263238" stroke="#263238" stroke-miterlimit="10" stroke-linecap="round" stroke-linejoin="round"/>
<path d="M370.662 570.219C372.58 570.219 374.135 568.664 374.135 566.746C374.135 564.828 372.58 563.273 370.662 563.273C368.744 563.273 367.189 564.828 367.189 566.746C367.189 568.664 368.744 570.219 370.662 570.219Z" fill="white" stroke="#263238" stroke-miterlimit="10" stroke-linecap="round" stroke-linejoin="round"/>
<path d="M280.234 566.612H273.689L270.483 522.667H283.44L280.234 566.612Z" fill="#8C8C8C" stroke="#263238" stroke-miterlimit="10" stroke-linecap="round" stroke-linejoin="round"/>
<path d="M279.833 557.262H273.422V575.428H279.833V557.262Z" fill="#263238" stroke="#263238" stroke-miterlimit="10" stroke-linecap="round" stroke-linejoin="round"/>
<path d="M226.004 410.333C210.242 411.803 196.217 400.315 194.614 384.42L185.665 291.054C184.196 275.292 195.683 261.267 211.578 259.664C227.339 258.195 241.365 269.682 242.967 285.577L251.917 378.944C253.386 394.839 241.765 408.864 226.004 410.333Z" fill="#8C8C8C" stroke="#263238" stroke-miterlimit="10" stroke-linecap="round" stroke-linejoin="round"/>
<path d="M232.816 409.665C217.054 411.135 203.029 399.647 201.427 383.752L192.477 290.386C191.008 274.624 202.495 260.599 218.39 258.996C234.152 257.527 248.177 269.014 249.78 284.909L258.729 378.276C260.198 394.171 248.577 408.196 232.816 409.665Z" fill="#8C8C8C" stroke="#263238" stroke-miterlimit="10" stroke-linecap="round" stroke-linejoin="round"/>
<path d="M362.514 451.34L223.867 454.813C220.794 454.946 218.123 452.408 217.989 449.336L217.322 427.831C217.188 424.759 219.726 422.088 222.798 421.954L361.446 418.481C364.518 418.348 367.189 420.885 367.323 423.958L367.991 445.463C367.991 448.668 365.586 451.34 362.514 451.34Z" fill="#8C8C8C" stroke="#263238" stroke-miterlimit="10" stroke-linecap="round" stroke-linejoin="round"/>
<path d="M301.739 452.409L223.733 454.813C220.661 454.946 217.989 452.409 217.856 449.336L217.188 427.831C217.054 424.759 219.592 422.088 222.664 421.954L300.671 419.55C303.743 419.416 306.414 421.954 306.548 425.026L307.216 446.531C307.349 449.737 304.945 452.409 301.739 452.409Z" fill="#8C8C8C" stroke="#263238" stroke-miterlimit="10" stroke-linecap="round" stroke-linejoin="round"/>
<path d="M380.146 407.662C380.146 407.662 381.348 430.636 384.554 451.073C387.759 471.643 392.969 533.887 392.969 533.887C392.969 533.887 395.774 544.573 399.647 552.053C403.655 559.533 406.727 562.739 406.727 562.739C406.727 562.739 417.012 573.024 416.611 574.627C416.21 576.229 409.799 576.096 403.387 574.894C397.109 573.692 395.774 572.222 392.167 569.818C388.561 567.414 380.547 564.342 376.94 563.139C373.334 561.937 372.265 558.865 373.467 555.259C374.669 551.652 378.543 543.371 378.543 538.295C378.543 533.219 375.337 508.776 366.655 492.613C357.973 476.451 352.897 448.401 352.897 448.401L380.146 407.662Z" fill="white" stroke="#263238" stroke-miterlimit="10" stroke-linecap="round" stroke-linejoin="round"/>
<path d="M382.283 556.461C379.745 554.457 377.474 552.454 375.471 550.583C374.669 552.454 374.002 554.19 373.601 555.392C372.399 558.999 373.601 562.071 377.074 563.273C380.68 564.475 388.694 567.547 392.301 569.951C395.907 572.356 397.109 573.825 403.521 575.027C409.799 576.229 416.344 576.363 416.745 574.76C417.145 573.157 406.86 562.872 406.86 562.872L401.784 565.276C401.651 565.143 389.362 561.937 382.283 556.461Z" fill="#00654D" stroke="#263238" stroke-miterlimit="10" stroke-linecap="round" stroke-linejoin="round"/>
<path d="M228.675 360.644C228.675 360.644 225.069 374.536 227.072 383.351C229.076 392.034 242.3 412.47 265.274 417.279C288.248 422.087 345.951 420.618 345.951 420.618C345.951 420.618 332.06 441.722 326.851 467.235C323.378 484.065 312.959 507.707 311.356 511.18C309.753 514.786 290.653 521.198 291.321 524.136C291.988 527.075 294.259 545.107 299.068 552.587C303.876 560.067 312.024 563.273 315.23 564.208C318.436 565.143 319.103 565.143 319.103 561.937C319.103 558.731 316.833 554.19 316.833 551.251C316.833 548.313 316.566 528.544 317.768 526.006C319.103 523.468 361.446 456.816 367.991 445.729C374.402 434.777 384.554 413.405 387.359 409.799C390.297 406.192 393.77 401.384 390.965 395.239C388.027 389.095 321.241 368.525 321.241 368.525L317.768 356.103L284.375 354.099L228.675 360.644Z" fill="white" stroke="#263238" stroke-miterlimit="10" stroke-linecap="round" stroke-linejoin="round"/>
<path d="M321.107 368.525L317.634 356.103L284.241 354.099L228.542 360.511C228.542 360.511 224.935 374.402 226.939 383.218C230.144 397.109 242.166 412.337 265.14 417.145C288.115 421.954 345.818 420.484 345.818 420.484C345.818 420.484 351.294 393.102 361.98 382.416C349.157 378.276 321.107 368.525 321.107 368.525Z" fill="#263238" stroke="#263238" stroke-miterlimit="10" stroke-linecap="round" stroke-linejoin="round"/>
<path d="M345.951 420.484C345.951 420.484 358.507 417.279 368.258 412.069L345.951 420.484Z" fill="white"/>
<path d="M345.951 420.484C345.951 420.484 358.507 417.279 368.258 412.069" stroke="#263238" stroke-miterlimit="10" stroke-linecap="round" stroke-linejoin="round"/>
<path d="M302.273 539.631C300.003 534.288 300.136 523.602 300.403 517.858C295.461 520.263 290.92 522.667 291.32 524.003C291.988 526.941 294.259 544.974 299.068 552.454C303.876 559.934 312.024 563.139 315.23 564.074C318.436 565.009 319.103 565.009 319.103 561.804C319.103 558.598 316.833 554.056 316.833 551.118C312.692 550.717 306.815 549.114 306.815 549.114C306.815 549.114 305.479 547.111 302.273 539.631Z" fill="#00654D" stroke="#263238" stroke-miterlimit="10" stroke-linecap="round" stroke-linejoin="round"/>
<path d="M297.598 232.549L287.58 236.69C287.58 236.69 295.728 312.425 295.328 323.111C295.06 333.796 294.393 355.168 294.393 355.168C294.393 355.168 308.284 359.309 317.634 356.103L316.966 319.504C316.966 319.504 323.778 284.508 321.107 273.288C318.569 261.935 310.421 241.899 310.421 241.899C310.421 241.899 306.681 232.816 297.598 232.549Z" fill="white" stroke="#263238" stroke-miterlimit="10" stroke-linecap="round" stroke-linejoin="round"/>
<path d="M294.66 265.14L304.41 250.314L316.432 267.678C316.432 267.678 311.223 243.368 310.555 241.765C309.887 240.162 307.616 236.956 303.743 234.285C299.869 231.747 295.328 231.614 292.79 231.346C290.252 231.079 287.58 236.556 287.58 236.556L294.66 265.14Z" fill="white" stroke="#263238" stroke-miterlimit="10" stroke-linecap="round" stroke-linejoin="round"/>
<path d="M290.118 231.347C290.118 231.347 257.527 238.426 254.855 240.43C252.05 242.433 250.848 249.112 251.516 251.65C252.317 254.187 259.664 309.086 259.664 309.086L222.264 363.716C222.264 363.716 234.419 373.868 245.906 375.871C257.393 377.875 281.703 374.803 290.385 371.33C299.068 367.724 299.068 367.724 299.068 367.724C299.068 367.724 303.075 301.338 298.8 275.158C294.526 248.978 290.118 231.347 290.118 231.347Z" fill="#00654D" stroke="#263238" stroke-miterlimit="10" stroke-linecap="round" stroke-linejoin="round"/>
<path d="M390.03 315.63L402.719 310.02C402.719 310.02 406.593 301.605 406.994 300.937C407.528 300.136 411.802 298.934 413.806 297.064C415.81 295.327 418.615 292.255 419.416 291.988C420.217 291.721 421.42 293.992 419.416 297.064C417.412 300.136 414.073 302.941 414.073 302.941L426.495 298.4C426.495 298.4 431.304 290.252 432.64 293.858C433.975 297.465 427.297 308.284 425.827 311.89C424.358 315.497 422.755 317.233 419.95 317.767C417.145 318.302 408.463 319.771 406.727 320.038C404.99 320.305 394.037 326.583 394.037 326.583L390.03 315.63Z" fill="white" stroke="#263238" stroke-miterlimit="10" stroke-linecap="round" stroke-linejoin="round"/>
<path d="M407.662 313.093C409.932 311.223 412.47 309.219 413.939 309.219C416.744 309.219 422.889 309.753 422.889 309.753C422.889 309.753 426.495 301.605 428.232 300.403C429.968 299.068 431.571 300.938 429.968 303.475" fill="white"/>
<path d="M407.662 313.093C409.932 311.223 412.47 309.219 413.939 309.219C416.744 309.219 422.889 309.753 422.889 309.753C422.889 309.753 426.495 301.605 428.232 300.403C429.968 299.068 431.571 300.938 429.968 303.475" stroke="#263238" stroke-miterlimit="10" stroke-linecap="round" stroke-linejoin="round"/>
<path d="M307.216 237.357C307.216 237.357 315.363 272.62 315.096 285.844C314.829 299.068 310.822 305.613 311.49 310.288C312.291 314.829 314.028 368.258 314.028 368.258L321.107 368.525C321.107 368.525 319.371 348.222 319.638 344.349C319.905 340.475 322.443 325.248 322.443 325.248C322.443 325.248 335.132 350.359 336.868 351.695C338.605 353.031 397.644 327.786 397.644 327.786L393.369 313.36L348.356 322.443C348.356 322.443 339.406 292.923 338.204 286.645C336.868 280.234 335.933 257.927 332.327 252.317C328.721 246.841 307.216 237.357 307.216 237.357Z" fill="#00654D" stroke="#263238" stroke-miterlimit="10" stroke-linecap="round" stroke-linejoin="round"/>
<path d="M322.443 325.382C322.443 325.382 323.912 318.97 326.45 302.274C328.988 285.444 326.717 272.086 326.717 272.086" stroke="#263238" stroke-miterlimit="10" stroke-linecap="round" stroke-linejoin="round"/>
<path d="M319.638 257.26C320.84 266.343 321.775 277.696 320.172 283.974C317.1 295.728 313.093 304.811 313.093 304.811" stroke="#263238" stroke-miterlimit="10" stroke-linecap="round" stroke-linejoin="round"/>
<path d="M317.367 242.968C317.367 242.968 318.168 246.841 318.97 252.318" stroke="#263238" stroke-miterlimit="10" stroke-linecap="round" stroke-linejoin="round"/>
<path d="M293.057 292.389C296.396 300.537 299.335 308.551 299.335 308.551" stroke="#263238" stroke-miterlimit="10" stroke-linecap="round" stroke-linejoin="round"/>
<path d="M277.696 235.354C277.696 235.354 283.573 271.151 288.115 280.902C289.05 282.905 290.118 285.176 291.053 287.58" stroke="#263238" stroke-miterlimit="10" stroke-linecap="round" stroke-linejoin="round"/>
<path d="M349.825 308.017L359.709 305.212C359.709 305.212 366.121 297.064 367.59 295.06C369.059 293.057 372.666 293.057 375.204 291.454C377.742 289.985 381.081 284.375 382.283 285.31C383.619 286.378 382.283 290.92 380.947 292.122C379.612 293.457 376.673 295.194 375.604 295.995C374.536 296.797 387.492 293.725 387.492 293.725C387.492 293.725 395.907 286.378 396.442 288.382C396.976 290.385 392.568 297.465 392.568 297.465C392.568 297.465 386.424 303.342 383.485 305.88C380.413 308.418 373.067 309.486 371.063 309.887C369.059 310.421 365.453 310.955 365.453 310.955L350.226 316.565L349.825 308.017Z" fill="white" stroke="#263238" stroke-miterlimit="10" stroke-linecap="round" stroke-linejoin="round"/>
<path d="M390.832 299.201C390.832 299.201 385.489 301.739 382.684 303.075L390.832 299.201Z" fill="white"/>
<path d="M390.832 299.201C390.832 299.201 385.489 301.739 382.684 303.075" stroke="#263238" stroke-miterlimit="10" stroke-linecap="round" stroke-linejoin="round"/>
<path d="M375.738 296.129L371.196 297.064" stroke="#263238" stroke-miterlimit="10" stroke-linecap="round" stroke-linejoin="round"/>
<path d="M260.465 238.426C260.465 238.426 245.505 243.502 243.235 247.375C240.964 251.249 249.112 282.505 255.122 299.735C261.133 316.966 277.429 345.951 279.566 347.02C281.57 348.088 334.731 329.255 346.886 325.381C359.041 321.508 361.179 319.504 361.179 319.504L355.836 305.746L294.793 316.699L275.96 258.061" fill="#00654D"/>
<path d="M260.465 238.426C260.465 238.426 245.505 243.502 243.235 247.375C240.964 251.249 249.112 282.505 255.122 299.735C261.133 316.966 277.429 345.951 279.566 347.02C281.57 348.088 334.731 329.255 346.886 325.381C359.041 321.508 361.179 319.504 361.179 319.504L355.836 305.746L294.793 316.699L275.96 258.061" stroke="#263238" stroke-miterlimit="10" stroke-linecap="round" stroke-linejoin="round"/>
<path d="M334.064 161.088C334.064 161.088 339.941 165.095 337.002 169.37C333.93 173.644 327.652 174.045 327.652 174.045L322.042 165.363C322.042 165.229 328.721 157.348 334.064 161.088Z" fill="#263238" stroke="#263238" stroke-miterlimit="10" stroke-linecap="round" stroke-linejoin="round"/>
<path d="M327.786 166.297C327.786 166.297 336.869 187.936 336.334 189.806C335.8 191.676 331.659 194.614 333.529 197.419C335.399 200.225 341.143 205.835 341.009 206.636C340.876 207.437 333.93 211.445 333.93 211.445C333.93 211.445 329.121 228.809 327.118 231.347C325.114 233.885 308.551 230.812 308.551 230.812L305.078 250.314L285.443 232.015L278.097 225.069C278.097 225.069 271.552 195.416 285.443 177.651C299.468 159.619 327.786 166.297 327.786 166.297Z" fill="white" stroke="#263238" stroke-miterlimit="10" stroke-linecap="round" stroke-linejoin="round"/>
<path d="M326.584 196.618C326.584 198.488 325.782 199.957 324.981 199.957C324.179 199.957 323.511 198.488 323.511 196.618C323.511 194.748 324.313 193.278 325.114 193.278C325.916 193.278 326.584 194.881 326.584 196.618Z" fill="#263238"/>
<path d="M326.584 215.585C320.84 215.051 318.302 211.578 318.302 211.578C318.302 211.578 317.768 219.459 320.306 219.86C322.71 220.394 326.584 215.585 326.584 215.585Z" fill="#263238" stroke="#263238" stroke-miterlimit="10" stroke-linecap="round" stroke-linejoin="round"/>
<path d="M321.508 189.405C321.508 189.405 326.583 185.131 331.125 190.207" stroke="#263238" stroke-miterlimit="10" stroke-linecap="round" stroke-linejoin="round"/>
<path d="M308.685 230.679L300.403 228.676L306.548 240.163L308.685 230.679Z" fill="#263238" stroke="#263238" stroke-miterlimit="10" stroke-linecap="round" stroke-linejoin="round"/>
<path d="M327.786 166.297C327.786 166.297 326.049 171.907 317.233 179.254C308.551 186.6 300.671 191.275 300.671 193.279C300.671 195.282 302.006 197.152 300.27 197.687C298.533 198.221 296.129 197.019 296.129 197.019C296.129 197.019 291.855 209.174 291.187 217.722C290.519 226.271 293.725 234.285 293.725 234.285C293.725 234.285 274.891 235.354 264.072 227.072C253.252 218.791 250.18 209.441 251.382 201.427C252.585 193.279 256.057 167.766 272.754 155.211C289.45 142.655 313.493 143.323 321.508 148.265C329.656 153.341 335.533 157.081 334.063 161.221C332.594 165.095 327.786 166.297 327.786 166.297Z" fill="#263238" stroke="#263238" stroke-miterlimit="10" stroke-linecap="round" stroke-linejoin="round"/>
<path d="M288.382 421.42C287.848 421.42 287.447 421.286 286.913 421.152C285.043 420.217 284.108 417.813 284.909 415.542C290.92 399.113 297.866 369.594 290.786 360.911C289.183 359.576 279.165 356.904 225.47 362.514C223.6 362.648 222.264 362.781 221.596 362.915C217.856 363.182 214.65 368.659 213.849 370.529C212.914 372.666 210.643 373.467 208.773 372.399C206.903 371.33 206.235 368.792 207.037 366.655C207.571 365.453 212.379 355.168 220.928 354.366C221.596 354.366 222.932 354.233 224.668 353.966C281.97 347.955 292.923 351.027 296.263 355.168C308.818 370.796 293.591 413.94 291.855 418.882C291.187 420.351 289.851 421.42 288.382 421.42Z" fill="white" stroke="#263238" stroke-miterlimit="10" stroke-linecap="round" stroke-linejoin="round"/>
<path d="M524.404 295.862H436.647L416.344 364.651H504.101L524.404 295.862Z" fill="#D9D9D9" stroke="#263238" stroke-miterlimit="10" stroke-linecap="round" stroke-linejoin="round"/>
<path d="M352.229 360.778L351.027 364.651H504.101L505.303 360.778H352.229Z" fill="#D9D9D9" stroke="#263238" stroke-miterlimit="10" stroke-linecap="round" stroke-linejoin="round"/>
<path d="M417.68 360.778L416.477 364.651H504.101L505.303 360.778H417.68Z" fill="#263238" stroke="#263238" stroke-miterlimit="10" stroke-linecap="round" stroke-linejoin="round"/>
<path d="M502.898 374.937H488.072V573.558H502.898V374.937Z" fill="white" stroke="#263238" stroke-miterlimit="10" stroke-linecap="round" stroke-linejoin="round"/>
<path d="M502.898 374.937H488.072V407.795H502.898V374.937Z" fill="#263238" stroke="#263238" stroke-miterlimit="10" stroke-linecap="round" stroke-linejoin="round"/>
<path d="M683.354 364.651H306.28V375.738H683.354V364.651Z" fill="white" stroke="#263238" stroke-miterlimit="10" stroke-linecap="round" stroke-linejoin="round"/>
<path d="M573.024 575.161H416.744C432.239 567.948 449.069 564.074 466.166 564.074H523.602C540.699 564.074 557.529 567.814 573.024 575.161Z" fill="white" stroke="#263238" stroke-miterlimit="10" stroke-linecap="round" stroke-linejoin="round"/>
</g>
<defs>
<clipPath id="clip0_44_606">
<rect width="933" height="619.774" fill="white"/>
</clipPath>
</defs>
</svg>
