<svg xmlns="http://www.w3.org/2000/svg" xmlns:xlink="http://www.w3.org/1999/xlink" width="591.48" height="652.57" viewBox="0 0 591.48 652.57">
  <defs>
    <clipPath id="clip-path">
      <path d="M149.18,198.71c26.59-50.25,15.73-90.19,55.42-120.35,16.28-12.36,32.32-16.45,42.76-19,65.81-16.07,125.85,22.7,152,39.59,19.21,12.4,90.7,58.55,110.84,137.76,8.76,34.43,1.34,49.62,17.42,98.18,11.71,35.34,21.23,44.18,25.34,72.84,1.3,9.08,6,47.43-11.09,87.1-20.25,47.1-68.91,90.88-123.51,96.59-60.5,6.33-87.91-38.29-178.94-50.67a405.57,405.57,0,0,0-68.09-3.17c-33.48,1.82-38.36,7.12-53.84,6.34-44.62-2.26-88.73-50.64-102.93-99.76-19-65.7,18.09-123.74,30.09-142.52C84.31,239.58,118.27,257.13,149.18,198.71Z" style="fill: #c4c4c4"/>
    </clipPath>
    <clipPath id="clip-path-2">
      <path d="M286.13,428.59l-122.23.19a7.52,7.52,0,0,1-7.52-7.52h0a7.5,7.5,0,0,1,8-7.49L286.34,422a3.29,3.29,0,0,1,3.07,3.39h0A3.29,3.29,0,0,1,286.13,428.59Z" style="fill: #00654d;stroke: #262626;stroke-miterlimit: 10"/>
    </clipPath>
    <clipPath id="clip-path-3">
      <path d="M361.75,308.56,465.62,373A7.53,7.53,0,0,0,476,370.54h0a7.52,7.52,0,0,0-2.89-10.6L365,302.86a3.28,3.28,0,0,0-4.39,1.27h0A3.29,3.29,0,0,0,361.75,308.56Z" style="fill: #00654d;stroke: #262626;stroke-miterlimit: 10"/>
    </clipPath>
    <clipPath id="clip-path-4">
      <path d="M241.11,253.63l.19-122.23a7.52,7.52,0,0,0-7.52-7.52h0a7.52,7.52,0,0,0-7.5,8l8.26,122a3.29,3.29,0,0,0,3.39,3.06h0A3.29,3.29,0,0,0,241.11,253.63Z" style="fill: #00654d;stroke: #262626;stroke-miterlimit: 10"/>
    </clipPath>
  </defs>
  <title>Ресурс 10</title>
  <g id="Слой_2" data-name="Слой 2">
    <g id="Слой_1-2" data-name="Слой 1">
      <g>
        <g>
          <path d="M149.18,198.71c26.59-50.25,15.73-90.19,55.42-120.35,16.28-12.36,32.32-16.45,42.76-19,65.81-16.07,125.85,22.7,152,39.59,19.21,12.4,90.7,58.55,110.84,137.76,8.76,34.43,1.34,49.62,17.42,98.18,11.71,35.34,21.23,44.18,25.34,72.84,1.3,9.08,6,47.43-11.09,87.1-20.25,47.1-68.91,90.88-123.51,96.59-60.5,6.33-87.91-38.29-178.94-50.67a405.57,405.57,0,0,0-68.09-3.17c-33.48,1.82-38.36,7.12-53.84,6.34-44.62-2.26-88.73-50.64-102.93-99.76-19-65.7,18.09-123.74,30.09-142.52C84.31,239.58,118.27,257.13,149.18,198.71Z" style="fill: #c4c4c4"/>
          <g style="clip-path: url(#clip-path)">
            <g>
              <path d="M375.83,520.94s-7,28.4,2.32,45.21,23.18,38.83,26.08,52.74,5.21,33.62,5.21,33.62" style="fill: none;stroke: #ebebeb;stroke-miterlimit: 10"/>
              <path d="M460.45,525s-16.81,17.39-19.71,38.83-4.63,65.5-17.39,86.36" style="fill: none;stroke: #ebebeb;stroke-miterlimit: 10"/>
              <path d="M386.53,507c-.87,4.89-7.28,15.48-10.9,14.83s-3.1-12.3-2.22-17.18,4.52-8.32,8.15-7.67S387.41,502.08,386.53,507Z" style="fill: #ebebeb;stroke: #ebebeb;stroke-miterlimit: 10"/>
              <path d="M390.55,537.58c-3.68,2.89-14.82,6.34-17,3.62s5.52-10.6,9.19-13.49,8.39-3,10.54-.3S394.22,534.69,390.55,537.58Z" style="fill: #ebebeb;stroke: #ebebeb;stroke-miterlimit: 10"/>
              <path d="M414.42,602.75c-3,3.54-13.3,9.08-15.94,6.82s3.37-11.46,6.42-15,7.64-4.59,10.27-2.33S417.47,599.2,414.42,602.75Z" style="fill: #ebebeb;stroke: #ebebeb;stroke-miterlimit: 10"/>
              <path d="M403.12,580.14c-3,3.55-13.31,9.09-15.94,6.83s3.37-11.46,6.41-15,7.65-4.59,10.28-2.33S406.17,576.6,403.12,580.14Z" style="fill: #ebebeb;stroke: #ebebeb;stroke-miterlimit: 10"/>
              <path d="M393.56,557.1c-3.05,3.55-13.31,9.09-15.94,6.83s3.36-11.46,6.41-15,7.65-4.59,10.28-2.33S396.6,553.56,393.56,557.1Z" style="fill: #ebebeb;stroke: #ebebeb;stroke-miterlimit: 10"/>
              <path d="M476.59,519.72c-3,3.55-13.31,9.09-15.94,6.83s3.36-11.47,6.41-15,7.65-4.59,10.28-2.33S479.63,516.17,476.59,519.72Z" style="fill: #ebebeb;stroke: #ebebeb;stroke-miterlimit: 10"/>
              <path d="M419.66,623.09c-1.53,4.41-9,13.34-12.31,12.21s-1.09-11.9.44-16.32,5.42-7.08,8.7-6S421.19,618.67,419.66,623.09Z" style="fill: #ebebeb;stroke: #ebebeb;stroke-miterlimit: 10"/>
              <path d="M447.09,637.42c-4.41,1.53-16.07,1.14-17.2-2.14s8.68-8.2,13.1-9.73,8.92-.1,10.05,3.18S451.51,635.9,447.09,637.42Z" style="fill: #ebebeb;stroke: #ebebeb;stroke-miterlimit: 10"/>
              <path d="M453.18,613.52c-4.42,1.52-16.07,1.13-17.21-2.15s8.69-8.2,13.11-9.72,8.92-.11,10.05,3.17S457.6,612,453.18,613.52Z" style="fill: #ebebeb;stroke: #ebebeb;stroke-miterlimit: 10"/>
              <path d="M456.66,588.74c-4.42,1.52-16.08,1.13-17.21-2.15s8.69-8.2,13.11-9.72,8.91-.11,10.05,3.17S461.08,587.21,456.66,588.74Z" style="fill: #ebebeb;stroke: #ebebeb;stroke-miterlimit: 10"/>
              <path d="M458.4,565.26c-4.42,1.53-16.08,1.14-17.21-2.14s8.69-8.2,13.11-9.73,8.91-.1,10.05,3.17S462.82,563.74,458.4,565.26Z" style="fill: #ebebeb;stroke: #ebebeb;stroke-miterlimit: 10"/>
              <path d="M465.79,545.7c-4.42,1.53-16.08,1.14-17.21-2.14s8.69-8.2,13.11-9.73,8.91-.11,10.05,3.17S470.2,544.18,465.79,545.7Z" style="fill: #ebebeb;stroke: #ebebeb;stroke-miterlimit: 10"/>
              <path d="M448,523.46c2.29,4.08,4,15.62.94,17.31s-9.61-7.1-11.9-11.17-1.68-8.76,1.35-10.46S445.76,519.38,448,523.46Z" style="fill: #ebebeb;stroke: #ebebeb;stroke-miterlimit: 10"/>
              <path d="M436.1,545.5c3,3.61,6.65,14.67,4,16.88s-10.72-5.29-13.68-8.91-3.21-8.32-.53-10.52S433.13,541.89,436.1,545.5Z" style="fill: #ebebeb;stroke: #ebebeb;stroke-miterlimit: 10"/>
              <path d="M430,597.23c3,3.61,6.66,14.67,4,16.88s-10.71-5.3-13.68-8.91-3.2-8.32-.52-10.52S427.05,593.62,430,597.23Z" style="fill: #ebebeb;stroke: #ebebeb;stroke-miterlimit: 10"/>
              <path d="M425.23,621.14c3,3.61,6.66,14.67,4,16.87s-10.71-5.29-13.68-8.9-3.2-8.32-.52-10.52S422.26,617.53,425.23,621.14Z" style="fill: #ebebeb;stroke: #ebebeb;stroke-miterlimit: 10"/>
              <path d="M365.06,526.79c3.84,2.67,10.38,12.33,8.4,15.17s-11.74-2.19-15.58-4.87-5.33-7.14-3.35-10S361.23,524.12,365.06,526.79Z" style="fill: #ebebeb;stroke: #ebebeb;stroke-miterlimit: 10"/>
              <path d="M363.87,553c4.43,1.48,13.45,8.88,12.35,12.17s-11.88,1.23-16.32-.25-7.14-5.34-6-8.63S359.43,551.5,363.87,553Z" style="fill: #ebebeb;stroke: #ebebeb;stroke-miterlimit: 10"/>
              <path d="M376.48,576c4.43,1.48,13.44,8.88,12.35,12.17s-11.89,1.23-16.32-.25-7.14-5.34-6.05-8.63S372,574.54,376.48,576Z" style="fill: #ebebeb;stroke: #ebebeb;stroke-miterlimit: 10"/>
              <path d="M388.21,599.92c4.44,1.48,13.45,8.88,12.35,12.17s-11.88,1.22-16.31-.25-7.15-5.34-6.05-8.63S383.78,598.44,388.21,599.92Z" style="fill: #ebebeb;stroke: #ebebeb;stroke-miterlimit: 10"/>
              <path d="M394.73,623.83c4.44,1.48,13.45,8.88,12.35,12.17s-11.88,1.22-16.31-.25-7.15-5.34-6-8.64S390.3,622.35,394.73,623.83Z" style="fill: #ebebeb;stroke: #ebebeb;stroke-miterlimit: 10"/>
              <path d="M432.1,571.05c3.29,3.33,8,14,5.49,16.45s-11.15-4.3-14.43-7.63-3.94-8-1.47-10.43S428.82,567.73,432.1,571.05Z" style="fill: #ebebeb;stroke: #ebebeb;stroke-miterlimit: 10"/>
            </g>
            <g>
              <path d="M32.82,391.49s-7,28.4,2.31,45.21,23.19,38.84,26.09,52.75,5.21,33.61,5.21,33.61" style="fill: none;stroke: #ebebeb;stroke-miterlimit: 10"/>
              <path d="M117.44,395.55s-16.81,17.39-19.71,38.83-4.64,65.5-17.39,86.36" style="fill: none;stroke: #ebebeb;stroke-miterlimit: 10"/>
              <path d="M43.52,377.51c-.88,4.89-7.28,15.48-10.9,14.83s-3.1-12.29-2.22-17.18,4.52-8.31,8.14-7.67S44.39,372.63,43.52,377.51Z" style="fill: #ebebeb;stroke: #ebebeb;stroke-miterlimit: 10"/>
              <path d="M47.53,408.13c-3.67,2.89-14.81,6.34-17,3.62s5.52-10.6,9.19-13.49,8.39-3,10.53-.3S51.21,405.24,47.53,408.13Z" style="fill: #ebebeb;stroke: #ebebeb;stroke-miterlimit: 10"/>
              <path d="M71.41,473.3c-3,3.55-13.31,9.09-15.94,6.83s3.37-11.47,6.41-15,7.65-4.59,10.28-2.33S74.46,469.75,71.41,473.3Z" style="fill: #ebebeb;stroke: #ebebeb;stroke-miterlimit: 10"/>
              <path d="M60.11,450.7c-3,3.54-13.31,9.08-15.94,6.82s3.37-11.46,6.41-15,7.65-4.59,10.28-2.33S63.16,447.15,60.11,450.7Z" style="fill: #ebebeb;stroke: #ebebeb;stroke-miterlimit: 10"/>
              <path d="M50.55,427.66c-3,3.54-13.31,9.08-15.94,6.82S38,423,41,419.47s7.65-4.59,10.28-2.33S53.59,424.11,50.55,427.66Z" style="fill: #ebebeb;stroke: #ebebeb;stroke-miterlimit: 10"/>
              <path d="M133.58,390.27c-3.05,3.55-13.31,9.09-15.94,6.83s3.36-11.46,6.41-15,7.64-4.59,10.28-2.33S136.62,386.73,133.58,390.27Z" style="fill: #ebebeb;stroke: #ebebeb;stroke-miterlimit: 10"/>
              <path d="M76.65,493.64c-1.53,4.42-9,13.34-12.31,12.21s-1.09-11.9.44-16.32,5.42-7.08,8.7-5.94S78.17,489.22,76.65,493.64Z" style="fill: #ebebeb;stroke: #ebebeb;stroke-miterlimit: 10"/>
              <path d="M104.08,508c-4.42,1.52-16.07,1.13-17.2-2.15s8.68-8.2,13.1-9.72,8.92-.11,10,3.17S108.5,506.45,104.08,508Z" style="fill: #ebebeb;stroke: #ebebeb;stroke-miterlimit: 10"/>
              <path d="M110.17,484.07c-4.42,1.52-16.07,1.13-17.21-2.15s8.69-8.2,13.11-9.72,8.92-.11,10.05,3.17S114.59,482.54,110.17,484.07Z" style="fill: #ebebeb;stroke: #ebebeb;stroke-miterlimit: 10"/>
              <path d="M113.65,459.29c-4.42,1.53-16.08,1.13-17.21-2.14s8.69-8.2,13.1-9.73,8.92-.11,10.06,3.17S118.06,457.76,113.65,459.29Z" style="fill: #ebebeb;stroke: #ebebeb;stroke-miterlimit: 10"/>
              <path d="M115.39,435.82c-4.42,1.52-16.08,1.13-17.21-2.15s8.69-8.2,13.1-9.73,8.92-.1,10,3.18S119.8,434.29,115.39,435.82Z" style="fill: #ebebeb;stroke: #ebebeb;stroke-miterlimit: 10"/>
              <path d="M122.78,416.25c-4.42,1.53-16.08,1.14-17.21-2.14s8.69-8.2,13.1-9.73,8.92-.1,10,3.17S127.19,414.73,122.78,416.25Z" style="fill: #ebebeb;stroke: #ebebeb;stroke-miterlimit: 10"/>
              <path d="M105,394c2.28,4.08,4,15.62.94,17.31s-9.61-7.09-11.9-11.17-1.68-8.76,1.34-10.46S102.74,389.93,105,394Z" style="fill: #ebebeb;stroke: #ebebeb;stroke-miterlimit: 10"/>
              <path d="M93.09,416.05c3,3.61,6.65,14.68,4,16.88s-10.71-5.29-13.67-8.9-3.21-8.33-.53-10.53S90.12,412.44,93.09,416.05Z" style="fill: #ebebeb;stroke: #ebebeb;stroke-miterlimit: 10"/>
              <path d="M87,467.78c3,3.61,6.66,14.68,4,16.88s-10.71-5.29-13.68-8.91-3.2-8.32-.52-10.52S84,464.17,87,467.78Z" style="fill: #ebebeb;stroke: #ebebeb;stroke-miterlimit: 10"/>
              <path d="M82.22,491.69c3,3.61,6.66,14.67,4,16.88s-10.71-5.3-13.68-8.91-3.2-8.32-.52-10.52S79.25,488.08,82.22,491.69Z" style="fill: #ebebeb;stroke: #ebebeb;stroke-miterlimit: 10"/>
              <path d="M22.05,397.34c3.84,2.67,10.38,12.33,8.4,15.17s-11.74-2.19-15.58-4.87-5.34-7.14-3.35-10S18.22,394.67,22.05,397.34Z" style="fill: #ebebeb;stroke: #ebebeb;stroke-miterlimit: 10"/>
              <path d="M20.86,423.53c4.43,1.47,13.45,8.87,12.35,12.16s-11.88,1.23-16.32-.25-7.14-5.34-6.05-8.63S16.42,422.05,20.86,423.53Z" style="fill: #ebebeb;stroke: #ebebeb;stroke-miterlimit: 10"/>
              <path d="M33.46,446.56c4.44,1.48,13.45,8.88,12.36,12.17S33.93,460,29.5,458.48s-7.15-5.34-6.05-8.63S29,445.09,33.46,446.56Z" style="fill: #ebebeb;stroke: #ebebeb;stroke-miterlimit: 10"/>
              <path d="M45.2,470.47c4.44,1.48,13.45,8.88,12.35,12.17s-11.88,1.23-16.32-.25-7.14-5.34-6-8.63S40.77,469,45.2,470.47Z" style="fill: #ebebeb;stroke: #ebebeb;stroke-miterlimit: 10"/>
              <path d="M51.72,494.38c4.44,1.48,13.45,8.88,12.35,12.17s-11.88,1.22-16.32-.25-7.14-5.34-6-8.63S47.29,492.9,51.72,494.38Z" style="fill: #ebebeb;stroke: #ebebeb;stroke-miterlimit: 10"/>
              <path d="M89.09,441.61c3.29,3.32,8,14,5.49,16.45s-11.15-4.31-14.43-7.63-3.94-8-1.47-10.44S85.81,438.28,89.09,441.61Z" style="fill: #ebebeb;stroke: #ebebeb;stroke-miterlimit: 10"/>
            </g>
          </g>
        </g>
        <g>
          <path d="M389.53,371.1A37.35,37.35,0,0,1,399.91,345V294.54A13,13,0,0,0,393,283c-11.83-6.11-39.73-16.66-91.35-16.66-51.16,0-78.21,10.36-89.73,16.49a13,13,0,0,0-7,11.51v46.45a37.64,37.64,0,0,1,0,60.57v38.5a55.72,55.72,0,0,0,44.17,54.52c14.77,3.13,29.55,5.74,37.76,5.74,4.23,0,16.93,16.25,16.93,16.25s12.29-16.25,16.39-16.25c7.82,0,21.79-2.51,35.87-5.55a55.67,55.67,0,0,0,43.87-54.45v-43A37.37,37.37,0,0,1,389.53,371.1Z" style="fill: #ebebeb;stroke: #262626;stroke-miterlimit: 10"/>
          <path d="M346.11,359.22c0-12.29,4.78-28.48,4.78-28.48l-40.28,19.87,19.6-39.73s-16.73,4.78-28.75,4.78c-12.29,0-28.48-4.78-28.48-4.78l19.08,38.66-38.12-18.8s4.78,16.74,4.78,28.75c0,12.29-4.78,28.48-4.78,28.48l38.12-18.8L273,407.83s16.74-4.78,28.75-4.78c12.29,0,28.48,4.78,28.48,4.78l-19.6-39.73L350.89,388S346.11,371.23,346.11,359.22Z" style="fill: #262626"/>
          <path d="M363.25,356.67a61.9,61.9,0,0,1,.41,7,61.25,61.25,0,0,1-122.49,0,61.9,61.9,0,0,1,.41-7,68.83,68.83,0,1,0,121.67,0Z" style="fill: #fbc469;stroke: #262626;stroke-miterlimit: 10"/>
        </g>
        <line x1="242.2" y1="265.55" x2="238.95" y2="254.33" style="fill: none;stroke: #262626;stroke-miterlimit: 10"/>
        <g>
          <path d="M107.15,451.12s41.51-46.43,44.24-50.25,21.3-9.84,26.22-10.93,18.57-11.47,23.49-14.75,15.84-9.28,28.94,0,24.58,26.22,25.13,28.95,3.28,14.75,1.64,16.93a18.26,18.26,0,0,0-2.46,5.74s2.73,9.29,3,12.29.82,8.19-2.45,9.28-9.29-3.27-9.29-3.27,3.28,7.1.55,9.28-1.91,5.46-7.1,2.19l-5.19-3.28a30.16,30.16,0,0,1-1.09,7.37c-1.1,3.83-4.1,4.1-5.47,2.73a24.81,24.81,0,0,0-4.37-3S203,470.78,188.53,473.24s-23.48,12.56-25.67,13.92-37.14,18.58-41.51,16.94S107.15,451.12,107.15,451.12Z" style="fill: #fff;stroke: #262626;stroke-miterlimit: 10"/>
          <path d="M209,437.8s-2.87-15.16-19.87-7.58" style="fill: none;stroke: #262626;stroke-miterlimit: 10"/>
          <path d="M288.21,422.61,293,424.9a.77.77,0,0,1-.15,1.5l-4.64,1.81Z" style="fill: #262626"/>
          <g>
            <path d="M286.13,428.59l-122.23.19a7.52,7.52,0,0,1-7.52-7.52h0a7.5,7.5,0,0,1,8-7.49L286.34,422a3.29,3.29,0,0,1,3.07,3.39h0A3.29,3.29,0,0,1,286.13,428.59Z" style="fill: #00654d"/>
            <g style="clip-path: url(#clip-path-2)">
              <path d="M203.55,408.24s15,13.38.82,27.58S150.85,438,150.85,438l-1.1-36.33Z" style="fill: #fbc469;stroke: #262626;stroke-miterlimit: 10"/>
            </g>
            <path d="M286.13,428.59l-122.23.19a7.52,7.52,0,0,1-7.52-7.52h0a7.5,7.5,0,0,1,8-7.49L286.34,422a3.29,3.29,0,0,1,3.07,3.39h0A3.29,3.29,0,0,1,286.13,428.59Z" style="fill: none;stroke: #262626;stroke-miterlimit: 10"/>
          </g>
          <path d="M188.74,429.2s1,5.94,5.53,8.4,8.4,3.48,13.93,1,24.78-12.9,30.72-14.13,11.27-2.66,13.93,3.48-4.51,11.27-5.53,12.29-14.54,12.49-16.59,14.34-12.91,8.43-13.52,8.63" style="fill: #fff;stroke: #262626;stroke-miterlimit: 10"/>
          <path d="M189.76,415.07s10.24-9,12.09-10.24,13.31-10,17-10,7.78-.21,14.13,7.17,13.31,17,13.31,17" style="fill: none;stroke: #262626;stroke-miterlimit: 10"/>
          <path d="M226.43,417.73s-2.67-7.37-6.15-9-8-6.15-17.41-4.1" style="fill: none;stroke: #262626;stroke-miterlimit: 10"/>
          <line x1="220.49" y1="432.07" x2="217.62" y2="428.99" style="fill: none;stroke: #262626;stroke-miterlimit: 10"/>
          <path d="M235.23,427.66s9.32.41,9,13" style="fill: none;stroke: #262626;stroke-miterlimit: 10"/>
          <path d="M93.9,452.34s7.79-7,12.7.82,8.61,47.11,13.93,52.85-10.24,7.37-13.11,8.19S93.9,452.34,93.9,452.34Z" style="fill: #fff;stroke: #262626;stroke-miterlimit: 10"/>
          <path d="M.51,463.81l87.25-13.1s4.51-2.87,6.55,5.73,10.25,51.62,13.11,57.76l1.74.1s2.15,7.17-2.66,9.22S1.73,566.64,1.73,566.64Z" style="fill: #00654d;stroke: #262626;stroke-miterlimit: 10"/>
        </g>
        <g>
          <path d="M502.16,421.81s-10.91-61.32-11.22-66S478,336.24,474.38,332.73s-9.77-19.52-12.23-24.89-8.59-16.23-24.62-15.22S402.84,302,400.94,304s-10.54,10.82-10.3,13.54a18.12,18.12,0,0,1-.92,6.17s-7.21,6.46-9,8.87-5,6.54-2.79,9.19,9.62,2.1,9.62,2.1-6.52,4.32-5.34,7.61-1.25,5.65,4.89,5.59l6.13-.06a30.25,30.25,0,0,0-2.94,6.85c-1.08,3.82,1.33,5.64,3.21,5.19a25.06,25.06,0,0,1,5.29-.26s11.51,19.31,22.53,29,13.37,23,14.52,25.35,21.83,35.32,26.41,36.22S502.16,421.81,502.16,421.81Z" style="fill: #fff;stroke: #262626;stroke-miterlimit: 10"/>
          <path d="M422.5,356.93s10.41-11.38,20.89,4" style="fill: none;stroke: #262626;stroke-miterlimit: 10"/>
          <path d="M363.12,302.37l-5.25-.55a.78.78,0,0,0-.67,1.36l3,4Z" style="fill: #262626"/>
          <g>
            <path d="M361.75,308.56,465.62,373A7.53,7.53,0,0,0,476,370.54h0a7.52,7.52,0,0,0-2.89-10.6L365,302.86a3.28,3.28,0,0,0-4.39,1.27h0A3.29,3.29,0,0,0,361.75,308.56Z" style="fill: #00654d"/>
            <g style="clip-path: url(#clip-path-3)">
              <path d="M442.69,334.65s-19.81,3.49-15.2,23,44.39,30,44.39,30l20-30.33Z" style="fill: #fbc469;stroke: #262626;stroke-miterlimit: 10"/>
            </g>
            <path d="M361.75,308.56,465.62,373A7.53,7.53,0,0,0,476,370.54h0a7.52,7.52,0,0,0-2.89-10.6L365,302.86a3.28,3.28,0,0,0-4.39,1.27h0A3.29,3.29,0,0,0,361.75,308.56Z" style="fill: none;stroke: #262626;stroke-miterlimit: 10"/>
          </g>
          <path d="M444.28,360.27s-4,4.52-9.12,4.24-9-1.45-12.39-6.45-14.3-24-18.71-28.17-8.18-8.19-13.68-4.36-2.08,12-1.75,13.36,5.8,18.27,6.57,20.92,6.55,13.95,7,14.45" style="fill: #fff;stroke: #262626;stroke-miterlimit: 10"/>
          <path d="M450.83,347.71s-4-13-4.89-15.06-6.05-15.54-9.19-17.48-6.51-4.26-15.79-1.33-20.26,7.46-20.26,7.46" style="fill: none;stroke: #262626;stroke-miterlimit: 10"/>
          <path d="M418.25,330.7s6.14-4.87,10-4.43,10-1,17,5.67" style="fill: none;stroke: #262626;stroke-miterlimit: 10"/>
          <line x1="415.76" y1="346.02" x2="419.82" y2="344.92" style="fill: none;stroke: #262626;stroke-miterlimit: 10"/>
          <path d="M405.53,334.52s-8.14-4.55-14.5,6.33" style="fill: none;stroke: #262626;stroke-miterlimit: 10"/>
          <path d="M512.78,429.82s-3-10-11.23-6-32.09,35.55-39.63,37.63,4.83,11.65,6.84,13.86S512.78,429.82,512.78,429.82Z" style="fill: #fff;stroke: #262626;stroke-miterlimit: 10"/>
          <path d="M590.81,515.84l-71.94-84.19s-2.33-4.81-8.59,1.43-35.85,38.53-41.52,42.25l-1.53-.83s-5.6,5-2.58,9.24,59.49,101,59.49,101Z" style="fill: #00654d;stroke: #262626;stroke-miterlimit: 10"/>
        </g>
        <g>
          <path d="M263.63,74.65s-46.42,41.51-50.25,44.24-9.83,21.3-10.92,26.22S191,163.68,187.71,168.6s-9.28,15.84,0,29,26.22,24.57,28.95,25.12,14.75,3.28,16.93,1.64a18.26,18.26,0,0,1,5.74-2.46s9.28,2.73,12.29,3,8.19.82,9.28-2.45-3.27-9.29-3.27-9.29,7.1,3.28,9.28.55,5.46-1.91,2.19-7.1l-3.28-5.19a30.16,30.16,0,0,0,7.37-1.09c3.83-1.1,4.1-4.1,2.73-5.47a24.81,24.81,0,0,1-3-4.37S283.3,170.51,285.75,156s12.57-23.48,13.93-25.67,18.57-37.14,16.94-41.51S263.63,74.65,263.63,74.65Z" style="fill: #fff;stroke: #262626;stroke-miterlimit: 10"/>
          <path d="M250.32,176.52s-15.16-2.87-7.58-19.87" style="fill: none;stroke: #262626;stroke-miterlimit: 10"/>
          <path d="M235.13,255.71l2.29,4.76a.77.77,0,0,0,1.5-.15l1.81-4.64Z" style="fill: #262626"/>
          <g>
            <path d="M241.11,253.63l.19-122.23a7.52,7.52,0,0,0-7.52-7.52h0a7.52,7.52,0,0,0-7.5,8l8.26,122a3.29,3.29,0,0,0,3.39,3.06h0A3.29,3.29,0,0,0,241.11,253.63Z" style="fill: #00654d"/>
            <g style="clip-path: url(#clip-path-4)">
              <path d="M220.76,171.05s13.38,15,27.58.82,2.19-53.52,2.19-53.52l-36.33-1.1Z" style="fill: #fbc469;stroke: #262626;stroke-miterlimit: 10"/>
            </g>
            <path d="M241.11,253.63l.19-122.23a7.52,7.52,0,0,0-7.52-7.52h0a7.52,7.52,0,0,0-7.5,8l8.26,122a3.29,3.29,0,0,0,3.39,3.06h0A3.29,3.29,0,0,0,241.11,253.63Z" style="fill: none;stroke: #262626;stroke-miterlimit: 10"/>
          </g>
          <path d="M241.72,156.24s5.94,1,8.4,5.53,3.48,8.4,1,13.93-12.9,24.78-14.13,30.72-2.67,11.27,3.48,13.93,11.26-4.51,12.29-5.53,12.49-14.54,14.34-16.59,8.43-12.91,8.63-13.52" style="fill: #fff;stroke: #262626;stroke-miterlimit: 10"/>
          <path d="M227.59,157.26s-9,10.24-10.25,12.09-10,13.31-10,17-.21,7.78,7.17,14.13,17,13.31,17,13.31" style="fill: none;stroke: #262626;stroke-miterlimit: 10"/>
          <path d="M230.25,193.93s-7.38-2.67-9-6.15-6.15-8-4.1-17.41" style="fill: none;stroke: #262626;stroke-miterlimit: 10"/>
          <line x1="244.59" y1="187.99" x2="241.51" y2="185.12" style="fill: none;stroke: #262626;stroke-miterlimit: 10"/>
          <path d="M240.18,202.73s.41,9.32,13,9" style="fill: none;stroke: #262626;stroke-miterlimit: 10"/>
          <path d="M264.86,61.41s-7,7.78.82,12.69S312.79,82.71,318.53,88s7.37-10.24,8.19-13.11S264.86,61.41,264.86,61.41Z" style="fill: #fff;stroke: #262626;stroke-miterlimit: 10"/>
          <path d="M276.33.5,263.22,55.26s-2.86,4.51,5.74,6.56,51.61,10.24,57.76,13.1l.1,1.74S334,78.82,336,74,379.15,1.73,379.15,1.73Z" style="fill: #00654d;stroke: #262626;stroke-miterlimit: 10"/>
        </g>
        <line x1="183.62" y1="316.75" x2="199.18" y2="322.49" style="fill: none;stroke: #262626;stroke-miterlimit: 10"/>
        <line x1="202.6" y1="255.17" x2="216.66" y2="272.51" style="fill: none;stroke: #262626;stroke-miterlimit: 10"/>
        <line x1="276.74" y1="255.3" x2="272.51" y2="235.37" style="fill: none;stroke: #262626;stroke-miterlimit: 10"/>
        <line x1="327.81" y1="229.77" x2="322.49" y2="255.17" style="fill: none;stroke: #262626;stroke-miterlimit: 10"/>
        <line x1="401" y1="274.69" x2="412.88" y2="266.09" style="fill: none;stroke: #262626;stroke-miterlimit: 10"/>
      </g>
    </g>
  </g>
</svg>
