<svg xmlns="http://www.w3.org/2000/svg" width="532.89" height="462.7" viewBox="0 0 532.89 462.7">
  <title>Ресурс 4</title>
  <g id="Слой_2" data-name="Слой 2">
    <g id="Слой_1-2" data-name="Слой 1">
      <g>
        <g>
          <path d="M283.69,23.3C227.61,15.05,212.87.13,163,0c-8.71,0-13.07,0-19,.7C98.19,6.37,48.2,41.49,35.93,86.83c-8.36,30.89,8.28,38.79,2.11,103.06-2.12,22.15-5.29,33.59-8.47,42.35C20.83,256.33,11.43,261.61,4.87,281c-8.23,24.23-4.13,47.34-1.41,57.17,5.64,20.46,22.06,44.49,79.05,71.3C232.56,480,392.45,442.21,443.93,407.3c9.24-6.27,17.64-13.41,17.64-13.41,9.9-8.41,42.37-36.68,60-84.71,13.16-35.83,11.79-65.58,10.59-91.76-1.78-38.71-10.9-67.17-17.65-88.24-7.87-24.58-12.14-37.5-23.29-52.94a133.84,133.84,0,0,0-53.65-43.76c-23.95-10.38-45.22-10.59-55.06-10.59-18.64,0-23,3.6-44.47,4.94C317.18,28.14,301.76,26,283.69,23.3Z" style="fill: #c4c4c4"/>
          <rect x="29.75" y="52.95" width="440.47" height="249.88" style="fill: none;stroke: #262626;stroke-miterlimit: 10"/>
          <line x1="36.63" y1="71.3" x2="119.93" y2="71.3" style="fill: none;stroke: #262626;stroke-miterlimit: 10"/>
          <line x1="36.63" y1="92.48" x2="119.93" y2="92.48" style="fill: none;stroke: #262626;stroke-miterlimit: 10"/>
          <line x1="430.51" y1="314.83" x2="500.4" y2="314.83" style="fill: none;stroke: #262626;stroke-miterlimit: 10"/>
          <circle cx="42.23" cy="318.21" r="4.83" style="fill: #262626"/>
          <circle cx="60.9" cy="318.21" r="4.83" style="fill: #262626"/>
          <circle cx="82.15" cy="318.21" r="4.83" style="fill: #262626"/>
          <rect x="47.55" y="114.01" width="404.21" height="164.12" style="fill: #fbc469;stroke: #262626;stroke-miterlimit: 10"/>
        </g>
        <g>
          <path d="M349.84,230.59c0-1.52-1.64-16.84.07-19.73s7.93,0,12.7.16,7.83-3.58,9.19-7.83,12.94-15,16.34-19.75,6.81-17.36,5.79-24.68-.85-10.21,1-14,7.15-10.89,7.15-15.66-6.3-28.93-19.24-26-15.31,1.19-29.78,14.64-19.58,19.91-30.3,30-21.45,14.64-20.43,21.1S299.46,187.53,310,193s13.11,9.54,9,15.15-12.43,16.51-12.43,16.51,34.52,9.88,37.94,9.88S349.84,230.59,349.84,230.59Z" style="fill: #fff;stroke: #000;stroke-miterlimit: 10"/>
          <rect x="308.06" y="294.85" width="57.77" height="73.4" style="fill: #fbc469;stroke: #262626;stroke-miterlimit: 10"/>
          <path d="M313.12,207.27S334.4,222,353.89,220.61L360.1,235s-49.45-1.81-52-7.24S313.12,207.27,313.12,207.27Z" style="fill: #fff;stroke: #262626;stroke-miterlimit: 10"/>
          <path d="M417.08,433s4.08,17,7.83,26.9c.27.7.81,2.33.81,2.33H264l27.76-66.76s-26.26-70.75-33.81-101.63,8.82-66.11,20.93-68.79,17.47-8.64,38.92.46,39.07-.54,49.28,4.94c22.8,12.26,39.57,78.47,52.59,100.68s32.94,31.49,29.11,58.64-15.32,34-23,38.64-26.81,4.2-30.64-9-11.49-25.46-21.45-33.12-22.21-54-38.29-64.55S323.89,301.38,314.69,299" style="fill: #fbc469;stroke: #262626;stroke-miterlimit: 10"/>
          <path d="M318.52,174.55s-4.08-4.6-3.91-5.28-6.36,8-12.28-7.89" style="fill: #fff;stroke: #000;stroke-miterlimit: 10"/>
          <path d="M402.1,135.44s20.08-21.58,12.59-32.58-34.38-46.74-76.76-43.33-31.15,12-43.75,24-20.42,19.86-21.44,34.5.34,21.45,0,30.64-7.25,15.42-9.58,20-17.32,19.44-16.3,27.49,12.94,43.1,36.77,38.34,47.66-10.9,44.26-42.56c0,0-27.17,1.61-19.41-24.57,3-10.19,59.24-69.73,76.62-61.55C400.4,113,396,128,402.1,135.44Z" style="fill: #262626"/>
          <path d="M158,52s-11.23,5.79-13.61-8.85,1.36-25.54,9.19-23.15c0,0-4.09-10.9,4.42-10.9s29.62-1,49.37,7.49S245.16,27.4,252,53.17s3.14,38-4.76,51-22.13,19.07-22.13,19.07H206l9.54-50.73Z" style="fill: #262626"/>
          <path d="M162.27,35.7s-14.3,23-14.81,24.51-4.6,11.74-4.6,17.87-2.38,26.38-2,34.72.17,26.9,2.9,31.83,6.8,12.77,18.55,14.13v38.81l64.85-43.74V129.65s11.4-10.38,15.49-17,2-15.49-.85-16.51-9.19-.51-13.28,9.19-3.23,11.92-3.23,12.43-10.9.51-10.9.51L224.74,83s-4.77-4.77-6-7.32a4.91,4.91,0,0,1,1.87-6.13c1.7-1.19,5.28-4.77,1.19-5.11S196.65,66.17,162.27,35.7Z" style="fill: #fff;stroke: #000;stroke-miterlimit: 10"/>
          <path d="M149.84,66.15s12.94-3.56,16.34,2.91,3.07,13.28,0,17.7-6.76,20.43-7,21.79,15.12,2.72,15.12,2.72" style="fill: none;stroke: #000;stroke-miterlimit: 10"/>
          <path d="M185.25,69.74s15.66-2.38,19.06,5.45" style="fill: none;stroke: #000;stroke-miterlimit: 10"/>
          <path d="M162.1,127.27s17.36,7.15,23.15-4.08" style="fill: none;stroke: #000;stroke-miterlimit: 10"/>
          <ellipse cx="194.78" cy="90.39" rx="2.55" ry="4.65" style="fill: #262626"/>
          <ellipse cx="159.55" cy="83.58" rx="2.55" ry="4.65" style="fill: #262626"/>
          <path d="M159,192a14.47,14.47,0,0,0,3.23-1.7" style="fill: #fff;stroke: #262626;stroke-miterlimit: 10"/>
          <path d="M97.76,304.63l17.91-58.9s-18.25,18-20,20.44,2,10.89-7.83,18.38S50.1,302.59,47,304.63s-10.9,6.47-14.64,16-9.19,22.81-8.51,34.05,14.29,15,21.44,17,20.43,5.78,22.13,5.44c0,0,28.94-26.55,55.49-34,0,0-4.09-17.7,0-26.55s.34-12.26,6.47-13.62C129.42,302.93,100.82,306.34,97.76,304.63Z" style="fill: #00654d;stroke: #262626;stroke-miterlimit: 10"/>
          <path d="M59,306.34s22-.46,38.81-1.71" style="fill: #00654d;stroke: #262626;stroke-miterlimit: 10"/>
          <path d="M84.13,462.2l7.16-72.46-12.94,2.38s-6.46,31.32-10.89,45.62c-1.73,5.61-2.63,14.67-3.39,24.46Z" style="fill: #00654d;stroke: #262626;stroke-miterlimit: 10"/>
          <path d="M229.2,462.2l-3.1-25.14H76.35s-.53,9-1.82,25.14Z" style="fill: #262626"/>
          <path d="M86.52,392.12s-1,15.32-6.46,23.15-8.85,23.83-1.71,27.58S96.4,449.31,99.46,449s9.19-59.23,9.19-59.23Z" style="fill: #fff;stroke: #262626;stroke-miterlimit: 10"/>
          <path d="M162.1,207.27s-24.43,35.91-28.14,42.5-18.84,45-19.52,54.86l15-1.7s9.47-1.7,14.27-2.72,16,1.7,18.58,6.13,3.23,4.08,0,7.49-8.34-1-8.34,3.74,2.72,11.23-4.09,13.62-25.09,14.3-33.48,14.13-30.57,16.42-39.74,24.12-19.37,18.94-15,22.68,17.71,4.77,26.9,3.41,36.42,0,40.85,2,40.17,5.11,45.62,0,8.85-1.7,14.63-2,19.41-10.51,24.17-18.36,59.58-93.3,52.43-127" style="fill: #00654d;stroke: #262626;stroke-miterlimit: 10"/>
          <path d="M246.75,462.2c-.18-3.4-.27-5.88-.23-7.1C246.86,445.57,235,402,235,402s33.7-95.32,35.74-104.86,10.56-36.08,7.49-54.46-17.7-36.43-22.46-46.51-24.51-35.88-24.51-35.88l-63,50.3L104.91,388.72c-5.37,16.45-8.63,44.67-10.6,73.48Z" style="fill: #00654d;stroke: #262626;stroke-miterlimit: 10"/>
          <path d="M97.76,304.63c0-1-1.36-33.36,11.23-50.38s34.7-39.49,34.7-39.49l2.41-22.47L162.27,180v10.21l66.89-43.91L235,160,165.8,216.88,159,192l3.06,15.32s-31,43.58-34.72,55.49-12.94,35.07-12.94,41.87Z" style="fill: #fff;stroke: #262626;stroke-miterlimit: 10"/>
          <path d="M143.69,214.76s1.16,3.24,3.13,2.09c1.53-.9,2.17-20.68,2.17-20.68l.85,28.85" style="fill: none;stroke: #262626;stroke-miterlimit: 10"/>
          <path d="M69.5,305.48s-6.91-6.47-5.49-10,8.14-1.27,8.23,1S78,304.89,78,304.89s-4.27-11.38-4-12.77,2.18-7.91,7-3.32,7,16.45,7,16.45S84,289,84.07,287.19s2.54-8.34,6.89-3,.43,20.64.43,20.64" style="fill: #fff;stroke: #262626;stroke-linecap: round;stroke-linejoin: round"/>
          <path d="M121.59,344.4s21.87-9.64,26-11,8.85-2.21,8.85-6.89-3.92-9.11,0-9.88,6.46-.51,8.17-3.32,2.55-3.91,0-6.55-8.51-8-13.45-7.74-20.3,3.66-24.05,4.8C123.51,304.9,112.4,332.23,121.59,344.4Z" style="fill: #fff;stroke: #262626;stroke-linecap: round;stroke-linejoin: round"/>
          <path d="M162.27,158.76s11.06,1.87,18-2" style="fill: none;stroke: #000;stroke-miterlimit: 10"/>
          <path d="M366.92,376.69a128.48,128.48,0,0,1-17.25,9.14c-8,3.23-11.57,7.63-10,9.52s12.94-.67,17.7-1.87,10.39-5.27,10.39-5.27-20.43,14.47-24,14.3-5.28,6.12-.68,5.61,18-2.72,21.44-5.61,10.73-6.49,12.09-7.16.85,2.36-2.39,5-13.1,5.78-15.14,7.79-4.92,3.72-.76,5.42,11.48-1.53,15.39-2.72,8.85-2.73,10.73-4.43-2,5.45-4.09,6.47-8.85,4.25-5.62,6.13,10.39-.68,12.6-2.73l5.09-4.68s-6.66-12.48-8-14.21S369.19,381.21,366.92,376.69Z" style="fill: #fff;stroke: #000;stroke-miterlimit: 10"/>
          <path d="M367.72,128.63s-15.83-7-22.3,3.75" style="fill: #fff;stroke: #000;stroke-miterlimit: 10"/>
          <path d="M398,137.48c-.51-.34-.68-6.8-8.34-3.23s-10,3.58-10.89,7.83,2.21,23,0,24.68-9.7,1.87-14,0" style="fill: #fff;stroke: #000;stroke-miterlimit: 10"/>
          <path d="M353.89,209.63s-9.49-4.91-16-11" style="fill: #fff;stroke: #000;stroke-miterlimit: 10"/>
          <ellipse cx="353.89" cy="141.91" rx="2.68" ry="4.43" style="fill: #262626"/>
          <ellipse cx="387.78" cy="146.7" rx="2.68" ry="4.43" style="fill: #262626"/>
          <path d="M345.42,170.51s2,10.21,11.57,10.89" style="fill: #fff;stroke: #000;stroke-miterlimit: 10"/>
        </g>
      </g>
    </g>
  </g>
</svg>
