<svg xmlns="http://www.w3.org/2000/svg" viewBox="0 0 145 145"><defs><style>.cls-1,.cls-5,.cls-6,.cls-9{fill:none;}.cls-1,.cls-5,.cls-9{stroke:#007b64;}.cls-1,.cls-5,.cls-6,.cls-8,.cls-9{stroke-linecap:round;}.cls-1,.cls-5,.cls-6,.cls-8{stroke-linejoin:round;}.cls-1,.cls-6,.cls-8,.cls-9{stroke-width:2px;}.cls-2{fill:#f1f1f1;}.cls-3{fill:#ebebeb;}.cls-4{fill:#fff;}.cls-5{stroke-width:2.04px;}.cls-6,.cls-8{stroke:#ffc463;}.cls-7,.cls-8{fill:#ffc463;}.cls-9{stroke-miterlimit:10;}</style></defs><title>33 Личный прием руководством инспекций копия</title><g id="_36_Подача_декларации" data-name="36 Подача декларации"><line class="cls-1" x1="5.31" y1="133.49" x2="124.93" y2="133.49"/><line class="cls-1" x1="129.43" y1="133.49" x2="140.31" y2="133.49"/><path class="cls-2" d="M40.76,132.83S63,124,79,127a29.35,29.35,0,0,0,26-8v9l-2.45,4.06-1.29,1.43H42Z"/><path class="cls-3" d="M31.13,42.66s-2.62,17-2.51,23.77-5.45,14.74-5.45,14.74l-1.6-33.83,1.23-2.82,1.88-1.29Z"/><path class="cls-1" d="M32.84,129.84a6.34,6.34,0,0,1-6.71-5.92l-4.65-74A6.33,6.33,0,0,1,27.4,43.2l4.13-.26"/><path class="cls-4" d="M104.75,115.52v11.85a6.12,6.12,0,0,1-6.13,6.12H43.52a6.12,6.12,0,0,1-6.12-6.12V41.65a6.12,6.12,0,0,1,6.12-6.12H86.9l17.85,18.88"/><path class="cls-5" d="M104.75,106.34v21a6.12,6.12,0,0,1-6.13,6.12H43.52a6.12,6.12,0,0,1-6.12-6.12V41.65a6.12,6.12,0,0,1,6.12-6.12H86.46a1,1,0,0,1,.74.32l17.55,18.56"/><polyline class="cls-1" points="104.75 54.67 104.75 63.8 104.75 66.95"/><path class="cls-1" d="M96.58,54.41h-5.1a6.12,6.12,0,0,1-6.12-6.12V43.18"/><line class="cls-1" x1="44.58" y1="76.03" x2="82" y2="76.03"/><line class="cls-1" x1="44.58" y1="67.7" x2="82" y2="67.7"/><line class="cls-1" x1="44.58" y1="84.37" x2="82" y2="84.37"/><line class="cls-1" x1="44.58" y1="92.7" x2="82" y2="92.7"/><path class="cls-6" d="M76,121s-7-5-14-2-16,1-14-4"/></g><g id="_48_Программное_обеспечение_для_плательщиков" data-name="48 Программное обеспечение для плательщиков"><path class="cls-4" d="M119.05,66.33a3.22,3.22,0,0,1,2,.84l1.58,1.46c1.5,1.38,1.36,4-.3,5.75l-33.7,36.49-10.27,4.57,3.28-11,31.22-33.8,1.41-1.52"/><rect class="cls-3" x="98.43" y="75.74" width="3.64" height="38.8" transform="translate(91.17 -42.76) rotate(42.73)"/><polygon class="cls-7" points="111.56 72.08 108 76 114.74 82.13 118.88 78.18 111.81 71.81 111.56 72.08"/><line class="cls-6" x1="115.01" y1="82.37" x2="108.02" y2="75.91"/><line class="cls-8" x1="111.55" y1="72.08" x2="118.55" y2="78.54"/><path class="cls-1" d="M119.05,66.33a3.22,3.22,0,0,1,2,.84l1.58,1.46c1.5,1.38,1.36,4-.3,5.75l-33.7,36.49-10.27,4.57,3.28-11,31.22-33.8,1.41-1.52"/><line class="cls-9" x1="81.69" y1="104.41" x2="88.68" y2="110.87"/></g></svg>