<svg xmlns="http://www.w3.org/2000/svg" viewBox="0 0 145 145"><defs><style>.cls-1{fill:#ebebeb;}.cls-2,.cls-4,.cls-5,.cls-7{fill:none;stroke:#007b64;stroke-linecap:round;stroke-linejoin:round;}.cls-2{stroke-width:2px;}.cls-3{fill:#fff;}.cls-4{stroke-width:2.04px;}.cls-5{stroke-width:1.71px;}.cls-6{fill:#ffc463;}.cls-7{stroke-width:1.99px;}</style></defs><title>32 Бюджетные счета копия</title><g id="_35_Постановка_на_учет" data-name="35 Постановка на учет"><path class="cls-1" d="M107.19,60.42S104,74,106,81s2,13,3,15l2.22-28.62L111,63l-1.82-1.72Z"/><line class="cls-2" x1="7.3" y1="134.89" x2="128.47" y2="134.89"/><line class="cls-2" x1="135.79" y1="134.89" x2="141.3" y2="134.89"/><path class="cls-1" d="M24.48,60.62s4.41,2.29,3.41,9.29,0,11-1,16c-.8,4-2,8-2,8L22.07,66.55V63.91l1.37-2.77Z"/><rect class="cls-3" x="33.13" y="45.5" width="68" height="89" rx="7.05"/><path class="cls-1" d="M38.37,134.23S53,124,66,124s15-8,35.1-8.35L101,128l-2.65,5.07-1.54,1.16Z"/><path class="cls-4" d="M106.74,60.42a5,5,0,0,1,4.61,5.37l-4.86,63.76a5.3,5.3,0,0,1-.3,1.39"/><path class="cls-2" d="M101.1,57.79v69.72a7,7,0,0,1-7,7H40.31a7,7,0,0,1-7-7V52.32a7,7,0,0,1,7-7H94.1a7,7,0,0,1,7,7V60.1"/><path class="cls-5" d="M29,131.8a5.59,5.59,0,0,1-.38-.87,5.83,5.83,0,0,1-.32-1.4L22,65.66a6,6,0,0,1,4.17-6.3"/><path class="cls-6" d="M47.89,59.83v9.8h-3.3V62.32H42.91V59.83Z"/><line class="cls-2" x1="57.81" y1="64.73" x2="87.81" y2="64.73"/><path class="cls-6" d="M50.62,86.65v2.57H42.76v-2l3.55-3.28a2.87,2.87,0,0,0,.61-.74,1.29,1.29,0,0,0,.16-.61.66.66,0,0,0-.25-.56,1,1,0,0,0-.7-.2,1.58,1.58,0,0,0-1.45.91l-2.49-1.25a4.09,4.09,0,0,1,1.64-1.66,5.18,5.18,0,0,1,2.6-.61,5.29,5.29,0,0,1,2.06.38,3.19,3.19,0,0,1,1.4,1.08,2.64,2.64,0,0,1,.51,1.61,3.43,3.43,0,0,1-.35,1.52,5.66,5.66,0,0,1-1.34,1.6l-1.39,1.27Z"/><line class="cls-2" x1="57.81" y1="84.2" x2="87.81" y2="84.2"/><path class="cls-6" d="M50.63,103.67a2.71,2.71,0,0,1,.6,1.77,3,3,0,0,1-.48,1.64,3.26,3.26,0,0,1-1.47,1.24,5.63,5.63,0,0,1-2.47.48,10.11,10.11,0,0,1-2-.22,6.38,6.38,0,0,1-1.77-.66l1.1-2.44a5.32,5.32,0,0,0,1.28.53,5.26,5.26,0,0,0,1.32.19,1.83,1.83,0,0,0,.91-.2.62.62,0,0,0,.35-.56c0-.45-.38-.67-1.15-.67H45.53v-2L47,101.27H43.5V98.78h7.21v2l-1.8,1.84A3.13,3.13,0,0,1,50.63,103.67Z"/><line class="cls-7" x1="58.22" y1="103.79" x2="87.81" y2="103.79"/></g></svg>