<svg xmlns="http://www.w3.org/2000/svg" viewBox="0 0 145 145"><defs><style>.cls-1{fill:none;stroke:#007b64;stroke-linecap:round;}.cls-1,.cls-6{stroke-miterlimit:10;stroke-width:2px;}.cls-2,.cls-6{fill:#fff;}.cls-3{fill:#ebebeb;}.cls-4{fill:#ffc463;}.cls-5{fill:#c4c4c4;}.cls-6{stroke:#ffc463;}</style></defs><title>33 Личный прием руководством инспекций копия 5</title><g id="_48_Программное_обеспечение_для_плательщиков" data-name="48 Программное обеспечение для плательщиков"><line class="cls-1" x1="143.6" y1="123.39" x2="8.6" y2="123.55"/><rect class="cls-2" x="18" y="37" width="107.5" height="86" rx="6.98"/><path class="cls-3" d="M18,112.92H126a0,0,0,0,1,0,0v2.47a8,8,0,0,1-8,8H26a8,8,0,0,1-8-8v-2.47a0,0,0,0,1,0,0Z"/><line class="cls-1" x1="27.03" y1="49.04" x2="116.97" y2="49.14"/><rect class="cls-4" x="91.93" y="42.76" width="22.48" height="2.02" rx="1.01" transform="matrix(1, 0, 0, 1, 0.05, -0.12)"/><rect class="cls-5" x="28.84" y="42.28" width="2.81" height="2.81" rx="1.41" transform="translate(0.05 -0.03) rotate(0.07)"/><rect class="cls-5" x="33.06" y="42.29" width="2.81" height="2.81" rx="1.41" transform="translate(0.05 -0.04) rotate(0.07)"/><rect class="cls-5" x="37.27" y="42.29" width="2.81" height="2.81" rx="1.41" transform="matrix(1, 0, 0, 1, 0.05, -0.04)"/><path class="cls-1" d="M18,94.84V44.69a7.56,7.56,0,0,1,7.56-7.56h92.88A7.56,7.56,0,0,1,126,44.69V116a7.55,7.55,0,0,1-7.56,7.56H25.56A7.55,7.55,0,0,1,18,116V105.73"/><line class="cls-1" x1="30.74" y1="71.8" x2="59.96" y2="71.8"/><line class="cls-1" x1="30.74" y1="78" x2="59.96" y2="78"/><line class="cls-1" x1="30.74" y1="84.19" x2="59.96" y2="84.19"/><rect class="cls-6" x="74.28" y="63.21" width="26.53" height="6.12" rx="3.06"/><rect class="cls-6" x="84.48" y="69.33" width="26.53" height="6.12" rx="3.06"/><rect class="cls-6" x="79.38" y="75.45" width="26.53" height="6.12" rx="3.06"/><rect class="cls-6" x="79.38" y="81.57" width="26.53" height="6.12" rx="3.06"/><rect class="cls-6" x="79.38" y="87.69" width="26.53" height="6.12" rx="3.06"/><rect class="cls-6" x="79.38" y="93.82" width="26.53" height="6.12" rx="3.06"/><circle class="cls-4" cx="103.23" cy="91.9" r="12.88"/></g></svg>