<svg xmlns="http://www.w3.org/2000/svg" viewBox="0 0 145 145"><defs><style>.cls-1,.cls-4,.cls-6{fill:none;stroke:#007b64;}.cls-1,.cls-6{stroke-linecap:round;stroke-linejoin:round;}.cls-1{stroke-width:2px;}.cls-2{fill:#ebebeb;}.cls-3{fill:#fff;}.cls-4{stroke-miterlimit:10;stroke-width:1.59px;}.cls-5{fill:#ffc463;}.cls-6{stroke-width:1.71px;}</style></defs><title>31 Налогообложение физических лиц и ответы на актуальные вопросы налогоплательщиков копия</title><g id="_34_Проверить_необходимость_постановки_на_учет" data-name="34 Проверить необходимость постановки на учет"><line class="cls-1" x1="7.4" y1="134.98" x2="128.58" y2="134.98"/><line class="cls-1" x1="135.9" y1="134.98" x2="141.4" y2="134.98"/><path class="cls-2" d="M24.59,60.71S29,63,28,70s0,11-1,16c-.81,4-2,8-2,8L22.18,66.63V64l1.36-2.76Z"/><rect class="cls-3" x="33.37" y="45.58" width="68" height="89" rx="7.05"/><path class="cls-2" d="M33.42,126.56h67.79a0,0,0,0,1,0,0v1.38a7.54,7.54,0,0,1-7.54,7.54H41a7.54,7.54,0,0,1-7.54-7.54v-1.38A0,0,0,0,1,33.42,126.56Z"/><rect class="cls-4" x="118.11" y="95.47" width="6.37" height="32.67" rx="1.49" transform="translate(-42.96 96.51) rotate(-37.35)"/><circle class="cls-5" cx="101.33" cy="85.65" r="20.72"/><circle class="cls-3" cx="101.33" cy="85.65" r="16.33"/><path class="cls-2" d="M107.18,94c-1.42,4.92-6.56,8-6.56,8a16.34,16.34,0,0,0,16.19-21.56h0C112,80.87,108.94,85.79,107.18,94Z"/><line class="cls-1" x1="50.45" y1="60.54" x2="75" y2="60.54"/><path class="cls-5" d="M45.39,57v7H43V58.82h-1.2V57Z"/><line class="cls-1" x1="50.45" y1="74.38" x2="75" y2="74.38"/><path class="cls-5" d="M46.72,76.13V78H41.11V76.51l2.53-2.34a1.87,1.87,0,0,0,.44-.53.86.86,0,0,0,.11-.43.51.51,0,0,0-.17-.4.77.77,0,0,0-.51-.14,1.09,1.09,0,0,0-.6.17,1.15,1.15,0,0,0-.43.47l-1.78-.89a3,3,0,0,1,1.17-1.18,3.74,3.74,0,0,1,1.86-.44,3.54,3.54,0,0,1,1.47.28,2.28,2.28,0,0,1,1,.76A2,2,0,0,1,46.56,73a2.51,2.51,0,0,1-.24,1.08,4.13,4.13,0,0,1-1,1.14l-1,.91Z"/><line class="cls-1" x1="50.45" y1="88.31" x2="75" y2="88.31"/><path class="cls-5" d="M46.27,88.22a1.92,1.92,0,0,1,.43,1.27,2.13,2.13,0,0,1-.34,1.17,2.46,2.46,0,0,1-1.07.89,4.3,4.3,0,0,1-1.79.34A7.35,7.35,0,0,1,42,91.73a5,5,0,0,1-1.29-.47l.8-1.74a4.22,4.22,0,0,0,.93.38,4.09,4.09,0,0,0,1,.13,1.35,1.35,0,0,0,.66-.14.44.44,0,0,0,.25-.4c0-.32-.28-.48-.83-.48h-.93V87.56l1-1H41.1V84.73h5.22v1.45L45,87.5A2.25,2.25,0,0,1,46.27,88.22Z"/><line class="cls-1" x1="50.45" y1="102.15" x2="75" y2="102.15"/><path class="cls-5" d="M47.39,104.45h-.93v1.2H44.17v-1.2H40.54V103l3-4.3h2.42l-2.64,4h1v-1.07h2.22v1.07h.93Z"/><line class="cls-1" x1="50.45" y1="115.99" x2="75" y2="115.99"/><path class="cls-5" d="M46.09,115.5a2,2,0,0,1,.7,1.61,2.28,2.28,0,0,1-.35,1.22,2.44,2.44,0,0,1-1.06.9,4.14,4.14,0,0,1-1.79.34,6.71,6.71,0,0,1-1.48-.16,4.2,4.2,0,0,1-1.28-.47l.8-1.74a3.51,3.51,0,0,0,.92.38,3.56,3.56,0,0,0,1,.13,1.4,1.4,0,0,0,.66-.14.46.46,0,0,0,.26-.41.4.4,0,0,0-.23-.37,1.82,1.82,0,0,0-.83-.13h-2l.35-4.25h4.65v1.78H43.62l0,.69h.36A3.18,3.18,0,0,1,46.09,115.5Z"/><path class="cls-1" d="M101.21,110.87V127.6a7,7,0,0,1-7,7H40.42a7,7,0,0,1-7-7V52.4a7,7,0,0,1,7-7H94.21a7,7,0,0,1,7,7v7.78"/><path class="cls-6" d="M29.12,131.88a6.1,6.1,0,0,1-.39-.86,6.43,6.43,0,0,1-.31-1.41L22.09,65.74a6,6,0,0,1,4.17-6.29"/></g></svg>