<svg xmlns="http://www.w3.org/2000/svg" xmlns:xlink="http://www.w3.org/1999/xlink" width="602.53" height="518.26" viewBox="0 0 602.53 518.26">
  <defs>
    <clipPath id="clip-path">
      <rect x="51.11" y="340.95" width="75.09" height="24.2" rx="10.05" transform="translate(-204.56 137.34) rotate(-39.56)" style="fill: #c4c4c4;stroke: #262626;stroke-miterlimit: 10"/>
    </clipPath>
  </defs>
  <title>Ресурс 9</title>
  <g id="Слой_2" data-name="Слой 2">
    <g id="Слой_1-2" data-name="Слой 1">
      <g>
        <path d="M114.55,94.55C131,31.45,240.4,9.71,259.33,6,277,2.44,387.09-17.62,453.73,43.36c15.78,14.43,2.75,9.28,52.65,82.69,27.48,40.42-6.07,53.21,72.9,115.18,27.49,21.57,26.29,70.15,18.23,108.12-10,47-22,67.65-33.42,84.83-6.69,10.1-27.45,40.56-66.82,55.12C431.83,513.51,367,474.56,360.58,470.6c-27.09-16.82-28.38-29.45-54.67-37.41-28.53-8.63-55.59-2.42-79,2.95-44.68,10.27-46.52,23-73.91,23.63-40.43,1-71.17-25.87-81-34.45-7.61-6.65-46.1-40.27-47.58-93.53C22.89,276.17,62.82,238.19,71,230.4c20.95-19.92,29.78-16.06,40.5-32.49C133.9,163.59,104.68,132.41,114.55,94.55Z" style="fill: #c4c4c4"/>
        <g>
          <g>
            <g>
              <rect x="135.75" y="18.57" width="137.17" height="254.04" transform="translate(-0.44 0.63) rotate(-0.18)" style="fill: #fff;stroke: #262626;stroke-miterlimit: 10"/>
              <path d="M255.07,56.81A12.44,12.44,0,0,1,242.59,44.4a13.16,13.16,0,0,1,.17-2l-76.65.23a13.17,13.17,0,0,1,.19,2,12.45,12.45,0,0,1-12.41,12.48c-.42,0-.84,0-1.25-.06l.55,179.23c.41,0,.83-.07,1.25-.07a12.44,12.44,0,0,1,12.48,12.41c0,.05,0,.1,0,.16l76.31-.24c0-.05,0-.1,0-.16a12.45,12.45,0,0,1,12.41-12.48l.41,0-.55-179.14ZM204.43,177a31.39,31.39,0,1,1,31.28-31.48A31.38,31.38,0,0,1,204.43,177Z" style="fill: #00654d;stroke: #262626;stroke-miterlimit: 10"/>
            </g>
            <g>
              <rect x="101.32" y="40.17" width="137.17" height="254.04" transform="translate(-40.21 54.62) rotate(-16.36)" style="fill: #fff;stroke: #262626;stroke-miterlimit: 10"/>
              <path d="M193.9,67.79a12.46,12.46,0,0,1-15.45-8.44,13.89,13.89,0,0,1-.4-2L104.51,79a11.82,11.82,0,0,1,.73,1.88,12.44,12.44,0,0,1-8.43,15.44,10.78,10.78,0,0,1-1.22.29l50.48,172a11,11,0,0,1,1.18-.42,12.45,12.45,0,0,1,15.44,8.44c0,.05,0,.1,0,.16L236,255.23a.78.78,0,0,1,0-.14,12.44,12.44,0,0,1,8.44-15.45l.39-.1L194.28,67.65ZM178.75,197.3a31.38,31.38,0,1,1,21.27-39A31.38,31.38,0,0,1,178.75,197.3Z" style="fill: #00654d;stroke: #262626;stroke-miterlimit: 10"/>
            </g>
            <g>
              <rect x="81.75" y="62.44" width="137.17" height="254.04" transform="translate(-68.97 87.47) rotate(-26.63)" style="fill: #fff;stroke: #262626;stroke-miterlimit: 10"/>
              <path d="M156.21,87.38a12.45,12.45,0,0,1-16.7-5.55,12.32,12.32,0,0,1-.74-1.87L70.25,114.31A12.88,12.88,0,0,1,71.31,116a12.46,12.46,0,0,1-5.55,16.71c-.38.18-.76.35-1.14.5l80.32,160.22c.35-.22.71-.43,1.09-.62a12.45,12.45,0,0,1,16.7,5.55c0,.05,0,.1.07.14L231,264.32l-.07-.13a12.45,12.45,0,0,1,5.54-16.71l.38-.16L156.57,87.18Zm8.19,130.14a31.38,31.38,0,1,1,14-42.12A31.38,31.38,0,0,1,164.4,217.52Z" style="fill: #00654d;stroke: #262626;stroke-miterlimit: 10"/>
            </g>
            <g>
              <rect x="66.9" y="92.82" width="137.17" height="254.04" transform="translate(-110.51 141.28) rotate(-40.65)" style="fill: #fff;stroke: #262626;stroke-miterlimit: 10"/>
              <path d="M116.46,119.37A12.45,12.45,0,0,1,98.91,118a11.43,11.43,0,0,1-1.17-1.64L39.58,166.32A12,12,0,0,1,41,167.73a12.45,12.45,0,0,1-1.33,17.55c-.32.27-.65.52-1,.76L155.44,322c.29-.3.59-.58.91-.86a12.44,12.44,0,0,1,17.55,1.34l.09.12,57.9-49.7-.1-.12a12.45,12.45,0,0,1,1.33-17.55c.11-.09.22-.16.32-.25L116.75,119.09Zm39.46,124.28a31.38,31.38,0,1,1,3.37-44.25A31.38,31.38,0,0,1,155.92,243.65Z" style="fill: #00654d;stroke: #262626;stroke-miterlimit: 10"/>
            </g>
          </g>
          <line x1="34.56" y1="484.35" x2="566.79" y2="484.35" style="fill: none;stroke: #262626;stroke-miterlimit: 10"/>
          <g>
            <rect x="49.31" y="222.99" width="183.98" height="247.81" rx="28.71" transform="translate(-188.58 169.46) rotate(-39.56)" style="fill: #fff;stroke: #262626;stroke-miterlimit: 10"/>
            <path d="M22.85,251.15h129a17.26,17.26,0,0,1,17.26,17.26v43.65a0,0,0,0,1,0,0H5.59a0,0,0,0,1,0,0V268.42a17.26,17.26,0,0,1,17.26-17.26Z" transform="translate(-159.35 120.14) rotate(-39.56)" style="fill: #262626"/>
            <rect x="14.67" y="262.32" width="148.1" height="41.72" transform="translate(-160.04 121.38) rotate(-39.56)" style="fill: #c4c4c4"/>
            <rect x="20.99" y="268.51" width="135.34" height="29.19" transform="translate(-160 121.32) rotate(-39.56)" style="fill: #ebebeb"/>
            <g>
              <rect x="51.11" y="340.95" width="75.09" height="24.2" rx="10.05" transform="translate(-204.56 137.34) rotate(-39.56)" style="fill: #c4c4c4"/>
              <g style="clip-path: url(#clip-path)">
                <line x1="58.1" y1="356.11" x2="80.95" y2="383.77" style="fill: #c4c4c4;stroke: #262626;stroke-miterlimit: 10"/>
                <line x1="67.95" y1="347.97" x2="90.8" y2="375.63" style="fill: #c4c4c4;stroke: #262626;stroke-miterlimit: 10"/>
                <line x1="77.8" y1="339.83" x2="100.65" y2="367.49" style="fill: #c4c4c4;stroke: #262626;stroke-miterlimit: 10"/>
                <line x1="87.65" y1="331.69" x2="110.5" y2="359.35" style="fill: #c4c4c4;stroke: #262626;stroke-miterlimit: 10"/>
                <line x1="97.5" y1="323.56" x2="120.35" y2="351.22" style="fill: #c4c4c4;stroke: #262626;stroke-miterlimit: 10"/>
              </g>
              <rect x="51.11" y="340.95" width="75.09" height="24.2" rx="10.05" transform="translate(-204.56 137.34) rotate(-39.56)" style="fill: none;stroke: #262626;stroke-miterlimit: 10"/>
            </g>
            <rect x="141.69" y="301.8" width="24.72" height="16.9" rx="6.71" transform="translate(-162.31 169.19) rotate(-39.56)" style="fill: #ebebeb;stroke: #262626;stroke-miterlimit: 10"/>
            <rect x="168.3" y="279.82" width="24.72" height="16.9" rx="6.71" transform="translate(-142.22 181.1) rotate(-39.56)" style="fill: #007a65;stroke: #262626;stroke-miterlimit: 10"/>
            <rect x="155.78" y="318.58" width="24.72" height="16.9" rx="6.71" transform="translate(-169.77 182) rotate(-39.56)" style="fill: #ebebeb;stroke: #262626;stroke-miterlimit: 10"/>
            <rect x="182.25" y="296.71" width="24.72" height="16.9" rx="6.71" transform="translate(-149.78 193.85) rotate(-39.56)" style="fill: #ebebeb;stroke: #262626;stroke-miterlimit: 10"/>
            <rect x="102.83" y="362.32" width="24.72" height="16.9" rx="6.71" transform="translate(-209.76 158.29) rotate(-39.56)" style="fill: #ebebeb;stroke: #262626;stroke-miterlimit: 10"/>
            <rect x="76.35" y="384.19" width="24.72" height="16.9" rx="6.71" transform="translate(-229.76 146.44) rotate(-39.56)" style="fill: #ebebeb;stroke: #262626;stroke-miterlimit: 10"/>
            <rect x="129.3" y="340.45" width="24.72" height="16.9" rx="6.71" transform="translate(-189.77 170.15) rotate(-39.56)" style="fill: #ebebeb;stroke: #262626;stroke-miterlimit: 10"/>
            <rect x="170.13" y="335.95" width="24.72" height="16.9" rx="6.71" transform="translate(-177.55 195.11) rotate(-39.56)" style="fill: #c4c4c4;stroke: #262626;stroke-miterlimit: 10"/>
            <rect x="196.6" y="314.07" width="24.72" height="16.9" rx="6.71" transform="translate(-157.55 206.97) rotate(-39.56)" style="fill: #c4c4c4;stroke: #262626;stroke-miterlimit: 10"/>
            <rect x="117.18" y="379.69" width="24.72" height="16.9" rx="6.71" transform="matrix(0.77, -0.64, 0.64, 0.77, -217.54, 171.41)" style="fill: #c4c4c4;stroke: #262626;stroke-miterlimit: 10"/>
            <rect x="90.7" y="401.56" width="24.72" height="16.9" rx="6.71" transform="translate(-237.53 159.56) rotate(-39.56)" style="fill: #ebebeb;stroke: #262626;stroke-miterlimit: 10"/>
            <rect x="143.65" y="357.82" width="24.72" height="16.9" rx="6.71" transform="translate(-197.54 183.26) rotate(-39.56)" style="fill: #c4c4c4;stroke: #262626;stroke-miterlimit: 10"/>
            <rect x="184.27" y="353.07" width="24.72" height="16.9" rx="6.71" transform="translate(-185.22 208.05) rotate(-39.56)" style="fill: #c4c4c4;stroke: #262626;stroke-miterlimit: 10"/>
            <rect x="210.75" y="331.2" width="24.72" height="16.9" rx="6.71" transform="translate(-165.22 219.9) rotate(-39.56)" style="fill: #c4c4c4;stroke: #262626;stroke-miterlimit: 10"/>
            <rect x="131.33" y="396.82" width="24.72" height="16.9" rx="6.71" transform="translate(-225.2 184.35) rotate(-39.56)" style="fill: #c4c4c4;stroke: #262626;stroke-miterlimit: 10"/>
            <rect x="104.85" y="418.69" width="24.72" height="16.9" rx="6.71" transform="translate(-245.2 172.49) rotate(-39.56)" style="fill: #ebebeb;stroke: #262626;stroke-miterlimit: 10"/>
            <rect x="157.8" y="374.94" width="24.72" height="16.9" rx="6.71" transform="translate(-205.21 196.2) rotate(-39.56)" style="fill: #c4c4c4;stroke: #262626;stroke-miterlimit: 10"/>
            <rect x="198.22" y="369.96" width="24.72" height="16.9" rx="6.71" transform="translate(-192.77 220.8) rotate(-39.56)" style="fill: #c4c4c4;stroke: #262626;stroke-miterlimit: 10"/>
            <rect x="224.7" y="348.09" width="24.72" height="16.9" rx="6.71" transform="translate(-172.78 232.65) rotate(-39.56)" style="fill: #c4c4c4;stroke: #262626;stroke-miterlimit: 10"/>
            <rect x="145.28" y="413.7" width="24.72" height="16.9" rx="6.71" transform="translate(-232.76 197.1) rotate(-39.56)" style="fill: #c4c4c4;stroke: #262626;stroke-miterlimit: 10"/>
            <rect x="118.8" y="435.57" width="24.72" height="16.9" rx="6.71" transform="translate(-252.76 185.25) rotate(-39.56)" style="fill: #007a65;stroke: #262626;stroke-miterlimit: 10"/>
            <rect x="171.75" y="391.83" width="24.72" height="16.9" rx="6.71" transform="translate(-212.77 208.95) rotate(-39.56)" style="fill: #c4c4c4;stroke: #262626;stroke-miterlimit: 10"/>
            <rect x="212.57" y="387.33" width="24.72" height="16.9" rx="6.71" transform="translate(-200.55 233.92) rotate(-39.56)" style="fill: #c4c4c4;stroke: #262626;stroke-miterlimit: 10"/>
            <rect x="239.05" y="365.45" width="24.72" height="16.9" rx="6.71" transform="translate(-180.55 245.77) rotate(-39.56)" style="fill: #c4c4c4;stroke: #262626;stroke-miterlimit: 10"/>
            <rect x="159.62" y="431.07" width="24.72" height="16.9" rx="6.71" transform="translate(-240.54 210.22) rotate(-39.56)" style="fill: #c4c4c4;stroke: #262626;stroke-miterlimit: 10"/>
            <rect x="133.15" y="452.94" width="24.72" height="16.9" rx="6.71" transform="translate(-260.53 198.36) rotate(-39.56)" style="fill: #007a65;stroke: #262626;stroke-miterlimit: 10"/>
            <rect x="186.1" y="409.2" width="24.72" height="16.9" rx="6.71" transform="translate(-220.54 222.07) rotate(-39.56)" style="fill: #c4c4c4;stroke: #262626;stroke-miterlimit: 10"/>
            <g>
              <path d="M142.54,465.83l1,2.58-.86.71-3.13-8.26,1-.82,7.53,4.62-.89.74-2.36-1.46Zm1.59-2.41L142,462.1c-.49-.3-.9-.61-1.3-.9h0c.21.46.45.94.64,1.44l.9,2.39Z" style="fill: #fff"/>
              <path d="M153.21,460.08a5.31,5.31,0,0,1-1.44,1.72,3.91,3.91,0,0,1-5.88-.65,4.15,4.15,0,0,1,.57-6.17,4.67,4.67,0,0,1,1.76-1l.35.86a3.78,3.78,0,0,0-1.51.8,3.11,3.11,0,0,0-.32,4.73,3,3,0,0,0,4.61.56,4.33,4.33,0,0,0,1.15-1.4Z" style="fill: #fff"/>
            </g>
            <path d="M174,437.89c1.75,2.11,1.92,3.94.55,5.07-1.21,1-3,.55-4.7-1.49s-1.76-4-.5-5S172.39,435.91,174,437.89Zm-3.29,2.88c1.33,1.62,2.59,2.13,3.35,1.49s.44-2-.88-3.63-2.47-2.22-3.35-1.49C169.12,437.74,169.33,439.08,170.73,440.77Z" style="fill: #fff"/>
            <path d="M155.49,420.18h0l-.6,1.48-.69-.51.75-1.85.72-.59,5.14,6.22-.82.67Z" style="fill: #fff"/>
            <path d="M146.81,408.08l-1.41-1.7-2.89,2.39-.45-.55-.5-6.26.91-.75,3.19,3.86.87-.72.54.66-.87.71,1.4,1.71Zm-1.95-2.35-1.71-2.08q-.41-.48-.78-1l0,0c.11.52.18.91.25,1.34l.22,3.37,0,0Z" style="fill: #fff"/>
            <path d="M128.76,383.31l.46.56,2,7.89-.87.72-1.85-7.72,0,0-3,2.51-.57-.7Z" style="fill: #fff"/>
            <g>
              <path d="M198.59,417.6c1.74,2.11,1.91,3.93.54,5.06-1.21,1-3,.56-4.7-1.49s-1.76-4-.5-5S197,415.62,198.59,417.6Zm-3.3,2.88c1.33,1.62,2.59,2.13,3.36,1.49s.43-2-.88-3.63-2.48-2.22-3.36-1.49C193.68,417.45,193.89,418.79,195.29,420.48Z" style="fill: #fff"/>
              <path d="M203.49,413.54c1.75,2.12,1.92,3.94.55,5.07-1.21,1-3,.55-4.7-1.49s-1.76-4-.5-5S201.86,411.56,203.49,413.54Zm-3.29,2.89c1.33,1.61,2.59,2.12,3.35,1.49s.44-2.05-.88-3.64-2.47-2.22-3.35-1.49C198.59,413.39,198.8,414.73,200.2,416.43Z" style="fill: #fff"/>
            </g>
            <path d="M185.17,404.8l-.42-.52.13-1.19c.34-2.82.4-4.22-.37-5.16a1.43,1.43,0,0,0-2.23-.2,2.71,2.71,0,0,0-.89,1.61l-.76-.37a3.6,3.6,0,0,1,1.23-2.08,2.28,2.28,0,0,1,3.4.24c1,1.15.88,2.76.62,5.11l-.11.86v0l2.79-2.3.57.7Z" style="fill: #fff"/>
            <path d="M170.38,379.34l-2.37,2,1.08,1.79a4.72,4.72,0,0,1,.49-.45,3.26,3.26,0,0,1,1.61-.77,2.28,2.28,0,0,1,2.2.86,2.78,2.78,0,0,1-.56,4,4,4,0,0,1-1.86.9l-.32-.82a3.54,3.54,0,0,0,1.62-.76,1.77,1.77,0,0,0,.35-2.56c-.66-.8-1.67-.91-2.91.11a8.14,8.14,0,0,0-.82.77l-2.07-3.31,3-2.46Z" style="fill: #fff"/>
            <path d="M155.32,366.32a2,2,0,0,1-2.15-.57,2.27,2.27,0,0,1,.57-3.25,2,2,0,0,1,3.25,2.34l0,0a2.25,2.25,0,0,1,2.58.58A2.47,2.47,0,0,1,159,369c-1.3,1.07-2.72,1-3.47.05a2.34,2.34,0,0,1-.15-2.69ZM153.93,365c.5.63,1.26.57,2.13.17a1.59,1.59,0,0,0,0-1.91,1.26,1.26,0,0,0-1.89-.15A1.29,1.29,0,0,0,153.93,365Zm4.88,1.19c-.62-.74-1.45-.68-2.49-.22a1.76,1.76,0,0,0,0,2.21,1.48,1.48,0,0,0,2.21.15A1.46,1.46,0,0,0,158.81,366.22Z" style="fill: #fff"/>
            <g>
              <path d="M221.94,398.3c1.75,2.11,1.92,3.94.55,5.07-1.21,1-3,.55-4.7-1.49s-1.77-4-.5-5S220.31,396.32,221.94,398.3Zm-3.29,2.88c1.33,1.62,2.59,2.13,3.35,1.5s.43-2.05-.88-3.64-2.47-2.22-3.35-1.49S217.25,399.49,218.65,401.18Z" style="fill: #fff"/>
              <path d="M226.85,394.25c1.75,2.11,1.92,3.93.55,5.06-1.21,1-3,.55-4.7-1.49s-1.77-4-.5-5S225.21,392.26,226.85,394.25Zm-3.3,2.88c1.34,1.62,2.59,2.12,3.36,1.49s.43-2.05-.88-3.63-2.48-2.22-3.35-1.5S222.15,395.44,223.55,397.13Z" style="fill: #fff"/>
              <path d="M231.76,390.19c1.75,2.11,1.92,3.94.55,5.07-1.22,1-3,.55-4.71-1.49s-1.76-4-.5-5S230.12,388.21,231.76,390.19Zm-3.3,2.88c1.34,1.62,2.59,2.13,3.36,1.5s.43-2.05-.88-3.64-2.48-2.22-3.36-1.49C226.86,390,227.06,391.38,228.46,393.07Z" style="fill: #fff"/>
            </g>
            <path d="M210.4,382.35a3.75,3.75,0,0,0,1.69-.75,1.59,1.59,0,0,0,.41-2.37c-.73-.86-1.82-.59-2.64.08l-.46.39-.53-.63.47-.39c.61-.5,1.13-1.46.52-2.2a1.22,1.22,0,0,0-1.86,0,2.93,2.93,0,0,0-.91,1.44l-.73-.43a3.92,3.92,0,0,1,1.24-1.83c1.22-1,2.38-.74,3,0a2,2,0,0,1,.07,2.42l0,0a2.08,2.08,0,0,1,2.69.44c.83,1,.76,2.51-.72,3.74a4.14,4.14,0,0,1-2,.91Z" style="fill: #fff"/>
            <path d="M195.94,358a5.1,5.1,0,0,0-.6.57,3.24,3.24,0,0,0-.34,4l0,0a2.46,2.46,0,0,1,4.44-1.51,2.7,2.7,0,0,1-.25,3.91c-1.32,1.09-3.05.78-4.38-.84a5,5,0,0,1-1.27-3.67,4.43,4.43,0,0,1,1.23-2.56,4.79,4.79,0,0,1,.58-.56Zm2.72,3.79a1.64,1.64,0,0,0-2.46-.37,1.79,1.79,0,0,0-.58,1.77,1.06,1.06,0,0,0,.21.43c.86,1,2,1.39,2.86.65A1.68,1.68,0,0,0,198.66,361.82Z" style="fill: #fff"/>
            <path d="M182.68,348.22a4,4,0,0,0,.66-.59,3,3,0,0,0,.8-1.67,3.53,3.53,0,0,0-.53-2.33l0,0a2.37,2.37,0,0,1-.93,1.87,2.33,2.33,0,0,1-3.4-.39,2.76,2.76,0,0,1,.3-4c1.27-1.06,2.9-.68,4.23.93a5.1,5.1,0,0,1,1.33,3.79,4.06,4.06,0,0,1-1.12,2.32,4.44,4.44,0,0,1-.74.69ZM180,344.4a1.55,1.55,0,0,0,2.29.34,1.85,1.85,0,0,0,.69-1.67.82.82,0,0,0-.19-.37c-.88-1.07-1.94-1.56-2.83-.82A1.73,1.73,0,0,0,180,344.4Z" style="fill: #fff"/>
            <path d="M135.78,445a5.44,5.44,0,0,1-1.46,1.71,3.89,3.89,0,0,1-5.87-.65,4.14,4.14,0,0,1,.57-6.16,4.53,4.53,0,0,1,1.76-1l.35.85a3.91,3.91,0,0,0-1.51.8,3.12,3.12,0,0,0-.32,4.74,3,3,0,0,0,4.61.55,4.31,4.31,0,0,0,1.15-1.39Z" style="fill: #fff"/>
            <g>
              <path d="M179.94,288.15c1.82,2.21,1.45,4.51-.19,5.87s-4,1.06-5.61-.89-1.53-4.43.19-5.85S178.35,286.22,179.94,288.15ZM175,292.38c1.15,1.39,2.91,2,4.23.92s1.07-2.92-.14-4.39c-1.07-1.29-2.84-2.07-4.23-.93S173.84,291,175,292.38Z" style="fill: #fff"/>
              <path d="M183.74,290.54l-5.33-6.44.92-.76,4.75,1.56a23,23,0,0,1,2.88,1.15l0,0a33.86,33.86,0,0,1-2.28-2.57l-2.23-2.69.78-.65,5.33,6.44-.84.7L183,285.66a27.2,27.2,0,0,1-3-1.16l0,0c.72.77,1.37,1.54,2.26,2.61l2.27,2.75Z" style="fill: #fff"/>
            </g>
            <g>
              <path d="M112.59,426.75l1.86,2.25,2.16-1.79.47.58-2.16,1.78,1.87,2.27-.61.5-1.87-2.26-2.16,1.78-.48-.57,2.16-1.79L112,427.26Z" style="fill: #262626"/>
              <path d="M122.27,427.94l-8.33-4.78.65-.54,8.33,4.78Z" style="fill: #262626"/>
              <path d="M122.86,422l.51.61-2.36,2-.51-.62Z" style="fill: #262626"/>
            </g>
            <path d="M100.78,409.53c1.08,1.31.94,2.52.13,3.19s-2,.57-3-.67-.93-2.49-.09-3.19S99.81,408.36,100.78,409.53Zm-2.23,1.94c.64.81,1.44,1.16,2,.73s.31-1.26-.36-2.07-1.37-1.21-2-.72S97.91,410.7,98.55,411.47ZM103,415.4l-1.66-9.47.53-.44,1.67,9.47Zm4-6.63c1.08,1.31.94,2.52.13,3.18s-1.95.57-3-.67-.93-2.5-.09-3.19S106,407.58,107,408.77Zm-2.23,1.93c.63.81,1.44,1.16,2,.73s.32-1.26-.36-2.08-1.37-1.21-2-.72S104.09,409.92,104.74,410.7Z" style="fill: #262626"/>
            <g>
              <path d="M88.6,393.55c-.79-.86-1.75-1.91-2.4-2.7l0,0c.38.93.8,2,1.21,3.11l1.44,4.07-.63.52-3.59-2.2c-1.06-.66-2-1.28-2.8-1.89h0c.64.82,1.48,1.93,2.23,2.95l2.11,2.91-.8.66-4.87-6.82,1.06-.88,3.68,2.21c.92.57,1.71,1.11,2.44,1.64l0,0c-.37-.79-.72-1.69-1.11-2.74l-1.42-4.07,1.06-.87,5.72,6.11-.82.68Z" style="fill: #262626"/>
              <path d="M97.53,390.59a5.38,5.38,0,0,1-1.45,1.72,3.91,3.91,0,0,1-5.88-.65,4.16,4.16,0,0,1,.57-6.17,4.47,4.47,0,0,1,1.77-1l.35.85a3.71,3.71,0,0,0-1.51.8,3.1,3.1,0,0,0-.32,4.73,3,3,0,0,0,4.61.56,4.42,4.42,0,0,0,1.14-1.4Z" style="fill: #262626"/>
            </g>
            <g>
              <path d="M115.13,371.62c-.79-.86-1.74-1.9-2.4-2.69h0c.39.94.8,2,1.21,3.12l1.45,4.07-.64.52-3.58-2.2c-1.07-.66-2-1.28-2.81-1.9l0,0c.64.82,1.48,1.93,2.23,2.95l2.11,2.91-.79.65L107,372.27l1.06-.88,3.68,2.21c.92.57,1.72,1.11,2.44,1.63h0c-.36-.8-.72-1.69-1.1-2.74l-1.43-4.07,1.06-.88,5.73,6.12-.82.68Z" style="fill: #262626"/>
              <path d="M114.48,366.23a12.22,12.22,0,0,1,1.49-1.46,3.47,3.47,0,0,1,2.3-1,2.16,2.16,0,0,1,1.52.81,2.2,2.2,0,0,1,.15,2.64l0,0a2.1,2.1,0,0,1,2,.53,13.46,13.46,0,0,0,2,1.36l-.86.71a10.11,10.11,0,0,1-1.69-1.19c-.93-.73-1.56-.78-2.34-.18l-.78.65,2.31,2.79-.84.69Zm3.26,2.25.85-.71a1.64,1.64,0,0,0,.44-2.42c-.69-.83-1.59-.7-2.47,0a5.06,5.06,0,0,0-.77.74Z" style="fill: #262626"/>
            </g>
            <g>
              <path d="M143.24,348.41c-.79-.86-1.75-1.9-2.41-2.7l0,0c.39.93.8,2,1.21,3.12l1.45,4.06-.63.53-3.59-2.21c-1.07-.66-2-1.28-2.81-1.89h0c.65.82,1.48,1.93,2.23,3l2.12,2.9-.8.66-4.88-6.82,1.07-.88,3.67,2.21c.93.58,1.72,1.11,2.45,1.64l0,0c-.37-.79-.73-1.69-1.11-2.74l-1.43-4.06,1.06-.88,5.73,6.11-.82.68Z" style="fill: #262626"/>
              <path d="M147.43,344.85l.51.61-2.37,2-.5-.61Z" style="fill: #262626"/>
            </g>
            <g>
              <path d="M167.92,328c-.79-.86-1.75-1.9-2.4-2.69h0c.38.94.8,2,1.21,3.12l1.44,4.07-.63.52-3.59-2.2c-1.06-.66-2-1.28-2.8-1.9l0,0c.64.82,1.48,1.93,2.23,3l2.11,2.91-.79.65-4.88-6.81,1.06-.88,3.68,2.21c.92.57,1.72,1.11,2.44,1.63h0c-.37-.8-.72-1.69-1.11-2.74l-1.42-4.07,1.06-.88,5.73,6.12-.83.68Z" style="fill: #262626"/>
              <path d="M170.75,321.88l1.85,2.25,2.17-1.79.47.58-2.16,1.78L175,327l-.61.51-1.87-2.27L170.3,327l-.47-.57,2.16-1.79-1.86-2.24Z" style="fill: #262626"/>
            </g>
            <path d="M157.37,314.62l-.61.49-4.9-2.82-.46.88-.56-.29.87-1.64,3.9,2.33a5.89,5.89,0,0,1,.69.46h0c-.1-.18-.25-.46-.37-.72l-4.29-8.8.63-.52Z" style="fill: #262626"/>
            <path d="M193,308.24l-.47-.57,4.94-4.08.47.57Zm.35-3.58a.66.66,0,1,1,.93.11A.63.63,0,0,1,193.35,304.66Zm2.77,3.36a.66.66,0,0,1,.06-1,.69.69,0,1,1-.06,1Z" style="fill: #262626"/>
          </g>
          <g>
            <rect x="345.73" y="54.38" width="187.65" height="194.4" style="fill: #fff;stroke: #262626;stroke-miterlimit: 10"/>
            <rect x="345.73" y="54.38" width="187.65" height="37.12" style="fill: #00654d;stroke: #262626;stroke-miterlimit: 10"/>
            <g>
              <g>
                <rect x="357.66" y="116.03" width="21.15" height="21.37" style="fill: #fff;stroke: #262626;stroke-miterlimit: 10"/>
                <rect x="386.68" y="116.03" width="21.15" height="21.37" style="fill: #fff;stroke: #262626;stroke-miterlimit: 10"/>
                <rect x="415.71" y="116.03" width="21.15" height="21.37" style="fill: #fff;stroke: #262626;stroke-miterlimit: 10"/>
                <rect x="444.73" y="116.03" width="21.15" height="21.37" style="fill: #fff;stroke: #262626;stroke-miterlimit: 10"/>
                <rect x="473.76" y="116.03" width="21.15" height="21.37" style="fill: #fff;stroke: #262626;stroke-miterlimit: 10"/>
                <rect x="502.78" y="116.03" width="21.15" height="21.37" style="fill: #fff;stroke: #262626;stroke-miterlimit: 10"/>
                <rect x="357.66" y="145.28" width="21.15" height="21.37" style="fill: #fff;stroke: #262626;stroke-miterlimit: 10"/>
                <rect x="386.68" y="145.28" width="21.15" height="21.37" style="fill: #fff;stroke: #262626;stroke-miterlimit: 10"/>
                <rect x="415.71" y="145.28" width="21.15" height="21.37" style="fill: #fff;stroke: #262626;stroke-miterlimit: 10"/>
                <rect x="444.73" y="145.28" width="21.15" height="21.37" style="fill: #fff;stroke: #262626;stroke-miterlimit: 10"/>
                <rect x="473.76" y="145.28" width="21.15" height="21.37" style="fill: #fff;stroke: #262626;stroke-miterlimit: 10"/>
                <rect x="502.78" y="145.28" width="21.15" height="21.37" style="fill: #fff;stroke: #262626;stroke-miterlimit: 10"/>
              </g>
              <g>
                <rect x="357.66" y="174.76" width="21.15" height="21.37" style="fill: #fff;stroke: #262626;stroke-miterlimit: 10"/>
                <rect x="386.68" y="174.76" width="21.15" height="21.37" style="fill: #fff;stroke: #262626;stroke-miterlimit: 10"/>
                <rect x="415.71" y="174.76" width="21.15" height="21.37" style="fill: #fff;stroke: #262626;stroke-miterlimit: 10"/>
                <rect x="444.73" y="174.76" width="21.15" height="21.37" style="fill: #fff;stroke: #262626;stroke-miterlimit: 10"/>
                <rect x="473.76" y="174.76" width="21.15" height="21.37" style="fill: #fff;stroke: #262626;stroke-miterlimit: 10"/>
                <rect x="502.78" y="174.76" width="21.15" height="21.37" style="fill: #fff;stroke: #262626;stroke-miterlimit: 10"/>
                <rect x="357.66" y="204" width="21.15" height="21.37" style="fill: #fff;stroke: #262626;stroke-miterlimit: 10"/>
                <rect x="386.68" y="204" width="21.15" height="21.37" style="fill: #fff;stroke: #262626;stroke-miterlimit: 10"/>
                <rect x="415.71" y="204" width="21.15" height="21.37" style="fill: #fff;stroke: #262626;stroke-miterlimit: 10"/>
                <rect x="444.73" y="204" width="21.15" height="21.37" style="fill: #fff;stroke: #262626;stroke-miterlimit: 10"/>
                <rect x="473.76" y="204" width="21.15" height="21.37" style="fill: #fff;stroke: #262626;stroke-miterlimit: 10"/>
                <rect x="502.78" y="204" width="21.15" height="21.37" style="fill: #fff;stroke: #262626;stroke-miterlimit: 10"/>
              </g>
            </g>
            <g>
              <rect x="360.36" y="40.66" width="5.4" height="24.07" rx="2.57" style="fill: #fff;stroke: #262626;stroke-miterlimit: 10"/>
              <rect x="371.25" y="40.66" width="5.4" height="24.07" rx="2.57" style="fill: #fff;stroke: #262626;stroke-miterlimit: 10"/>
              <rect x="382.15" y="40.66" width="5.4" height="24.07" rx="2.57" style="fill: #fff;stroke: #262626;stroke-miterlimit: 10"/>
              <rect x="393.05" y="40.66" width="5.4" height="24.07" rx="2.57" style="fill: #fff;stroke: #262626;stroke-miterlimit: 10"/>
              <rect x="403.94" y="40.66" width="5.4" height="24.07" rx="2.57" style="fill: #fff;stroke: #262626;stroke-miterlimit: 10"/>
              <rect x="414.84" y="40.66" width="5.4" height="24.07" rx="2.57" style="fill: #fff;stroke: #262626;stroke-miterlimit: 10"/>
              <rect x="425.74" y="40.66" width="5.4" height="24.07" rx="2.57" style="fill: #fff;stroke: #262626;stroke-miterlimit: 10"/>
              <rect x="436.63" y="40.66" width="5.4" height="24.07" rx="2.57" style="fill: #fff;stroke: #262626;stroke-miterlimit: 10"/>
              <rect x="447.53" y="40.66" width="5.4" height="24.07" rx="2.57" style="fill: #fff;stroke: #262626;stroke-miterlimit: 10"/>
              <rect x="458.42" y="40.66" width="5.4" height="24.07" rx="2.57" style="fill: #fff;stroke: #262626;stroke-miterlimit: 10"/>
              <rect x="469.32" y="40.66" width="5.4" height="24.07" rx="2.57" style="fill: #fff;stroke: #262626;stroke-miterlimit: 10"/>
              <rect x="480.22" y="40.66" width="5.4" height="24.07" rx="2.57" style="fill: #fff;stroke: #262626;stroke-miterlimit: 10"/>
              <rect x="491.11" y="40.66" width="5.4" height="24.07" rx="2.57" style="fill: #fff;stroke: #262626;stroke-miterlimit: 10"/>
              <rect x="502.01" y="40.66" width="5.4" height="24.07" rx="2.57" style="fill: #fff;stroke: #262626;stroke-miterlimit: 10"/>
              <rect x="512.91" y="40.66" width="5.4" height="24.07" rx="2.57" style="fill: #fff;stroke: #262626;stroke-miterlimit: 10"/>
            </g>
          </g>
          <g>
            <polyline points="206.48 265.65 206.48 517.76 465.68 517.76 465.68 162.04 364.43 162.04" style="fill: #fff;stroke: #262626;stroke-miterlimit: 10"/>
            <rect x="206.48" y="161.71" width="157.95" height="103.95" style="fill: #fbc469;stroke: #262626;stroke-miterlimit: 10"/>
            <line x1="221.33" y1="306.83" x2="238.55" y2="306.83" style="fill: none;stroke: #262626;stroke-miterlimit: 10"/>
            <line x1="243.61" y1="307.17" x2="325.62" y2="307.17" style="fill: none;stroke: #262626;stroke-miterlimit: 10"/>
            <line x1="328.32" y1="306.83" x2="388.4" y2="306.83" style="fill: none;stroke: #262626;stroke-miterlimit: 10"/>
            <line x1="392.78" y1="306.83" x2="423.83" y2="306.83" style="fill: none;stroke: #262626;stroke-miterlimit: 10"/>
            <line x1="427.88" y1="306.83" x2="448.13" y2="306.83" style="fill: none;stroke: #262626;stroke-miterlimit: 10"/>
            <line x1="222.35" y1="323.03" x2="256.43" y2="323.03" style="fill: none;stroke: #262626;stroke-miterlimit: 10"/>
            <line x1="264.53" y1="323.7" x2="300.31" y2="323.7" style="fill: none;stroke: #262626;stroke-miterlimit: 10"/>
            <line x1="307.06" y1="323.37" x2="395.15" y2="323.37" style="fill: none;stroke: #262626;stroke-miterlimit: 10"/>
            <line x1="399.87" y1="323.37" x2="441.38" y2="323.37" style="fill: none;stroke: #262626;stroke-miterlimit: 10"/>
            <line x1="222.35" y1="340.24" x2="241.25" y2="340.24" style="fill: none;stroke: #262626;stroke-miterlimit: 10"/>
            <line x1="245.97" y1="340.58" x2="295.58" y2="340.58" style="fill: none;stroke: #262626;stroke-miterlimit: 10"/>
            <line x1="298.96" y1="339.9" x2="336.08" y2="339.9" style="fill: none;stroke: #262626;stroke-miterlimit: 10"/>
            <line x1="340.81" y1="340.58" x2="448.81" y2="340.58" style="fill: none;stroke: #262626;stroke-miterlimit: 10"/>
            <path d="M221.33,354.42H449.14V500.21H220.66S221.67,354.42,221.33,354.42Z" style="fill: none;stroke: #262626;stroke-miterlimit: 10"/>
            <line x1="277.36" y1="381.75" x2="221.33" y2="381.75" style="fill: none;stroke: #262626;stroke-miterlimit: 10"/>
            <line x1="281.75" y1="381.42" x2="448.81" y2="381.42" style="fill: none;stroke: #262626;stroke-miterlimit: 10"/>
            <line x1="221" y1="401.33" x2="448.47" y2="401.33" style="fill: none;stroke: #262626;stroke-miterlimit: 10"/>
            <line x1="221.33" y1="421.24" x2="415.4" y2="421.24" style="fill: none;stroke: #262626;stroke-miterlimit: 10"/>
            <line x1="417.76" y1="421.58" x2="448.81" y2="421.58" style="fill: none;stroke: #262626;stroke-miterlimit: 10"/>
            <line x1="221" y1="440.82" x2="310.77" y2="440.82" style="fill: none;stroke: #262626;stroke-miterlimit: 10"/>
            <line x1="314.48" y1="440.82" x2="448.47" y2="440.82" style="fill: none;stroke: #262626;stroke-miterlimit: 10"/>
            <line x1="221.33" y1="460.39" x2="269.26" y2="460.39" style="fill: none;stroke: #262626;stroke-miterlimit: 10"/>
            <line x1="276.35" y1="460.39" x2="448.81" y2="460.39" style="fill: none;stroke: #262626;stroke-miterlimit: 10"/>
            <line x1="221.33" y1="480.64" x2="314.15" y2="480.64" style="fill: none;stroke: #262626;stroke-miterlimit: 10"/>
            <line x1="318.2" y1="480.64" x2="448.81" y2="480.64" style="fill: none;stroke: #262626;stroke-miterlimit: 10"/>
            <line x1="398.86" y1="500.55" x2="398.86" y2="475.92" style="fill: none;stroke: #262626;stroke-miterlimit: 10"/>
            <line x1="398.52" y1="471.53" x2="398.52" y2="372.64" style="fill: none;stroke: #262626;stroke-miterlimit: 10"/>
            <line x1="398.52" y1="365.22" x2="398.52" y2="356.78" style="fill: none;stroke: #262626;stroke-miterlimit: 10"/>
            <g>
              <path d="M233.46,193H214.53V186.2h46.08V193h-19v55.39h-8.13Z" style="fill: #fff"/>
              <path d="M270.67,228.86l-6.46,19.57H255.9l21.23-62.23h9.61L308,248.43h-8.58l-6.65-19.57Zm20.5-6.28L285,204.67c-1.38-4.06-2.31-7.76-3.23-11.36h-.18c-.93,3.6-1.85,7.48-3.14,11.27l-6.1,18Z" style="fill: #fff"/>
              <path d="M349.89,248.43l-8-13.75c-3.23-5.27-5.17-8.68-7.11-12.28h-.19c-1.75,3.6-3.6,6.92-6.74,12.37l-7.48,13.66h-9.23l19-31.48L311.85,186.2h9.33l8.21,14.59c2.31,4.06,4.06,7.2,5.73,10.53h.27c1.76-3.7,3.33-6.56,5.64-10.53l8.4-14.59h9.32l-18.92,30.29,19.39,31.94Z" style="fill: #fff"/>
            </g>
          </g>
          <g>
            <path d="M564.74,460.79h0a12.39,12.39,0,0,1-17.62-1.44L434.66,324.46l14.09-12.18L565.88,443.14A12.4,12.4,0,0,1,564.74,460.79Z" style="fill: #262626"/>
            <path d="M394.13,197.48A70.88,70.88,0,1,0,465,268.35,70.87,70.87,0,0,0,394.13,197.48Zm0,133a62.1,62.1,0,1,1,62.1-62.1A62.1,62.1,0,0,1,394.13,330.45Z" style="fill: #00654d;stroke: #262626;stroke-miterlimit: 10"/>
            <rect x="435.64" y="321.57" width="29.7" height="14.85" rx="7.42" transform="translate(-105.48 374.5) rotate(-40.82)" style="fill: #fbc469;stroke: #262626;stroke-miterlimit: 10"/>
          </g>
        </g>
      </g>
    </g>
  </g>
</svg>
