<svg xmlns="http://www.w3.org/2000/svg" width="663.93" height="495.02" viewBox="0 0 663.93 495.02">
  <title>Ресурс 8</title>
  <g id="Слой_2" data-name="Слой 2">
    <g id="Слой_1-2" data-name="Слой 1">
      <g>
        <path d="M362.1,124.2c-78-6.14-89.73-52.71-141.53-74.12C151.39,21.49,92.1,81.84,72.33,113.61,37.4,169.75-40.26,288.7,25.74,380.43c53.79,74.76,171.31,90.9,235.77,56.47,26.6-14.21,35.58-32.44,66.35-36.7,42-5.82,61.22,23.12,115.77,43.76,20,7.58,108.57,41.09,166.59,1.41,52.23-35.72,53.26-112.69,53.64-141.17.33-24.69,1.38-103-53.64-149.65-39.17-33.24-84.65-50.62-140.12-48.35C418.21,108.31,393.51,126.67,362.1,124.2Z" style="fill: #c4c4c4"/>
        <g>
          <path d="M599.16,310.08s14.82-26.47,3.17-41.3-10.59-37-5.29-48.7,3.17-20.12-5.3-31.77-2.11-19.06,1.06-33.88-7.41-27.53-11.64-37.06-6.36-25.41-1.06-36,2.11-24.35-8.47-38.12S561,11.49,560,6.2s-9.53-11.65-11.65,5.29-7.41,30.71-12.7,38.12-12.71,14.82-6.36,38.12,5.3,25.41-1.06,33.88-13.76,27.53-6.35,39.17,4.24,24.36-1.06,31.77-9.53,23.29-1.06,43.41-5.29,22.24-8.47,32.82-2.11,46.59,11.65,50.83S599.16,310.08,599.16,310.08Z" style="fill: #00654d;stroke: #262626;stroke-miterlimit: 10"/>
          <path d="M503.73,354.59s12.09-21.59,2.59-33.67S497.69,290.7,502,281.2s2.6-16.41-4.31-25.9-1.73-15.54.86-27.63-6-22.45-9.5-30.22-5.18-20.72-.86-29.36,1.73-19.85-6.91-31.08-8.63-25.9-9.49-30.22-7.77-9.5-9.5,4.32-6.05,25-10.36,31.08-10.36,12.09-5.18,31.08,4.31,20.73-.87,27.63-11.22,22.45-5.18,31.95,3.46,19.86-.86,25.9-7.77,19-.86,35.4-4.32,18.13-6.91,26.77-1.73,38,9.5,41.44S503.73,354.59,503.73,354.59Z" style="fill: #00654d;stroke: #262626;stroke-miterlimit: 10"/>
          <path d="M424.25,82.43H197.07s9.67-10.63,19.34-8.7,9.66,2.9,19.33-4.83,18.37-14.5,28-5.8,11.6-10.64,16.44-15.47,12.56-5.8,22.23-2.9,8.7-17.4,11.6-21.27,19.34-20.3,34.8-13.53,26.1,7.73,30.94,26.1c0,0,21.26,3.87,16.43,21.27C396.21,57.3,430.05,61.16,424.25,82.43Z" style="fill: #ebebeb"/>
          <path d="M275.45,182H119.67s6.63-7.29,13.26-6,6.63,2,13.26-3.31,12.59-9.94,19.22-4,8-7.29,11.27-10.6,8.62-4,15.25-2,6-11.93,7.95-14.58,13.26-13.93,23.87-9.29,17.89,5.31,21.21,17.9c0,0,14.58,2.65,11.27,14.59C256.23,164.73,279.43,167.38,275.45,182Z" style="fill: #fff"/>
          <path d="M89.32,361.59s9.64-17.2,2.07-26.84S84.5,310.67,88,303.1,90,290,84.5,282.45s-1.37-12.38.69-22-4.81-17.89-7.57-24.09-4.13-16.51-.69-23.39,1.38-15.83-5.5-24.78-6.88-20.64-7.57-24.09-6.19-7.57-7.57,3.45S51.47,187.48,48,192.3s-8.26,9.63-4.13,24.77,3.44,16.52-.69,22S34.27,257,39.08,264.56a18.5,18.5,0,0,1-.68,20.65c-3.44,4.81-6.2,15.14-.69,28.21s-3.44,14.45-5.51,21.33-1.37,30.28,7.57,33S89.32,361.59,89.32,361.59Z" style="fill: #00654d;stroke: #262626;stroke-miterlimit: 10"/>
          <ellipse cx="334.45" cy="475.43" rx="282.71" ry="19.59" style="fill: #ebebeb"/>
        </g>
        <g>
          <path d="M602.33,430.43s25.41-4.23,27.53-4.94S646.1,410,648.92,399.37s4.94-40.23-2.12-41.64-17.64-7.06-21.88-16.24S597.39,306.2,591,304.08c0,0,15.53-2.12,18.35-5.65s-16.94-4.23-21.88-4.23-174.35-2.12-203.3,2.82-111.52,5.65-114.35,5.65,4.24,2.11,7.77-3.53S279,284.31,272,284.31a94.61,94.61,0,0,1-12-.7l33.18-26.12-15.53-12.71s-71.3,41.65-86.83,57.89c0,0-100.23,9.17-119.29,24S39.74,354.2,34.8,360.55s1.41,7.76-6.35,12.7-11.29,3.53-14.12,13.42,2.83,25.41,1.41,30.35S8,423.37,17.16,429.73s48.7,12.7,60.7,10.58S602.33,430.43,602.33,430.43Z" style="fill: #fbc469;stroke: #262626;stroke-miterlimit: 10"/>
          <path d="M576.92,296.08s-13.65,3.76-24.94,4.7-84.24,3.3-84.24,3.3l-8-10.35,16.95-6.12s-5.65-8,.47-18.36,10.35-6.11,10.35-6.11,6.59-4.71,9.41.47,8,8.47,4.24,16l16.94-8.47s4.23-1.89,11.29.47,8,5.17,8,5.17l13.18-5.17s4.23-.47,6.12,2.35a16.11,16.11,0,0,1,2.35,5.65s6.59.47,8.94,8S576.92,288.08,576.92,296.08Z" style="fill: #262626"/>
          <path d="M392,307.37a9,9,0,0,0-2.35-8.47s.47-12.7-6.12-19.76-11.3-12.71-17.41-10.83S360,275.84,359.51,281s4.23,13.65,4.7,16-.47,11.76-.47,11.76Z" style="fill: #262626"/>
          <path d="M280,312.88s-5.65-9.74-7.06-11.63S266.8,297,261.16,297s3.76-9.88,8-12.24,26.35-17.88,31-20.23,7.06-12.24-1.88-14.59-20.7-5.18-20.7-5.18,10.82,10.36,9.41,14.12S246.57,281,220.69,316.31Z" style="fill: #262626"/>
          <path d="M269.63,249l6.11,5.65s-48.47,31.06-61.64,44.7S199,312.55,183.51,310.2c0,0,5.65-6.59,7.29-7.53S257.86,252.31,269.63,249Z" style="fill: #262626"/>
          <path d="M620.69,333.73S609.39,322.43,599,322s-16,.94-14.12,8.94,18.35,21.65,27.29,23.53,18.83-.94,17.89-3.76S622.1,334.67,620.69,333.73Z" style="fill: #262626"/>
          <path d="M14,398.31S32.92,401,37.16,401s8-3.77,8.47,4.23.47,13.65-4.71,15.53-16.94,1.42-20.23.47a14.85,14.85,0,0,1-5.39-2.82S17.69,416.58,14,398.31Z" style="fill: #262626"/>
          <path d="M615.74,329.14s-124-64.83-164.64,80.23" style="fill: none;stroke: #262626;stroke-miterlimit: 10"/>
          <path d="M646.8,397.61s-17.29,5.64-25.76,5.64-7.77-5.64-7.77-9.17-8.47-23.3-13.76-26.47" style="fill: none;stroke: #262626;stroke-miterlimit: 10"/>
          <path d="M581.16,296.31s-4.59-1.06-12.71,1.77-102.71,5.29-124.94,6.7-217.65,10.71-222.82,11.53" style="fill: none;stroke: #262626;stroke-miterlimit: 10"/>
          <path d="M413.16,306.55s11.29,26.12-.36,69.88S404.69,411,404.69,411" style="fill: none;stroke: #262626;stroke-miterlimit: 10"/>
          <path d="M223.27,314.67s-4.58,3.17-8.82,13.06-3.53,55.76-3.53,55.76" style="fill: none;stroke: #262626;stroke-miterlimit: 10"/>
          <path d="M17.16,376.78a88.22,88.22,0,0,1,27.53,7.06c14.47,6.36,12.7,5.65,15.52,5.65" style="fill: none;stroke: #262626;stroke-miterlimit: 10"/>
          <path d="M77.51,366.9s-26.82,19.77-22.94,60c0,0-25.06.35-35.65-3.17" style="fill: none;stroke: #262626;stroke-miterlimit: 10"/>
          <path d="M183.51,310.2s-8.59,4.11-16-4.71" style="fill: none;stroke: #262626;stroke-miterlimit: 10"/>
          <path d="M56.33,345.37s15.88-12,13.77.71S45.74,371.84,42.57,372.9s-23.3-.7,9.53-26.82,103.41-30,135.88,2.47,27.53,64.59,27.53,68.82,2.88,10.3,2.88,10.3l-2.88-10.3s122.91-3.89,189.15-6.33c22.92-.84,39.06-1.51,41-1.79,7.41-1.05,13.41,4.24,13.06,8.83s-5.3,3.53-5.3,3.53l-235.18,5.88" style="fill: none;stroke: #262626;stroke-miterlimit: 10"/>
          <path d="M401.8,423.2c4.94-8.47,2.53-11.65,2.53-11.65" style="fill: none;stroke: #262626;stroke-miterlimit: 10"/>
          <path d="M412,332.67s.12-2.94-4.35-3.18-24.36.12-24.36.12-2.94.7-2.7,3.41.94,3.65,3.64,3.76,25.18-.47,25.18-.47A4,4,0,0,0,412,332.67Z" style="fill: none;stroke: #262626;stroke-miterlimit: 10"/>
          <path d="M400.57,329.25a10.91,10.91,0,0,0-14.47.12" style="fill: none;stroke: #262626;stroke-miterlimit: 10"/>
          <path d="M402.21,336.55s-8.58,10.47-16.7.23" style="fill: none;stroke: #262626;stroke-miterlimit: 10"/>
          <path d="M256,301.73s-2.82-6.59-7.77-8.24-14.11,2.12-15.05,4S232,306,234.8,308.55s3.3,4.47,2.59,6.59l9.41-.47s-4.47-3.3-4.47-4.47,1.41-.95,5.41-.95S257.63,311.61,256,301.73Z" style="fill: #fbc469;stroke: #262626;stroke-miterlimit: 10"/>
          <path d="M604.69,430.67s6.11-36.24-22.12-63.53-61.65-13.18-68.71-9.41-46.59,25.88-39.53,77.17l15.06-.94s3.77,28.71,30.12,38.12,43.29,2.35,59.76-11.3,12.71-27.57,13.65-29.45S604.69,430.67,604.69,430.67Z" style="fill: #262626"/>
          <path d="M193,439s6.07-35.94-21.94-63-61.16-13.07-68.16-9.33-46.21,25.67-39.21,76.56l14.94-.94s3.73,28.48,29.87,37.81,42.95,2.34,59.29-11.2,12.6-27.35,13.54-29.22S193,439,193,439Z" style="fill: #262626"/>
          <circle cx="539.23" cy="420.74" r="34.86" style="fill: #fff;stroke: #262626;stroke-miterlimit: 10"/>
          <circle cx="129.35" cy="420.27" r="34.86" style="fill: #fff;stroke: #262626;stroke-miterlimit: 10"/>
          <circle cx="539.7" cy="420.27" r="22.16" style="fill: #fff;stroke: #262626;stroke-miterlimit: 10"/>
          <circle cx="129.35" cy="420.27" r="22.16" style="fill: #fff;stroke: #262626;stroke-miterlimit: 10"/>
          <circle cx="540.21" cy="420.7" r="10.35" style="fill: #fff;stroke: #262626;stroke-miterlimit: 10"/>
          <circle cx="129.39" cy="421.64" r="10.35" style="fill: #fff;stroke: #262626;stroke-miterlimit: 10"/>
        </g>
      </g>
    </g>
  </g>
</svg>
