<svg xmlns="http://www.w3.org/2000/svg" viewBox="0 0 145 145"><defs><style>.cls-1,.cls-6,.cls-8{fill:none;}.cls-1,.cls-4,.cls-6,.cls-8{stroke:#007b64;stroke-width:2px;}.cls-1,.cls-4,.cls-6{stroke-linecap:round;}.cls-1,.cls-4{stroke-linejoin:round;}.cls-2,.cls-4{fill:#fff;}.cls-3{fill:#f1f1f1;}.cls-5{fill:#007b64;}.cls-6,.cls-8{stroke-miterlimit:10;}.cls-7{fill:#ffc463;}</style></defs><title>32 Бюджетные счета копия 2</title><g id="_38_Уплата_налога" data-name="38 Уплата налога"><line class="cls-1" x1="6.07" y1="132.17" x2="15.84" y2="132.17"/><line class="cls-1" x1="19.88" y1="132.17" x2="140.27" y2="132.17"/><path class="cls-2" d="M93.7,54.93v71.24a6,6,0,0,1-6,6h-54a6,6,0,0,1-6-6v-84a6,6,0,0,1,6-6H76.21L93.7,54.67"/><path class="cls-3" d="M27.64,123.67h66a0,0,0,0,1,0,0v1a7,7,0,0,1-7,7h-52a7,7,0,0,1-7-7v-1A0,0,0,0,1,27.64,123.67Z"/><path class="cls-1" d="M93.7,70.5v55.67a6,6,0,0,1-6,6h-54a6,6,0,0,1-6-6v-84a6,6,0,0,1,6-6H75.78a1,1,0,0,1,.72.32L93.7,54.67"/><line class="cls-1" x1="93.7" y1="54.93" x2="93.7" y2="62.06"/><path class="cls-1" d="M85.7,54.67h-5a6,6,0,0,1-6-6v-5"/><line class="cls-4" x1="39.7" y1="65.92" x2="70" y2="65.92"/><circle class="cls-5" cx="35.7" cy="65.92" r="0.95"/><line class="cls-4" x1="39.7" y1="74.1" x2="70" y2="74.1"/><circle class="cls-5" cx="35.7" cy="74.1" r="0.95"/><line class="cls-4" x1="39.7" y1="82.28" x2="70" y2="82.28"/><circle class="cls-5" cx="35.7" cy="82.28" r="0.95"/><line class="cls-4" x1="39.7" y1="90.46" x2="70" y2="90.46"/><circle class="cls-5" cx="35.7" cy="90.46" r="0.95"/><line class="cls-4" x1="39.7" y1="98.64" x2="70" y2="98.64"/><circle class="cls-5" cx="35.7" cy="98.64" r="0.95"/><line class="cls-4" x1="39.7" y1="106.82" x2="70" y2="106.82"/><circle class="cls-5" cx="35.7" cy="106.82" r="0.95"/><path class="cls-2" d="M122.53,131.81h-42a4.47,4.47,0,0,1-4.47-4.47V72.9a4.47,4.47,0,0,1,4.47-4.46h42A4.47,4.47,0,0,1,127,72.9v54.44A4.47,4.47,0,0,1,122.53,131.81Z"/><path class="cls-3" d="M90,131s4-5,12-4,23-3,25-5v6l-1,2-2,2H90Z"/><path class="cls-6" d="M127,90.27v37.07a4.47,4.47,0,0,1-4.47,4.47h-42a4.47,4.47,0,0,1-4.47-4.47V72.9a4.47,4.47,0,0,1,4.47-4.46h42A4.47,4.47,0,0,1,127,72.9V81"/><path class="cls-7" d="M118.66,88.59H84.42A1.64,1.64,0,0,1,82.77,87V78.58a1.65,1.65,0,0,1,1.65-1.65h34.24a1.65,1.65,0,0,1,1.65,1.65V87A1.64,1.64,0,0,1,118.66,88.59Z"/><rect class="cls-8" x="82.84" y="93.67" width="6.09" height="6.09" rx="0.79"/><rect class="cls-8" x="93.26" y="93.67" width="6.09" height="6.09" rx="0.79"/><rect class="cls-8" x="103.69" y="93.67" width="6.09" height="6.09" rx="0.79"/><rect class="cls-8" x="114.11" y="93.67" width="6.09" height="6.09" rx="0.79"/><rect class="cls-8" x="82.84" y="104.83" width="6.09" height="6.09" rx="0.79"/><rect class="cls-8" x="93.26" y="104.83" width="6.09" height="6.09" rx="0.79"/><rect class="cls-8" x="103.69" y="104.83" width="6.09" height="6.09" rx="0.79"/><rect class="cls-8" x="114.11" y="104.83" width="6.09" height="6.09" rx="0.79"/><rect class="cls-8" x="82.84" y="115.98" width="6.09" height="6.09" rx="0.79"/><rect class="cls-8" x="93.26" y="115.98" width="6.09" height="6.09" rx="0.79"/><rect class="cls-8" x="103.69" y="115.98" width="6.09" height="6.09" rx="0.79"/><rect class="cls-8" x="114.11" y="115.98" width="6.09" height="6.09" rx="0.79"/></g></svg>