<svg xmlns="http://www.w3.org/2000/svg" viewBox="0 0 145 145"><defs><style>.cls-1,.cls-6{fill:#fff;}.cls-2{fill:#ebebeb;}.cls-3,.cls-4{fill:none;}.cls-3,.cls-4,.cls-6{stroke:#007b64;stroke-linecap:round;stroke-linejoin:round;}.cls-3,.cls-6{stroke-width:2px;}.cls-4{stroke-width:2.09px;}.cls-5{fill:#ffc463;}</style></defs><title>32 Бюджетные счета копия 3</title><g id="_41_Услуги_входят_в_установленный_перечень_" data-name="41 Услуги входят в установленный перечень?"><rect class="cls-1" x="66.46" y="45.91" width="51.31" height="76.13" rx="5.21"/><path class="cls-2" d="M107.58,45.91s1,12.51,5.21,15.64c3,2.26,4.74,10.8,5,11.66s-.66-24.63-.66-24.63l-1.73-1.84-6.58-1.32Z"/><path class="cls-3" d="M117.77,101.54v15.28a5.22,5.22,0,0,1-5.22,5.22H71.67a5.22,5.22,0,0,1-5.21-5.22V51.12a5.21,5.21,0,0,1,5.21-5.21h40.88a5.22,5.22,0,0,1,5.22,5.21V95"/><path class="cls-1" d="M44.14,90V41.21A5.21,5.21,0,0,1,49.35,36h54.23a5.22,5.22,0,0,1,5.22,5.21v85.52a5.22,5.22,0,0,1-5.22,5.22H49.35a5.22,5.22,0,0,1-5.21-5.22v-21.2"/><path class="cls-4" d="M44.14,95V41.21A5.21,5.21,0,0,1,49.35,36h54.23a5.22,5.22,0,0,1,5.22,5.21V94.86"/><path class="cls-4" d="M108.8,102.21v24.52a5.22,5.22,0,0,1-5.22,5.22H49.35a5.22,5.22,0,0,1-5.21-5.22v-22"/><rect class="cls-5" x="52.48" y="43.82" width="47.97" height="13.56" rx="2.09"/><line class="cls-6" x1="53.63" y1="63.9" x2="97.43" y2="63.9"/><line class="cls-6" x1="53.63" y1="70.81" x2="98" y2="70.81"/><line class="cls-6" x1="53.63" y1="77.73" x2="98" y2="77.73"/><line class="cls-3" x1="24.44" y1="133.03" x2="139.87" y2="133.03"/><line class="cls-3" x1="4.87" y1="133.03" x2="14.91" y2="133.03"/><path class="cls-1" d="M93.73,105.39H66.49l-1-1L60,100H38v33h85.29l.71-33H100Z"/><path class="cls-2" d="M83.36,133s8.63-8.79,19.46-7.58,20.17-.65,21-7.73V133Z"/><polyline class="cls-3" points="39.25 99.94 46.41 99.94 60.82 99.94 66.49 105.39 93.72 105.39 99.81 99.94 123.77 99.94 123.77 133.03 36.98 133.03 36.98 99.94 40.18 99.94"/><path class="cls-3" d="M115.89,113.06a2.69,2.69,0,0,1,.36,1.34v8.32a2.73,2.73,0,0,1-2.73,2.73H47.65a2.73,2.73,0,0,1-2.73-2.73V114.4a2.72,2.72,0,0,1,2.73-2.72H110"/></g></svg>