<svg xmlns="http://www.w3.org/2000/svg" viewBox="0 0 145 145"><defs><style>.cls-1,.cls-4,.cls-7{fill:none;}.cls-1,.cls-4,.cls-7,.cls-8{stroke:#007b64;stroke-linecap:round;}.cls-1,.cls-4,.cls-8{stroke-miterlimit:10;}.cls-1,.cls-7,.cls-8{stroke-width:2px;}.cls-2{fill:#fff;}.cls-3{fill:#ebebeb;}.cls-4{stroke-width:2.18px;}.cls-5{fill:#ffc463;}.cls-6{fill:#c4c4c4;}.cls-7{stroke-linejoin:round;}.cls-8{fill:#ff0;}</style></defs><title>33 Личный прием руководством инспекций копия 3</title><g id="_42_Услуги_в_электронной_форме_оказываются_физическим_лицам_" data-name="42 Услуги в электронной форме оказываются физическим лицам?"><line class="cls-1" x1="9.19" y1="133.03" x2="144.19" y2="133.08"/><path class="cls-2" d="M63.11,120.52l73.07,0a1,1,0,0,1,1,1h0a11.43,11.43,0,0,1-11.38,11.49l-98.28,0a11.43,11.43,0,0,1-11.37-11.5h0a1,1,0,0,1,1-1l38.48,0"/><rect class="cls-2" x="26.77" y="41" width="100" height="79" rx="6.97"/><path class="cls-3" d="M65.62,120.5s14.32-8,30.38-6.5c11,1,30.35-8.59,30.68-10.29v10.4L124,120l-7,1Z"/><path class="cls-4" d="M26.52,113.34l0-65.1a7.14,7.14,0,0,1,7.09-7.16l80.07,0"/><path class="cls-1" d="M110.23,41.12h9.58a7.15,7.15,0,0,1,7.09,7.17l0,65.09a7.13,7.13,0,0,1-1.47,4.35,7.06,7.06,0,0,1-5.62,2.81h-7.5"/><path class="cls-3" d="M99.18,133s9.82-7,15.82-7,9.47-4.91,9.24-5.46l12.27.07.7,1.61L137,126l-6,6Z"/><path class="cls-1" d="M63.11,120.52l73.07,0a1,1,0,0,1,1,1h0a11.43,11.43,0,0,1-11.38,11.49l-98.28,0a11.43,11.43,0,0,1-11.37-11.5h0a1,1,0,0,1,1-1l38.48,0"/><line class="cls-1" x1="35.04" y1="51.54" x2="117.8" y2="51.57"/><rect class="cls-5" x="94.75" y="45.64" width="20.69" height="1.88" rx="0.94"/><rect class="cls-6" x="36.7" y="45.25" width="2.59" height="2.61" rx="1.29"/><rect class="cls-6" x="40.58" y="45.25" width="2.59" height="2.61" rx="1.29"/><rect class="cls-6" x="44.46" y="45.25" width="2.59" height="2.61" rx="1.29"/><path class="cls-7" d="M58.92,98.76c0-.47.07-.94.13-1.41a19.44,19.44,0,0,1,.46-2.59c1.33-5.34,4.81-9.16,10.79-9.34a1,1,0,0,1,.55.13A13.55,13.55,0,0,0,77,87.07a10.32,10.32,0,0,0,5.52-1.47,1.1,1.1,0,0,1,.63-.18c7.84.26,11.37,6.8,11.37,14.83v3.65A4.07,4.07,0,0,1,90.44,108H63a4.07,4.07,0,0,1-4.07-4.07h0v-.25"/><line class="cls-1" x1="87.75" y1="100.85" x2="87.75" y2="107.97"/><line class="cls-8" x1="65.27" y1="100.85" x2="65.27" y2="107.97"/><path class="cls-5" d="M85.17,66a9,9,0,0,1,.77,1.06,11.58,11.58,0,0,1,.65,1.14,11,11,0,1,1-9.9-6.2,11.09,11.09,0,0,1,3.39.53,10.91,10.91,0,0,1,1.61.67c.25.13.49.26.72.41"/></g></svg>