<svg xmlns="http://www.w3.org/2000/svg" width="533.84" height="505.37" viewBox="0 0 533.84 505.37">
  <title>Ресурс 2</title>
  <g id="Слой_2" data-name="Слой 2">
    <g id="Слой_1-2" data-name="Слой 1">
      <g>
        <g>
          <path d="M178.3,153.39C156.11,176.28,135,177.74,104.94,192c-13.64,6.44-57.61,27.22-82.77,66.78C-1.31,295.63-7.37,347.21,9.94,391.35c23,58.77,78.83,82.29,97.82,90.3C237,536.13,410,453.73,489.63,339.62c16.59-23.75,43.53-63.45,44.21-119.45.08-6.61-.27-97.9-71.48-149.55-90-65.27-226.76-19.12-257.72,39.5C198.81,121.15,194.7,136.47,178.3,153.39Z" style="fill: #c4c4c4"/>
          <rect x="26.34" y="0.5" width="428.47" height="329.65" style="fill: none;stroke: #262626;stroke-miterlimit: 10"/>
          <rect x="60.22" y="36.5" width="360" height="258.35" style="fill: none;stroke: #262626;stroke-miterlimit: 10"/>
          <circle cx="44.69" cy="17.09" r="5.29" style="fill: #262626"/>
          <circle cx="66.57" cy="17.09" r="5.29" style="fill: #262626"/>
          <circle cx="88.36" cy="17.09" r="5.29" style="fill: #262626"/>
          <line x1="407.51" y1="339.32" x2="481.63" y2="339.32" style="fill: none;stroke: #262626;stroke-miterlimit: 10"/>
          <line x1="80.34" y1="46.03" x2="102.57" y2="46.03" style="fill: none;stroke: #262626;stroke-miterlimit: 10"/>
        </g>
        <g>
          <path d="M219.82,145.2a13.21,13.21,0,0,1-7.15-6.12c-2.3-4.6-6.13-7.15-7.15-1.79s-1,16.59,5.11,23,10.46,6.64,12,6.64S219.82,145.2,219.82,145.2Z" style="fill: #fff;stroke: #000;stroke-miterlimit: 10"/>
          <path d="M301.27,135.55s5.87-6.69,9.19-5.15,6.12,4.59,5.1,10.21-9.7,22-11.49,21.84S301.27,135.55,301.27,135.55Z" style="fill: #fff;stroke: #000;stroke-miterlimit: 10"/>
          <polygon points="227.22 178.65 227.22 245.54 262.97 288.18 283.9 288.18 304.07 233.42 299.73 172.27 227.22 178.65" style="fill: #fff;stroke: #000;stroke-miterlimit: 10"/>
          <path d="M214.71,113s5.62,59.24,6.9,62.81,31.14,29.87,33.7,31.41,7.15,5.36,11.49,5.36S278,212.1,281.35,206s20.43-29.11,22-31.15,4.85-5.62,3.83-12S302,92.35,302,92.35L246.37,74Z" style="fill: #fff;stroke: #000;stroke-miterlimit: 10"/>
          <path d="M246.88,110.74s-13.27-4.6-16.34,4.59" style="fill: #fff;stroke: #000;stroke-miterlimit: 10"/>
          <path d="M272.92,109.59s16.35-3.32,17.88,2.87" style="fill: #fff;stroke: #000;stroke-miterlimit: 10"/>
          <path d="M269.35,118.14s-.51,10.21,0,15.06,1,9.45,2.55,10.09,1.54,7.53-5.1,9.06-9.19,0-10.47-2.55" style="fill: #fff;stroke: #000;stroke-miterlimit: 10"/>
          <path d="M244.33,160s22,21.19,39.57-3.57" style="fill: #fff;stroke: #000;stroke-miterlimit: 10"/>
          <ellipse cx="242.92" cy="128.35" rx="2.68" ry="5.11" style="fill: #262626"/>
          <ellipse cx="283.33" cy="128.35" rx="2.68" ry="5.11" style="fill: #262626"/>
          <path d="M219.82,143.29s-.26,3.35-3.07,3-7.91-20.25-9.44-23.06-11.49-13.54-4.85-25.79,14.29-24.26,17.36-27.58,3.83-8.42,13-7.4c0,0,7.4-10,10.08-10s14-3.32,21.61,1.54,38,13.53,45.16,19.91,11,4.34,8.68,16.09-7,47.48-11,47.74-9.38-18.13-6.06-38c0,0-14.56-3.45-20.62-10,0,0,9.38,18.13-35-7.4,0,0-28.09,29.87-28.09,32.93A225.57,225.57,0,0,0,219.82,143.29Z" style="fill: #262626"/>
          <path d="M224.41,236.1s23.24,30.64,31.92,37,15.83,15.32,23.74,2.3,25.79-47,25.79-47l5.11,43.4-5.05,233H223.14Z" style="fill: #fbc469;stroke: #262626;stroke-miterlimit: 10"/>
          <path d="M360.39,245.94s20.88,9.48,23.26,10.5,7.49,7.49,8.51,15.66S421.78,377,423.82,382.74s5.79,38.12,9.87,44.25,10.55,21.79,11.58,23.49-.69,8.85-5.79,14.3c-3.89,4.15-45,40.09-45,40.09H301.8L302,397.71s25.19-130.38,31-135.83S360.39,245.94,360.39,245.94Z" style="fill: #00654d;stroke: #262626;stroke-miterlimit: 10"/>
          <path d="M174.43,245.94s-25.34,11.18-27,11.18-4.42,5.45-4.76,8.51-25.88,94-31,104.17-7.83,48.34-12.6,56.85S86.12,452.18,88.84,460c2.11,6.08,49,44.86,49,44.86h94.53L230.8,404.52,197.09,248.27Z" style="fill: #00654d;stroke: #262626;stroke-miterlimit: 10"/>
          <path d="M227.22,245.54V225.46s-2.13-5.11-13.24,0-39.69,10.89-40,16.68,4.76,12.26,9.53,14.64,14,10.89,15,22.81S230.8,404.52,230.8,404.52Z" style="fill: #fff;stroke: #000;stroke-miterlimit: 10"/>
          <path d="M302,397.71s29.27-119.48,32.34-124.59,8.51-13.28,13.61-17,19.41-11.24,9.54-15.32-35.91-16.06-44.94-16-8.43-1.32-8.43,3.66S302,397.71,302,397.71Z" style="fill: #fff;stroke: #000;stroke-miterlimit: 10"/>
          <line x1="165.09" y1="330.31" x2="160.55" y2="448.37" style="fill: #00654d;stroke: #262626;stroke-miterlimit: 10"/>
          <polygon points="172.24 479.42 185.52 487.59 174.23 504.87 161.77 504.87 172.24 479.42" style="fill: #fff;stroke: #000;stroke-miterlimit: 10"/>
          <path d="M161.77,504.87c2.38-3.4,15.58-27.84,15.58-27.84a12.57,12.57,0,0,0-3.42-8.85C170.2,464.44,144.67,425,144.67,425" style="fill: #00654d;stroke: #262626;stroke-miterlimit: 10"/>
          <path d="M117.09,415.08s14-6.81,17-3.07,23.49,19.07,23.49,19.07" style="fill: none;stroke: #262626;stroke-miterlimit: 10"/>
          <path d="M130.71,399.42s20.43,4.08,23.49,13.95" style="fill: #00654d;stroke: #262626;stroke-miterlimit: 10"/>
          <polygon points="173.65 504.87 186.04 504.87 198.12 476.69 188.93 472.24 173.65 504.87" style="fill: #00654d;stroke: #262626;stroke-miterlimit: 10"/>
          <line x1="368.67" y1="330.31" x2="372.07" y2="446.74" style="fill: #00654d;stroke: #262626;stroke-miterlimit: 10"/>
          <path d="M377.18,422.91s23.49-24.17,41.87-18.39" style="fill: #00654d;stroke: #262626;stroke-miterlimit: 10"/>
          <path d="M377.18,409s18.38-20.09,28.6-17.36" style="fill: #00654d;stroke: #262626;stroke-miterlimit: 10"/>
          <polygon points="346.2 485.54 360.83 481.12 370.37 504.87 355.39 504.87 346.2 485.54" style="fill: #fff;stroke: #000;stroke-miterlimit: 10"/>
          <path d="M389.09,425s-33.7,43.51-33.7,47.29,1,8.2,5.44,17.39,7.71,15.24,7.71,15.24" style="fill: #00654d;stroke: #262626;stroke-miterlimit: 10"/>
          <polygon points="358.63 504.87 342.46 471.85 334.63 476.35 348.12 504.87 358.63 504.87" style="fill: #00654d;stroke: #262626;stroke-miterlimit: 10"/>
          <path d="M368.8,504.4c2.68.2,16.08,0,16.08,0l-.64-6.57-16.85-3.19" style="fill: #00654d"/>
        </g>
      </g>
    </g>
  </g>
</svg>
