<svg width="56" height="56" viewBox="0 0 56 56" fill="none" xmlns="http://www.w3.org/2000/svg">
<g clip-path="url(#clip0_4016_6654)">
<path d="M47.799 8.20094C42.5105 2.91255 35.4791 0 28 0C23.8907 0 19.9313 0.870078 16.2317 2.58606C16.1329 2.63072 16.044 2.69451 15.97 2.77374C15.8961 2.85297 15.8385 2.94607 15.8008 3.04767C15.763 3.14926 15.7457 3.25733 15.75 3.36564C15.7542 3.47395 15.7799 3.58034 15.8255 3.67867C15.8711 3.77699 15.9357 3.86531 16.0157 3.93851C16.0956 4.01171 16.1893 4.06834 16.2912 4.10513C16.3932 4.14192 16.5014 4.15814 16.6097 4.15285C16.7179 4.14757 16.8241 4.12088 16.922 4.07433C20.4037 2.45941 24.1309 1.64062 28 1.64062C42.5346 1.64062 54.3594 13.4654 54.3594 28C54.3594 34.491 51.9792 40.7279 47.6572 45.5619C47.5849 45.6421 47.5292 45.7358 47.4933 45.8377C47.4573 45.9395 47.4418 46.0474 47.4477 46.1552C47.4535 46.263 47.4805 46.3686 47.5273 46.4659C47.574 46.5633 47.6395 46.6504 47.72 46.7224C47.8005 46.7943 47.8944 46.8497 47.9963 46.8853C48.0983 46.9209 48.2062 46.936 48.314 46.9298C48.4218 46.9236 48.5273 46.8962 48.6245 46.8491C48.7216 46.802 48.8086 46.7362 48.8802 46.6554C53.4715 41.5202 56 34.8949 56 28C56 20.5209 53.0876 13.4894 47.799 8.20094ZM44.9943 48.1505C40.2519 52.1544 34.2164 54.3594 28 54.3594C13.4654 54.3594 1.64062 42.5346 1.64062 28C1.64062 19.0302 6.13944 10.757 13.675 5.86895C13.7654 5.81034 13.8434 5.7345 13.9044 5.64576C13.9655 5.55702 14.0085 5.45711 14.0309 5.35176C14.0534 5.2464 14.0549 5.13765 14.0353 5.03172C14.0157 4.9258 13.9754 4.82477 13.9168 4.73441C13.8581 4.64402 13.7823 4.56607 13.6935 4.505C13.6048 4.44393 13.5049 4.40094 13.3995 4.37848C13.2942 4.35603 13.1854 4.35455 13.0795 4.37412C12.9735 4.3937 12.8725 4.43395 12.7821 4.49258C4.77837 9.68428 0 18.4721 0 28C0 35.4791 2.91244 42.5106 8.20105 47.7991C13.4895 53.0875 20.5209 56 28 56C34.6034 56 41.0146 53.6575 46.0527 49.404C46.1353 49.3346 46.2033 49.2496 46.253 49.1538C46.3027 49.0581 46.333 48.9535 46.3422 48.846C46.3514 48.7385 46.3393 48.6302 46.3066 48.5274C46.2739 48.4246 46.2213 48.3293 46.1517 48.2468C46.0821 48.1644 45.9969 48.0965 45.901 48.0471C45.8051 47.9976 45.7005 47.9675 45.5929 47.9586C45.4854 47.9496 45.3772 47.962 45.2745 47.9949C45.1717 48.0278 45.0765 48.0807 44.9943 48.1505Z" fill="#007A65"/>
<path d="M3.82812 28C3.82812 34.4565 6.34244 40.5266 10.9079 45.0921C15.4734 49.6576 21.5435 52.1719 28 52.1719C34.4565 52.1719 40.5266 49.6576 45.0921 45.0921C49.6576 40.5266 52.1719 34.4565 52.1719 28C52.1719 14.6717 41.3284 3.82812 28 3.82812C14.6716 3.82812 3.82812 14.6717 3.82812 28ZM28 5.46875C40.4238 5.46875 50.5312 15.5762 50.5312 28C50.5312 34.0182 48.1876 39.6764 43.932 43.932C39.6763 48.1876 34.0182 50.5312 28 50.5312C21.9818 50.5312 16.3237 48.1876 12.068 43.932C7.81244 39.6764 5.46875 34.0182 5.46875 28C5.46875 15.5762 15.5762 5.46875 28 5.46875Z" fill="#007A65"/>
<path d="M18.9219 37.3754C17.2633 37.3754 15.9141 38.7248 15.9141 40.3832C15.9141 42.0417 17.2633 43.391 18.9219 43.391H21.2734V45.6094C21.2734 46.9663 22.3774 48.0703 23.7344 48.0703C25.0914 48.0703 26.1953 46.9663 26.1953 45.6094V43.3922L27.6172 43.3942V45.5C27.6172 46.8569 28.7211 47.9609 30.0781 47.9609C31.4351 47.9609 32.5391 46.8569 32.5391 45.5V43.2687C37.4232 42.8031 41.2715 38.6547 41.2715 33.6655C41.2715 30.7059 39.9221 27.9425 37.6228 26.1157C38.5067 24.7822 38.9975 23.2484 39.0513 21.6328C39.0548 21.5252 39.0372 21.4179 38.9993 21.317C38.9614 21.2162 38.904 21.1238 38.8304 21.0451C38.7568 20.9665 38.6684 20.9031 38.5703 20.8586C38.4722 20.8141 38.3663 20.7893 38.2586 20.7857C37.8032 20.7674 37.4266 21.1256 37.4115 21.5784C37.3602 23.1222 36.816 24.5743 35.8375 25.7773C35.5319 26.1364 35.6229 26.7284 36.0219 26.9794C38.2817 28.4717 39.6308 30.9713 39.6308 33.6656C39.6308 38.0332 36.0776 41.6244 31.7099 41.6711C31.4939 41.6735 31.2875 41.7609 31.1356 41.9145C30.9837 42.0681 30.8985 42.2754 30.8984 42.4914V45.5C30.8984 45.9524 30.5304 46.3203 30.0781 46.3203C29.6257 46.3203 29.2578 45.9524 29.2578 45.5V42.575C29.2578 42.3576 29.1715 42.1491 29.0179 41.9953C28.8643 41.8415 28.656 41.755 28.4386 41.7547L25.3761 41.7504C24.9351 41.7411 24.5459 42.1296 24.5547 42.5707V45.6094C24.5547 46.0617 24.1866 46.4297 23.7344 46.4297C23.282 46.4297 22.9141 46.0617 22.9141 45.6094V42.5707C22.9141 42.3532 22.8276 42.1445 22.6738 41.9907C22.52 41.8368 22.3113 41.7504 22.0938 41.7504H18.9219C18.168 41.7504 17.5547 41.1371 17.5547 40.3832C17.5547 39.6293 18.168 39.016 18.9219 39.016H21.0176C21.2352 39.016 21.4438 38.9296 21.5977 38.7758C21.7515 38.6219 21.8379 38.4133 21.8379 38.1957V17.8519C21.8379 17.6343 21.7515 17.4256 21.5977 17.2718C21.4438 17.118 21.2352 17.0315 21.0176 17.0315H18.9219C18.168 17.0315 17.5547 16.4183 17.5547 15.6644C17.5547 14.9104 18.168 14.2972 18.9219 14.2972H22.0938C22.3113 14.2972 22.52 14.2107 22.6738 14.0569C22.8276 13.9031 22.9141 13.6944 22.9141 13.4769V10.6094C22.9141 10.157 23.282 9.78906 23.7344 9.78906C24.1866 9.78906 24.5547 10.157 24.5547 10.6094V13.4769C24.5547 13.6944 24.6411 13.9031 24.795 14.0569C24.9488 14.2107 25.1574 14.2972 25.375 14.2972H28.4375C28.6551 14.2972 28.8637 14.2107 29.0175 14.0569C29.1714 13.9031 29.2578 13.6944 29.2578 13.4769V10.5C29.2578 10.0476 29.6257 9.67969 30.0781 9.67969C30.5304 9.67969 30.8984 10.0476 30.8984 10.5V13.5948C30.8984 13.788 30.9667 13.9751 31.0911 14.1229C31.2155 14.2708 31.3881 14.37 31.5785 14.403C33.7765 14.7842 35.6849 16.21 36.6835 18.2172C36.7823 18.4088 36.9525 18.5538 37.1573 18.6209C37.3622 18.688 37.5852 18.6718 37.7782 18.5758C37.9712 18.4798 38.1186 18.3116 38.1887 18.1078C38.2587 17.9039 38.2457 17.6807 38.1524 17.4863C37.0263 15.2229 34.9596 13.5592 32.5391 12.9332V10.5C32.5391 9.14309 31.4351 8.03906 30.0781 8.03906C28.7211 8.03906 27.6172 9.14309 27.6172 10.5V12.6565H26.1953V10.6094C26.1953 9.25247 25.0914 8.14844 23.7344 8.14844C22.3774 8.14844 21.2734 9.25247 21.2734 10.6094V12.6565H18.9219C17.2633 12.6565 15.9141 14.0059 15.9141 15.6644C15.9141 17.3229 17.2633 18.6722 18.9219 18.6722H20.1973V37.3754H18.9219Z" fill="#007A65"/>
<path d="M25.3927 25.6576H25.3939C25.3939 25.6576 29.848 25.651 30.3716 25.651C32.748 25.651 34.6813 23.7176 34.6813 21.3413C34.6813 18.9649 32.748 17.0316 30.3716 17.0316H25.3927C25.1752 17.0316 24.9665 17.118 24.8127 17.2718C24.6588 17.4257 24.5724 17.6343 24.5724 17.8519V24.8373C24.5637 25.278 24.9521 25.6664 25.3927 25.6576ZM26.213 18.6722H30.3716C31.8433 18.6722 33.0407 19.8695 33.0407 21.3413C33.0407 22.813 31.8433 24.0103 30.3716 24.0103C29.9904 24.0103 27.5263 24.0138 26.213 24.0158V18.6722ZM31.6232 37.2985C31.1304 37.2471 30.6763 37.612 30.6798 38.1188C30.6763 38.6257 31.1304 38.9906 31.6232 38.9392C34.531 38.9392 36.8967 36.5734 36.8967 33.6655C36.8967 30.7577 34.531 28.392 31.6223 28.392C31.5674 28.3921 26.124 28.3981 25.3893 28.4012C25.1724 28.4021 24.9646 28.4889 24.8115 28.6427C24.6584 28.7964 24.5724 29.0045 24.5724 29.2215V38.1387C24.5637 38.5806 24.9542 38.9696 25.396 38.9591L27.6751 38.9502C27.8926 38.9498 28.1011 38.863 28.2547 38.7089C28.4082 38.5548 28.4943 38.346 28.4939 38.1284C28.4935 37.9108 28.4067 37.7024 28.2526 37.5488C28.0985 37.3952 27.8897 37.3092 27.6721 37.3096H27.669L26.213 37.3153V30.0399C27.9446 30.0367 31.5791 30.0326 31.6232 30.0326C33.6264 30.0326 35.2561 31.6623 35.2561 33.6655C35.2559 35.6687 33.6263 37.2985 31.6232 37.2985Z" fill="#007A65"/>
</g>
<defs>
<clipPath id="clip0_4016_6654">
<rect width="56" height="56" fill="white"/>
</clipPath>
</defs>
</svg>
