<svg width="56" height="56" viewBox="0 0 56 56" fill="none" xmlns="http://www.w3.org/2000/svg">
<path d="M40.7095 40.135C40.7818 40.135 40.8467 40.183 40.8711 40.2543L41.4379 41.9164C41.4727 42.0184 41.5272 42.1125 41.5983 42.1934C41.6694 42.2743 41.7558 42.3404 41.8525 42.3879C41.9492 42.4355 42.0543 42.4635 42.1618 42.4704C42.2693 42.4773 42.3771 42.463 42.4791 42.4282C42.581 42.3934 42.6751 42.3389 42.756 42.2678C42.8369 42.1967 42.903 42.1103 42.9506 42.0136C42.9981 41.9169 43.0261 41.8119 43.033 41.7043C43.0399 41.5968 43.0256 41.489 42.9908 41.3871L42.424 39.7248C42.173 38.9888 41.4841 38.4944 40.7096 38.4944H36.5807C36.6067 38.2346 36.5766 37.9723 36.4926 37.7251L34.4696 31.7924C34.2186 31.0564 33.5297 30.562 32.7553 30.562H23.0001C22.2257 30.562 21.5367 31.0565 21.2857 31.7924L19.2627 37.7252C19.1787 37.9724 19.1487 38.2347 19.1746 38.4944H15.1681C14.3936 38.4944 13.7047 38.9889 13.4537 39.7248L11.4308 45.6574C11.3467 45.9046 11.3166 46.167 11.3426 46.4268H7.33578C6.56141 46.4268 5.87245 46.9213 5.62144 47.6572L3.59844 53.5898C3.50495 53.8647 3.47821 54.1579 3.52043 54.4452C3.56265 54.7324 3.67262 55.0056 3.84125 55.2419C4.00879 55.476 4.22963 55.6668 4.48551 55.7986C4.74139 55.9304 5.02496 55.9994 5.31278 55.9999H19.114C19.4706 55.9999 19.815 55.893 20.1067 55.7014C20.4014 55.8956 20.7465 55.9994 21.0994 55.9999H34.9006C35.2571 55.9999 35.6016 55.893 35.8933 55.7014C36.188 55.8956 36.533 55.9994 36.8859 55.9999H50.6872C51.2691 55.9999 51.8192 55.7165 52.1587 55.2419C52.3274 55.0056 52.4373 54.7325 52.4796 54.4452C52.5218 54.158 52.4951 53.8648 52.4016 53.5899L50.3786 47.6572C50.1275 46.9212 49.4386 46.4268 48.6642 46.4268H44.5353C44.5613 46.167 44.5313 45.9047 44.4473 45.6575L44.1139 44.68C44.0437 44.4741 43.8945 44.3045 43.6992 44.2085C43.504 44.1126 43.2786 44.0981 43.0726 44.1684C42.8667 44.2386 42.6971 44.3877 42.6012 44.583C42.5052 44.7783 42.4908 45.0037 42.561 45.2096L42.8944 46.187C42.9045 46.2148 42.9076 46.2447 42.9033 46.2741C42.8991 46.3034 42.8876 46.3312 42.87 46.355C42.8465 46.3878 42.8037 46.4268 42.7327 46.4268H28.9315C28.8607 46.4268 28.8178 46.3878 28.7943 46.355C28.7767 46.3312 28.7652 46.3034 28.761 46.2741C28.7567 46.2448 28.7598 46.2149 28.7699 46.1871L30.7929 40.2544C30.8173 40.1831 30.882 40.135 30.9544 40.135H40.7095ZM35.8932 51.4733L34.7318 48.0675H37.0545L35.8932 51.4733ZM27.9387 43.541L26.7774 40.135H29.1002L27.9387 43.541ZM20.9769 38.4944C20.906 38.4944 20.8632 38.4554 20.8397 38.4226C20.8221 38.3988 20.8106 38.371 20.8064 38.3417C20.8021 38.3124 20.8052 38.2825 20.8153 38.2547L22.8383 32.322C22.8627 32.2506 22.9275 32.2026 22.9999 32.2026H32.7551C32.8274 32.2026 32.8922 32.2505 32.9166 32.322L34.9396 38.2546C34.9498 38.2824 34.9529 38.3123 34.9486 38.3416C34.9443 38.371 34.9329 38.3988 34.9152 38.4226C34.8917 38.4554 34.849 38.4944 34.7781 38.4944H20.9769ZM24.9231 40.135C24.9954 40.135 25.0602 40.183 25.0846 40.2544L27.1076 46.1872C27.1178 46.215 27.1209 46.2449 27.1166 46.2742C27.1124 46.3034 27.1009 46.3312 27.0833 46.355C27.0598 46.3878 27.017 46.4268 26.9461 46.4268H13.1448C13.0739 46.4268 13.031 46.3878 13.0075 46.355C12.9899 46.3312 12.9785 46.3034 12.9742 46.2741C12.97 46.2448 12.9731 46.2149 12.9832 46.1871L15.0061 40.2544C15.0305 40.1831 15.0954 40.135 15.1678 40.135H24.9231ZM20.1066 51.4733L18.9453 48.0675H21.268L20.1066 51.4733ZM17.091 48.0676C17.1633 48.0676 17.2283 48.1155 17.2527 48.1869L19.2757 54.1195C19.2858 54.1474 19.2889 54.1773 19.2847 54.2066C19.2804 54.2359 19.269 54.2637 19.2513 54.2875C19.2278 54.3203 19.185 54.3594 19.114 54.3594H5.31278C5.24191 54.3594 5.19903 54.3203 5.17552 54.2875C5.15793 54.2637 5.14651 54.2359 5.14227 54.2066C5.13804 54.1773 5.14112 54.1474 5.15123 54.1196L7.17424 48.1869C7.19863 48.1156 7.26338 48.0676 7.33578 48.0676H17.091ZM32.8775 48.0676C32.9498 48.0676 33.0147 48.1155 33.0391 48.1869L35.0621 54.1195C35.0723 54.1474 35.0753 54.1773 35.0711 54.2066C35.0668 54.2359 35.0554 54.2637 35.0377 54.2875C35.0142 54.3203 34.9715 54.3594 34.9005 54.3594H21.0993C21.0284 54.3594 20.9856 54.3203 20.962 54.2875C20.9444 54.2637 20.933 54.2359 20.9287 54.2066C20.9245 54.1773 20.9276 54.1474 20.9377 54.1196L22.9607 48.1869C22.985 48.1156 23.0499 48.0676 23.1223 48.0676H32.8775ZM48.664 48.0676C48.7363 48.0676 48.8012 48.1155 48.8255 48.1869L50.8485 54.1197C50.8587 54.1475 50.8618 54.1774 50.8575 54.2067C50.8533 54.236 50.8419 54.2637 50.8243 54.2875C50.8007 54.3203 50.758 54.3594 50.687 54.3594H36.8857C36.8149 54.3594 36.772 54.3203 36.7485 54.2875C36.7309 54.2637 36.7194 54.2359 36.7152 54.2066C36.7109 54.1773 36.714 54.1474 36.7241 54.1196L38.7471 48.1869C38.7715 48.1156 38.8363 48.0676 38.9087 48.0676H48.664ZM27.9999 28.1228C35.7736 28.1228 42.0979 21.8148 42.0979 14.0614C42.0979 6.30788 35.7736 0 27.9999 0C25.9101 0 23.8979 0.445594 22.0194 1.32442C21.9218 1.37006 21.8342 1.43448 21.7615 1.51398C21.6888 1.59349 21.6325 1.68654 21.5958 1.78781C21.5591 1.88908 21.5427 1.9966 21.5475 2.10421C21.5523 2.21182 21.5783 2.31743 21.624 2.415C21.6696 2.5126 21.734 2.60025 21.8135 2.67294C21.893 2.74564 21.9861 2.80195 22.0873 2.83867C22.1886 2.87539 22.2961 2.89179 22.4038 2.88694C22.5114 2.88209 22.617 2.85608 22.7146 2.81039C24.3739 2.03427 26.152 1.64062 27.9999 1.64062C34.869 1.64062 40.4573 7.21251 40.4573 14.0615C40.4573 20.9104 34.869 26.4822 27.9999 26.4822C21.1308 26.4822 15.5425 20.9103 15.5425 14.0615C15.5425 10.3553 17.1846 6.87039 20.0475 4.50034C20.3965 4.21138 20.4452 3.69436 20.1563 3.34534C19.8673 2.99633 19.3503 2.94755 19.0013 3.23652C15.7605 5.91937 13.9018 9.86497 13.9018 14.0615C13.9019 21.8148 20.2262 28.1228 27.9999 28.1228Z" fill="#007A65"/>
<path d="M21.3635 13.6541L24.1405 9.58481H27.4327M19.3223 13.734H29.7835" stroke="#007A65" stroke-width="1.35" stroke-miterlimit="10" stroke-linecap="round" stroke-linejoin="round"/>
<path d="M30.9507 14.8585C31.5718 14.8585 32.0752 14.355 32.0752 13.734C32.0752 13.1129 31.5718 12.6094 30.9507 12.6094C30.3296 12.6094 29.8262 13.1129 29.8262 13.734C29.8262 14.355 30.3296 14.8585 30.9507 14.8585Z" stroke="#007A65" stroke-width="1.35" stroke-miterlimit="10" stroke-linecap="round" stroke-linejoin="round"/>
<path d="M29.7583 9.8411C29.8995 9.23629 29.5236 8.63156 28.9188 8.49039C28.314 8.34923 27.7093 8.72508 27.5681 9.32989C27.4269 9.9347 27.8028 10.5394 28.4076 10.6806C29.0124 10.8218 29.6171 10.4459 29.7583 9.8411Z" stroke="#007A65" stroke-width="1.35" stroke-miterlimit="10" stroke-linecap="round" stroke-linejoin="round"/>
<path d="M29.4568 18.7221C29.8959 18.283 29.8959 17.5709 29.4568 17.1318C29.0176 16.6926 28.3056 16.6927 27.8664 17.1318C27.4273 17.571 27.4273 18.283 27.8665 18.7222C28.3056 19.1613 29.0176 19.1613 29.4568 18.7221Z" stroke="#007A65" stroke-width="1.35" stroke-miterlimit="10" stroke-linecap="round" stroke-linejoin="round"/>
<path d="M26.4121 17.9271H27.3449" stroke="#007A65" stroke-width="1.35" stroke-miterlimit="10" stroke-linecap="round" stroke-linejoin="round"/>
<path d="M21.3086 13.7779L24.1402 17.927H24.9761" stroke="#007A65" stroke-width="1.35" stroke-miterlimit="10" stroke-linecap="round" stroke-linejoin="round"/>
<circle cx="28" cy="14" r="9.2" stroke="#007A65" stroke-width="1.6"/>
</svg>
