<svg width="56" height="56" viewBox="0 0 56 56" fill="none" xmlns="http://www.w3.org/2000/svg">
<path d="M15.9536 15.7188C15.6576 14.8686 15.5069 13.9746 15.5078 13.0744C15.5078 8.64123 19.1016 5.04742 23.5348 5.04742C27.9679 5.04742 31.5617 8.64123 31.5617 13.0744C31.5627 13.9746 31.412 14.8686 31.1159 15.7188" stroke="#007A65" stroke-width="1.8" stroke-miterlimit="10" stroke-linecap="round" stroke-linejoin="round"/>
<path d="M45.3342 34.1305C45.6049 33.2054 45.0743 32.2361 44.1492 31.9654C43.2241 31.6948 42.2548 32.2253 41.9842 33.1504C41.7135 34.0755 42.2441 35.0448 43.1692 35.3155C44.0943 35.5861 45.0636 35.0556 45.3342 34.1305Z" stroke="#007A65" stroke-width="1.8" stroke-miterlimit="10" stroke-linecap="round" stroke-linejoin="round"/>
<path d="M34.324 9.54733H41.5969C43.3386 9.54733 44.7506 10.9593 44.7506 12.7011V15.8548H5.15372C3.41199 15.8548 2 14.4428 2 12.7011C2 10.9593 3.41199 9.54733 5.15372 9.54733H12.7824M51.6423 28.5089V19.0086C51.6423 17.2669 50.2303 15.8549 48.4886 15.8549H44.857" stroke="#007A65" stroke-width="1.8" stroke-miterlimit="10" stroke-linecap="round" stroke-linejoin="round"/>
<path d="M31.6618 5.55192C33.4908 7.52709 34.6087 10.1702 34.6087 13.0745C34.6087 13.9858 34.4986 14.8715 34.291 15.7188M12.7677 15.6778C12.5627 14.8252 12.4594 13.9513 12.46 13.0744C12.46 6.95817 17.4182 2 23.5344 2C25.4437 2 27.2402 2.48324 28.8082 3.33396M7.36512 33.3958L14.0865 23.5469H22.0545M2.4248 33.5891H27.7442" stroke="#007A65" stroke-width="1.8" stroke-miterlimit="10" stroke-linecap="round" stroke-linejoin="round"/>
<path d="M30.5694 36.3108C32.0725 36.3108 33.2911 35.0922 33.2911 33.5891C33.2911 32.0859 32.0725 30.8674 30.5694 30.8674C29.0662 30.8674 27.8477 32.0859 27.8477 33.5891C27.8477 35.0922 29.0662 36.3108 30.5694 36.3108Z" stroke="#007A65" stroke-width="1.8" stroke-miterlimit="10" stroke-linecap="round" stroke-linejoin="round"/>
<path d="M27.6823 24.1672C28.024 22.7034 27.1143 21.2398 25.6504 20.8981C24.1866 20.5564 22.723 21.4661 22.3813 22.9299C22.0397 24.3938 22.9494 25.8574 24.4132 26.1991C25.877 26.5407 27.3406 25.631 27.6823 24.1672Z" stroke="#007A65" stroke-width="1.8" stroke-miterlimit="10" stroke-linecap="round" stroke-linejoin="round"/>
<path d="M26.9553 45.662C28.0182 44.5991 28.0182 42.8758 26.9552 41.8129C25.8923 40.7501 24.169 40.7501 23.1062 41.813C22.0433 42.8759 22.0433 44.5992 23.1062 45.6621C24.1691 46.725 25.8924 46.7249 26.9553 45.662Z" stroke="#007A65" stroke-width="1.8" stroke-miterlimit="10" stroke-linecap="round" stroke-linejoin="round"/>
<path d="M2 12.8075V48.276C2 50.0177 3.41199 51.4297 5.15372 51.4297H48.4886C50.2303 51.4297 51.6423 50.0177 51.6423 48.276V38.7296M19.5846 43.7377H21.8422" stroke="#007A65" stroke-width="1.8" stroke-miterlimit="10" stroke-linecap="round" stroke-linejoin="round"/>
<path d="M7.2334 33.6954L14.0867 43.7377H16.1098M43.6594 28.8958C41.038 28.8958 38.9129 31.0209 38.9129 33.6422C38.9129 36.2636 41.038 38.3887 43.6594 38.3887H53.2366C54.1172 38.3887 54.8311 37.6747 54.8311 36.7941V30.4903C54.8311 29.6097 54.1172 28.8958 53.2366 28.8958H47.2397" stroke="#007A65" stroke-width="1.8" stroke-miterlimit="10" stroke-linecap="round" stroke-linejoin="round"/>
</svg>
