<svg width="180" height="170" viewBox="0 0 180 170" fill="none" xmlns="http://www.w3.org/2000/svg">
<path fill-rule="evenodd" clip-rule="evenodd" d="M156.049 66.4523C158.15 85.3442 157.919 104.485 148.035 120.715C137.376 138.218 121.098 152.218 101.104 156.676C80.0779 161.365 57.483 157.496 40.0772 144.79C22.8107 132.185 12.3845 111.899 10.5762 90.5907C8.89279 70.7549 16.6118 50.704 30.9188 36.8748C43.3371 24.8713 62.3814 28.4711 79.1415 24.3151C98.7328 19.457 118.11 1.16218 135.816 10.8633C153.787 20.7093 153.783 46.0785 156.049 66.4523Z" fill="#C4C4C4"/>
<path d="M104.851 7.27214L19.1616 16.8203L32.4178 136.094L118.107 126.546L104.851 7.27214Z" fill="white" stroke="#263238" stroke-linecap="round" stroke-linejoin="round"/>
<path d="M104.85 7.27312L19.1611 16.8213L20.9953 33.3241L106.684 23.7759L104.85 7.27312Z" fill="#FCC466" stroke="#263238" stroke-linecap="round" stroke-linejoin="round"/>
<path d="M81.0422 14.8774L44.0508 18.9977C43.8789 19.0063 43.7106 19.0499 43.556 19.1258C43.4015 19.2017 43.2641 19.3084 43.1522 19.4393C43.0402 19.5701 42.9561 19.7225 42.9049 19.887C42.8537 20.0516 42.8366 20.2248 42.8546 20.3962C42.8725 20.5676 42.9252 20.7335 43.0093 20.8839C43.0935 21.0342 43.2074 21.1657 43.344 21.2705C43.4806 21.3753 43.6372 21.4511 43.8041 21.4932C43.9709 21.5354 44.1446 21.543 44.3146 21.5157L81.306 17.3954C81.6296 17.3464 81.9217 17.1738 82.121 16.9138C82.3203 16.6538 82.4113 16.3266 82.3749 16.0009C82.3385 15.6751 82.1776 15.3762 81.9258 15.1667C81.674 14.9573 81.351 14.8536 81.0246 14.8774H81.0422Z" fill="url(#paint0_linear_1135_9108)"/>
<path d="M72.3679 21.0749L53.8766 23.1351C53.7941 23.1433 53.714 23.1679 53.641 23.2075C53.568 23.247 53.5037 23.3008 53.4517 23.3655C53.3997 23.4303 53.3611 23.5048 53.3382 23.5846C53.3153 23.6645 53.3085 23.7481 53.3183 23.8306C53.336 23.9975 53.4191 24.1505 53.5493 24.2561C53.6795 24.3617 53.8462 24.4113 54.0129 24.3941L72.5086 22.3339C72.6704 22.3094 72.8165 22.2231 72.9161 22.0931C73.0158 21.9631 73.0613 21.7995 73.0431 21.6367C73.0249 21.4738 72.9444 21.3243 72.8185 21.2196C72.6927 21.1149 72.5312 21.063 72.3679 21.0749Z" fill="url(#paint1_linear_1135_9108)"/>
<path opacity="0.3" d="M94.6994 35.3467L46.229 40.7437C46.1048 40.7577 45.9913 40.8205 45.9133 40.9183C45.8354 41.0162 45.7995 41.141 45.8135 41.2653C45.8275 41.3897 45.8903 41.5033 45.988 41.5814C46.0857 41.6594 46.2103 41.6953 46.3345 41.6813L94.7917 36.2844C94.9159 36.2704 95.0294 36.2075 95.1073 36.1097C95.1852 36.0119 95.2212 35.8871 95.2072 35.7627C95.1932 35.6384 95.1304 35.5247 95.0327 35.4467C94.935 35.3687 94.8104 35.3327 94.6862 35.3467H94.6994Z" fill="black"/>
<path opacity="0.3" d="M95.0731 38.7147L39.3442 44.9216C39.22 44.9356 39.1065 44.9984 39.0286 45.0963C38.9507 45.1941 38.9148 45.3189 38.9287 45.4432C38.9427 45.5676 39.0055 45.6813 39.1032 45.7593C39.2009 45.8373 39.3255 45.8733 39.4497 45.8592L95.1786 39.6523C95.242 39.6485 95.304 39.6318 95.3609 39.6034C95.4177 39.5749 95.4682 39.5352 95.5093 39.4867C95.5504 39.4381 95.5812 39.3817 95.5999 39.3209C95.6187 39.2601 95.6249 39.1961 95.6182 39.1329C95.6113 39.069 95.5914 39.0071 95.56 38.9511C95.5285 38.8951 95.4859 38.8461 95.435 38.807C95.384 38.7679 95.3257 38.7396 95.2635 38.7237C95.2013 38.7078 95.1365 38.7048 95.0731 38.7147Z" fill="black"/>
<path opacity="0.3" d="M80.9033 43.7013L39.7177 48.2883C39.5936 48.3023 39.48 48.3651 39.4021 48.463C39.3242 48.5608 39.2883 48.6856 39.3023 48.8099C39.3163 48.9343 39.379 49.0479 39.4767 49.126C39.5744 49.204 39.6991 49.2399 39.8233 49.2259L81.0044 44.639C81.0678 44.6351 81.1298 44.6185 81.1867 44.59C81.2435 44.5616 81.294 44.5218 81.3351 44.4733C81.3762 44.4248 81.407 44.3684 81.4257 44.3076C81.4445 44.2468 81.4507 44.1828 81.444 44.1195C81.437 44.056 81.4173 43.9946 81.3861 43.939C81.3549 43.8833 81.3128 43.8345 81.2623 43.7955C81.2119 43.7564 81.1541 43.728 81.0924 43.7118C81.0307 43.6956 80.9664 43.6921 80.9033 43.7013Z" fill="black"/>
<path opacity="0.3" d="M96.4708 51.2998L48.0136 56.6968C47.8895 56.7108 47.7759 56.7736 47.698 56.8715C47.6201 56.9693 47.5842 57.0941 47.5982 57.2184C47.6122 57.3428 47.6749 57.4565 47.7726 57.5345C47.8703 57.6125 47.995 57.6485 48.1192 57.6344L96.5764 52.2375C96.6378 52.2305 96.6974 52.2116 96.7515 52.1816C96.8057 52.1516 96.8534 52.1113 96.892 52.0628C96.9306 52.0144 96.9592 51.9588 96.9764 51.8993C96.9935 51.8397 96.9987 51.7774 96.9918 51.7158C96.9849 51.6543 96.9659 51.5947 96.936 51.5404C96.9061 51.4862 96.8657 51.4384 96.8174 51.3998C96.769 51.3612 96.7135 51.3325 96.654 51.3153C96.5946 51.2982 96.5323 51.2929 96.4708 51.2998Z" fill="black"/>
<path opacity="0.3" d="M96.8446 54.667L41.1157 60.874C41.0542 60.8809 40.9947 60.8999 40.9405 60.9299C40.8864 60.9598 40.8386 61.0002 40.8001 61.0486C40.7615 61.0971 40.7328 61.1527 40.7157 61.2122C40.6985 61.2717 40.6933 61.3341 40.7002 61.3956C40.7072 61.4572 40.7261 61.5168 40.7561 61.571C40.786 61.6252 40.8263 61.673 40.8747 61.7117C40.923 61.7503 40.9786 61.779 41.038 61.7961C41.0975 61.8133 41.1597 61.8186 41.2212 61.8116L96.9501 55.6047C97.0743 55.5907 97.1878 55.5278 97.2657 55.43C97.3436 55.3322 97.3795 55.2074 97.3655 55.083C97.3516 54.9587 97.2888 54.845 97.1911 54.767C97.0934 54.689 96.9687 54.653 96.8446 54.667Z" fill="black"/>
<path opacity="0.3" d="M82.6753 59.6544L41.4897 64.2414C41.3655 64.2554 41.252 64.3183 41.1741 64.4161C41.0962 64.5139 41.0603 64.6387 41.0743 64.7631C41.0882 64.8874 41.151 65.0011 41.2487 65.0791C41.3464 65.1571 41.4711 65.1931 41.5952 65.1791L82.7764 60.5921C82.8398 60.5883 82.9018 60.5716 82.9587 60.5431C83.0155 60.5147 83.066 60.475 83.1071 60.4264C83.1482 60.3779 83.179 60.3215 83.1977 60.2607C83.2164 60.1999 83.2227 60.1359 83.216 60.0726C83.209 60.0092 83.1893 59.9478 83.1581 59.8921C83.1269 59.8364 83.0848 59.7876 83.0343 59.7486C82.9838 59.7095 82.926 59.6811 82.8644 59.6649C82.8027 59.6487 82.7384 59.6452 82.6753 59.6544Z" fill="black"/>
<path opacity="0.3" d="M98.2429 67.2535L49.7857 72.6504C49.6694 72.6729 49.5658 72.7384 49.4957 72.834C49.4255 72.9296 49.394 73.0481 49.4073 73.1659C49.4206 73.2838 49.4778 73.3922 49.5675 73.4697C49.6572 73.5471 49.7728 73.5878 49.8912 73.5837L98.3484 68.1779C98.4099 68.171 98.4694 68.152 98.5235 68.122C98.5777 68.092 98.6254 68.0517 98.664 68.0032C98.7026 67.9548 98.7313 67.8992 98.7484 67.8397C98.7655 67.7802 98.7708 67.7178 98.7638 67.6563C98.7569 67.5947 98.7379 67.5351 98.708 67.4809C98.6781 67.4267 98.6378 67.3789 98.5894 67.3402C98.541 67.3016 98.4855 67.2729 98.4261 67.2557C98.3666 67.2386 98.3044 67.2333 98.2429 67.2403V67.2535Z" fill="black"/>
<path opacity="0.3" d="M98.6206 70.621L42.8873 76.8279C42.8257 76.8339 42.766 76.8522 42.7116 76.8818C42.6572 76.9113 42.6093 76.9515 42.5708 77C42.5322 77.0484 42.5038 77.1041 42.4872 77.1638C42.4706 77.2235 42.4661 77.2859 42.474 77.3474C42.4806 77.4089 42.4993 77.4686 42.5289 77.523C42.5585 77.5774 42.5986 77.6254 42.6468 77.6642C42.695 77.703 42.7503 77.732 42.8097 77.7494C42.8691 77.7668 42.9313 77.7723 42.9928 77.7656L98.7217 71.5586C98.7853 71.5542 98.8474 71.5371 98.9043 71.5081C98.9611 71.4792 99.0116 71.4391 99.0526 71.3902C99.0936 71.3413 99.1244 71.2846 99.1431 71.2235C99.1618 71.1625 99.168 71.0983 99.1613 71.0348C99.1544 70.9714 99.1347 70.9102 99.1034 70.8547C99.0721 70.7992 99.0299 70.7507 98.9794 70.712C98.9288 70.6733 98.871 70.6453 98.8093 70.6297C98.7476 70.614 98.6834 70.6111 98.6206 70.621Z" fill="black"/>
<path opacity="0.3" d="M84.4468 75.6087L43.2612 80.1957C43.137 80.2097 43.0235 80.2725 42.9456 80.3703C42.8677 80.4682 42.8317 80.593 42.8457 80.7173C42.8597 80.8417 42.9225 80.9553 43.0202 81.0334C43.1179 81.1114 43.2425 81.1473 43.3667 81.1333L84.5479 76.5419C84.6721 76.5285 84.7858 76.4662 84.8641 76.3688C84.9425 76.2714 84.9789 76.1468 84.9655 76.0225C84.9521 75.8982 84.8899 75.7842 84.7926 75.7058C84.6954 75.6274 84.5709 75.5909 84.4468 75.6043V75.6087Z" fill="black"/>
<path opacity="0.3" d="M102.025 65.4575L97.1098 66.0053C96.4486 66.0789 95.9722 66.6754 96.0458 67.3374L96.5929 72.2594C96.6664 72.9215 97.2621 73.3984 97.9233 73.3248L102.839 72.777C103.5 72.7034 103.976 72.1069 103.903 71.4449L103.356 66.5229C103.282 65.8608 102.687 65.3839 102.025 65.4575Z" stroke="#263238" stroke-linecap="round" stroke-linejoin="round"/>
<path d="M97.9858 69.2466L99.5993 70.7742L101.732 67.5078" stroke="url(#paint2_linear_1135_9108)" stroke-width="3" stroke-linecap="round" stroke-linejoin="round"/>
<path opacity="0.3" d="M100.014 83.2058L51.5572 88.6027C51.4409 88.6252 51.3373 88.6907 51.2672 88.7863C51.197 88.8819 51.1654 89.0004 51.1788 89.1182C51.1921 89.2361 51.2493 89.3445 51.339 89.422C51.4287 89.4994 51.5443 89.5401 51.6627 89.536L100.12 84.139C100.185 84.1367 100.248 84.1211 100.307 84.093C100.365 84.0649 100.417 84.025 100.46 83.9759C100.502 83.9267 100.534 83.8693 100.553 83.8072C100.572 83.7452 100.578 83.6798 100.571 83.6153C100.564 83.5508 100.543 83.4885 100.511 83.4323C100.478 83.3761 100.434 83.3272 100.382 83.2888C100.33 83.2503 100.27 83.2231 100.207 83.2088C100.144 83.1945 100.078 83.1935 100.014 83.2058Z" fill="black"/>
<path opacity="0.3" d="M100.393 86.5741L44.6593 92.7811C44.5977 92.7871 44.5379 92.8054 44.4836 92.8349C44.4292 92.8645 44.3813 92.9047 44.3427 92.9531C44.3042 93.0016 44.2758 93.0573 44.2591 93.117C44.2425 93.1767 44.2381 93.2391 44.246 93.3005C44.2526 93.3621 44.2712 93.4218 44.3009 93.4762C44.3305 93.5305 44.3706 93.5785 44.4188 93.6174C44.4669 93.6562 44.5223 93.6852 44.5817 93.7025C44.6411 93.7199 44.7033 93.7254 44.7648 93.7187L100.494 87.5118C100.618 87.4974 100.732 87.4342 100.81 87.3361C100.889 87.2379 100.925 87.1128 100.911 86.9879C100.897 86.8643 100.834 86.7514 100.737 86.6739C100.64 86.5964 100.516 86.5605 100.393 86.5741Z" fill="black"/>
<path opacity="0.3" d="M86.2359 91.5609L45.0504 96.1479C44.9888 96.1538 44.929 96.1721 44.8747 96.2017C44.8203 96.2313 44.7724 96.2715 44.7339 96.3199C44.6953 96.3684 44.6669 96.4241 44.6503 96.4838C44.6336 96.5434 44.6292 96.6059 44.6371 96.6673C44.6437 96.7289 44.6623 96.7886 44.692 96.8429C44.7216 96.8973 44.7617 96.9453 44.8099 96.9841C44.8581 97.023 44.9134 97.0519 44.9728 97.0693C45.0322 97.0867 45.0944 97.0922 45.1559 97.0855L86.3371 92.4985C86.3986 92.4919 86.4582 92.4733 86.5125 92.4436C86.5668 92.4139 86.6147 92.3738 86.6535 92.3255C86.6923 92.2773 86.7212 92.2218 86.7386 92.1624C86.7559 92.1029 86.7614 92.0407 86.7547 91.9791C86.7487 91.9173 86.7304 91.8573 86.701 91.8026C86.6715 91.7479 86.6315 91.6997 86.5831 91.6608C86.5348 91.6218 86.4792 91.5929 86.4196 91.5758C86.36 91.5586 86.2975 91.5535 86.2359 91.5609Z" fill="black"/>
<path opacity="0.3" d="M101.791 99.1557L53.3335 104.553C53.272 104.559 53.2124 104.578 53.1581 104.608C53.1039 104.637 53.056 104.678 53.0172 104.726C52.9784 104.774 52.9495 104.829 52.9321 104.889C52.9147 104.948 52.9092 105.011 52.9158 105.072C52.9224 105.134 52.9411 105.193 52.9708 105.248C53.0005 105.302 53.0405 105.35 53.0887 105.389C53.1369 105.428 53.1922 105.457 53.2516 105.474C53.3109 105.491 53.3731 105.497 53.4346 105.49L101.892 100.093C101.953 100.087 102.013 100.068 102.067 100.038C102.122 100.009 102.169 99.9686 102.208 99.9203C102.247 99.8721 102.276 99.8166 102.293 99.7572C102.311 99.6977 102.316 99.6355 102.309 99.5739C102.295 99.45 102.233 99.3367 102.136 99.2584C102.039 99.1802 101.915 99.1433 101.791 99.1557Z" fill="black"/>
<path opacity="0.3" d="M102.164 102.514L46.431 108.72C46.3662 108.723 46.3025 108.738 46.2441 108.767C46.1856 108.795 46.1335 108.834 46.0912 108.884C46.0488 108.933 46.0171 108.99 45.998 109.052C45.9789 109.114 45.9727 109.18 45.98 109.244C45.9873 109.309 46.0079 109.371 46.0404 109.427C46.0729 109.483 46.1166 109.532 46.1689 109.571C46.2211 109.609 46.2808 109.636 46.344 109.651C46.4073 109.665 46.4728 109.666 46.5365 109.654L102.265 103.447C102.33 103.445 102.395 103.43 102.453 103.403C102.512 103.375 102.565 103.335 102.608 103.286C102.651 103.237 102.683 103.18 102.703 103.118C102.722 103.055 102.729 102.99 102.722 102.925C102.715 102.86 102.694 102.798 102.662 102.741C102.629 102.685 102.586 102.635 102.533 102.597C102.481 102.558 102.421 102.531 102.357 102.516C102.294 102.502 102.228 102.501 102.164 102.514Z" fill="black"/>
<path opacity="0.3" d="M87.9946 107.515L46.8091 112.102C46.6849 112.116 46.5713 112.179 46.4934 112.277C46.4155 112.375 46.3796 112.499 46.3936 112.624C46.4076 112.748 46.4703 112.862 46.568 112.94C46.6657 113.018 46.7904 113.054 46.9146 113.04L88.1001 108.453C88.2239 108.437 88.3367 108.374 88.414 108.276C88.4914 108.178 88.527 108.053 88.5134 107.929C88.5068 107.867 88.4882 107.808 88.4585 107.754C88.4288 107.7 88.3886 107.652 88.3404 107.613C88.2921 107.575 88.2367 107.546 88.1773 107.529C88.118 107.513 88.0559 107.508 87.9946 107.515Z" fill="black"/>
<path opacity="0.3" d="M103.14 111.318L54.6831 116.724C54.5589 116.738 54.4454 116.801 54.3674 116.899C54.2895 116.996 54.2536 117.121 54.2676 117.246C54.2816 117.37 54.3443 117.484 54.4421 117.562C54.5398 117.64 54.6644 117.676 54.7886 117.662L103.246 112.265C103.307 112.259 103.367 112.24 103.422 112.211C103.476 112.181 103.524 112.141 103.562 112.092C103.601 112.044 103.629 111.988 103.646 111.929C103.663 111.869 103.667 111.807 103.659 111.745C103.654 111.683 103.636 111.622 103.607 111.567C103.577 111.511 103.537 111.462 103.489 111.423C103.441 111.383 103.385 111.353 103.325 111.335C103.265 111.317 103.202 111.311 103.14 111.318Z" fill="black"/>
<path opacity="0.3" d="M103.514 114.699L47.7848 120.905C47.7197 120.907 47.6557 120.922 47.5967 120.95C47.5377 120.977 47.4851 121.017 47.4422 121.066C47.3993 121.115 47.3671 121.172 47.3475 121.235C47.3279 121.297 47.3214 121.362 47.3284 121.427C47.3355 121.492 47.3558 121.555 47.3883 121.611C47.4207 121.668 47.4645 121.717 47.5169 121.755C47.5694 121.794 47.6292 121.822 47.6927 121.836C47.7562 121.85 47.822 121.851 47.8859 121.839L103.619 115.632C103.736 115.609 103.839 115.544 103.909 115.448C103.979 115.353 104.011 115.234 103.998 115.116C103.984 114.998 103.927 114.89 103.837 114.813C103.748 114.735 103.632 114.694 103.514 114.699Z" fill="black"/>
<path opacity="0.3" d="M89.3399 119.682L48.1587 124.269C48.0972 124.275 48.0376 124.294 47.9833 124.324C47.929 124.353 47.8811 124.393 47.8423 124.442C47.8035 124.49 47.7746 124.545 47.7572 124.605C47.7398 124.664 47.7343 124.727 47.7411 124.788C47.7554 124.913 47.8185 125.027 47.9165 125.105C48.0145 125.184 48.1395 125.22 48.2642 125.206L89.4454 120.619C89.5069 120.612 89.5664 120.593 89.6206 120.563C89.6747 120.533 89.7224 120.493 89.761 120.445C89.7996 120.396 89.8283 120.341 89.8454 120.281C89.8625 120.222 89.8678 120.159 89.8609 120.098C89.8539 120.036 89.835 119.977 89.805 119.922C89.7751 119.868 89.7348 119.82 89.6864 119.782C89.638 119.743 89.5825 119.714 89.5231 119.697C89.4636 119.68 89.4014 119.675 89.3399 119.682Z" fill="black"/>
<path d="M112.145 69.9912L105.414 71.2149L96.0586 72.9186L83.8058 75.1504C83.5708 75.1936 83.3296 75.1899 83.096 75.1396C82.8624 75.0892 82.6411 74.9932 82.4446 74.857C82.2481 74.7208 82.0805 74.5471 81.9512 74.3459C81.8219 74.1447 81.7335 73.92 81.6912 73.6845L79.0006 58.8715C78.9159 58.3965 79.0223 57.9073 79.2966 57.5106C79.5709 57.1139 79.9907 56.8419 80.4646 56.7541L87.5912 55.4335L97.9579 53.5494L108.804 51.5728C109.039 51.5296 109.28 51.5333 109.514 51.5837C109.747 51.634 109.969 51.7301 110.165 51.8662C110.362 52.0024 110.529 52.1761 110.658 52.3773C110.788 52.5785 110.876 52.8033 110.918 53.0387L113.609 67.8517C113.655 68.0887 113.654 68.3324 113.605 68.5689C113.557 68.8053 113.461 69.0296 113.325 69.2288C113.189 69.428 113.014 69.5979 112.812 69.7288C112.609 69.8597 112.382 69.9489 112.145 69.9912Z" fill="url(#paint3_linear_1135_9108)"/>
<mask id="mask0_1135_9108" style="mask-type:luminance" maskUnits="userSpaceOnUse" x="78" y="51" width="36" height="25">
<path d="M112.145 69.9912L105.414 71.2149L96.0586 72.9186L83.8058 75.1504C83.5708 75.1936 83.3296 75.1899 83.096 75.1396C82.8624 75.0892 82.6411 74.9932 82.4446 74.857C82.2481 74.7208 82.0805 74.5471 81.9512 74.3459C81.8219 74.1447 81.7335 73.92 81.6912 73.6845L79.0006 58.8715C78.9159 58.3965 79.0223 57.9073 79.2966 57.5106C79.5709 57.1139 79.9907 56.8419 80.4646 56.7541L87.5912 55.4335L97.9579 53.5494L108.804 51.5728C109.039 51.5296 109.28 51.5333 109.514 51.5837C109.747 51.634 109.969 51.7301 110.165 51.8662C110.362 52.0024 110.529 52.1761 110.658 52.3773C110.788 52.5785 110.876 52.8033 110.918 53.0387L113.609 67.8517C113.655 68.0887 113.654 68.3324 113.605 68.5689C113.557 68.8053 113.461 69.0296 113.325 69.2288C113.189 69.428 113.014 69.5979 112.812 69.7288C112.609 69.8597 112.382 69.9489 112.145 69.9912Z" fill="white"/>
</mask>
<g mask="url(#mask0_1135_9108)">
<path opacity="0.3" d="M107.384 60.1573L105.414 71.2154L96.0586 72.919C93.3505 71.726 88.8837 69.6482 87.9912 68.5169C86.9273 67.1963 87.0768 59.4134 87.5912 55.4339L97.9579 53.5498C101.611 56.0722 107.384 60.1573 107.384 60.1573Z" fill="black" fill-opacity="0.7"/>
<path opacity="0.3" d="M85.6655 74.8123L83.8058 75.1513C83.5708 75.1945 83.3296 75.1908 83.096 75.1404C82.8624 75.0901 82.6411 74.9941 82.4446 74.8579C82.2481 74.7217 82.0805 74.548 81.9512 74.3468C81.8219 74.1456 81.7335 73.9209 81.6912 73.6854L79.0006 58.8724C78.9159 58.3974 79.0223 57.9082 79.2966 57.5115C79.5709 57.1148 79.9907 56.8428 80.4646 56.755L82.3199 56.416C81.8463 56.5038 81.4268 56.7759 81.1532 57.1728C80.8796 57.5697 80.7743 58.0589 80.8603 58.5334L83.5509 73.3464C83.5932 73.5819 83.6816 73.8067 83.8109 74.0079C83.9401 74.2091 84.1078 74.3827 84.3043 74.5189C84.5007 74.6551 84.7221 74.7511 84.9557 74.8015C85.1893 74.8518 85.4305 74.8555 85.6655 74.8123Z" fill="black" fill-opacity="0.7"/>
</g>
<path d="M112.145 69.9912L105.414 71.2149L96.0586 72.9186L83.8058 75.1504C83.5708 75.1936 83.3296 75.1899 83.096 75.1396C82.8624 75.0892 82.6411 74.9932 82.4446 74.857C82.2481 74.7208 82.0805 74.5471 81.9512 74.3459C81.8219 74.1447 81.7335 73.92 81.6912 73.6845L79.0006 58.8715C78.9159 58.3965 79.0223 57.9073 79.2966 57.5106C79.5709 57.1139 79.9907 56.8419 80.4646 56.7541L87.5912 55.4335L97.9579 53.5494L108.804 51.5728C109.039 51.5296 109.28 51.5333 109.514 51.5837C109.747 51.634 109.969 51.7301 110.165 51.8662C110.362 52.0024 110.529 52.1761 110.658 52.3773C110.788 52.5785 110.876 52.8033 110.918 53.0387L113.609 67.8517C113.655 68.0887 113.654 68.3324 113.605 68.5689C113.557 68.8053 113.461 69.0296 113.325 69.2288C113.189 69.428 113.014 69.5979 112.812 69.7288C112.609 69.8597 112.382 69.9489 112.145 69.9912Z" stroke="#263238" stroke-linecap="round" stroke-linejoin="round"/>
<path d="M110.146 50.7907L81.9209 55.9815C80.9358 56.1627 80.2839 57.1092 80.4648 58.0956L83.1705 72.8453C83.3514 73.8317 84.2967 74.4845 85.2818 74.3033L113.507 69.1124C114.492 68.9312 115.144 67.9848 114.963 66.9984L112.257 52.2486C112.076 51.2623 111.131 50.6095 110.146 50.7907Z" stroke="#263238" stroke-width="0.996394" stroke-linecap="round" stroke-linejoin="round"/>
<path d="M109.356 52.572L82.7584 57.4119C82.2806 57.4989 81.9637 57.9572 82.0505 58.4356L84.6996 73.0315C84.7865 73.5099 85.2442 73.8273 85.722 73.7403L112.32 68.9004C112.798 68.8135 113.115 68.3552 113.028 67.8768L110.379 53.2808C110.292 52.8024 109.834 52.4851 109.356 52.572Z" stroke="#263238" stroke-linecap="round" stroke-linejoin="round"/>
<path d="M114.005 69.6523L112.158 69.9869C112.63 69.8981 113.047 69.626 113.319 69.2301C113.591 68.8341 113.695 68.3465 113.609 67.8739L110.918 53.0608C110.876 52.8254 110.788 52.6006 110.658 52.3994C110.529 52.1982 110.361 52.0245 110.165 51.8884C109.968 51.7522 109.747 51.6561 109.514 51.6058C109.28 51.5554 109.039 51.5518 108.804 51.5949L110.663 51.256C111.138 51.1712 111.626 51.2777 112.023 51.5524C112.419 51.827 112.69 52.2474 112.778 52.7219L115.469 67.5349C115.553 68.0099 115.447 68.4991 115.173 68.8958C114.898 69.2925 114.478 69.5645 114.005 69.6523Z" stroke="#263238" stroke-linecap="round" stroke-linejoin="round"/>
<path d="M167.478 117.103L149.273 166.001C149.273 166.001 141.658 151.474 134.624 138.03C129.005 127.281 123.756 117.2 123.048 115.716C121.461 112.375 116.04 105.376 116.04 105.376C116.04 105.376 110.479 102.189 107.933 96.6376C105.388 91.0866 102.587 71.2288 102.587 71.2288C102.587 71.2288 95.2761 68.4731 93.5307 67.2669C91.7853 66.0607 90.1938 54.9147 90.1938 53.6425C90.1938 52.3703 91.9524 49.8214 91.9524 49.8214C91.9524 49.8214 91.5611 47.955 93.7945 46.0709C94.5245 45.4708 95.3338 44.9746 96.1993 44.5962H96.2433C96.2433 44.5962 95.9532 40.3834 98.1426 39.1552C98.2471 39.096 98.3558 39.0445 98.4679 39.0011C100.42 38.2484 106.821 37.2755 106.821 37.2755C107.726 36.4793 108.779 35.8704 109.921 35.4838C111.055 35.1713 117.28 36.6196 120.758 37.478C122.156 37.8214 123.11 38.0679 123.11 38.0679C123.11 38.0679 128.992 38.3364 130.104 39.0011C130.88 39.5105 131.589 40.1153 132.215 40.8016L132.325 40.9292C132.325 40.9292 137.57 42.0209 138.682 43.9447C139.794 45.8684 140.269 55.4121 139.478 61.6146C138.686 67.8172 140.106 78.3426 140.106 78.3426C140.106 78.3426 141.746 86.4732 143.017 89.5591C144.287 92.645 167.478 117.103 167.478 117.103Z" fill="white"/>
<path opacity="0.4" d="M111.824 45.7719C111.824 45.7719 114.168 47.5327 114.862 45.7719C115.261 44.8296 115.514 43.8322 115.614 42.8137C115.614 42.8137 116.515 42.3999 117.372 44.5745C118.23 46.7491 126.825 47.3038 128.838 48.4175C130.852 49.5313 131.652 48.4175 131.652 48.4175C132.121 48.8035 132.443 49.3396 132.563 49.9354C132.683 50.5313 132.594 51.1504 132.311 51.6883C131.335 53.7088 134.101 53.8893 135.174 52.4014C136.246 50.9135 135.415 56.6582 132.764 57.2437C132.764 57.2437 132.839 59.7529 131.133 61.4741H132.58C132.58 61.4741 128.728 64.5336 127.704 64.7008C126.68 64.8681 131.516 66.5805 130.619 66.9415C129.722 67.3025 127.181 67.2717 127.181 67.2717C127.181 67.2717 128.825 68.4118 128.838 69.1646C128.852 69.9173 128.06 70.4852 127.704 69.8557C127.348 69.2262 124.508 60.2107 123.092 56.8783C121.677 53.546 115.829 50.9091 111.824 45.7719Z" fill="url(#paint4_linear_1135_9108)"/>
<path opacity="0.4" d="M132.21 40.7708C127.277 39.4194 120.661 37.4957 120.661 37.4957L120.753 37.4473C122.151 37.7906 123.105 38.0371 123.105 38.0371C123.105 38.0371 128.988 38.3057 130.1 38.9704C130.876 39.4797 131.585 40.0846 132.21 40.7708Z" fill="url(#paint5_linear_1135_9108)"/>
<path d="M125.273 48.5406C120.982 47.6602 117.917 51.3316 117.917 51.3316C117.917 51.3316 122.182 55.1966 123.127 56.8562C124.072 58.5158 125.642 64.1108 125.642 64.1108C127.44 64.4014 130.755 62.5437 131.551 57.6133C132.346 52.683 129.542 49.4167 125.273 48.5406Z" fill="url(#paint6_linear_1135_9108)"/>
<path d="M149.273 166.001C149.273 166.001 124.653 119.057 123.048 115.716C121.444 112.375 116.04 105.376 116.04 105.376C116.04 105.376 110.479 102.189 107.933 96.6376C105.388 91.0865 102.587 71.2287 102.587 71.2287C102.587 71.2287 95.2761 68.473 93.5307 67.2668C91.7853 66.0607 90.1938 54.9146 90.1938 53.6424C90.1938 52.3702 91.9524 49.8214 91.9524 49.8214C91.9524 49.8214 91.3193 46.8059 96.2433 44.5741C96.2433 44.5741 95.9268 39.9563 98.4679 38.979C100.42 38.2263 106.821 37.2534 106.821 37.2534C107.726 36.4572 108.779 35.8483 109.921 35.4618C111.508 35.0215 123.11 38.0458 123.11 38.0458C123.11 38.0458 128.992 38.3143 130.104 38.979C130.918 39.5163 131.658 40.157 132.307 40.8851C132.307 40.8851 137.552 41.9768 138.664 43.9006C139.777 45.8243 140.251 55.368 139.46 61.5705C138.669 67.7731 140.089 78.2985 140.089 78.2985C140.089 78.2985 141.729 86.4291 142.999 89.515C144.27 92.6008 167.478 117.103 167.478 117.103" stroke="#263238" stroke-linecap="round" stroke-linejoin="round"/>
<path d="M128.429 70.5815C128.429 70.5815 127.317 70.3438 125.888 65.0921C124.459 59.8405 124.081 57.3841 121.118 54.2718C119.017 52.0708 114.207 48.4743 111.824 45.7714C109.441 43.0685 106.808 40.8851 104.75 42.5579C103.106 43.8785 102.033 47.3077 103.48 52.599C105.339 59.3958 111.204 62.6314 111.204 62.6314L112.637 71.1802C112.637 71.1802 106.417 83.6557 113.429 95.4313" stroke="#263238" stroke-linecap="round" stroke-linejoin="round"/>
<path d="M117.896 51.3314C117.896 51.3314 120.973 47.6645 125.251 48.5405C129.528 49.4165 132.307 52.6785 131.529 57.6132C130.751 62.5479 127.418 64.4012 125.62 64.1107" stroke="#263238" stroke-linecap="round" stroke-linejoin="round"/>
<path d="M106.808 37.2441C106.165 38.8614 105.671 40.5337 105.331 42.2405" stroke="#263238" stroke-linecap="round" stroke-linejoin="round"/>
<path d="M104.205 54.4824C104.205 54.4824 104.574 59.919 105.339 61.5874C106.104 63.2558 107.375 64.6116 107.929 66.7598C108.483 68.9081 108.566 72.2492 108.725 72.7291C108.883 73.2089 109.802 73.3322 109.802 73.3322C111.121 73.363 111.653 72.6762 112.413 71.6286" stroke="#263238" stroke-linecap="round" stroke-linejoin="round"/>
<path d="M96.2566 44.5654C96.2566 44.5654 97.448 56.1781 98.402 61.1129C99.3561 66.0476 101.04 66.7607 103.805 68.3543C106.571 69.9479 108.096 73.1966 108.338 73.6852C108.58 74.1739 109.485 74.2267 109.485 74.2267C110.018 74.1824 110.53 74.0057 110.977 73.7129C111.424 73.42 111.791 73.0201 112.044 72.5495" stroke="#263238" stroke-linecap="round" stroke-linejoin="round"/>
<path d="M91.9568 49.8125C91.6578 50.2747 94.2077 62.0679 95.5354 65.4883C96.8632 68.9088 97.0126 69.4502 100.525 70.4187C104.038 71.3871 106.707 72.9983 107.656 72.4304" stroke="#263238" stroke-linecap="round" stroke-linejoin="round"/>
<path d="M116.353 43.2891C116.353 43.2891 118.177 47.6647 116.972 50.5437" stroke="#263238" stroke-linecap="round" stroke-linejoin="round"/>
<path d="M123.105 38.0361C126.095 39.2197 129.171 40.1719 132.307 40.8843" stroke="#263238" stroke-linecap="round" stroke-linejoin="round"/>
<path d="M135.187 53.1582C135.187 53.1582 133.789 55.7158 131.669 56.2661" stroke="#263238" stroke-linecap="round" stroke-linejoin="round"/>
<path d="M131.665 50.3711C131.665 50.3711 131.164 51.6917 130.632 52.0571" stroke="#263238" stroke-linecap="round" stroke-linejoin="round"/>
<path d="M133.424 60.875C133.424 60.875 130.245 63.2829 127.194 63.908" stroke="#263238" stroke-linecap="round" stroke-linejoin="round"/>
<path d="M125.888 65.0967C125.888 65.0967 127.207 66.7651 130.632 66.9235" stroke="#263238" stroke-linecap="round" stroke-linejoin="round"/>
<path d="M115.601 57.7937C115.601 57.7937 118.713 54.8003 120.489 55.2141" stroke="#263238" stroke-linecap="round" stroke-linejoin="round"/>
<path d="M121.694 58.4014C121.694 58.4014 119.338 60.1622 118.907 60.1622" stroke="#263238" stroke-linecap="round" stroke-linejoin="round"/>
<path d="M97.4304 67.7377C97.4304 67.7377 98.213 67.883 98.8241 66.9365" stroke="#263238" stroke-linecap="round" stroke-linejoin="round"/>
<path d="M100.213 63.4501C100.213 63.4501 102.104 62.2792 103.339 62.0547" stroke="#263238" stroke-linecap="round" stroke-linejoin="round"/>
<path d="M116.867 103.157C117.258 102.81 120.911 99.8514 123.171 98.8037" stroke="#263238" stroke-linecap="round" stroke-linejoin="round"/>
<path d="M121.606 101.757C121.347 101.678 119.272 103.852 118.177 104.724" stroke="#263238" stroke-linecap="round" stroke-linejoin="round"/>
<path d="M122.635 108.207C122.635 108.207 129.594 121.413 131.159 126.696" stroke="#263238" stroke-linecap="round" stroke-linejoin="round"/>
<path d="M143.017 89.5322C143.606 92.7766 145.518 95.1669 146.565 96.4611" stroke="#263238" stroke-linecap="round" stroke-linejoin="round"/>
<path opacity="0.4" d="M121.079 49.8124C120.067 50.4375 121.131 52.4801 121.694 53.5233C122.257 54.5666 124.772 56.2262 125.295 57.7934C125.818 59.3605 129.124 59.3165 130.131 57.7934C131.138 56.2702 131.01 53.2284 128.267 50.9129C125.523 48.5974 122.516 48.932 121.079 49.8124Z" fill="white"/>
<defs>
<linearGradient id="paint0_linear_1135_9108" x1="42.0972" y1="14.7476" x2="44.3191" y2="27.9417" gradientUnits="userSpaceOnUse">
<stop stop-color="#007A65"/>
<stop offset="1" stop-color="#014A37"/>
</linearGradient>
<linearGradient id="paint1_linear_1135_9108" x1="52.9394" y1="21.0101" x2="54.0492" y2="27.5978" gradientUnits="userSpaceOnUse">
<stop stop-color="#007A65"/>
<stop offset="1" stop-color="#014A37"/>
</linearGradient>
<linearGradient id="paint2_linear_1135_9108" x1="97.9147" y1="67.4458" x2="101.212" y2="71.2271" gradientUnits="userSpaceOnUse">
<stop stop-color="#007A65"/>
<stop offset="1" stop-color="#014A37"/>
</linearGradient>
<linearGradient id="paint3_linear_1135_9108" x1="78.3141" y1="51.0943" x2="100.735" y2="83.9806" gradientUnits="userSpaceOnUse">
<stop stop-color="#007A65"/>
<stop offset="1" stop-color="#014A37"/>
</linearGradient>
<linearGradient id="paint4_linear_1135_9108" x1="111.372" y1="42.2632" x2="138.97" y2="66.2884" gradientUnits="userSpaceOnUse">
<stop stop-color="#007A65"/>
<stop offset="1" stop-color="#014A37"/>
</linearGradient>
<linearGradient id="paint5_linear_1135_9108" x1="120.442" y1="37.3842" x2="122.242" y2="43.6395" gradientUnits="userSpaceOnUse">
<stop stop-color="#007A65"/>
<stop offset="1" stop-color="#014A37"/>
</linearGradient>
<linearGradient id="paint6_linear_1135_9108" x1="117.656" y1="48.1056" x2="133.549" y2="62.0109" gradientUnits="userSpaceOnUse">
<stop stop-color="#007A65"/>
<stop offset="1" stop-color="#014A37"/>
</linearGradient>
</defs>
</svg>
