<svg width="180" height="170" viewBox="0 0 180 170" fill="none" xmlns="http://www.w3.org/2000/svg">
<g clip-path="url(#clip0_1178_4525)">
<path fill-rule="evenodd" clip-rule="evenodd" d="M7.08435 104.702C7.04519 84.4159 16.5073 65.3871 31.1151 51.3418C45.404 37.6029 64.6892 33.0476 84.3207 30.4388C108.199 27.2656 136.696 17.9385 153.679 35.0542C170.652 52.1608 164.42 81.3356 157.848 104.542C152.928 121.912 136.597 131.361 123.036 143.252C110.967 153.834 100.305 166.352 84.4676 168.884C65.8996 171.853 45.8054 169.931 31.3208 157.918C15.7375 144.993 7.12348 124.972 7.08435 104.702Z" fill="#C4C4C4"/>
<path d="M20.5818 3.58073C20.016 3.07519 19.325 2.73035 18.5808 2.58201C17.8366 2.43367 17.0663 2.48725 16.3498 2.73718C13.8143 3.58073 11.3847 7.24533 11.9979 10.3476C12.4266 12.4956 14.4182 15.6624 15.0221 16.8701C15.626 18.0778 14.7778 20.1198 12.86 24.3606C10.9422 28.6014 10.2 32.5795 15.7597 36.0827C21.3195 39.586 27.6122 34.0269 30.8393 30.0396C34.0663 26.0523 28.419 16.8701 27.9349 12.9842C27.4509 9.09837 26.621 1.64933 20.5818 3.58073Z" fill="#263238"/>
<path d="M33.6515 30.3066C32.2681 31.6906 30.5966 32.7526 28.7559 33.4171C26.9153 34.0816 24.9508 34.3322 23.0022 34.151L21.6699 39.7055L24.2055 52.3864L40.7602 43.808L37.0122 34.128L33.6515 30.3066Z" fill="#FCC466" stroke="#263238" stroke-linecap="round" stroke-linejoin="round"/>
<path d="M33.6511 30.307L31.1155 13.5098L23.6011 15.0494L19.8531 17.4648C19.8531 17.4648 15.3813 20.9726 15.3813 21.3322C15.3813 21.6917 22.9465 34.3496 22.9465 34.3496C24.9147 34.466 26.8854 34.1662 28.7299 33.4696C30.5744 32.773 32.2513 31.6954 33.6511 30.307Z" fill="white"/>
<path d="M33.6511 30.307L31.1155 13.5098L23.6011 15.0494L19.8531 17.4648C19.8531 17.4648 15.3813 20.9726 15.3813 21.3322C15.3813 21.6917 22.9465 34.3496 22.9465 34.3496C24.9147 34.466 26.8854 34.1662 28.7299 33.4696C30.5744 32.773 32.2513 31.6954 33.6511 30.307Z" stroke="#263238" stroke-linecap="round" stroke-linejoin="round"/>
<path opacity="0.5" d="M23.5686 29.588C23.5686 29.588 28.8656 25.6607 28.3769 26.8223C27.8883 27.9839 24.2279 30.8833 23.2459 30.9709C22.264 31.0584 23.5686 29.588 23.5686 29.588Z" fill="#FCC466"/>
<path d="M23.7305 22.1292L23.9379 22.3459L25.2287 23.7103L25.5607 28.9514L27.1419 28.7024L25.8926 23.7933L27.8934 27.9511L29.5576 26.287L25.9802 23.0419L25.8926 20.4652L24.0624 19.5479" fill="#263238"/>
<path d="M20.8215 15.9067C20.8215 15.9067 19.2495 16.6304 19.2495 18.0778C19.2495 19.5252 20.9506 22.9685 22.0156 23.6922C23.0805 24.4159 24.9061 21.1017 24.9061 21.1017C24.9061 21.1017 27.6721 22.4292 28.4097 21.2215C29.1473 20.0138 26.7178 16.0265 25.1504 14.9387C23.583 13.8508 20.8215 15.9067 20.8215 15.9067Z" fill="white" stroke="#263238" stroke-linecap="round" stroke-linejoin="round"/>
<path d="M19.4937 14.4551C19.9259 15.5594 20.2892 16.6893 20.5816 17.8385C20.8214 19.0462 24.0853 21.1021 24.4449 21.2219C24.8045 21.3418 25.0488 17.3545 25.0488 17.3545L24.0853 12.6436L19.4937 14.4551Z" fill="white"/>
<mask id="mask0_1178_4525" style="mask-type:luminance" maskUnits="userSpaceOnUse" x="19" y="12" width="7" height="10">
<path d="M19.4937 14.4551C19.9259 15.5594 20.2892 16.6893 20.5816 17.8385C20.8214 19.0462 24.0853 21.1021 24.4449 21.2219C24.8045 21.3418 25.0488 17.3545 25.0488 17.3545L24.0853 12.6436L19.4937 14.4551Z" fill="white"/>
</mask>
<g mask="url(#mask0_1178_4525)">
<g style="mix-blend-mode:multiply" opacity="0.5">
<path d="M24.1866 13.1457C23.9839 13.0888 23.7775 13.0457 23.5689 13.0166L20.2358 14.192L19.7979 15.3352C20.0191 15.9529 20.3003 16.7826 20.4709 17.4556C21.0174 17.8961 21.6776 18.1726 22.3749 18.2531C23.3753 18.3222 24.2558 17.5478 24.8782 16.5982L24.1866 13.1457Z" fill="#FCC466"/>
</g>
</g>
<path d="M19.4937 14.4551C19.9259 15.5594 20.2892 16.6893 20.5816 17.8385C20.8214 19.0462 24.0853 21.1021 24.4449 21.2219C24.8045 21.3418 25.0488 17.3545 25.0488 17.3545L24.0853 12.6436L19.4937 14.4551Z" stroke="#263238" stroke-linecap="round" stroke-linejoin="round"/>
<path d="M17.3177 12.3984C17.3177 12.3984 15.9854 11.3152 15.9854 12.3984C15.9854 13.4817 17.1978 14.0901 18.1613 14.0901" fill="white"/>
<path d="M17.3177 12.3984C17.3177 12.3984 15.9854 11.3152 15.9854 12.3984C15.9854 13.4817 17.1978 14.0901 18.1613 14.0901" stroke="#263238" stroke-linecap="round" stroke-linejoin="round"/>
<path d="M24.4448 8.89563C24.4448 8.89563 25.2931 7.56807 25.5328 9.02008C25.6432 9.96535 25.3839 10.9167 24.809 11.6752L24.4448 8.89563Z" fill="white" stroke="#263238" stroke-linecap="round" stroke-linejoin="round"/>
<g opacity="0.5">
<path d="M17.3177 12.3984C17.3177 12.3984 15.9854 11.3152 15.9854 12.3984C15.9854 13.4817 17.1978 14.0901 18.1613 14.0901" fill="#FCC466"/>
<path d="M17.3177 12.3984C17.3177 12.3984 15.9854 11.3152 15.9854 12.3984C15.9854 13.4817 17.1978 14.0901 18.1613 14.0901" stroke="#263238" stroke-linecap="round" stroke-linejoin="round"/>
</g>
<path opacity="0.5" d="M24.4448 8.89563C24.4448 8.89563 25.2931 7.56807 25.5328 9.02008C25.6432 9.96535 25.3839 10.9167 24.809 11.6752L24.4448 8.89563Z" fill="#FCC466" stroke="#263238" stroke-linecap="round" stroke-linejoin="round"/>
<path d="M15.8193 8.90535C15.8193 8.90535 16.8566 13.2245 19.0833 15.3587C21.3099 17.493 23.6933 17.5114 24.5185 13.7085C25.1962 10.574 23.5136 6.39314 23.5136 6.39314C23.5136 6.39314 18.0829 1.92186 15.8193 8.90535Z" fill="white"/>
<mask id="mask1_1178_4525" style="mask-type:luminance" maskUnits="userSpaceOnUse" x="15" y="4" width="10" height="13">
<path d="M15.8193 8.90535C15.8193 8.90535 16.8566 13.2245 19.0833 15.3587C21.3099 17.493 23.6933 17.5114 24.5185 13.7085C25.1962 10.574 23.5136 6.39314 23.5136 6.39314C23.5136 6.39314 18.0829 1.92186 15.8193 8.90535Z" fill="white"/>
</mask>
<g mask="url(#mask1_1178_4525)">
<g style="mix-blend-mode:multiply" opacity="0.5">
<path d="M19.6875 4.98627L20.5311 7.10667C20.5311 7.10667 21.8588 6.81166 22.6057 8.41579C23.3525 10.0199 24.104 12.3708 23.6752 14.1916C23.2649 15.9248 22.2922 16.4963 20.7939 16.5378C22.4259 17.2339 23.9057 16.5378 24.5189 13.6983C25.1965 10.5638 23.5139 6.38297 23.5139 6.38297C23.5139 6.38297 21.6744 4.87564 19.6875 4.98627Z" fill="#FCC466"/>
</g>
</g>
<path d="M15.8193 8.90535C15.8193 8.90535 16.8566 13.2245 19.0833 15.3587C21.3099 17.493 23.6933 17.5114 24.5185 13.7085C25.1962 10.574 23.5136 6.39314 23.5136 6.39314C23.5136 6.39314 18.0829 1.92186 15.8193 8.90535Z" stroke="#263238" stroke-linecap="round" stroke-linejoin="round"/>
<path d="M19.941 11.1862C20.0701 11.4305 20.047 11.6932 19.8903 11.7762C19.7335 11.8592 19.503 11.7255 19.3786 11.4812C19.2541 11.2369 19.2725 10.9787 19.4293 10.8958C19.586 10.8128 19.8165 10.9465 19.941 11.1862Z" fill="#263238"/>
<path d="M22.3478 10.4405C22.44 10.6987 22.38 10.9568 22.2141 11.0121C22.0481 11.0674 21.836 10.9107 21.7531 10.6526C21.6701 10.3944 21.7208 10.1363 21.8868 10.081C22.0527 10.0257 22.2556 10.1916 22.3478 10.4405Z" fill="#263238"/>
<path d="M22.5135 9.05714C22.3251 8.93062 22.1005 8.86933 21.8741 8.88265C21.6476 8.89597 21.4317 8.98317 21.2595 9.13089C20.5957 9.64717 21.8496 12.2331 21.8496 12.2331C21.8496 12.2331 21.8727 13.049 20.8262 12.671" stroke="#263238" stroke-width="0.5" stroke-linecap="round" stroke-linejoin="round"/>
<path d="M22.5135 13.5098C22.4417 13.6795 22.3314 13.8303 22.1913 13.9501C22.0513 14.0699 21.8853 14.1556 21.7065 14.2003C21.5276 14.245 21.3409 14.2475 21.1609 14.2077C20.9809 14.1678 20.8127 14.0867 20.6694 13.9707" stroke="#263238" stroke-width="0.5" stroke-linecap="round" stroke-linejoin="round"/>
<path d="M19.7058 9.74286C19.7058 9.74286 18.5256 8.63196 18.0093 10.7754" stroke="#263238" stroke-width="0.5" stroke-linecap="round" stroke-linejoin="round"/>
<path d="M23.5831 5.02345C22.2876 3.89871 21.2411 3.91254 20.7847 4.06005C20.3575 3.79351 19.8717 3.63527 19.3694 3.59909C15.7459 3.11509 15.2619 5.90387 15.2619 8.55437C15.2619 11.2049 12.9568 14.3532 14.5381 14.7173C14.9708 14.8212 15.4263 14.769 15.8244 14.57C16.2224 14.371 16.5375 14.0379 16.714 13.6295C16.714 13.6295 18.4059 10.8638 18.4059 8.91392C18.4059 6.96407 20.5128 7.14845 20.5128 7.14845C20.6037 7.01419 20.7226 6.90118 20.8614 6.81717C21.0001 6.73317 21.1554 6.68015 21.3165 6.66176C21.4776 6.64337 21.6409 6.66005 21.7949 6.71063C21.949 6.76122 22.0904 6.84453 22.2093 6.95485C23.1681 7.77535 23.2788 8.73875 24.0533 8.98767C24.8278 9.23658 26.1232 7.992 26.1232 7.992C25.3853 6.91439 24.5336 5.91916 23.5831 5.02345Z" fill="#263238"/>
<path d="M20.614 5.74708C20.614 5.74708 19.1572 4.57625 17.848 5.88998C16.5387 7.2037 16.6816 9.68825 16.2437 11.297C15.8057 12.9057 14.6348 13.1961 14.6348 13.1961" stroke="white" stroke-width="0.5" stroke-linecap="round" stroke-linejoin="round"/>
<path d="M19.5952 5.30975C19.5952 5.30975 18.0232 3.75171 16.0455 5.7246C14.538 7.23654 15.2111 8.2276 14.916 10.7121" stroke="white" stroke-width="0.5" stroke-linecap="round" stroke-linejoin="round"/>
<path d="M21.3472 5.01369C21.3472 5.01369 24.1132 3.69997 25.2934 7.06034" stroke="white" stroke-width="0.5" stroke-linecap="round" stroke-linejoin="round"/>
<path d="M15.3815 21.3418L11.2002 38.1667L23.463 41.6423L24.0669 39.4666L16.0131 35.7513L18.7469 26.0712C18.7469 26.0712 18.3873 24.2596 16.4418 22.2084" fill="white"/>
<mask id="mask2_1178_4525" style="mask-type:luminance" maskUnits="userSpaceOnUse" x="11" y="21" width="14" height="21">
<path d="M15.3815 21.3418L11.2002 38.1667L23.463 41.6423L24.0669 39.4666L16.0131 35.7513L18.7469 26.0712C18.7469 26.0712 18.3873 24.2596 16.4418 22.2084" fill="white"/>
</mask>
<g mask="url(#mask2_1178_4525)">
<g style="mix-blend-mode:multiply" opacity="0.5">
<path d="M24.0854 39.4805L16.0316 35.7652L18.7654 26.0851C18.5512 25.2815 18.2037 24.5196 17.7373 23.831L17.4745 23.6328V26.3064C17.4745 28.0165 15.3355 33.4696 14.584 34.7511C13.8326 36.0325 12.6616 37.6367 12.6616 37.6367L15.0128 36.5672L23.924 40.135L24.0854 39.4805Z" fill="#FCC466"/>
</g>
</g>
<path d="M15.3815 21.3418L11.2002 38.1667L23.463 41.6423L24.0669 39.4666L16.0131 35.7513L18.7469 26.0712C18.7469 26.0712 18.3873 24.2596 16.4418 22.2084" stroke="#263238" stroke-linecap="round" stroke-linejoin="round"/>
<path d="M49.8604 26.3931L40.5757 24.4432L31.0928 13.4863L32.4942 22.2998L38.3122 27.8405L50.0033 28.3752L49.8604 26.3931Z" fill="white"/>
<mask id="mask3_1178_4525" style="mask-type:luminance" maskUnits="userSpaceOnUse" x="31" y="13" width="20" height="16">
<path d="M49.8604 26.3931L40.5757 24.4432L31.0928 13.4863L32.4942 22.2998L38.3122 27.8405L50.0033 28.3752L49.8604 26.3931Z" fill="white"/>
</mask>
<g mask="url(#mask3_1178_4525)">
<g style="mix-blend-mode:multiply" opacity="0.5">
<path d="M31.0928 13.4863L32.2222 20.5205L32.9414 22.7193L33.0336 22.8022C33.3056 22.5211 34.8408 20.9262 35.2326 20.9262C35.6245 20.9262 40.0455 24.7751 39.4047 25.0748L38.7593 25.3928L49.7728 27.209L49.8512 26.3654L40.5849 24.4202L31.0928 13.4863Z" fill="#FCC466"/>
</g>
</g>
<path d="M49.8604 26.3931L40.5757 24.4432L31.0928 13.4863L32.4942 22.2998L38.3122 27.8405L50.0033 28.3752L49.8604 26.3931Z" stroke="#263238" stroke-linecap="round" stroke-linejoin="round"/>
<path d="M136.534 119.686L18.2998 102.363C17.924 102.308 17.5856 102.105 17.3591 101.8C17.1326 101.495 17.0366 101.112 17.092 100.736L26.9391 33.5703C26.9662 33.3844 27.0297 33.2056 27.1259 33.0443C27.2222 32.8829 27.3493 32.7421 27.5 32.63C27.6507 32.5178 27.8221 32.4364 28.0043 32.3905C28.1865 32.3447 28.376 32.3352 28.5619 32.3626L30.8024 32.6899C31.0862 32.7324 31.3762 32.6883 31.6345 32.5633C31.8928 32.4383 32.1073 32.2382 32.2499 31.9892L35.2234 26.8495C35.3137 26.6882 35.4361 26.547 35.583 26.4347C36.2791 25.9314 37.1442 25.7197 37.9941 25.8447L67.7982 30.2145C68.4668 30.3105 69.0897 30.6098 69.5823 31.0719C69.7137 31.2035 69.8172 31.3603 69.8866 31.5329L72.5374 38.0969C72.6304 38.329 72.7828 38.5326 72.9795 38.6872C73.1761 38.8417 73.41 38.9418 73.6576 38.9773L146.796 49.6991C147.172 49.7539 147.511 49.9555 147.738 50.2597C147.966 50.5639 148.063 50.9458 148.009 51.3217L138.162 118.483C138.105 118.858 137.902 119.195 137.597 119.421C137.292 119.646 136.91 119.742 136.534 119.686Z" fill="#263238" stroke="#263238" stroke-miterlimit="10"/>
<path d="M137.793 119.359H20.6001C20.2599 119.359 19.923 119.292 19.6087 119.162C19.2943 119.032 19.0087 118.841 18.7681 118.6C18.5275 118.36 18.3367 118.074 18.2065 117.76C18.0763 117.445 18.0093 117.109 18.0093 116.768V51.2021C18.0093 50.515 18.2822 49.8561 18.7681 49.3702C19.254 48.8844 19.913 48.6115 20.6001 48.6115H20.9182C21.4369 48.6105 21.9435 48.4546 22.3731 48.1639C22.8026 47.8732 23.1356 47.4608 23.3293 46.9797L25.1134 42.4946C25.3128 41.9769 25.6774 41.5395 26.1507 41.25C26.6591 40.9499 27.2383 40.7908 27.8287 40.7891H57.951C58.3558 40.7886 58.7573 40.8621 59.1358 41.0057C59.6615 41.2176 60.1002 41.6009 60.3805 42.0936L63.4462 47.3162C63.6746 47.7063 64.0012 48.0298 64.3935 48.2546C64.7857 48.4794 65.23 48.5977 65.6821 48.5977H137.793C138.48 48.5977 139.139 48.8706 139.625 49.3564C140.111 49.8422 140.384 50.5012 140.384 51.1882V116.768C140.384 117.109 140.317 117.445 140.186 117.76C140.056 118.074 139.865 118.36 139.625 118.6C139.384 118.841 139.099 119.032 138.784 119.162C138.47 119.292 138.133 119.359 137.793 119.359Z" fill="#FCC466"/>
<mask id="mask4_1178_4525" style="mask-type:luminance" maskUnits="userSpaceOnUse" x="18" y="40" width="123" height="80">
<path d="M137.793 119.359H20.6001C20.2599 119.359 19.923 119.292 19.6087 119.162C19.2943 119.032 19.0087 118.841 18.7681 118.6C18.5275 118.36 18.3367 118.074 18.2065 117.76C18.0763 117.445 18.0093 117.109 18.0093 116.768V51.2021C18.0093 50.515 18.2822 49.8561 18.7681 49.3702C19.254 48.8844 19.913 48.6115 20.6001 48.6115H20.9182C21.4369 48.6105 21.9435 48.4546 22.3731 48.1639C22.8026 47.8732 23.1356 47.4608 23.3293 46.9797L25.1134 42.4946C25.3128 41.9769 25.6774 41.5395 26.1507 41.25C26.6591 40.9499 27.2383 40.7908 27.8287 40.7891H57.951C58.3558 40.7886 58.7573 40.8621 59.1358 41.0057C59.6615 41.2176 60.1002 41.6009 60.3805 42.0936L63.4462 47.3162C63.6746 47.7063 64.0012 48.0298 64.3935 48.2546C64.7857 48.4794 65.23 48.5977 65.6821 48.5977H137.793C138.48 48.5977 139.139 48.8706 139.625 49.3564C140.111 49.8422 140.384 50.5012 140.384 51.1882V116.768C140.384 117.109 140.317 117.445 140.186 117.76C140.056 118.074 139.865 118.36 139.625 118.6C139.384 118.841 139.099 119.032 138.784 119.162C138.47 119.292 138.133 119.359 137.793 119.359Z" fill="white"/>
</mask>
<g mask="url(#mask4_1178_4525)">
<path opacity="0.1" d="M137.793 119.359H20.6001C20.2599 119.359 19.923 119.292 19.6087 119.162C19.2943 119.032 19.0087 118.841 18.7681 118.6C18.5275 118.36 18.3367 118.074 18.2065 117.76C18.0763 117.445 18.0093 117.109 18.0093 116.768V51.2021C18.0093 50.515 18.2822 49.8561 18.7681 49.3702C19.254 48.8844 19.913 48.6115 20.6001 48.6115H20.9182C21.4369 48.6105 21.9435 48.4546 22.3731 48.1639C22.8026 47.8732 23.1356 47.4608 23.3293 46.9797L25.1134 42.4946C25.3128 41.9769 25.6774 41.5395 26.1507 41.25C26.6591 40.9499 27.2383 40.7908 27.8287 40.7891H57.951C58.3558 40.7886 58.7573 40.8621 59.1358 41.0057C59.6615 41.2176 60.1002 41.6009 60.3805 42.0936L63.4462 47.3162C63.6746 47.7063 64.0012 48.0298 64.3935 48.2546C64.7857 48.4794 65.23 48.5977 65.6821 48.5977H137.793C138.48 48.5977 139.139 48.8706 139.625 49.3564C140.111 49.8422 140.384 50.5012 140.384 51.1882V116.768C140.384 117.109 140.317 117.445 140.186 117.76C140.056 118.074 139.865 118.36 139.625 118.6C139.384 118.841 139.099 119.032 138.784 119.162C138.47 119.292 138.133 119.359 137.793 119.359Z" fill="#263238"/>
</g>
<path d="M51.1232 48.3905H32.3694C31.9219 48.3905 31.4928 48.2128 31.1763 47.8964C30.8599 47.58 30.6821 47.1509 30.6821 46.7034C30.6815 46.4815 30.7247 46.2616 30.8092 46.0564C30.8938 45.8512 31.018 45.6646 31.1747 45.5075C31.3314 45.3503 31.5176 45.2257 31.7227 45.1406C31.9277 45.0555 32.1475 45.0117 32.3694 45.0117H51.1232C51.5719 45.0117 52.0023 45.19 52.3196 45.5072C52.6368 45.8245 52.8151 46.2548 52.8151 46.7034C52.8151 46.9254 52.7713 47.1451 52.6862 47.3501C52.6011 47.5551 52.4764 47.7413 52.3193 47.898C52.1621 48.0547 51.9756 48.1789 51.7703 48.2634C51.5651 48.3479 51.3452 48.3911 51.1232 48.3905Z" fill="white"/>
<path d="M137.793 130.801H20.6001C19.913 130.801 19.254 130.528 18.7681 130.042C18.2822 129.556 18.0093 128.897 18.0093 128.21V62.6437C18.0093 61.9567 18.2822 61.2978 18.7681 60.8119C19.254 60.3261 19.913 60.0532 20.6001 60.0532H20.9182C21.4371 60.0528 21.9439 59.8971 22.3736 59.6063C22.8033 59.3155 23.1361 58.9029 23.3293 58.4214L25.1134 53.9409C25.3116 53.4225 25.6765 52.9847 26.1507 52.6963C26.6583 52.3943 27.2381 52.235 27.8287 52.2354H57.951C58.3558 52.2349 58.7573 52.3083 59.1358 52.452C59.6628 52.6641 60.1018 53.0494 60.3805 53.5445L63.4462 58.7717C63.6746 59.1618 64.0012 59.4853 64.3935 59.7101C64.7857 59.9349 65.23 60.0532 65.6821 60.0532H137.793C138.48 60.0532 139.139 60.3261 139.625 60.8119C140.111 61.2978 140.384 61.9567 140.384 62.6437V128.21C140.384 128.897 140.111 129.556 139.625 130.042C139.139 130.528 138.48 130.801 137.793 130.801Z" fill="#263238" stroke="#263238" stroke-miterlimit="10"/>
<path d="M60.1085 34.8704L41.5023 32.5656C41.0579 32.5092 40.6538 32.2793 40.3783 31.9261C40.1028 31.5729 39.9782 31.125 40.0317 30.6803C40.088 30.2354 40.3188 29.831 40.6732 29.5561C41.0277 29.2813 41.4768 29.1584 41.9218 29.2145L60.5235 31.5192C60.9684 31.5745 61.3732 31.8041 61.6489 32.1576C61.9247 32.5111 62.0488 32.9596 61.9941 33.4046C61.9667 33.6247 61.8962 33.8372 61.7866 34.0301C61.677 34.2229 61.5305 34.3923 61.3553 34.5284C61.1802 34.6646 60.9799 34.7649 60.766 34.8236C60.552 34.8822 60.3286 34.8981 60.1085 34.8704Z" fill="#FCC466"/>
<path d="M51.1237 59.8356H32.3699C32.1479 59.8356 31.9282 59.7918 31.7231 59.7067C31.5181 59.6216 31.3319 59.4969 31.1752 59.3398C31.0184 59.1826 30.8943 58.9961 30.8097 58.7909C30.7252 58.5857 30.682 58.3658 30.6826 58.1439C30.6826 57.696 30.8602 57.2664 31.1765 56.9493C31.4928 56.6321 31.922 56.4534 32.3699 56.4521H51.1237C51.5724 56.4521 52.0028 56.6304 52.32 56.9476C52.6373 57.2649 52.8156 57.6952 52.8156 58.1439C52.8156 58.5925 52.6373 59.0228 52.32 59.3401C52.0028 59.6573 51.5724 59.8356 51.1237 59.8356Z" fill="#FCC466"/>
<path d="M141.624 79.7715H16.7645C15.4227 79.7715 14.335 80.8591 14.335 82.2007V157.747C14.335 159.088 15.4227 160.176 16.7645 160.176H141.624C142.965 160.176 144.053 159.088 144.053 157.747V82.2007C144.053 80.8591 142.965 79.7715 141.624 79.7715Z" fill="white"/>
<mask id="mask5_1178_4525" style="mask-type:luminance" maskUnits="userSpaceOnUse" x="14" y="79" width="131" height="82">
<path d="M141.624 79.7715H16.7645C15.4227 79.7715 14.335 80.8591 14.335 82.2007V157.747C14.335 159.088 15.4227 160.176 16.7645 160.176H141.624C142.965 160.176 144.053 159.088 144.053 157.747V82.2007C144.053 80.8591 142.965 79.7715 141.624 79.7715Z" fill="white"/>
</mask>
<g mask="url(#mask5_1178_4525)">
<g style="mix-blend-mode:multiply">
<path d="M144.053 101.413C129.674 114.85 113.337 126.025 95.6012 134.556C69.3929 147.089 39.4367 155.728 21.9829 160.176H141.619C141.938 160.176 142.255 160.114 142.55 159.992C142.845 159.87 143.114 159.692 143.34 159.466C143.566 159.24 143.745 158.972 143.868 158.677C143.99 158.382 144.053 158.066 144.053 157.747V101.413Z" fill="#007A65"/>
</g>
<path opacity="0.2" d="M144.053 101.413C129.674 114.85 113.337 126.025 95.6012 134.556C69.3929 147.089 39.4367 155.728 21.9829 160.176H141.619C141.938 160.176 142.255 160.114 142.55 159.992C142.845 159.87 143.114 159.692 143.34 159.466C143.566 159.24 143.745 158.972 143.868 158.677C143.99 158.382 144.053 158.066 144.053 157.747V101.413Z" fill="white"/>
</g>
<path d="M141.624 79.7715H16.7645C15.4227 79.7715 14.335 80.8591 14.335 82.2007V157.747C14.335 159.088 15.4227 160.176 16.7645 160.176H141.624C142.965 160.176 144.053 159.088 144.053 157.747V82.2007C144.053 80.8591 142.965 79.7715 141.624 79.7715Z" stroke="#263238" stroke-miterlimit="10"/>
<path d="M16.2114 86.8346V83.6079C16.2126 82.9632 16.4696 82.3454 16.926 81.8899C17.3823 81.4345 18.0008 81.1787 18.6455 81.1787H23.9241" stroke="#263238" stroke-miterlimit="10"/>
<path d="M16.2114 135.838V90.7656" stroke="#263238" stroke-miterlimit="10"/>
<path d="M142.172 151.216V156.319C142.173 156.638 142.111 156.954 141.989 157.25C141.867 157.545 141.688 157.813 141.462 158.039C141.237 158.265 140.969 158.445 140.674 158.567C140.379 158.689 140.062 158.752 139.743 158.752H135.488" stroke="#263238" stroke-miterlimit="10"/>
<path d="M142.172 85.6992V147.421" stroke="#263238" stroke-miterlimit="10"/>
<path d="M98.478 109.172H59.9055C59.2104 109.172 58.647 109.735 58.647 110.43V130.108C58.647 130.803 59.2104 131.367 59.9055 131.367H98.478C99.1731 131.367 99.7366 130.803 99.7366 130.108V110.43C99.7366 109.735 99.1731 109.172 98.478 109.172Z" fill="#263238" stroke="#263238" stroke-miterlimit="10"/>
<path d="M98.478 109.172H59.9055C59.2104 109.172 58.647 109.735 58.647 110.43V114.662C58.647 115.357 59.2104 115.92 59.9055 115.92H98.478C99.1731 115.92 99.7366 115.357 99.7366 114.662V110.43C99.7366 109.735 99.1731 109.172 98.478 109.172Z" fill="white" stroke="#263238" stroke-miterlimit="10"/>
<path d="M23.4629 41.6418L24.3065 43.2136L26.0999 44.5043C26.2126 44.5871 26.3476 44.6341 26.4874 44.639C26.6272 44.6439 26.7653 44.6066 26.8836 44.532L27.0403 44.4306C27.1543 44.3613 27.2392 44.253 27.2791 44.1257C27.319 43.9984 27.3111 43.861 27.257 43.7391L26.2382 41.3975L26.9251 41.9322C27.0341 42.0162 27.1716 42.0546 27.3084 42.0391C27.4452 42.0236 27.5706 41.9555 27.6581 41.8492C27.734 41.7544 27.7754 41.6365 27.7754 41.515C27.7754 41.3935 27.734 41.2757 27.6581 41.1808L26.0584 39.1572L24.0576 39.4661L23.4629 41.6418Z" fill="white" stroke="#263238" stroke-miterlimit="10"/>
<path d="M27.0589 44.4308L25.4546 42.3242" stroke="#263238" stroke-width="0.5" stroke-linecap="round" stroke-linejoin="round"/>
<path d="M26.1184 44.5036L24.8599 42.835" stroke="#263238" stroke-width="0.5" stroke-linecap="round" stroke-linejoin="round"/>
<path d="M49.8604 26.3936L52.3682 26.5411L55.4201 28.4909C55.4201 28.4909 55.5907 29.0855 55.1666 29.1685C54.7424 29.2515 52.4512 28.4079 52.4512 28.4079L50.0033 28.3757L49.8604 26.3936Z" fill="white" stroke="#263238" stroke-miterlimit="10"/>
<path d="M49.9893 28.066L52.6216 29.2553C52.6216 29.2553 53.0457 28.6607 52.451 28.4071L51.5843 27.8125" fill="white"/>
<path d="M49.9893 28.066L52.6216 29.2553C52.6216 29.2553 53.0457 28.6607 52.451 28.4071L51.5843 27.8125" stroke="#263238" stroke-linejoin="round"/>
<path d="M142.988 73.0189L141.9 69.7646L140.679 68.0913C140.658 68.0608 140.629 68.0377 140.594 68.0257C140.56 68.0138 140.522 68.0136 140.488 68.0251C140.453 68.0367 140.423 68.0594 140.402 68.0897C140.382 68.12 140.372 68.1562 140.374 68.1927V73.0143L141.296 74.2266L142.988 73.0189Z" fill="white"/>
<path d="M160.718 87.2492L151.591 87.5719C151.254 87.5837 150.921 87.4994 150.63 87.3288C150.339 87.1581 150.103 86.9083 149.949 86.6085L142.988 73.0195C142.988 73.0195 141.421 73.8677 141.301 74.2272C141.181 74.5868 146.455 87.8116 148.073 91.8726C148.209 92.2135 148.448 92.5039 148.755 92.7037C149.063 92.9035 149.426 93.0028 149.793 92.9881L159.995 92.5549" fill="white"/>
<path d="M160.718 87.2492L151.591 87.5719C151.254 87.5837 150.921 87.4994 150.63 87.3288C150.339 87.1581 150.103 86.9083 149.949 86.6085L142.988 73.0195C142.988 73.0195 141.421 73.8677 141.301 74.2272C141.181 74.5868 146.455 87.8116 148.073 91.8726C148.209 92.2135 148.448 92.5039 148.755 92.7037C149.063 92.9035 149.426 93.0028 149.793 92.9881L159.995 92.5549" stroke="#263238" stroke-miterlimit="10"/>
<path d="M143.656 74.71L142.227 75.3" stroke="#263238" stroke-width="0.75" stroke-miterlimit="10"/>
<g opacity="0.5">
<path d="M160.718 87.2492L151.591 87.5719C151.254 87.5837 150.921 87.4994 150.63 87.3288C150.339 87.1581 150.103 86.9083 149.949 86.6085L142.988 73.0195C142.988 73.0195 141.421 73.8677 141.301 74.2272C141.181 74.5868 146.455 87.8116 148.073 91.8726C148.209 92.2135 148.448 92.5039 148.755 92.7037C149.063 92.9035 149.426 93.0028 149.793 92.9881L159.995 92.5549" fill="white"/>
<path d="M160.718 87.2492L151.591 87.5719C151.254 87.5837 150.921 87.4994 150.63 87.3288C150.339 87.1581 150.103 86.9083 149.949 86.6085L142.988 73.0195C142.988 73.0195 141.421 73.8677 141.301 74.2272C141.181 74.5868 146.455 87.8116 148.073 91.8726C148.209 92.2135 148.448 92.5039 148.755 92.7037C149.063 92.9035 149.426 93.0028 149.793 92.9881L159.995 92.5549" stroke="#263238" stroke-miterlimit="10"/>
<path d="M143.657 74.7109L142.228 75.301" stroke="#263238" stroke-width="0.75" stroke-miterlimit="10"/>
</g>
<path d="M142.988 73.0189L141.9 69.7646L140.679 68.0913C140.658 68.0608 140.629 68.0377 140.594 68.0257C140.56 68.0138 140.522 68.0136 140.488 68.0251C140.453 68.0367 140.423 68.0594 140.402 68.0897C140.382 68.12 140.372 68.1562 140.374 68.1927V73.0143L141.296 74.2266L142.988 73.0189Z" fill="white"/>
<mask id="mask6_1178_4525" style="mask-type:luminance" maskUnits="userSpaceOnUse" x="140" y="68" width="3" height="7">
<path d="M142.988 73.0189L141.9 69.7646L140.679 68.0913C140.658 68.0608 140.629 68.0377 140.594 68.0257C140.56 68.0138 140.522 68.0136 140.488 68.0251C140.453 68.0367 140.423 68.0594 140.402 68.0897C140.382 68.12 140.372 68.1562 140.374 68.1927V73.0143L141.296 74.2266L142.988 73.0189Z" fill="white"/>
</mask>
<g mask="url(#mask6_1178_4525)">
<path opacity="0.5" d="M142.988 73.0189L141.9 69.7646L140.679 68.0913C140.658 68.0608 140.629 68.0377 140.594 68.0257C140.56 68.0138 140.522 68.0136 140.488 68.0251C140.453 68.0367 140.423 68.0594 140.402 68.0897C140.382 68.12 140.372 68.1562 140.374 68.1927V73.0143L141.296 74.2266L142.988 73.0189Z" fill="white"/>
</g>
<path d="M142.988 73.0189L141.9 69.7646L140.679 68.0913C140.658 68.0608 140.629 68.0377 140.594 68.0257C140.56 68.0138 140.522 68.0136 140.488 68.0251C140.453 68.0367 140.423 68.0594 140.402 68.0897C140.382 68.12 140.372 68.1562 140.374 68.1927V73.0143L141.296 74.2266L142.988 73.0189Z" stroke="#263238" stroke-miterlimit="10"/>
<path d="M163.545 78.661C163.106 79.2165 162.792 79.8593 162.623 80.5463C162.489 81.4313 162.701 84.8378 162.701 84.8378L157.953 85.3725C157.953 85.3725 158.312 81.9107 158.331 81.3345C158.483 80.62 158.785 79.9461 159.219 79.3579C159.652 78.7696 160.206 78.2806 160.843 77.9235C162.475 77.1214 163.863 77.5132 163.545 78.661Z" fill="white"/>
<path d="M163.545 78.661C163.106 79.2165 162.792 79.8593 162.623 80.5463C162.489 81.4313 162.701 84.8378 162.701 84.8378L157.953 85.3725C157.953 85.3725 158.312 81.9107 158.331 81.3345C158.483 80.62 158.785 79.9461 159.219 79.3579C159.652 78.7696 160.206 78.2806 160.843 77.9235C162.475 77.1214 163.863 77.5132 163.545 78.661Z" stroke="#263238" stroke-width="1.00396" stroke-miterlimit="10"/>
<path d="M164.531 79.2473C168.468 74.0477 158.976 68.6453 156.482 73.8126C156.134 74.4498 155.859 75.1239 155.661 75.8224C155.283 76.0528 154.278 76.6705 154.094 76.8411C153.909 77.0116 154.555 77.4495 154.91 77.6662C154.232 79.3302 154.333 81.0819 154.527 81.4783C154.863 82.1605 156.523 82.1697 157.616 81.9669C158.708 81.7641 159.142 80.7177 159.46 80.4319C159.778 80.1461 161.364 80.5103 161.921 80.6762C162.479 80.8422 163.765 80.2752 164.531 79.2473Z" fill="white"/>
<mask id="mask7_1178_4525" style="mask-type:luminance" maskUnits="userSpaceOnUse" x="154" y="71" width="12" height="12">
<path d="M164.531 79.2473C168.468 74.0477 158.976 68.6453 156.482 73.8126C156.134 74.4498 155.859 75.1239 155.661 75.8224C155.283 76.0528 154.278 76.6705 154.094 76.8411C153.909 77.0116 154.555 77.4495 154.91 77.6662C154.232 79.3302 154.333 81.0819 154.527 81.4783C154.863 82.1605 156.523 82.1697 157.616 81.9669C158.708 81.7641 159.142 80.7177 159.46 80.4319C159.778 80.1461 161.364 80.5103 161.921 80.6762C162.479 80.8422 163.765 80.2752 164.531 79.2473Z" fill="white"/>
</mask>
<g mask="url(#mask7_1178_4525)">
<g style="mix-blend-mode:multiply" opacity="0.5">
<path d="M160.635 78.749C160.635 78.749 160.718 79.1408 159.925 79.4589C159.132 79.777 158.975 79.5373 158.74 80.0904C158.64 80.4541 158.438 80.7816 158.158 81.034C157.878 81.2865 157.531 81.4533 157.159 81.5148C156.408 81.6573 155.649 81.7543 154.886 81.8052C155.513 82.1555 156.758 82.1278 157.652 81.9665C158.74 81.7683 159.178 80.7173 159.496 80.4315C159.814 80.1457 161.4 80.5099 161.958 80.6758C162.089 80.7019 162.224 80.7019 162.355 80.6758C162.563 80.2126 162.687 79.7165 162.723 79.21L160.635 78.749Z" fill="#FCC466"/>
</g>
</g>
<path d="M164.531 79.2473C168.468 74.0477 158.976 68.6453 156.482 73.8126C156.134 74.4498 155.859 75.1239 155.661 75.8224C155.283 76.0528 154.278 76.6705 154.094 76.8411C153.909 77.0116 154.555 77.4495 154.91 77.6662C154.232 79.3302 154.333 81.0819 154.527 81.4783C154.863 82.1605 156.523 82.1697 157.616 81.9669C158.708 81.7641 159.142 80.7177 159.46 80.4319C159.778 80.1461 161.364 80.5103 161.921 80.6762C162.479 80.8422 163.765 80.2752 164.531 79.2473Z" stroke="#263238" stroke-miterlimit="10"/>
<path d="M156.841 76.2781C156.74 76.4994 156.569 76.6377 156.459 76.587C156.348 76.5362 156.339 76.315 156.459 76.0937C156.578 75.8725 156.731 75.7342 156.841 75.7849C156.952 75.8356 156.943 76.0569 156.841 76.2781Z" fill="#263238"/>
<path d="M156.749 74.8581C156.749 74.8581 157.21 74.4755 157.302 75.3559" stroke="#263238" stroke-width="0.5" stroke-linecap="round" stroke-linejoin="round"/>
<path d="M154.818 78.5605C154.818 78.5605 154.818 79.0215 155.648 79.0215" stroke="#263238" stroke-width="0.5" stroke-linecap="round" stroke-linejoin="round"/>
<path d="M153.693 108.725L153.328 113.233C153.328 113.233 150.807 131.182 150.927 133.243C151.046 135.303 151.318 156.59 151.318 156.59L154.356 157.074L157.768 133.464L162.558 109.471L153.693 108.725Z" fill="#FCC466" stroke="#263238" stroke-miterlimit="10"/>
<path d="M157.537 125.121C157.537 125.121 156.371 131.985 155.491 135.35C154.61 138.715 154.615 142.07 154.615 145.721C154.615 149.372 153.301 156.102 153.301 156.102" stroke="#263238" stroke-width="0.75" stroke-miterlimit="10"/>
<path d="M159.856 107.618C161.857 106.567 164.005 105.871 164.618 107.268C165.836 110.061 164.379 114.307 164.379 114.307L165.49 133.888L167.523 157.512L164.485 157.024C164.485 157.024 159.819 137.087 159.091 135.87C158.363 134.653 157.215 117.584 157.215 117.584L154.91 115.487" fill="#FCC466"/>
<path d="M159.856 107.618C161.857 106.567 164.005 105.871 164.618 107.268C165.836 110.061 164.379 114.307 164.379 114.307L165.49 133.888L167.523 157.512L164.485 157.024C164.485 157.024 159.819 137.087 159.091 135.87C158.363 134.653 157.215 117.584 157.215 117.584L154.91 115.487" stroke="#263238" stroke-miterlimit="10"/>
<path d="M162.226 122.451C162.295 126.992 162.756 129.177 163.116 130.375C163.554 131.836 163.406 134.611 163.406 135.906C163.406 137.202 162.821 135.616 164.139 141.608C165.458 147.601 166.329 155.926 166.329 155.926" stroke="#263238" stroke-width="0.75" stroke-miterlimit="10"/>
<path d="M162.226 112.555C162.226 112.555 162.369 112.26 162.226 119.128C162.226 119.497 162.226 119.852 162.226 120.197" stroke="#263238" stroke-width="0.75" stroke-miterlimit="10"/>
<path d="M155.481 111.251L155.385 113.307L154.91 114.736L155.62 115.566" stroke="#263238" stroke-width="0.75" stroke-linecap="round" stroke-linejoin="round"/>
<path d="M154.55 112.477C154.55 112.477 155.74 113.666 158.828 113.306" stroke="#263238" stroke-width="0.75" stroke-linecap="round" stroke-linejoin="round"/>
<path d="M161.848 111.449C164.153 110.988 164.301 110.352 165.098 109.817C165.113 108.945 164.957 108.079 164.637 107.268C164.033 105.885 161.871 106.567 159.875 107.618L158.907 109.149L153.711 108.725L153.545 110.762C156.213 111.677 159.066 111.913 161.848 111.449Z" fill="#263238"/>
<path d="M154.214 110.135L154.163 110.946L155.482 111.25L155.583 110.185L154.214 110.135Z" fill="white" stroke="#263238" stroke-width="0.75" stroke-miterlimit="10"/>
<path d="M163.415 111.338L163.194 109.319L163.862 109.098L164.199 110.891" fill="#FCC466"/>
<path d="M163.415 111.338L163.194 109.319L163.862 109.098L164.199 110.891" stroke="#263238" stroke-miterlimit="10"/>
<path d="M158.261 112.012L157.814 109.656H158.934L159.381 111.675" fill="#FCC466"/>
<path d="M158.261 112.012L157.814 109.656H158.934L159.381 111.675" stroke="#263238" stroke-miterlimit="10"/>
<g opacity="0.2">
<path d="M163.415 111.338L163.194 109.319L163.862 109.098L164.199 110.891" fill="#263238"/>
<path d="M158.261 112.011L157.814 109.655H158.934L159.381 111.674" fill="#263238"/>
</g>
<path d="M153.098 90.8584C153.098 90.8584 152.715 93.4167 151.567 97.7727C150.419 102.129 149.262 107.351 149.262 107.351L149.903 110.034L151.816 107.222L153.098 90.8584Z" fill="#263238" stroke="#263238" stroke-miterlimit="10"/>
<path d="M156.292 87.1562C156.292 87.1562 153.609 87.7923 153.356 89.0692C153.219 89.6569 153.133 90.2553 153.098 90.8577L157.187 87.5388L162.299 85.4922L156.292 87.1562Z" fill="#263238" stroke="#263238" stroke-miterlimit="10"/>
<path d="M157.026 86.1689C157.026 86.1689 154.845 88.635 153.978 89.6491C153.112 90.6632 153.107 101.546 153.107 103.146C153.107 104.745 152.24 109.088 153.688 109.959C155.135 110.83 163.991 110.54 164.863 109.088C165.734 107.636 166.31 90.2299 166.167 88.635C166.059 87.9195 165.777 87.2413 165.346 86.6596C164.915 86.078 164.349 85.6104 163.696 85.2977C162.687 84.8321 157.026 86.1689 157.026 86.1689Z" fill="white"/>
<path d="M157.026 86.1689C157.026 86.1689 154.845 88.635 153.978 89.6491C153.112 90.6632 153.107 101.546 153.107 103.146C153.107 104.745 152.24 109.088 153.688 109.959C155.135 110.83 163.991 110.54 164.863 109.088C165.734 107.636 166.31 90.2299 166.167 88.635C166.059 87.9195 165.777 87.2413 165.346 86.6596C164.915 86.078 164.349 85.6104 163.696 85.2977C162.687 84.8321 157.026 86.1689 157.026 86.1689Z" stroke="#263238" stroke-miterlimit="10"/>
<path d="M161.484 97.2101C159.146 96.4818 157.1 94.4443 157.1 94.4443C157.618 96.8654 159.026 99.0038 161.046 100.437" fill="white"/>
<path d="M161.484 97.2101C159.146 96.4818 157.1 94.4443 157.1 94.4443C157.618 96.8654 159.026 99.0038 161.046 100.437" stroke="#263238" stroke-width="0.75" stroke-linecap="round" stroke-linejoin="round"/>
<path d="M163.263 83.7031L156.297 85.298L155.864 87.3308L163.696 85.298L163.263 83.7031Z" fill="white" stroke="#263238" stroke-miterlimit="10"/>
<path d="M154.762 160.117L154.357 157.056L151.319 156.572L148.788 158.375L146.52 159.619V160.117H154.762Z" fill="#263238" stroke="#263238" stroke-miterlimit="10"/>
<path d="M167.901 160.356L167.523 157.512L164.485 157.023L161.954 158.826L159.686 160.075V160.356H167.901Z" fill="#263238" stroke="#263238" stroke-miterlimit="10"/>
<path d="M141.66 70.3634L139.789 69.2801C139.789 69.2801 139.06 69.1925 139.374 70.0038L141.245 71.4466" fill="white"/>
<path d="M141.66 70.3634L139.789 69.2801C139.789 69.2801 139.06 69.1925 139.374 70.0038L141.245 71.4466" stroke="#263238" stroke-linecap="round" stroke-linejoin="round"/>
<path d="M141.384 73.1798C141.296 72.9574 141.166 72.754 141.001 72.5806L140.651 72.2026L138.747 69.8425C138.747 69.8425 138.157 69.4461 138.286 70.3034L139.466 72.6082L137.368 70.6399C137.368 70.6399 136.972 70.3127 136.972 70.7736C136.972 71.2346 138.876 73.2674 138.876 73.2674L136.774 72.2809C136.774 72.2809 136.313 72.6082 136.645 72.9355C136.977 73.2628 138.742 73.9219 138.742 73.9219L137.17 73.8574C137.17 73.8574 136.709 74.2492 137.036 74.3829C137.364 74.5166 139.203 74.9038 139.203 74.9038C139.437 75.1024 139.704 75.2584 139.991 75.3647L140.452 76.2175L142.218 75.3279L141.384 73.1798Z" fill="white" stroke="#263238" stroke-linecap="round" stroke-linejoin="round"/>
<path d="M160.235 93.6418L149.714 96.1079C149.176 96.2028 148.621 96.1081 148.144 95.84C147.668 95.5719 147.299 95.1469 147.1 94.6375L140.462 76.1992L142.228 75.3096L149.562 88.8939C149.729 89.2047 149.991 89.4535 150.309 89.6038C150.628 89.7541 150.987 89.7977 151.332 89.7283L159.377 87.4558" fill="white"/>
<path d="M160.235 93.6418L149.714 96.1079C149.176 96.2028 148.621 96.1081 148.144 95.84C147.668 95.5719 147.299 95.1469 147.1 94.6375L140.462 76.1992L142.228 75.3096L149.562 88.8939C149.729 89.2047 149.991 89.4535 150.309 89.6038C150.628 89.7541 150.987 89.7977 151.332 89.7283L159.377 87.4558" stroke="#263238" stroke-miterlimit="10"/>
<path d="M143.219 77.0469L141.172 78.0702" stroke="#263238" stroke-width="0.75" stroke-miterlimit="10"/>
<path d="M158.925 73.8669C158.925 73.8669 157.805 74.987 158.363 75.8259C158.693 76.3105 158.945 76.844 159.109 77.407C159.109 77.407 158.648 78.5271 159.017 78.5271C159.386 78.5271 159.202 77.6882 159.856 77.8772C160.511 78.0662 161.161 79.1817 160.603 79.5551C160.186 79.7883 159.743 79.9739 159.285 80.1082C159.226 80.1261 159.174 80.1606 159.135 80.2076C159.096 80.2547 159.072 80.3121 159.065 80.3728C159.058 80.4336 159.069 80.495 159.096 80.5495C159.124 80.6041 159.167 80.6494 159.22 80.6798C159.827 81.0895 160.525 81.3428 161.253 81.4173C161.849 81.4301 162.443 81.3681 163.023 81.2329C163.023 81.2329 164.867 78.7161 166.195 78.0616C167.523 77.407 166.942 74.4246 166.942 74.0512C166.942 73.6779 165.637 72.8389 165.637 72.8389C165.637 72.8389 166.011 72 164.333 70.1377C162.655 68.2755 159.483 67.8975 159.391 68.552C159.358 68.7253 159.376 68.9043 159.442 69.0677C159.509 69.2311 159.62 69.3721 159.764 69.474C159.764 69.474 156.966 68.2616 155.661 69.5661C154.356 70.8707 158.925 73.8669 158.925 73.8669Z" fill="#263238" stroke="#263238" stroke-miterlimit="10"/>
<path d="M158.925 73.8672C158.925 73.8672 161.193 76.6329 164.554 76.9003" stroke="white" stroke-width="0.5" stroke-linecap="round" stroke-linejoin="round"/>
<path d="M158.123 74.71C158.123 74.71 159.179 77.7799 163.544 78.6557" stroke="white" stroke-width="0.5" stroke-linecap="round" stroke-linejoin="round"/>
</g>
<defs>
<clipPath id="clip0_1178_4525">
<rect width="180" height="170" fill="white"/>
</clipPath>
</defs>
</svg>
