<svg width="180" height="170" viewBox="0 0 180 170" fill="none" xmlns="http://www.w3.org/2000/svg">
<g clip-path="url(#clip0_1135_9052)">
<path fill-rule="evenodd" clip-rule="evenodd" d="M172.593 99.4351C168.069 119.624 154.375 136.426 136.684 147.113C119.379 157.566 99.1688 157.759 79.0523 155.939C54.5845 153.724 24.1369 156.593 11.0925 135.746C-1.94502 114.91 10.8178 87.2883 22.5759 65.681C31.3772 49.5073 49.7489 43.7812 65.9143 35.0025C80.3009 27.1898 93.724 17.1357 110.049 18.1788C129.188 19.4018 148.746 25.834 160.453 41.0435C173.048 57.4068 177.113 79.2616 172.593 99.4351Z" fill="#C4C4C4"/>
<path d="M96.6975 85.7182C96.6975 85.7182 53.4835 84.2554 49.0769 94.0338C44.6703 103.812 49.0769 133.154 49.0769 133.154H116.349C116.349 133.154 125.967 96.8057 120.602 91.9098C115.236 87.014 96.6975 85.7182 96.6975 85.7182Z" fill="#263238" stroke="#263238" stroke-miterlimit="10"/>
<path d="M101.956 15.259C101.956 15.259 99.6085 14.1769 98.2402 15.5529C96.872 16.9288 95.7385 17.6435 94.6787 17.7036C93.619 17.7637 91.0636 17.0023 90.3325 18.9459C89.6014 20.8896 88.2198 20.7426 87.3143 20.9898C86.4089 21.2369 83.5114 22.1119 83.3907 23.2741C83.2699 24.4363 83.4644 25.9458 82.3846 26.1929C81.3047 26.44 78.6823 26.3198 78.3201 28.1299C78.1705 28.9069 77.836 29.6369 77.3447 30.2586C76.8534 30.8803 76.2196 31.3757 75.4964 31.7033C74.4031 32.0973 72.1428 31.7033 71.955 33.707C71.7672 35.7108 71.7203 37.7146 71.7203 37.7146L70.4727 39.5981C70.4727 39.5981 68.4204 40.7336 68.9167 42.7975C69.413 44.8613 71.3782 46.2373 69.0844 48.0206C66.7905 49.804 65.3016 50.6923 66.3613 52.2753C67.421 53.8583 69.185 53.905 68.8228 55.7151C68.4606 57.5252 65.9454 59.7894 68.6618 60.7312C71.3782 61.673 72.1227 61.2522 71.7806 62.8953C71.4386 64.5384 73.3702 66.2349 74.2421 66.3351C75.1141 66.4353 74.7251 66.7225 75.3958 68.7997C75.6203 69.5082 76.0454 70.1372 76.6201 70.6111C77.1947 71.085 77.8944 71.3837 78.6353 71.4714C79.306 71.5449 80.2316 71.2977 81.3182 72.5868C82.4047 73.8759 93.0959 82.8461 104.793 83.8614C112 84.6049 119.277 83.4317 125.88 80.4616C128.261 79.5265 130.723 77.7899 130.703 76.2537C130.683 74.7175 133.848 74.7242 135.029 73.5019C136.209 72.2796 136.431 71.7987 136.431 70.1222C136.431 68.4457 136.592 66.7826 137.235 65.6671C137.879 64.5517 138.637 63.9639 138.463 62.2674C138.288 60.5709 139.563 58.3534 140.361 57.425C141.159 56.4966 141.991 55.2409 140.488 52.7495C138.986 50.2582 138.342 49.6771 138.899 47.7201C139.455 45.763 140.348 43.8394 139.107 42.203C138.088 40.8688 137.63 39.1918 137.832 37.5275C137.967 36.1917 138.939 35.29 136.954 34.0811C134.968 32.8721 134.982 31.0287 134.714 30.1604C134.445 29.2921 134.921 28.1566 132.587 26.9209C130.96 26.0782 129.723 24.6425 129.133 22.9134C128.717 21.8647 127.51 19.8944 125.458 19.3534C123.405 18.8123 122.346 18.8658 120.951 17.049C119.555 15.2323 118.268 13.7562 116.383 13.5625C114.498 13.3688 114.626 13.5625 111.795 13.7695C110.199 13.962 108.579 13.7317 107.1 13.1016C106.423 12.8545 104.33 10.9642 101.956 15.259Z" fill="#263238" stroke="#263238" stroke-linecap="round" stroke-linejoin="round"/>
<path d="M71.4385 48.5882C72.8604 47.5796 70.8281 43.7324 72.0488 41.3078C73.2695 38.8833 73.4707 39.0836 74.4835 36.6324C75.4963 34.1811 75.0939 33.5933 77.1261 33.1925C79.1584 32.7918 80.5803 30.9684 82.8138 28.3367C85.0472 25.7051 86.6704 27.5286 88.5014 24.6966C90.3324 21.8646 89.313 21.2568 91.7476 20.856C94.1823 20.4552 97.2341 19.8408 98.8572 18.6251C100.268 17.5822 101.976 17.0159 103.733 17.0088C104.562 17.0152 105.385 16.8797 106.168 16.608C107.281 15.9691 108.539 15.6199 109.823 15.5928C111.835 15.5928 111.835 16.401 115.31 15.5928M106.168 19.233C106.168 19.233 100.688 22.0649 100.078 23.9084C99.4675 25.7519 96.4225 23.9084 94.189 26.333C91.9556 28.7575 92.7671 31.3892 90.3257 32.4044C87.8843 33.4196 82.8138 33.413 82.6125 36.6524C82.4113 39.8918 82.2034 41.9089 80.6004 43.5253C78.9974 45.1417 76.945 45.5291 78.3669 47.7733C79.7888 50.0175 80.6004 51.2131 78.5682 53.8447C76.5359 56.4763 73.0817 57.2779 76.1335 60.1099C79.1852 62.9418 81.2108 63.1489 79.9901 65.166C78.7694 67.1831 81.8144 68.2051 82.6327 68.6058" stroke="#F4F4F4" stroke-miterlimit="10"/>
<path d="M85.6577 48.7953C85.6577 48.7953 90.1247 48.7953 91.5466 47.5797C92.9685 46.3641 94.3904 44.5473 96.2416 45.5759C98.0927 46.6045 99.8969 46.1837 100.937 43.7525C101.976 41.3213 99.3134 40.3194 102.949 40.3194C106.584 40.3194 106.805 39.5112 108.428 36.6792C110.052 33.8472 108.026 33.8472 112.902 33.6401C117.778 33.4331 118.181 30.207 120.012 30.4074C121.843 30.6078 122.647 31.0152 120.823 34.8558C118.999 38.6963 117.369 39.1038 119.804 41.1276C122.238 43.1514 124.68 42.5436 123.258 47.1923C121.836 51.8411 123.057 52.2485 123.667 54.0719C124.277 55.8953 125.089 56.4965 122.446 58.9277C119.804 61.359 118.992 61.1519 119.602 63.9839C120.213 66.8159 120.823 67.9914 118.59 69.0401C116.356 70.0887 114.525 71.4646 115.538 72.4799C116.551 73.4951 116.96 73.6888 116.356 74.4837" stroke="#F4F4F4" stroke-miterlimit="10"/>
<path d="M93.3978 68.0322C93.3978 68.0322 81.325 69.702 72.2704 71.0379C63.2158 72.3737 56.844 73.8766 56.6763 76.8822C56.5087 79.8879 43.4298 111.614 41.9207 112.616C40.9326 113.266 40.1035 114.129 39.4941 115.14C38.8848 116.152 38.5107 117.286 38.3994 118.46C38.1108 120.529 37.547 122.551 36.7227 124.472C36.7227 124.472 42.5914 123.804 45.1066 125.808C47.6217 127.811 49.1308 128.98 49.1308 128.98C49.1308 128.98 56.1733 124.472 57.1794 122.134C58.1854 119.796 54.9996 114.787 56.0056 113.117C57.0117 111.447 61.036 105.937 61.036 105.937C61.036 105.937 66.4017 122.635 67.0724 126.142C67.4366 128.487 67.2647 130.884 66.5693 133.155H113.687V119.295C113.687 116.791 115.531 108.943 115.531 108.943C115.531 108.943 120.059 121.967 121.232 125.474C122.039 127.997 122.71 130.561 123.245 133.155H139.342C139.342 133.155 133.808 116.624 131.796 111.447C129.784 106.271 127.436 85.5652 126.43 83.0605C125.424 80.5558 111.172 72.7077 104.129 71.0379C100.503 70.2204 96.9207 69.2172 93.3978 68.0322Z" fill="#007A65"/>
<mask id="mask0_1135_9052" style="mask-type:luminance" maskUnits="userSpaceOnUse" x="36" y="68" width="104" height="66">
<path d="M93.3978 68.0322C93.3978 68.0322 81.325 69.702 72.2704 71.0379C63.2158 72.3737 56.844 73.8766 56.6763 76.8822C56.5087 79.8879 43.4298 111.614 41.9207 112.616C40.9326 113.266 40.1035 114.129 39.4941 115.14C38.8848 116.152 38.5107 117.286 38.3994 118.46C38.1108 120.529 37.547 122.551 36.7227 124.472C36.7227 124.472 42.5914 123.804 45.1066 125.808C47.6217 127.811 49.1308 128.98 49.1308 128.98C49.1308 128.98 56.1733 124.472 57.1794 122.134C58.1854 119.796 54.9996 114.787 56.0056 113.117C57.0117 111.447 61.036 105.937 61.036 105.937C61.036 105.937 66.4017 122.635 67.0724 126.142C67.4366 128.487 67.2647 130.884 66.5693 133.155H113.687V119.295C113.687 116.791 115.531 108.943 115.531 108.943C115.531 108.943 120.059 121.967 121.232 125.474C122.039 127.997 122.71 130.561 123.245 133.155H139.342C139.342 133.155 133.808 116.624 131.796 111.447C129.784 106.271 127.436 85.5652 126.43 83.0605C125.424 80.5558 111.172 72.7077 104.129 71.0379C100.503 70.2204 96.9207 69.2172 93.3978 68.0322Z" fill="white"/>
</mask>
<g mask="url(#mask0_1135_9052)">
<path opacity="0.3" d="M45.1066 125.808C47.6217 127.811 49.1308 128.98 49.1308 128.98C49.1308 128.98 56.1733 124.472 57.1794 122.134C58.1854 119.796 54.9996 114.787 56.0056 113.117C57.0117 111.447 61.036 105.937 61.036 105.937L61.15 106.291L64.5572 102.283C64.5572 102.283 65.8986 102.617 67.9108 109.631C69.9229 116.644 78.6422 120.985 76.63 124.659C75.3288 127.037 74.1685 130.804 73.5112 133.175H113.687V119.295C113.687 116.791 115.531 108.943 115.531 108.943C115.531 108.943 120.059 121.967 121.232 125.474C122.039 127.997 122.71 130.561 123.245 133.155H139.342C139.342 133.155 133.808 116.624 131.796 111.447C130.086 107.052 128.134 91.4497 126.967 85.3181C126.359 84.5533 125.673 83.8527 124.921 83.2275C120.226 79.5539 108.824 75.5464 106.141 75.2124C103.459 74.8785 96.7514 70.537 89.3736 73.5426C89.3736 73.5426 84.3432 77.8841 80.6543 78.886C76.9654 79.8879 69.5876 72.5408 68.9168 76.2143C68.527 78.648 68.527 81.1278 68.9168 83.5615C68.9168 83.5615 64.8926 74.2106 65.2279 77.8841C65.5633 81.5577 65.5633 84.8973 65.5633 84.8973C65.5633 84.8973 61.8744 76.8823 61.8744 80.2219C61.8744 83.5615 63.5511 87.903 63.2158 90.5747C62.8804 93.2464 53.4905 109.944 52.4844 111.614C51.4783 113.284 51.8137 116.357 50.6399 118.661C49.8905 120.063 48.6306 121.127 47.1187 121.633C47.1187 121.633 48.1248 117.292 44.4358 117.626C40.7469 117.96 36.7227 124.472 36.7227 124.472C36.7227 124.472 42.5914 123.804 45.1066 125.808Z" fill="black"/>
</g>
<path d="M93.3978 68.0322C93.3978 68.0322 81.325 69.702 72.2704 71.0379C63.2158 72.3737 56.844 73.8766 56.6763 76.8822C56.5087 79.8879 43.4298 111.614 41.9207 112.616C40.9326 113.266 40.1035 114.129 39.4941 115.14C38.8848 116.152 38.5107 117.286 38.3994 118.46C38.1108 120.529 37.547 122.551 36.7227 124.472C36.7227 124.472 42.5914 123.804 45.1066 125.808C47.6217 127.811 49.1308 128.98 49.1308 128.98C49.1308 128.98 56.1733 124.472 57.1794 122.134C58.1854 119.796 54.9996 114.787 56.0056 113.117C57.0117 111.447 61.036 105.937 61.036 105.937C61.036 105.937 66.4017 122.635 67.0724 126.142C67.4366 128.487 67.2647 130.884 66.5693 133.155H113.687V119.295C113.687 116.791 115.531 108.943 115.531 108.943C115.531 108.943 120.059 121.967 121.232 125.474C122.039 127.997 122.71 130.561 123.245 133.155H139.342C139.342 133.155 133.808 116.624 131.796 111.447C129.784 106.271 127.436 85.5652 126.43 83.0605C125.424 80.5558 111.172 72.7077 104.129 71.0379C100.503 70.2204 96.9207 69.2172 93.3978 68.0322Z" stroke="#263238" stroke-linecap="round" stroke-linejoin="round"/>
<path d="M96.7507 96.418C96.7507 96.418 98.2263 111.333 97.6025 117.524C96.9788 123.716 94.8056 128.365 95.7379 132.7" stroke="#263238" stroke-linecap="round" stroke-linejoin="round"/>
<path d="M116.873 98.5885L119.555 92.9111" stroke="#263238" stroke-linecap="round" stroke-linejoin="round"/>
<path d="M91.8882 66.6957C91.8882 66.6957 90.0437 67.8645 89.7084 69.0334C89.373 70.2023 86.6902 73.3749 85.5164 78.0504C84.3427 82.7258 85.0134 91.2418 85.8518 89.2381C86.6902 87.2343 88.87 82.8928 89.7084 81.8909C90.5468 80.889 90.7145 82.2249 91.3852 85.0636C92.0559 87.9022 96.7509 96.4182 96.7509 96.4182C96.7509 96.4182 100.272 88.5702 102.284 87.4013C104.296 86.2324 105.135 82.3919 105.135 82.3919C105.135 82.3919 107.147 92.4107 108.321 92.4107C109.494 92.4107 109.997 84.7296 109.494 80.0541C108.991 75.3787 106.812 69.7013 105.47 67.8645C104.129 66.0277 98.4276 59.8495 91.8882 66.6957Z" fill="white" stroke="#263238" stroke-linecap="round" stroke-linejoin="round"/>
<path d="M92.0559 65.6934C92.0559 65.6934 91.3852 78.7179 92.3913 84.3952C93.3973 90.0726 95.9125 98.4216 96.7509 96.4178C97.5893 94.4141 102.955 84.5622 103.793 80.0537C104.479 76.843 105.49 73.71 106.812 70.7028C106.812 70.7028 96.7509 71.8716 92.0559 65.6934Z" fill="white" stroke="#263238" stroke-linecap="round" stroke-linejoin="round"/>
<path d="M116.456 36.2051C116.456 36.2051 113.532 37.04 112.801 38.663C112.07 40.2861 111.459 40.413 109.608 42.1095C107.757 43.806 107.187 43.5589 105.725 44.9215C104.263 46.284 103.136 46.1638 101.412 46.3642C99.6883 46.5646 98.186 46.4176 97.3878 46.8985C96.6173 47.3123 95.8195 47.6738 95.0001 47.9806C95.0001 47.9806 93.9336 47.3126 93.1087 49.8574C92.2837 52.4022 91.291 58.3467 91.9014 61.6129C92.5117 64.879 94.9397 72.667 98.7225 74.5639C102.505 76.4608 111.64 70.4027 113.988 67.8179C116.335 65.233 121.178 53.0835 121.366 51.033C121.554 48.9824 118.374 45.0751 117.777 43.5055C117.181 41.9359 118.026 41.0809 116.852 39.6382C115.678 38.1955 116.456 36.2051 116.456 36.2051Z" fill="white" stroke="#263238" stroke-linecap="round" stroke-linejoin="round"/>
<path d="M107.047 62.027C107.047 62.027 106.51 62.9554 104.652 62.7684C102.794 62.5814 102.063 61.1854 102.278 60.0967" stroke="#263238" stroke-linecap="round" stroke-linejoin="round"/>
<path d="M99.8501 63.3828C101.593 64.8846 103.81 65.7307 106.115 65.774" stroke="#263238" stroke-linecap="round" stroke-linejoin="round"/>
<path d="M103.398 52.4297L102.687 54.006C102.687 54.006 100.259 55.0747 98.0527 51.8887" stroke="#263238" stroke-linecap="round" stroke-linejoin="round"/>
<path d="M114.565 56.7436L113.975 58.2198C113.975 58.2198 110.93 58.8877 109.951 56.3896" stroke="#263238" stroke-linecap="round" stroke-linejoin="round"/>
<path d="M111.211 51.5744C111.211 51.5744 116.255 49.6708 117.657 54.3195" stroke="#263238" stroke-linecap="round" stroke-linejoin="round"/>
<path d="M105.672 49.5902C105.672 49.5902 103.894 45.4557 98.9646 47.2591" stroke="#263238" stroke-linecap="round" stroke-linejoin="round"/>
<path d="M61.0356 105.935C61.0356 105.935 66.7367 96.7515 69.7549 90.4062L61.0356 105.935Z" fill="white"/>
<path d="M61.0356 105.935C61.0356 105.935 66.7367 96.7515 69.7549 90.4062" stroke="#263238" stroke-linecap="round" stroke-linejoin="round"/>
<path d="M65.3953 99.2564C67.9749 97.5795 70.1507 95.3557 71.767 92.7441" stroke="#263238" stroke-linecap="round" stroke-linejoin="round"/>
<path d="M29.6797 138.664H64.3354L83.2226 151.468H43.4293L29.6797 138.664Z" fill="white" stroke="#263238" stroke-linecap="round" stroke-linejoin="round"/>
<path d="M74.2818 148.683H46.4473" stroke="#263238" stroke-linecap="round" stroke-linejoin="round"/>
<path d="M71.5992 146.012H43.7646" stroke="#263238" stroke-linecap="round" stroke-linejoin="round"/>
<path d="M68.9166 143.34H41.082" stroke="#263238" stroke-linecap="round" stroke-linejoin="round"/>
<path d="M5.53418 146.68H40.1899L59.0771 159.484H19.2838L5.53418 146.68Z" fill="white" stroke="#263238" stroke-linecap="round" stroke-linejoin="round"/>
<path d="M50.1363 156.698H22.3018" stroke="#263238" stroke-linecap="round" stroke-linejoin="round"/>
<path d="M47.4537 154.026H19.6191" stroke="#263238" stroke-linecap="round" stroke-linejoin="round"/>
<path d="M44.7711 151.355H16.9365" stroke="#263238" stroke-linecap="round" stroke-linejoin="round"/>
<path d="M54.2749 132.206C54.2749 132.206 51.1427 127.53 49.2446 124.638C47.3465 121.746 43.2082 119.742 39.5193 120.631C35.8304 121.519 34.0396 124.858 34.0396 128.425C34.0396 131.992 34.3749 134.877 38.2852 136.995C42.1954 139.112 50.9214 140.221 50.9214 140.221C50.9214 140.221 57.5145 142.672 54.2749 132.206Z" fill="white" stroke="#263238" stroke-linecap="round" stroke-linejoin="round"/>
<path d="M51.0155 131.157C51.0155 131.157 46.7296 132.493 46.4345 134.096C46.1394 135.699 45.6967 139.252 45.9919 140.869C46.287 142.485 50.1301 142.345 52.7929 142.345C55.4556 142.345 56.7836 139.673 56.1934 138.812C55.6032 137.95 53.2356 137.476 52.3502 135.425C51.779 134.045 51.3324 132.617 51.0155 131.157Z" fill="white" stroke="#263238" stroke-linecap="round" stroke-linejoin="round"/>
<path d="M54.5902 132.553C53.9598 131.144 53.1616 129.821 52.8061 129.053C51.847 126.996 49.7544 126.909 49.6404 129.514C49.5733 130.99 52.3232 139.613 54.7109 137.629C56.0054 136.56 55.4487 134.47 54.5902 132.553Z" fill="white" stroke="#263238" stroke-linecap="round" stroke-linejoin="round"/>
<path d="M46.5815 134.69C46.5815 134.69 46.7291 136.454 50.2772 138.518C53.8252 140.582 54.8581 139.853 56.0453 139.853" fill="white"/>
<path d="M46.5815 134.69C46.5815 134.69 46.7291 136.454 50.2772 138.518C53.8252 140.582 54.8581 139.853 56.0453 139.853" stroke="#263238" stroke-linecap="round" stroke-linejoin="round"/>
<path d="M45.9917 138.224C45.9917 138.224 46.4277 141.122 54.5567 141.71L45.9917 138.224Z" fill="white"/>
<path d="M45.9917 138.224C45.9917 138.224 46.4277 141.122 54.5567 141.71" stroke="#263238" stroke-linecap="round" stroke-linejoin="round"/>
<path d="M57.0177 140L50.0155 119.962C49.9721 119.837 49.9539 119.705 49.9618 119.574C49.9697 119.442 50.0035 119.314 50.0615 119.195C50.1194 119.077 50.2003 118.971 50.2994 118.883C50.3986 118.796 50.514 118.729 50.6392 118.686C50.7643 118.643 50.8967 118.625 51.0288 118.633C51.1609 118.641 51.2902 118.674 51.4092 118.732C51.5282 118.79 51.6346 118.87 51.7223 118.969C51.81 119.068 51.8773 119.183 51.9203 119.307L58.8957 139.365L57.0177 140Z" fill="#263238"/>
<path d="M57.0181 140.021L58.9095 142.432L58.9162 139.366L57.0181 140.021Z" fill="white"/>
<path d="M58.2251 141.557L58.8958 142.432V141.337C58.6642 141.384 58.439 141.457 58.2251 141.557Z" fill="#263238"/>
<path d="M51.9206 119.295C51.8317 119.043 51.6461 118.837 51.4045 118.722C51.163 118.607 50.8855 118.592 50.6329 118.68C50.3803 118.769 50.1734 118.954 50.0576 119.194C49.9419 119.435 49.9269 119.711 50.0158 119.963L50.6865 121.966L52.5645 121.252L51.9206 119.295Z" fill="white"/>
<path d="M54.4966 127.196C54.4966 127.196 56.5087 126.421 57.5148 127.196C58.5209 127.971 59.0775 129.981 59.0775 132.319C59.0775 134.657 60.1976 137.662 58.1855 137.549C56.1734 137.435 54.4966 127.196 54.4966 127.196Z" fill="white" stroke="#263238" stroke-linecap="round" stroke-linejoin="round"/>
<path d="M98.8302 145.123L83.5581 135.545H141.91L163.661 145.123H98.8302Z" fill="white" stroke="#263238" stroke-linecap="round" stroke-linejoin="round"/>
<path d="M163.662 145.124H98.8306L106.296 99.0371H171.133L163.662 145.124Z" fill="white" stroke="#263238" stroke-linecap="round" stroke-linejoin="round"/>
<path d="M167.324 122.541C156.344 125.026 146.874 122.541 128.08 125.58C109.669 128.532 102.224 136.888 99.2397 142.572L98.8306 145.124H163.662L167.324 122.541Z" fill="#FCC466" stroke="#263238" stroke-miterlimit="10"/>
<path d="M167.391 128.219C167.391 128.219 163.715 128.686 162.394 130.189C161.072 131.692 162.112 132.26 163.245 132.26C164.379 132.26 168.148 132.26 169.845 130.256C171.22 128.68 170.315 128.032 167.391 128.219Z" fill="white" stroke="#263238" stroke-linecap="round" stroke-linejoin="round"/>
<path d="M166.163 138.925C166.163 138.925 162.488 139.392 161.166 140.895C159.845 142.398 160.885 142.959 162.018 142.959C163.152 142.959 166.921 142.959 168.618 140.989C170 139.386 169.087 138.738 166.163 138.925Z" fill="white" stroke="#263238" stroke-linecap="round" stroke-linejoin="round"/>
<path d="M166.546 136.106C166.546 136.106 162.863 136.574 161.542 138.077C160.221 139.579 161.26 140.147 162.394 140.147C163.527 140.147 167.297 140.147 168.994 138.143C170.375 136.574 169.463 135.919 166.546 136.106Z" fill="white" stroke="#263238" stroke-linecap="round" stroke-linejoin="round"/>
<path d="M166.639 132.913C166.639 132.913 162.957 133.381 161.642 134.883C160.328 136.386 161.354 136.954 162.488 136.954C163.621 136.954 167.39 136.954 169.087 134.95C170.469 133.374 169.564 132.726 166.639 132.913Z" fill="white" stroke="#263238" stroke-linecap="round" stroke-linejoin="round"/>
</g>
<defs>
<clipPath id="clip0_1135_9052">
<rect width="180" height="170" fill="white"/>
</clipPath>
</defs>
</svg>
