<svg width="87" height="65" fill="none" xmlns="http://www.w3.org/2000/svg"><path d="M1 62.465h75.055m2.824 0h6.827" stroke="#007B64" stroke-width="1.6" stroke-linecap="round" stroke-linejoin="round"/><path d="M23.243 62.05s13.955-5.54 23.994-3.657a18.416 18.416 0 0016.313-5.02v5.647l-1.537 2.548-.81.897H24.022l-.778-.414z" fill="#F1F1F1"/><path d="M18.274 60.175a3.978 3.978 0 01-4.21-3.715l-2.919-46.43a3.972 3.972 0 013.714-4.216l2.592-.164" stroke="#007B64" stroke-width="1.6" stroke-linecap="round" stroke-linejoin="round"/><path d="M63.394 51.19v7.435a3.84 3.84 0 01-3.847 3.84H24.975a3.84 3.84 0 01-3.84-3.84V4.84A3.84 3.84 0 0124.975 1h27.218l11.2 11.846" fill="#fff"/><path d="M63.394 45.43v13.176a3.84 3.84 0 01-3.847 3.84H24.975a3.84 3.84 0 01-3.84-3.84V4.84A3.84 3.84 0 0124.975 1h26.942a.627.627 0 01.465.2l11.012 11.646" stroke="#007B64" stroke-width="1.632" stroke-linecap="round" stroke-linejoin="round"/><path d="M63.394 13.01v7.705m-5.127-7.869h-3.2a3.84 3.84 0 01-3.84-3.84V5.8M25.64 26.412h23.479M25.64 21.185h23.479M25.64 31.645h23.479M25.64 36.871h23.479" stroke="#007B64" stroke-width="1.6" stroke-linecap="round" stroke-linejoin="round"/><path d="M72.366 20.325c.467.026.91.212 1.255.527l.992.917c.94.866.853 2.51-.189 3.607L53.28 48.272l-6.444 2.868 2.059-6.902L68.483 23.03l.884-.954" fill="#fff"/><path d="M69.67 30.242l-1.677-1.55-16.52 17.883 1.678 1.55 16.52-17.883z" fill="#EBEBEB"/><path d="M67.666 23.933l-2.233 2.46 4.229 3.846 2.597-2.478-4.436-3.997-.157.17z" fill="#FFC463"/><path d="M69.832 30.39l-4.386-4.054m2.214-2.403l4.393 4.054" stroke="#FFC463" stroke-width="1.6" stroke-linecap="round" stroke-linejoin="round"/><path d="M72.366 20.325c.467.026.91.212 1.255.527l.992.917c.94.866.853 2.51-.189 3.607L53.28 48.272l-6.444 2.868 2.059-6.902L68.483 23.03l.884-.954" stroke="#007B64" stroke-width="1.6" stroke-linecap="round" stroke-linejoin="round"/><path d="M48.925 44.219l4.386 4.053" stroke="#007B64" stroke-width="1.6" stroke-miterlimit="10" stroke-linecap="round"/><path d="M33.062 52.913l-.048-.541a4.381 4.381 0 011.478-3.588c1.067-1.099 1.665-1.907 1.665-2.844 0-1.059-.808-1.762-2.262-1.786a4.63 4.63 0 00-2.425.646l-.55-1.309a6.891 6.891 0 013.403-.808c2.739 0 3.975 1.479 3.975 3.055 0 1.406-.905 2.424-2.052 3.612a3.805 3.805 0 00-1.35 3.03v.541l-1.834-.008zm-.525 2.901a1.317 1.317 0 011.43-1.3 1.3 1.3 0 110 2.593 1.309 1.309 0 01-1.43-1.293z" fill="#FFC463" stroke="#FFC463" stroke-width=".474" stroke-linecap="round" stroke-linejoin="round"/></svg>