<svg width="178" height="58" fill="none" xmlns="http://www.w3.org/2000/svg"><path d="M11.666 57.875c-.457 0-.903-.006-1.356-.016a19.044 19.044 0 01-2.804-.245 8.827 8.827 0 01-2.485-.822 8.11 8.11 0 01-2.095-1.525 7.981 7.981 0 01-1.531-2.094 8.582 8.582 0 01-.815-2.486 18.62 18.62 0 01-.25-2.813c-.009-.316-.021-1.37-.021-1.37v-34.65s.013-1.037.022-1.342c.011-.94.094-1.88.248-2.808a8.633 8.633 0 01.815-2.493 8.06 8.06 0 011.523-2.097A8.348 8.348 0 015.02 1.58 8.735 8.735 0 017.5.764C8.43.612 9.371.53 10.313.518L11.668.5H165.82l1.37.02c.934.01 1.866.092 2.788.243a8.911 8.911 0 012.506.822 8.387 8.387 0 013.622 3.63c.391.779.662 1.613.803 2.473.156.936.243 1.882.261 2.83.004.426.004.882.004 1.336.012.563.012 1.098.012 1.638v31.393c0 .544 0 1.076-.012 1.612 0 .488 0 .935-.006 1.395a19.05 19.05 0 01-.256 2.78 8.604 8.604 0 01-.81 2.505 8.208 8.208 0 01-1.523 2.079 8.134 8.134 0 01-2.099 1.533 8.801 8.801 0 01-2.502.825c-.928.152-1.865.233-2.804.245-.44.01-.9.016-1.346.016l-1.626.003-152.535-.003z" fill="#000"/></svg>