<svg width="203" height="60" fill="none" xmlns="http://www.w3.org/2000/svg"><path d="M195 60H7.5C3.3 60 0 56.55 0 52.5v-45C0 3.3 3.45 0 7.5 0H195c4.2 0 7.5 3.45 7.5 7.5v45c0 4.05-3.3 7.5-7.5 7.5z" fill="#000"/><path d="M102.15 32.7c-3.6 0-6.45 2.7-6.45 6.45 0 3.6 2.85 6.45 6.45 6.45s6.45-2.7 6.45-6.45c0-3.9-2.85-6.45-6.45-6.45zm0 10.2c-1.95 0-3.6-1.65-3.6-3.9s1.65-3.9 3.6-3.9c1.95 0 3.6 1.5 3.6 3.9 0 2.25-1.65 3.9-3.6 3.9zM88.2 32.7c-3.6 0-6.45 2.7-6.45 6.45 0 3.6 2.85 6.45 6.45 6.45s6.45-2.7 6.45-6.45c0-3.9-2.85-6.45-6.45-6.45zm0 10.2c-1.95 0-3.6-1.65-3.6-3.9s1.65-3.9 3.6-3.9c1.95 0 3.6 1.5 3.6 3.9 0 2.25-1.65 3.9-3.6 3.9zm-16.65-8.25v2.7H78c-.15 1.5-.75 2.7-1.5 3.45-.9.9-2.4 1.95-4.95 1.95-4.05 0-7.05-3.15-7.05-7.2 0-4.05 3.15-7.2 7.05-7.2 2.1 0 3.75.9 4.95 1.95l1.95-1.95c-1.65-1.5-3.75-2.7-6.75-2.7-5.4 0-10.05 4.5-10.05 9.9s4.65 9.9 10.05 9.9c3 0 5.1-.9 6.9-2.85 1.8-1.8 2.4-4.35 2.4-6.3 0-.6 0-1.2-.15-1.65h-9.3zm68.1 2.1c-.6-1.5-2.1-4.05-5.4-4.05-3.3 0-6 2.55-6 6.45 0 3.6 2.7 6.45 6.3 6.45 2.85 0 4.65-1.8 5.25-2.85l-2.1-1.5c-.75 1.05-1.65 1.8-3.15 1.8s-2.4-.6-3.15-1.95l8.55-3.6-.3-.75zm-8.7 2.1c0-2.4 1.95-3.75 3.3-3.75 1.05 0 2.1.6 2.4 1.35l-5.7 2.4zM123.9 45h2.85V26.25h-2.85V45zm-4.5-10.95c-.75-.75-1.95-1.5-3.45-1.5-3.15 0-6.15 2.85-6.15 6.45s2.85 6.3 6.15 6.3c1.5 0 2.7-.75 3.3-1.5h.15v.9c0 2.4-1.35 3.75-3.45 3.75-1.65 0-2.85-1.2-3.15-2.25l-2.4 1.05c.75 1.65 2.55 3.75 5.7 3.75 3.3 0 6-1.95 6-6.6V33h-2.7v1.05zm-3.3 8.85c-1.95 0-3.6-1.65-3.6-3.9s1.65-3.9 3.6-3.9c1.95 0 3.45 1.65 3.45 3.9s-1.5 3.9-3.45 3.9zm36.6-16.65h-6.75V45h2.85v-7.05h3.9c3.15 0 6.15-2.25 6.15-5.85 0-3.6-3-5.85-6.15-5.85zm.15 9h-4.05V28.8h4.05c2.1 0 3.3 1.8 3.3 3.15-.15 1.65-1.35 3.3-3.3 3.3zm17.25-2.7c-2.1 0-4.2.9-4.95 2.85l2.55 1.05c.6-1.05 1.5-1.35 2.55-1.35 1.5 0 2.85.9 3 2.4v.15c-.45-.3-1.65-.75-2.85-.75-2.7 0-5.4 1.5-5.4 4.2 0 2.55 2.25 4.2 4.65 4.2 1.95 0 2.85-.9 3.6-1.8h.15V45h2.7v-7.2c-.3-3.3-2.85-5.25-6-5.25zm-.3 10.35c-.9 0-2.25-.45-2.25-1.65 0-1.5 1.65-1.95 3-1.95 1.2 0 1.8.3 2.55.6-.3 1.8-1.8 3-3.3 3zm15.75-9.9l-3.15 8.1h-.15l-3.3-8.1h-3l4.95 11.4-2.85 6.3h2.85l7.65-17.7h-3zm-25.2 12h2.85V26.25h-2.85V45z" fill="#fff"/><path d="M15.6 11.25c-.45.45-.75 1.2-.75 2.1V46.5c0 .9.3 1.65.75 2.1l.15.15 18.6-18.6v-.3L15.6 11.25z" fill="url(#paint0_linear)"/><path d="M40.5 36.451l-6.15-6.15v-.45l6.15-6.15.15.15 7.35 4.2c2.1 1.2 2.1 3.15 0 4.35l-7.5 4.05z" fill="url(#paint1_linear)"/><path d="M40.65 36.302l-6.3-6.3-18.75 18.75c.75.75 1.8.75 3.15.15l21.9-12.6z" fill="url(#paint2_linear)"/><path d="M40.65 23.7l-21.9-12.45c-1.35-.75-2.4-.6-3.15.15L34.35 30l6.3-6.3z" fill="url(#paint3_linear)"/><path opacity=".2" d="M40.5 36.15l-21.75 12.3c-1.2.75-2.25.6-3 0l-.15.15.15.15c.75.6 1.8.75 3 0l21.75-12.6z" fill="#000"/><path opacity=".12" d="M15.6 48.45c-.45-.45-.6-1.2-.6-2.1v.15c0 .9.3 1.65.75 2.1v-.15h-.15zM48 31.952l-7.5 4.2.15.15 7.35-4.2c1.05-.6 1.5-1.35 1.5-2.1 0 .75-.6 1.35-1.5 1.95z" fill="#000"/><path opacity=".25" d="M18.75 11.4L48 28.05c.9.6 1.5 1.2 1.5 1.95 0-.75-.45-1.5-1.5-2.1L18.75 11.25c-2.1-1.2-3.75-.15-3.75 2.25v.15c0-2.4 1.65-3.45 3.75-2.25z" fill="#fff"/><path d="M63.15 21.452H62.1v-3h.9c.75-.6 1.2-1.8 1.2-3.45v-4.5h6v7.95h1.05v3H70.2v-1.95h-6.9v1.95h-.15zm2.1-6.45c0 1.35-.3 2.55-.9 3.45h4.5v-6.75H65.1v3.3h.15zm14.85 3.3c-.9.9-1.95 1.35-3.3 1.35-1.35 0-2.4-.45-3.3-1.35-.9-.9-1.35-1.95-1.35-3.3 0-1.35.45-2.4 1.35-3.3.9-.9 1.95-1.35 3.3-1.35 1.35 0 2.4.45 3.3 1.35.9.9 1.35 1.95 1.35 3.3 0 1.35-.45 2.4-1.35 3.3zm-5.7-.75c.6.6 1.5 1.05 2.4 1.05.9 0 1.8-.3 2.4-1.05.6-.6 1.05-1.5 1.05-2.55 0-1.05-.3-1.95-1.05-2.55-.6-.6-1.5-1.05-2.4-1.05-.9 0-1.8.3-2.4 1.05-.6.6-1.05 1.5-1.05 2.55 0 1.05.3 1.95 1.05 2.55zm12.9 2.1c-1.35 0-2.4-.45-3.3-1.35-.9-.9-1.35-1.95-1.35-3.3 0-1.35.45-2.4 1.35-3.3.9-.9 1.95-1.35 3.3-1.35 1.35 0 2.4.45 3.3 1.5l-.75.75c-.6-.75-1.5-1.2-2.55-1.2-1.05 0-1.8.3-2.55 1.05-.75.6-1.05 1.5-1.05 2.55 0 1.05.3 1.95 1.05 2.55.6.6 1.5 1.05 2.55 1.05 1.05 0 1.95-.45 2.7-1.35l.75.75c-.45.45-.9.9-1.5 1.2-.6.3-1.2.45-1.95.45zm8.249-.15h-1.2v-7.95h-2.55v-1.05h6.15v1.05h-2.55v7.95h.15zm10.35-9l-3.45 7.65c-.45 1.05-1.2 1.65-2.1 1.65-.3 0-.6 0-.9-.15l.3-1.05c.15.15.45.15.6.15.3 0 .45 0 .6-.15.15-.15.3-.3.45-.6l.3-.75-3-6.6h1.35l2.25 5.1 2.1-5.1h1.5v-.15zm1.351 9v-9h6.45v9h-1.2v-7.95h-4.2v7.95h-1.05zm8.549 0v-9h1.2v3.9h4.5v-3.9h1.2v9h-1.2v-4.05h-4.5v4.05h-1.2zm16.35-1.2c-.9.9-1.95 1.35-3.3 1.35-1.35 0-2.4-.45-3.3-1.35-.9-.9-1.35-1.95-1.35-3.3 0-1.35.45-2.4 1.35-3.3.9-.9 1.95-1.35 3.3-1.35 1.35 0 2.4.45 3.3 1.35.9.9 1.35 1.95 1.35 3.3-.15 1.35-.6 2.4-1.35 3.3zm-5.85-.75c.6.6 1.5 1.05 2.4 1.05.9 0 1.8-.3 2.4-1.05.6-.6 1.05-1.5 1.05-2.55 0-1.05-.3-1.95-1.05-2.55-.6-.6-1.5-1.05-2.4-1.05-.9 0-1.8.3-2.4 1.05a3.619 3.619 0 000 5.1zm11.851 1.95v-9h3.3c.75 0 1.35.3 1.8.75.45.45.75 1.05.75 1.8 0 .45-.15.75-.3 1.2-.15.3-.45.6-.9.75.45.15.75.45 1.05.75.3.3.45.75.45 1.35 0 .75-.3 1.35-.75 1.8-.6.45-1.2.75-1.95.75h-3.45v-.15zm1.2-5.1h2.1c.45 0 .75-.15 1.05-.45.3-.3.45-.6.45-.9 0-.3-.15-.6-.45-.9-.3-.3-.6-.45-1.05-.45h-2.1v2.7zm0 4.05h2.4c.45 0 .75-.15 1.05-.45.3-.3.45-.6.45-1.05 0-.3-.15-.75-.45-1.05-.3-.3-.6-.45-1.05-.45h-2.25v3h-.15z" fill="#fff" stroke="#fff" stroke-width=".2" stroke-miterlimit="10"/><defs><linearGradient id="paint0_linear" x1="32.699" y1="13.065" x2="7.526" y2="38.238" gradientUnits="userSpaceOnUse"><stop stop-color="#00A0FF"/><stop offset=".007" stop-color="#00A1FF"/><stop offset=".26" stop-color="#00BEFF"/><stop offset=".512" stop-color="#00D2FF"/><stop offset=".76" stop-color="#00DFFF"/><stop offset="1" stop-color="#00E3FF"/></linearGradient><linearGradient id="paint1_linear" x1="50.751" y1="30.003" x2="14.456" y2="30.003" gradientUnits="userSpaceOnUse"><stop stop-color="#FFE000"/><stop offset=".409" stop-color="#FFBD00"/><stop offset=".775" stop-color="orange"/><stop offset="1" stop-color="#FF9C00"/></linearGradient><linearGradient id="paint2_linear" x1="37.24" y1="33.446" x2="3.103" y2="67.584" gradientUnits="userSpaceOnUse"><stop stop-color="#FF3A44"/><stop offset="1" stop-color="#C31162"/></linearGradient><linearGradient id="paint3_linear" x1="10.946" y1=".265" x2="26.189" y2="15.509" gradientUnits="userSpaceOnUse"><stop stop-color="#32A071"/><stop offset=".069" stop-color="#2DA771"/><stop offset=".476" stop-color="#15CF74"/><stop offset=".801" stop-color="#06E775"/><stop offset="1" stop-color="#00F076"/></linearGradient></defs></svg>