<svg width="48" height="50" fill="none" xmlns="http://www.w3.org/2000/svg"><path d="M24.676 33.719c17.942 5.348 30.363-17.115 16.392-29.524a.731.731 0 10-.954 1.108c12.969 11.553 1.072 32.312-15.438 26.875V27.21c0-.626-.38-1.509-2.185-2.153-2.06-.736-4.438-.8-6.588-.497C9.01 11.104 23.117-3.47 36.753 3.086a.731.731 0 00.641-1.314C22.687-5.316 7.321 10.181 14.42 24.861a8.74 8.74 0 00-.627.196c-1.806.645-2.185 1.527-2.185 2.153v4.866c-1.487-.704-3.09-.929-5.063-.956-.968.033-.969 1.429-.001 1.462 1.466.001 2.834.202 3.852.566 1.001.357 1.212.719 1.212.775 0 .057-.211.419-1.215.777-2.327.83-5.39.83-7.715 0-1.004-.359-1.215-.72-1.215-.777 0-.066.257-.483 1.476-.863.914-.32.498-1.652-.435-1.396C.434 32.31 0 33.25 0 33.925V47.14c0 .627.38 1.509 2.185 2.153 2.643.944 6.057.944 8.699 0 .657-.234 1.124-.5 1.454-.774.33.274.797.54 1.454.774 2.643.944 6.057.944 8.699 0 .657-.234 1.124-.5 1.454-.774.33.274.797.54 1.454.774 2.643.944 6.056.944 8.699 0 1.806-.644 2.185-1.527 2.185-2.153v-6.608c0-.627-.38-1.509-2.185-2.153-2.643-.944-6.057-.944-8.699 0-.272.097-.512.2-.723.306V33.72zM34.82 43.835c0 .056-.211.418-1.215.776-2.327.831-5.39.83-7.716 0-1.003-.358-1.214-.72-1.214-.776v-1.457c.211.106.45.21.723.307 2.643.943 6.056.943 8.699 0 .272-.098.512-.2.723-.307v1.457zm-11.607-13.32c0 .056-.211.418-1.215.776-2.327.83-5.39.83-7.716 0-1.003-.358-1.214-.72-1.214-.777v-1.457c.211.107.45.21.723.307 2.643.943 6.057.943 8.699 0 .272-.098.512-.2.723-.307v1.457zm-9.422 2.153c2.894 1.008 6.624.98 9.422-.307v1.51c0 .056-.211.418-1.215.776-2.327.831-5.39.83-7.716 0-1.003-.358-1.214-.72-1.214-.776v-1.51c.211.107.45.21.723.307zm-2.185 7.863c0 .056-.211.418-1.215.777-2.327.83-5.39.83-7.715 0-1.004-.359-1.215-.72-1.215-.777v-1.457c.211.107.45.21.723.307 2.643.943 6.056.943 8.699 0 .272-.098.512-.2.723-.307v1.457zM1.462 42.378c.211.106.45.21.723.306 2.643.944 6.056.944 8.699 0 .272-.097.512-.2.723-.306v1.457c0 .056-.211.418-1.215.776-2.327.831-5.39.83-7.715 0-1.004-.358-1.215-.72-1.215-.776v-1.457zm11.607 0c.211.106.45.21.723.306 2.643.944 6.057.944 8.699 0 .272-.097.512-.2.723-.306v1.457c0 .056-.211.418-1.215.776-2.327.831-5.39.83-7.716 0-1.003-.358-1.214-.72-1.214-.776v-1.457zm8.93-1.07c-2.327.83-5.39.83-7.716 0-1.003-.359-1.214-.72-1.214-.777v-1.457c.211.107.45.21.723.307 2.643.943 6.057.943 8.699 0 .272-.098.512-.2.723-.307v1.457c0 .056-.211.418-1.215.777zm1.215-4.08c0 .055-.211.417-1.215.776-2.327.83-5.39.83-7.716 0-1.003-.359-1.214-.72-1.214-.777v-1.51c.211.107.45.21.723.307 2.643.944 6.057.943 8.699 0 .272-.097.512-.2.723-.306v1.51zm-8.93-10.794c2.326-.83 5.39-.83 7.715 0 1.004.358 1.215.72 1.215.776 0 .056-.211.418-1.215.777-2.327.83-5.39.83-7.716 0-1.003-.358-1.214-.72-1.214-.777 0-.056.211-.418 1.214-.776zm-12.1 9.643c2.894 1.008 6.624.98 9.422-.307v1.457c0 .057-.211.419-1.215.777-2.327.83-5.39.83-7.715 0-1.004-.359-1.215-.72-1.215-.777V35.77c.211.106.45.21.723.306zm8.207 11.839c-2.327.83-5.39.83-7.715 0-1.004-.359-1.215-.72-1.215-.777v-1.457c3.038 1.366 7.108 1.366 10.145 0v1.457c0 .056-.211.418-1.215.776zm11.607 0c-2.327.83-5.39.83-7.716 0-1.003-.359-1.214-.72-1.214-.777v-1.457c3.037 1.366 7.108 1.366 10.145 0v1.457c0 .056-.211.418-1.215.776zm11.607 0c-2.327.83-5.39.83-7.716 0-1.003-.359-1.214-.72-1.214-.777v-1.457c3.038 1.366 7.108 1.366 10.145 0v1.457c0 .056-.211.418-1.215.776zm-7.716-8.161c2.328-.831 5.39-.83 7.716 0 1.004.358 1.215.72 1.215.776 0 .056-.211.418-1.215.777-2.327.83-5.39.83-7.716 0-1.003-.359-1.214-.72-1.214-.777 0-.056.211-.418 1.214-.776z" fill="#007A65"/></svg>