<svg width="50" height="50" fill="none" xmlns="http://www.w3.org/2000/svg"><path d="M47.038 28.003l-4.558-3.62a2.238 2.238 0 00-1.657-.474 2.236 2.236 0 00-1.506.837 2.236 2.236 0 00-.474 1.657c.069.597.366 1.132.837 1.506l1.605 1.275a.735.735 0 00.914-1.151l-1.605-1.275a.776.776 0 01-.29-.523.776.776 0 01.164-.575.776.776 0 01.523-.29.777.777 0 01.575.164l4.558 3.62a6.3 6.3 0 012.395 4.959 6.34 6.34 0 01-6.333 6.333h-2.584c.09-.51.144-1.033.163-1.564h2.42c2.63 0 4.77-2.14 4.77-4.77a4.745 4.745 0 00-1.803-3.734l-.5-.398a.735.735 0 00-.914 1.151l.5.397a3.282 3.282 0 011.248 2.585c0 1.82-1.48 3.3-3.3 3.3h-2.46a11.466 11.466 0 00-3.246-7.025l-3.488-3.563-.001-.001-8.647-8.834a4.513 4.513 0 01-1.105-1.888l-2.67-9.168v-.767a6.95 6.95 0 00-2.234-5.095 4.035 4.035 0 00-2.74-1.07L10.971 0h-.001c-1.082 0-2.1.421-2.865 1.186l-3.209 3.21H2.41A2.4 2.4 0 00.012 6.794v.984c0 .55.19 1.088.538 1.514l1.52 1.866a5.393 5.393 0 004.198 1.996H8.11v2.406a3.112 3.112 0 00-2.073-.788 3.13 3.13 0 00-3.126 3.126 3.13 3.13 0 003.126 3.127c.795 0 1.52-.298 2.073-.788v.527l-1.843 5.475a.736.736 0 00-.038.235v11.058a.735.735 0 001.47 0v-1.28h.32a4.648 4.648 0 004.644-4.643 4.649 4.649 0 00-4.643-4.643h-.321v-.372l.915-2.72a4.644 4.644 0 005.468-4.686 18.766 18.766 0 007.58-3.245l.166.57c.138.47.334.923.58 1.346l-2.338 3.008a4.841 4.841 0 00.398 6.384 4.825 4.825 0 004.364 1.323l.522-.105 1.527.74c.663.322 1.383.48 2.1.48a4.849 4.849 0 003.004-1.037l.417-.33 3.028 3.094a10.014 10.014 0 012.874 7.045c0 5.552-4.517 10.07-10.07 10.07h-9.11v-1.85c0-.626.509-1.135 1.134-1.135h6.998a.735.735 0 000-1.47h-3.094l-.32-.304c-1.94-1.843-2.046-4.947-.237-6.92a4.916 4.916 0 016.874-.396l1.505 1.303a.735.735 0 10.961-1.11l-1.505-1.304a6.375 6.375 0 00-4.563-1.553 6.377 6.377 0 00-4.355 2.067 6.372 6.372 0 00-1.559 3.058 7.334 7.334 0 01-4.606-1.956l-.825-.766a.735.735 0 00-1.02.018l-2.944 2.945a2.117 2.117 0 00-.624 1.507v6.092c0 .23-.1.446-.275.594l-1.386 1.18H4.805a.095.095 0 01-.095-.095v-.174c0-.551.203-1.08.572-1.49l2.228-2.475a.735.735 0 00.188-.492v-3.142a.735.735 0 10-1.469 0v2.86l-2.04 2.266a3.691 3.691 0 00-.948 2.473v.174c0 .862.701 1.564 1.564 1.564h8.62a2.74 2.74 0 002.555-3.72l-.546-1.418v-6.756a8.796 8.796 0 005.405 2.275v.03a6.367 6.367 0 001.309 3.666h-1.89a2.607 2.607 0 00-2.604 2.603v1.983c0 .737.6 1.337 1.337 1.337h9.243c5.16 0 9.54-3.404 11.011-8.085h2.94c4.303 0 7.803-3.5 7.803-7.802a7.761 7.761 0 00-2.95-6.11zm-41-8.448a1.659 1.659 0 01-1.658-1.657c0-.913.743-1.657 1.657-1.657s1.657.744 1.657 1.657c0 .914-.743 1.657-1.657 1.657zm.23-7.871a3.93 3.93 0 01-3.06-1.454L1.69 8.364a.931.931 0 01-.209-.586v-.984a.93.93 0 01.929-.929H5.2a.734.734 0 00.52-.215l3.425-3.425a2.564 2.564 0 011.825-.756h.842v2.167a.735.735 0 001.47 0V1.47h2.313c.648 0 1.268.243 1.744.682a5.478 5.478 0 011.741 3.58l-4.263 3.024a.963.963 0 01-1.011.063.963.963 0 01-.525-.867V6.767a.735.735 0 00-1.47 0v1.185a2.44 2.44 0 001.314 2.169 2.442 2.442 0 002.536-.162l3.53-2.504.917 3.15-.276.215a17.27 17.27 0 01-10.253 3.623v-2.024a.735.735 0 00-.734-.735H6.268zM8.02 28.435a3.177 3.177 0 013.174 3.174 3.177 3.177 0 01-3.174 3.174h-.321v-6.348h.32zm1.426-5.954a3.24 3.24 0 01-.356-.022l.451-1.34a.736.736 0 00.038-.235v-1.385h1.13c.637 0 1.273-.034 1.904-.1a3.172 3.172 0 01-3.167 3.081zm1.263-4.452H9.58v-2.117a18.75 18.75 0 0010.97-3.792l.675 2.317a17.268 17.268 0 01-10.515 3.592zm20.365 9.47a3.383 3.383 0 01-3.553.388l-1.748-.847a.734.734 0 00-.465-.06l-.764.153a3.358 3.358 0 01-3.037-.92 3.37 3.37 0 01-.277-4.444l2.105-2.708 8.033 8.206-.294.232zM14.32 48.159a1.26 1.26 0 01-.896.372H11.55l.07-.06a2.246 2.246 0 00.792-1.713v-6.093c0-.177.069-.343.194-.468l1.358-1.358V45c0 .09.016.18.049.263l.594 1.546c.18.467.067.998-.287 1.351z" fill="#007A65"/></svg>