<svg width="44" height="48" fill="none" xmlns="http://www.w3.org/2000/svg"><path d="M33.672 41.45c2.278-6.373 5.163-6.271 8.503-6.154.268.01.536.019.804.025.408.01.748-.32.748-.732v-7.132a.732.732 0 10-1.464 0v6.377l-.037-.002c-3.42-.12-7.295-.256-9.934 7.124-.88 2.46-2.16 4.295-3.806 5.46h-4.087V22.942h17.864v1.683a.732.732 0 101.464 0v-1.957c0-.657-.534-1.191-1.19-1.191h-.672v-1.602a.732.732 0 10-1.465 0v1.602h-1.224V18.57a.732.732 0 10-1.465 0v2.907h-4.324v-2.646a1.48 1.48 0 00-1.478-1.479h-7.51V5.392c0-.657-.534-1.191-1.19-1.191h-3.454V1.405C19.755.63 19.125 0 18.351 0h-2.177c-.775 0-1.405.63-1.405 1.405V4.2H7.815a.732.732 0 100 1.465h15.12v40.75h-7.38V41.08c0-.714-.582-1.296-1.296-1.296H10.14c-.715 0-1.296.582-1.296 1.296v5.335h-7.38V5.666h3.518a.732.732 0 100-1.465H1.19A1.19 1.19 0 000 5.39v41.3c0 .657.534 1.19 1.19 1.19h27.523a.731.731 0 00.407-.123c2-1.334 3.532-3.457 4.552-6.308zM16.234 4.2V1.466h2.057V4.2h-2.057zm15.675 14.617c.007 0 .014.006.014.014v2.646H24.4v-2.66h7.509zm-21.6 27.599V41.25h3.78v5.166h-3.78z" fill="#007A65"/></svg>