<svg width="46" height="48" fill="none" xmlns="http://www.w3.org/2000/svg"><path d="M45.03 20.498L28.12.938a1.141 1.141 0 00-1.727 0L17.185 11.59a.69.69 0 00.069.97c.286.25.72.219.967-.069L27.256 2.04l16.745 19.368.015.017c.434.47.54 1.103.285 1.691-.257.588-.792.94-1.432.94a1.56 1.56 0 01-1.179-.54L28.12 7.846a1.142 1.142 0 00-1.726 0l-12.791 14.77a7.404 7.404 0 00-.267-.366 2.275 2.275 0 01-.343-2.111c.204-.601.308-1.23.308-1.87l-.001-.084 2.912-3.37a.689.689 0 00-.07-.97.684.684 0 00-.966.069l-2.173 2.513a5.79 5.79 0 00-.637-1.322 2.383 2.383 0 01-.175-2.243c.303-.707.44-1.46.407-2.236-.11-2.566-2.196-4.704-4.748-4.867a5.038 5.038 0 00-3.812 1.37 5.13 5.13 0 00-1.607 3.72c0 .692.136 1.363.404 1.994.322.76.26 1.606-.166 2.262a5.788 5.788 0 00-.936 3.163c0 .657.109 1.3.323 1.915.24.69.094 1.478-.392 2.111a7.442 7.442 0 00-1.529 4.778 7.37 7.37 0 002.249 5.054A7.347 7.347 0 006.83 34.19v1.624c-1.49.205-2.612 1.436-2.608 2.932 0 .258.034.51.1.756h-.01L4.28 39.5c-.58 0-1.139.122-1.663.361a.688.688 0 00.568 1.253c.34-.156.703-.235 1.08-.237l.395.018a1.102 1.102 0 001.066-1.525 1.563 1.563 0 01-.132-.627c-.002-.858.707-1.553 1.617-1.583 1.264-.042 1.746.78 1.93 1.477.111.42.46.737.89.806.809.132 1.301.443 1.598 1.01.255.487.833.716 1.345.532.35-.125.717-.175 1.093-.147a2.678 2.678 0 012.468 2.485 2.664 2.664 0 01-.713 2.016 2.642 2.642 0 01-1.951.85H4.35c-1.459 0-2.677-1.158-2.716-2.581a2.69 2.69 0 01.056-.626.686.686 0 10-1.342-.284 4.07 4.07 0 00-.085.948c.06 2.16 1.892 3.919 4.087 3.919l36.823-.118a.687.687 0 00.686-.688V25.25c.32.118.662.18 1.01.18a2.896 2.896 0 002.689-1.764 2.912 2.912 0 00-.528-3.169zM12.655 39.496c-.49-.73-1.226-1.184-2.237-1.382-.194-.61-.763-1.852-2.215-2.224v-1.7a7.316 7.316 0 004.452-2.056v7.362zm-.893-8.409a5.959 5.959 0 01-3.559 1.72v-4.052l2.526-2.225a.69.69 0 00.063-.97.685.685 0 00-.968-.064l-1.621 1.427v-6.138l1.621-1.428a.69.69 0 00.063-.971.684.684 0 00-.968-.063l-.716.63v-5.33a.687.687 0 10-1.372 0v5.33l-.716-.63a.685.685 0 00-.968.063.69.69 0 00.062.97l1.622 1.429v6.138l-1.62-1.427a.685.685 0 00-.969.063.69.69 0 00.063.971l2.526 2.225v4.05c-2.894-.34-5.224-2.806-5.325-5.78a6.06 6.06 0 011.244-3.891c.77-1.003.995-2.276.601-3.406a4.417 4.417 0 01-.246-1.46c0-.86.246-1.695.713-2.411.676-1.041.78-2.369.28-3.552a3.703 3.703 0 01-.295-1.456c0-1.04.417-2.005 1.174-2.717a3.672 3.672 0 012.785-1c1.863.12 3.385 1.68 3.465 3.552a3.715 3.715 0 01-.296 1.635 3.76 3.76 0 00.285 3.538 4.41 4.41 0 01.713 2.411c0 .488-.08.969-.235 1.426a3.618 3.618 0 00.562 3.404 5.984 5.984 0 011.275 3.715 6.003 6.003 0 01-1.769 4.274zm21.214 14.984H21.537v-1.25h11.44v1.25zm-9.448-8.648l3.729-4.248 3.728 4.248v6.022h-7.457v-6.022zm-1.754-.136a.652.652 0 01-.488.22.641.641 0 01-.596-.39.645.645 0 01.114-.704l6.453-7.098 6.452 7.098a.646.646 0 01.115.705.642.642 0 01-.596.39.652.652 0 01-.489-.221l-4.7-5.33a1.044 1.044 0 00-1.565 0l-4.7 5.33zm18.713 8.784h-6.139v-1.48c0-.632-.513-1.146-1.143-1.146h-.848v-4.76c.27.129.566.198.87.198.814 0 1.523-.463 1.852-1.21a2.01 2.01 0 00-.356-2.187l-6.695-7.365a1.046 1.046 0 00-1.543 0l-6.695 7.365a2.01 2.01 0 00-.355 2.187 1.999 1.999 0 001.85 1.21c.305 0 .602-.07.871-.198v4.76h-.848c-.63 0-1.143.514-1.143 1.146v1.48h-3.16a4.06 4.06 0 00-2.839-6.606c-.046-.004-.093-.006-.14-.008v-9.136a7.393 7.393 0 00.877-3.508 7.38 7.38 0 00-.593-2.915l12.946-14.95 13.23 15.277V46.07z" fill="#007A65"/></svg>