<svg width="50" height="28" fill="none" xmlns="http://www.w3.org/2000/svg"><path d="M46.313 9.529H38.76c-1.293 0-2.513-.5-3.434-1.408l-6.017-5.926A6.85 6.85 0 0024.472.213h-2.011a.732.732 0 000 1.465h2.012c1.433 0 2.786.554 3.807 1.56l.446.44h-4.344a2.24 2.24 0 00-2.238 2.237v2.841a2.24 2.24 0 002.238 2.237h21.931c1.225 0 2.222.997 2.222 2.222v.03h-1.458c-.98 0-1.776.796-1.776 1.775v.82c0 .979.797 1.775 1.776 1.775h1.458v1.496h-5.402a5.16 5.16 0 00-7.61 0H14.869a5.16 5.16 0 00-7.61 0H1.465v-1.728a.732.732 0 00-1.465 0v3.371a3.246 3.246 0 003.242 3.242h2.836a5.182 5.182 0 004.985 3.79 5.18 5.18 0 005.174-5.173c0-.723-.15-1.411-.419-2.037h18.755a5.146 5.146 0 00-.416 1.955H18.84a.733.733 0 000 1.465h15.504a5.182 5.182 0 004.984 3.79 5.182 5.182 0 004.985-3.79h2.445A3.246 3.246 0 0050 20.754v-7.539a3.691 3.691 0 00-3.687-3.686zm-21.931 0a.773.773 0 01-.773-.773V5.915c0-.426.347-.772.773-.772h5.831l4.084 4.022a6.6 6.6 0 00.404.364H24.38zM1.465 20.754v-.178h4.842a5.143 5.143 0 00-.416 1.955H3.242a1.78 1.78 0 01-1.777-1.777zm9.598 5.568a3.713 3.713 0 01-3.71-3.71 3.713 3.713 0 013.71-3.708 3.713 3.713 0 013.709 3.709 3.713 3.713 0 01-3.71 3.709zM47.077 16.15a.311.311 0 01-.31-.31v-.82a.31.31 0 01.31-.311h1.458v1.441h-1.458zm-7.748 10.172a3.713 3.713 0 01-3.71-3.71 3.713 3.713 0 013.71-3.708 3.713 3.713 0 013.709 3.709 3.713 3.713 0 01-3.71 3.709zm7.429-3.79H44.5a5.14 5.14 0 00-.416-1.956h4.451v.178a1.78 1.78 0 01-1.777 1.777z" fill="#007A65"/></svg>