<svg width="50" height="42" fill="none" xmlns="http://www.w3.org/2000/svg"><path d="M46.527 26.584h-3.132a1.22 1.22 0 00-1.218 1.206H37.62a15.97 15.97 0 00-6.212-14.505L35.623 8.3a1.217 1.217 0 001.708-.151l2.021-2.392a3.477 3.477 0 00-.41-4.894 3.45 3.45 0 00-2.531-.81 3.45 3.45 0 00-2.363 1.22l-2.022 2.39a1.21 1.21 0 00-.283.89c.026.32.175.61.418.82l-4.8 5.676a15.882 15.882 0 00-5.602-1.012c-8.8 0-15.96 7.16-15.96 15.96 0 .819.062 1.636.186 2.44l-5.082.603C.38 29.102 0 29.53 0 30.057c0 .527.38.954.903 1.016l5.978.709c.401 1.032.91 2.021 1.518 2.95L6.34 37.847c-.29.44-.21 1.005.193 1.346.402.34.974.326 1.36-.034l2.309-2.155a15.974 15.974 0 0011.556 4.954c3.238 0 6.356-.964 9.017-2.789a15.948 15.948 0 005.638-6.846h5.764a1.22 1.22 0 001.218 1.207h3.131A3.477 3.477 0 0050 30.057a3.477 3.477 0 00-3.473-3.473zM31.725 30.86a70.47 70.47 0 00.72-1.608h9.732v1.608H31.725zm-1.761-13.288c0 9.085-4.846 17.58-12.659 22.22a14.512 14.512 0 01-2.255-.944 23.892 23.892 0 008.073-6.754.745.745 0 00.051-.06c1-1.334 1.911-2.77 2.588-4.278a23.86 23.86 0 002.28-10.492l1.807-2.136c.076.81.115 1.628.115 2.444zm-9.886 6.847l-2.85 3.37h-2.106l3.555-4.205c.477.261.945.54 1.401.835zm1.209.835c1.01.751 1.961 1.59 2.842 2.511l-.012.024h-4.974l2.144-2.535zm11.99-18.938l1.229 1.039-9.12 10.786c-.444-.31-.894-.608-1.352-.892l9.244-10.933zm1.888-4.1c.347-.41.833-.661 1.368-.706a2.013 2.013 0 011.703 3.302L36.37 7.018 33.3 4.422l1.864-2.206zM7.261 25.996c0-7.994 6.503-14.498 14.498-14.498 1.577 0 3.118.25 4.593.744l-3.598 4.256a30.423 30.423 0 00-5.255-2.298.731.731 0 00-.457 1.389 28.959 28.959 0 019.319 5.121c-.1.71-.234 1.412-.4 2.103a27.153 27.153 0 00-13.03-6.357.731.731 0 00-.266 1.438A25.708 25.708 0 0125.52 24.39a22.46 22.46 0 01-.73 1.961 23.812 23.812 0 00-10.854-6.207.731.731 0 00-.367 1.415c1.3.337 2.56.789 3.767 1.347l-4.13 4.884H11.49a.754.754 0 00-.086.005l-3.965.47a14.675 14.675 0 01-.177-2.267zm4.271 3.256h11.766a22.514 22.514 0 01-1.077 1.608H11.532l-6.783-.804 6.783-.804zM8.55 31.98l1.546.183-.81 1.227a14.46 14.46 0 01-.736-1.41zm3.193.343h1.332L9.6 35.566l2.143-3.243zm-.472 3.684l3.947-3.684h5.833a22.417 22.417 0 01-7.495 5.627 14.5 14.5 0 01-2.284-1.943zm8.003 4.273a27.454 27.454 0 008.415-8.916 27.268 27.268 0 003.625-16.27 14.506 14.506 0 014.833 12.696h-1.823c-.276-.47-.566-.935-.866-1.388.31-1.03.567-2.08.767-3.146a.731.731 0 00-1.437-.27 28.967 28.967 0 01-2.888 8.241 29.235 29.235 0 01-7.743 9.262c-.133.003-.265.007-.398.007-.84 0-1.67-.074-2.485-.216zm9.694-4.795c.316.855.58 1.731.79 2.618-1.5.99-3.185 1.7-4.98 2.077 1.563-1.426 2.965-3 4.19-4.695zm2.062 1.674a23.822 23.822 0 00-1.068-3.136 30.58 30.58 0 001.01-1.7h.334a25.76 25.76 0 011.287 3.324 14.408 14.408 0 01-1.563 1.512zm2.647-2.893a27.209 27.209 0 00-.765-1.943h1.895a14.59 14.59 0 01-1.13 1.943zm12.85-2.199H43.64v-4.02h2.888c1.109 0 2.01.901 2.01 2.01 0 1.108-.901 2.01-2.01 2.01z" fill="#007A65"/></svg>