<svg width="50" height="48" fill="none" xmlns="http://www.w3.org/2000/svg"><path d="M47.503 10.269H37.48v-2.47c0-4.3-3.499-7.799-7.8-7.799h-5.858a.732.732 0 100 1.465h5.859a6.341 6.341 0 016.334 6.334v2.47h-1.681v-2.47a4.658 4.658 0 00-4.653-4.653H19.264a4.658 4.658 0 00-4.653 4.653v2.47h-1.68v-2.47a6.341 6.341 0 016.333-6.334h1.727a.732.732 0 100-1.465h-1.727c-4.3 0-7.799 3.499-7.799 7.799v2.47H2.496a2.1 2.1 0 00-2.098 2.098v9.407a2.1 2.1 0 002.098 2.098h.831v9.73a.732.732 0 101.465 0v-9.73h12.67v1.794c0 .898.73 1.63 1.629 1.63h11.74c.9 0 1.63-.732 1.63-1.63v-1.794h12.746v9.462c-.1.07-.2.139-.301.205-1.436.93-3.055.874-4.77.814-3.29-.116-7.02-.247-9.56 6.855-.767 2.145-1.855 3.797-3.235 4.916H7.765a2.976 2.976 0 01-2.973-2.973v-6.717a.732.732 0 10-1.465 0v6.717a4.443 4.443 0 004.438 4.438h19.83c.16 0 .315-.053.443-.15 1.7-1.293 3.018-3.224 3.917-5.738 2.18-6.094 4.938-5.997 8.13-5.884 1.866.065 3.795.133 5.618-1.05a9.59 9.59 0 00.686-.488.733.733 0 00.283-.578v-9.829h.83a2.1 2.1 0 002.099-2.098v-9.407a2.1 2.1 0 00-2.098-2.098zm-31.427-2.47a3.192 3.192 0 013.188-3.188h10.418a3.192 3.192 0 013.188 3.188v2.47H16.076v-2.47zm14.92 17.867a.165.165 0 01-.164.165H19.09a.165.165 0 01-.165-.165v-4.623c0-.091.074-.165.165-.165h11.74c.092 0 .166.074.166.165v4.623zm17.14-3.892a.634.634 0 01-.633.633H32.462v-1.364c0-.9-.731-1.63-1.63-1.63H19.09c-.899 0-1.63.73-1.63 1.63v1.364H2.496a.634.634 0 01-.633-.633v-9.407c0-.35.284-.633.633-.633h45.007c.349 0 .633.284.633.633v9.407z" fill="#007A65"/></svg>