<svg width="48" height="50" fill="none" xmlns="http://www.w3.org/2000/svg"><path d="M47.876 12.057a2.473 2.473 0 00-1.158-1.513L29.236.425a3.166 3.166 0 00-3.165 0L8.59 10.544a2.479 2.479 0 00-1.159 1.513 2.473 2.473 0 00.251 1.89l.67 1.158a2.506 2.506 0 002.159 1.243c.433 0 .86-.114 1.244-.336l.38-.22v3.536H5.97a5.94 5.94 0 00-5.934 5.934v18.804A5.94 5.94 0 005.971 50h.643a.732.732 0 100-1.465h-.643a4.474 4.474 0 01-4.469-4.469V25.262a4.474 4.474 0 014.469-4.469h13.4a4.474 4.474 0 014.469 4.469v18.804a4.474 4.474 0 01-4.47 4.47H9.545a.732.732 0 100 1.464h9.827a5.94 5.94 0 005.934-5.934v-7.371h19.733a.733.733 0 00.733-.733V34.29a3.757 3.757 0 00-2.597-3.568v-9.197a.732.732 0 10-1.465 0v9.029a3.737 3.737 0 00-2.563 1.321 3.74 3.74 0 00-2.873-1.336 3.742 3.742 0 00-2.873 1.336 3.741 3.741 0 00-2.874-1.336 3.741 3.741 0 00-2.873 1.336 3.735 3.735 0 00-2.349-1.298v-1.855h7.135c1.61 0 2.92-1.31 2.92-2.92v-9.18c0-1.61-1.31-2.919-2.92-2.919h-9.571a2.922 2.922 0 00-2.92 2.919v2.735a6.006 6.006 0 00-.577-.029H13.6v-4.384l14.055-8.136 14.055 8.137v3.65a.732.732 0 101.465 0v-2.802l.378.219a2.474 2.474 0 001.89.25 2.473 2.473 0 001.512-1.157l.67-1.159a2.474 2.474 0 00.252-1.889zm-22.63 12.386a5.899 5.899 0 00-.958-2.498h2.633v2.498h-1.674zm3.14-2.498h2.693v2.498h-2.693v-2.498zm2.693-1.465h-2.693v-2.497h2.693v2.497zm-4.158 0h-2.693v-2.497h2.693v2.497zm.035 13.108a.733.733 0 001.394 0 2.28 2.28 0 012.176-1.584c.997 0 1.871.637 2.176 1.584a.733.733 0 001.394 0 2.28 2.28 0 012.178-1.584c.995 0 1.87.637 2.176 1.585a.732.732 0 001.394 0 2.278 2.278 0 012.176-1.585 2.289 2.289 0 012.286 2.287v.94H25.305v-3.166c.768.18 1.401.747 1.65 1.523zm-5.542-16.966c0-.802.652-1.454 1.454-1.454h9.571c.802 0 1.455.652 1.455 1.454v9.18c0 .802-.653 1.455-1.455 1.455h-7.135v-1.35h6.507a.732.732 0 00.733-.732V17.25a.732.732 0 00-.733-.733h-8.315a.732.732 0 00-.733.732v3.148a5.923 5.923 0 00-1.35-.707v-3.069zm24.943-3.41l-.67 1.159a1.018 1.018 0 01-.623.476c-.265.071-.54.034-.778-.103L28.02 5.327a.732.732 0 00-.733 0L11.02 14.744a1.018 1.018 0 01-.778.103 1.018 1.018 0 01-.622-.476l-.67-1.159a1.018 1.018 0 01-.104-.777c.07-.264.24-.486.476-.623l17.482-10.12a1.698 1.698 0 011.697 0l17.482 10.12c.489.283.656.911.373 1.4z" fill="#007A65"/></svg>