<svg width="50" height="42" fill="none" xmlns="http://www.w3.org/2000/svg"><path d="M49.983 23.95l-.378-2.649a1.688 1.688 0 00-.8-1.21 1.688 1.688 0 00-1.444-.146l-7.197 2.558v-11.07l.872.387a1.141 1.141 0 001.502-.58l1.043-2.35c.123-.278.13-.588.021-.872a1.131 1.131 0 00-.6-.631l-8.925-3.956a.732.732 0 10-.593 1.339l8.625 3.824-.778 1.754-13.878-6.152a.733.733 0 00-.593 0l-13.878 6.152-.778-1.754 14.564-6.456a.96.96 0 01.778 0l3.334 1.478a.732.732 0 10.594-1.34L28.14.799a2.428 2.428 0 00-1.966 0l-4.94 2.19V1.554a.965.965 0 00-.963-.964h-2.785a.965.965 0 00-.963.964v3.523l-5.21 2.31a1.132 1.132 0 00-.601.631c-.11.284-.102.593.021.872l1.042 2.35a1.14 1.14 0 001.503.58l.872-.387V15.6a.732.732 0 101.465 0v-4.816l11.542-5.117 11.542 5.117v12.24l-7.895 2.807v-2.76c0-.869-.707-1.575-1.576-1.575h-4.143c-.869 0-1.575.707-1.575 1.575v2.164l-1.058-.863a2.523 2.523 0 00-1.592-.568h-5.245v-5.372a.732.732 0 10-1.465 0v5.372h-1.525v-1.718c0-.858-.698-1.556-1.555-1.556H1.556C.698 20.53 0 21.228 0 22.086v17.368c0 .858.698 1.556 1.556 1.556h9.514c.857 0 1.555-.698 1.555-1.556v-.161l17.764 2.079a5.08 5.08 0 004.176-1.413l3.018-2.944a.733.733 0 00-1.023-1.048l-3.018 2.943a3.624 3.624 0 01-2.98 1.007l-17.937-2.1V25.27h8.235c.242 0 .479.084.666.237l4.777 3.902a.32.32 0 01.12.239.327.327 0 01-.095.25l-1.72 1.734a.329.329 0 01-.426.037l-3.496-2.48a.732.732 0 10-.847 1.196l3.496 2.479a1.793 1.793 0 002.312-.2l1.721-1.734a1.799 1.799 0 00.14-2.372l20.344-7.232a.226.226 0 01.195.02c.034.02.094.07.108.163l.378 2.65a.229.229 0 01-.067.195l-9.868 9.625a.733.733 0 001.023 1.049l9.868-9.625c.386-.376.57-.919.494-1.452zM17.987 2.055h1.782v1.583l-1.782.79V2.055zM11.16 39.454c0 .05-.04.09-.09.09H1.556a.09.09 0 01-.091-.09V22.086c0-.05.04-.09.09-.09h9.515c.05 0 .09.04.09.09v17.368zM24.974 23.07c0-.06.05-.11.111-.11h4.143c.061 0 .111.05.111.11v3.28l-3.11 1.106-1.255-1.025v-3.36z" fill="#007A65"/></svg>