<svg width="50" height="48" fill="none" xmlns="http://www.w3.org/2000/svg"><path d="M49.486 27.472l-21.162-6.605v-5.56l.451.249a2.503 2.503 0 002.423-4.38L12.4.778a2.505 2.505 0 00-2.875.32l-3.5 3.114A.732.732 0 107 5.307l3.5-3.114a1.039 1.039 0 011.192-.133L30.49 12.458a1.038 1.038 0 01-1.005 1.816l-17.7-9.791a.732.732 0 00-.842.093l-7.75 6.896a1.037 1.037 0 11-1.38-1.55l3.061-2.723A.732.732 0 103.9 6.104L.84 8.827a2.486 2.486 0 00-.835 1.724 2.5 2.5 0 004.162 2.015l.143-.127v11.884l-.648-.126a.733.733 0 00-.28 1.438l.928.18v10.626a.732.732 0 101.465 0v-10.34l21.085 4.101v15.607H16.33v-6.14a1.3 1.3 0 00-1.297-1.298H10.55a1.3 1.3 0 00-1.298 1.298v6.14H5.774V39.26a.732.732 0 10-1.465 0v7.281c0 .405.328.733.733.733h27.691c.18 0 .353-.066.487-.186 1.5-1.335 2.684-3.196 3.52-5.53 2.299-6.433 5.211-6.331 8.584-6.212.506.017 1.031.036 1.55.03a.733.733 0 00.725-.732v-6.226l1.45.452a.732.732 0 00.437-1.398zM5.774 24.608V11.135l5.754-5.12 15.33 8.48V28.71L5.775 24.608zm4.944 21.2v-5.973h4.148v5.974h-4.148zm35.416-11.903a68.17 68.17 0 01-.759-.023c-3.447-.121-7.355-.259-10.015 7.182-.712 1.992-1.691 3.587-2.912 4.745h-4.124V30.487l.647.126a.733.733 0 00.28-1.438l-.927-.18v-6.593l17.81 5.558v5.945z" fill="#007A65"/></svg>