<svg width="50" height="48" fill="none" xmlns="http://www.w3.org/2000/svg"><path d="M48.94 15.514A3.002 3.002 0 0050 13.225a3.011 3.011 0 00-3.008-3.008h-8.833l1.158-2.47a.732.732 0 10-1.325-.62l-1.45 3.09h-1.248v-.123a3.976 3.976 0 00-3.972-3.972H30.6l-1.15-2.58c-.18-.457-.13-.977.137-1.394a1.428 1.428 0 011.223-.673c.512 0 .982.236 1.288.649a.732.732 0 001.175 0 1.591 1.591 0 011.289-.65c.512 0 .982.237 1.288.65a.732.732 0 001.175 0 1.591 1.591 0 011.372-.647 1.43 1.43 0 011.14.671c.265.415.316.933.14 1.389l-.274.581a.732.732 0 101.325.622l.282-.602a3.01 3.01 0 00-.24-2.777A2.875 2.875 0 0038.314.01a3.08 3.08 0 00-1.876.643A3.08 3.08 0 0034.562.01a3.08 3.08 0 00-1.876.643 3.08 3.08 0 00-2.034-.639 2.874 2.874 0 00-2.298 1.346 3.01 3.01 0 00-.247 2.764l.89 1.997h-.407a5.168 5.168 0 00-4.084 1.982l-2.402 3.05a2.705 2.705 0 01-2.138 1.038h-2.175v-.152a1.12 1.12 0 00-1.118-1.118H1.118A1.12 1.12 0 000 12.04v13.792a1.12 1.12 0 001.118 1.119h8.213a.732.732 0 100-1.464H1.463V12.385h14.864v13.102h-3.566a.732.732 0 000 1.464h3.912a1.12 1.12 0 001.118-1.119v-.528h1.775c.63 0 1.244.22 1.73.621l1.647 1.357-.877 1.557a12.79 12.79 0 00-1.599 7.485 12.789 12.789 0 002.942 7.066 12.814 12.814 0 009.85 4.599h2.607c3.812 0 7.401-1.676 9.849-4.6a12.79 12.79 0 002.942-7.065 12.79 12.79 0 00-1.6-7.485l-.818-1.453a2.99 2.99 0 00-.428-2.024 3.012 3.012 0 002.625-2.983 2.99 2.99 0 00-.535-1.71A3.013 3.013 0 0050 17.802c0-.916-.412-1.736-1.06-2.288zm-26.713 9.282a4.194 4.194 0 00-2.661-.955h-1.775V13.656h2.175a4.16 4.16 0 003.287-1.596l2.403-3.05a3.713 3.713 0 012.934-1.425h2.732a2.511 2.511 0 012.508 2.509v6.024c0 .77-.626 1.395-1.395 1.395a1.396 1.396 0 01-1.394-1.395v-5.17a.732.732 0 10-1.463 0v4.556l-5.905 10.483-1.446-1.191zm24.972 11.393a11.331 11.331 0 01-2.606 6.261 11.354 11.354 0 01-8.727 4.075h-2.608a11.354 11.354 0 01-8.727-4.075 11.332 11.332 0 01-2.607-6.26 11.331 11.331 0 011.418-6.633l6.696-11.887c.095.146.203.284.322.41l.005.005c.3.317.644.551 1.02.7a3.013 3.013 0 002.842 2.025h.047a2.99 2.99 0 00-.443 1.57c0 1.21.72 2.255 1.753 2.732a2.992 2.992 0 00-.634 1.844 3.011 3.011 0 003.008 3.008h5.304A3 3 0 0045.468 29l.314.558a11.332 11.332 0 011.417 6.632zm-10.786-9.233c0-.852.693-1.544 1.544-1.544h5.305c.852 0 1.545.692 1.545 1.544 0 .852-.693 1.545-1.545 1.545h-5.305a1.546 1.546 0 01-1.544-1.545zm9.015-3.032h-8.59a1.546 1.546 0 01-1.544-1.545c0-.852.693-1.545 1.545-1.545h8.589c.851 0 1.544.694 1.544 1.545 0 .852-.693 1.545-1.544 1.545zm1.564-4.577H34.227c-.427 0-.814-.177-1.093-.459A2.883 2.883 0 0034.585 18a2.87 2.87 0 00.704-1.742h11.703c.852 0 1.545.693 1.545 1.544 0 .852-.693 1.545-1.545 1.545zm0-4.577H35.294v-3.09h11.698c.852 0 1.545.693 1.545 1.545s-.693 1.545-1.545 1.545z" fill="#007A65"/></svg>